<?xml version="1.0" encoding="utf-8" standalone="no"?>
<!DOCTYPE svg PUBLIC "-//W3C//DTD SVG 1.1//EN"
  "http://www.w3.org/Graphics/SVG/1.1/DTD/svg11.dtd">
<svg xmlns:xlink="http://www.w3.org/1999/xlink" width="494.203125pt" height="281.634375pt" viewBox="0 0 494.203125 281.634375" xmlns="http://www.w3.org/2000/svg" version="1.1">
 <metadata>
  <rdf:RDF xmlns:dc="http://purl.org/dc/elements/1.1/" xmlns:cc="http://creativecommons.org/ns#" xmlns:rdf="http://www.w3.org/1999/02/22-rdf-syntax-ns#">
   <cc:Work>
    <dc:type rdf:resource="http://purl.org/dc/dcmitype/StillImage"/>
    <dc:date>2025-11-28T07:46:50.277168</dc:date>
    <dc:format>image/svg+xml</dc:format>
    <dc:creator>
     <cc:Agent>
      <dc:title>Matplotlib v3.9.2, https://matplotlib.org/</dc:title>
     </cc:Agent>
    </dc:creator>
   </cc:Work>
  </rdf:RDF>
 </metadata>
 <defs>
  <style type="text/css">*{stroke-linejoin: round; stroke-linecap: butt}</style>
 </defs>
 <g id="figure_1">
  <g id="patch_1">
   <path d="M 0 281.634375 
L 494.203125 281.634375 
L 494.203125 0 
L 0 0 
z
" style="fill: #ffffff"/>
  </g>
  <g id="axes_1">
   <g id="patch_2">
    <path d="M 40.603125 244.078125 
L 487.003125 244.078125 
L 487.003125 22.318125 
L 40.603125 22.318125 
z
" style="fill: #ffffff"/>
   </g>
   <g id="PolyCollection_1">
    <defs>
     <path id="mff72a46943" d="M 60.894034 -47.63625 
L 60.894034 -47.63625 
L 61.300258 -107.067536 
L 61.706483 -154.882371 
L 62.112707 -190.351557 
L 62.518932 -215.056613 
L 62.925156 -230.375381 
L 63.331381 -237.769383 
L 63.737605 -238.724809 
L 64.143829 -234.692885 
L 64.550054 -227.085879 
L 64.956278 -217.280476 
L 65.362503 -206.759816 
L 65.768727 -197.115229 
L 66.174951 -188.91559 
L 66.581176 -184.066184 
L 66.9874 -184.322961 
L 67.393624 -189.18732 
L 67.799849 -197.090928 
L 68.206074 -205.983261 
L 68.612298 -212.580855 
L 69.018522 -217.309422 
L 69.424747 -219.598452 
L 69.830971 -219.253421 
L 70.237195 -216.439724 
L 70.64342 -211.541008 
L 71.049644 -205.137694 
L 71.455868 -197.902325 
L 71.862093 -190.530486 
L 72.268317 -183.204425 
L 72.674542 -176.705789 
L 73.080766 -172.715677 
L 73.486991 -171.968852 
L 73.893215 -174.744956 
L 74.299439 -180.707877 
L 74.705663 -189.009383 
L 75.111887 -197.288568 
L 75.518113 -205.414326 
L 75.924337 -212.667706 
L 76.330561 -218.387538 
L 76.736786 -222.062752 
L 77.14301 -223.4182 
L 77.549234 -222.370578 
L 77.95546 -219.013184 
L 78.361684 -213.598361 
L 78.767908 -206.544109 
L 79.174132 -198.383157 
L 79.580356 -189.712232 
L 79.98658 -180.278967 
L 80.392806 -172.009188 
L 80.79903 -165.920414 
L 81.205254 -162.693857 
L 81.611479 -162.60211 
L 82.017703 -165.392724 
L 82.423927 -169.15294 
L 82.830151 -174.19276 
L 83.236377 -179.926306 
L 83.642601 -185.685234 
L 84.048825 -190.96526 
L 84.455049 -195.371317 
L 84.861273 -198.594258 
L 85.267498 -200.471103 
L 85.673723 -200.986039 
L 86.079947 -200.135392 
L 86.486172 -197.949688 
L 86.892396 -194.647621 
L 87.29862 -190.461702 
L 87.704844 -185.566037 
L 88.111068 -179.83887 
L 88.517292 -174.145842 
L 88.923517 -168.939195 
L 89.329741 -164.416362 
L 89.735968 -160.694025 
L 90.142192 -157.581851 
L 90.548416 -154.58032 
L 90.95464 -152.103132 
L 91.360865 -150.063331 
L 91.767089 -148.32858 
L 92.173313 -146.751203 
L 92.579537 -145.191989 
L 92.985761 -143.55049 
L 93.391985 -141.727158 
L 93.79821 -139.654903 
L 94.204434 -137.3042 
L 94.610658 -134.67082 
L 95.016885 -131.770617 
L 95.423109 -128.63418 
L 95.829333 -125.301438 
L 96.235558 -121.817346 
L 96.641782 -118.228434 
L 97.048006 -114.580466 
L 97.45423 -110.917301 
L 97.860454 -107.280718 
L 98.266678 -103.710937 
L 98.672903 -100.247106 
L 99.079127 -96.929364 
L 99.485351 -93.799736 
L 99.891578 -90.897845 
L 100.297802 -88.263046 
L 100.704026 -85.931261 
L 101.110251 -83.929563 
L 101.516475 -82.271926 
L 101.922699 -80.963478 
L 102.328923 -80.00237 
L 102.735147 -79.291867 
L 103.141371 -78.744564 
L 103.547596 -78.40089 
L 103.95382 -78.158862 
L 104.360044 -77.947908 
L 104.766268 -77.719699 
L 105.172495 -77.431961 
L 105.578719 -77.051223 
L 105.984944 -76.554001 
L 106.391168 -75.926073 
L 106.797392 -75.160881 
L 107.203616 -74.257445 
L 107.60984 -73.226459 
L 108.016064 -72.070353 
L 108.422289 -70.828508 
L 108.828513 -69.52765 
L 109.234737 -68.181104 
L 109.640961 -66.814328 
L 110.047185 -65.469283 
L 110.453412 -64.176827 
L 110.859637 -62.984314 
L 111.265861 -61.931159 
L 111.672085 -61.051838 
L 112.078309 -60.399868 
L 112.484533 -59.928137 
L 112.890757 -59.659556 
L 113.296981 -59.571429 
L 113.703206 -59.628089 
L 114.10943 -59.787815 
L 114.515654 -60.011446 
L 114.921878 -60.25821 
L 115.328102 -60.499242 
L 115.734326 -60.714021 
L 116.140551 -60.892805 
L 116.546775 -61.026411 
L 116.952999 -61.113593 
L 117.359223 -61.157571 
L 117.765447 -61.164967 
L 118.171678 -61.144766 
L 118.577902 -61.107331 
L 118.984126 -61.048737 
L 119.39035 -60.999301 
L 119.796574 -60.975942 
L 120.202798 -60.973411 
L 120.609022 -60.995775 
L 121.015247 -61.016587 
L 121.421471 -61.05737 
L 121.827695 -61.123265 
L 122.233919 -61.206128 
L 122.640143 -61.300702 
L 123.046367 -61.398293 
L 123.452592 -61.490412 
L 123.858816 -61.569334 
L 124.26504 -61.628503 
L 124.671264 -61.662791 
L 125.077488 -61.668641 
L 125.483712 -61.644099 
L 125.889937 -61.588777 
L 126.296161 -61.503752 
L 126.702385 -61.391409 
L 127.108609 -61.255266 
L 127.514833 -61.09975 
L 127.921057 -60.92996 
L 128.327282 -60.751412 
L 128.733512 -60.569772 
L 129.139736 -60.390591 
L 129.54596 -60.219033 
L 129.952184 -60.059648 
L 130.358408 -59.915898 
L 130.764633 -59.789824 
L 131.170857 -59.684256 
L 131.577081 -59.599888 
L 131.983305 -59.536441 
L 132.389529 -59.492794 
L 132.795753 -59.46716 
L 133.201978 -59.457297 
L 133.608202 -59.460712 
L 134.014426 -59.474849 
L 134.42065 -59.497266 
L 134.826874 -59.525745 
L 135.233098 -59.558339 
L 135.639323 -59.593093 
L 136.045547 -59.62998 
L 136.451771 -59.667634 
L 136.857995 -59.705001 
L 137.264219 -59.742143 
L 137.670443 -59.778933 
L 138.076668 -59.815355 
L 138.482892 -59.851429 
L 138.889122 -59.887163 
L 139.295346 -59.9225 
L 139.70157 -59.957304 
L 140.107794 -59.991333 
L 140.514019 -60.024246 
L 140.920243 -60.055606 
L 141.326467 -60.084914 
L 141.732691 -60.111389 
L 142.138915 -60.134291 
L 142.545139 -60.153604 
L 142.951364 -60.168863 
L 143.357588 -60.17969 
L 143.763812 -60.185811 
L 144.170036 -60.187078 
L 144.57626 -60.183476 
L 144.982484 -60.175128 
L 145.388709 -60.162292 
L 145.794933 -60.145349 
L 146.201157 -60.124785 
L 146.607381 -60.101175 
L 147.013605 -60.075161 
L 147.419829 -60.047426 
L 147.826054 -60.018667 
L 148.232278 -59.989574 
L 148.638502 -59.960804 
L 149.044726 -59.932959 
L 149.450956 -59.906183 
L 149.85718 -59.881335 
L 150.263405 -59.858794 
L 150.669629 -59.83884 
L 151.075853 -59.821666 
L 151.482077 -59.807379 
L 151.888301 -59.796008 
L 152.294525 -59.787509 
L 152.70075 -59.781785 
L 153.106974 -59.778685 
L 153.513198 -59.778022 
L 153.919422 -59.779584 
L 154.325646 -59.783145 
L 154.73187 -59.788468 
L 155.138095 -59.795316 
L 155.544319 -59.803451 
L 155.950543 -59.812645 
L 156.356767 -59.822677 
L 156.762991 -59.833338 
L 157.169215 -59.844425 
L 157.57544 -59.85575 
L 157.981664 -59.867136 
L 158.387888 -59.878415 
L 158.794112 -59.889427 
L 159.200336 -59.900022 
L 159.60656 -59.910066 
L 160.012791 -59.91943 
L 160.419015 -59.928002 
L 160.825239 -59.935682 
L 161.231463 -59.942387 
L 161.637687 -59.948047 
L 162.043911 -59.952612 
L 162.450136 -59.956051 
L 162.85636 -59.95835 
L 163.262584 -59.959521 
L 163.668808 -59.959591 
L 164.075032 -59.958611 
L 164.481256 -59.956647 
L 164.887481 -59.95378 
L 165.293705 -59.950106 
L 165.699929 -59.945733 
L 166.106153 -59.940779 
L 166.512377 -59.935364 
L 166.918601 -59.929619 
L 167.324826 -59.923664 
L 167.73105 -59.917625 
L 168.137274 -59.911619 
L 168.543498 -59.905751 
L 168.949722 -59.900125 
L 169.355946 -59.894824 
L 169.762171 -59.889928 
L 170.168395 -59.885498 
L 170.574619 -59.881584 
L 170.980843 -59.878218 
L 171.387067 -59.875427 
L 171.793291 -59.87322 
L 172.199516 -59.871597 
L 172.60574 -59.870549 
L 173.011964 -59.870053 
L 173.418188 -59.870079 
L 173.824412 -59.870594 
L 174.230636 -59.871557 
L 174.636861 -59.872923 
L 175.043085 -59.874642 
L 175.449321 -59.876664 
L 175.855545 -59.878935 
L 176.261769 -59.881404 
L 176.667993 -59.884014 
L 177.074218 -59.886714 
L 177.480442 -59.889453 
L 177.886666 -59.892183 
L 178.29289 -59.894861 
L 178.699114 -59.897442 
L 179.105338 -59.899891 
L 179.511563 -59.902171 
L 179.917787 -59.904257 
L 180.324011 -59.906124 
L 180.730235 -59.90775 
L 181.136459 -59.909125 
L 181.542683 -59.910237 
L 181.948908 -59.911082 
L 182.355132 -59.911661 
L 182.761356 -59.911978 
L 183.16758 -59.912044 
L 183.573804 -59.911868 
L 183.980028 -59.911467 
L 184.386253 -59.910861 
L 184.792477 -59.910074 
L 185.198701 -59.909128 
L 185.604925 -59.90805 
L 186.011149 -59.906867 
L 186.417373 -59.905606 
L 186.823598 -59.904296 
L 187.229822 -59.90296 
L 187.636046 -59.901624 
L 188.04227 -59.900313 
L 188.448494 -59.899045 
L 188.854718 -59.897842 
L 189.260943 -59.896721 
L 189.667167 -59.895695 
L 190.073391 -59.894776 
L 190.479615 -59.893975 
L 190.885839 -59.893297 
L 191.292063 -59.892748 
L 191.698287 -59.892329 
L 192.104512 -59.89204 
L 192.510736 -59.891879 
L 192.91696 -59.89184 
L 193.323184 -59.891918 
L 193.729408 -59.8921 
L 194.135632 -59.892378 
L 194.541857 -59.892743 
L 194.948081 -59.893184 
L 195.354305 -59.893685 
L 195.760529 -59.894238 
L 196.166765 -59.894827 
L 196.57299 -59.895441 
L 196.979214 -59.896066 
L 197.385438 -59.896696 
L 197.791662 -59.897317 
L 198.197886 -59.897921 
L 198.60411 -59.898496 
L 199.010335 -59.899035 
L 199.416559 -59.899529 
L 199.822783 -59.899972 
L 200.229007 -59.900361 
L 200.635231 -59.900692 
L 201.041455 -59.900963 
L 201.44768 -59.901174 
L 201.853904 -59.901323 
L 202.260128 -59.901413 
L 202.666352 -59.901445 
L 203.072576 -59.90142 
L 203.4788 -59.901345 
L 203.885025 -59.901219 
L 204.291249 -59.901053 
L 204.697473 -59.900849 
L 205.103697 -59.900611 
L 205.509921 -59.900352 
L 205.916145 -59.900073 
L 206.322369 -59.899779 
L 206.728594 -59.899479 
L 207.134818 -59.899178 
L 207.541042 -59.89888 
L 207.947266 -59.898592 
L 208.35349 -59.898316 
L 208.759714 -59.898056 
L 209.165939 -59.897817 
L 209.572163 -59.897601 
L 209.978387 -59.897409 
L 210.384611 -59.897247 
L 210.790835 -59.897113 
L 211.197059 -59.897007 
L 211.603284 -59.896929 
L 212.009508 -59.896879 
L 212.415732 -59.896857 
L 212.821956 -59.896861 
L 213.22818 -59.896889 
L 213.634404 -59.896942 
L 214.040629 -59.897016 
L 214.446853 -59.897111 
L 214.853077 -59.897223 
L 215.259301 -59.897349 
L 215.665525 -59.897484 
L 216.071749 -59.897624 
L 216.477974 -59.897768 
L 216.88421 -59.897911 
L 217.290434 -59.898052 
L 217.696658 -59.898189 
L 218.102882 -59.89832 
L 218.509107 -59.898443 
L 218.915331 -59.898557 
L 219.321555 -59.898659 
L 219.727779 -59.898751 
L 220.134003 -59.89883 
L 220.540227 -59.898895 
L 220.946451 -59.898947 
L 221.352676 -59.898985 
L 221.7589 -59.89901 
L 222.165124 -59.899022 
L 222.571348 -59.899022 
L 222.977572 -59.899009 
L 223.383796 -59.898986 
L 223.790021 -59.89895 
L 224.196245 -59.898906 
L 224.602469 -59.898855 
L 225.008693 -59.898798 
L 225.414917 -59.898738 
L 225.821141 -59.898674 
L 226.227366 -59.898608 
L 226.63359 -59.898541 
L 227.039814 -59.898476 
L 227.446038 -59.898412 
L 227.852262 -59.89835 
L 228.258486 -59.898292 
L 228.664711 -59.898236 
L 229.070935 -59.898186 
L 229.477159 -59.898141 
L 229.883383 -59.898101 
L 230.289607 -59.898066 
L 230.695831 -59.898039 
L 231.102056 -59.898017 
L 231.50828 -59.898002 
L 231.914504 -59.897995 
L 232.320728 -59.897995 
L 232.726952 -59.898002 
L 233.133176 -59.898015 
L 233.539401 -59.898031 
L 233.945625 -59.89805 
L 234.351849 -59.898071 
L 234.758073 -59.898096 
L 235.164297 -59.898124 
L 235.570521 -59.898153 
L 235.976746 -59.898186 
L 236.38297 -59.89822 
L 236.789194 -59.898255 
L 237.195418 -59.898288 
L 237.601642 -59.898321 
L 238.007878 -59.898352 
L 238.414103 -59.898381 
L 238.820327 -59.898407 
L 239.226551 -59.898432 
L 239.632775 -59.898452 
L 240.038999 -59.898469 
L 240.445223 -59.898482 
L 240.851448 -59.898489 
L 241.257672 -59.898494 
L 241.663896 -59.898496 
L 242.07012 -59.898498 
L 242.476344 -59.898496 
L 242.882568 -59.898492 
L 243.288793 -59.898486 
L 243.695017 -59.898479 
L 244.101241 -59.89847 
L 244.507465 -59.89846 
L 244.913689 -59.898448 
L 245.319913 -59.898436 
L 245.726138 -59.898421 
L 246.132362 -59.898403 
L 246.538586 -59.898384 
L 246.94481 -59.898364 
L 247.351034 -59.898344 
L 247.757258 -59.898326 
L 248.163483 -59.898308 
L 248.569707 -59.898294 
L 248.975931 -59.898281 
L 249.382155 -59.89827 
L 249.788379 -59.89826 
L 250.194603 -59.898255 
L 250.600828 -59.898251 
L 251.007052 -59.898251 
L 251.413276 -59.898249 
L 251.8195 -59.89825 
L 252.225724 -59.89825 
L 252.631948 -59.89825 
L 253.038173 -59.898251 
L 253.444397 -59.898251 
L 253.850621 -59.898252 
L 254.256845 -59.898255 
L 254.663069 -59.89826 
L 255.069293 -59.898268 
L 255.475518 -59.89828 
L 255.881742 -59.898295 
L 256.287966 -59.898311 
L 256.69419 -59.898329 
L 257.100414 -59.898346 
L 257.506638 -59.89836 
L 257.912863 -59.898371 
L 258.319087 -59.89838 
L 258.725323 -59.898386 
L 259.131547 -59.898389 
L 259.537771 -59.89839 
L 259.943995 -59.89839 
L 260.35022 -59.898389 
L 260.756444 -59.898385 
L 261.162668 -59.898384 
L 261.568892 -59.898381 
L 261.975116 -59.898377 
L 262.38134 -59.89837 
L 262.787565 -59.898364 
L 263.193789 -59.898357 
L 263.600013 -59.898352 
L 264.006237 -59.898348 
L 264.412461 -59.898344 
L 264.818685 -59.898341 
L 265.22491 -59.898338 
L 265.631134 -59.898333 
L 266.037358 -59.898328 
L 266.443582 -59.898321 
L 266.849806 -59.898317 
L 267.25603 -59.898314 
L 267.662255 -59.898312 
L 268.068479 -59.898311 
L 268.474703 -59.89831 
L 268.880927 -59.89831 
L 269.287151 -59.89831 
L 269.693375 -59.898308 
L 270.0996 -59.898306 
L 270.505824 -59.898305 
L 270.912048 -59.898304 
L 271.318272 -59.898304 
L 271.724496 -59.898308 
L 272.13072 -59.898313 
L 272.536945 -59.898318 
L 272.943169 -59.898322 
L 273.349393 -59.898329 
L 273.755617 -59.898332 
L 274.161841 -59.898335 
L 274.568065 -59.898334 
L 274.97429 -59.898334 
L 275.380514 -59.898332 
L 275.786738 -59.898328 
L 276.192962 -59.898322 
L 276.599186 -59.898319 
L 277.00541 -59.898318 
L 277.411634 -59.898318 
L 277.817859 -59.89832 
L 278.224083 -59.898325 
L 278.630307 -59.89833 
L 279.036531 -59.898335 
L 279.442755 -59.89834 
L 279.849004 -59.898342 
L 280.255228 -59.898343 
L 280.661452 -59.898341 
L 281.067676 -59.89834 
L 281.4739 -59.898339 
L 281.880124 -59.898339 
L 282.286349 -59.898337 
L 282.692573 -59.898336 
L 283.098797 -59.898333 
L 283.505021 -59.898328 
L 283.911245 -59.898323 
L 284.317469 -59.89832 
L 284.723694 -59.898319 
L 285.129918 -59.898318 
L 285.536142 -59.898317 
L 285.942366 -59.898316 
L 286.34859 -59.898319 
L 286.754814 -59.898322 
L 287.161039 -59.898325 
L 287.567263 -59.898328 
L 287.973487 -59.898331 
L 288.379711 -59.898334 
L 288.785935 -59.898336 
L 289.192159 -59.898338 
L 289.598384 -59.898339 
L 290.004608 -59.89834 
L 290.410832 -59.898343 
L 290.817056 -59.898345 
L 291.22328 -59.898348 
L 291.629504 -59.898349 
L 292.035729 -59.898349 
L 292.441953 -59.898346 
L 292.848177 -59.898343 
L 293.254401 -59.89834 
L 293.660625 -59.898335 
L 294.066849 -59.89833 
L 294.473074 -59.898326 
L 294.879298 -59.898324 
L 295.285522 -59.898324 
L 295.691746 -59.898325 
L 296.09797 -59.898328 
L 296.504194 -59.898333 
L 296.910419 -59.898338 
L 297.316643 -59.898344 
L 297.722867 -59.898349 
L 298.129091 -59.898354 
L 298.535315 -59.898357 
L 298.941539 -59.898359 
L 299.347764 -59.898359 
L 299.753988 -59.898356 
L 300.160212 -59.898352 
L 300.566436 -59.898347 
L 300.97266 -59.898341 
L 301.378884 -59.898336 
L 301.785109 -59.898332 
L 302.191333 -59.898326 
L 302.597557 -59.898324 
L 303.003781 -59.898323 
L 303.410005 -59.898324 
L 303.816229 -59.898326 
L 304.222454 -59.898329 
L 304.628678 -59.898332 
L 305.034902 -59.898336 
L 305.441126 -59.898338 
L 305.84735 -59.898339 
L 306.253574 -59.898338 
L 306.659799 -59.898336 
L 307.066023 -59.898335 
L 307.472247 -59.898335 
L 307.878471 -59.898333 
L 308.284695 -59.898331 
L 308.690919 -59.898329 
L 309.097143 -59.898324 
L 309.503368 -59.89832 
L 309.909592 -59.898315 
L 310.315816 -59.898311 
L 310.72204 -59.898309 
L 311.128264 -59.898308 
L 311.534488 -59.898309 
L 311.940713 -59.898312 
L 312.346937 -59.898315 
L 312.753161 -59.89832 
L 313.159385 -59.898325 
L 313.565609 -59.898332 
L 313.971833 -59.898338 
L 314.378058 -59.898343 
L 314.784282 -59.898346 
L 315.190506 -59.89835 
L 315.59673 -59.89835 
L 316.002954 -59.898348 
L 316.409178 -59.898343 
L 316.815403 -59.898337 
L 317.221627 -59.898332 
L 317.627851 -59.898329 
L 318.034075 -59.898328 
L 318.440299 -59.898329 
L 318.846523 -59.89833 
L 319.252748 -59.898333 
L 319.658972 -59.898337 
L 320.065196 -59.898341 
L 320.47142 -59.898347 
L 320.877644 -59.898352 
L 321.283893 -59.898356 
L 321.690117 -59.898358 
L 322.096341 -59.898356 
L 322.502565 -59.898352 
L 322.908789 -59.898346 
L 323.315013 -59.898339 
L 323.721238 -59.898332 
L 324.127462 -59.898325 
L 324.533686 -59.898319 
L 324.93991 -59.898314 
L 325.346134 -59.898312 
L 325.752358 -59.898311 
L 326.158583 -59.898312 
L 326.564807 -59.898315 
L 326.971031 -59.898318 
L 327.377255 -59.898322 
L 327.783479 -59.898326 
L 328.189703 -59.898329 
L 328.595928 -59.898331 
L 329.002152 -59.89833 
L 329.408376 -59.898328 
L 329.8146 -59.898325 
L 330.220824 -59.898323 
L 330.627048 -59.898321 
L 331.033273 -59.898321 
L 331.439497 -59.898322 
L 331.845721 -59.898322 
L 332.251945 -59.898323 
L 332.658169 -59.898325 
L 333.064393 -59.898323 
L 333.470618 -59.898322 
L 333.876842 -59.898322 
L 334.283066 -59.898323 
L 334.68929 -59.898325 
L 335.095514 -59.898325 
L 335.501738 -59.898327 
L 335.907963 -59.89833 
L 336.314187 -59.898334 
L 336.720411 -59.898336 
L 337.126635 -59.898337 
L 337.532859 -59.898337 
L 337.939083 -59.898334 
L 338.345307 -59.898331 
L 338.751532 -59.898328 
L 339.157756 -59.898325 
L 339.56398 -59.898323 
L 339.970204 -59.898321 
L 340.376428 -59.89832 
L 340.782652 -59.898321 
L 341.188877 -59.898323 
L 341.595101 -59.898323 
L 342.001325 -59.898325 
L 342.407549 -59.898327 
L 342.813773 -59.898326 
L 343.219997 -59.898325 
L 343.626222 -59.898323 
L 344.032446 -59.898321 
L 344.43867 -59.898321 
L 344.844894 -59.898321 
L 345.251118 -59.898322 
L 345.657342 -59.898323 
L 346.063567 -59.898325 
L 346.469791 -59.898328 
L 346.876015 -59.898333 
L 347.282239 -59.898335 
L 347.688463 -59.898337 
L 348.094687 -59.898335 
L 348.500912 -59.898333 
L 348.907136 -59.898329 
L 349.31336 -59.898326 
L 349.719584 -59.898321 
L 350.125808 -59.898319 
L 350.532032 -59.898317 
L 350.938257 -59.898315 
L 351.344481 -59.898315 
L 351.750705 -59.898317 
L 352.156929 -59.898319 
L 352.563153 -59.898319 
L 352.969377 -59.898321 
L 353.375602 -59.898322 
L 353.781826 -59.898325 
L 354.18805 -59.898327 
L 354.594274 -59.898329 
L 355.000498 -59.898334 
L 355.406722 -59.898336 
L 355.812947 -59.898339 
L 356.219171 -59.898343 
L 356.625395 -59.898346 
L 357.031619 -59.898347 
L 357.437843 -59.898346 
L 357.844067 -59.898343 
L 358.250292 -59.89834 
L 358.656516 -59.898337 
L 359.06274 -59.898333 
L 359.468964 -59.898329 
L 359.875188 -59.898326 
L 360.281412 -59.898323 
L 360.687637 -59.898321 
L 361.093861 -59.898321 
L 361.500085 -59.898322 
L 361.906309 -59.898325 
L 362.312533 -59.898329 
L 362.718782 -59.898334 
L 363.125006 -59.898339 
L 363.53123 -59.898344 
L 363.937454 -59.898347 
L 364.343678 -59.898351 
L 364.749902 -59.898355 
L 365.156127 -59.898355 
L 365.562351 -59.898352 
L 365.968575 -59.898346 
L 366.374799 -59.89834 
L 366.781023 -59.898333 
L 367.187247 -59.898325 
L 367.593471 -59.898318 
L 367.999696 -59.898313 
L 368.40592 -59.898312 
L 368.812144 -59.898313 
L 369.218368 -59.898317 
L 369.624592 -59.898323 
L 370.030816 -59.89833 
L 370.437041 -59.898337 
L 370.843265 -59.898342 
L 371.249489 -59.898345 
L 371.655713 -59.898345 
L 372.061937 -59.898342 
L 372.468161 -59.898338 
L 372.874386 -59.898332 
L 373.28061 -59.898325 
L 373.686834 -59.898321 
L 374.093058 -59.898317 
L 374.499282 -59.898317 
L 374.905506 -59.898319 
L 375.311731 -59.898322 
L 375.717955 -59.898327 
L 376.124179 -59.898334 
L 376.530403 -59.898338 
L 376.936627 -59.898343 
L 377.342851 -59.898346 
L 377.749076 -59.898348 
L 378.1553 -59.898346 
L 378.561524 -59.898344 
L 378.967748 -59.898341 
L 379.373972 -59.898338 
L 379.780196 -59.898334 
L 380.186421 -59.89833 
L 380.592645 -59.898327 
L 380.998869 -59.898325 
L 381.405093 -59.898326 
L 381.811317 -59.898328 
L 382.217541 -59.898331 
L 382.623766 -59.898334 
L 383.02999 -59.898337 
L 383.436214 -59.898338 
L 383.842438 -59.898337 
L 384.248662 -59.898335 
L 384.654886 -59.898331 
L 385.061111 -59.898326 
L 385.467335 -59.898321 
L 385.873559 -59.898317 
L 386.279783 -59.898316 
L 386.686007 -59.898317 
L 387.092231 -59.898318 
L 387.498456 -59.898321 
L 387.90468 -59.898324 
L 388.310904 -59.898328 
L 388.717128 -59.898334 
L 389.123352 -59.898338 
L 389.529576 -59.898342 
L 389.935801 -59.898345 
L 390.342025 -59.898346 
L 390.748249 -59.898346 
L 391.154473 -59.898346 
L 391.560697 -59.898343 
L 391.966921 -59.898342 
L 392.373146 -59.89834 
L 392.77937 -59.898338 
L 393.185594 -59.898337 
L 393.591818 -59.898335 
L 393.998042 -59.898331 
L 394.404266 -59.898326 
L 394.81049 -59.898321 
L 395.216715 -59.898315 
L 395.622939 -59.898312 
L 396.029163 -59.898313 
L 396.435387 -59.898315 
L 396.841611 -59.898318 
L 397.247835 -59.898322 
L 397.65406 -59.898327 
L 398.060284 -59.898334 
L 398.466508 -59.898339 
L 398.872732 -59.898345 
L 399.278956 -59.89835 
L 399.68518 -59.898354 
L 400.091405 -59.898355 
L 400.497629 -59.898354 
L 400.903853 -59.89835 
L 401.310077 -59.898346 
L 401.716301 -59.898342 
L 402.122525 -59.898338 
L 402.52875 -59.898334 
L 402.934974 -59.898331 
L 403.341198 -59.898329 
L 403.747422 -59.898329 
L 404.153646 -59.898329 
L 404.559895 -59.89833 
L 404.966119 -59.898333 
L 405.372343 -59.898335 
L 405.778567 -59.898335 
L 406.184791 -59.898334 
L 406.591015 -59.898333 
L 406.99724 -59.898331 
L 407.403464 -59.898329 
L 407.809688 -59.898329 
L 408.215912 -59.89833 
L 408.622136 -59.89833 
L 409.02836 -59.898332 
L 409.434585 -59.898333 
L 409.840809 -59.898331 
L 410.247033 -59.89833 
L 410.653257 -59.89833 
L 411.059481 -59.89833 
L 411.465705 -59.898329 
L 411.87193 -59.898329 
L 412.278154 -59.898327 
L 412.684378 -59.898325 
L 413.090602 -59.898324 
L 413.496826 -59.898323 
L 413.90305 -59.898322 
L 414.309275 -59.898322 
L 414.715499 -59.898325 
L 415.121723 -59.898328 
L 415.527947 -59.898334 
L 415.934171 -59.898338 
L 416.340395 -59.898344 
L 416.74662 -59.898349 
L 417.152844 -59.898353 
L 417.559068 -59.898355 
L 417.965292 -59.898355 
L 418.371516 -59.898352 
L 418.77774 -59.898348 
L 419.183965 -59.898342 
L 419.590189 -59.898335 
L 419.996413 -59.898329 
L 420.402637 -59.898323 
L 420.808861 -59.89832 
L 421.215085 -59.898318 
L 421.62131 -59.898321 
L 422.027534 -59.898324 
L 422.433758 -59.898329 
L 422.839982 -59.898335 
L 423.246206 -59.898341 
L 423.65243 -59.898343 
L 424.058654 -59.898345 
L 424.464879 -59.898345 
L 424.871103 -59.898341 
L 425.277327 -59.898337 
L 425.683551 -59.898331 
L 426.089775 -59.898326 
L 426.495999 -59.898324 
L 426.902224 -59.898322 
L 427.308448 -59.898322 
L 427.714672 -59.898325 
L 428.120896 -59.898327 
L 428.52712 -59.89833 
L 428.933344 -59.898334 
L 429.339569 -59.898335 
L 429.745793 -59.898337 
L 430.152017 -59.898338 
L 430.558241 -59.898338 
L 430.964465 -59.898335 
L 431.370689 -59.898333 
L 431.776914 -59.89833 
L 432.183138 -59.898328 
L 432.589362 -59.898325 
L 432.995586 -59.898325 
L 433.40181 -59.898325 
L 433.808034 -59.898327 
L 434.214259 -59.898329 
L 434.620483 -59.898333 
L 435.026707 -59.898336 
L 435.432931 -59.898339 
L 435.839155 -59.898342 
L 436.245379 -59.898343 
L 436.651604 -59.898342 
L 437.057828 -59.89834 
L 437.464052 -59.898336 
L 437.870276 -59.898333 
L 438.2765 -59.89833 
L 438.682724 -59.898329 
L 439.088949 -59.898329 
L 439.495173 -59.898329 
L 439.901397 -59.898328 
L 440.307621 -59.898327 
L 440.713845 -59.898326 
L 441.120069 -59.898325 
L 441.526294 -59.898324 
L 441.932518 -59.898323 
L 442.338742 -59.898322 
L 442.744966 -59.898322 
L 443.15119 -59.898325 
L 443.557414 -59.898327 
L 443.963639 -59.898331 
L 444.369863 -59.898335 
L 444.776087 -59.898339 
L 445.182311 -59.898341 
L 445.588535 -59.898341 
L 445.994784 -59.898338 
L 446.401008 -59.898334 
L 446.807232 -59.898329 
L 447.213456 -59.898327 
L 447.61968 -59.898327 
L 448.025904 -59.898329 
L 448.432129 -59.898332 
L 448.838353 -59.898337 
L 449.244577 -59.898339 
L 449.650801 -59.898342 
L 450.057025 -59.898345 
L 450.463249 -59.898345 
L 450.869474 -59.898342 
L 451.275698 -59.898337 
L 451.681922 -59.898329 
L 452.088146 -59.898325 
L 452.49437 -59.898321 
L 452.900594 -59.89832 
L 453.306818 -59.898321 
L 453.713043 -59.898322 
L 454.119267 -59.898325 
L 454.525491 -59.898328 
L 454.931715 -59.898332 
L 455.337939 -59.898338 
L 455.744163 -59.898342 
L 456.150388 -59.898344 
L 456.556612 -59.898345 
L 456.962836 -59.898342 
L 457.36906 -59.898339 
L 457.775284 -59.898333 
L 458.181508 -59.898327 
L 458.587733 -59.898321 
L 458.993957 -59.898314 
L 459.400181 -59.898309 
L 459.806405 -59.898308 
L 460.212629 -59.898309 
L 460.618853 -59.898312 
L 461.025078 -59.898319 
L 461.431302 -59.898325 
L 461.837526 -59.898331 
L 462.24375 -59.898335 
L 462.649974 -59.898338 
L 463.056198 -59.89834 
L 463.462423 -59.898341 
L 463.868647 -59.898339 
L 464.274871 -59.898338 
L 464.681095 -59.898334 
L 465.087319 -59.898329 
L 465.493543 -59.898322 
L 465.899768 -59.898316 
L 466.305992 -59.89831 
L 466.712216 -59.898308 
L 466.712216 -60.493662 
L 466.712216 -60.493662 
L 466.305992 -60.493664 
L 465.899768 -60.493664 
L 465.493543 -60.493662 
L 465.087319 -60.493658 
L 464.681095 -60.493655 
L 464.274871 -60.493652 
L 463.868647 -60.493649 
L 463.462423 -60.493646 
L 463.056198 -60.493644 
L 462.649974 -60.493643 
L 462.24375 -60.493644 
L 461.837526 -60.493645 
L 461.431302 -60.493647 
L 461.025078 -60.493648 
L 460.618853 -60.49365 
L 460.212629 -60.493652 
L 459.806405 -60.493655 
L 459.400181 -60.493657 
L 458.993957 -60.493658 
L 458.587733 -60.493659 
L 458.181508 -60.49366 
L 457.775284 -60.49366 
L 457.36906 -60.49366 
L 456.962836 -60.493659 
L 456.556612 -60.493658 
L 456.150388 -60.493658 
L 455.744163 -60.493655 
L 455.337939 -60.493654 
L 454.931715 -60.493654 
L 454.525491 -60.493654 
L 454.119267 -60.493653 
L 453.713043 -60.493652 
L 453.306818 -60.493652 
L 452.900594 -60.493651 
L 452.49437 -60.49365 
L 452.088146 -60.493648 
L 451.681922 -60.493646 
L 451.275698 -60.493646 
L 450.869474 -60.493648 
L 450.463249 -60.493651 
L 450.057025 -60.493653 
L 449.650801 -60.493655 
L 449.244577 -60.493656 
L 448.838353 -60.493656 
L 448.432129 -60.493657 
L 448.025904 -60.493656 
L 447.61968 -60.493654 
L 447.213456 -60.493652 
L 446.807232 -60.493649 
L 446.401008 -60.493647 
L 445.994784 -60.493644 
L 445.588535 -60.493644 
L 445.182311 -60.493644 
L 444.776087 -60.493646 
L 444.369863 -60.493647 
L 443.963639 -60.49365 
L 443.557414 -60.493652 
L 443.15119 -60.493651 
L 442.744966 -60.493649 
L 442.338742 -60.493647 
L 441.932518 -60.493645 
L 441.526294 -60.493643 
L 441.120069 -60.493641 
L 440.713845 -60.493641 
L 440.307621 -60.493642 
L 439.901397 -60.493644 
L 439.495173 -60.493648 
L 439.088949 -60.493652 
L 438.682724 -60.493656 
L 438.2765 -60.493659 
L 437.870276 -60.493662 
L 437.464052 -60.493662 
L 437.057828 -60.493663 
L 436.651604 -60.493662 
L 436.245379 -60.49366 
L 435.839155 -60.49366 
L 435.432931 -60.493659 
L 435.026707 -60.493659 
L 434.620483 -60.493657 
L 434.214259 -60.493654 
L 433.808034 -60.493651 
L 433.40181 -60.493647 
L 432.995586 -60.493644 
L 432.589362 -60.493644 
L 432.183138 -60.493643 
L 431.776914 -60.493645 
L 431.370689 -60.493648 
L 430.964465 -60.493653 
L 430.558241 -60.493658 
L 430.152017 -60.493662 
L 429.745793 -60.493668 
L 429.339569 -60.493671 
L 428.933344 -60.493673 
L 428.52712 -60.493676 
L 428.120896 -60.493676 
L 427.714672 -60.493677 
L 427.308448 -60.493678 
L 426.902224 -60.493679 
L 426.495999 -60.493679 
L 426.089775 -60.493676 
L 425.683551 -60.493674 
L 425.277327 -60.493672 
L 424.871103 -60.493669 
L 424.464879 -60.493666 
L 424.058654 -60.493663 
L 423.65243 -60.493661 
L 423.246206 -60.49366 
L 422.839982 -60.49366 
L 422.433758 -60.493659 
L 422.027534 -60.493659 
L 421.62131 -60.493659 
L 421.215085 -60.49366 
L 420.808861 -60.49366 
L 420.402637 -60.493661 
L 419.996413 -60.493661 
L 419.590189 -60.493662 
L 419.183965 -60.493662 
L 418.77774 -60.493661 
L 418.371516 -60.493662 
L 417.965292 -60.493663 
L 417.559068 -60.493665 
L 417.152844 -60.493667 
L 416.74662 -60.493669 
L 416.340395 -60.493669 
L 415.934171 -60.493667 
L 415.527947 -60.493665 
L 415.121723 -60.493661 
L 414.715499 -60.493659 
L 414.309275 -60.493656 
L 413.90305 -60.493655 
L 413.496826 -60.493656 
L 413.090602 -60.493658 
L 412.684378 -60.493659 
L 412.278154 -60.493659 
L 411.87193 -60.493659 
L 411.465705 -60.493658 
L 411.059481 -60.493656 
L 410.653257 -60.493655 
L 410.247033 -60.493655 
L 409.840809 -60.493656 
L 409.434585 -60.493656 
L 409.02836 -60.493656 
L 408.622136 -60.493657 
L 408.215912 -60.493657 
L 407.809688 -60.493659 
L 407.403464 -60.493659 
L 406.99724 -60.49366 
L 406.591015 -60.493658 
L 406.184791 -60.493656 
L 405.778567 -60.493656 
L 405.372343 -60.493656 
L 404.966119 -60.493658 
L 404.559895 -60.49366 
L 404.153646 -60.493663 
L 403.747422 -60.493662 
L 403.341198 -60.493662 
L 402.934974 -60.493661 
L 402.52875 -60.493661 
L 402.122525 -60.493662 
L 401.716301 -60.493664 
L 401.310077 -60.493664 
L 400.903853 -60.493666 
L 400.497629 -60.493667 
L 400.091405 -60.493668 
L 399.68518 -60.493668 
L 399.278956 -60.493667 
L 398.872732 -60.493665 
L 398.466508 -60.493662 
L 398.060284 -60.493662 
L 397.65406 -60.493665 
L 397.247835 -60.493667 
L 396.841611 -60.493672 
L 396.435387 -60.493675 
L 396.029163 -60.493678 
L 395.622939 -60.49368 
L 395.216715 -60.49368 
L 394.81049 -60.493681 
L 394.404266 -60.493679 
L 393.998042 -60.493677 
L 393.591818 -60.493676 
L 393.185594 -60.493675 
L 392.77937 -60.493672 
L 392.373146 -60.49367 
L 391.966921 -60.493669 
L 391.560697 -60.493666 
L 391.154473 -60.493665 
L 390.748249 -60.493663 
L 390.342025 -60.49366 
L 389.935801 -60.493659 
L 389.529576 -60.493657 
L 389.123352 -60.493655 
L 388.717128 -60.493653 
L 388.310904 -60.493652 
L 387.90468 -60.493651 
L 387.498456 -60.493651 
L 387.092231 -60.493651 
L 386.686007 -60.49365 
L 386.279783 -60.49365 
L 385.873559 -60.493649 
L 385.467335 -60.49365 
L 385.061111 -60.49365 
L 384.654886 -60.49365 
L 384.248662 -60.49365 
L 383.842438 -60.49365 
L 383.436214 -60.493651 
L 383.02999 -60.493655 
L 382.623766 -60.493659 
L 382.217541 -60.493664 
L 381.811317 -60.493666 
L 381.405093 -60.493667 
L 380.998869 -60.493668 
L 380.592645 -60.493669 
L 380.186421 -60.493669 
L 379.780196 -60.493666 
L 379.373972 -60.493664 
L 378.967748 -60.493663 
L 378.561524 -60.493664 
L 378.1553 -60.493667 
L 377.749076 -60.49367 
L 377.342851 -60.493674 
L 376.936627 -60.493677 
L 376.530403 -60.493679 
L 376.124179 -60.49368 
L 375.717955 -60.493681 
L 375.311731 -60.493681 
L 374.905506 -60.49368 
L 374.499282 -60.493678 
L 374.093058 -60.493678 
L 373.686834 -60.493677 
L 373.28061 -60.493677 
L 372.874386 -60.493676 
L 372.468161 -60.493675 
L 372.061937 -60.493674 
L 371.655713 -60.493672 
L 371.249489 -60.493671 
L 370.843265 -60.493669 
L 370.437041 -60.493667 
L 370.030816 -60.493665 
L 369.624592 -60.493663 
L 369.218368 -60.493661 
L 368.812144 -60.493659 
L 368.40592 -60.493659 
L 367.999696 -60.493657 
L 367.593471 -60.493657 
L 367.187247 -60.493656 
L 366.781023 -60.493657 
L 366.374799 -60.493659 
L 365.968575 -60.493662 
L 365.562351 -60.493664 
L 365.156127 -60.493665 
L 364.749902 -60.493665 
L 364.343678 -60.493662 
L 363.937454 -60.493659 
L 363.53123 -60.493657 
L 363.125006 -60.493657 
L 362.718782 -60.493656 
L 362.312533 -60.493659 
L 361.906309 -60.49366 
L 361.500085 -60.493663 
L 361.093861 -60.493664 
L 360.687637 -60.493664 
L 360.281412 -60.493666 
L 359.875188 -60.493667 
L 359.468964 -60.493668 
L 359.06274 -60.493667 
L 358.656516 -60.493665 
L 358.250292 -60.493663 
L 357.844067 -60.493661 
L 357.437843 -60.493658 
L 357.031619 -60.493657 
L 356.625395 -60.493656 
L 356.219171 -60.493657 
L 355.812947 -60.49366 
L 355.406722 -60.493664 
L 355.000498 -60.493666 
L 354.594274 -60.493668 
L 354.18805 -60.493669 
L 353.781826 -60.493668 
L 353.375602 -60.493667 
L 352.969377 -60.493667 
L 352.563153 -60.493666 
L 352.156929 -60.493663 
L 351.750705 -60.493662 
L 351.344481 -60.493659 
L 350.938257 -60.493658 
L 350.532032 -60.493658 
L 350.125808 -60.493658 
L 349.719584 -60.493658 
L 349.31336 -60.493658 
L 348.907136 -60.493658 
L 348.500912 -60.493658 
L 348.094687 -60.493657 
L 347.688463 -60.493659 
L 347.282239 -60.49366 
L 346.876015 -60.493662 
L 346.469791 -60.493662 
L 346.063567 -60.493663 
L 345.657342 -60.493665 
L 345.251118 -60.493666 
L 344.844894 -60.493666 
L 344.43867 -60.493665 
L 344.032446 -60.493665 
L 343.626222 -60.493665 
L 343.219997 -60.493662 
L 342.813773 -60.493659 
L 342.407549 -60.493656 
L 342.001325 -60.493653 
L 341.595101 -60.493649 
L 341.188877 -60.493646 
L 340.782652 -60.493643 
L 340.376428 -60.493642 
L 339.970204 -60.493641 
L 339.56398 -60.493643 
L 339.157756 -60.493646 
L 338.751532 -60.493651 
L 338.345307 -60.493656 
L 337.939083 -60.493662 
L 337.532859 -60.493665 
L 337.126635 -60.493668 
L 336.720411 -60.493671 
L 336.314187 -60.493671 
L 335.907963 -60.493672 
L 335.501738 -60.493673 
L 335.095514 -60.493673 
L 334.68929 -60.493672 
L 334.283066 -60.493671 
L 333.876842 -60.493668 
L 333.470618 -60.493667 
L 333.064393 -60.493665 
L 332.658169 -60.493662 
L 332.251945 -60.493659 
L 331.845721 -60.493656 
L 331.439497 -60.493653 
L 331.033273 -60.493651 
L 330.627048 -60.49365 
L 330.220824 -60.493651 
L 329.8146 -60.493654 
L 329.408376 -60.493657 
L 329.002152 -60.49366 
L 328.595928 -60.493664 
L 328.189703 -60.493667 
L 327.783479 -60.493668 
L 327.377255 -60.49367 
L 326.971031 -60.493671 
L 326.564807 -60.493671 
L 326.158583 -60.493671 
L 325.752358 -60.493672 
L 325.346134 -60.493672 
L 324.93991 -60.493671 
L 324.533686 -60.49367 
L 324.127462 -60.493668 
L 323.721238 -60.493665 
L 323.315013 -60.493661 
L 322.908789 -60.493657 
L 322.502565 -60.493653 
L 322.096341 -60.49365 
L 321.690117 -60.493647 
L 321.283893 -60.493644 
L 320.877644 -60.493641 
L 320.47142 -60.493638 
L 320.065196 -60.493638 
L 319.658972 -60.493639 
L 319.252748 -60.493642 
L 318.846523 -60.493646 
L 318.440299 -60.493652 
L 318.034075 -60.493655 
L 317.627851 -60.493659 
L 317.221627 -60.493661 
L 316.815403 -60.493665 
L 316.409178 -60.493666 
L 316.002954 -60.493667 
L 315.59673 -60.493668 
L 315.190506 -60.493668 
L 314.784282 -60.493668 
L 314.378058 -60.493667 
L 313.971833 -60.493664 
L 313.565609 -60.493662 
L 313.159385 -60.49366 
L 312.753161 -60.49366 
L 312.346937 -60.49366 
L 311.940713 -60.493659 
L 311.534488 -60.493657 
L 311.128264 -60.493656 
L 310.72204 -60.493656 
L 310.315816 -60.493657 
L 309.909592 -60.493657 
L 309.503368 -60.493656 
L 309.097143 -60.493653 
L 308.690919 -60.493649 
L 308.284695 -60.493645 
L 307.878471 -60.493643 
L 307.472247 -60.493642 
L 307.066023 -60.493641 
L 306.659799 -60.493643 
L 306.253574 -60.493645 
L 305.84735 -60.493645 
L 305.441126 -60.493645 
L 305.034902 -60.493645 
L 304.628678 -60.493646 
L 304.222454 -60.493646 
L 303.816229 -60.493648 
L 303.410005 -60.493652 
L 303.003781 -60.493654 
L 302.597557 -60.493656 
L 302.191333 -60.493656 
L 301.785109 -60.493658 
L 301.378884 -60.493656 
L 300.97266 -60.493657 
L 300.566436 -60.493658 
L 300.160212 -60.493661 
L 299.753988 -60.493662 
L 299.347764 -60.493662 
L 298.941539 -60.49366 
L 298.535315 -60.493658 
L 298.129091 -60.493655 
L 297.722867 -60.493655 
L 297.316643 -60.493654 
L 296.910419 -60.493654 
L 296.504194 -60.493653 
L 296.09797 -60.493653 
L 295.691746 -60.493654 
L 295.285522 -60.493653 
L 294.879298 -60.493652 
L 294.473074 -60.493651 
L 294.066849 -60.493651 
L 293.660625 -60.493653 
L 293.254401 -60.493655 
L 292.848177 -60.493655 
L 292.441953 -60.493655 
L 292.035729 -60.493655 
L 291.629504 -60.493654 
L 291.22328 -60.493652 
L 290.817056 -60.49365 
L 290.410832 -60.493647 
L 290.004608 -60.493645 
L 289.598384 -60.493642 
L 289.192159 -60.493642 
L 288.785935 -60.493642 
L 288.379711 -60.493641 
L 287.973487 -60.493642 
L 287.567263 -60.493642 
L 287.161039 -60.493645 
L 286.754814 -60.493649 
L 286.34859 -60.493652 
L 285.942366 -60.493655 
L 285.536142 -60.493658 
L 285.129918 -60.49366 
L 284.723694 -60.493661 
L 284.317469 -60.493661 
L 283.911245 -60.493659 
L 283.505021 -60.493657 
L 283.098797 -60.493653 
L 282.692573 -60.493652 
L 282.286349 -60.493648 
L 281.880124 -60.493647 
L 281.4739 -60.493647 
L 281.067676 -60.493647 
L 280.661452 -60.493649 
L 280.255228 -60.493649 
L 279.849004 -60.493651 
L 279.442755 -60.493654 
L 279.036531 -60.493654 
L 278.630307 -60.493653 
L 278.224083 -60.493653 
L 277.817859 -60.493653 
L 277.411634 -60.493654 
L 277.00541 -60.493655 
L 276.599186 -60.493656 
L 276.192962 -60.493658 
L 275.786738 -60.49366 
L 275.380514 -60.493661 
L 274.97429 -60.493662 
L 274.568065 -60.493661 
L 274.161841 -60.493661 
L 273.755617 -60.493659 
L 273.349393 -60.493657 
L 272.943169 -60.493656 
L 272.536945 -60.493654 
L 272.13072 -60.493655 
L 271.724496 -60.493653 
L 271.318272 -60.493649 
L 270.912048 -60.493647 
L 270.505824 -60.493646 
L 270.0996 -60.493646 
L 269.693375 -60.493649 
L 269.287151 -60.493654 
L 268.880927 -60.493658 
L 268.474703 -60.49366 
L 268.068479 -60.493661 
L 267.662255 -60.49366 
L 267.25603 -60.493658 
L 266.849806 -60.493655 
L 266.443582 -60.493653 
L 266.037358 -60.49365 
L 265.631134 -60.493647 
L 265.22491 -60.493645 
L 264.818685 -60.493646 
L 264.412461 -60.493646 
L 264.006237 -60.493649 
L 263.600013 -60.493653 
L 263.193789 -60.493654 
L 262.787565 -60.493657 
L 262.38134 -60.493659 
L 261.975116 -60.493661 
L 261.568892 -60.49366 
L 261.162668 -60.49366 
L 260.756444 -60.49366 
L 260.35022 -60.493658 
L 259.943995 -60.493656 
L 259.537771 -60.493653 
L 259.131547 -60.49365 
L 258.725323 -60.493643 
L 258.319087 -60.493638 
L 257.912863 -60.493635 
L 257.506638 -60.493631 
L 257.100414 -60.493628 
L 256.69419 -60.493624 
L 256.287966 -60.493619 
L 255.881742 -60.493612 
L 255.475518 -60.493606 
L 255.069293 -60.493601 
L 254.663069 -60.493596 
L 254.256845 -60.493591 
L 253.850621 -60.493588 
L 253.444397 -60.493583 
L 253.038173 -60.493581 
L 252.631948 -60.493581 
L 252.225724 -60.493583 
L 251.8195 -60.493588 
L 251.413276 -60.493594 
L 251.007052 -60.493602 
L 250.600828 -60.49361 
L 250.194603 -60.493619 
L 249.788379 -60.493628 
L 249.382155 -60.493637 
L 248.975931 -60.493648 
L 248.569707 -60.493658 
L 248.163483 -60.493669 
L 247.757258 -60.493676 
L 247.351034 -60.493684 
L 246.94481 -60.493692 
L 246.538586 -60.493697 
L 246.132362 -60.493703 
L 245.726138 -60.493711 
L 245.319913 -60.493718 
L 244.913689 -60.493728 
L 244.507465 -60.493736 
L 244.101241 -60.493744 
L 243.695017 -60.493751 
L 243.288793 -60.493758 
L 242.882568 -60.493761 
L 242.476344 -60.493761 
L 242.07012 -60.493758 
L 241.663896 -60.49375 
L 241.257672 -60.493741 
L 240.851448 -60.493731 
L 240.445223 -60.493719 
L 240.038999 -60.493706 
L 239.632775 -60.493692 
L 239.226551 -60.493677 
L 238.820327 -60.49366 
L 238.414103 -60.493642 
L 238.007878 -60.493621 
L 237.601642 -60.4936 
L 237.195418 -60.493579 
L 236.789194 -60.493556 
L 236.38297 -60.493535 
L 235.976746 -60.493512 
L 235.570521 -60.493493 
L 235.164297 -60.493476 
L 234.758073 -60.49346 
L 234.351849 -60.493446 
L 233.945625 -60.493436 
L 233.539401 -60.493428 
L 233.133176 -60.493424 
L 232.726952 -60.493424 
L 232.320728 -60.49343 
L 231.914504 -60.493439 
L 231.50828 -60.49345 
L 231.102056 -60.493468 
L 230.695831 -60.493488 
L 230.289607 -60.493513 
L 229.883383 -60.493545 
L 229.477159 -60.493581 
L 229.070935 -60.493623 
L 228.664711 -60.49367 
L 228.258486 -60.493718 
L 227.852262 -60.493769 
L 227.446038 -60.493821 
L 227.039814 -60.493873 
L 226.63359 -60.493921 
L 226.227366 -60.493968 
L 225.821141 -60.494013 
L 225.414917 -60.494054 
L 225.008693 -60.49409 
L 224.602469 -60.494121 
L 224.196245 -60.494146 
L 223.790021 -60.494164 
L 223.383796 -60.494175 
L 222.977572 -60.494176 
L 222.571348 -60.494169 
L 222.165124 -60.494153 
L 221.7589 -60.494126 
L 221.352676 -60.494089 
L 220.946451 -60.494041 
L 220.540227 -60.493985 
L 220.134003 -60.49392 
L 219.727779 -60.493846 
L 219.321555 -60.493762 
L 218.915331 -60.493672 
L 218.509107 -60.493575 
L 218.102882 -60.493473 
L 217.696658 -60.493368 
L 217.290434 -60.49326 
L 216.88421 -60.493154 
L 216.477974 -60.493051 
L 216.071749 -60.492953 
L 215.665525 -60.49286 
L 215.259301 -60.492776 
L 214.853077 -60.492702 
L 214.446853 -60.492641 
L 214.040629 -60.492596 
L 213.634404 -60.492565 
L 213.22818 -60.492551 
L 212.821956 -60.492556 
L 212.415732 -60.492579 
L 212.009508 -60.492624 
L 211.603284 -60.49269 
L 211.197059 -60.492779 
L 210.790835 -60.49289 
L 210.384611 -60.493023 
L 209.978387 -60.493174 
L 209.572163 -60.493345 
L 209.165939 -60.493533 
L 208.759714 -60.493736 
L 208.35349 -60.49395 
L 207.947266 -60.494174 
L 207.541042 -60.494402 
L 207.134818 -60.49463 
L 206.728594 -60.494855 
L 206.322369 -60.495074 
L 205.916145 -60.495282 
L 205.509921 -60.495474 
L 205.103697 -60.495647 
L 204.697473 -60.495796 
L 204.291249 -60.495914 
L 203.885025 -60.495998 
L 203.4788 -60.496043 
L 203.072576 -60.49605 
L 202.666352 -60.496013 
L 202.260128 -60.495929 
L 201.853904 -60.4958 
L 201.44768 -60.49562 
L 201.041455 -60.495393 
L 200.635231 -60.49512 
L 200.229007 -60.494803 
L 199.822783 -60.494444 
L 199.416559 -60.49405 
L 199.010335 -60.493623 
L 198.60411 -60.49317 
L 198.197886 -60.492697 
L 197.791662 -60.49221 
L 197.385438 -60.491718 
L 196.979214 -60.491229 
L 196.57299 -60.490753 
L 196.166765 -60.4903 
L 195.760529 -60.489878 
L 195.354305 -60.489497 
L 194.948081 -60.489166 
L 194.541857 -60.488897 
L 194.135632 -60.488698 
L 193.729408 -60.488574 
L 193.323184 -60.488534 
L 192.91696 -60.488584 
L 192.510736 -60.488729 
L 192.104512 -60.488972 
L 191.698287 -60.489318 
L 191.292063 -60.489766 
L 190.885839 -60.490318 
L 190.479615 -60.490967 
L 190.073391 -60.49171 
L 189.667167 -60.492538 
L 189.260943 -60.493443 
L 188.854718 -60.494411 
L 188.448494 -60.495428 
L 188.04227 -60.496482 
L 187.636046 -60.497551 
L 187.229822 -60.498617 
L 186.823598 -60.499662 
L 186.417373 -60.500664 
L 186.011149 -60.501604 
L 185.604925 -60.502457 
L 185.198701 -60.503205 
L 184.792477 -60.503827 
L 184.386253 -60.504302 
L 183.980028 -60.504613 
L 183.573804 -60.504745 
L 183.16758 -60.504685 
L 182.761356 -60.504423 
L 182.355132 -60.503951 
L 181.948908 -60.503262 
L 181.542683 -60.502358 
L 181.136459 -60.50124 
L 180.730235 -60.499916 
L 180.324011 -60.498398 
L 179.917787 -60.496699 
L 179.511563 -60.494838 
L 179.105338 -60.492837 
L 178.699114 -60.490724 
L 178.29289 -60.488531 
L 177.886666 -60.486288 
L 177.480442 -60.484037 
L 177.074218 -60.481814 
L 176.667993 -60.479662 
L 176.261769 -60.477623 
L 175.855545 -60.475741 
L 175.449321 -60.474058 
L 175.043085 -60.472621 
L 174.636861 -60.471471 
L 174.230636 -60.470651 
L 173.824412 -60.470196 
L 173.418188 -60.470143 
L 173.011964 -60.470519 
L 172.60574 -60.47135 
L 172.199516 -60.47265 
L 171.793291 -60.47443 
L 171.387067 -60.476692 
L 170.980843 -60.479431 
L 170.574619 -60.482627 
L 170.168395 -60.486253 
L 169.762171 -60.490268 
L 169.355946 -60.494625 
L 168.949722 -60.499261 
L 168.543498 -60.50411 
L 168.137274 -60.509094 
L 167.73105 -60.514124 
L 167.324826 -60.519106 
L 166.918601 -60.523939 
L 166.512377 -60.528522 
L 166.106153 -60.532751 
L 165.699929 -60.536527 
L 165.293705 -60.539751 
L 164.887481 -60.54233 
L 164.481256 -60.544182 
L 164.075032 -60.545232 
L 163.668808 -60.545417 
L 163.262584 -60.54469 
L 162.85636 -60.543016 
L 162.450136 -60.540378 
L 162.043911 -60.536776 
L 161.637687 -60.532228 
L 161.231463 -60.526763 
L 160.825239 -60.52043 
L 160.419015 -60.513296 
L 160.012791 -60.505434 
L 159.60656 -60.496941 
L 159.200336 -60.487917 
L 158.794112 -60.478482 
L 158.387888 -60.46876 
L 157.981664 -60.458892 
L 157.57544 -60.449022 
L 157.169215 -60.439309 
L 156.762991 -60.429918 
L 156.356767 -60.42102 
L 155.950543 -60.4128 
L 155.544319 -60.405445 
L 155.138095 -60.399157 
L 154.73187 -60.394137 
L 154.325646 -60.390585 
L 153.919422 -60.388701 
L 153.513198 -60.388681 
L 153.106974 -60.390704 
L 152.70075 -60.39493 
L 152.294525 -60.401488 
L 151.888301 -60.410473 
L 151.482077 -60.421931 
L 151.075853 -60.435855 
L 150.669629 -60.452175 
L 150.263405 -60.470755 
L 149.85718 -60.491388 
L 149.450956 -60.513789 
L 149.044726 -60.537605 
L 148.638502 -60.56241 
L 148.232278 -60.587722 
L 147.826054 -60.61311 
L 147.419829 -60.638163 
L 147.013605 -60.662016 
L 146.607381 -60.684076 
L 146.201157 -60.703769 
L 145.794933 -60.720562 
L 145.388709 -60.73398 
L 144.982484 -60.749443 
L 144.57626 -60.767039 
L 144.170036 -60.778302 
L 143.763812 -60.782902 
L 143.357588 -60.78072 
L 142.951364 -60.771864 
L 142.545139 -60.756655 
L 142.138915 -60.735608 
L 141.732691 -60.709481 
L 141.326467 -60.679161 
L 140.920243 -60.645396 
L 140.514019 -60.609084 
L 140.107794 -60.571079 
L 139.70157 -60.532141 
L 139.295346 -60.495197 
L 138.889122 -60.46096 
L 138.482892 -60.426847 
L 138.076668 -60.392295 
L 137.670443 -60.357395 
L 137.264219 -60.322262 
L 136.857995 -60.287073 
L 136.451771 -60.252117 
L 136.045547 -60.217969 
L 135.639323 -60.185204 
L 135.233098 -60.154652 
L 134.826874 -60.127498 
L 134.42065 -60.105212 
L 134.014426 -60.089511 
L 133.608202 -60.082319 
L 133.201978 -60.085685 
L 132.795753 -60.101791 
L 132.389529 -60.132663 
L 131.983305 -60.179844 
L 131.577081 -60.244566 
L 131.170857 -60.327461 
L 130.764633 -60.42844 
L 130.358408 -60.546594 
L 129.952184 -60.680158 
L 129.54596 -60.827767 
L 129.139736 -60.985117 
L 128.733512 -61.147915 
L 128.327282 -61.321424 
L 127.921057 -61.560024 
L 127.514833 -61.764195 
L 127.108609 -61.970887 
L 126.702385 -62.156044 
L 126.296161 -62.313393 
L 125.889937 -62.437676 
L 125.483712 -62.524934 
L 125.077488 -62.572752 
L 124.671264 -62.580476 
L 124.26504 -62.549375 
L 123.858816 -62.482749 
L 123.452592 -62.385963 
L 123.046367 -62.266376 
L 122.640143 -62.133132 
L 122.233919 -61.996781 
L 121.827695 -61.868699 
L 121.421471 -61.760283 
L 121.015247 -61.681962 
L 120.609022 -61.642111 
L 120.202798 -61.648398 
L 119.796574 -61.70258 
L 119.39035 -61.798439 
L 118.984126 -61.927453 
L 118.577902 -62.07783 
L 118.171678 -62.235186 
L 117.765447 -62.383471 
L 117.359223 -62.506767 
L 116.952999 -62.589689 
L 116.546775 -62.618397 
L 116.140551 -62.58291 
L 115.734326 -62.477902 
L 115.328102 -62.303998 
L 114.921878 -62.069095 
L 114.515654 -61.789747 
L 114.10943 -61.492416 
L 113.703206 -61.214198 
L 113.296981 -61.002253 
L 112.890757 -60.910833 
L 112.484533 -60.99495 
L 112.078309 -61.30104 
L 111.672085 -61.857548 
L 111.265861 -62.668668 
L 110.859637 -63.714121 
L 110.453412 -64.964576 
L 110.047185 -66.386585 
L 109.640961 -67.910982 
L 109.234737 -69.48795 
L 108.828513 -71.071156 
L 108.422289 -72.618901 
L 108.016064 -74.09465 
L 107.60984 -75.467352 
L 107.203616 -76.711764 
L 106.797392 -77.808824 
L 106.391168 -78.746151 
L 105.984944 -79.518678 
L 105.578719 -80.129488 
L 105.172495 -80.590765 
L 104.766268 -80.924861 
L 104.360044 -81.165313 
L 103.95382 -81.357519 
L 103.547596 -81.558575 
L 103.141371 -81.835692 
L 102.735147 -82.262572 
L 102.328923 -82.913403 
L 101.922699 -83.855119 
L 101.516475 -85.139314 
L 101.110251 -86.796108 
L 100.704026 -88.831791 
L 100.297802 -91.230741 
L 99.891578 -93.960743 
L 99.485351 -96.979701 
L 99.079127 -100.241847 
L 98.672903 -103.702645 
L 98.266678 -107.321342 
L 97.860454 -111.061578 
L 97.45423 -114.890254 
L 97.048006 -118.775145 
L 96.641782 -122.68208 
L 96.235558 -126.572284 
L 95.829333 -130.400592 
L 95.423109 -134.115074 
L 95.016885 -137.658623 
L 94.610658 -140.972345 
L 94.204434 -144.001033 
L 93.79821 -146.700082 
L 93.391985 -149.043325 
L 92.985761 -151.03141 
L 92.579537 -152.6993 
L 92.173313 -154.121978 
L 91.767089 -155.416368 
L 91.360865 -156.737877 
L 90.95464 -158.26936 
L 90.548416 -160.201488 
L 90.142192 -162.705839 
L 89.735968 -166.017382 
L 89.329741 -170.045517 
L 88.923517 -174.700813 
L 88.517292 -179.8411 
L 88.111068 -185.251149 
L 87.704844 -190.791862 
L 87.29862 -196.122553 
L 86.892396 -200.87239 
L 86.486172 -204.731593 
L 86.079947 -207.425031 
L 85.673723 -208.73067 
L 85.267498 -208.496463 
L 84.861273 -206.656378 
L 84.455049 -203.246187 
L 84.048825 -198.419358 
L 83.642601 -192.463221 
L 83.236377 -185.814245 
L 82.830151 -179.067152 
L 82.423927 -172.965113 
L 82.017703 -168.345754 
L 81.611479 -166.271444 
L 81.205254 -166.990817 
L 80.79903 -170.600249 
L 80.392806 -176.79138 
L 79.98658 -184.915034 
L 79.580356 -194.287422 
L 79.174132 -204.090113 
L 78.767908 -213.327907 
L 78.361684 -221.261949 
L 77.95546 -227.283437 
L 77.549234 -230.933564 
L 77.14301 -231.923177 
L 76.736786 -230.152683 
L 76.330561 -225.731422 
L 75.924337 -218.99439 
L 75.518113 -210.513879 
L 75.111887 -201.09909 
L 74.705663 -191.769248 
L 74.299439 -183.85391 
L 73.893215 -178.37554 
L 73.486991 -175.992581 
L 73.080766 -176.732407 
L 72.674542 -180.50949 
L 72.268317 -186.723024 
L 71.862093 -194.724705 
L 71.455868 -203.366971 
L 71.049644 -211.716842 
L 70.64342 -218.912821 
L 70.237195 -224.167347 
L 69.830971 -226.832017 
L 69.424747 -226.486921 
L 69.018522 -223.034798 
L 68.612298 -216.787395 
L 68.206074 -208.538111 
L 67.799849 -199.724163 
L 67.393624 -192.892853 
L 66.9874 -188.472468 
L 66.581176 -187.698457 
L 66.174951 -192.231199 
L 65.768727 -201.557203 
L 65.362503 -213.478578 
L 64.956278 -225.927511 
L 64.550054 -237.075922 
L 64.143829 -245.326314 
L 63.737605 -249.23625 
L 63.331381 -247.426513 
L 62.925156 -238.538421 
L 62.518932 -221.255516 
L 62.112707 -194.373464 
L 61.706483 -156.8903 
L 61.300258 -108.153862 
L 60.894034 -47.63625 
z
" style="stroke: #d62728; stroke-opacity: 0.2"/>
    </defs>
    <g clip-path="url(#pd0fd3d6617)">
     <use xlink:href="#mff72a46943" x="0" y="281.634375" style="fill: #d62728; fill-opacity: 0.2; stroke: #d62728; stroke-opacity: 0.2"/>
    </g>
   </g>
   <g id="matplotlib.axis_1">
    <g id="xtick_1">
     <g id="line2d_1">
      <path d="M 60.894034 244.078125 
L 60.894034 22.318125 
" clip-path="url(#pd0fd3d6617)" style="fill: none; stroke: #b0b0b0; stroke-opacity: 0.3; stroke-width: 0.8; stroke-linecap: square"/>
     </g>
     <g id="line2d_2">
      <defs>
       <path id="mcae12f7631" d="M 0 0 
L 0 3.5 
" style="stroke: #000000; stroke-width: 0.8"/>
      </defs>
      <g>
       <use xlink:href="#mcae12f7631" x="60.894034" y="244.078125" style="stroke: #000000; stroke-width: 0.8"/>
      </g>
     </g>
     <g id="text_1">
      <text style="font: 10px 'DejaVu Sans', 'Bitstream Vera Sans', 'Computer Modern Sans Serif', 'Lucida Grande', 'Verdana', 'Geneva', 'Lucid', 'Arial', 'Helvetica', 'Avant Garde', sans-serif; text-anchor: middle" x="60.894034" y="258.676562" transform="rotate(-0 60.894034 258.676562)">0.0</text>
     </g>
    </g>
    <g id="xtick_2">
     <g id="line2d_3">
      <path d="M 142.05767 244.078125 
L 142.05767 22.318125 
" clip-path="url(#pd0fd3d6617)" style="fill: none; stroke: #b0b0b0; stroke-opacity: 0.3; stroke-width: 0.8; stroke-linecap: square"/>
     </g>
     <g id="line2d_4">
      <g>
       <use xlink:href="#mcae12f7631" x="142.05767" y="244.078125" style="stroke: #000000; stroke-width: 0.8"/>
      </g>
     </g>
     <g id="text_2">
      <text style="font: 10px 'DejaVu Sans', 'Bitstream Vera Sans', 'Computer Modern Sans Serif', 'Lucida Grande', 'Verdana', 'Geneva', 'Lucid', 'Arial', 'Helvetica', 'Avant Garde', sans-serif; text-anchor: middle" x="142.05767" y="258.676562" transform="rotate(-0 142.05767 258.676562)">0.2</text>
     </g>
    </g>
    <g id="xtick_3">
     <g id="line2d_5">
      <path d="M 223.221307 244.078125 
L 223.221307 22.318125 
" clip-path="url(#pd0fd3d6617)" style="fill: none; stroke: #b0b0b0; stroke-opacity: 0.3; stroke-width: 0.8; stroke-linecap: square"/>
     </g>
     <g id="line2d_6">
      <g>
       <use xlink:href="#mcae12f7631" x="223.221307" y="244.078125" style="stroke: #000000; stroke-width: 0.8"/>
      </g>
     </g>
     <g id="text_3">
      <text style="font: 10px 'DejaVu Sans', 'Bitstream Vera Sans', 'Computer Modern Sans Serif', 'Lucida Grande', 'Verdana', 'Geneva', 'Lucid', 'Arial', 'Helvetica', 'Avant Garde', sans-serif; text-anchor: middle" x="223.221307" y="258.676562" transform="rotate(-0 223.221307 258.676562)">0.4</text>
     </g>
    </g>
    <g id="xtick_4">
     <g id="line2d_7">
      <path d="M 304.384943 244.078125 
L 304.384943 22.318125 
" clip-path="url(#pd0fd3d6617)" style="fill: none; stroke: #b0b0b0; stroke-opacity: 0.3; stroke-width: 0.8; stroke-linecap: square"/>
     </g>
     <g id="line2d_8">
      <g>
       <use xlink:href="#mcae12f7631" x="304.384943" y="244.078125" style="stroke: #000000; stroke-width: 0.8"/>
      </g>
     </g>
     <g id="text_4">
      <text style="font: 10px 'DejaVu Sans', 'Bitstream Vera Sans', 'Computer Modern Sans Serif', 'Lucida Grande', 'Verdana', 'Geneva', 'Lucid', 'Arial', 'Helvetica', 'Avant Garde', sans-serif; text-anchor: middle" x="304.384943" y="258.676562" transform="rotate(-0 304.384943 258.676562)">0.6</text>
     </g>
    </g>
    <g id="xtick_5">
     <g id="line2d_9">
      <path d="M 385.54858 244.078125 
L 385.54858 22.318125 
" clip-path="url(#pd0fd3d6617)" style="fill: none; stroke: #b0b0b0; stroke-opacity: 0.3; stroke-width: 0.8; stroke-linecap: square"/>
     </g>
     <g id="line2d_10">
      <g>
       <use xlink:href="#mcae12f7631" x="385.54858" y="244.078125" style="stroke: #000000; stroke-width: 0.8"/>
      </g>
     </g>
     <g id="text_5">
      <text style="font: 10px 'DejaVu Sans', 'Bitstream Vera Sans', 'Computer Modern Sans Serif', 'Lucida Grande', 'Verdana', 'Geneva', 'Lucid', 'Arial', 'Helvetica', 'Avant Garde', sans-serif; text-anchor: middle" x="385.54858" y="258.676562" transform="rotate(-0 385.54858 258.676562)">0.8</text>
     </g>
    </g>
    <g id="xtick_6">
     <g id="line2d_11">
      <path d="M 466.712216 244.078125 
L 466.712216 22.318125 
" clip-path="url(#pd0fd3d6617)" style="fill: none; stroke: #b0b0b0; stroke-opacity: 0.3; stroke-width: 0.8; stroke-linecap: square"/>
     </g>
     <g id="line2d_12">
      <g>
       <use xlink:href="#mcae12f7631" x="466.712216" y="244.078125" style="stroke: #000000; stroke-width: 0.8"/>
      </g>
     </g>
     <g id="text_6">
      <text style="font: 10px 'DejaVu Sans', 'Bitstream Vera Sans', 'Computer Modern Sans Serif', 'Lucida Grande', 'Verdana', 'Geneva', 'Lucid', 'Arial', 'Helvetica', 'Avant Garde', sans-serif; text-anchor: middle" x="466.712216" y="258.676562" transform="rotate(-0 466.712216 258.676562)">1.0</text>
     </g>
    </g>
    <g id="text_7">
     <text style="font: 10px 'DejaVu Sans', 'Bitstream Vera Sans', 'Computer Modern Sans Serif', 'Lucida Grande', 'Verdana', 'Geneva', 'Lucid', 'Arial', 'Helvetica', 'Avant Garde', sans-serif; text-anchor: middle" x="263.803125" y="272.354687" transform="rotate(-0 263.803125 272.354687)">Tiempo (s)</text>
    </g>
   </g>
   <g id="matplotlib.axis_2">
    <g id="ytick_1">
     <g id="line2d_13">
      <path d="M 40.603125 233.998125 
L 487.003125 233.998125 
" clip-path="url(#pd0fd3d6617)" style="fill: none; stroke: #b0b0b0; stroke-opacity: 0.3; stroke-width: 0.8; stroke-linecap: square"/>
     </g>
     <g id="line2d_14">
      <defs>
       <path id="m6d9fbbd28e" d="M 0 0 
L -3.5 0 
" style="stroke: #000000; stroke-width: 0.8"/>
      </defs>
      <g>
       <use xlink:href="#m6d9fbbd28e" x="40.603125" y="233.998125" style="stroke: #000000; stroke-width: 0.8"/>
      </g>
     </g>
     <g id="text_8">
      <text style="font: 10px 'DejaVu Sans', 'Bitstream Vera Sans', 'Computer Modern Sans Serif', 'Lucida Grande', 'Verdana', 'Geneva', 'Lucid', 'Arial', 'Helvetica', 'Avant Garde', sans-serif; text-anchor: end" x="33.603125" y="237.797344" transform="rotate(-0 33.603125 237.797344)">0</text>
     </g>
    </g>
    <g id="ytick_2">
     <g id="line2d_15">
      <path d="M 40.603125 190.235435 
L 487.003125 190.235435 
" clip-path="url(#pd0fd3d6617)" style="fill: none; stroke: #b0b0b0; stroke-opacity: 0.3; stroke-width: 0.8; stroke-linecap: square"/>
     </g>
     <g id="line2d_16">
      <g>
       <use xlink:href="#m6d9fbbd28e" x="40.603125" y="190.235435" style="stroke: #000000; stroke-width: 0.8"/>
      </g>
     </g>
     <g id="text_9">
      <text style="font: 10px 'DejaVu Sans', 'Bitstream Vera Sans', 'Computer Modern Sans Serif', 'Lucida Grande', 'Verdana', 'Geneva', 'Lucid', 'Arial', 'Helvetica', 'Avant Garde', sans-serif; text-anchor: end" x="33.603125" y="194.034654" transform="rotate(-0 33.603125 194.034654)">20</text>
     </g>
    </g>
    <g id="ytick_3">
     <g id="line2d_17">
      <path d="M 40.603125 146.472746 
L 487.003125 146.472746 
" clip-path="url(#pd0fd3d6617)" style="fill: none; stroke: #b0b0b0; stroke-opacity: 0.3; stroke-width: 0.8; stroke-linecap: square"/>
     </g>
     <g id="line2d_18">
      <g>
       <use xlink:href="#m6d9fbbd28e" x="40.603125" y="146.472746" style="stroke: #000000; stroke-width: 0.8"/>
      </g>
     </g>
     <g id="text_10">
      <text style="font: 10px 'DejaVu Sans', 'Bitstream Vera Sans', 'Computer Modern Sans Serif', 'Lucida Grande', 'Verdana', 'Geneva', 'Lucid', 'Arial', 'Helvetica', 'Avant Garde', sans-serif; text-anchor: end" x="33.603125" y="150.271965" transform="rotate(-0 33.603125 150.271965)">40</text>
     </g>
    </g>
    <g id="ytick_4">
     <g id="line2d_19">
      <path d="M 40.603125 102.710056 
L 487.003125 102.710056 
" clip-path="url(#pd0fd3d6617)" style="fill: none; stroke: #b0b0b0; stroke-opacity: 0.3; stroke-width: 0.8; stroke-linecap: square"/>
     </g>
     <g id="line2d_20">
      <g>
       <use xlink:href="#m6d9fbbd28e" x="40.603125" y="102.710056" style="stroke: #000000; stroke-width: 0.8"/>
      </g>
     </g>
     <g id="text_11">
      <text style="font: 10px 'DejaVu Sans', 'Bitstream Vera Sans', 'Computer Modern Sans Serif', 'Lucida Grande', 'Verdana', 'Geneva', 'Lucid', 'Arial', 'Helvetica', 'Avant Garde', sans-serif; text-anchor: end" x="33.603125" y="106.509275" transform="rotate(-0 33.603125 106.509275)">60</text>
     </g>
    </g>
    <g id="ytick_5">
     <g id="line2d_21">
      <path d="M 40.603125 58.947367 
L 487.003125 58.947367 
" clip-path="url(#pd0fd3d6617)" style="fill: none; stroke: #b0b0b0; stroke-opacity: 0.3; stroke-width: 0.8; stroke-linecap: square"/>
     </g>
     <g id="line2d_22">
      <g>
       <use xlink:href="#m6d9fbbd28e" x="40.603125" y="58.947367" style="stroke: #000000; stroke-width: 0.8"/>
      </g>
     </g>
     <g id="text_12">
      <text style="font: 10px 'DejaVu Sans', 'Bitstream Vera Sans', 'Computer Modern Sans Serif', 'Lucida Grande', 'Verdana', 'Geneva', 'Lucid', 'Arial', 'Helvetica', 'Avant Garde', sans-serif; text-anchor: end" x="33.603125" y="62.746585" transform="rotate(-0 33.603125 62.746585)">80</text>
     </g>
    </g>
    <g id="text_13">
     <text style="font: 10px 'DejaVu Sans', 'Bitstream Vera Sans', 'Computer Modern Sans Serif', 'Lucida Grande', 'Verdana', 'Geneva', 'Lucid', 'Arial', 'Helvetica', 'Avant Garde', sans-serif; text-anchor: middle" x="14.798438" y="133.198125" transform="rotate(-90 14.798438 133.198125)">Corriente (A)</text>
    </g>
   </g>
   <g id="line2d_23">
    <path d="M 60.894034 233.998125 
L 61.706483 126.20327 
L 62.112707 90.55355 
L 62.518932 65.673853 
L 62.925156 50.227499 
L 63.331381 42.754484 
L 63.737605 41.763236 
L 64.143829 45.796674 
L 64.550054 53.447081 
L 66.174951 90.816165 
L 66.581176 94.252879 
L 66.9874 93.457813 
L 67.393624 89.019224 
L 69.018522 63.604398 
L 69.424747 61.278737 
L 69.830971 61.583104 
L 70.237195 64.37368 
L 70.64342 69.246032 
L 71.455868 82.835214 
L 72.268317 96.884343 
L 72.674542 102.225475 
L 73.080766 105.462161 
L 73.486991 106.023167 
L 73.893215 103.68163 
L 74.299439 98.680583 
L 75.111887 83.658953 
L 75.924337 68.270577 
L 76.330561 62.515839 
L 76.736786 58.79136 
L 77.14301 57.38588 
L 77.549234 58.38656 
L 77.95546 61.695974 
L 78.361684 67.052122 
L 79.174132 82.16032 
L 80.392806 106.531921 
L 80.79903 112.264647 
L 81.205254 115.761619 
L 81.611479 116.735113 
L 82.017703 115.255612 
L 82.423927 111.72965 
L 83.236377 101.098679 
L 84.048825 90.024963 
L 84.861273 82.315759 
L 85.267498 80.372444 
L 85.673723 79.824843 
L 86.079947 80.646645 
L 86.486172 82.734381 
L 86.892396 85.921827 
L 87.704844 94.705666 
L 89.735968 119.022185 
L 90.548416 125.754749 
L 91.360865 130.365571 
L 94.204434 143.242947 
L 95.016885 148.748533 
L 96.235558 158.659853 
L 99.485351 186.816838 
L 100.297802 192.433991 
L 101.110251 196.847793 
L 101.922699 199.892921 
L 102.735147 201.665265 
L 103.547596 202.534685 
L 105.578719 203.925134 
L 106.391168 205.085106 
L 107.203616 206.802776 
L 108.016064 209.040997 
L 109.640961 214.468958 
L 110.859637 218.392105 
L 111.672085 220.359276 
L 112.078309 221.04533 
L 112.484533 221.511985 
L 112.890757 221.766005 
L 113.296981 221.832662 
L 114.10943 221.565439 
L 116.140551 220.386834 
L 116.952999 220.173344 
L 118.171678 220.182844 
L 120.609022 220.415963 
L 121.827695 220.235163 
L 124.671264 219.564305 
L 125.889937 219.586431 
L 127.108609 219.888419 
L 128.733512 220.590729 
L 130.764633 221.48949 
L 131.983305 221.832176 
L 133.201978 221.983486 
L 134.826874 221.959019 
L 138.482892 221.574986 
L 143.357588 221.124708 
L 145.794933 221.126951 
L 149.85718 221.428431 
L 153.513198 221.59127 
L 157.981664 221.50527 
L 164.887481 221.370626 
L 192.510736 221.45242 
L 293.254401 221.44469 
L 466.712216 221.444681 
L 466.712216 221.444681 
" clip-path="url(#pd0fd3d6617)" style="fill: none; stroke: #d62728; stroke-width: 2; stroke-linecap: square"/>
   </g>
   <g id="line2d_24">
    <path d="M 60.894034 233.998125 
L 61.706483 126.227669 
L 62.112707 90.586136 
L 62.518932 65.712233 
L 62.925156 50.269435 
L 63.331381 42.798272 
L 63.737605 41.807492 
L 64.143829 45.840563 
L 64.550054 53.490402 
L 66.174951 90.859937 
L 66.581176 94.296376 
L 66.9874 93.499898 
L 67.393624 89.058873 
L 69.018522 63.632961 
L 69.424747 61.305781 
L 69.830971 61.609665 
L 70.237195 64.400909 
L 70.64342 69.275214 
L 71.455868 82.872275 
L 72.268317 96.932773 
L 72.674542 102.279464 
L 73.080766 105.520615 
L 73.486991 106.084268 
L 73.893215 103.743282 
L 74.299439 98.740941 
L 75.111887 83.713376 
L 75.924337 68.317655 
L 76.330561 62.559211 
L 76.736786 58.831125 
L 77.14301 57.422207 
L 77.549234 58.419815 
L 77.95546 61.726758 
L 78.361684 67.081353 
L 79.174132 82.190469 
L 80.392806 106.57798 
L 80.79903 112.319797 
L 81.205254 115.826927 
L 81.611479 116.810779 
L 82.017703 115.341019 
L 82.423927 111.823722 
L 83.236377 101.206699 
L 84.048825 90.142707 
L 84.861273 82.439212 
L 85.267498 80.497233 
L 85.673723 79.950015 
L 86.079947 80.771317 
L 86.486172 82.857751 
L 86.892396 86.043277 
L 87.704844 94.822701 
L 89.735968 119.145146 
L 90.548416 125.895898 
L 91.360865 130.5353 
L 94.204434 143.544009 
L 95.016885 149.080262 
L 96.235558 159.022475 
L 99.485351 187.13356 
L 100.297802 192.699528 
L 101.110251 197.046816 
L 101.922699 200.019033 
L 102.735147 201.726113 
L 103.547596 202.549796 
L 105.172495 203.523179 
L 105.984944 204.437901 
L 106.797392 205.891689 
L 107.60984 207.899554 
L 108.828513 211.725351 
L 110.859637 218.453661 
L 111.672085 220.408346 
L 112.078309 221.086614 
L 112.484533 221.545577 
L 112.890757 221.792935 
L 113.296981 221.854718 
L 114.10943 221.584344 
L 116.140551 220.422815 
L 116.952999 220.216454 
L 118.171678 220.228351 
L 120.202798 220.444243 
L 121.421471 220.32158 
L 125.077488 219.51634 
L 126.296161 219.639002 
L 127.514833 220.028801 
L 131.983305 221.834362 
L 133.201978 221.987369 
L 134.826874 221.964692 
L 138.482892 221.578028 
L 143.357588 221.11702 
L 145.794933 221.119194 
L 149.85718 221.424634 
L 153.513198 221.589855 
L 157.57544 221.517221 
L 164.887481 221.366216 
L 192.104512 221.448528 
L 264.006237 221.441229 
L 466.712216 221.441299 
L 466.712216 221.441299 
" clip-path="url(#pd0fd3d6617)" style="fill: none; stroke-dasharray: 4.44,1.92; stroke-dashoffset: 0; stroke: #808080; stroke-width: 1.2"/>
   </g>
   <g id="patch_3">
    <path d="M 40.603125 244.078125 
L 40.603125 22.318125 
" style="fill: none; stroke: #000000; stroke-width: 0.8; stroke-linejoin: miter; stroke-linecap: square"/>
   </g>
   <g id="patch_4">
    <path d="M 487.003125 244.078125 
L 487.003125 22.318125 
" style="fill: none; stroke: #000000; stroke-width: 0.8; stroke-linejoin: miter; stroke-linecap: square"/>
   </g>
   <g id="patch_5">
    <path d="M 40.603125 244.078125 
L 487.003125 244.078125 
" style="fill: none; stroke: #000000; stroke-width: 0.8; stroke-linejoin: miter; stroke-linecap: square"/>
   </g>
   <g id="patch_6">
    <path d="M 40.603125 22.318125 
L 487.003125 22.318125 
" style="fill: none; stroke: #000000; stroke-width: 0.8; stroke-linejoin: miter; stroke-linecap: square"/>
   </g>
   <g id="text_14">
    <text style="font: 12px 'DejaVu Sans', 'Bitstream Vera Sans', 'Computer Modern Sans Serif', 'Lucida Grande', 'Verdana', 'Geneva', 'Lucid', 'Arial', 'Helvetica', 'Avant Garde', sans-serif; text-anchor: middle" x="263.803125" y="16.318125" transform="rotate(-0 263.803125 16.318125)">Corriente - HYB</text>
   </g>
   <g id="legend_1">
    <g id="patch_7">
     <path d="M 365.76875 74.3525 
L 480.003125 74.3525 
Q 482.003125 74.3525 482.003125 72.3525 
L 482.003125 29.318125 
Q 482.003125 27.318125 480.003125 27.318125 
L 365.76875 27.318125 
Q 363.76875 27.318125 363.76875 29.318125 
L 363.76875 72.3525 
Q 363.76875 74.3525 365.76875 74.3525 
z
" style="fill: #ffffff; opacity: 0.8; stroke: #cccccc; stroke-linejoin: miter"/>
    </g>
    <g id="patch_8">
     <path d="M 367.76875 38.916562 
L 387.76875 38.916562 
L 387.76875 31.916562 
L 367.76875 31.916562 
z
" style="fill: #d62728; fill-opacity: 0.2; stroke: #d62728; stroke-opacity: 0.2; stroke-linejoin: miter"/>
    </g>
    <g id="text_15">
     <text style="font: 10px 'DejaVu Sans', 'Bitstream Vera Sans', 'Computer Modern Sans Serif', 'Lucida Grande', 'Verdana', 'Geneva', 'Lucid', 'Arial', 'Helvetica', 'Avant Garde', sans-serif; text-anchor: start" x="395.76875" y="38.916562" transform="rotate(-0 395.76875 38.916562)">Rango 95% runs</text>
    </g>
    <g id="line2d_25">
     <path d="M 367.76875 50.094687 
L 377.76875 50.094687 
L 387.76875 50.094687 
" style="fill: none; stroke: #d62728; stroke-width: 2; stroke-linecap: square"/>
    </g>
    <g id="text_16">
     <text style="font: 10px 'DejaVu Sans', 'Bitstream Vera Sans', 'Computer Modern Sans Serif', 'Lucida Grande', 'Verdana', 'Geneva', 'Lucid', 'Arial', 'Helvetica', 'Avant Garde', sans-serif; text-anchor: start" x="395.76875" y="53.594687" transform="rotate(-0 395.76875 53.594687)">Mejor run</text>
    </g>
    <g id="line2d_26">
     <path d="M 367.76875 64.772812 
L 377.76875 64.772812 
L 387.76875 64.772812 
" style="fill: none; stroke-dasharray: 4.44,1.92; stroke-dashoffset: 0; stroke: #808080; stroke-width: 1.2"/>
    </g>
    <g id="text_17">
     <text style="font: 10px 'DejaVu Sans', 'Bitstream Vera Sans', 'Computer Modern Sans Serif', 'Lucida Grande', 'Verdana', 'Geneva', 'Lucid', 'Arial', 'Helvetica', 'Avant Garde', sans-serif; text-anchor: start" x="395.76875" y="68.272812" transform="rotate(-0 395.76875 68.272812)">Medida</text>
    </g>
   </g>
  </g>
 </g>
 <defs>
  <clipPath id="pd0fd3d6617">
   <rect x="40.603125" y="22.318125" width="446.4" height="221.76"/>
  </clipPath>
 </defs>
</svg>
