<?xml version="1.0" encoding="utf-8" standalone="no"?>
<!DOCTYPE svg PUBLIC "-//W3C//DTD SVG 1.1//EN"
  "http://www.w3.org/Graphics/SVG/1.1/DTD/svg11.dtd">
<svg xmlns:xlink="http://www.w3.org/1999/xlink" width="506.928125pt" height="281.634375pt" viewBox="0 0 506.928125 281.634375" xmlns="http://www.w3.org/2000/svg" version="1.1">
 <metadata>
  <rdf:RDF xmlns:dc="http://purl.org/dc/elements/1.1/" xmlns:cc="http://creativecommons.org/ns#" xmlns:rdf="http://www.w3.org/1999/02/22-rdf-syntax-ns#">
   <cc:Work>
    <dc:type rdf:resource="http://purl.org/dc/dcmitype/StillImage"/>
    <dc:date>2025-11-28T08:07:52.335469</dc:date>
    <dc:format>image/svg+xml</dc:format>
    <dc:creator>
     <cc:Agent>
      <dc:title>Matplotlib v3.9.2, https://matplotlib.org/</dc:title>
     </cc:Agent>
    </dc:creator>
   </cc:Work>
  </rdf:RDF>
 </metadata>
 <defs>
  <style type="text/css">*{stroke-linejoin: round; stroke-linecap: butt}</style>
 </defs>
 <g id="figure_1">
  <g id="patch_1">
   <path d="M 0 281.634375 
L 506.928125 281.634375 
L 506.928125 0 
L 0 0 
z
" style="fill: #ffffff"/>
  </g>
  <g id="axes_1">
   <g id="patch_2">
    <path d="M 53.328125 244.078125 
L 499.728125 244.078125 
L 499.728125 22.318125 
L 53.328125 22.318125 
z
" style="fill: #ffffff"/>
   </g>
   <g id="PolyCollection_1">
    <defs>
     <path id="m7173b3e78f" d="M 73.619034 -47.63625 
L 73.619034 -47.63625 
L 74.025258 -47.637294 
L 74.431483 -47.655215 
L 74.837707 -47.75983 
L 75.243932 -48.093443 
L 75.650156 -48.853484 
L 76.056381 -50.24443 
L 76.462605 -52.408232 
L 76.868829 -55.406231 
L 77.275054 -59.17633 
L 77.681278 -63.53531 
L 78.087503 -68.206933 
L 78.493727 -72.877906 
L 78.899951 -77.236817 
L 79.306176 -81.015562 
L 79.7124 -84.015898 
L 80.118624 -86.135005 
L 80.524849 -87.343873 
L 80.931074 -87.703698 
L 81.337298 -87.352899 
L 81.743522 -86.499632 
L 82.149747 -85.399401 
L 82.555971 -84.326576 
L 82.962195 -83.541187 
L 83.36842 -83.262814 
L 83.774644 -83.489088 
L 84.180868 -84.546936 
L 84.587093 -86.525282 
L 84.993317 -89.333337 
L 85.399542 -92.789644 
L 85.805766 -96.654122 
L 86.211991 -100.665335 
L 86.618215 -104.575034 
L 87.024439 -108.17428 
L 87.430663 -111.308535 
L 87.836887 -113.850783 
L 88.243113 -115.795919 
L 88.649337 -117.205083 
L 89.055561 -118.102183 
L 89.461786 -118.564654 
L 89.86801 -118.726058 
L 90.274234 -118.744786 
L 90.68046 -118.746245 
L 91.086684 -118.920076 
L 91.492908 -119.37294 
L 91.899132 -120.17033 
L 92.305356 -121.362664 
L 92.71158 -123.005313 
L 93.117806 -125.085444 
L 93.52403 -127.557069 
L 93.930254 -130.3499 
L 94.336479 -133.380082 
L 94.742703 -136.560811 
L 95.148927 -139.811251 
L 95.555151 -143.062882 
L 95.961377 -146.262848 
L 96.367601 -149.374732 
L 96.773825 -152.377341 
L 97.180049 -155.2341 
L 97.586273 -157.947972 
L 97.992498 -160.556266 
L 98.398723 -163.073163 
L 98.804947 -165.518285 
L 99.211172 -167.931459 
L 99.617396 -170.278606 
L 100.02362 -172.60047 
L 100.429844 -174.915765 
L 100.836068 -177.239782 
L 101.242292 -179.586715 
L 101.648517 -181.969264 
L 102.054741 -184.39842 
L 102.460968 -186.882927 
L 102.867192 -189.428884 
L 103.273416 -192.039387 
L 103.67964 -194.714237 
L 104.085865 -197.449755 
L 104.492089 -200.238806 
L 104.898313 -203.036996 
L 105.304537 -205.78688 
L 105.710761 -208.523578 
L 106.116985 -211.263898 
L 106.52321 -213.993845 
L 106.929434 -216.698734 
L 107.335658 -219.363693 
L 107.741885 -221.973979 
L 108.148109 -224.515334 
L 108.554333 -226.974323 
L 108.960558 -229.338316 
L 109.366782 -231.595689 
L 109.773006 -233.735721 
L 110.17923 -235.748602 
L 110.585454 -237.623059 
L 110.991678 -239.348456 
L 111.397903 -240.922047 
L 111.804127 -242.339402 
L 112.210351 -243.584597 
L 112.616578 -244.663002 
L 113.022802 -245.571943 
L 113.429026 -246.306447 
L 113.835251 -246.871337 
L 114.241475 -247.269692 
L 114.647699 -247.506159 
L 115.053923 -247.587342 
L 115.460147 -247.521763 
L 115.866371 -247.319647 
L 116.272596 -246.992765 
L 116.67882 -246.554181 
L 117.085044 -246.020931 
L 117.491268 -245.404987 
L 117.897495 -244.711767 
L 118.303719 -243.948201 
L 118.709944 -243.077111 
L 119.116168 -242.097813 
L 119.522392 -241.123931 
L 119.928616 -240.171589 
L 120.33484 -239.255709 
L 120.741064 -238.393831 
L 121.147289 -237.601779 
L 121.553513 -236.882573 
L 121.959737 -236.244693 
L 122.365961 -235.694879 
L 122.772185 -235.238018 
L 123.178412 -234.877171 
L 123.584637 -234.61363 
L 123.990861 -234.446896 
L 124.397085 -234.372156 
L 124.803309 -234.384544 
L 125.209533 -234.483094 
L 125.615757 -234.661601 
L 126.021981 -234.912777 
L 126.428206 -235.226284 
L 126.83443 -235.592081 
L 127.240654 -236.00252 
L 127.646878 -236.375604 
L 128.053102 -236.772835 
L 128.459326 -237.173754 
L 128.865551 -237.582251 
L 129.271775 -237.997196 
L 129.677999 -238.412165 
L 130.084223 -238.819436 
L 130.490447 -239.208631 
L 130.896678 -239.584963 
L 131.302902 -239.935768 
L 131.709126 -240.252633 
L 132.11535 -240.537764 
L 132.521574 -240.787494 
L 132.927798 -241.000466 
L 133.334022 -241.175913 
L 133.740247 -241.313103 
L 134.146471 -241.412039 
L 134.552695 -241.468171 
L 134.958919 -241.481191 
L 135.365143 -241.459925 
L 135.771367 -241.412159 
L 136.177592 -241.338775 
L 136.583816 -241.23472 
L 136.99004 -241.099714 
L 137.396264 -240.941939 
L 137.802488 -240.761723 
L 138.208712 -240.54624 
L 138.614937 -240.299036 
L 139.021161 -240.052624 
L 139.427385 -239.811316 
L 139.833609 -239.579069 
L 140.239833 -239.359464 
L 140.646057 -239.155663 
L 141.052282 -238.970403 
L 141.458512 -238.805908 
L 141.864736 -238.663943 
L 142.27096 -238.54571 
L 142.677184 -238.449517 
L 143.083408 -238.377358 
L 143.489633 -238.329986 
L 143.895857 -238.306906 
L 144.302081 -238.307142 
L 144.708305 -238.329406 
L 145.114529 -238.372101 
L 145.520753 -238.433345 
L 145.926978 -238.50818 
L 146.333202 -238.573634 
L 146.739426 -238.653032 
L 147.14565 -238.733897 
L 147.551874 -238.812529 
L 147.958098 -238.902052 
L 148.364323 -238.994594 
L 148.770547 -239.088549 
L 149.176771 -239.184057 
L 149.582995 -239.279382 
L 149.989219 -239.372949 
L 150.395443 -239.463255 
L 150.801668 -239.548974 
L 151.207892 -239.627929 
L 151.614122 -239.698431 
L 152.020346 -239.763623 
L 152.42657 -239.820927 
L 152.832794 -239.869015 
L 153.239019 -239.903605 
L 153.645243 -239.93255 
L 154.051467 -239.954273 
L 154.457691 -239.967525 
L 154.863915 -239.972597 
L 155.270139 -239.969125 
L 155.676364 -239.956293 
L 156.082588 -239.932345 
L 156.488812 -239.899161 
L 156.895036 -239.861428 
L 157.30126 -239.820007 
L 157.707484 -239.775734 
L 158.113709 -239.729712 
L 158.519933 -239.675754 
L 158.926157 -239.615334 
L 159.332381 -239.557491 
L 159.738605 -239.503062 
L 160.144829 -239.452847 
L 160.551054 -239.407488 
L 160.957278 -239.367485 
L 161.363502 -239.333292 
L 161.769726 -239.303903 
L 162.175956 -239.280466 
L 162.58218 -239.263379 
L 162.988405 -239.252586 
L 163.394629 -239.247934 
L 163.800853 -239.249164 
L 164.207077 -239.253546 
L 164.613301 -239.255189 
L 165.019525 -239.258541 
L 165.42575 -239.266028 
L 165.831974 -239.280298 
L 166.238198 -239.292632 
L 166.644422 -239.309572 
L 167.050646 -239.3273 
L 167.45687 -239.347015 
L 167.863095 -239.367532 
L 168.269319 -239.38887 
L 168.675543 -239.410891 
L 169.081767 -239.433186 
L 169.487991 -239.455356 
L 169.894215 -239.477047 
L 170.30044 -239.49788 
L 170.706664 -239.517609 
L 171.112888 -239.535928 
L 171.519112 -239.552603 
L 171.925336 -239.567464 
L 172.33156 -239.580361 
L 172.737791 -239.591199 
L 173.144015 -239.599884 
L 173.550239 -239.606376 
L 173.956463 -239.610376 
L 174.362687 -239.612346 
L 174.768911 -239.612385 
L 175.175136 -239.610611 
L 175.58136 -239.60716 
L 175.987584 -239.602186 
L 176.393808 -239.595851 
L 176.800032 -239.588369 
L 177.206256 -239.576433 
L 177.612481 -239.566717 
L 178.018705 -239.556552 
L 178.424929 -239.545979 
L 178.831153 -239.535191 
L 179.237377 -239.52442 
L 179.643601 -239.513789 
L 180.049826 -239.503525 
L 180.45605 -239.493733 
L 180.862274 -239.484577 
L 181.268498 -239.476179 
L 181.674722 -239.468617 
L 182.080946 -239.461995 
L 182.487171 -239.456351 
L 182.893395 -239.451743 
L 183.299619 -239.448164 
L 183.705843 -239.44565 
L 184.112067 -239.444304 
L 184.518291 -239.44691 
L 184.924516 -239.44827 
L 185.33074 -239.44985 
L 185.736964 -239.452249 
L 186.143188 -239.455182 
L 186.549412 -239.458656 
L 186.955636 -239.462675 
L 187.361861 -239.467129 
L 187.768085 -239.471911 
L 188.174321 -239.476936 
L 188.580545 -239.482103 
L 188.986769 -239.4873 
L 189.392993 -239.492453 
L 189.799218 -239.497473 
L 190.205442 -239.502285 
L 190.611666 -239.506826 
L 191.01789 -239.511019 
L 191.424114 -239.514823 
L 191.830338 -239.518181 
L 192.236563 -239.521092 
L 192.642787 -239.523509 
L 193.049011 -239.52543 
L 193.455235 -239.526852 
L 193.861459 -239.527757 
L 194.267683 -239.528182 
L 194.673908 -239.528142 
L 195.080132 -239.527669 
L 195.486356 -239.526808 
L 195.89258 -239.525559 
L 196.298804 -239.523998 
L 196.705028 -239.522173 
L 197.111253 -239.520091 
L 197.517477 -239.517839 
L 197.923701 -239.515306 
L 198.329925 -239.512464 
L 198.736149 -239.509678 
L 199.142373 -239.506966 
L 199.548598 -239.504395 
L 199.954822 -239.502007 
L 200.361046 -239.499815 
L 200.76727 -239.497843 
L 201.173494 -239.496133 
L 201.579718 -239.494691 
L 201.985943 -239.493512 
L 202.392167 -239.492419 
L 202.798391 -239.491393 
L 203.204615 -239.490611 
L 203.610839 -239.490087 
L 204.017063 -239.489785 
L 204.423287 -239.489721 
L 204.829512 -239.489861 
L 205.235736 -239.490214 
L 205.64196 -239.490745 
L 206.048184 -239.491453 
L 206.454408 -239.492288 
L 206.860632 -239.493249 
L 207.266857 -239.494295 
L 207.673081 -239.495422 
L 208.079305 -239.496599 
L 208.485529 -239.497804 
L 208.891765 -239.499013 
L 209.29799 -239.500205 
L 209.704214 -239.501361 
L 210.110438 -239.502486 
L 210.516662 -239.503525 
L 210.922886 -239.504486 
L 211.32911 -239.505345 
L 211.735335 -239.506114 
L 212.141559 -239.506762 
L 212.547783 -239.507319 
L 212.954007 -239.507726 
L 213.360231 -239.508049 
L 213.766455 -239.508237 
L 214.17268 -239.508315 
L 214.578904 -239.508282 
L 214.985128 -239.508149 
L 215.391352 -239.50794 
L 215.797576 -239.50762 
L 216.2038 -239.507246 
L 216.610025 -239.506806 
L 217.016249 -239.506314 
L 217.422473 -239.505783 
L 217.828697 -239.505225 
L 218.234921 -239.504645 
L 218.641145 -239.504062 
L 219.047369 -239.503479 
L 219.453594 -239.502899 
L 219.859818 -239.502362 
L 220.266042 -239.501854 
L 220.672266 -239.501375 
L 221.07849 -239.500925 
L 221.484714 -239.500541 
L 221.890939 -239.500198 
L 222.297163 -239.499922 
L 222.703387 -239.499693 
L 223.109611 -239.499521 
L 223.515835 -239.499407 
L 223.922059 -239.499362 
L 224.328284 -239.499359 
L 224.734508 -239.499401 
L 225.140732 -239.499489 
L 225.546956 -239.499626 
L 225.95318 -239.499796 
L 226.359404 -239.499994 
L 226.765629 -239.500226 
L 227.171853 -239.500473 
L 227.578077 -239.500733 
L 227.984301 -239.501017 
L 228.390525 -239.501301 
L 228.796749 -239.501574 
L 229.202974 -239.501855 
L 229.60921 -239.502115 
L 230.015434 -239.502373 
L 230.421658 -239.502597 
L 230.827882 -239.502819 
L 231.234107 -239.503014 
L 231.640331 -239.503183 
L 232.046555 -239.503324 
L 232.452779 -239.503444 
L 232.859003 -239.503548 
L 233.265227 -239.50361 
L 233.671451 -239.503626 
L 234.077676 -239.503652 
L 234.4839 -239.503626 
L 234.890124 -239.50361 
L 235.296348 -239.503548 
L 235.702572 -239.503473 
L 236.108796 -239.503369 
L 236.515021 -239.503267 
L 236.921245 -239.50315 
L 237.327469 -239.503033 
L 237.733693 -239.5029 
L 238.139917 -239.502775 
L 238.546141 -239.502642 
L 238.952366 -239.502495 
L 239.35859 -239.502385 
L 239.764814 -239.502247 
L 240.171038 -239.50213 
L 240.577262 -239.502026 
L 240.983486 -239.501925 
L 241.389711 -239.501844 
L 241.795935 -239.501755 
L 242.202159 -239.50169 
L 242.608383 -239.501661 
L 243.014607 -239.501622 
L 243.420831 -239.501603 
L 243.827056 -239.50158 
L 244.23328 -239.50158 
L 244.639504 -239.501603 
L 245.045728 -239.501629 
L 245.451952 -239.501655 
L 245.858176 -239.501694 
L 246.264401 -239.501746 
L 246.670625 -239.501806 
L 247.076849 -239.501868 
L 247.483073 -239.501923 
L 247.889297 -239.501988 
L 248.295521 -239.50205 
L 248.701746 -239.502115 
L 249.10797 -239.50217 
L 249.514194 -239.502239 
L 249.920418 -239.502304 
L 250.326642 -239.50235 
L 250.732878 -239.502392 
L 251.139103 -239.502444 
L 251.545327 -239.50247 
L 251.951551 -239.502509 
L 252.357775 -239.502535 
L 252.763999 -239.502555 
L 253.170223 -239.502571 
L 253.576448 -239.502584 
L 253.982672 -239.502584 
L 254.388896 -239.502584 
L 254.79512 -239.502574 
L 255.201344 -239.502561 
L 255.607568 -239.502535 
L 256.013793 -239.502525 
L 256.420017 -239.502492 
L 256.826241 -239.502466 
L 257.232465 -239.502427 
L 257.638689 -239.502401 
L 258.044913 -239.502382 
L 258.451138 -239.502343 
L 258.857362 -239.502307 
L 259.263586 -239.502283 
L 259.66981 -239.502244 
L 260.076034 -239.502218 
L 260.482258 -239.502179 
L 260.888483 -239.502166 
L 261.294707 -239.50215 
L 261.700931 -239.502147 
L 262.107155 -239.502124 
L 262.513379 -239.502111 
L 262.919603 -239.502095 
L 263.325828 -239.502095 
L 263.732052 -239.502095 
L 264.138276 -239.502095 
L 264.5445 -239.502095 
L 264.950724 -239.502095 
L 265.356948 -239.502111 
L 265.763173 -239.502124 
L 266.169397 -239.502147 
L 266.575621 -239.50215 
L 266.981845 -239.502166 
L 267.388069 -239.502179 
L 267.794293 -239.502202 
L 268.200518 -239.502218 
L 268.606742 -239.502231 
L 269.012966 -239.502244 
L 269.41919 -239.502267 
L 269.825414 -239.502283 
L 270.231638 -239.502294 
L 270.637863 -239.502307 
L 271.044087 -239.50233 
L 271.450323 -239.50234 
L 271.856547 -239.50234 
L 272.262771 -239.50234 
L 272.668995 -239.50234 
L 273.07522 -239.50234 
L 273.481444 -239.50234 
L 273.887668 -239.50234 
L 274.293892 -239.50234 
L 274.700116 -239.50234 
L 275.10634 -239.50234 
L 275.512565 -239.50234 
L 275.918789 -239.502337 
L 276.325013 -239.502324 
L 276.731237 -239.502304 
L 277.137461 -239.502288 
L 277.543685 -239.502275 
L 277.94991 -239.502262 
L 278.356134 -239.502239 
L 278.762358 -239.502228 
L 279.168582 -239.502228 
L 279.574806 -239.502228 
L 279.98103 -239.502228 
L 280.387255 -239.502228 
L 280.793479 -239.502228 
L 281.199703 -239.502228 
L 281.605927 -239.502228 
L 282.012151 -239.502228 
L 282.418375 -239.502228 
L 282.8246 -239.502228 
L 283.230824 -239.502228 
L 283.637048 -239.502228 
L 284.043272 -239.502228 
L 284.449496 -239.502228 
L 284.85572 -239.502228 
L 285.261945 -239.502228 
L 285.668169 -239.502228 
L 286.074393 -239.502228 
L 286.480617 -239.502228 
L 286.886841 -239.502228 
L 287.293065 -239.502228 
L 287.69929 -239.502228 
L 288.105514 -239.502228 
L 288.511738 -239.502228 
L 288.917962 -239.502228 
L 289.324186 -239.502228 
L 289.73041 -239.502228 
L 290.136634 -239.502228 
L 290.542859 -239.502228 
L 290.949083 -239.502228 
L 291.355307 -239.502228 
L 291.761531 -239.502228 
L 292.167755 -239.502228 
L 292.574004 -239.502228 
L 292.980228 -239.502228 
L 293.386452 -239.502228 
L 293.792676 -239.502228 
L 294.1989 -239.502228 
L 294.605124 -239.502228 
L 295.011349 -239.502228 
L 295.417573 -239.502228 
L 295.823797 -239.502228 
L 296.230021 -239.502228 
L 296.636245 -239.502228 
L 297.042469 -239.502228 
L 297.448694 -239.502228 
L 297.854918 -239.502228 
L 298.261142 -239.502228 
L 298.667366 -239.502228 
L 299.07359 -239.502228 
L 299.479814 -239.502228 
L 299.886039 -239.502228 
L 300.292263 -239.502228 
L 300.698487 -239.502228 
L 301.104711 -239.502228 
L 301.510935 -239.502228 
L 301.917159 -239.502228 
L 302.323384 -239.502228 
L 302.729608 -239.502228 
L 303.135832 -239.502228 
L 303.542056 -239.502228 
L 303.94828 -239.502228 
L 304.354504 -239.502228 
L 304.760729 -239.502228 
L 305.166953 -239.502228 
L 305.573177 -239.502228 
L 305.979401 -239.502228 
L 306.385625 -239.502228 
L 306.791849 -239.502228 
L 307.198074 -239.502228 
L 307.604298 -239.502228 
L 308.010522 -239.502228 
L 308.416746 -239.502228 
L 308.82297 -239.502228 
L 309.229194 -239.502228 
L 309.635419 -239.502228 
L 310.041643 -239.502228 
L 310.447867 -239.502228 
L 310.854091 -239.502228 
L 311.260315 -239.502228 
L 311.666539 -239.502228 
L 312.072764 -239.502228 
L 312.478988 -239.502228 
L 312.885212 -239.502228 
L 313.291436 -239.502228 
L 313.69766 -239.502228 
L 314.103884 -239.502228 
L 314.510109 -239.502228 
L 314.916333 -239.502228 
L 315.322557 -239.502228 
L 315.728781 -239.502228 
L 316.135005 -239.502228 
L 316.541229 -239.502228 
L 316.947454 -239.502228 
L 317.353678 -239.502228 
L 317.759902 -239.502228 
L 318.166126 -239.502228 
L 318.57235 -239.502228 
L 318.978574 -239.502228 
L 319.384799 -239.502228 
L 319.791023 -239.502228 
L 320.197247 -239.502228 
L 320.603471 -239.502228 
L 321.009695 -239.502228 
L 321.415919 -239.502228 
L 321.822143 -239.502228 
L 322.228368 -239.502228 
L 322.634592 -239.502228 
L 323.040816 -239.502228 
L 323.44704 -239.502228 
L 323.853264 -239.502228 
L 324.259488 -239.502228 
L 324.665713 -239.502228 
L 325.071937 -239.502228 
L 325.478161 -239.502228 
L 325.884385 -239.502228 
L 326.290609 -239.502228 
L 326.696833 -239.502228 
L 327.103058 -239.502228 
L 327.509282 -239.502228 
L 327.915506 -239.502228 
L 328.32173 -239.502228 
L 328.727954 -239.502228 
L 329.134178 -239.502228 
L 329.540403 -239.502228 
L 329.946627 -239.502228 
L 330.352851 -239.502228 
L 330.759075 -239.502228 
L 331.165299 -239.502228 
L 331.571523 -239.502228 
L 331.977748 -239.502228 
L 332.383972 -239.502228 
L 332.790196 -239.502228 
L 333.19642 -239.502228 
L 333.602644 -239.502228 
L 334.008893 -239.502228 
L 334.415117 -239.502228 
L 334.821341 -239.502228 
L 335.227565 -239.502228 
L 335.633789 -239.502228 
L 336.040013 -239.502228 
L 336.446238 -239.502228 
L 336.852462 -239.502228 
L 337.258686 -239.502228 
L 337.66491 -239.502228 
L 338.071134 -239.502228 
L 338.477358 -239.502228 
L 338.883583 -239.502228 
L 339.289807 -239.502228 
L 339.696031 -239.502228 
L 340.102255 -239.502228 
L 340.508479 -239.502228 
L 340.914703 -239.502228 
L 341.320928 -239.502228 
L 341.727152 -239.502228 
L 342.133376 -239.502228 
L 342.5396 -239.502228 
L 342.945824 -239.502228 
L 343.352048 -239.502228 
L 343.758273 -239.502228 
L 344.164497 -239.502228 
L 344.570721 -239.502228 
L 344.976945 -239.502228 
L 345.383169 -239.502228 
L 345.789393 -239.502228 
L 346.195618 -239.502228 
L 346.601842 -239.502228 
L 347.008066 -239.502228 
L 347.41429 -239.502228 
L 347.820514 -239.502228 
L 348.226738 -239.502228 
L 348.632963 -239.502228 
L 349.039187 -239.502228 
L 349.445411 -239.502228 
L 349.851635 -239.502228 
L 350.257859 -239.502228 
L 350.664083 -239.502228 
L 351.070307 -239.502228 
L 351.476532 -239.502228 
L 351.882756 -239.502228 
L 352.28898 -239.502228 
L 352.695204 -239.502228 
L 353.101428 -239.502228 
L 353.507652 -239.502228 
L 353.913877 -239.502228 
L 354.320101 -239.502228 
L 354.726325 -239.502228 
L 355.132549 -239.502228 
L 355.538773 -239.502228 
L 355.944997 -239.502228 
L 356.351222 -239.502228 
L 356.757446 -239.502228 
L 357.16367 -239.502228 
L 357.569894 -239.502228 
L 357.976118 -239.502228 
L 358.382342 -239.502228 
L 358.788567 -239.502228 
L 359.194791 -239.502228 
L 359.601015 -239.502228 
L 360.007239 -239.502228 
L 360.413463 -239.502228 
L 360.819687 -239.502228 
L 361.225912 -239.502228 
L 361.632136 -239.502228 
L 362.03836 -239.502228 
L 362.444584 -239.502228 
L 362.850808 -239.502228 
L 363.257032 -239.502228 
L 363.663257 -239.502228 
L 364.069481 -239.502228 
L 364.475705 -239.502228 
L 364.881929 -239.502228 
L 365.288153 -239.502228 
L 365.694377 -239.502228 
L 366.100602 -239.502228 
L 366.506826 -239.502228 
L 366.91305 -239.502228 
L 367.319274 -239.502228 
L 367.725498 -239.502228 
L 368.131722 -239.502228 
L 368.537947 -239.502228 
L 368.944171 -239.502228 
L 369.350395 -239.502228 
L 369.756619 -239.502228 
L 370.162843 -239.502228 
L 370.569067 -239.502228 
L 370.975292 -239.502228 
L 371.381516 -239.502228 
L 371.78774 -239.502228 
L 372.193964 -239.502228 
L 372.600188 -239.502228 
L 373.006412 -239.502228 
L 373.412637 -239.502228 
L 373.818861 -239.502228 
L 374.225085 -239.502228 
L 374.631309 -239.502228 
L 375.037533 -239.502228 
L 375.443782 -239.502228 
L 375.850006 -239.502228 
L 376.25623 -239.502228 
L 376.662454 -239.502228 
L 377.068678 -239.502228 
L 377.474902 -239.502228 
L 377.881127 -239.502228 
L 378.287351 -239.502228 
L 378.693575 -239.502228 
L 379.099799 -239.502228 
L 379.506023 -239.502228 
L 379.912247 -239.502228 
L 380.318471 -239.502228 
L 380.724696 -239.502228 
L 381.13092 -239.502228 
L 381.537144 -239.502228 
L 381.943368 -239.502228 
L 382.349592 -239.502228 
L 382.755816 -239.502228 
L 383.162041 -239.502228 
L 383.568265 -239.502228 
L 383.974489 -239.502228 
L 384.380713 -239.502228 
L 384.786937 -239.502228 
L 385.193161 -239.502228 
L 385.599386 -239.502228 
L 386.00561 -239.502228 
L 386.411834 -239.502228 
L 386.818058 -239.502228 
L 387.224282 -239.502228 
L 387.630506 -239.502228 
L 388.036731 -239.502228 
L 388.442955 -239.502228 
L 388.849179 -239.502228 
L 389.255403 -239.502228 
L 389.661627 -239.502228 
L 390.067851 -239.502228 
L 390.474076 -239.502228 
L 390.8803 -239.502228 
L 391.286524 -239.502228 
L 391.692748 -239.502228 
L 392.098972 -239.502228 
L 392.505196 -239.502228 
L 392.911421 -239.502228 
L 393.317645 -239.502228 
L 393.723869 -239.502228 
L 394.130093 -239.502228 
L 394.536317 -239.502228 
L 394.942541 -239.502228 
L 395.348766 -239.502228 
L 395.75499 -239.502228 
L 396.161214 -239.502228 
L 396.567438 -239.502228 
L 396.973662 -239.502228 
L 397.379886 -239.502228 
L 397.786111 -239.502228 
L 398.192335 -239.502228 
L 398.598559 -239.502228 
L 399.004783 -239.502228 
L 399.411007 -239.502228 
L 399.817231 -239.502228 
L 400.223456 -239.502228 
L 400.62968 -239.502228 
L 401.035904 -239.502228 
L 401.442128 -239.502228 
L 401.848352 -239.502228 
L 402.254576 -239.502228 
L 402.660801 -239.502228 
L 403.067025 -239.502228 
L 403.473249 -239.502228 
L 403.879473 -239.502228 
L 404.285697 -239.502228 
L 404.691921 -239.502228 
L 405.098146 -239.502228 
L 405.50437 -239.502228 
L 405.910594 -239.502228 
L 406.316818 -239.502228 
L 406.723042 -239.502228 
L 407.129266 -239.502228 
L 407.53549 -239.502228 
L 407.941715 -239.502228 
L 408.347939 -239.502228 
L 408.754163 -239.502228 
L 409.160387 -239.502228 
L 409.566611 -239.502228 
L 409.972835 -239.502228 
L 410.37906 -239.502228 
L 410.785284 -239.502228 
L 411.191508 -239.502228 
L 411.597732 -239.502228 
L 412.003956 -239.502228 
L 412.41018 -239.502228 
L 412.816405 -239.502228 
L 413.222629 -239.502228 
L 413.628853 -239.502228 
L 414.035077 -239.502228 
L 414.441301 -239.502228 
L 414.847525 -239.502228 
L 415.25375 -239.502228 
L 415.659974 -239.502228 
L 416.066198 -239.502228 
L 416.472422 -239.502228 
L 416.878646 -239.502228 
L 417.284895 -239.502228 
L 417.691119 -239.502228 
L 418.097343 -239.502228 
L 418.503567 -239.502228 
L 418.909791 -239.502228 
L 419.316015 -239.502228 
L 419.72224 -239.502228 
L 420.128464 -239.502228 
L 420.534688 -239.502228 
L 420.940912 -239.502228 
L 421.347136 -239.502228 
L 421.75336 -239.502228 
L 422.159585 -239.502228 
L 422.565809 -239.502228 
L 422.972033 -239.502228 
L 423.378257 -239.502228 
L 423.784481 -239.502228 
L 424.190705 -239.502228 
L 424.59693 -239.502228 
L 425.003154 -239.502228 
L 425.409378 -239.502228 
L 425.815602 -239.502228 
L 426.221826 -239.502228 
L 426.62805 -239.502228 
L 427.034275 -239.502228 
L 427.440499 -239.502228 
L 427.846723 -239.502228 
L 428.252947 -239.502228 
L 428.659171 -239.502228 
L 429.065395 -239.502228 
L 429.47162 -239.502228 
L 429.877844 -239.502228 
L 430.284068 -239.502228 
L 430.690292 -239.502228 
L 431.096516 -239.502228 
L 431.50274 -239.502228 
L 431.908965 -239.502228 
L 432.315189 -239.502228 
L 432.721413 -239.502228 
L 433.127637 -239.502228 
L 433.533861 -239.502228 
L 433.940085 -239.502228 
L 434.34631 -239.502228 
L 434.752534 -239.502228 
L 435.158758 -239.502228 
L 435.564982 -239.502228 
L 435.971206 -239.502228 
L 436.37743 -239.502228 
L 436.783654 -239.502228 
L 437.189879 -239.502228 
L 437.596103 -239.502228 
L 438.002327 -239.502228 
L 438.408551 -239.502228 
L 438.814775 -239.502228 
L 439.220999 -239.502228 
L 439.627224 -239.502228 
L 440.033448 -239.502228 
L 440.439672 -239.502228 
L 440.845896 -239.502228 
L 441.25212 -239.502228 
L 441.658344 -239.502228 
L 442.064569 -239.502228 
L 442.470793 -239.502228 
L 442.877017 -239.502228 
L 443.283241 -239.502228 
L 443.689465 -239.502228 
L 444.095689 -239.502228 
L 444.501914 -239.502228 
L 444.908138 -239.502228 
L 445.314362 -239.502228 
L 445.720586 -239.502228 
L 446.12681 -239.502228 
L 446.533034 -239.502228 
L 446.939259 -239.502228 
L 447.345483 -239.502228 
L 447.751707 -239.502228 
L 448.157931 -239.502228 
L 448.564155 -239.502228 
L 448.970379 -239.502228 
L 449.376604 -239.502228 
L 449.782828 -239.502228 
L 450.189052 -239.502228 
L 450.595276 -239.502228 
L 451.0015 -239.502228 
L 451.407724 -239.502228 
L 451.813949 -239.502228 
L 452.220173 -239.502228 
L 452.626397 -239.502228 
L 453.032621 -239.502228 
L 453.438845 -239.502228 
L 453.845069 -239.502228 
L 454.251294 -239.502228 
L 454.657518 -239.502228 
L 455.063742 -239.502228 
L 455.469966 -239.502228 
L 455.87619 -239.502228 
L 456.282414 -239.502228 
L 456.688639 -239.502228 
L 457.094863 -239.502228 
L 457.501087 -239.502228 
L 457.907311 -239.502228 
L 458.313535 -239.502228 
L 458.719784 -239.502228 
L 459.126008 -239.502228 
L 459.532232 -239.502228 
L 459.938456 -239.502228 
L 460.34468 -239.502228 
L 460.750904 -239.502228 
L 461.157129 -239.502228 
L 461.563353 -239.502228 
L 461.969577 -239.502228 
L 462.375801 -239.502228 
L 462.782025 -239.502228 
L 463.188249 -239.502228 
L 463.594474 -239.502228 
L 464.000698 -239.502228 
L 464.406922 -239.502228 
L 464.813146 -239.502228 
L 465.21937 -239.502228 
L 465.625594 -239.502228 
L 466.031818 -239.502228 
L 466.438043 -239.502228 
L 466.844267 -239.502228 
L 467.250491 -239.502228 
L 467.656715 -239.502228 
L 468.062939 -239.502228 
L 468.469163 -239.502228 
L 468.875388 -239.502228 
L 469.281612 -239.502228 
L 469.687836 -239.502228 
L 470.09406 -239.502228 
L 470.500284 -239.502228 
L 470.906508 -239.502228 
L 471.312733 -239.502228 
L 471.718957 -239.502228 
L 472.125181 -239.502228 
L 472.531405 -239.502228 
L 472.937629 -239.502228 
L 473.343853 -239.502228 
L 473.750078 -239.502228 
L 474.156302 -239.502228 
L 474.562526 -239.502228 
L 474.96875 -239.502228 
L 475.374974 -239.502228 
L 475.781198 -239.502228 
L 476.187423 -239.502228 
L 476.593647 -239.502228 
L 476.999871 -239.502228 
L 477.406095 -239.502228 
L 477.812319 -239.502228 
L 478.218543 -239.502228 
L 478.624768 -239.502228 
L 479.030992 -239.502228 
L 479.437216 -239.502228 
L 479.437216 -239.640655 
L 479.437216 -239.640655 
L 479.030992 -239.640655 
L 478.624768 -239.640655 
L 478.218543 -239.640655 
L 477.812319 -239.640655 
L 477.406095 -239.640655 
L 476.999871 -239.640655 
L 476.593647 -239.640655 
L 476.187423 -239.640655 
L 475.781198 -239.640655 
L 475.374974 -239.640655 
L 474.96875 -239.640655 
L 474.562526 -239.640655 
L 474.156302 -239.640655 
L 473.750078 -239.640655 
L 473.343853 -239.640655 
L 472.937629 -239.640655 
L 472.531405 -239.640655 
L 472.125181 -239.640655 
L 471.718957 -239.640655 
L 471.312733 -239.640655 
L 470.906508 -239.640655 
L 470.500284 -239.640655 
L 470.09406 -239.640655 
L 469.687836 -239.640655 
L 469.281612 -239.640655 
L 468.875388 -239.640655 
L 468.469163 -239.640655 
L 468.062939 -239.640655 
L 467.656715 -239.640655 
L 467.250491 -239.640655 
L 466.844267 -239.640655 
L 466.438043 -239.640655 
L 466.031818 -239.640655 
L 465.625594 -239.640655 
L 465.21937 -239.640655 
L 464.813146 -239.640655 
L 464.406922 -239.640655 
L 464.000698 -239.640655 
L 463.594474 -239.640655 
L 463.188249 -239.640655 
L 462.782025 -239.640655 
L 462.375801 -239.640655 
L 461.969577 -239.640655 
L 461.563353 -239.640655 
L 461.157129 -239.640655 
L 460.750904 -239.640655 
L 460.34468 -239.640655 
L 459.938456 -239.640655 
L 459.532232 -239.640655 
L 459.126008 -239.640655 
L 458.719784 -239.640655 
L 458.313535 -239.640655 
L 457.907311 -239.640655 
L 457.501087 -239.640655 
L 457.094863 -239.640655 
L 456.688639 -239.640655 
L 456.282414 -239.640655 
L 455.87619 -239.640655 
L 455.469966 -239.640655 
L 455.063742 -239.640655 
L 454.657518 -239.640655 
L 454.251294 -239.640655 
L 453.845069 -239.640655 
L 453.438845 -239.640655 
L 453.032621 -239.640655 
L 452.626397 -239.640655 
L 452.220173 -239.640655 
L 451.813949 -239.640655 
L 451.407724 -239.640655 
L 451.0015 -239.640655 
L 450.595276 -239.640655 
L 450.189052 -239.640655 
L 449.782828 -239.640655 
L 449.376604 -239.640655 
L 448.970379 -239.640655 
L 448.564155 -239.640655 
L 448.157931 -239.640655 
L 447.751707 -239.640655 
L 447.345483 -239.640655 
L 446.939259 -239.640655 
L 446.533034 -239.640655 
L 446.12681 -239.640655 
L 445.720586 -239.640655 
L 445.314362 -239.640655 
L 444.908138 -239.640655 
L 444.501914 -239.640655 
L 444.095689 -239.640655 
L 443.689465 -239.640655 
L 443.283241 -239.640655 
L 442.877017 -239.640655 
L 442.470793 -239.640655 
L 442.064569 -239.640655 
L 441.658344 -239.640655 
L 441.25212 -239.640655 
L 440.845896 -239.640655 
L 440.439672 -239.640655 
L 440.033448 -239.640655 
L 439.627224 -239.640655 
L 439.220999 -239.640655 
L 438.814775 -239.640655 
L 438.408551 -239.640655 
L 438.002327 -239.640655 
L 437.596103 -239.640655 
L 437.189879 -239.640655 
L 436.783654 -239.640655 
L 436.37743 -239.640655 
L 435.971206 -239.640655 
L 435.564982 -239.640655 
L 435.158758 -239.640655 
L 434.752534 -239.640655 
L 434.34631 -239.640655 
L 433.940085 -239.640655 
L 433.533861 -239.640655 
L 433.127637 -239.640655 
L 432.721413 -239.640655 
L 432.315189 -239.640655 
L 431.908965 -239.640655 
L 431.50274 -239.640655 
L 431.096516 -239.640655 
L 430.690292 -239.640655 
L 430.284068 -239.640655 
L 429.877844 -239.640655 
L 429.47162 -239.640655 
L 429.065395 -239.640655 
L 428.659171 -239.640655 
L 428.252947 -239.640655 
L 427.846723 -239.640655 
L 427.440499 -239.640655 
L 427.034275 -239.640655 
L 426.62805 -239.640655 
L 426.221826 -239.640655 
L 425.815602 -239.640655 
L 425.409378 -239.640655 
L 425.003154 -239.640655 
L 424.59693 -239.640655 
L 424.190705 -239.640655 
L 423.784481 -239.640655 
L 423.378257 -239.640655 
L 422.972033 -239.640655 
L 422.565809 -239.640655 
L 422.159585 -239.640655 
L 421.75336 -239.640655 
L 421.347136 -239.640655 
L 420.940912 -239.640655 
L 420.534688 -239.640655 
L 420.128464 -239.640655 
L 419.72224 -239.640655 
L 419.316015 -239.640655 
L 418.909791 -239.640655 
L 418.503567 -239.640655 
L 418.097343 -239.640655 
L 417.691119 -239.640655 
L 417.284895 -239.640655 
L 416.878646 -239.640655 
L 416.472422 -239.640655 
L 416.066198 -239.640655 
L 415.659974 -239.640655 
L 415.25375 -239.640655 
L 414.847525 -239.640655 
L 414.441301 -239.640655 
L 414.035077 -239.640655 
L 413.628853 -239.640655 
L 413.222629 -239.640655 
L 412.816405 -239.640655 
L 412.41018 -239.640655 
L 412.003956 -239.640655 
L 411.597732 -239.640655 
L 411.191508 -239.640655 
L 410.785284 -239.640655 
L 410.37906 -239.640655 
L 409.972835 -239.640655 
L 409.566611 -239.640655 
L 409.160387 -239.640655 
L 408.754163 -239.640655 
L 408.347939 -239.640655 
L 407.941715 -239.640655 
L 407.53549 -239.640655 
L 407.129266 -239.640655 
L 406.723042 -239.640655 
L 406.316818 -239.640655 
L 405.910594 -239.640655 
L 405.50437 -239.640655 
L 405.098146 -239.640655 
L 404.691921 -239.640655 
L 404.285697 -239.640655 
L 403.879473 -239.640655 
L 403.473249 -239.640655 
L 403.067025 -239.640655 
L 402.660801 -239.640655 
L 402.254576 -239.640655 
L 401.848352 -239.640655 
L 401.442128 -239.640655 
L 401.035904 -239.640655 
L 400.62968 -239.640655 
L 400.223456 -239.640655 
L 399.817231 -239.640655 
L 399.411007 -239.640655 
L 399.004783 -239.640655 
L 398.598559 -239.640655 
L 398.192335 -239.640655 
L 397.786111 -239.640655 
L 397.379886 -239.640655 
L 396.973662 -239.640655 
L 396.567438 -239.640655 
L 396.161214 -239.640655 
L 395.75499 -239.640655 
L 395.348766 -239.640655 
L 394.942541 -239.640655 
L 394.536317 -239.640655 
L 394.130093 -239.640655 
L 393.723869 -239.640655 
L 393.317645 -239.640655 
L 392.911421 -239.640655 
L 392.505196 -239.640655 
L 392.098972 -239.640655 
L 391.692748 -239.640655 
L 391.286524 -239.640655 
L 390.8803 -239.640655 
L 390.474076 -239.640655 
L 390.067851 -239.640655 
L 389.661627 -239.640655 
L 389.255403 -239.640655 
L 388.849179 -239.640655 
L 388.442955 -239.640655 
L 388.036731 -239.640655 
L 387.630506 -239.640655 
L 387.224282 -239.640655 
L 386.818058 -239.640655 
L 386.411834 -239.640655 
L 386.00561 -239.640655 
L 385.599386 -239.640655 
L 385.193161 -239.640655 
L 384.786937 -239.640655 
L 384.380713 -239.640655 
L 383.974489 -239.640655 
L 383.568265 -239.640655 
L 383.162041 -239.640655 
L 382.755816 -239.640655 
L 382.349592 -239.640655 
L 381.943368 -239.640655 
L 381.537144 -239.640655 
L 381.13092 -239.640655 
L 380.724696 -239.640655 
L 380.318471 -239.640655 
L 379.912247 -239.640655 
L 379.506023 -239.640655 
L 379.099799 -239.640655 
L 378.693575 -239.640655 
L 378.287351 -239.640655 
L 377.881127 -239.640655 
L 377.474902 -239.640655 
L 377.068678 -239.640655 
L 376.662454 -239.640655 
L 376.25623 -239.640655 
L 375.850006 -239.640655 
L 375.443782 -239.640655 
L 375.037533 -239.640655 
L 374.631309 -239.640655 
L 374.225085 -239.640655 
L 373.818861 -239.640655 
L 373.412637 -239.640655 
L 373.006412 -239.640655 
L 372.600188 -239.640655 
L 372.193964 -239.640655 
L 371.78774 -239.640655 
L 371.381516 -239.640655 
L 370.975292 -239.640655 
L 370.569067 -239.640655 
L 370.162843 -239.640655 
L 369.756619 -239.640655 
L 369.350395 -239.640655 
L 368.944171 -239.640655 
L 368.537947 -239.640655 
L 368.131722 -239.640655 
L 367.725498 -239.640655 
L 367.319274 -239.640655 
L 366.91305 -239.640655 
L 366.506826 -239.640655 
L 366.100602 -239.640655 
L 365.694377 -239.640655 
L 365.288153 -239.640655 
L 364.881929 -239.640655 
L 364.475705 -239.640655 
L 364.069481 -239.640655 
L 363.663257 -239.640655 
L 363.257032 -239.640655 
L 362.850808 -239.640655 
L 362.444584 -239.640655 
L 362.03836 -239.640655 
L 361.632136 -239.640655 
L 361.225912 -239.640655 
L 360.819687 -239.640655 
L 360.413463 -239.640655 
L 360.007239 -239.640655 
L 359.601015 -239.640655 
L 359.194791 -239.640655 
L 358.788567 -239.640655 
L 358.382342 -239.640655 
L 357.976118 -239.640655 
L 357.569894 -239.640655 
L 357.16367 -239.640655 
L 356.757446 -239.640655 
L 356.351222 -239.640655 
L 355.944997 -239.640655 
L 355.538773 -239.640655 
L 355.132549 -239.640655 
L 354.726325 -239.640655 
L 354.320101 -239.640655 
L 353.913877 -239.640655 
L 353.507652 -239.640655 
L 353.101428 -239.640655 
L 352.695204 -239.640655 
L 352.28898 -239.640655 
L 351.882756 -239.640655 
L 351.476532 -239.640655 
L 351.070307 -239.640655 
L 350.664083 -239.640655 
L 350.257859 -239.640655 
L 349.851635 -239.640655 
L 349.445411 -239.640655 
L 349.039187 -239.640655 
L 348.632963 -239.640655 
L 348.226738 -239.640655 
L 347.820514 -239.640655 
L 347.41429 -239.640655 
L 347.008066 -239.640655 
L 346.601842 -239.640655 
L 346.195618 -239.640655 
L 345.789393 -239.640655 
L 345.383169 -239.640655 
L 344.976945 -239.640655 
L 344.570721 -239.640655 
L 344.164497 -239.640655 
L 343.758273 -239.640655 
L 343.352048 -239.640655 
L 342.945824 -239.640655 
L 342.5396 -239.640655 
L 342.133376 -239.640655 
L 341.727152 -239.640655 
L 341.320928 -239.640655 
L 340.914703 -239.640655 
L 340.508479 -239.640655 
L 340.102255 -239.640655 
L 339.696031 -239.640655 
L 339.289807 -239.640655 
L 338.883583 -239.640655 
L 338.477358 -239.640655 
L 338.071134 -239.640655 
L 337.66491 -239.640655 
L 337.258686 -239.640655 
L 336.852462 -239.640655 
L 336.446238 -239.640655 
L 336.040013 -239.640655 
L 335.633789 -239.640655 
L 335.227565 -239.640655 
L 334.821341 -239.640655 
L 334.415117 -239.640655 
L 334.008893 -239.640655 
L 333.602644 -239.640655 
L 333.19642 -239.640655 
L 332.790196 -239.640655 
L 332.383972 -239.640655 
L 331.977748 -239.640655 
L 331.571523 -239.640655 
L 331.165299 -239.640655 
L 330.759075 -239.640655 
L 330.352851 -239.640655 
L 329.946627 -239.640655 
L 329.540403 -239.640655 
L 329.134178 -239.640655 
L 328.727954 -239.640655 
L 328.32173 -239.640655 
L 327.915506 -239.640655 
L 327.509282 -239.640655 
L 327.103058 -239.640655 
L 326.696833 -239.640655 
L 326.290609 -239.640655 
L 325.884385 -239.640655 
L 325.478161 -239.640655 
L 325.071937 -239.640655 
L 324.665713 -239.640655 
L 324.259488 -239.640655 
L 323.853264 -239.640655 
L 323.44704 -239.640655 
L 323.040816 -239.640655 
L 322.634592 -239.640655 
L 322.228368 -239.640655 
L 321.822143 -239.640655 
L 321.415919 -239.640655 
L 321.009695 -239.640655 
L 320.603471 -239.640655 
L 320.197247 -239.640655 
L 319.791023 -239.640655 
L 319.384799 -239.640655 
L 318.978574 -239.640655 
L 318.57235 -239.640655 
L 318.166126 -239.640655 
L 317.759902 -239.640655 
L 317.353678 -239.640655 
L 316.947454 -239.640655 
L 316.541229 -239.640655 
L 316.135005 -239.640655 
L 315.728781 -239.640655 
L 315.322557 -239.640655 
L 314.916333 -239.640655 
L 314.510109 -239.640655 
L 314.103884 -239.640655 
L 313.69766 -239.640655 
L 313.291436 -239.640655 
L 312.885212 -239.640655 
L 312.478988 -239.640655 
L 312.072764 -239.640655 
L 311.666539 -239.640655 
L 311.260315 -239.640655 
L 310.854091 -239.640655 
L 310.447867 -239.640655 
L 310.041643 -239.640655 
L 309.635419 -239.640655 
L 309.229194 -239.640655 
L 308.82297 -239.640655 
L 308.416746 -239.640655 
L 308.010522 -239.640655 
L 307.604298 -239.640655 
L 307.198074 -239.640655 
L 306.791849 -239.640655 
L 306.385625 -239.640655 
L 305.979401 -239.640655 
L 305.573177 -239.640655 
L 305.166953 -239.640655 
L 304.760729 -239.640655 
L 304.354504 -239.640655 
L 303.94828 -239.640655 
L 303.542056 -239.640655 
L 303.135832 -239.640655 
L 302.729608 -239.640655 
L 302.323384 -239.640655 
L 301.917159 -239.640655 
L 301.510935 -239.640655 
L 301.104711 -239.640655 
L 300.698487 -239.640655 
L 300.292263 -239.640655 
L 299.886039 -239.640655 
L 299.479814 -239.640655 
L 299.07359 -239.640655 
L 298.667366 -239.640655 
L 298.261142 -239.640655 
L 297.854918 -239.640655 
L 297.448694 -239.640655 
L 297.042469 -239.640655 
L 296.636245 -239.640655 
L 296.230021 -239.640655 
L 295.823797 -239.640655 
L 295.417573 -239.640655 
L 295.011349 -239.640655 
L 294.605124 -239.640655 
L 294.1989 -239.640655 
L 293.792676 -239.640655 
L 293.386452 -239.640655 
L 292.980228 -239.640655 
L 292.574004 -239.640655 
L 292.167755 -239.640655 
L 291.761531 -239.640655 
L 291.355307 -239.640655 
L 290.949083 -239.640655 
L 290.542859 -239.640655 
L 290.136634 -239.640655 
L 289.73041 -239.640655 
L 289.324186 -239.640655 
L 288.917962 -239.640655 
L 288.511738 -239.640655 
L 288.105514 -239.640655 
L 287.69929 -239.640655 
L 287.293065 -239.640655 
L 286.886841 -239.640655 
L 286.480617 -239.640655 
L 286.074393 -239.640655 
L 285.668169 -239.640655 
L 285.261945 -239.640655 
L 284.85572 -239.640655 
L 284.449496 -239.640655 
L 284.043272 -239.640655 
L 283.637048 -239.640655 
L 283.230824 -239.640655 
L 282.8246 -239.640655 
L 282.418375 -239.640655 
L 282.012151 -239.640655 
L 281.605927 -239.640655 
L 281.199703 -239.640655 
L 280.793479 -239.640655 
L 280.387255 -239.640655 
L 279.98103 -239.640655 
L 279.574806 -239.640655 
L 279.168582 -239.640655 
L 278.762358 -239.640655 
L 278.356134 -239.640655 
L 277.94991 -239.640676 
L 277.543685 -239.640689 
L 277.137461 -239.640705 
L 276.731237 -239.640728 
L 276.325013 -239.640731 
L 275.918789 -239.640734 
L 275.512565 -239.640739 
L 275.10634 -239.640739 
L 274.700116 -239.640739 
L 274.293892 -239.640739 
L 273.887668 -239.640739 
L 273.481444 -239.640739 
L 273.07522 -239.640739 
L 272.668995 -239.640739 
L 272.262771 -239.640739 
L 271.856547 -239.640739 
L 271.450323 -239.640739 
L 271.044087 -239.640734 
L 270.637863 -239.640731 
L 270.231638 -239.640728 
L 269.825414 -239.640705 
L 269.41919 -239.640689 
L 269.012966 -239.640676 
L 268.606742 -239.640655 
L 268.200518 -239.640642 
L 267.794293 -239.640626 
L 267.388069 -239.640613 
L 266.981845 -239.64059 
L 266.575621 -239.640577 
L 266.169397 -239.640561 
L 265.763173 -239.640548 
L 265.356948 -239.640545 
L 264.950724 -239.640542 
L 264.5445 -239.640542 
L 264.138276 -239.640542 
L 263.732052 -239.640542 
L 263.325828 -239.640542 
L 262.919603 -239.640542 
L 262.513379 -239.640545 
L 262.107155 -239.640558 
L 261.700931 -239.640571 
L 261.294707 -239.640587 
L 260.888483 -239.64061 
L 260.482258 -239.640623 
L 260.076034 -239.640642 
L 259.66981 -239.640655 
L 259.263586 -239.640694 
L 258.857362 -239.640731 
L 258.451138 -239.64076 
L 258.044913 -239.640796 
L 257.638689 -239.640815 
L 257.232465 -239.640841 
L 256.826241 -239.64087 
L 256.420017 -239.640886 
L 256.013793 -239.640902 
L 255.607568 -239.640928 
L 255.201344 -239.640941 
L 254.79512 -239.640947 
L 254.388896 -239.640949 
L 253.982672 -239.640949 
L 253.576448 -239.640949 
L 253.170223 -239.640939 
L 252.763999 -239.640916 
L 252.357775 -239.6409 
L 251.951551 -239.640864 
L 251.545327 -239.640835 
L 251.139103 -239.640819 
L 250.732878 -239.640767 
L 250.326642 -239.640715 
L 249.920418 -239.64066 
L 249.514194 -239.640605 
L 249.10797 -239.640563 
L 248.701746 -239.640508 
L 248.295521 -239.64044 
L 247.889297 -239.640385 
L 247.483073 -239.640324 
L 247.076849 -239.640279 
L 246.670625 -239.640234 
L 246.264401 -239.640182 
L 245.858176 -239.64014 
L 245.451952 -239.640111 
L 245.045728 -239.640082 
L 244.639504 -239.640063 
L 244.23328 -239.64006 
L 243.827056 -239.64006 
L 243.420831 -239.640073 
L 243.014607 -239.640109 
L 242.608383 -239.640145 
L 242.202159 -239.640187 
L 241.795935 -239.640253 
L 241.389711 -239.640328 
L 240.983486 -239.640412 
L 240.577262 -239.640519 
L 240.171038 -239.640603 
L 239.764814 -239.640723 
L 239.35859 -239.640823 
L 238.952366 -239.640946 
L 238.546141 -239.641059 
L 238.139917 -239.641179 
L 237.733693 -239.641302 
L 237.327469 -239.641402 
L 236.921245 -239.641528 
L 236.515021 -239.641625 
L 236.108796 -239.641712 
L 235.702572 -239.641793 
L 235.296348 -239.641854 
L 234.890124 -239.641909 
L 234.4839 -239.641931 
L 234.077676 -239.641931 
L 233.671451 -239.641921 
L 233.265227 -239.641875 
L 232.859003 -239.64182 
L 232.452779 -239.641729 
L 232.046555 -239.641611 
L 231.640331 -239.641475 
L 231.234107 -239.641316 
L 230.827882 -239.641121 
L 230.421658 -239.640922 
L 230.015434 -239.640695 
L 229.60921 -239.640452 
L 229.202974 -239.640216 
L 228.796749 -239.639949 
L 228.390525 -239.63969 
L 227.984301 -239.639431 
L 227.578077 -239.639185 
L 227.171853 -239.638959 
L 226.765629 -239.638749 
L 226.359404 -239.638532 
L 225.95318 -239.638371 
L 225.546956 -239.638226 
L 225.140732 -239.638113 
L 224.734508 -239.638036 
L 224.328284 -239.638014 
L 223.922059 -239.638021 
L 223.515835 -239.638084 
L 223.109611 -239.638192 
L 222.703387 -239.638371 
L 222.297163 -239.63858 
L 221.890939 -239.638856 
L 221.484714 -239.639169 
L 221.07849 -239.639532 
L 220.672266 -239.639932 
L 220.266042 -239.640394 
L 219.859818 -239.640864 
L 219.453594 -239.641367 
L 219.047369 -239.641879 
L 218.641145 -239.642421 
L 218.234921 -239.642949 
L 217.828697 -239.64348 
L 217.422473 -239.643989 
L 217.016249 -239.644458 
L 216.610025 -239.644901 
L 216.2038 -239.645302 
L 215.797576 -239.645641 
L 215.391352 -239.645912 
L 214.985128 -239.646102 
L 214.578904 -239.646201 
L 214.17268 -239.646218 
L 213.766455 -239.646132 
L 213.360231 -239.645935 
L 212.954007 -239.645634 
L 212.547783 -239.64523 
L 212.141559 -239.644722 
L 211.735335 -239.644107 
L 211.32911 -239.643392 
L 210.922886 -239.642586 
L 210.516662 -239.6417 
L 210.110438 -239.640739 
L 209.704214 -239.639704 
L 209.29799 -239.638626 
L 208.891765 -239.637513 
L 208.485529 -239.636391 
L 208.079305 -239.635292 
L 207.673081 -239.634203 
L 207.266857 -239.633179 
L 206.860632 -239.632215 
L 206.454408 -239.631337 
L 206.048184 -239.630568 
L 205.64196 -239.629948 
L 205.235736 -239.629485 
L 204.829512 -239.629196 
L 204.423287 -239.629073 
L 204.017063 -239.629161 
L 203.610839 -239.62947 
L 203.204615 -239.629999 
L 202.798391 -239.630746 
L 202.392167 -239.63172 
L 201.985943 -239.632908 
L 201.579718 -239.634332 
L 201.173494 -239.635612 
L 200.76727 -239.637079 
L 200.361046 -239.638725 
L 199.954822 -239.640554 
L 199.548598 -239.642513 
L 199.142373 -239.644603 
L 198.736149 -239.646768 
L 198.329925 -239.648999 
L 197.923701 -239.651245 
L 197.517477 -239.65345 
L 197.111253 -239.655607 
L 196.705028 -239.65765 
L 196.298804 -239.659558 
L 195.89258 -239.661237 
L 195.486356 -239.662684 
L 195.080132 -239.663863 
L 194.673908 -239.664713 
L 194.267683 -239.6648 
L 193.861459 -239.664361 
L 193.455235 -239.663471 
L 193.049011 -239.662114 
L 192.642787 -239.660286 
L 192.236563 -239.657991 
L 191.830338 -239.655251 
L 191.424114 -239.652084 
L 191.01789 -239.648492 
L 190.611666 -239.644543 
L 190.205442 -239.640297 
L 189.799218 -239.635782 
L 189.392993 -239.631064 
L 188.986769 -239.62624 
L 188.580545 -239.621372 
L 188.174321 -239.616546 
L 187.768085 -239.61184 
L 187.361861 -239.607384 
L 186.955636 -239.603232 
L 186.549412 -239.599493 
L 186.143188 -239.596265 
L 185.736964 -239.593632 
L 185.33074 -239.591672 
L 184.924516 -239.590493 
L 184.518291 -239.590122 
L 184.112067 -239.590629 
L 183.705843 -239.592084 
L 183.299619 -239.5945 
L 182.893395 -239.597005 
L 182.487171 -239.600164 
L 182.080946 -239.604307 
L 181.674722 -239.609402 
L 181.268498 -239.61541 
L 180.862274 -239.622276 
L 180.45605 -239.629978 
L 180.049826 -239.639379 
L 179.643601 -239.649353 
L 179.237377 -239.659766 
L 178.831153 -239.670441 
L 178.424929 -239.681193 
L 178.018705 -239.691862 
L 177.612481 -239.702226 
L 177.206256 -239.712207 
L 176.800032 -239.720887 
L 176.393808 -239.728097 
L 175.987584 -239.734138 
L 175.58136 -239.738854 
L 175.175136 -239.742114 
L 174.768911 -239.743882 
L 174.362687 -239.74396 
L 173.956463 -239.745434 
L 173.550239 -239.745654 
L 173.144015 -239.740683 
L 172.737791 -239.735564 
L 172.33156 -239.728658 
L 171.925336 -239.719491 
L 171.519112 -239.708102 
L 171.112888 -239.69456 
L 170.706664 -239.678963 
L 170.30044 -239.66148 
L 169.894215 -239.642336 
L 169.487991 -239.62266 
L 169.081767 -239.602225 
L 168.675543 -239.57549 
L 168.269319 -239.549808 
L 167.863095 -239.525091 
L 167.45687 -239.502624 
L 167.050646 -239.481062 
L 166.644422 -239.461913 
L 166.238198 -239.447182 
L 165.831974 -239.43497 
L 165.42575 -239.426194 
L 165.019525 -239.421433 
L 164.613301 -239.420595 
L 164.207077 -239.423748 
L 163.800853 -239.427739 
L 163.394629 -239.435255 
L 162.988405 -239.446938 
L 162.58218 -239.462814 
L 162.175956 -239.483376 
L 161.769726 -239.510315 
L 161.363502 -239.541368 
L 160.957278 -239.576062 
L 160.551054 -239.61449 
L 160.144829 -239.656235 
L 159.738605 -239.700128 
L 159.332381 -239.746 
L 158.926157 -239.793051 
L 158.519933 -239.840138 
L 158.113709 -239.886419 
L 157.707484 -239.928723 
L 157.30126 -239.967407 
L 156.895036 -240.003479 
L 156.488812 -240.037596 
L 156.082588 -240.066396 
L 155.676364 -240.097132 
L 155.270139 -240.118433 
L 154.863915 -240.151064 
L 154.457691 -240.176131 
L 154.051467 -240.191645 
L 153.645243 -240.195995 
L 153.239019 -240.188429 
L 152.832794 -240.168409 
L 152.42657 -240.135557 
L 152.020346 -240.089732 
L 151.614122 -240.031021 
L 151.207892 -239.959776 
L 150.801668 -239.876576 
L 150.395443 -239.782268 
L 149.989219 -239.677986 
L 149.582995 -239.565058 
L 149.176771 -239.445111 
L 148.770547 -239.329926 
L 148.364323 -239.230148 
L 147.958098 -239.121721 
L 147.551874 -239.01968 
L 147.14565 -238.92697 
L 146.739426 -238.845915 
L 146.333202 -238.786192 
L 145.926978 -238.739716 
L 145.520753 -238.7077 
L 145.114529 -238.686603 
L 144.708305 -238.67898 
L 144.302081 -238.696208 
L 143.895857 -238.730785 
L 143.489633 -238.783129 
L 143.083408 -238.853461 
L 142.677184 -238.941604 
L 142.27096 -239.047113 
L 141.864736 -239.169146 
L 141.458512 -239.306586 
L 141.052282 -239.457903 
L 140.646057 -239.621246 
L 140.239833 -239.794468 
L 139.833609 -239.975068 
L 139.427385 -240.16025 
L 139.021161 -240.346992 
L 138.614937 -240.545054 
L 138.208712 -240.736986 
L 137.802488 -240.921563 
L 137.396264 -241.096747 
L 136.99004 -241.26348 
L 136.583816 -241.466349 
L 136.177592 -241.646925 
L 135.771367 -241.803887 
L 135.365143 -241.927607 
L 134.958919 -242.013798 
L 134.552695 -242.05859 
L 134.146471 -242.058675 
L 133.740247 -242.011339 
L 133.334022 -241.914635 
L 132.927798 -241.767368 
L 132.521574 -241.56923 
L 132.11535 -241.320784 
L 131.709126 -241.023668 
L 131.302902 -240.68042 
L 130.896678 -240.294638 
L 130.490447 -239.870888 
L 130.084223 -239.414726 
L 129.677999 -238.932652 
L 129.271775 -238.431937 
L 128.865551 -237.967477 
L 128.459326 -237.510905 
L 128.053102 -237.06362 
L 127.646878 -236.665884 
L 127.240654 -236.326834 
L 126.83443 -236.005951 
L 126.428206 -235.755471 
L 126.021981 -235.555521 
L 125.615757 -235.408225 
L 125.209533 -235.320529 
L 124.803309 -235.301123 
L 124.397085 -235.364184 
L 123.990861 -235.508146 
L 123.584637 -235.728545 
L 123.178412 -236.020249 
L 122.772185 -236.390366 
L 122.365961 -236.835766 
L 121.959737 -237.35298 
L 121.553513 -237.937146 
L 121.147289 -238.582629 
L 120.741064 -239.284429 
L 120.33484 -240.028749 
L 119.928616 -240.80482 
L 119.522392 -241.600796 
L 119.116168 -242.432011 
L 118.709944 -243.277896 
L 118.303719 -244.121057 
L 117.897495 -244.996867 
L 117.491268 -245.877994 
L 117.085044 -246.67709 
L 116.67882 -247.411162 
L 116.272596 -248.042814 
L 115.866371 -248.555683 
L 115.460147 -248.942328 
L 115.053923 -249.17811 
L 114.647699 -249.23625 
L 114.241475 -249.114997 
L 113.835251 -248.808172 
L 113.429026 -248.3102 
L 113.022802 -247.61826 
L 112.616578 -246.73231 
L 112.210351 -245.65482 
L 111.804127 -244.390461 
L 111.397903 -242.945678 
L 110.991678 -241.328146 
L 110.585454 -239.546477 
L 110.17923 -237.62979 
L 109.773006 -235.598774 
L 109.366782 -233.448149 
L 108.960558 -231.169694 
L 108.554333 -228.772487 
L 108.148109 -226.261764 
L 107.741885 -223.641396 
L 107.335658 -220.937912 
L 106.929434 -218.165243 
L 106.52321 -215.33911 
L 106.116985 -212.476312 
L 105.710761 -209.601947 
L 105.304537 -206.75218 
L 104.898313 -204.010272 
L 104.492089 -201.277777 
L 104.085865 -198.613611 
L 103.67964 -195.991525 
L 103.273416 -193.415796 
L 102.867192 -190.888362 
L 102.460968 -188.408608 
L 102.054741 -185.973471 
L 101.648517 -183.577707 
L 101.242292 -181.213978 
L 100.836068 -178.873244 
L 100.429844 -176.544973 
L 100.02362 -174.217229 
L 99.617396 -171.875059 
L 99.211172 -169.503199 
L 98.804947 -167.088954 
L 98.398723 -164.616864 
L 97.992498 -162.071524 
L 97.586273 -159.438618 
L 97.180049 -156.70614 
L 96.773825 -153.868736 
L 96.367601 -150.926558 
L 95.961377 -147.892289 
L 95.555151 -144.776909 
L 95.148927 -141.609129 
L 94.742703 -138.435671 
L 94.336479 -135.317996 
L 93.930254 -132.327724 
L 93.52403 -129.542676 
L 93.117806 -127.038898 
L 92.71158 -124.881334 
L 92.305356 -123.114477 
L 91.899132 -121.757477 
L 91.492908 -120.797871 
L 91.086684 -120.175262 
L 90.68046 -119.800484 
L 90.274234 -119.562387 
L 89.86801 -119.334029 
L 89.461786 -118.982548 
L 89.055561 -118.379326 
L 88.649337 -117.435905 
L 88.243113 -116.044565 
L 87.836887 -114.112178 
L 87.430663 -111.600417 
L 87.024439 -108.591083 
L 86.618215 -105.159366 
L 86.211991 -101.417965 
L 85.805766 -97.547624 
L 85.399542 -93.769225 
L 84.993317 -90.321403 
L 84.587093 -87.427167 
L 84.180868 -85.262837 
L 83.774644 -83.925021 
L 83.36842 -83.574202 
L 82.962195 -84.144026 
L 82.555971 -85.278969 
L 82.149747 -86.710775 
L 81.743522 -88.113868 
L 81.337298 -89.187872 
L 80.931074 -89.66816 
L 80.524849 -89.346666 
L 80.118624 -88.086829 
L 79.7124 -85.834625 
L 79.306176 -82.62652 
L 78.899951 -78.592999 
L 78.493727 -73.954367 
L 78.087503 -69.004558 
L 77.681278 -64.080196 
L 77.275054 -59.516056 
L 76.868829 -55.594327 
L 76.462605 -52.496767 
L 76.056381 -50.278709 
L 75.650156 -48.868103 
L 75.243932 -48.101652 
L 74.837707 -47.763165 
L 74.431483 -47.655944 
L 74.025258 -47.637366 
L 73.619034 -47.63625 
z
" style="stroke: #d62728; stroke-opacity: 0.2"/>
    </defs>
    <g clip-path="url(#p070f3846a1)">
     <use xlink:href="#m7173b3e78f" x="0" y="281.634375" style="fill: #d62728; fill-opacity: 0.2; stroke: #d62728; stroke-opacity: 0.2"/>
    </g>
   </g>
   <g id="matplotlib.axis_1">
    <g id="xtick_1">
     <g id="line2d_1">
      <path d="M 73.619034 244.078125 
L 73.619034 22.318125 
" clip-path="url(#p070f3846a1)" style="fill: none; stroke: #b0b0b0; stroke-opacity: 0.3; stroke-width: 0.8; stroke-linecap: square"/>
     </g>
     <g id="line2d_2">
      <defs>
       <path id="mbb92d47731" d="M 0 0 
L 0 3.5 
" style="stroke: #000000; stroke-width: 0.8"/>
      </defs>
      <g>
       <use xlink:href="#mbb92d47731" x="73.619034" y="244.078125" style="stroke: #000000; stroke-width: 0.8"/>
      </g>
     </g>
     <g id="text_1">
      <text style="font: 10px 'DejaVu Sans', 'Bitstream Vera Sans', 'Computer Modern Sans Serif', 'Lucida Grande', 'Verdana', 'Geneva', 'Lucid', 'Arial', 'Helvetica', 'Avant Garde', sans-serif; text-anchor: middle" x="73.619034" y="258.676562" transform="rotate(-0 73.619034 258.676562)">0.0</text>
     </g>
    </g>
    <g id="xtick_2">
     <g id="line2d_3">
      <path d="M 154.78267 244.078125 
L 154.78267 22.318125 
" clip-path="url(#p070f3846a1)" style="fill: none; stroke: #b0b0b0; stroke-opacity: 0.3; stroke-width: 0.8; stroke-linecap: square"/>
     </g>
     <g id="line2d_4">
      <g>
       <use xlink:href="#mbb92d47731" x="154.78267" y="244.078125" style="stroke: #000000; stroke-width: 0.8"/>
      </g>
     </g>
     <g id="text_2">
      <text style="font: 10px 'DejaVu Sans', 'Bitstream Vera Sans', 'Computer Modern Sans Serif', 'Lucida Grande', 'Verdana', 'Geneva', 'Lucid', 'Arial', 'Helvetica', 'Avant Garde', sans-serif; text-anchor: middle" x="154.78267" y="258.676562" transform="rotate(-0 154.78267 258.676562)">0.2</text>
     </g>
    </g>
    <g id="xtick_3">
     <g id="line2d_5">
      <path d="M 235.946307 244.078125 
L 235.946307 22.318125 
" clip-path="url(#p070f3846a1)" style="fill: none; stroke: #b0b0b0; stroke-opacity: 0.3; stroke-width: 0.8; stroke-linecap: square"/>
     </g>
     <g id="line2d_6">
      <g>
       <use xlink:href="#mbb92d47731" x="235.946307" y="244.078125" style="stroke: #000000; stroke-width: 0.8"/>
      </g>
     </g>
     <g id="text_3">
      <text style="font: 10px 'DejaVu Sans', 'Bitstream Vera Sans', 'Computer Modern Sans Serif', 'Lucida Grande', 'Verdana', 'Geneva', 'Lucid', 'Arial', 'Helvetica', 'Avant Garde', sans-serif; text-anchor: middle" x="235.946307" y="258.676562" transform="rotate(-0 235.946307 258.676562)">0.4</text>
     </g>
    </g>
    <g id="xtick_4">
     <g id="line2d_7">
      <path d="M 317.109943 244.078125 
L 317.109943 22.318125 
" clip-path="url(#p070f3846a1)" style="fill: none; stroke: #b0b0b0; stroke-opacity: 0.3; stroke-width: 0.8; stroke-linecap: square"/>
     </g>
     <g id="line2d_8">
      <g>
       <use xlink:href="#mbb92d47731" x="317.109943" y="244.078125" style="stroke: #000000; stroke-width: 0.8"/>
      </g>
     </g>
     <g id="text_4">
      <text style="font: 10px 'DejaVu Sans', 'Bitstream Vera Sans', 'Computer Modern Sans Serif', 'Lucida Grande', 'Verdana', 'Geneva', 'Lucid', 'Arial', 'Helvetica', 'Avant Garde', sans-serif; text-anchor: middle" x="317.109943" y="258.676562" transform="rotate(-0 317.109943 258.676562)">0.6</text>
     </g>
    </g>
    <g id="xtick_5">
     <g id="line2d_9">
      <path d="M 398.27358 244.078125 
L 398.27358 22.318125 
" clip-path="url(#p070f3846a1)" style="fill: none; stroke: #b0b0b0; stroke-opacity: 0.3; stroke-width: 0.8; stroke-linecap: square"/>
     </g>
     <g id="line2d_10">
      <g>
       <use xlink:href="#mbb92d47731" x="398.27358" y="244.078125" style="stroke: #000000; stroke-width: 0.8"/>
      </g>
     </g>
     <g id="text_5">
      <text style="font: 10px 'DejaVu Sans', 'Bitstream Vera Sans', 'Computer Modern Sans Serif', 'Lucida Grande', 'Verdana', 'Geneva', 'Lucid', 'Arial', 'Helvetica', 'Avant Garde', sans-serif; text-anchor: middle" x="398.27358" y="258.676562" transform="rotate(-0 398.27358 258.676562)">0.8</text>
     </g>
    </g>
    <g id="xtick_6">
     <g id="line2d_11">
      <path d="M 479.437216 244.078125 
L 479.437216 22.318125 
" clip-path="url(#p070f3846a1)" style="fill: none; stroke: #b0b0b0; stroke-opacity: 0.3; stroke-width: 0.8; stroke-linecap: square"/>
     </g>
     <g id="line2d_12">
      <g>
       <use xlink:href="#mbb92d47731" x="479.437216" y="244.078125" style="stroke: #000000; stroke-width: 0.8"/>
      </g>
     </g>
     <g id="text_6">
      <text style="font: 10px 'DejaVu Sans', 'Bitstream Vera Sans', 'Computer Modern Sans Serif', 'Lucida Grande', 'Verdana', 'Geneva', 'Lucid', 'Arial', 'Helvetica', 'Avant Garde', sans-serif; text-anchor: middle" x="479.437216" y="258.676562" transform="rotate(-0 479.437216 258.676562)">1.0</text>
     </g>
    </g>
    <g id="text_7">
     <text style="font: 10px 'DejaVu Sans', 'Bitstream Vera Sans', 'Computer Modern Sans Serif', 'Lucida Grande', 'Verdana', 'Geneva', 'Lucid', 'Arial', 'Helvetica', 'Avant Garde', sans-serif; text-anchor: middle" x="276.528125" y="272.354687" transform="rotate(-0 276.528125 272.354687)">Tiempo (s)</text>
    </g>
   </g>
   <g id="matplotlib.axis_2">
    <g id="ytick_1">
     <g id="line2d_13">
      <path d="M 53.328125 233.998125 
L 499.728125 233.998125 
" clip-path="url(#p070f3846a1)" style="fill: none; stroke: #b0b0b0; stroke-opacity: 0.3; stroke-width: 0.8; stroke-linecap: square"/>
     </g>
     <g id="line2d_14">
      <defs>
       <path id="mc169d9e845" d="M 0 0 
L -3.5 0 
" style="stroke: #000000; stroke-width: 0.8"/>
      </defs>
      <g>
       <use xlink:href="#mc169d9e845" x="53.328125" y="233.998125" style="stroke: #000000; stroke-width: 0.8"/>
      </g>
     </g>
     <g id="text_8">
      <text style="font: 10px 'DejaVu Sans', 'Bitstream Vera Sans', 'Computer Modern Sans Serif', 'Lucida Grande', 'Verdana', 'Geneva', 'Lucid', 'Arial', 'Helvetica', 'Avant Garde', sans-serif; text-anchor: end" x="46.328125" y="237.797344" transform="rotate(-0 46.328125 237.797344)">0</text>
     </g>
    </g>
    <g id="ytick_2">
     <g id="line2d_15">
      <path d="M 53.328125 207.323258 
L 499.728125 207.323258 
" clip-path="url(#p070f3846a1)" style="fill: none; stroke: #b0b0b0; stroke-opacity: 0.3; stroke-width: 0.8; stroke-linecap: square"/>
     </g>
     <g id="line2d_16">
      <g>
       <use xlink:href="#mc169d9e845" x="53.328125" y="207.323258" style="stroke: #000000; stroke-width: 0.8"/>
      </g>
     </g>
     <g id="text_9">
      <text style="font: 10px 'DejaVu Sans', 'Bitstream Vera Sans', 'Computer Modern Sans Serif', 'Lucida Grande', 'Verdana', 'Geneva', 'Lucid', 'Arial', 'Helvetica', 'Avant Garde', sans-serif; text-anchor: end" x="46.328125" y="211.122477" transform="rotate(-0 46.328125 211.122477)">250</text>
     </g>
    </g>
    <g id="ytick_3">
     <g id="line2d_17">
      <path d="M 53.328125 180.648392 
L 499.728125 180.648392 
" clip-path="url(#p070f3846a1)" style="fill: none; stroke: #b0b0b0; stroke-opacity: 0.3; stroke-width: 0.8; stroke-linecap: square"/>
     </g>
     <g id="line2d_18">
      <g>
       <use xlink:href="#mc169d9e845" x="53.328125" y="180.648392" style="stroke: #000000; stroke-width: 0.8"/>
      </g>
     </g>
     <g id="text_10">
      <text style="font: 10px 'DejaVu Sans', 'Bitstream Vera Sans', 'Computer Modern Sans Serif', 'Lucida Grande', 'Verdana', 'Geneva', 'Lucid', 'Arial', 'Helvetica', 'Avant Garde', sans-serif; text-anchor: end" x="46.328125" y="184.44761" transform="rotate(-0 46.328125 184.44761)">500</text>
     </g>
    </g>
    <g id="ytick_4">
     <g id="line2d_19">
      <path d="M 53.328125 153.973525 
L 499.728125 153.973525 
" clip-path="url(#p070f3846a1)" style="fill: none; stroke: #b0b0b0; stroke-opacity: 0.3; stroke-width: 0.8; stroke-linecap: square"/>
     </g>
     <g id="line2d_20">
      <g>
       <use xlink:href="#mc169d9e845" x="53.328125" y="153.973525" style="stroke: #000000; stroke-width: 0.8"/>
      </g>
     </g>
     <g id="text_11">
      <text style="font: 10px 'DejaVu Sans', 'Bitstream Vera Sans', 'Computer Modern Sans Serif', 'Lucida Grande', 'Verdana', 'Geneva', 'Lucid', 'Arial', 'Helvetica', 'Avant Garde', sans-serif; text-anchor: end" x="46.328125" y="157.772744" transform="rotate(-0 46.328125 157.772744)">750</text>
     </g>
    </g>
    <g id="ytick_5">
     <g id="line2d_21">
      <path d="M 53.328125 127.298658 
L 499.728125 127.298658 
" clip-path="url(#p070f3846a1)" style="fill: none; stroke: #b0b0b0; stroke-opacity: 0.3; stroke-width: 0.8; stroke-linecap: square"/>
     </g>
     <g id="line2d_22">
      <g>
       <use xlink:href="#mc169d9e845" x="53.328125" y="127.298658" style="stroke: #000000; stroke-width: 0.8"/>
      </g>
     </g>
     <g id="text_12">
      <text style="font: 10px 'DejaVu Sans', 'Bitstream Vera Sans', 'Computer Modern Sans Serif', 'Lucida Grande', 'Verdana', 'Geneva', 'Lucid', 'Arial', 'Helvetica', 'Avant Garde', sans-serif; text-anchor: end" x="46.328125" y="131.097877" transform="rotate(-0 46.328125 131.097877)">1000</text>
     </g>
    </g>
    <g id="ytick_6">
     <g id="line2d_23">
      <path d="M 53.328125 100.623792 
L 499.728125 100.623792 
" clip-path="url(#p070f3846a1)" style="fill: none; stroke: #b0b0b0; stroke-opacity: 0.3; stroke-width: 0.8; stroke-linecap: square"/>
     </g>
     <g id="line2d_24">
      <g>
       <use xlink:href="#mc169d9e845" x="53.328125" y="100.623792" style="stroke: #000000; stroke-width: 0.8"/>
      </g>
     </g>
     <g id="text_13">
      <text style="font: 10px 'DejaVu Sans', 'Bitstream Vera Sans', 'Computer Modern Sans Serif', 'Lucida Grande', 'Verdana', 'Geneva', 'Lucid', 'Arial', 'Helvetica', 'Avant Garde', sans-serif; text-anchor: end" x="46.328125" y="104.42301" transform="rotate(-0 46.328125 104.42301)">1250</text>
     </g>
    </g>
    <g id="ytick_7">
     <g id="line2d_25">
      <path d="M 53.328125 73.948925 
L 499.728125 73.948925 
" clip-path="url(#p070f3846a1)" style="fill: none; stroke: #b0b0b0; stroke-opacity: 0.3; stroke-width: 0.8; stroke-linecap: square"/>
     </g>
     <g id="line2d_26">
      <g>
       <use xlink:href="#mc169d9e845" x="53.328125" y="73.948925" style="stroke: #000000; stroke-width: 0.8"/>
      </g>
     </g>
     <g id="text_14">
      <text style="font: 10px 'DejaVu Sans', 'Bitstream Vera Sans', 'Computer Modern Sans Serif', 'Lucida Grande', 'Verdana', 'Geneva', 'Lucid', 'Arial', 'Helvetica', 'Avant Garde', sans-serif; text-anchor: end" x="46.328125" y="77.748144" transform="rotate(-0 46.328125 77.748144)">1500</text>
     </g>
    </g>
    <g id="ytick_8">
     <g id="line2d_27">
      <path d="M 53.328125 47.274058 
L 499.728125 47.274058 
" clip-path="url(#p070f3846a1)" style="fill: none; stroke: #b0b0b0; stroke-opacity: 0.3; stroke-width: 0.8; stroke-linecap: square"/>
     </g>
     <g id="line2d_28">
      <g>
       <use xlink:href="#mc169d9e845" x="53.328125" y="47.274058" style="stroke: #000000; stroke-width: 0.8"/>
      </g>
     </g>
     <g id="text_15">
      <text style="font: 10px 'DejaVu Sans', 'Bitstream Vera Sans', 'Computer Modern Sans Serif', 'Lucida Grande', 'Verdana', 'Geneva', 'Lucid', 'Arial', 'Helvetica', 'Avant Garde', sans-serif; text-anchor: end" x="46.328125" y="51.073277" transform="rotate(-0 46.328125 51.073277)">1750</text>
     </g>
    </g>
    <g id="text_16">
     <text style="font: 10px 'DejaVu Sans', 'Bitstream Vera Sans', 'Computer Modern Sans Serif', 'Lucida Grande', 'Verdana', 'Geneva', 'Lucid', 'Arial', 'Helvetica', 'Avant Garde', sans-serif; text-anchor: middle" x="14.798438" y="133.198125" transform="rotate(-90 14.798438 133.198125)">Velocidad (rpm)</text>
    </g>
   </g>
   <g id="line2d_29">
    <path d="M 73.619034 233.998125 
L 74.431483 233.978518 
L 74.837707 233.871703 
L 75.243932 233.534375 
L 75.650156 232.772542 
L 76.056381 231.385428 
L 76.462605 229.220174 
L 77.275054 222.445709 
L 79.306176 200.544462 
L 79.7124 197.529131 
L 80.118624 195.404435 
L 80.524849 194.19333 
L 80.931074 193.833692 
L 81.337298 194.186753 
L 82.149747 196.168039 
L 82.962195 198.057614 
L 83.36842 198.300338 
L 83.774644 197.807345 
L 84.180868 196.481602 
L 84.587093 194.326073 
L 85.399542 187.997988 
L 87.024439 173.165479 
L 87.836887 167.681456 
L 88.649337 164.319713 
L 89.055561 163.35848 
L 89.461786 162.764274 
L 90.274234 162.202715 
L 90.68046 161.973243 
L 91.086684 161.60634 
L 91.492908 160.990799 
L 91.899132 160.040624 
L 92.305356 158.701613 
L 93.117806 154.813881 
L 93.930254 149.546819 
L 98.398723 117.303646 
L 100.836068 103.140867 
L 103.273416 88.656206 
L 105.710761 72.651729 
L 108.554333 54.22109 
L 109.773006 47.489854 
L 110.991678 41.913309 
L 111.804127 38.948869 
L 112.616578 36.643903 
L 113.429026 35.025254 
L 114.241475 34.093457 
L 114.647699 33.876932 
L 115.053923 33.81819 
L 115.460147 33.908465 
L 116.272596 34.492173 
L 117.085044 35.525955 
L 118.303719 37.658355 
L 121.553513 43.86495 
L 122.365961 44.992094 
L 123.178412 45.822075 
L 123.990861 46.332232 
L 124.803309 46.522968 
L 125.615757 46.415422 
L 126.428206 46.047861 
L 127.646878 45.123254 
L 129.677999 43.094583 
L 131.302902 41.561755 
L 132.521574 40.702129 
L 133.740247 40.18279 
L 134.552695 40.036156 
L 135.771367 40.094208 
L 136.99004 40.425612 
L 138.614937 41.131337 
L 141.458512 42.432323 
L 143.083408 42.902181 
L 144.302081 43.057085 
L 145.926978 43.010586 
L 147.958098 42.657366 
L 152.42657 41.72919 
L 154.457691 41.585148 
L 156.488812 41.654206 
L 165.42575 42.29478 
L 169.894215 42.088493 
L 174.362687 41.95379 
L 180.049826 42.063485 
L 186.549412 42.111182 
L 200.76727 42.071365 
L 223.922059 42.070349 
L 479.437216 42.067341 
L 479.437216 42.067341 
" clip-path="url(#p070f3846a1)" style="fill: none; stroke: #d62728; stroke-width: 2; stroke-linecap: square"/>
   </g>
   <g id="line2d_30">
    <path d="M 73.619034 233.998125 
L 74.431483 233.97851 
L 74.837707 233.871646 
L 75.243932 233.534162 
L 75.650156 232.771981 
L 76.056381 231.384226 
L 76.462605 229.217974 
L 77.275054 222.440383 
L 79.306176 200.528285 
L 79.7124 197.510971 
L 80.118624 195.384445 
L 80.524849 194.17167 
L 80.931074 193.810524 
L 81.337298 194.16224 
L 82.149747 196.141279 
L 82.962195 198.029213 
L 83.36842 198.27129 
L 83.774644 197.777704 
L 84.180868 196.451349 
L 84.587093 194.295126 
L 85.399542 187.965058 
L 87.430663 170.121021 
L 88.243113 165.689268 
L 88.649337 164.264547 
L 89.055561 163.298957 
L 89.461786 162.700244 
L 90.274234 162.129854 
L 90.68046 161.896371 
L 91.086684 161.525918 
L 91.492908 160.907421 
L 91.899132 159.954895 
L 92.305356 158.614151 
L 93.117806 154.724348 
L 93.930254 149.45586 
L 98.398723 117.162443 
L 100.836068 102.952476 
L 103.273416 88.439109 
L 105.710761 72.427676 
L 108.148109 56.465139 
L 109.773006 47.308431 
L 110.991678 41.760267 
L 111.804127 38.818152 
L 112.616578 36.537464 
L 113.429026 34.944135 
L 114.241475 34.037646 
L 114.647699 33.833364 
L 115.053923 33.786436 
L 115.460147 33.887912 
L 116.272596 34.491665 
L 117.085044 35.541689 
L 118.303719 37.690149 
L 121.553513 43.8913 
L 122.365961 45.008922 
L 123.178412 45.827767 
L 123.990861 46.326046 
L 124.803309 46.505046 
L 125.615757 46.38665 
L 126.428206 46.009776 
L 127.646878 45.074945 
L 129.677999 43.04083 
L 131.302902 41.513082 
L 132.521574 40.66101 
L 133.740247 40.15071 
L 134.552695 40.010172 
L 135.771367 40.076494 
L 136.99004 40.414241 
L 138.614937 41.12442 
L 141.458512 42.42271 
L 143.083408 42.88715 
L 144.302081 43.037522 
L 145.926978 42.985709 
L 147.958098 42.628477 
L 152.42657 41.702971 
L 154.457691 41.562641 
L 156.895036 41.668286 
L 164.613301 42.280466 
L 168.269319 42.154633 
L 173.956463 41.933602 
L 179.237377 42.021402 
L 185.736964 42.095813 
L 204.829512 42.058132 
L 325.071937 42.045498 
L 479.437216 42.045498 
L 479.437216 42.045498 
" clip-path="url(#p070f3846a1)" style="fill: none; stroke-dasharray: 4.44,1.92; stroke-dashoffset: 0; stroke: #808080; stroke-width: 1.2"/>
   </g>
   <g id="patch_3">
    <path d="M 53.328125 244.078125 
L 53.328125 22.318125 
" style="fill: none; stroke: #000000; stroke-width: 0.8; stroke-linejoin: miter; stroke-linecap: square"/>
   </g>
   <g id="patch_4">
    <path d="M 499.728125 244.078125 
L 499.728125 22.318125 
" style="fill: none; stroke: #000000; stroke-width: 0.8; stroke-linejoin: miter; stroke-linecap: square"/>
   </g>
   <g id="patch_5">
    <path d="M 53.328125 244.078125 
L 499.728125 244.078125 
" style="fill: none; stroke: #000000; stroke-width: 0.8; stroke-linejoin: miter; stroke-linecap: square"/>
   </g>
   <g id="patch_6">
    <path d="M 53.328125 22.318125 
L 499.728125 22.318125 
" style="fill: none; stroke: #000000; stroke-width: 0.8; stroke-linejoin: miter; stroke-linecap: square"/>
   </g>
   <g id="text_17">
    <text style="font: 12px 'DejaVu Sans', 'Bitstream Vera Sans', 'Computer Modern Sans Serif', 'Lucida Grande', 'Verdana', 'Geneva', 'Lucid', 'Arial', 'Helvetica', 'Avant Garde', sans-serif; text-anchor: middle" x="276.528125" y="16.318125" transform="rotate(-0 276.528125 16.318125)">Velocidad - HYB</text>
   </g>
   <g id="legend_1">
    <g id="patch_7">
     <path d="M 378.49375 239.078125 
L 492.728125 239.078125 
Q 494.728125 239.078125 494.728125 237.078125 
L 494.728125 194.04375 
Q 494.728125 192.04375 492.728125 192.04375 
L 378.49375 192.04375 
Q 376.49375 192.04375 376.49375 194.04375 
L 376.49375 237.078125 
Q 376.49375 239.078125 378.49375 239.078125 
z
" style="fill: #ffffff; opacity: 0.8; stroke: #cccccc; stroke-linejoin: miter"/>
    </g>
    <g id="patch_8">
     <path d="M 380.49375 203.642187 
L 400.49375 203.642187 
L 400.49375 196.642187 
L 380.49375 196.642187 
z
" style="fill: #d62728; fill-opacity: 0.2; stroke: #d62728; stroke-opacity: 0.2; stroke-linejoin: miter"/>
    </g>
    <g id="text_18">
     <text style="font: 10px 'DejaVu Sans', 'Bitstream Vera Sans', 'Computer Modern Sans Serif', 'Lucida Grande', 'Verdana', 'Geneva', 'Lucid', 'Arial', 'Helvetica', 'Avant Garde', sans-serif; text-anchor: start" x="408.49375" y="203.642187" transform="rotate(-0 408.49375 203.642187)">Rango 95% runs</text>
    </g>
    <g id="line2d_31">
     <path d="M 380.49375 214.820312 
L 390.49375 214.820312 
L 400.49375 214.820312 
" style="fill: none; stroke: #d62728; stroke-width: 2; stroke-linecap: square"/>
    </g>
    <g id="text_19">
     <text style="font: 10px 'DejaVu Sans', 'Bitstream Vera Sans', 'Computer Modern Sans Serif', 'Lucida Grande', 'Verdana', 'Geneva', 'Lucid', 'Arial', 'Helvetica', 'Avant Garde', sans-serif; text-anchor: start" x="408.49375" y="218.320312" transform="rotate(-0 408.49375 218.320312)">Mejor run</text>
    </g>
    <g id="line2d_32">
     <path d="M 380.49375 229.498437 
L 390.49375 229.498437 
L 400.49375 229.498437 
" style="fill: none; stroke-dasharray: 4.44,1.92; stroke-dashoffset: 0; stroke: #808080; stroke-width: 1.2"/>
    </g>
    <g id="text_20">
     <text style="font: 10px 'DejaVu Sans', 'Bitstream Vera Sans', 'Computer Modern Sans Serif', 'Lucida Grande', 'Verdana', 'Geneva', 'Lucid', 'Arial', 'Helvetica', 'Avant Garde', sans-serif; text-anchor: start" x="408.49375" y="232.998437" transform="rotate(-0 408.49375 232.998437)">Medida</text>
    </g>
   </g>
  </g>
 </g>
 <defs>
  <clipPath id="p070f3846a1">
   <rect x="53.328125" y="22.318125" width="446.4" height="221.76"/>
  </clipPath>
 </defs>
</svg>
