<?xml version="1.0" encoding="utf-8" standalone="no"?>
<!DOCTYPE svg PUBLIC "-//W3C//DTD SVG 1.1//EN"
  "http://www.w3.org/Graphics/SVG/1.1/DTD/svg11.dtd">
<svg xmlns:xlink="http://www.w3.org/1999/xlink" width="502.582812pt" height="281.634375pt" viewBox="0 0 502.582812 281.634375" xmlns="http://www.w3.org/2000/svg" version="1.1">
 <metadata>
  <rdf:RDF xmlns:dc="http://purl.org/dc/elements/1.1/" xmlns:cc="http://creativecommons.org/ns#" xmlns:rdf="http://www.w3.org/1999/02/22-rdf-syntax-ns#">
   <cc:Work>
    <dc:type rdf:resource="http://purl.org/dc/dcmitype/StillImage"/>
    <dc:date>2025-11-28T08:07:55.086501</dc:date>
    <dc:format>image/svg+xml</dc:format>
    <dc:creator>
     <cc:Agent>
      <dc:title>Matplotlib v3.9.2, https://matplotlib.org/</dc:title>
     </cc:Agent>
    </dc:creator>
   </cc:Work>
  </rdf:RDF>
 </metadata>
 <defs>
  <style type="text/css">*{stroke-linejoin: round; stroke-linecap: butt}</style>
 </defs>
 <g id="figure_1">
  <g id="patch_1">
   <path d="M 0 281.634375 
L 502.582812 281.634375 
L 502.582812 0 
L 0 0 
z
" style="fill: #ffffff"/>
  </g>
  <g id="axes_1">
   <g id="patch_2">
    <path d="M 48.982813 244.078125 
L 495.382812 244.078125 
L 495.382812 22.318125 
L 48.982813 22.318125 
z
" style="fill: #ffffff"/>
   </g>
   <g id="PolyCollection_1">
    <defs>
     <path id="m629f671b92" d="M 69.273722 -93.255332 
L 69.273722 -93.255332 
L 69.679946 -93.351855 
L 70.08617 -94.575269 
L 70.492395 -99.053514 
L 70.898619 -108.925745 
L 71.304844 -125.337604 
L 71.711068 -147.82056 
L 72.117292 -174.053484 
L 72.523517 -200.562792 
L 72.929741 -223.380192 
L 73.335965 -238.544408 
L 73.74219 -244.119021 
L 74.148415 -239.121083 
L 74.554639 -224.65614 
L 74.960863 -202.633695 
L 75.367087 -175.624482 
L 75.773312 -146.457903 
L 76.179536 -117.507208 
L 76.585761 -90.02141 
L 76.991985 -67.958069 
L 77.398209 -53.336498 
L 77.804434 -47.63625 
L 78.210658 -51.598194 
L 78.616883 -64.454833 
L 79.023108 -85.229548 
L 79.429332 -111.491057 
L 79.835556 -140.071544 
L 80.24178 -167.504592 
L 80.648005 -190.628816 
L 81.054229 -207.097705 
L 81.460453 -215.505784 
L 81.866678 -215.795136 
L 82.272902 -208.893562 
L 82.679127 -196.748372 
L 83.085351 -181.154024 
L 83.491575 -162.93966 
L 83.897801 -144.588836 
L 84.304025 -127.623836 
L 84.710249 -113.22014 
L 85.116473 -102.375172 
L 85.522697 -95.746634 
L 85.928921 -93.306928 
L 86.335147 -95.301599 
L 86.741371 -101.463326 
L 87.147595 -111.135276 
L 87.55382 -123.365073 
L 87.960044 -136.995481 
L 88.366268 -150.811371 
L 88.772494 -163.692056 
L 89.178718 -174.741447 
L 89.584942 -183.374153 
L 89.991166 -189.340902 
L 90.39739 -192.699727 
L 90.803614 -193.736354 
L 91.209839 -192.890275 
L 91.616064 -190.566987 
L 92.022288 -187.335232 
L 92.428513 -183.722056 
L 92.834737 -180.054158 
L 93.240961 -176.634499 
L 93.647185 -173.58707 
L 94.053411 -171.006791 
L 94.459635 -168.975245 
L 94.865859 -167.485757 
L 95.272083 -166.431262 
L 95.678307 -165.85749 
L 96.084532 -165.774151 
L 96.490756 -166.152455 
L 96.89698 -166.954468 
L 97.303204 -168.132394 
L 97.709428 -169.571872 
L 98.115655 -171.21298 
L 98.52188 -173.011864 
L 98.928104 -174.831139 
L 99.334328 -176.543373 
L 99.740552 -177.980181 
L 100.146776 -179.22854 
L 100.553 -180.241925 
L 100.959225 -180.900386 
L 101.365449 -181.169776 
L 101.771673 -181.004973 
L 102.177897 -180.375726 
L 102.584121 -179.266966 
L 102.990345 -177.65271 
L 103.396573 -175.55539 
L 103.802797 -172.98593 
L 104.209021 -170.022001 
L 104.615245 -166.590087 
L 105.021469 -162.789315 
L 105.427693 -158.702801 
L 105.833918 -154.342962 
L 106.240142 -149.727732 
L 106.646366 -144.862193 
L 107.05259 -139.755297 
L 107.458814 -134.424675 
L 107.865038 -128.900267 
L 108.271266 -123.214271 
L 108.67749 -117.402174 
L 109.083714 -111.566866 
L 109.489938 -105.800203 
L 109.896162 -100.231055 
L 110.302386 -94.887021 
L 110.708611 -89.845718 
L 111.114835 -85.11197 
L 111.521059 -80.724226 
L 111.927283 -76.752072 
L 112.333507 -73.304987 
L 112.739731 -70.410135 
L 113.145956 -68.08306 
L 113.552183 -66.32871 
L 113.958407 -65.142596 
L 114.364631 -64.511792 
L 114.770855 -64.415965 
L 115.177079 -64.82811 
L 115.583304 -65.708183 
L 115.989528 -67.000867 
L 116.395752 -68.690817 
L 116.801976 -70.7308 
L 117.2082 -73.07 
L 117.614424 -75.68217 
L 118.020648 -78.251996 
L 118.426873 -80.72332 
L 118.8331 -83.254047 
L 119.239324 -85.753699 
L 119.645548 -88.269357 
L 120.051772 -90.739589 
L 120.457997 -93.120766 
L 120.864221 -95.377312 
L 121.270445 -97.487526 
L 121.676669 -99.420318 
L 122.082893 -101.146694 
L 122.489117 -102.652773 
L 122.895341 -103.925881 
L 123.301566 -104.957645 
L 123.70779 -105.744216 
L 124.114014 -106.2861 
L 124.520238 -106.603749 
L 124.926462 -106.695922 
L 125.332686 -106.569743 
L 125.738911 -106.196733 
L 126.145135 -105.612891 
L 126.551365 -104.904257 
L 126.957589 -104.034094 
L 127.363813 -102.983161 
L 127.770038 -101.748931 
L 128.176262 -100.44048 
L 128.582486 -99.075451 
L 128.98871 -97.672015 
L 129.394934 -96.34008 
L 129.801158 -95.022296 
L 130.207382 -93.64588 
L 130.613607 -92.327307 
L 131.019831 -91.118635 
L 131.426055 -90.034787 
L 131.832279 -89.087694 
L 132.238503 -88.286239 
L 132.644727 -87.636332 
L 133.050952 -87.140902 
L 133.457176 -86.800039 
L 133.8634 -86.611154 
L 134.269624 -86.569159 
L 134.675848 -86.666668 
L 135.082072 -86.894259 
L 135.488297 -87.227719 
L 135.894521 -87.658729 
L 136.300745 -88.000504 
L 136.706969 -88.453682 
L 137.113199 -88.922139 
L 137.519423 -89.44328 
L 137.925648 -89.979871 
L 138.331872 -90.555996 
L 138.738096 -91.16986 
L 139.14432 -91.790752 
L 139.550544 -92.402458 
L 139.956768 -92.996276 
L 140.362993 -93.546093 
L 140.769217 -94.066123 
L 141.175441 -94.551265 
L 141.581665 -94.99538 
L 141.987889 -95.393371 
L 142.394113 -95.741227 
L 142.800338 -96.036013 
L 143.206562 -96.275869 
L 143.612786 -96.440251 
L 144.01901 -96.526627 
L 144.425234 -96.558655 
L 144.831458 -96.568544 
L 145.237683 -96.535608 
L 145.643907 -96.455972 
L 146.050131 -96.325588 
L 146.456355 -96.148318 
L 146.862579 -95.930127 
L 147.268809 -95.660673 
L 147.675034 -95.373547 
L 148.081258 -95.074723 
L 148.487482 -94.747169 
L 148.893706 -94.415919 
L 149.29993 -94.096707 
L 149.706154 -93.81306 
L 150.112379 -93.540098 
L 150.518603 -93.286214 
L 150.924827 -93.054662 
L 151.331051 -92.84812 
L 151.737275 -92.668662 
L 152.143499 -92.517219 
L 152.549724 -92.396348 
L 152.955948 -92.302871 
L 153.362172 -92.234519 
L 153.768396 -92.190782 
L 154.17462 -92.159607 
L 154.580844 -92.168073 
L 154.987069 -92.22401 
L 155.393293 -92.255041 
L 155.799517 -92.307295 
L 156.205741 -92.378941 
L 156.611965 -92.467488 
L 157.018189 -92.570529 
L 157.424414 -92.686113 
L 157.830644 -92.820912 
L 158.236868 -92.96218 
L 158.643092 -93.107134 
L 159.049316 -93.253114 
L 159.45554 -93.397579 
L 159.861765 -93.538177 
L 160.267989 -93.66844 
L 160.674213 -93.790539 
L 161.080437 -93.90289 
L 161.486661 -93.998429 
L 161.892885 -94.076645 
L 162.29911 -94.142296 
L 162.705334 -94.195001 
L 163.111558 -94.234635 
L 163.517782 -94.261295 
L 163.924006 -94.282731 
L 164.33023 -94.29664 
L 164.736455 -94.298287 
L 165.142679 -94.28836 
L 165.548903 -94.267711 
L 165.955127 -94.237311 
L 166.361351 -94.198252 
L 166.767575 -94.150224 
L 167.1738 -94.095271 
L 167.580024 -94.035813 
L 167.986248 -93.973132 
L 168.392478 -93.908486 
L 168.798702 -93.839203 
L 169.204926 -93.771658 
L 169.611151 -93.706994 
L 170.017375 -93.646155 
L 170.423599 -93.589957 
L 170.829823 -93.538431 
L 171.236047 -93.48856 
L 171.642271 -93.441406 
L 172.048496 -93.400291 
L 172.45472 -93.365558 
L 172.860944 -93.337423 
L 173.267168 -93.315997 
L 173.673392 -93.305036 
L 174.079616 -93.299353 
L 174.485841 -93.297256 
L 174.892065 -93.3006 
L 175.298289 -93.310698 
L 175.704513 -93.326622 
L 176.110737 -93.346867 
L 176.516961 -93.370829 
L 176.923186 -93.39788 
L 177.32941 -93.427389 
L 177.735634 -93.458707 
L 178.141858 -93.491198 
L 178.548082 -93.524253 
L 178.954306 -93.557271 
L 179.360531 -93.58868 
L 179.766755 -93.61649 
L 180.172979 -93.642606 
L 180.579203 -93.666685 
L 180.985427 -93.688431 
L 181.391651 -93.70761 
L 181.797876 -93.724054 
L 182.2041 -93.737644 
L 182.610324 -93.74832 
L 183.016548 -93.757321 
L 183.422772 -93.766067 
L 183.829008 -93.771815 
L 184.235233 -93.774643 
L 184.641457 -93.77467 
L 185.047681 -93.772066 
L 185.453905 -93.76703 
L 185.860129 -93.759788 
L 186.266353 -93.750596 
L 186.672578 -93.73972 
L 187.078802 -93.727436 
L 187.485026 -93.71404 
L 187.89125 -93.699825 
L 188.297474 -93.685076 
L 188.703698 -93.670076 
L 189.109923 -93.655087 
L 189.516147 -93.640362 
L 189.922371 -93.626143 
L 190.328595 -93.612635 
L 190.734819 -93.600028 
L 191.141043 -93.588478 
L 191.547268 -93.578128 
L 191.953492 -93.56908 
L 192.359716 -93.561394 
L 192.76594 -93.555139 
L 193.172164 -93.550336 
L 193.578388 -93.546974 
L 193.984613 -93.545018 
L 194.390837 -93.545232 
L 194.797061 -93.547453 
L 195.203285 -93.550681 
L 195.609509 -93.554811 
L 196.015733 -93.559714 
L 196.421958 -93.565261 
L 196.828182 -93.571318 
L 197.234406 -93.577742 
L 197.64063 -93.584414 
L 198.046854 -93.591197 
L 198.453078 -93.597978 
L 198.859303 -93.60464 
L 199.265527 -93.611077 
L 199.671751 -93.617192 
L 200.077975 -93.622893 
L 200.484199 -93.628112 
L 200.890423 -93.63279 
L 201.296647 -93.636879 
L 201.702872 -93.641201 
L 202.109096 -93.645174 
L 202.51532 -93.648471 
L 202.921544 -93.65107 
L 203.327768 -93.652983 
L 203.733992 -93.654206 
L 204.140217 -93.654762 
L 204.546453 -93.654683 
L 204.952677 -93.654009 
L 205.358901 -93.652777 
L 205.765125 -93.651047 
L 206.17135 -93.648882 
L 206.577574 -93.646335 
L 206.983798 -93.64348 
L 207.390022 -93.640382 
L 207.796246 -93.637109 
L 208.20247 -93.633712 
L 208.608695 -93.630261 
L 209.014919 -93.626825 
L 209.421143 -93.623453 
L 209.827367 -93.620208 
L 210.233591 -93.617134 
L 210.639815 -93.614273 
L 211.04604 -93.611653 
L 211.452264 -93.609313 
L 211.858488 -93.60728 
L 212.264712 -93.605561 
L 212.670936 -93.604173 
L 213.07716 -93.603119 
L 213.483385 -93.602393 
L 213.889609 -93.601988 
L 214.295833 -93.601892 
L 214.702057 -93.602091 
L 215.108281 -93.602558 
L 215.514505 -93.60327 
L 215.920729 -93.604213 
L 216.326954 -93.605358 
L 216.733178 -93.606668 
L 217.139402 -93.608117 
L 217.545626 -93.609666 
L 217.95185 -93.611282 
L 218.358074 -93.612932 
L 218.764299 -93.614586 
L 219.170523 -93.616221 
L 219.576747 -93.617802 
L 219.982971 -93.619303 
L 220.389195 -93.620709 
L 220.795419 -93.622013 
L 221.201644 -93.623185 
L 221.607868 -93.624224 
L 222.014092 -93.625122 
L 222.420316 -93.625863 
L 222.82654 -93.626452 
L 223.232764 -93.626875 
L 223.638989 -93.627146 
L 224.045213 -93.62727 
L 224.451437 -93.627242 
L 224.857661 -93.627083 
L 225.263897 -93.626795 
L 225.670122 -93.626394 
L 226.076346 -93.625886 
L 226.48257 -93.625286 
L 226.888794 -93.624618 
L 227.295018 -93.623892 
L 227.701242 -93.623133 
L 228.107467 -93.62235 
L 228.513691 -93.621554 
L 228.919915 -93.620762 
L 229.326139 -93.619984 
L 229.732363 -93.61924 
L 230.138587 -93.618546 
L 230.544811 -93.617894 
L 230.951036 -93.617302 
L 231.35726 -93.616779 
L 231.763484 -93.616321 
L 232.169708 -93.615945 
L 232.575932 -93.615631 
L 232.982156 -93.615387 
L 233.388381 -93.615226 
L 233.794605 -93.61514 
L 234.200829 -93.615116 
L 234.607053 -93.615161 
L 235.013277 -93.615267 
L 235.419501 -93.61543 
L 235.825726 -93.61565 
L 236.23195 -93.615908 
L 236.638174 -93.616207 
L 237.044398 -93.616542 
L 237.450622 -93.616901 
L 237.856846 -93.617273 
L 238.263071 -93.617654 
L 238.669295 -93.61803 
L 239.075519 -93.618394 
L 239.481743 -93.618752 
L 239.887967 -93.619092 
L 240.294191 -93.619413 
L 240.700416 -93.619712 
L 241.10664 -93.619973 
L 241.512864 -93.620205 
L 241.919088 -93.620409 
L 242.325312 -93.620584 
L 242.731536 -93.62072 
L 243.137761 -93.620816 
L 243.543985 -93.620875 
L 243.950209 -93.620905 
L 244.356433 -93.620901 
L 244.762657 -93.62086 
L 245.168881 -93.620791 
L 245.575106 -93.620699 
L 245.98133 -93.620585 
L 246.387566 -93.620454 
L 246.79379 -93.620313 
L 247.200014 -93.62016 
L 247.606238 -93.619998 
L 248.012463 -93.61983 
L 248.418687 -93.619654 
L 248.824911 -93.619476 
L 249.231135 -93.619306 
L 249.637359 -93.619135 
L 250.043583 -93.618977 
L 250.449808 -93.618827 
L 250.856032 -93.618693 
L 251.262256 -93.618563 
L 251.66848 -93.618452 
L 252.074704 -93.618358 
L 252.480928 -93.618279 
L 252.887153 -93.618223 
L 253.293377 -93.618175 
L 253.699601 -93.618154 
L 254.105825 -93.618149 
L 254.512049 -93.618164 
L 254.918273 -93.618198 
L 255.324498 -93.61824 
L 255.730722 -93.618293 
L 256.136946 -93.618361 
L 256.54317 -93.618431 
L 256.949394 -93.618499 
L 257.355618 -93.618575 
L 257.761843 -93.618653 
L 258.168067 -93.618737 
L 258.574291 -93.618824 
L 258.980515 -93.618905 
L 259.386739 -93.618982 
L 259.792963 -93.619052 
L 260.199188 -93.619121 
L 260.605412 -93.619191 
L 261.011636 -93.619253 
L 261.41786 -93.619303 
L 261.824084 -93.619342 
L 262.230308 -93.619366 
L 262.636533 -93.619386 
L 263.042757 -93.619398 
L 263.448981 -93.619405 
L 263.855205 -93.619403 
L 264.261429 -93.619398 
L 264.667653 -93.619383 
L 265.073878 -93.619364 
L 265.480102 -93.619336 
L 265.886326 -93.619304 
L 266.29255 -93.619267 
L 266.698774 -93.619229 
L 267.10501 -93.619188 
L 267.511235 -93.619149 
L 267.917459 -93.619108 
L 268.323683 -93.61906 
L 268.729907 -93.619021 
L 269.136131 -93.618987 
L 269.542355 -93.618954 
L 269.94858 -93.618928 
L 270.354804 -93.618901 
L 270.761028 -93.618869 
L 271.167252 -93.618843 
L 271.573476 -93.618817 
L 271.9797 -93.618797 
L 272.385925 -93.618779 
L 272.792149 -93.618769 
L 273.198373 -93.618771 
L 273.604597 -93.618781 
L 274.010821 -93.61879 
L 274.417045 -93.618802 
L 274.82327 -93.618812 
L 275.229494 -93.61882 
L 275.635718 -93.618833 
L 276.041942 -93.618849 
L 276.448166 -93.618872 
L 276.85439 -93.618893 
L 277.260615 -93.618916 
L 277.666839 -93.61894 
L 278.073063 -93.618961 
L 278.479287 -93.618975 
L 278.885511 -93.618985 
L 279.291735 -93.618994 
L 279.69796 -93.618999 
L 280.104184 -93.619007 
L 280.510408 -93.619014 
L 280.916632 -93.619022 
L 281.322856 -93.619034 
L 281.72908 -93.619041 
L 282.135305 -93.619046 
L 282.541529 -93.61905 
L 282.947753 -93.619053 
L 283.353977 -93.619051 
L 283.760201 -93.619052 
L 284.166425 -93.619057 
L 284.57265 -93.61906 
L 284.978874 -93.619064 
L 285.385098 -93.619068 
L 285.791322 -93.61907 
L 286.197546 -93.619072 
L 286.60377 -93.619074 
L 287.009994 -93.619081 
L 287.416219 -93.619082 
L 287.822443 -93.619074 
L 288.228691 -93.619072 
L 288.634915 -93.619074 
L 289.041139 -93.619071 
L 289.447364 -93.619076 
L 289.853588 -93.619076 
L 290.259812 -93.619078 
L 290.666036 -93.619076 
L 291.07226 -93.619074 
L 291.478484 -93.619079 
L 291.884709 -93.619079 
L 292.290933 -93.619076 
L 292.697157 -93.619083 
L 293.103381 -93.619089 
L 293.509605 -93.619093 
L 293.915829 -93.6191 
L 294.322054 -93.619108 
L 294.728278 -93.619107 
L 295.134502 -93.619105 
L 295.540726 -93.619099 
L 295.94695 -93.619097 
L 296.353174 -93.619093 
L 296.759399 -93.619095 
L 297.165623 -93.619095 
L 297.571847 -93.619092 
L 297.978071 -93.619087 
L 298.384295 -93.619092 
L 298.790519 -93.619098 
L 299.196744 -93.619101 
L 299.602968 -93.619096 
L 300.009192 -93.619098 
L 300.415416 -93.619095 
L 300.82164 -93.619099 
L 301.227864 -93.6191 
L 301.634089 -93.619101 
L 302.040313 -93.619102 
L 302.446537 -93.619102 
L 302.852761 -93.619095 
L 303.258985 -93.619089 
L 303.665209 -93.619086 
L 304.071434 -93.619086 
L 304.477658 -93.619094 
L 304.883882 -93.619099 
L 305.290106 -93.619108 
L 305.69633 -93.619113 
L 306.102554 -93.619112 
L 306.508779 -93.619104 
L 306.915003 -93.619098 
L 307.321227 -93.619094 
L 307.727451 -93.619086 
L 308.133675 -93.61908 
L 308.539899 -93.619076 
L 308.946124 -93.619075 
L 309.352348 -93.619077 
L 309.758572 -93.61908 
L 310.164796 -93.619081 
L 310.57102 -93.619089 
L 310.977244 -93.619092 
L 311.383469 -93.619097 
L 311.789693 -93.619099 
L 312.195917 -93.619099 
L 312.602141 -93.619102 
L 313.008365 -93.619104 
L 313.414589 -93.619105 
L 313.820814 -93.619098 
L 314.227038 -93.619091 
L 314.633262 -93.619083 
L 315.039486 -93.619077 
L 315.44571 -93.619071 
L 315.851934 -93.619069 
L 316.258158 -93.619071 
L 316.664383 -93.619072 
L 317.070607 -93.619077 
L 317.476831 -93.61908 
L 317.883055 -93.619086 
L 318.289279 -93.619096 
L 318.695503 -93.619099 
L 319.101728 -93.6191 
L 319.507952 -93.619105 
L 319.914176 -93.619101 
L 320.3204 -93.619102 
L 320.726624 -93.619103 
L 321.132848 -93.619107 
L 321.539073 -93.619108 
L 321.945297 -93.619107 
L 322.351521 -93.619103 
L 322.757745 -93.619099 
L 323.163969 -93.619093 
L 323.570193 -93.619087 
L 323.976418 -93.619085 
L 324.382642 -93.619084 
L 324.788866 -93.619082 
L 325.19509 -93.619083 
L 325.601314 -93.619079 
L 326.007538 -93.619079 
L 326.413763 -93.619081 
L 326.819987 -93.619085 
L 327.226211 -93.619089 
L 327.632435 -93.6191 
L 328.038659 -93.619102 
L 328.444883 -93.619101 
L 328.851108 -93.619101 
L 329.257332 -93.619098 
L 329.66358 -93.6191 
L 330.069804 -93.619098 
L 330.476028 -93.619092 
L 330.882253 -93.619095 
L 331.288477 -93.619092 
L 331.694701 -93.619101 
L 332.100925 -93.619114 
L 332.507149 -93.619117 
L 332.913373 -93.619116 
L 333.319598 -93.619115 
L 333.725822 -93.619114 
L 334.132046 -93.619118 
L 334.53827 -93.619113 
L 334.944494 -93.619104 
L 335.350718 -93.619095 
L 335.756943 -93.619089 
L 336.163167 -93.619083 
L 336.569391 -93.619077 
L 336.975615 -93.61908 
L 337.381839 -93.619086 
L 337.788063 -93.619089 
L 338.194288 -93.619096 
L 338.600512 -93.619102 
L 339.006736 -93.619101 
L 339.41296 -93.619103 
L 339.819184 -93.619101 
L 340.225408 -93.619096 
L 340.631633 -93.619091 
L 341.037857 -93.619086 
L 341.444081 -93.619083 
L 341.850305 -93.619081 
L 342.256529 -93.619078 
L 342.662753 -93.619084 
L 343.068978 -93.619088 
L 343.475202 -93.619094 
L 343.881426 -93.619098 
L 344.28765 -93.619098 
L 344.693874 -93.619097 
L 345.100098 -93.619092 
L 345.506322 -93.619086 
L 345.912547 -93.61908 
L 346.318771 -93.619079 
L 346.724995 -93.619085 
L 347.131219 -93.619089 
L 347.537443 -93.619092 
L 347.943667 -93.619097 
L 348.349892 -93.619101 
L 348.756116 -93.619101 
L 349.16234 -93.6191 
L 349.568564 -93.619098 
L 349.974788 -93.619097 
L 350.381012 -93.619098 
L 350.787237 -93.619101 
L 351.193461 -93.619103 
L 351.599685 -93.619102 
L 352.005909 -93.619103 
L 352.412133 -93.619109 
L 352.818357 -93.61911 
L 353.224582 -93.619104 
L 353.630806 -93.619097 
L 354.03703 -93.61909 
L 354.443254 -93.619083 
L 354.849478 -93.619076 
L 355.255702 -93.619072 
L 355.661927 -93.619079 
L 356.068151 -93.619083 
L 356.474375 -93.619084 
L 356.880599 -93.619084 
L 357.286823 -93.619085 
L 357.693047 -93.619095 
L 358.099272 -93.619097 
L 358.505496 -93.619098 
L 358.91172 -93.619098 
L 359.317944 -93.619096 
L 359.724168 -93.619094 
L 360.130392 -93.619092 
L 360.536617 -93.619087 
L 360.942841 -93.619079 
L 361.349065 -93.619077 
L 361.755289 -93.619083 
L 362.161513 -93.619085 
L 362.567737 -93.619086 
L 362.973962 -93.619081 
L 363.380186 -93.619084 
L 363.78641 -93.619083 
L 364.192634 -93.619084 
L 364.598858 -93.619086 
L 365.005082 -93.619092 
L 365.411307 -93.619094 
L 365.817531 -93.619095 
L 366.223755 -93.619092 
L 366.629979 -93.619097 
L 367.036203 -93.6191 
L 367.442427 -93.619102 
L 367.848652 -93.619102 
L 368.254876 -93.619106 
L 368.6611 -93.619112 
L 369.067324 -93.619116 
L 369.473548 -93.619119 
L 369.879772 -93.619114 
L 370.285997 -93.619109 
L 370.692221 -93.619102 
L 371.098469 -93.619095 
L 371.504693 -93.619092 
L 371.910917 -93.619084 
L 372.317142 -93.619076 
L 372.723366 -93.619075 
L 373.12959 -93.619073 
L 373.535814 -93.619079 
L 373.942038 -93.619091 
L 374.348262 -93.619095 
L 374.754487 -93.619098 
L 375.160711 -93.619106 
L 375.566935 -93.619108 
L 375.973159 -93.619104 
L 376.379383 -93.619106 
L 376.785607 -93.619101 
L 377.191831 -93.619094 
L 377.598056 -93.619086 
L 378.00428 -93.619082 
L 378.410504 -93.619079 
L 378.816728 -93.619074 
L 379.222952 -93.619072 
L 379.629176 -93.619078 
L 380.035401 -93.619087 
L 380.441625 -93.6191 
L 380.847849 -93.619109 
L 381.254073 -93.619112 
L 381.660297 -93.619108 
L 382.066521 -93.619104 
L 382.472746 -93.619098 
L 382.87897 -93.619091 
L 383.285194 -93.61909 
L 383.691418 -93.619083 
L 384.097642 -93.61908 
L 384.503866 -93.619074 
L 384.910091 -93.619071 
L 385.316315 -93.619075 
L 385.722539 -93.619085 
L 386.128763 -93.619092 
L 386.534987 -93.619099 
L 386.941211 -93.619102 
L 387.347436 -93.619102 
L 387.75366 -93.619093 
L 388.159884 -93.619089 
L 388.566108 -93.619085 
L 388.972332 -93.619087 
L 389.378556 -93.619092 
L 389.784781 -93.619098 
L 390.191005 -93.6191 
L 390.597229 -93.619102 
L 391.003453 -93.619102 
L 391.409677 -93.619097 
L 391.815901 -93.619095 
L 392.222126 -93.619092 
L 392.62835 -93.619089 
L 393.034574 -93.619082 
L 393.440798 -93.619079 
L 393.847022 -93.61908 
L 394.253246 -93.619082 
L 394.659471 -93.61909 
L 395.065695 -93.619097 
L 395.471919 -93.619108 
L 395.878143 -93.619122 
L 396.284367 -93.619129 
L 396.690591 -93.61913 
L 397.096816 -93.619128 
L 397.50304 -93.619116 
L 397.909264 -93.619106 
L 398.315488 -93.619096 
L 398.721712 -93.619088 
L 399.127936 -93.619082 
L 399.534161 -93.619076 
L 399.940385 -93.619073 
L 400.346609 -93.619076 
L 400.752833 -93.619084 
L 401.159057 -93.619092 
L 401.565281 -93.619099 
L 401.971505 -93.6191 
L 402.37773 -93.619102 
L 402.783954 -93.619101 
L 403.190178 -93.619097 
L 403.596402 -93.619096 
L 404.002626 -93.619093 
L 404.40885 -93.619088 
L 404.815075 -93.619082 
L 405.221299 -93.619079 
L 405.627523 -93.619075 
L 406.033747 -93.619075 
L 406.439971 -93.619082 
L 406.846195 -93.61909 
L 407.25242 -93.619097 
L 407.658644 -93.6191 
L 408.064868 -93.619104 
L 408.471092 -93.619099 
L 408.877316 -93.619099 
L 409.28354 -93.619093 
L 409.689765 -93.61909 
L 410.095989 -93.619087 
L 410.502213 -93.619094 
L 410.908437 -93.619097 
L 411.314661 -93.619096 
L 411.720885 -93.6191 
L 412.12711 -93.619098 
L 412.533334 -93.619095 
L 412.939582 -93.619087 
L 413.345806 -93.619084 
L 413.75203 -93.619082 
L 414.158255 -93.619079 
L 414.564479 -93.619074 
L 414.970703 -93.619073 
L 415.376927 -93.619076 
L 415.783151 -93.619076 
L 416.189375 -93.619076 
L 416.5956 -93.619082 
L 417.001824 -93.619081 
L 417.408048 -93.619078 
L 417.814272 -93.619079 
L 418.220496 -93.619083 
L 418.62672 -93.61909 
L 419.032945 -93.619102 
L 419.439169 -93.619109 
L 419.845393 -93.619112 
L 420.251617 -93.619115 
L 420.657841 -93.619115 
L 421.064065 -93.619111 
L 421.47029 -93.619104 
L 421.876514 -93.619097 
L 422.282738 -93.619091 
L 422.688962 -93.619085 
L 423.095186 -93.619084 
L 423.50141 -93.619083 
L 423.907635 -93.619084 
L 424.313859 -93.619083 
L 424.720083 -93.619082 
L 425.126307 -93.619086 
L 425.532531 -93.619086 
L 425.938755 -93.619086 
L 426.34498 -93.619086 
L 426.751204 -93.619093 
L 427.157428 -93.6191 
L 427.563652 -93.619106 
L 427.969876 -93.619115 
L 428.3761 -93.61912 
L 428.782325 -93.619122 
L 429.188549 -93.619118 
L 429.594773 -93.619111 
L 430.000997 -93.619102 
L 430.407221 -93.619094 
L 430.813445 -93.619089 
L 431.219669 -93.619083 
L 431.625894 -93.619082 
L 432.032118 -93.619087 
L 432.438342 -93.619091 
L 432.844566 -93.619095 
L 433.25079 -93.619106 
L 433.657014 -93.619111 
L 434.063239 -93.619109 
L 434.469463 -93.619108 
L 434.875687 -93.619101 
L 435.281911 -93.619093 
L 435.688135 -93.619085 
L 436.094359 -93.61908 
L 436.500584 -93.619077 
L 436.906808 -93.619078 
L 437.313032 -93.61908 
L 437.719256 -93.619081 
L 438.12548 -93.619078 
L 438.531704 -93.619075 
L 438.937929 -93.61908 
L 439.344153 -93.619089 
L 439.750377 -93.619091 
L 440.156601 -93.619092 
L 440.562825 -93.619092 
L 440.969049 -93.619089 
L 441.375274 -93.619084 
L 441.781498 -93.619078 
L 442.187722 -93.619079 
L 442.593946 -93.619087 
L 443.00017 -93.619088 
L 443.406394 -93.61909 
L 443.812619 -93.619095 
L 444.218843 -93.619101 
L 444.625067 -93.619109 
L 445.031291 -93.619113 
L 445.437515 -93.619119 
L 445.843739 -93.619126 
L 446.249964 -93.619129 
L 446.656188 -93.619123 
L 447.062412 -93.619115 
L 447.468636 -93.619107 
L 447.87486 -93.619097 
L 448.281084 -93.619086 
L 448.687309 -93.619078 
L 449.093533 -93.619076 
L 449.499757 -93.619073 
L 449.905981 -93.619078 
L 450.312205 -93.619082 
L 450.718429 -93.619088 
L 451.124654 -93.619097 
L 451.530878 -93.619099 
L 451.937102 -93.6191 
L 452.343326 -93.619102 
L 452.74955 -93.619098 
L 453.155774 -93.619092 
L 453.561999 -93.619089 
L 453.968223 -93.619081 
L 454.374471 -93.619075 
L 454.780695 -93.61907 
L 455.186919 -93.619069 
L 455.593144 -93.619067 
L 455.999368 -93.61907 
L 456.405592 -93.619076 
L 456.811816 -93.619083 
L 457.21804 -93.619093 
L 457.624264 -93.619109 
L 458.030489 -93.619112 
L 458.436713 -93.619112 
L 458.842937 -93.619113 
L 459.249161 -93.619109 
L 459.655385 -93.619107 
L 460.061609 -93.619099 
L 460.467834 -93.619092 
L 460.874058 -93.619088 
L 461.280282 -93.61908 
L 461.686506 -93.619074 
L 462.09273 -93.619072 
L 462.498954 -93.619073 
L 462.905178 -93.619073 
L 463.311403 -93.619079 
L 463.717627 -93.619078 
L 464.123851 -93.61908 
L 464.530075 -93.619082 
L 464.936299 -93.619087 
L 465.342523 -93.619091 
L 465.748748 -93.619097 
L 466.154972 -93.619096 
L 466.561196 -93.61909 
L 466.96742 -93.619088 
L 467.373644 -93.619086 
L 467.779868 -93.619082 
L 468.186093 -93.61909 
L 468.592317 -93.619096 
L 468.998541 -93.619102 
L 469.404765 -93.619103 
L 469.810989 -93.619105 
L 470.217213 -93.619111 
L 470.623438 -93.61911 
L 471.029662 -93.619102 
L 471.435886 -93.619096 
L 471.84211 -93.619096 
L 472.248334 -93.6191 
L 472.654558 -93.619096 
L 473.060783 -93.619099 
L 473.467007 -93.6191 
L 473.873231 -93.619101 
L 474.279455 -93.619102 
L 474.685679 -93.6191 
L 475.091903 -93.619095 
L 475.091903 -94.552258 
L 475.091903 -94.552258 
L 474.685679 -94.552265 
L 474.279455 -94.552269 
L 473.873231 -94.552268 
L 473.467007 -94.552268 
L 473.060783 -94.552262 
L 472.654558 -94.552257 
L 472.248334 -94.55225 
L 471.84211 -94.552243 
L 471.435886 -94.552235 
L 471.029662 -94.552229 
L 470.623438 -94.552223 
L 470.217213 -94.552222 
L 469.810989 -94.552217 
L 469.404765 -94.552221 
L 468.998541 -94.552228 
L 468.592317 -94.552231 
L 468.186093 -94.552235 
L 467.779868 -94.552242 
L 467.373644 -94.552244 
L 466.96742 -94.552252 
L 466.561196 -94.552257 
L 466.154972 -94.552255 
L 465.748748 -94.55225 
L 465.342523 -94.552243 
L 464.936299 -94.552237 
L 464.530075 -94.552229 
L 464.123851 -94.552229 
L 463.717627 -94.552225 
L 463.311403 -94.552231 
L 462.905178 -94.552234 
L 462.498954 -94.552244 
L 462.09273 -94.552252 
L 461.686506 -94.552258 
L 461.280282 -94.55226 
L 460.874058 -94.552251 
L 460.467834 -94.552243 
L 460.061609 -94.552235 
L 459.655385 -94.552237 
L 459.249161 -94.552236 
L 458.842937 -94.552237 
L 458.436713 -94.552238 
L 458.030489 -94.552248 
L 457.624264 -94.552252 
L 457.21804 -94.552249 
L 456.811816 -94.552244 
L 456.405592 -94.552239 
L 455.999368 -94.552238 
L 455.593144 -94.552239 
L 455.186919 -94.552243 
L 454.780695 -94.552249 
L 454.374471 -94.552255 
L 453.968223 -94.552259 
L 453.561999 -94.552254 
L 453.155774 -94.552247 
L 452.74955 -94.552239 
L 452.343326 -94.552232 
L 451.937102 -94.552227 
L 451.530878 -94.55223 
L 451.124654 -94.552232 
L 450.718429 -94.552239 
L 450.312205 -94.552244 
L 449.905981 -94.552248 
L 449.499757 -94.552246 
L 449.093533 -94.552246 
L 448.687309 -94.552248 
L 448.281084 -94.552246 
L 447.87486 -94.552243 
L 447.468636 -94.552241 
L 447.062412 -94.552241 
L 446.656188 -94.552242 
L 446.249964 -94.552242 
L 445.843739 -94.552245 
L 445.437515 -94.552249 
L 445.031291 -94.552247 
L 444.625067 -94.552245 
L 444.218843 -94.552245 
L 443.812619 -94.552245 
L 443.406394 -94.552241 
L 443.00017 -94.552236 
L 442.593946 -94.552238 
L 442.187722 -94.552241 
L 441.781498 -94.552248 
L 441.375274 -94.552249 
L 440.969049 -94.552246 
L 440.562825 -94.552247 
L 440.156601 -94.552239 
L 439.750377 -94.552234 
L 439.344153 -94.552227 
L 438.937929 -94.552225 
L 438.531704 -94.552226 
L 438.12548 -94.552235 
L 437.719256 -94.552242 
L 437.313032 -94.552249 
L 436.906808 -94.55225 
L 436.500584 -94.552247 
L 436.094359 -94.552242 
L 435.688135 -94.552236 
L 435.281911 -94.55223 
L 434.875687 -94.552226 
L 434.469463 -94.55223 
L 434.063239 -94.552236 
L 433.657014 -94.552243 
L 433.25079 -94.552251 
L 432.844566 -94.552258 
L 432.438342 -94.552263 
L 432.032118 -94.552262 
L 431.625894 -94.552262 
L 431.219669 -94.552257 
L 430.813445 -94.552255 
L 430.407221 -94.552251 
L 430.000997 -94.552249 
L 429.594773 -94.552249 
L 429.188549 -94.552244 
L 428.782325 -94.552237 
L 428.3761 -94.552239 
L 427.969876 -94.552234 
L 427.563652 -94.552237 
L 427.157428 -94.552244 
L 426.751204 -94.552244 
L 426.34498 -94.552244 
L 425.938755 -94.552251 
L 425.532531 -94.552252 
L 425.126307 -94.552252 
L 424.720083 -94.552254 
L 424.313859 -94.55225 
L 423.907635 -94.552244 
L 423.50141 -94.552242 
L 423.095186 -94.552239 
L 422.688962 -94.552235 
L 422.282738 -94.552231 
L 421.876514 -94.552227 
L 421.47029 -94.552227 
L 421.064065 -94.552222 
L 420.657841 -94.552229 
L 420.251617 -94.552238 
L 419.845393 -94.552245 
L 419.439169 -94.552246 
L 419.032945 -94.552245 
L 418.62672 -94.552244 
L 418.220496 -94.552237 
L 417.814272 -94.552232 
L 417.408048 -94.55223 
L 417.001824 -94.552225 
L 416.5956 -94.552226 
L 416.189375 -94.552229 
L 415.783151 -94.552233 
L 415.376927 -94.552236 
L 414.970703 -94.552232 
L 414.564479 -94.552238 
L 414.158255 -94.552249 
L 413.75203 -94.552257 
L 413.345806 -94.55227 
L 412.939582 -94.552275 
L 412.533334 -94.552275 
L 412.12711 -94.552276 
L 411.720885 -94.552273 
L 411.314661 -94.552268 
L 410.908437 -94.552263 
L 410.502213 -94.552258 
L 410.095989 -94.552252 
L 409.689765 -94.552244 
L 409.28354 -94.552239 
L 408.877316 -94.552235 
L 408.471092 -94.552225 
L 408.064868 -94.552224 
L 407.658644 -94.55223 
L 407.25242 -94.552238 
L 406.846195 -94.55225 
L 406.439971 -94.552251 
L 406.033747 -94.552251 
L 405.627523 -94.552248 
L 405.221299 -94.552245 
L 404.815075 -94.552241 
L 404.40885 -94.552235 
L 404.002626 -94.552234 
L 403.596402 -94.552235 
L 403.190178 -94.552239 
L 402.783954 -94.552236 
L 402.37773 -94.552236 
L 401.971505 -94.552239 
L 401.565281 -94.552243 
L 401.159057 -94.552249 
L 400.752833 -94.552255 
L 400.346609 -94.552257 
L 399.940385 -94.552255 
L 399.534161 -94.552253 
L 399.127936 -94.552253 
L 398.721712 -94.552249 
L 398.315488 -94.552247 
L 397.909264 -94.55224 
L 397.50304 -94.552235 
L 397.096816 -94.552228 
L 396.690591 -94.552228 
L 396.284367 -94.55223 
L 395.878143 -94.552233 
L 395.471919 -94.552238 
L 395.065695 -94.55224 
L 394.659471 -94.552243 
L 394.253246 -94.552251 
L 393.847022 -94.552257 
L 393.440798 -94.552258 
L 393.034574 -94.552254 
L 392.62835 -94.552246 
L 392.222126 -94.552242 
L 391.815901 -94.55224 
L 391.409677 -94.552236 
L 391.003453 -94.552234 
L 390.597229 -94.552235 
L 390.191005 -94.552237 
L 389.784781 -94.552239 
L 389.378556 -94.55224 
L 388.972332 -94.552244 
L 388.566108 -94.552245 
L 388.159884 -94.552254 
L 387.75366 -94.55226 
L 387.347436 -94.55226 
L 386.941211 -94.552262 
L 386.534987 -94.552259 
L 386.128763 -94.552256 
L 385.722539 -94.552252 
L 385.316315 -94.552244 
L 384.910091 -94.552233 
L 384.503866 -94.552232 
L 384.097642 -94.552233 
L 383.691418 -94.552238 
L 383.285194 -94.552236 
L 382.87897 -94.552232 
L 382.472746 -94.552233 
L 382.066521 -94.552232 
L 381.660297 -94.552236 
L 381.254073 -94.552238 
L 380.847849 -94.552235 
L 380.441625 -94.552232 
L 380.035401 -94.552236 
L 379.629176 -94.552232 
L 379.222952 -94.552236 
L 378.816728 -94.552237 
L 378.410504 -94.55224 
L 378.00428 -94.552246 
L 377.598056 -94.552258 
L 377.191831 -94.552263 
L 376.785607 -94.552263 
L 376.379383 -94.552256 
L 375.973159 -94.552249 
L 375.566935 -94.552245 
L 375.160711 -94.552237 
L 374.754487 -94.552229 
L 374.348262 -94.552227 
L 373.942038 -94.552231 
L 373.535814 -94.552237 
L 373.12959 -94.552242 
L 372.723366 -94.55224 
L 372.317142 -94.55224 
L 371.910917 -94.552247 
L 371.504693 -94.552249 
L 371.098469 -94.552245 
L 370.692221 -94.55224 
L 370.285997 -94.552232 
L 369.879772 -94.552231 
L 369.473548 -94.55223 
L 369.067324 -94.552229 
L 368.6611 -94.552227 
L 368.254876 -94.55223 
L 367.848652 -94.552232 
L 367.442427 -94.552231 
L 367.036203 -94.552231 
L 366.629979 -94.55223 
L 366.223755 -94.552233 
L 365.817531 -94.552235 
L 365.411307 -94.552245 
L 365.005082 -94.55225 
L 364.598858 -94.552248 
L 364.192634 -94.552249 
L 363.78641 -94.552243 
L 363.380186 -94.552241 
L 362.973962 -94.552242 
L 362.567737 -94.552244 
L 362.161513 -94.552246 
L 361.755289 -94.552251 
L 361.349065 -94.552247 
L 360.942841 -94.552246 
L 360.536617 -94.552251 
L 360.130392 -94.552256 
L 359.724168 -94.552262 
L 359.317944 -94.552265 
L 358.91172 -94.55226 
L 358.505496 -94.552254 
L 358.099272 -94.552247 
L 357.693047 -94.552241 
L 357.286823 -94.552239 
L 356.880599 -94.552238 
L 356.474375 -94.552243 
L 356.068151 -94.552244 
L 355.661927 -94.552253 
L 355.255702 -94.552256 
L 354.849478 -94.552259 
L 354.443254 -94.552257 
L 354.03703 -94.552255 
L 353.630806 -94.552251 
L 353.224582 -94.552247 
L 352.818357 -94.552241 
L 352.412133 -94.552236 
L 352.005909 -94.55223 
L 351.599685 -94.552225 
L 351.193461 -94.552224 
L 350.787237 -94.55223 
L 350.381012 -94.552244 
L 349.974788 -94.552255 
L 349.568564 -94.552254 
L 349.16234 -94.552256 
L 348.756116 -94.552256 
L 348.349892 -94.552254 
L 347.943667 -94.552247 
L 347.537443 -94.552239 
L 347.131219 -94.552231 
L 346.724995 -94.552223 
L 346.318771 -94.552221 
L 345.912547 -94.552219 
L 345.506322 -94.552222 
L 345.100098 -94.552228 
L 344.693874 -94.552232 
L 344.28765 -94.552239 
L 343.881426 -94.552243 
L 343.475202 -94.552247 
L 343.068978 -94.55225 
L 342.662753 -94.552251 
L 342.256529 -94.55225 
L 341.850305 -94.552251 
L 341.444081 -94.552252 
L 341.037857 -94.552254 
L 340.631633 -94.552254 
L 340.225408 -94.552257 
L 339.819184 -94.552255 
L 339.41296 -94.552252 
L 339.006736 -94.552245 
L 338.600512 -94.552238 
L 338.194288 -94.552231 
L 337.788063 -94.552226 
L 337.381839 -94.552216 
L 336.975615 -94.552216 
L 336.569391 -94.552219 
L 336.163167 -94.552232 
L 335.756943 -94.552243 
L 335.350718 -94.552258 
L 334.944494 -94.55227 
L 334.53827 -94.552273 
L 334.132046 -94.552272 
L 333.725822 -94.552267 
L 333.319598 -94.552264 
L 332.913373 -94.552257 
L 332.507149 -94.552252 
L 332.100925 -94.552242 
L 331.694701 -94.552233 
L 331.288477 -94.552224 
L 330.882253 -94.552217 
L 330.476028 -94.55222 
L 330.069804 -94.552227 
L 329.66358 -94.552241 
L 329.257332 -94.552249 
L 328.851108 -94.552258 
L 328.444883 -94.552264 
L 328.038659 -94.552268 
L 327.632435 -94.552264 
L 327.226211 -94.552258 
L 326.819987 -94.55225 
L 326.413763 -94.55224 
L 326.007538 -94.552233 
L 325.601314 -94.552229 
L 325.19509 -94.552229 
L 324.788866 -94.55223 
L 324.382642 -94.552234 
L 323.976418 -94.552237 
L 323.570193 -94.552235 
L 323.163969 -94.552235 
L 322.757745 -94.552231 
L 322.351521 -94.552234 
L 321.945297 -94.552233 
L 321.539073 -94.552233 
L 321.132848 -94.552234 
L 320.726624 -94.552233 
L 320.3204 -94.552239 
L 319.914176 -94.552251 
L 319.507952 -94.55226 
L 319.101728 -94.552269 
L 318.695503 -94.552272 
L 318.289279 -94.552272 
L 317.883055 -94.552265 
L 317.476831 -94.55226 
L 317.070607 -94.552254 
L 316.664383 -94.552248 
L 316.258158 -94.552242 
L 315.851934 -94.552237 
L 315.44571 -94.552238 
L 315.039486 -94.552233 
L 314.633262 -94.552236 
L 314.227038 -94.552247 
L 313.820814 -94.552261 
L 313.414589 -94.552267 
L 313.008365 -94.552264 
L 312.602141 -94.552261 
L 312.195917 -94.552255 
L 311.789693 -94.552252 
L 311.383469 -94.552249 
L 310.977244 -94.552246 
L 310.57102 -94.552238 
L 310.164796 -94.552236 
L 309.758572 -94.552229 
L 309.352348 -94.552222 
L 308.946124 -94.55222 
L 308.539899 -94.552222 
L 308.133675 -94.552228 
L 307.727451 -94.552236 
L 307.321227 -94.552251 
L 306.915003 -94.552255 
L 306.508779 -94.55226 
L 306.102554 -94.552259 
L 305.69633 -94.552254 
L 305.290106 -94.552248 
L 304.883882 -94.552241 
L 304.477658 -94.552237 
L 304.071434 -94.552236 
L 303.665209 -94.552235 
L 303.258985 -94.552232 
L 302.852761 -94.552228 
L 302.446537 -94.552224 
L 302.040313 -94.552227 
L 301.634089 -94.552227 
L 301.227864 -94.552226 
L 300.82164 -94.55223 
L 300.415416 -94.552235 
L 300.009192 -94.552232 
L 299.602968 -94.552225 
L 299.196744 -94.552218 
L 298.790519 -94.552217 
L 298.384295 -94.552213 
L 297.978071 -94.552215 
L 297.571847 -94.55222 
L 297.165623 -94.552218 
L 296.759399 -94.552217 
L 296.353174 -94.552215 
L 295.94695 -94.552212 
L 295.540726 -94.552206 
L 295.134502 -94.552192 
L 294.728278 -94.552187 
L 294.322054 -94.552181 
L 293.915829 -94.552174 
L 293.509605 -94.552173 
L 293.103381 -94.552179 
L 292.697157 -94.552189 
L 292.290933 -94.552199 
L 291.884709 -94.552205 
L 291.478484 -94.552202 
L 291.07226 -94.552197 
L 290.666036 -94.552187 
L 290.259812 -94.552179 
L 289.853588 -94.552172 
L 289.447364 -94.552174 
L 289.041139 -94.552177 
L 288.634915 -94.552178 
L 288.228691 -94.552178 
L 287.822443 -94.552185 
L 287.416219 -94.552189 
L 287.009994 -94.552191 
L 286.60377 -94.552193 
L 286.197546 -94.552194 
L 285.791322 -94.552198 
L 285.385098 -94.552208 
L 284.978874 -94.552213 
L 284.57265 -94.552219 
L 284.166425 -94.552211 
L 283.760201 -94.552205 
L 283.353977 -94.552204 
L 282.947753 -94.5522 
L 282.541529 -94.552205 
L 282.135305 -94.55221 
L 281.72908 -94.552218 
L 281.322856 -94.552226 
L 280.916632 -94.552225 
L 280.510408 -94.552226 
L 280.104184 -94.552217 
L 279.69796 -94.552206 
L 279.291735 -94.552194 
L 278.885511 -94.55218 
L 278.479287 -94.552164 
L 278.073063 -94.552139 
L 277.666839 -94.552105 
L 277.260615 -94.552076 
L 276.85439 -94.552045 
L 276.448166 -94.552019 
L 276.041942 -94.55199 
L 275.635718 -94.551963 
L 275.229494 -94.55193 
L 274.82327 -94.551891 
L 274.417045 -94.551853 
L 274.010821 -94.55183 
L 273.604597 -94.551808 
L 273.198373 -94.551788 
L 272.792149 -94.551775 
L 272.385925 -94.551767 
L 271.9797 -94.551762 
L 271.573476 -94.551775 
L 271.167252 -94.551792 
L 270.761028 -94.551811 
L 270.354804 -94.551837 
L 269.94858 -94.55186 
L 269.542355 -94.551885 
L 269.136131 -94.551916 
L 268.729907 -94.551957 
L 268.323683 -94.552003 
L 267.917459 -94.552054 
L 267.511235 -94.552107 
L 267.10501 -94.552165 
L 266.698774 -94.552228 
L 266.29255 -94.552288 
L 265.886326 -94.55235 
L 265.480102 -94.552408 
L 265.073878 -94.552464 
L 264.667653 -94.552516 
L 264.261429 -94.552574 
L 263.855205 -94.552614 
L 263.448981 -94.552649 
L 263.042757 -94.55267 
L 262.636533 -94.552683 
L 262.230308 -94.552688 
L 261.824084 -94.552675 
L 261.41786 -94.552658 
L 261.011636 -94.552631 
L 260.605412 -94.552584 
L 260.199188 -94.552527 
L 259.792963 -94.552457 
L 259.386739 -94.552376 
L 258.980515 -94.55229 
L 258.574291 -94.552193 
L 258.168067 -94.552095 
L 257.761843 -94.551996 
L 257.355618 -94.551892 
L 256.949394 -94.551782 
L 256.54317 -94.551677 
L 256.136946 -94.55157 
L 255.730722 -94.551469 
L 255.324498 -94.551375 
L 254.918273 -94.551284 
L 254.512049 -94.551197 
L 254.105825 -94.551124 
L 253.699601 -94.551061 
L 253.293377 -94.551014 
L 252.887153 -94.55098 
L 252.480928 -94.550969 
L 252.074704 -94.550975 
L 251.66848 -94.551004 
L 251.262256 -94.551054 
L 250.856032 -94.551126 
L 250.449808 -94.551224 
L 250.043583 -94.55135 
L 249.637359 -94.5515 
L 249.231135 -94.551664 
L 248.824911 -94.551843 
L 248.418687 -94.552034 
L 248.012463 -94.55224 
L 247.606238 -94.552446 
L 247.200014 -94.552657 
L 246.79379 -94.552877 
L 246.387566 -94.553098 
L 245.98133 -94.553321 
L 245.575106 -94.553541 
L 245.168881 -94.55375 
L 244.762657 -94.553933 
L 244.356433 -94.554096 
L 243.950209 -94.554235 
L 243.543985 -94.554347 
L 243.137761 -94.554426 
L 242.731536 -94.554467 
L 242.325312 -94.554465 
L 241.919088 -94.55441 
L 241.512864 -94.554312 
L 241.10664 -94.554164 
L 240.700416 -94.553972 
L 240.294191 -94.553735 
L 239.887967 -94.553445 
L 239.481743 -94.553119 
L 239.075519 -94.552763 
L 238.669295 -94.552362 
L 238.263071 -94.551934 
L 237.856846 -94.551478 
L 237.450622 -94.551012 
L 237.044398 -94.550528 
L 236.638174 -94.550049 
L 236.23195 -94.549578 
L 235.825726 -94.549127 
L 235.419501 -94.54871 
L 235.013277 -94.548332 
L 234.607053 -94.54799 
L 234.200829 -94.547703 
L 233.794605 -94.547484 
L 233.388381 -94.547329 
L 232.982156 -94.547257 
L 232.575932 -94.547283 
L 232.169708 -94.547589 
L 231.763484 -94.547977 
L 231.35726 -94.548453 
L 230.951036 -94.549016 
L 230.544811 -94.54965 
L 230.138587 -94.550346 
L 229.732363 -94.551101 
L 229.326139 -94.551907 
L 228.919915 -94.552749 
L 228.513691 -94.553612 
L 228.107467 -94.55448 
L 227.701242 -94.555339 
L 227.295018 -94.556174 
L 226.888794 -94.556968 
L 226.48257 -94.557702 
L 226.076346 -94.558364 
L 225.670122 -94.559035 
L 225.263897 -94.559848 
L 224.857661 -94.560563 
L 224.451437 -94.561168 
L 224.045213 -94.561651 
L 223.638989 -94.561988 
L 223.232764 -94.562165 
L 222.82654 -94.562168 
L 222.420316 -94.56198 
L 222.014092 -94.561605 
L 221.607868 -94.561032 
L 221.201644 -94.560255 
L 220.795419 -94.559273 
L 220.389195 -94.558094 
L 219.982971 -94.55673 
L 219.576747 -94.555198 
L 219.170523 -94.553509 
L 218.764299 -94.551682 
L 218.358074 -94.549754 
L 217.95185 -94.547757 
L 217.545626 -94.545708 
L 217.139402 -94.54366 
L 216.733178 -94.541633 
L 216.326954 -94.539666 
L 215.920729 -94.537808 
L 215.514505 -94.536096 
L 215.108281 -94.534566 
L 214.702057 -94.533271 
L 214.295833 -94.532416 
L 213.889609 -94.532474 
L 213.483385 -94.532872 
L 213.07716 -94.533613 
L 212.670936 -94.534723 
L 212.264712 -94.53619 
L 211.858488 -94.538019 
L 211.452264 -94.540202 
L 211.04604 -94.54271 
L 210.639815 -94.545519 
L 210.233591 -94.548599 
L 209.827367 -94.551915 
L 209.421143 -94.555418 
L 209.014919 -94.559063 
L 208.608695 -94.562791 
L 208.20247 -94.566536 
L 207.796246 -94.570228 
L 207.390022 -94.573802 
L 206.983798 -94.577196 
L 206.577574 -94.580337 
L 206.17135 -94.58314 
L 205.765125 -94.58554 
L 205.358901 -94.587799 
L 204.952677 -94.590546 
L 204.546453 -94.592765 
L 204.140217 -94.594377 
L 203.733992 -94.595315 
L 203.327768 -94.595522 
L 202.921544 -94.594947 
L 202.51532 -94.593548 
L 202.109096 -94.591305 
L 201.702872 -94.5882 
L 201.296647 -94.584237 
L 200.890423 -94.579438 
L 200.484199 -94.573845 
L 200.077975 -94.567504 
L 199.671751 -94.56048 
L 199.265527 -94.552873 
L 198.859303 -94.544778 
L 198.453078 -94.53632 
L 198.046854 -94.527634 
L 197.64063 -94.518867 
L 197.234406 -94.510171 
L 196.828182 -94.501706 
L 196.421958 -94.493643 
L 196.015733 -94.486154 
L 195.609509 -94.479409 
L 195.203285 -94.473925 
L 194.797061 -94.471761 
L 194.390837 -94.47089 
L 193.984613 -94.471403 
L 193.578388 -94.473389 
L 193.172164 -94.476888 
L 192.76594 -94.481939 
L 192.359716 -94.488547 
L 191.953492 -94.496683 
L 191.547268 -94.506295 
L 191.141043 -94.517308 
L 190.734819 -94.529606 
L 190.328595 -94.54304 
L 189.922371 -94.557451 
L 189.516147 -94.572638 
L 189.109923 -94.588374 
L 188.703698 -94.6044 
L 188.297474 -94.620459 
L 187.89125 -94.636248 
L 187.485026 -94.651479 
L 187.078802 -94.665834 
L 186.672578 -94.679017 
L 186.266353 -94.690711 
L 185.860129 -94.700612 
L 185.453905 -94.711951 
L 185.047681 -94.722099 
L 184.641457 -94.729761 
L 184.235233 -94.738412 
L 183.829008 -94.74614 
L 183.422772 -94.740116 
L 183.016548 -94.730895 
L 182.610324 -94.718438 
L 182.2041 -94.702772 
L 181.797876 -94.683991 
L 181.391651 -94.662228 
L 180.985427 -94.637705 
L 180.579203 -94.610682 
L 180.172979 -94.581496 
L 179.766755 -94.55054 
L 179.360531 -94.518253 
L 178.954306 -94.485141 
L 178.548082 -94.451743 
L 178.141858 -94.418655 
L 177.735634 -94.386482 
L 177.32941 -94.355865 
L 176.923186 -94.325232 
L 176.516961 -94.282962 
L 176.110737 -94.253362 
L 175.704513 -94.231284 
L 175.298289 -94.218003 
L 174.892065 -94.209897 
L 174.485841 -94.207435 
L 174.079616 -94.211008 
L 173.673392 -94.220915 
L 173.267168 -94.23738 
L 172.860944 -94.260489 
L 172.45472 -94.290247 
L 172.048496 -94.326536 
L 171.642271 -94.369087 
L 171.236047 -94.417532 
L 170.829823 -94.471356 
L 170.423599 -94.529928 
L 170.017375 -94.592485 
L 169.611151 -94.658149 
L 169.204926 -94.725927 
L 168.798702 -94.794727 
L 168.392478 -94.863377 
L 167.986248 -94.930631 
L 167.580024 -94.995193 
L 167.1738 -95.058504 
L 166.767575 -95.117006 
L 166.361351 -95.168778 
L 165.955127 -95.212465 
L 165.548903 -95.264548 
L 165.142679 -95.286188 
L 164.736455 -95.298244 
L 164.33023 -95.298193 
L 163.924006 -95.28827 
L 163.517782 -95.263463 
L 163.111558 -95.223331 
L 162.705334 -95.167678 
L 162.29911 -95.096805 
L 161.892885 -95.029538 
L 161.486661 -94.950748 
L 161.080437 -94.854825 
L 160.674213 -94.744361 
L 160.267989 -94.616464 
L 159.861765 -94.472487 
L 159.45554 -94.335643 
L 159.049316 -94.199077 
L 158.643092 -94.058497 
L 158.236868 -93.916218 
L 157.830644 -93.774764 
L 157.424414 -93.636769 
L 157.018189 -93.504998 
L 156.611965 -93.382724 
L 156.205741 -93.273091 
L 155.799517 -93.195664 
L 155.393293 -93.143396 
L 154.987069 -93.113806 
L 154.580844 -93.108825 
L 154.17462 -93.127915 
L 153.768396 -93.161254 
L 153.362172 -93.232735 
L 152.955948 -93.332381 
L 152.549724 -93.466075 
L 152.143499 -93.627515 
L 151.737275 -93.81551 
L 151.331051 -94.028321 
L 150.924827 -94.26365 
L 150.518603 -94.518646 
L 150.112379 -94.789937 
L 149.706154 -95.073657 
L 149.29993 -95.365469 
L 148.893706 -95.660625 
L 148.487482 -95.954015 
L 148.081258 -96.244064 
L 147.675034 -96.527025 
L 147.268809 -96.801007 
L 146.862579 -97.035601 
L 146.456355 -97.285339 
L 146.050131 -97.491878 
L 145.643907 -97.643477 
L 145.237683 -97.768153 
L 144.831458 -97.893376 
L 144.425234 -98.003827 
L 144.01901 -98.049473 
L 143.612786 -98.025646 
L 143.206562 -97.9287 
L 142.800338 -97.756156 
L 142.394113 -97.506794 
L 141.987889 -97.184731 
L 141.581665 -96.798347 
L 141.175441 -96.339917 
L 140.769217 -95.813749 
L 140.362993 -95.22567 
L 139.956768 -94.583007 
L 139.550544 -93.894547 
L 139.14432 -93.170436 
L 138.738096 -92.42211 
L 138.331872 -91.692575 
L 137.925648 -91.078479 
L 137.519423 -90.487788 
L 137.113199 -89.932833 
L 136.706969 -89.427899 
L 136.300745 -89.011892 
L 135.894521 -88.680318 
L 135.488297 -88.454021 
L 135.082072 -88.359873 
L 134.675848 -88.376869 
L 134.269624 -88.502188 
L 133.8634 -88.722927 
L 133.457176 -89.025492 
L 133.050952 -89.494452 
L 132.644727 -90.094444 
L 132.238503 -90.812498 
L 131.832279 -91.643101 
L 131.426055 -92.554134 
L 131.019831 -93.573694 
L 130.613607 -94.683654 
L 130.207382 -95.861179 
L 129.801158 -97.08917 
L 129.394934 -98.348837 
L 128.98871 -99.619649 
L 128.582486 -100.882831 
L 128.176262 -102.135156 
L 127.770038 -103.317671 
L 127.363813 -104.461748 
L 126.957589 -105.580122 
L 126.551365 -106.554486 
L 126.145135 -107.56834 
L 125.738911 -108.427549 
L 125.332686 -109.076689 
L 124.926462 -109.491755 
L 124.520238 -109.651764 
L 124.114014 -109.550582 
L 123.70779 -109.17213 
L 123.301566 -108.49692 
L 122.895341 -107.524321 
L 122.489117 -106.259461 
L 122.082893 -104.709112 
L 121.676669 -102.879579 
L 121.270445 -100.785773 
L 120.864221 -98.45164 
L 120.457997 -95.906965 
L 120.051772 -93.187124 
L 119.645548 -90.332672 
L 119.239324 -87.388842 
L 118.8331 -84.4163 
L 118.426873 -81.460426 
L 118.020648 -78.823737 
L 117.614424 -76.447496 
L 117.2082 -74.366673 
L 116.801976 -72.506436 
L 116.395752 -70.992889 
L 115.989528 -69.801142 
L 115.583304 -68.971055 
L 115.177079 -68.538803 
L 114.770855 -68.536934 
L 114.364631 -68.998625 
L 113.958407 -69.93895 
L 113.552183 -71.37154 
L 113.145956 -73.306649 
L 112.739731 -75.765437 
L 112.333507 -78.724617 
L 111.927283 -82.121558 
L 111.521059 -85.965056 
L 111.114835 -90.226407 
L 110.708611 -94.847665 
L 110.302386 -99.76829 
L 109.896162 -104.927937 
L 109.489938 -110.262758 
L 109.083714 -115.707747 
L 108.67749 -121.199173 
L 108.271266 -126.676889 
L 107.865038 -132.086149 
L 107.458814 -137.381747 
L 107.05259 -142.529516 
L 106.646366 -147.481414 
L 106.240142 -152.206995 
L 105.833918 -156.692404 
L 105.427693 -160.896703 
L 105.021469 -164.781891 
L 104.615245 -168.328053 
L 104.209021 -171.525571 
L 103.802797 -174.343331 
L 103.396573 -177.089971 
L 102.990345 -179.431586 
L 102.584121 -181.314438 
L 102.177897 -182.695886 
L 101.771673 -183.545749 
L 101.365449 -183.851535 
L 100.959225 -183.659701 
L 100.553 -182.995118 
L 100.146776 -181.880222 
L 99.740552 -180.392341 
L 99.334328 -178.625086 
L 98.928104 -176.683144 
L 98.52188 -174.678066 
L 98.115655 -172.714888 
L 97.709428 -170.895519 
L 97.303204 -169.688108 
L 96.89698 -168.779173 
L 96.490756 -168.170234 
L 96.084532 -167.922554 
L 95.678307 -168.078092 
L 95.272083 -168.692937 
L 94.865859 -169.796173 
L 94.459635 -171.389115 
L 94.053411 -173.477969 
L 93.647185 -176.030671 
L 93.240961 -179.023934 
L 92.834737 -182.351031 
L 92.428513 -185.839957 
L 92.022288 -189.246605 
L 91.616064 -192.237223 
L 91.209839 -194.486937 
L 90.803614 -195.499981 
L 90.39739 -194.770115 
L 89.991166 -191.887272 
L 89.584942 -186.564353 
L 89.178718 -178.726898 
L 88.772494 -168.577003 
L 88.366268 -156.624634 
L 87.960044 -143.690586 
L 87.55382 -130.745348 
L 87.147595 -118.930389 
L 86.741371 -109.368248 
L 86.335147 -102.971573 
L 85.928921 -100.420097 
L 85.522697 -102.08407 
L 85.116473 -108.007767 
L 84.710249 -117.940964 
L 84.304025 -131.254153 
L 83.897801 -147.045754 
L 83.491575 -164.203759 
L 83.085351 -181.585519 
L 82.679127 -197.952838 
L 82.272902 -210.614672 
L 81.866678 -217.726409 
L 81.460453 -217.650923 
L 81.054229 -210.47484 
L 80.648005 -196.205501 
L 80.24178 -175.390324 
L 79.835556 -150.032677 
L 79.429332 -122.932433 
L 79.023108 -97.308131 
L 78.616883 -76.250105 
L 78.210658 -62.263218 
L 77.804434 -56.891675 
L 77.398209 -60.640041 
L 76.991985 -73.007541 
L 76.585761 -92.712097 
L 76.179536 -117.968913 
L 75.773312 -148.117296 
L 75.367087 -179.026258 
L 74.960863 -207.304245 
L 74.554639 -230.041275 
L 74.148415 -244.652253 
L 73.74219 -249.23625 
L 73.335965 -243.089194 
L 72.929741 -227.078379 
L 72.523517 -203.617552 
L 72.117292 -176.351642 
L 71.711068 -149.74993 
L 71.304844 -126.785038 
L 70.898619 -109.795616 
L 70.492395 -99.43818 
L 70.08617 -94.677631 
L 69.679946 -93.36036 
L 69.273722 -93.255332 
z
" style="stroke: #d62728; stroke-opacity: 0.2"/>
    </defs>
    <g clip-path="url(#pba91326aaa)">
     <use xlink:href="#m629f671b92" x="0" y="281.634375" style="fill: #d62728; fill-opacity: 0.2; stroke: #d62728; stroke-opacity: 0.2"/>
    </g>
   </g>
   <g id="matplotlib.axis_1">
    <g id="xtick_1">
     <g id="line2d_1">
      <path d="M 69.273722 244.078125 
L 69.273722 22.318125 
" clip-path="url(#pba91326aaa)" style="fill: none; stroke: #b0b0b0; stroke-opacity: 0.3; stroke-width: 0.8; stroke-linecap: square"/>
     </g>
     <g id="line2d_2">
      <defs>
       <path id="m2e845ecea1" d="M 0 0 
L 0 3.5 
" style="stroke: #000000; stroke-width: 0.8"/>
      </defs>
      <g>
       <use xlink:href="#m2e845ecea1" x="69.273722" y="244.078125" style="stroke: #000000; stroke-width: 0.8"/>
      </g>
     </g>
     <g id="text_1">
      <text style="font: 10px 'DejaVu Sans', 'Bitstream Vera Sans', 'Computer Modern Sans Serif', 'Lucida Grande', 'Verdana', 'Geneva', 'Lucid', 'Arial', 'Helvetica', 'Avant Garde', sans-serif; text-anchor: middle" x="69.273722" y="258.676562" transform="rotate(-0 69.273722 258.676562)">0.0</text>
     </g>
    </g>
    <g id="xtick_2">
     <g id="line2d_3">
      <path d="M 150.437358 244.078125 
L 150.437358 22.318125 
" clip-path="url(#pba91326aaa)" style="fill: none; stroke: #b0b0b0; stroke-opacity: 0.3; stroke-width: 0.8; stroke-linecap: square"/>
     </g>
     <g id="line2d_4">
      <g>
       <use xlink:href="#m2e845ecea1" x="150.437358" y="244.078125" style="stroke: #000000; stroke-width: 0.8"/>
      </g>
     </g>
     <g id="text_2">
      <text style="font: 10px 'DejaVu Sans', 'Bitstream Vera Sans', 'Computer Modern Sans Serif', 'Lucida Grande', 'Verdana', 'Geneva', 'Lucid', 'Arial', 'Helvetica', 'Avant Garde', sans-serif; text-anchor: middle" x="150.437358" y="258.676562" transform="rotate(-0 150.437358 258.676562)">0.2</text>
     </g>
    </g>
    <g id="xtick_3">
     <g id="line2d_5">
      <path d="M 231.600994 244.078125 
L 231.600994 22.318125 
" clip-path="url(#pba91326aaa)" style="fill: none; stroke: #b0b0b0; stroke-opacity: 0.3; stroke-width: 0.8; stroke-linecap: square"/>
     </g>
     <g id="line2d_6">
      <g>
       <use xlink:href="#m2e845ecea1" x="231.600994" y="244.078125" style="stroke: #000000; stroke-width: 0.8"/>
      </g>
     </g>
     <g id="text_3">
      <text style="font: 10px 'DejaVu Sans', 'Bitstream Vera Sans', 'Computer Modern Sans Serif', 'Lucida Grande', 'Verdana', 'Geneva', 'Lucid', 'Arial', 'Helvetica', 'Avant Garde', sans-serif; text-anchor: middle" x="231.600994" y="258.676562" transform="rotate(-0 231.600994 258.676562)">0.4</text>
     </g>
    </g>
    <g id="xtick_4">
     <g id="line2d_7">
      <path d="M 312.764631 244.078125 
L 312.764631 22.318125 
" clip-path="url(#pba91326aaa)" style="fill: none; stroke: #b0b0b0; stroke-opacity: 0.3; stroke-width: 0.8; stroke-linecap: square"/>
     </g>
     <g id="line2d_8">
      <g>
       <use xlink:href="#m2e845ecea1" x="312.764631" y="244.078125" style="stroke: #000000; stroke-width: 0.8"/>
      </g>
     </g>
     <g id="text_4">
      <text style="font: 10px 'DejaVu Sans', 'Bitstream Vera Sans', 'Computer Modern Sans Serif', 'Lucida Grande', 'Verdana', 'Geneva', 'Lucid', 'Arial', 'Helvetica', 'Avant Garde', sans-serif; text-anchor: middle" x="312.764631" y="258.676562" transform="rotate(-0 312.764631 258.676562)">0.6</text>
     </g>
    </g>
    <g id="xtick_5">
     <g id="line2d_9">
      <path d="M 393.928267 244.078125 
L 393.928267 22.318125 
" clip-path="url(#pba91326aaa)" style="fill: none; stroke: #b0b0b0; stroke-opacity: 0.3; stroke-width: 0.8; stroke-linecap: square"/>
     </g>
     <g id="line2d_10">
      <g>
       <use xlink:href="#m2e845ecea1" x="393.928267" y="244.078125" style="stroke: #000000; stroke-width: 0.8"/>
      </g>
     </g>
     <g id="text_5">
      <text style="font: 10px 'DejaVu Sans', 'Bitstream Vera Sans', 'Computer Modern Sans Serif', 'Lucida Grande', 'Verdana', 'Geneva', 'Lucid', 'Arial', 'Helvetica', 'Avant Garde', sans-serif; text-anchor: middle" x="393.928267" y="258.676562" transform="rotate(-0 393.928267 258.676562)">0.8</text>
     </g>
    </g>
    <g id="xtick_6">
     <g id="line2d_11">
      <path d="M 475.091903 244.078125 
L 475.091903 22.318125 
" clip-path="url(#pba91326aaa)" style="fill: none; stroke: #b0b0b0; stroke-opacity: 0.3; stroke-width: 0.8; stroke-linecap: square"/>
     </g>
     <g id="line2d_12">
      <g>
       <use xlink:href="#m2e845ecea1" x="475.091903" y="244.078125" style="stroke: #000000; stroke-width: 0.8"/>
      </g>
     </g>
     <g id="text_6">
      <text style="font: 10px 'DejaVu Sans', 'Bitstream Vera Sans', 'Computer Modern Sans Serif', 'Lucida Grande', 'Verdana', 'Geneva', 'Lucid', 'Arial', 'Helvetica', 'Avant Garde', sans-serif; text-anchor: middle" x="475.091903" y="258.676562" transform="rotate(-0 475.091903 258.676562)">1.0</text>
     </g>
    </g>
    <g id="text_7">
     <text style="font: 10px 'DejaVu Sans', 'Bitstream Vera Sans', 'Computer Modern Sans Serif', 'Lucida Grande', 'Verdana', 'Geneva', 'Lucid', 'Arial', 'Helvetica', 'Avant Garde', sans-serif; text-anchor: middle" x="272.182813" y="272.354687" transform="rotate(-0 272.182813 272.354687)">Tiempo (s)</text>
    </g>
   </g>
   <g id="matplotlib.axis_2">
    <g id="ytick_1">
     <g id="line2d_13">
      <path d="M 48.982813 242.609848 
L 495.382812 242.609848 
" clip-path="url(#pba91326aaa)" style="fill: none; stroke: #b0b0b0; stroke-opacity: 0.3; stroke-width: 0.8; stroke-linecap: square"/>
     </g>
     <g id="line2d_14">
      <defs>
       <path id="mfb3d2ceca6" d="M 0 0 
L -3.5 0 
" style="stroke: #000000; stroke-width: 0.8"/>
      </defs>
      <g>
       <use xlink:href="#mfb3d2ceca6" x="48.982813" y="242.609848" style="stroke: #000000; stroke-width: 0.8"/>
      </g>
     </g>
     <g id="text_8">
      <text style="font: 10px 'DejaVu Sans', 'Bitstream Vera Sans', 'Computer Modern Sans Serif', 'Lucida Grande', 'Verdana', 'Geneva', 'Lucid', 'Arial', 'Helvetica', 'Avant Garde', sans-serif; text-anchor: end" x="41.982813" y="246.409067" transform="rotate(-0 41.982813 246.409067)">20</text>
     </g>
    </g>
    <g id="ytick_2">
     <g id="line2d_15">
      <path d="M 48.982813 215.494445 
L 495.382812 215.494445 
" clip-path="url(#pba91326aaa)" style="fill: none; stroke: #b0b0b0; stroke-opacity: 0.3; stroke-width: 0.8; stroke-linecap: square"/>
     </g>
     <g id="line2d_16">
      <g>
       <use xlink:href="#mfb3d2ceca6" x="48.982813" y="215.494445" style="stroke: #000000; stroke-width: 0.8"/>
      </g>
     </g>
     <g id="text_9">
      <text style="font: 10px 'DejaVu Sans', 'Bitstream Vera Sans', 'Computer Modern Sans Serif', 'Lucida Grande', 'Verdana', 'Geneva', 'Lucid', 'Arial', 'Helvetica', 'Avant Garde', sans-serif; text-anchor: end" x="41.982813" y="219.293664" transform="rotate(-0 41.982813 219.293664)">10</text>
     </g>
    </g>
    <g id="ytick_3">
     <g id="line2d_17">
      <path d="M 48.982813 188.379043 
L 495.382812 188.379043 
" clip-path="url(#pba91326aaa)" style="fill: none; stroke: #b0b0b0; stroke-opacity: 0.3; stroke-width: 0.8; stroke-linecap: square"/>
     </g>
     <g id="line2d_18">
      <g>
       <use xlink:href="#mfb3d2ceca6" x="48.982813" y="188.379043" style="stroke: #000000; stroke-width: 0.8"/>
      </g>
     </g>
     <g id="text_10">
      <text style="font: 10px 'DejaVu Sans', 'Bitstream Vera Sans', 'Computer Modern Sans Serif', 'Lucida Grande', 'Verdana', 'Geneva', 'Lucid', 'Arial', 'Helvetica', 'Avant Garde', sans-serif; text-anchor: end" x="41.982813" y="192.178261" transform="rotate(-0 41.982813 192.178261)">0</text>
     </g>
    </g>
    <g id="ytick_4">
     <g id="line2d_19">
      <path d="M 48.982813 161.26364 
L 495.382812 161.26364 
" clip-path="url(#pba91326aaa)" style="fill: none; stroke: #b0b0b0; stroke-opacity: 0.3; stroke-width: 0.8; stroke-linecap: square"/>
     </g>
     <g id="line2d_20">
      <g>
       <use xlink:href="#mfb3d2ceca6" x="48.982813" y="161.26364" style="stroke: #000000; stroke-width: 0.8"/>
      </g>
     </g>
     <g id="text_11">
      <text style="font: 10px 'DejaVu Sans', 'Bitstream Vera Sans', 'Computer Modern Sans Serif', 'Lucida Grande', 'Verdana', 'Geneva', 'Lucid', 'Arial', 'Helvetica', 'Avant Garde', sans-serif; text-anchor: end" x="41.982813" y="165.062859" transform="rotate(-0 41.982813 165.062859)">10</text>
     </g>
    </g>
    <g id="ytick_5">
     <g id="line2d_21">
      <path d="M 48.982813 134.148237 
L 495.382812 134.148237 
" clip-path="url(#pba91326aaa)" style="fill: none; stroke: #b0b0b0; stroke-opacity: 0.3; stroke-width: 0.8; stroke-linecap: square"/>
     </g>
     <g id="line2d_22">
      <g>
       <use xlink:href="#mfb3d2ceca6" x="48.982813" y="134.148237" style="stroke: #000000; stroke-width: 0.8"/>
      </g>
     </g>
     <g id="text_12">
      <text style="font: 10px 'DejaVu Sans', 'Bitstream Vera Sans', 'Computer Modern Sans Serif', 'Lucida Grande', 'Verdana', 'Geneva', 'Lucid', 'Arial', 'Helvetica', 'Avant Garde', sans-serif; text-anchor: end" x="41.982813" y="137.947456" transform="rotate(-0 41.982813 137.947456)">20</text>
     </g>
    </g>
    <g id="ytick_6">
     <g id="line2d_23">
      <path d="M 48.982813 107.032834 
L 495.382812 107.032834 
" clip-path="url(#pba91326aaa)" style="fill: none; stroke: #b0b0b0; stroke-opacity: 0.3; stroke-width: 0.8; stroke-linecap: square"/>
     </g>
     <g id="line2d_24">
      <g>
       <use xlink:href="#mfb3d2ceca6" x="48.982813" y="107.032834" style="stroke: #000000; stroke-width: 0.8"/>
      </g>
     </g>
     <g id="text_13">
      <text style="font: 10px 'DejaVu Sans', 'Bitstream Vera Sans', 'Computer Modern Sans Serif', 'Lucida Grande', 'Verdana', 'Geneva', 'Lucid', 'Arial', 'Helvetica', 'Avant Garde', sans-serif; text-anchor: end" x="41.982813" y="110.832053" transform="rotate(-0 41.982813 110.832053)">30</text>
     </g>
    </g>
    <g id="ytick_7">
     <g id="line2d_25">
      <path d="M 48.982813 79.917431 
L 495.382812 79.917431 
" clip-path="url(#pba91326aaa)" style="fill: none; stroke: #b0b0b0; stroke-opacity: 0.3; stroke-width: 0.8; stroke-linecap: square"/>
     </g>
     <g id="line2d_26">
      <g>
       <use xlink:href="#mfb3d2ceca6" x="48.982813" y="79.917431" style="stroke: #000000; stroke-width: 0.8"/>
      </g>
     </g>
     <g id="text_14">
      <text style="font: 10px 'DejaVu Sans', 'Bitstream Vera Sans', 'Computer Modern Sans Serif', 'Lucida Grande', 'Verdana', 'Geneva', 'Lucid', 'Arial', 'Helvetica', 'Avant Garde', sans-serif; text-anchor: end" x="41.982813" y="83.71665" transform="rotate(-0 41.982813 83.71665)">40</text>
     </g>
    </g>
    <g id="ytick_8">
     <g id="line2d_27">
      <path d="M 48.982813 52.802029 
L 495.382812 52.802029 
" clip-path="url(#pba91326aaa)" style="fill: none; stroke: #b0b0b0; stroke-opacity: 0.3; stroke-width: 0.8; stroke-linecap: square"/>
     </g>
     <g id="line2d_28">
      <g>
       <use xlink:href="#mfb3d2ceca6" x="48.982813" y="52.802029" style="stroke: #000000; stroke-width: 0.8"/>
      </g>
     </g>
     <g id="text_15">
      <text style="font: 10px 'DejaVu Sans', 'Bitstream Vera Sans', 'Computer Modern Sans Serif', 'Lucida Grande', 'Verdana', 'Geneva', 'Lucid', 'Arial', 'Helvetica', 'Avant Garde', sans-serif; text-anchor: end" x="41.982813" y="56.601247" transform="rotate(-0 41.982813 56.601247)">50</text>
     </g>
    </g>
    <g id="ytick_9">
     <g id="line2d_29">
      <path d="M 48.982813 25.686626 
L 495.382812 25.686626 
" clip-path="url(#pba91326aaa)" style="fill: none; stroke: #b0b0b0; stroke-opacity: 0.3; stroke-width: 0.8; stroke-linecap: square"/>
     </g>
     <g id="line2d_30">
      <g>
       <use xlink:href="#mfb3d2ceca6" x="48.982813" y="25.686626" style="stroke: #000000; stroke-width: 0.8"/>
      </g>
     </g>
     <g id="text_16">
      <text style="font: 10px 'DejaVu Sans', 'Bitstream Vera Sans', 'Computer Modern Sans Serif', 'Lucida Grande', 'Verdana', 'Geneva', 'Lucid', 'Arial', 'Helvetica', 'Avant Garde', sans-serif; text-anchor: end" x="41.982813" y="29.485845" transform="rotate(-0 41.982813 29.485845)">60</text>
     </g>
    </g>
    <g id="text_17">
     <text style="font: 10px 'DejaVu Sans', 'Bitstream Vera Sans', 'Computer Modern Sans Serif', 'Lucida Grande', 'Verdana', 'Geneva', 'Lucid', 'Arial', 'Helvetica', 'Avant Garde', sans-serif; text-anchor: middle" x="14.798438" y="133.198125" transform="rotate(-90 14.798438 133.198125)">Torque (Nm)</text>
    </g>
   </g>
   <g id="line2d_31">
    <path d="M 69.273722 188.379043 
L 69.679946 188.275003 
L 70.08617 186.969581 
L 70.492395 182.24967 
L 70.898619 171.97578 
L 71.304844 155.114682 
L 72.117292 105.945421 
L 72.929741 57.249563 
L 73.335965 42.341853 
L 73.74219 37.079286 
L 74.148415 42.11755 
L 74.554639 56.648232 
L 75.367087 105.848164 
L 76.585761 189.025988 
L 76.991985 208.832744 
L 77.398209 221.268997 
L 77.804434 225.086308 
L 78.210658 219.815557 
L 78.616883 205.946838 
L 79.429332 159.461262 
L 80.24178 107.000381 
L 80.648005 86.127854 
L 81.054229 71.778973 
L 81.460453 64.923362 
L 81.866678 65.499351 
L 82.272902 72.605414 
L 82.679127 84.786213 
L 85.116473 173.78122 
L 85.522697 179.811111 
L 85.928921 181.606221 
L 86.335147 179.190546 
L 86.741371 172.917037 
L 87.55382 151.722391 
L 89.178718 103.592037 
L 89.584942 95.638002 
L 89.991166 90.188462 
L 90.39739 87.182343 
L 90.803614 86.343582 
L 91.209839 87.260448 
L 91.616064 89.463813 
L 92.428513 95.935331 
L 93.647185 105.847053 
L 94.459635 110.529974 
L 94.865859 112.119129 
L 95.272083 113.209449 
L 95.678307 113.823099 
L 96.084532 113.991076 
L 96.490756 113.750476 
L 96.89698 113.143021 
L 97.709428 111.025629 
L 98.928104 106.510363 
L 100.146776 102.185872 
L 100.553 101.16063 
L 100.959225 100.464736 
L 101.365449 100.156163 
L 101.771673 100.279522 
L 102.177897 100.86481 
L 102.584121 101.926964 
L 102.990345 103.466852 
L 103.802797 107.926184 
L 104.615245 114.06028 
L 105.833918 125.882608 
L 107.05259 140.179253 
L 109.489938 172.635791 
L 111.114835 192.63044 
L 111.927283 200.684852 
L 112.739731 206.954878 
L 113.552183 211.247268 
L 113.958407 212.631838 
L 114.364631 213.515291 
L 114.770855 213.912213 
L 115.177079 213.844061 
L 115.583304 213.338388 
L 115.989528 212.428093 
L 116.801976 209.54731 
L 117.614424 205.542395 
L 119.239324 195.673898 
L 120.864221 185.794837 
L 122.082893 179.854321 
L 122.895341 176.976725 
L 123.70779 175.084336 
L 124.114014 174.516083 
L 124.520238 174.195526 
L 124.926462 174.114406 
L 125.332686 174.26086 
L 125.738911 174.619768 
L 126.551365 175.90096 
L 127.363813 177.789357 
L 128.582486 181.341429 
L 131.019831 188.699501 
L 131.832279 190.651512 
L 132.644727 192.176292 
L 133.457176 193.222994 
L 134.269624 193.77732 
L 135.082072 193.858493 
L 135.894521 193.514263 
L 136.706969 192.814814 
L 137.925648 191.289093 
L 141.581665 186.145595 
L 142.394113 185.365398 
L 143.206562 184.813189 
L 144.01901 184.499756 
L 144.831458 184.419012 
L 145.643907 184.550264 
L 146.862579 185.071516 
L 148.487482 186.147926 
L 150.924827 187.857647 
L 152.143499 188.490941 
L 153.362172 188.882022 
L 154.580844 189.014907 
L 155.799517 188.912884 
L 157.424414 188.505644 
L 162.29911 186.994765 
L 163.924006 186.804589 
L 165.548903 186.827831 
L 167.986248 187.143132 
L 172.048496 187.754851 
L 174.485841 187.868417 
L 177.32941 187.741626 
L 183.422772 187.353906 
L 187.078802 187.401852 
L 195.203285 187.595344 
L 213.483385 187.53559 
L 330.069804 187.516486 
L 475.091903 187.516486 
L 475.091903 187.516486 
" clip-path="url(#pba91326aaa)" style="fill: none; stroke: #d62728; stroke-width: 2; stroke-linecap: square"/>
   </g>
   <g id="line2d_32">
    <path d="M 69.273722 188.379043 
L 69.679946 188.275006 
L 70.08617 186.969386 
L 70.492395 182.248367 
L 70.898619 171.97253 
L 71.304844 155.108284 
L 72.117292 105.931007 
L 72.929741 57.229579 
L 73.335965 42.321373 
L 73.74219 37.05985 
L 74.148415 42.099976 
L 74.554639 56.63282 
L 75.367087 105.834888 
L 76.585761 189.011064 
L 76.991985 208.817436 
L 77.398209 221.255302 
L 77.804434 225.075714 
L 78.210658 219.809976 
L 78.616883 205.947917 
L 79.429332 159.47707 
L 80.24178 107.025687 
L 80.648005 86.153951 
L 81.054229 71.802298 
L 81.460453 64.94046 
L 81.866678 65.507347 
L 82.272902 72.601629 
L 82.679127 84.768919 
L 85.116473 173.695099 
L 85.522697 179.726158 
L 85.928921 181.528643 
L 86.335147 179.126388 
L 86.741371 172.871787 
L 87.55382 151.722647 
L 89.178718 103.653396 
L 89.584942 95.698067 
L 89.991166 90.240087 
L 90.39739 87.218681 
L 90.803614 86.359615 
L 91.209839 87.252525 
L 91.616064 89.430041 
L 92.428513 95.850275 
L 93.647185 105.705556 
L 94.459635 110.37518 
L 94.865859 111.966197 
L 95.272083 113.063897 
L 95.678307 113.68964 
L 96.084532 113.873861 
L 96.490756 113.65278 
L 96.89698 113.067471 
L 97.709428 110.996956 
L 98.928104 106.549447 
L 100.146776 102.285958 
L 100.553 101.280813 
L 100.959225 100.605494 
L 101.365449 100.318321 
L 101.771673 100.464168 
L 102.177897 101.073112 
L 102.584121 102.160127 
L 102.990345 103.72604 
L 103.802797 108.239764 
L 104.615245 114.429582 
L 105.833918 126.331985 
L 107.05259 140.69528 
L 111.521059 197.334507 
L 112.333507 204.466942 
L 113.145956 209.690376 
L 113.958407 212.89118 
L 114.364631 213.736509 
L 114.770855 214.09623 
L 115.177079 213.992335 
L 115.583304 213.452903 
L 115.989528 212.51129 
L 116.801976 209.576625 
L 117.614424 205.531301 
L 119.239324 195.626208 
L 120.864221 185.76575 
L 122.082893 179.86632 
L 122.895341 177.024042 
L 123.70779 175.169918 
L 124.114014 174.621017 
L 124.520238 174.319514 
L 124.926462 174.256854 
L 125.332686 174.420877 
L 125.738911 174.796214 
L 126.551365 176.105976 
L 127.363813 178.016156 
L 128.582486 181.586732 
L 131.019831 188.933548 
L 131.832279 190.871009 
L 132.644727 192.378127 
L 133.457176 193.40553 
L 134.269624 193.94039 
L 135.082072 194.00321 
L 135.894521 193.642808 
L 136.706969 192.930162 
L 137.925648 191.391393 
L 141.581665 186.256183 
L 142.394113 185.484506 
L 143.206562 184.941772 
L 144.01901 184.638027 
L 144.831458 184.566501 
L 145.643907 184.705945 
L 146.862579 185.236695 
L 148.487482 186.319408 
L 150.924827 188.025476 
L 152.143499 188.652864 
L 153.362172 189.03688 
L 154.580844 189.162733 
L 155.799517 189.054757 
L 157.424414 188.642288 
L 162.29911 187.135654 
L 163.924006 186.950198 
L 165.548903 186.977678 
L 167.986248 187.296371 
L 172.048496 187.905467 
L 174.485841 188.015528 
L 177.32941 187.886148 
L 183.422772 187.500691 
L 187.078802 187.55066 
L 195.203285 187.742263 
L 213.07716 187.682193 
L 269.94858 187.663973 
L 475.091903 187.663727 
L 475.091903 187.663727 
" clip-path="url(#pba91326aaa)" style="fill: none; stroke-dasharray: 4.44,1.92; stroke-dashoffset: 0; stroke: #808080; stroke-width: 1.2"/>
   </g>
   <g id="patch_3">
    <path d="M 48.982813 244.078125 
L 48.982813 22.318125 
" style="fill: none; stroke: #000000; stroke-width: 0.8; stroke-linejoin: miter; stroke-linecap: square"/>
   </g>
   <g id="patch_4">
    <path d="M 495.382812 244.078125 
L 495.382812 22.318125 
" style="fill: none; stroke: #000000; stroke-width: 0.8; stroke-linejoin: miter; stroke-linecap: square"/>
   </g>
   <g id="patch_5">
    <path d="M 48.982813 244.078125 
L 495.382812 244.078125 
" style="fill: none; stroke: #000000; stroke-width: 0.8; stroke-linejoin: miter; stroke-linecap: square"/>
   </g>
   <g id="patch_6">
    <path d="M 48.982813 22.318125 
L 495.382812 22.318125 
" style="fill: none; stroke: #000000; stroke-width: 0.8; stroke-linejoin: miter; stroke-linecap: square"/>
   </g>
   <g id="text_18">
    <text style="font: 12px 'DejaVu Sans', 'Bitstream Vera Sans', 'Computer Modern Sans Serif', 'Lucida Grande', 'Verdana', 'Geneva', 'Lucid', 'Arial', 'Helvetica', 'Avant Garde', sans-serif; text-anchor: middle" x="272.182813" y="16.318125" transform="rotate(-0 272.182813 16.318125)">Torque - HYB</text>
   </g>
   <g id="legend_1">
    <g id="patch_7">
     <path d="M 374.148438 74.3525 
L 488.382812 74.3525 
Q 490.382812 74.3525 490.382812 72.3525 
L 490.382812 29.318125 
Q 490.382812 27.318125 488.382812 27.318125 
L 374.148438 27.318125 
Q 372.148438 27.318125 372.148438 29.318125 
L 372.148438 72.3525 
Q 372.148438 74.3525 374.148438 74.3525 
z
" style="fill: #ffffff; opacity: 0.8; stroke: #cccccc; stroke-linejoin: miter"/>
    </g>
    <g id="patch_8">
     <path d="M 376.148438 38.916562 
L 396.148438 38.916562 
L 396.148438 31.916562 
L 376.148438 31.916562 
z
" style="fill: #d62728; fill-opacity: 0.2; stroke: #d62728; stroke-opacity: 0.2; stroke-linejoin: miter"/>
    </g>
    <g id="text_19">
     <text style="font: 10px 'DejaVu Sans', 'Bitstream Vera Sans', 'Computer Modern Sans Serif', 'Lucida Grande', 'Verdana', 'Geneva', 'Lucid', 'Arial', 'Helvetica', 'Avant Garde', sans-serif; text-anchor: start" x="404.148438" y="38.916562" transform="rotate(-0 404.148438 38.916562)">Rango 95% runs</text>
    </g>
    <g id="line2d_33">
     <path d="M 376.148438 50.094687 
L 386.148438 50.094687 
L 396.148438 50.094687 
" style="fill: none; stroke: #d62728; stroke-width: 2; stroke-linecap: square"/>
    </g>
    <g id="text_20">
     <text style="font: 10px 'DejaVu Sans', 'Bitstream Vera Sans', 'Computer Modern Sans Serif', 'Lucida Grande', 'Verdana', 'Geneva', 'Lucid', 'Arial', 'Helvetica', 'Avant Garde', sans-serif; text-anchor: start" x="404.148438" y="53.594687" transform="rotate(-0 404.148438 53.594687)">Mejor run</text>
    </g>
    <g id="line2d_34">
     <path d="M 376.148438 64.772812 
L 386.148438 64.772812 
L 396.148438 64.772812 
" style="fill: none; stroke-dasharray: 4.44,1.92; stroke-dashoffset: 0; stroke: #808080; stroke-width: 1.2"/>
    </g>
    <g id="text_21">
     <text style="font: 10px 'DejaVu Sans', 'Bitstream Vera Sans', 'Computer Modern Sans Serif', 'Lucida Grande', 'Verdana', 'Geneva', 'Lucid', 'Arial', 'Helvetica', 'Avant Garde', sans-serif; text-anchor: start" x="404.148438" y="68.272812" transform="rotate(-0 404.148438 68.272812)">Medida</text>
    </g>
   </g>
  </g>
 </g>
 <defs>
  <clipPath id="pba91326aaa">
   <rect x="48.982813" y="22.318125" width="446.4" height="221.76"/>
  </clipPath>
 </defs>
</svg>
