<?xml version="1.0" encoding="utf-8" standalone="no"?>
<!DOCTYPE svg PUBLIC "-//W3C//DTD SVG 1.1//EN"
  "http://www.w3.org/Graphics/SVG/1.1/DTD/svg11.dtd">
<svg xmlns:xlink="http://www.w3.org/1999/xlink" width="494.203125pt" height="281.634375pt" viewBox="0 0 494.203125 281.634375" xmlns="http://www.w3.org/2000/svg" version="1.1">
 <metadata>
  <rdf:RDF xmlns:dc="http://purl.org/dc/elements/1.1/" xmlns:cc="http://creativecommons.org/ns#" xmlns:rdf="http://www.w3.org/1999/02/22-rdf-syntax-ns#">
   <cc:Work>
    <dc:type rdf:resource="http://purl.org/dc/dcmitype/StillImage"/>
    <dc:date>2025-11-28T07:42:36.858698</dc:date>
    <dc:format>image/svg+xml</dc:format>
    <dc:creator>
     <cc:Agent>
      <dc:title>Matplotlib v3.9.2, https://matplotlib.org/</dc:title>
     </cc:Agent>
    </dc:creator>
   </cc:Work>
  </rdf:RDF>
 </metadata>
 <defs>
  <style type="text/css">*{stroke-linejoin: round; stroke-linecap: butt}</style>
 </defs>
 <g id="figure_1">
  <g id="patch_1">
   <path d="M 0 281.634375 
L 494.203125 281.634375 
L 494.203125 0 
L 0 0 
z
" style="fill: #ffffff"/>
  </g>
  <g id="axes_1">
   <g id="patch_2">
    <path d="M 40.603125 244.078125 
L 487.003125 244.078125 
L 487.003125 22.318125 
L 40.603125 22.318125 
z
" style="fill: #ffffff"/>
   </g>
   <g id="PolyCollection_1">
    <defs>
     <path id="mfc323c0e85" d="M 60.894034 -47.63625 
L 60.894034 -47.63625 
L 61.300258 -106.199252 
L 61.706483 -154.197011 
L 62.112707 -191.659547 
L 62.518932 -219.017098 
L 62.925156 -237.017308 
L 63.331381 -246.642344 
L 63.737605 -248.287 
L 64.143829 -244.069034 
L 64.550054 -236.090275 
L 64.956278 -225.372823 
L 65.362503 -212.398977 
L 65.768727 -199.332921 
L 66.174951 -188.551594 
L 66.581176 -182.097953 
L 66.9874 -181.206459 
L 67.393624 -185.61288 
L 67.799849 -193.692846 
L 68.206074 -203.268964 
L 68.612298 -212.350403 
L 69.018522 -219.468099 
L 69.424747 -223.732161 
L 69.830971 -224.748539 
L 70.237195 -222.557343 
L 70.64342 -217.547746 
L 71.049644 -210.36631 
L 71.455868 -201.826396 
L 71.862093 -192.836192 
L 72.268317 -184.352483 
L 72.674542 -177.362157 
L 73.080766 -172.844156 
L 73.486991 -171.587178 
L 73.893215 -173.932256 
L 74.299439 -179.595785 
L 74.705663 -187.745657 
L 75.111887 -197.239055 
L 75.518113 -206.907209 
L 75.924337 -215.707748 
L 76.330561 -222.805099 
L 76.736786 -227.600919 
L 77.14301 -229.734199 
L 77.549234 -229.067995 
L 77.95546 -225.682928 
L 78.361684 -219.852486 
L 78.767908 -212.004726 
L 79.174132 -202.771763 
L 79.580356 -192.905809 
L 79.98658 -183.269601 
L 80.392806 -174.777099 
L 80.79903 -168.332427 
L 81.205254 -164.627856 
L 81.611479 -163.983136 
L 82.017703 -166.241104 
L 82.423927 -170.817611 
L 82.830151 -176.887608 
L 83.236377 -183.66529 
L 83.642601 -190.33937 
L 84.048825 -196.313215 
L 84.455049 -201.166101 
L 84.861273 -204.609518 
L 85.267498 -206.493019 
L 85.673723 -206.781643 
L 86.079947 -205.583202 
L 86.486172 -203.052342 
L 86.892396 -199.388121 
L 87.29862 -194.868642 
L 87.704844 -189.808496 
L 88.111068 -184.528662 
L 88.517292 -179.334748 
L 88.923517 -174.496177 
L 89.329741 -170.216891 
L 89.735968 -166.608439 
L 90.142192 -163.43242 
L 90.548416 -160.495015 
L 90.95464 -157.824535 
L 91.360865 -155.611187 
L 91.767089 -153.721755 
L 92.173313 -152.008124 
L 92.579537 -150.328659 
L 92.985761 -148.561934 
L 93.391985 -146.61101 
L 93.79821 -144.415286 
L 94.204434 -141.942825 
L 94.610658 -139.185903 
L 95.016885 -136.15753 
L 95.423109 -132.886254 
L 95.829333 -129.410833 
L 96.235558 -125.775097 
L 96.641782 -122.025523 
L 97.048006 -118.210864 
L 97.45423 -114.3768 
L 97.860454 -110.567463 
L 98.266678 -106.825851 
L 98.672903 -103.194687 
L 99.079127 -99.717207 
L 99.485351 -96.437455 
L 99.891578 -93.399638 
L 100.297802 -90.646413 
L 100.704026 -88.21541 
L 101.110251 -86.134833 
L 101.516475 -84.418507 
L 101.922699 -83.061657 
L 102.328923 -82.038999 
L 102.735147 -81.304299 
L 103.141371 -80.782706 
L 103.547596 -80.413771 
L 103.95382 -80.139144 
L 104.360044 -79.906546 
L 104.766268 -79.652013 
L 105.172495 -79.336283 
L 105.578719 -78.929247 
L 105.984944 -78.403911 
L 106.391168 -77.742872 
L 106.797392 -76.936735 
L 107.203616 -75.981471 
L 107.60984 -74.87639 
L 108.016064 -73.639864 
L 108.422289 -72.299964 
L 108.828513 -70.883629 
L 109.234737 -69.422263 
L 109.640961 -67.950084 
L 110.047185 -66.504939 
L 110.453412 -65.137009 
L 110.859637 -63.87807 
L 111.265861 -62.764784 
L 111.672085 -61.834356 
L 112.078309 -61.120835 
L 112.484533 -60.636975 
L 112.890757 -60.374005 
L 113.296981 -60.297791 
L 113.703206 -60.37151 
L 114.10943 -60.562125 
L 114.515654 -60.813965 
L 114.921878 -61.087578 
L 115.328102 -61.351956 
L 115.734326 -61.584987 
L 116.140551 -61.772849 
L 116.546775 -61.907649 
L 116.952999 -61.98949 
L 117.359223 -62.023451 
L 117.765447 -62.020837 
L 118.171678 -61.992713 
L 118.577902 -61.946589 
L 118.984126 -61.889244 
L 119.39035 -61.836622 
L 119.796574 -61.800909 
L 120.202798 -61.788372 
L 120.609022 -61.797424 
L 121.015247 -61.844729 
L 121.421471 -61.916897 
L 121.827695 -62.007805 
L 122.233919 -62.116777 
L 122.640143 -62.223189 
L 123.046367 -62.32945 
L 123.452592 -62.432657 
L 123.858816 -62.531349 
L 124.26504 -62.60814 
L 124.671264 -62.660839 
L 125.077488 -62.685338 
L 125.483712 -62.678693 
L 125.889937 -62.639003 
L 126.296161 -62.567241 
L 126.702385 -62.464948 
L 127.108609 -62.33197 
L 127.514833 -62.172618 
L 127.921057 -61.900231 
L 128.327282 -61.591861 
L 128.733512 -61.303806 
L 129.139736 -61.044049 
L 129.54596 -60.819885 
L 129.952184 -60.635952 
L 130.358408 -60.493938 
L 130.764633 -60.393023 
L 131.170857 -60.330189 
L 131.577081 -60.300713 
L 131.983305 -60.298784 
L 132.389529 -60.26055 
L 132.795753 -60.207042 
L 133.201978 -60.173613 
L 133.608202 -60.158125 
L 134.014426 -60.158136 
L 134.42065 -60.171977 
L 134.826874 -60.196437 
L 135.233098 -60.228932 
L 135.639323 -60.267408 
L 136.045547 -60.31021 
L 136.451771 -60.355972 
L 136.857995 -60.403656 
L 137.264219 -60.452511 
L 137.670443 -60.502015 
L 138.076668 -60.551819 
L 138.482892 -60.601674 
L 138.889122 -60.651141 
L 139.295346 -60.700103 
L 139.70157 -60.748431 
L 140.107794 -60.79581 
L 140.514019 -60.841827 
L 140.920243 -60.885994 
L 141.326467 -60.927749 
L 141.732691 -60.966475 
L 142.138915 -61.001541 
L 142.545139 -61.032326 
L 142.951364 -61.058247 
L 143.357588 -61.078804 
L 143.763812 -61.093176 
L 144.170036 -61.101454 
L 144.57626 -61.102787 
L 144.982484 -61.098217 
L 145.388709 -61.087917 
L 145.794933 -61.060259 
L 146.201157 -61.040598 
L 146.607381 -60.995809 
L 147.013605 -60.935237 
L 147.419829 -60.87466 
L 147.826054 -60.818246 
L 148.232278 -60.767098 
L 148.638502 -60.722034 
L 149.044726 -60.683581 
L 149.450956 -60.651886 
L 149.85718 -60.626794 
L 150.263405 -60.608393 
L 150.669629 -60.5963 
L 151.075853 -60.590019 
L 151.482077 -60.58897 
L 151.888301 -60.592089 
L 152.294525 -60.59447 
L 152.70075 -60.593937 
L 153.106974 -60.588207 
L 153.513198 -60.585238 
L 153.919422 -60.582948 
L 154.325646 -60.583597 
L 154.73187 -60.586929 
L 155.138095 -60.592666 
L 155.544319 -60.600524 
L 155.950543 -60.610212 
L 156.356767 -60.621443 
L 156.762991 -60.633933 
L 157.169215 -60.647405 
L 157.57544 -60.661596 
L 157.981664 -60.676254 
L 158.387888 -60.691137 
L 158.794112 -60.706012 
L 159.200336 -60.720664 
L 159.60656 -60.734886 
L 160.012791 -60.748488 
L 160.419015 -60.761292 
L 160.825239 -60.77314 
L 161.231463 -60.783892 
L 161.637687 -60.793426 
L 162.043911 -60.801641 
L 162.450136 -60.808459 
L 162.85636 -60.813828 
L 163.262584 -60.817721 
L 163.668808 -60.820137 
L 164.075032 -60.821097 
L 164.481256 -60.820653 
L 164.887481 -60.816299 
L 165.293705 -60.804751 
L 165.699929 -60.800832 
L 166.106153 -60.795934 
L 166.512377 -60.790191 
L 166.918601 -60.783752 
L 167.324826 -60.775853 
L 167.73105 -60.767631 
L 168.137274 -60.75946 
L 168.543498 -60.75136 
L 168.949722 -60.744477 
L 169.355946 -60.737658 
L 169.762171 -60.731447 
L 170.168395 -60.725184 
L 170.574619 -60.718987 
L 170.980843 -60.71338 
L 171.387067 -60.708425 
L 171.793291 -60.704168 
L 172.199516 -60.705259 
L 172.60574 -60.705224 
L 173.011964 -60.704089 
L 173.418188 -60.702819 
L 173.824412 -60.702269 
L 174.230636 -60.702403 
L 174.636861 -60.703176 
L 175.043085 -60.704533 
L 175.449321 -60.706418 
L 175.855545 -60.708763 
L 176.261769 -60.711503 
L 176.667993 -60.714569 
L 177.074218 -60.717891 
L 177.480442 -60.7214 
L 177.886666 -60.725024 
L 178.29289 -60.728698 
L 178.699114 -60.73236 
L 179.105338 -60.735949 
L 179.511563 -60.739412 
L 179.917787 -60.742698 
L 180.324011 -60.745762 
L 180.730235 -60.748565 
L 181.136459 -60.751078 
L 181.542683 -60.753273 
L 181.948908 -60.755131 
L 182.355132 -60.756638 
L 182.761356 -60.75779 
L 183.16758 -60.758581 
L 183.573804 -60.759021 
L 183.980028 -60.759122 
L 184.386253 -60.7589 
L 184.792477 -60.758338 
L 185.198701 -60.756865 
L 185.604925 -60.755244 
L 186.011149 -60.753512 
L 186.417373 -60.751225 
L 186.823598 -60.748793 
L 187.229822 -60.746621 
L 187.636046 -60.744735 
L 188.04227 -60.743151 
L 188.448494 -60.741881 
L 188.854718 -60.740929 
L 189.260943 -60.739822 
L 189.667167 -60.738547 
L 190.073391 -60.737434 
L 190.479615 -60.73649 
L 190.885839 -60.735676 
L 191.292063 -60.734541 
L 191.698287 -60.733571 
L 192.104512 -60.732774 
L 192.510736 -60.732155 
L 192.91696 -60.731712 
L 193.323184 -60.731444 
L 193.729408 -60.731343 
L 194.135632 -60.731404 
L 194.541857 -60.731615 
L 194.948081 -60.731964 
L 195.354305 -60.732435 
L 195.760529 -60.733012 
L 196.166765 -60.733681 
L 196.57299 -60.734425 
L 196.979214 -60.735227 
L 197.385438 -60.736071 
L 197.791662 -60.736938 
L 198.197886 -60.737812 
L 198.60411 -60.738678 
L 199.010335 -60.739523 
L 199.416559 -60.740335 
L 199.822783 -60.741101 
L 200.229007 -60.741813 
L 200.635231 -60.742459 
L 201.041455 -60.743035 
L 201.44768 -60.743534 
L 201.853904 -60.743951 
L 202.260128 -60.744287 
L 202.666352 -60.744537 
L 203.072576 -60.744703 
L 203.4788 -60.744787 
L 203.885025 -60.74479 
L 204.291249 -60.744718 
L 204.697473 -60.744575 
L 205.103697 -60.744369 
L 205.509921 -60.744105 
L 205.916145 -60.743793 
L 206.322369 -60.743443 
L 206.728594 -60.743061 
L 207.134818 -60.742656 
L 207.541042 -60.742237 
L 207.947266 -60.741811 
L 208.35349 -60.741387 
L 208.759714 -60.74097 
L 209.165939 -60.740568 
L 209.572163 -60.740185 
L 209.978387 -60.739828 
L 210.384611 -60.739503 
L 210.790835 -60.739211 
L 211.197059 -60.738955 
L 211.603284 -60.738739 
L 212.009508 -60.738561 
L 212.415732 -60.738427 
L 212.821956 -60.738332 
L 213.22818 -60.738279 
L 213.634404 -60.738264 
L 214.040629 -60.738286 
L 214.446853 -60.738343 
L 214.853077 -60.73843 
L 215.259301 -60.738547 
L 215.665525 -60.738688 
L 216.071749 -60.738849 
L 216.477974 -60.739027 
L 216.88421 -60.739216 
L 217.290434 -60.739414 
L 217.696658 -60.73962 
L 218.102882 -60.739827 
L 218.509107 -60.740033 
L 218.915331 -60.740231 
L 219.321555 -60.740419 
L 219.727779 -60.740598 
L 220.134003 -60.740761 
L 220.540227 -60.740906 
L 220.946451 -60.741035 
L 221.352676 -60.741144 
L 221.7589 -60.741237 
L 222.165124 -60.741309 
L 222.571348 -60.741361 
L 222.977572 -60.741396 
L 223.383796 -60.74141 
L 223.790021 -60.741406 
L 224.196245 -60.741385 
L 224.602469 -60.741346 
L 225.008693 -60.741292 
L 225.414917 -60.741227 
L 225.821141 -60.741151 
L 226.227366 -60.741067 
L 226.63359 -60.740976 
L 227.039814 -60.740881 
L 227.446038 -60.740783 
L 227.852262 -60.740688 
L 228.258486 -60.740593 
L 228.664711 -60.740503 
L 229.070935 -60.740415 
L 229.477159 -60.740331 
L 229.883383 -60.740252 
L 230.289607 -60.740178 
L 230.695831 -60.74011 
L 231.102056 -60.740051 
L 231.50828 -60.740001 
L 231.914504 -60.739962 
L 232.320728 -60.739932 
L 232.726952 -60.739911 
L 233.133176 -60.739901 
L 233.539401 -60.7399 
L 233.945625 -60.739907 
L 234.351849 -60.739923 
L 234.758073 -60.739944 
L 235.164297 -60.73997 
L 235.570521 -60.74 
L 235.976746 -60.740034 
L 236.38297 -60.740073 
L 236.789194 -60.740117 
L 237.195418 -60.740163 
L 237.601642 -60.740212 
L 238.007878 -60.74026 
L 238.414103 -60.740309 
L 238.820327 -60.740355 
L 239.226551 -60.7404 
L 239.632775 -60.740443 
L 240.038999 -60.740483 
L 240.445223 -60.740518 
L 240.851448 -60.740548 
L 241.257672 -60.740573 
L 241.663896 -60.740592 
L 242.07012 -60.740604 
L 242.476344 -60.740613 
L 242.882568 -60.740619 
L 243.288793 -60.740621 
L 243.695017 -60.740623 
L 244.101241 -60.740621 
L 244.507465 -60.740615 
L 244.913689 -60.740604 
L 245.319913 -60.74059 
L 245.726138 -60.740574 
L 246.132362 -60.740554 
L 246.538586 -60.740532 
L 246.94481 -60.740509 
L 247.351034 -60.740483 
L 247.757258 -60.740458 
L 248.163483 -60.740434 
L 248.569707 -60.740409 
L 248.975931 -60.740386 
L 249.382155 -60.740364 
L 249.788379 -60.740346 
L 250.194603 -60.740329 
L 250.600828 -60.740313 
L 251.007052 -60.740299 
L 251.413276 -60.740288 
L 251.8195 -60.740281 
L 252.225724 -60.740277 
L 252.631948 -60.740276 
L 253.038173 -60.740276 
L 253.444397 -60.740275 
L 253.850621 -60.740275 
L 254.256845 -60.740277 
L 254.663069 -60.74028 
L 255.069293 -60.740286 
L 255.475518 -60.740294 
L 255.881742 -60.740305 
L 256.287966 -60.740318 
L 256.69419 -60.740333 
L 257.100414 -60.740346 
L 257.506638 -60.740357 
L 257.912863 -60.740365 
L 258.319087 -60.740373 
L 258.725323 -60.740379 
L 259.131547 -60.740387 
L 259.537771 -60.740395 
L 259.943995 -60.740404 
L 260.35022 -60.740414 
L 260.756444 -60.740422 
L 261.162668 -60.740428 
L 261.568892 -60.74043 
L 261.975116 -60.740433 
L 262.38134 -60.740434 
L 262.787565 -60.740436 
L 263.193789 -60.740437 
L 263.600013 -60.740436 
L 264.006237 -60.740435 
L 264.412461 -60.740431 
L 264.818685 -60.74043 
L 265.22491 -60.740426 
L 265.631134 -60.740423 
L 266.037358 -60.740417 
L 266.443582 -60.740412 
L 266.849806 -60.740405 
L 267.25603 -60.740395 
L 267.662255 -60.740389 
L 268.068479 -60.740382 
L 268.474703 -60.740378 
L 268.880927 -60.740376 
L 269.287151 -60.740374 
L 269.693375 -60.740373 
L 270.0996 -60.740368 
L 270.505824 -60.740366 
L 270.912048 -60.740359 
L 271.318272 -60.740355 
L 271.724496 -60.740353 
L 272.13072 -60.740351 
L 272.536945 -60.740352 
L 272.943169 -60.740354 
L 273.349393 -60.740359 
L 273.755617 -60.740364 
L 274.161841 -60.740368 
L 274.568065 -60.740372 
L 274.97429 -60.740374 
L 275.380514 -60.740375 
L 275.786738 -60.740376 
L 276.192962 -60.740375 
L 276.599186 -60.740374 
L 277.00541 -60.740375 
L 277.411634 -60.740375 
L 277.817859 -60.740375 
L 278.224083 -60.740375 
L 278.630307 -60.740375 
L 279.036531 -60.740375 
L 279.442755 -60.740376 
L 279.849004 -60.740377 
L 280.255228 -60.740378 
L 280.661452 -60.740379 
L 281.067676 -60.740381 
L 281.4739 -60.740382 
L 281.880124 -60.740383 
L 282.286349 -60.740384 
L 282.692573 -60.740385 
L 283.098797 -60.740385 
L 283.505021 -60.740385 
L 283.911245 -60.740385 
L 284.317469 -60.740385 
L 284.723694 -60.740384 
L 285.129918 -60.740383 
L 285.536142 -60.740382 
L 285.942366 -60.740381 
L 286.34859 -60.74038 
L 286.754814 -60.74038 
L 287.161039 -60.74038 
L 287.567263 -60.740379 
L 287.973487 -60.740379 
L 288.379711 -60.740379 
L 288.785935 -60.740379 
L 289.192159 -60.740378 
L 289.598384 -60.740378 
L 290.004608 -60.740378 
L 290.410832 -60.740378 
L 290.817056 -60.740378 
L 291.22328 -60.740378 
L 291.629504 -60.740378 
L 292.035729 -60.740378 
L 292.441953 -60.740378 
L 292.848177 -60.740378 
L 293.254401 -60.740378 
L 293.660625 -60.74038 
L 294.066849 -60.740381 
L 294.473074 -60.740381 
L 294.879298 -60.740382 
L 295.285522 -60.740382 
L 295.691746 -60.740383 
L 296.09797 -60.740384 
L 296.504194 -60.740385 
L 296.910419 -60.740386 
L 297.316643 -60.740387 
L 297.722867 -60.740388 
L 298.129091 -60.740389 
L 298.535315 -60.74039 
L 298.941539 -60.74039 
L 299.347764 -60.74039 
L 299.753988 -60.74039 
L 300.160212 -60.74039 
L 300.566436 -60.74039 
L 300.97266 -60.74039 
L 301.378884 -60.74039 
L 301.785109 -60.740389 
L 302.191333 -60.740388 
L 302.597557 -60.740385 
L 303.003781 -60.740383 
L 303.410005 -60.740379 
L 303.816229 -60.740373 
L 304.222454 -60.740368 
L 304.628678 -60.740365 
L 305.034902 -60.740361 
L 305.441126 -60.740358 
L 305.84735 -60.740355 
L 306.253574 -60.740353 
L 306.659799 -60.740351 
L 307.066023 -60.740351 
L 307.472247 -60.740352 
L 307.878471 -60.740352 
L 308.284695 -60.740354 
L 308.690919 -60.740356 
L 309.097143 -60.740359 
L 309.503368 -60.740364 
L 309.909592 -60.740368 
L 310.315816 -60.740372 
L 310.72204 -60.740377 
L 311.128264 -60.740378 
L 311.534488 -60.740378 
L 311.940713 -60.740378 
L 312.346937 -60.740378 
L 312.753161 -60.740379 
L 313.159385 -60.740379 
L 313.565609 -60.740379 
L 313.971833 -60.740379 
L 314.378058 -60.740379 
L 314.784282 -60.74038 
L 315.190506 -60.74038 
L 315.59673 -60.740379 
L 316.002954 -60.740379 
L 316.409178 -60.740379 
L 316.815403 -60.740377 
L 317.221627 -60.740376 
L 317.627851 -60.740374 
L 318.034075 -60.740374 
L 318.440299 -60.740374 
L 318.846523 -60.740374 
L 319.252748 -60.740374 
L 319.658972 -60.740374 
L 320.065196 -60.740374 
L 320.47142 -60.740374 
L 320.877644 -60.740374 
L 321.283893 -60.740373 
L 321.690117 -60.74037 
L 322.096341 -60.740367 
L 322.502565 -60.740364 
L 322.908789 -60.740363 
L 323.315013 -60.740361 
L 323.721238 -60.740361 
L 324.127462 -60.740363 
L 324.533686 -60.740364 
L 324.93991 -60.740365 
L 325.346134 -60.740367 
L 325.752358 -60.740369 
L 326.158583 -60.740371 
L 326.564807 -60.740375 
L 326.971031 -60.740377 
L 327.377255 -60.740378 
L 327.783479 -60.740378 
L 328.189703 -60.740378 
L 328.595928 -60.740378 
L 329.002152 -60.740378 
L 329.408376 -60.740378 
L 329.8146 -60.740378 
L 330.220824 -60.740378 
L 330.627048 -60.740378 
L 331.033273 -60.740379 
L 331.439497 -60.740381 
L 331.845721 -60.740383 
L 332.251945 -60.740385 
L 332.658169 -60.740387 
L 333.064393 -60.740388 
L 333.470618 -60.74039 
L 333.876842 -60.74039 
L 334.283066 -60.740391 
L 334.68929 -60.740392 
L 335.095514 -60.740393 
L 335.501738 -60.740392 
L 335.907963 -60.740392 
L 336.314187 -60.740391 
L 336.720411 -60.740391 
L 337.126635 -60.74039 
L 337.532859 -60.74039 
L 337.939083 -60.74039 
L 338.345307 -60.74039 
L 338.751532 -60.740391 
L 339.157756 -60.740392 
L 339.56398 -60.740393 
L 339.970204 -60.740394 
L 340.376428 -60.740393 
L 340.782652 -60.740394 
L 341.188877 -60.740395 
L 341.595101 -60.740395 
L 342.001325 -60.740395 
L 342.407549 -60.740396 
L 342.813773 -60.740396 
L 343.219997 -60.740394 
L 343.626222 -60.740393 
L 344.032446 -60.740391 
L 344.43867 -60.740389 
L 344.844894 -60.740388 
L 345.251118 -60.740388 
L 345.657342 -60.740386 
L 346.063567 -60.740384 
L 346.469791 -60.740382 
L 346.876015 -60.740383 
L 347.282239 -60.740385 
L 347.688463 -60.740387 
L 348.094687 -60.740389 
L 348.500912 -60.740391 
L 348.907136 -60.740393 
L 349.31336 -60.740395 
L 349.719584 -60.740399 
L 350.125808 -60.7404 
L 350.532032 -60.7404 
L 350.938257 -60.7404 
L 351.344481 -60.7404 
L 351.750705 -60.740401 
L 352.156929 -60.740401 
L 352.563153 -60.740401 
L 352.969377 -60.7404 
L 353.375602 -60.740399 
L 353.781826 -60.740398 
L 354.18805 -60.740398 
L 354.594274 -60.740398 
L 355.000498 -60.740398 
L 355.406722 -60.740397 
L 355.812947 -60.740397 
L 356.219171 -60.740397 
L 356.625395 -60.740397 
L 357.031619 -60.740397 
L 357.437843 -60.740398 
L 357.844067 -60.740397 
L 358.250292 -60.740396 
L 358.656516 -60.740393 
L 359.06274 -60.740391 
L 359.468964 -60.740388 
L 359.875188 -60.740385 
L 360.281412 -60.740384 
L 360.687637 -60.740382 
L 361.093861 -60.740381 
L 361.500085 -60.74038 
L 361.906309 -60.740379 
L 362.312533 -60.74038 
L 362.718782 -60.740381 
L 363.125006 -60.740383 
L 363.53123 -60.740385 
L 363.937454 -60.740388 
L 364.343678 -60.740391 
L 364.749902 -60.740393 
L 365.156127 -60.740395 
L 365.562351 -60.740396 
L 365.968575 -60.740397 
L 366.374799 -60.740398 
L 366.781023 -60.7404 
L 367.187247 -60.7404 
L 367.593471 -60.7404 
L 367.999696 -60.7404 
L 368.40592 -60.740399 
L 368.812144 -60.740398 
L 369.218368 -60.740397 
L 369.624592 -60.740396 
L 370.030816 -60.740396 
L 370.437041 -60.740396 
L 370.843265 -60.740396 
L 371.249489 -60.740397 
L 371.655713 -60.740398 
L 372.061937 -60.740398 
L 372.468161 -60.740399 
L 372.874386 -60.740401 
L 373.28061 -60.740401 
L 373.686834 -60.740402 
L 374.093058 -60.740402 
L 374.499282 -60.740401 
L 374.905506 -60.7404 
L 375.311731 -60.740399 
L 375.717955 -60.740397 
L 376.124179 -60.740395 
L 376.530403 -60.740393 
L 376.936627 -60.740393 
L 377.342851 -60.74039 
L 377.749076 -60.740388 
L 378.1553 -60.740385 
L 378.561524 -60.740383 
L 378.967748 -60.740382 
L 379.373972 -60.740381 
L 379.780196 -60.740381 
L 380.186421 -60.740382 
L 380.592645 -60.740382 
L 380.998869 -60.740383 
L 381.405093 -60.740384 
L 381.811317 -60.740384 
L 382.217541 -60.740385 
L 382.623766 -60.740385 
L 383.02999 -60.740385 
L 383.436214 -60.740386 
L 383.842438 -60.740388 
L 384.248662 -60.74039 
L 384.654886 -60.740392 
L 385.061111 -60.740394 
L 385.467335 -60.740395 
L 385.873559 -60.740396 
L 386.279783 -60.740397 
L 386.686007 -60.740397 
L 387.092231 -60.740398 
L 387.498456 -60.740397 
L 387.90468 -60.740397 
L 388.310904 -60.740398 
L 388.717128 -60.740399 
L 389.123352 -60.740399 
L 389.529576 -60.740399 
L 389.935801 -60.740398 
L 390.342025 -60.740399 
L 390.748249 -60.7404 
L 391.154473 -60.740402 
L 391.560697 -60.740404 
L 391.966921 -60.740407 
L 392.373146 -60.74041 
L 392.77937 -60.740413 
L 393.185594 -60.740415 
L 393.591818 -60.740416 
L 393.998042 -60.740417 
L 394.404266 -60.740418 
L 394.81049 -60.740417 
L 395.216715 -60.740417 
L 395.622939 -60.740416 
L 396.029163 -60.740416 
L 396.435387 -60.740414 
L 396.841611 -60.740412 
L 397.247835 -60.740407 
L 397.65406 -60.7404 
L 398.060284 -60.740394 
L 398.466508 -60.740387 
L 398.872732 -60.74038 
L 399.278956 -60.740374 
L 399.68518 -60.740369 
L 400.091405 -60.740366 
L 400.497629 -60.740363 
L 400.903853 -60.740363 
L 401.310077 -60.740364 
L 401.716301 -60.740369 
L 402.122525 -60.740375 
L 402.52875 -60.740379 
L 402.934974 -60.740382 
L 403.341198 -60.740384 
L 403.747422 -60.740386 
L 404.153646 -60.740386 
L 404.559895 -60.740387 
L 404.966119 -60.740387 
L 405.372343 -60.740388 
L 405.778567 -60.740391 
L 406.184791 -60.740393 
L 406.591015 -60.740396 
L 406.99724 -60.740397 
L 407.403464 -60.740399 
L 407.809688 -60.740401 
L 408.215912 -60.740403 
L 408.622136 -60.740403 
L 409.02836 -60.740404 
L 409.434585 -60.740404 
L 409.840809 -60.740404 
L 410.247033 -60.740403 
L 410.653257 -60.740402 
L 411.059481 -60.7404 
L 411.465705 -60.7404 
L 411.87193 -60.740398 
L 412.278154 -60.740396 
L 412.684378 -60.740396 
L 413.090602 -60.740395 
L 413.496826 -60.740394 
L 413.90305 -60.740393 
L 414.309275 -60.740392 
L 414.715499 -60.740391 
L 415.121723 -60.740391 
L 415.527947 -60.74039 
L 415.934171 -60.740387 
L 416.340395 -60.740385 
L 416.74662 -60.740383 
L 417.152844 -60.740381 
L 417.559068 -60.740381 
L 417.965292 -60.74038 
L 418.371516 -60.740382 
L 418.77774 -60.740383 
L 419.183965 -60.740384 
L 419.590189 -60.740385 
L 419.996413 -60.740386 
L 420.402637 -60.740387 
L 420.808861 -60.740388 
L 421.215085 -60.740389 
L 421.62131 -60.74039 
L 422.027534 -60.740391 
L 422.433758 -60.740393 
L 422.839982 -60.740394 
L 423.246206 -60.740394 
L 423.65243 -60.740394 
L 424.058654 -60.740394 
L 424.464879 -60.740394 
L 424.871103 -60.740394 
L 425.277327 -60.740394 
L 425.683551 -60.740395 
L 426.089775 -60.740395 
L 426.495999 -60.740396 
L 426.902224 -60.740396 
L 427.308448 -60.740397 
L 427.714672 -60.740397 
L 428.120896 -60.740395 
L 428.52712 -60.740394 
L 428.933344 -60.740393 
L 429.339569 -60.740393 
L 429.745793 -60.740392 
L 430.152017 -60.74039 
L 430.558241 -60.740389 
L 430.964465 -60.740388 
L 431.370689 -60.740387 
L 431.776914 -60.740386 
L 432.183138 -60.740386 
L 432.589362 -60.740385 
L 432.995586 -60.740384 
L 433.40181 -60.740384 
L 433.808034 -60.740384 
L 434.214259 -60.740385 
L 434.620483 -60.740386 
L 435.026707 -60.740388 
L 435.432931 -60.74039 
L 435.839155 -60.740392 
L 436.245379 -60.740394 
L 436.651604 -60.740396 
L 437.057828 -60.740396 
L 437.464052 -60.740395 
L 437.870276 -60.740391 
L 438.2765 -60.740388 
L 438.682724 -60.740385 
L 439.088949 -60.740383 
L 439.495173 -60.740381 
L 439.901397 -60.74038 
L 440.307621 -60.740379 
L 440.713845 -60.740378 
L 441.120069 -60.740379 
L 441.526294 -60.74038 
L 441.932518 -60.740381 
L 442.338742 -60.740382 
L 442.744966 -60.740383 
L 443.15119 -60.740384 
L 443.557414 -60.740384 
L 443.963639 -60.740385 
L 444.369863 -60.740385 
L 444.776087 -60.740386 
L 445.182311 -60.740386 
L 445.588535 -60.740387 
L 445.994784 -60.740386 
L 446.401008 -60.740386 
L 446.807232 -60.740386 
L 447.213456 -60.740385 
L 447.61968 -60.740384 
L 448.025904 -60.740384 
L 448.432129 -60.740383 
L 448.838353 -60.740383 
L 449.244577 -60.740382 
L 449.650801 -60.740382 
L 450.057025 -60.740382 
L 450.463249 -60.740382 
L 450.869474 -60.740381 
L 451.275698 -60.740382 
L 451.681922 -60.740382 
L 452.088146 -60.740384 
L 452.49437 -60.740385 
L 452.900594 -60.740386 
L 453.306818 -60.740387 
L 453.713043 -60.740387 
L 454.119267 -60.740387 
L 454.525491 -60.740387 
L 454.931715 -60.740388 
L 455.337939 -60.74039 
L 455.744163 -60.74039 
L 456.150388 -60.740391 
L 456.556612 -60.740391 
L 456.962836 -60.740392 
L 457.36906 -60.740394 
L 457.775284 -60.740395 
L 458.181508 -60.740397 
L 458.587733 -60.740397 
L 458.993957 -60.740397 
L 459.400181 -60.740398 
L 459.806405 -60.740399 
L 460.212629 -60.7404 
L 460.618853 -60.740402 
L 461.025078 -60.740404 
L 461.431302 -60.740406 
L 461.837526 -60.740407 
L 462.24375 -60.740408 
L 462.649974 -60.740407 
L 463.056198 -60.740405 
L 463.462423 -60.740404 
L 463.868647 -60.740402 
L 464.274871 -60.740402 
L 464.681095 -60.740401 
L 465.087319 -60.7404 
L 465.493543 -60.740399 
L 465.899768 -60.740398 
L 466.305992 -60.740398 
L 466.712216 -60.740396 
L 466.712216 -60.879964 
L 466.712216 -60.879964 
L 466.305992 -60.879964 
L 465.899768 -60.879963 
L 465.493543 -60.879963 
L 465.087319 -60.879959 
L 464.681095 -60.879955 
L 464.274871 -60.879951 
L 463.868647 -60.879948 
L 463.462423 -60.879947 
L 463.056198 -60.879947 
L 462.649974 -60.879947 
L 462.24375 -60.879948 
L 461.837526 -60.879948 
L 461.431302 -60.879949 
L 461.025078 -60.879949 
L 460.618853 -60.879948 
L 460.212629 -60.879947 
L 459.806405 -60.879943 
L 459.400181 -60.879941 
L 458.993957 -60.879939 
L 458.587733 -60.879939 
L 458.181508 -60.879939 
L 457.775284 -60.879941 
L 457.36906 -60.879946 
L 456.962836 -60.87995 
L 456.556612 -60.879952 
L 456.150388 -60.879954 
L 455.744163 -60.879954 
L 455.337939 -60.879952 
L 454.931715 -60.879949 
L 454.525491 -60.879946 
L 454.119267 -60.879941 
L 453.713043 -60.879939 
L 453.306818 -60.879937 
L 452.900594 -60.879937 
L 452.49437 -60.879939 
L 452.088146 -60.879941 
L 451.681922 -60.879946 
L 451.275698 -60.879948 
L 450.869474 -60.87995 
L 450.463249 -60.879951 
L 450.057025 -60.879951 
L 449.650801 -60.879948 
L 449.244577 -60.879947 
L 448.838353 -60.879943 
L 448.432129 -60.879941 
L 448.025904 -60.879941 
L 447.61968 -60.879944 
L 447.213456 -60.879947 
L 446.807232 -60.879952 
L 446.401008 -60.879958 
L 445.994784 -60.879963 
L 445.588535 -60.879965 
L 445.182311 -60.879966 
L 444.776087 -60.879963 
L 444.369863 -60.879959 
L 443.963639 -60.879955 
L 443.557414 -60.879951 
L 443.15119 -60.879947 
L 442.744966 -60.879945 
L 442.338742 -60.879943 
L 441.932518 -60.879945 
L 441.526294 -60.879947 
L 441.120069 -60.879951 
L 440.713845 -60.879954 
L 440.307621 -60.879958 
L 439.901397 -60.879961 
L 439.495173 -60.879963 
L 439.088949 -60.879968 
L 438.682724 -60.879968 
L 438.2765 -60.879966 
L 437.870276 -60.879963 
L 437.464052 -60.879962 
L 437.057828 -60.87996 
L 436.651604 -60.87996 
L 436.245379 -60.87996 
L 435.839155 -60.879962 
L 435.432931 -60.879963 
L 435.026707 -60.879967 
L 434.620483 -60.879968 
L 434.214259 -60.879968 
L 433.808034 -60.879966 
L 433.40181 -60.879964 
L 432.995586 -60.879963 
L 432.589362 -60.879959 
L 432.183138 -60.879956 
L 431.776914 -60.879952 
L 431.370689 -60.879952 
L 430.964465 -60.879952 
L 430.558241 -60.879955 
L 430.152017 -60.879959 
L 429.745793 -60.879965 
L 429.339569 -60.879971 
L 428.933344 -60.879978 
L 428.52712 -60.879983 
L 428.120896 -60.879986 
L 427.714672 -60.879986 
L 427.308448 -60.879984 
L 426.902224 -60.879978 
L 426.495999 -60.879971 
L 426.089775 -60.879964 
L 425.683551 -60.879957 
L 425.277327 -60.879952 
L 424.871103 -60.879948 
L 424.464879 -60.879947 
L 424.058654 -60.879947 
L 423.65243 -60.87995 
L 423.246206 -60.879954 
L 422.839982 -60.879959 
L 422.433758 -60.879963 
L 422.027534 -60.879966 
L 421.62131 -60.879964 
L 421.215085 -60.879963 
L 420.808861 -60.87996 
L 420.402637 -60.879956 
L 419.996413 -60.879952 
L 419.590189 -60.879948 
L 419.183965 -60.879945 
L 418.77774 -60.879945 
L 418.371516 -60.879945 
L 417.965292 -60.879945 
L 417.559068 -60.879945 
L 417.152844 -60.879945 
L 416.74662 -60.879945 
L 416.340395 -60.879945 
L 415.934171 -60.879945 
L 415.527947 -60.879945 
L 415.121723 -60.879945 
L 414.715499 -60.879945 
L 414.309275 -60.879945 
L 413.90305 -60.879947 
L 413.496826 -60.879948 
L 413.090602 -60.879952 
L 412.684378 -60.879956 
L 412.278154 -60.879958 
L 411.87193 -60.879958 
L 411.465705 -60.879958 
L 411.059481 -60.879957 
L 410.653257 -60.879958 
L 410.247033 -60.879958 
L 409.840809 -60.879958 
L 409.434585 -60.879956 
L 409.02836 -60.879953 
L 408.622136 -60.879949 
L 408.215912 -60.879945 
L 407.809688 -60.879941 
L 407.403464 -60.879939 
L 406.99724 -60.879939 
L 406.591015 -60.87994 
L 406.184791 -60.879941 
L 405.778567 -60.879943 
L 405.372343 -60.879945 
L 404.966119 -60.879948 
L 404.559895 -60.879952 
L 404.153646 -60.879958 
L 403.747422 -60.879963 
L 403.341198 -60.879969 
L 402.934974 -60.879974 
L 402.52875 -60.879977 
L 402.122525 -60.879975 
L 401.716301 -60.879974 
L 401.310077 -60.87997 
L 400.903853 -60.879967 
L 400.497629 -60.879963 
L 400.091405 -60.87996 
L 399.68518 -60.87996 
L 399.278956 -60.87996 
L 398.872732 -60.87996 
L 398.466508 -60.879961 
L 398.060284 -60.879963 
L 397.65406 -60.879966 
L 397.247835 -60.879969 
L 396.841611 -60.879972 
L 396.435387 -60.879972 
L 396.029163 -60.87997 
L 395.622939 -60.879966 
L 395.216715 -60.879962 
L 394.81049 -60.879958 
L 394.404266 -60.879957 
L 393.998042 -60.879956 
L 393.591818 -60.879957 
L 393.185594 -60.879958 
L 392.77937 -60.879958 
L 392.373146 -60.879958 
L 391.966921 -60.879957 
L 391.560697 -60.879958 
L 391.154473 -60.879959 
L 390.748249 -60.879961 
L 390.342025 -60.879962 
L 389.935801 -60.879962 
L 389.529576 -60.879962 
L 389.123352 -60.879962 
L 388.717128 -60.879962 
L 388.310904 -60.879958 
L 387.90468 -60.879954 
L 387.498456 -60.879952 
L 387.092231 -60.879951 
L 386.686007 -60.879951 
L 386.279783 -60.879952 
L 385.873559 -60.879954 
L 385.467335 -60.879958 
L 385.061111 -60.879961 
L 384.654886 -60.879963 
L 384.248662 -60.879964 
L 383.842438 -60.879963 
L 383.436214 -60.87996 
L 383.02999 -60.879956 
L 382.623766 -60.879952 
L 382.217541 -60.879951 
L 381.811317 -60.879949 
L 381.405093 -60.879948 
L 380.998869 -60.879948 
L 380.592645 -60.879948 
L 380.186421 -60.879951 
L 379.780196 -60.879952 
L 379.373972 -60.879954 
L 378.967748 -60.879956 
L 378.561524 -60.879957 
L 378.1553 -60.879957 
L 377.749076 -60.879956 
L 377.342851 -60.879954 
L 376.936627 -60.879951 
L 376.530403 -60.879948 
L 376.124179 -60.879945 
L 375.717955 -60.879943 
L 375.311731 -60.879943 
L 374.905506 -60.879944 
L 374.499282 -60.879944 
L 374.093058 -60.879945 
L 373.686834 -60.879947 
L 373.28061 -60.879951 
L 372.874386 -60.879953 
L 372.468161 -60.879958 
L 372.061937 -60.879963 
L 371.655713 -60.879969 
L 371.249489 -60.879972 
L 370.843265 -60.879972 
L 370.437041 -60.879971 
L 370.030816 -60.879968 
L 369.624592 -60.879963 
L 369.218368 -60.879958 
L 368.812144 -60.879954 
L 368.40592 -60.87995 
L 367.999696 -60.879947 
L 367.593471 -60.879945 
L 367.187247 -60.879944 
L 366.781023 -60.879945 
L 366.374799 -60.879947 
L 365.968575 -60.879948 
L 365.562351 -60.87995 
L 365.156127 -60.879952 
L 364.749902 -60.879955 
L 364.343678 -60.879958 
L 363.937454 -60.879963 
L 363.53123 -60.879969 
L 363.125006 -60.879971 
L 362.718782 -60.879974 
L 362.312533 -60.879975 
L 361.906309 -60.879974 
L 361.500085 -60.879972 
L 361.093861 -60.879968 
L 360.687637 -60.879964 
L 360.281412 -60.879962 
L 359.875188 -60.87996 
L 359.468964 -60.879959 
L 359.06274 -60.879961 
L 358.656516 -60.879965 
L 358.250292 -60.879969 
L 357.844067 -60.879972 
L 357.437843 -60.879974 
L 357.031619 -60.879974 
L 356.625395 -60.879972 
L 356.219171 -60.879968 
L 355.812947 -60.879966 
L 355.406722 -60.879963 
L 355.000498 -60.87996 
L 354.594274 -60.879957 
L 354.18805 -60.879955 
L 353.781826 -60.879953 
L 353.375602 -60.879953 
L 352.969377 -60.879954 
L 352.563153 -60.879958 
L 352.156929 -60.879963 
L 351.750705 -60.879967 
L 351.344481 -60.87997 
L 350.938257 -60.879971 
L 350.532032 -60.879973 
L 350.125808 -60.87997 
L 349.719584 -60.879966 
L 349.31336 -60.879962 
L 348.907136 -60.879957 
L 348.500912 -60.879953 
L 348.094687 -60.879949 
L 347.688463 -60.879947 
L 347.282239 -60.879946 
L 346.876015 -60.879945 
L 346.469791 -60.879945 
L 346.063567 -60.879945 
L 345.657342 -60.879945 
L 345.251118 -60.879946 
L 344.844894 -60.879947 
L 344.43867 -60.879948 
L 344.032446 -60.879948 
L 343.626222 -60.879951 
L 343.219997 -60.879953 
L 342.813773 -60.879956 
L 342.407549 -60.879956 
L 342.001325 -60.879958 
L 341.595101 -60.879957 
L 341.188877 -60.879954 
L 340.782652 -60.879952 
L 340.376428 -60.87995 
L 339.970204 -60.879949 
L 339.56398 -60.879951 
L 339.157756 -60.879954 
L 338.751532 -60.879956 
L 338.345307 -60.879957 
L 337.939083 -60.879955 
L 337.532859 -60.879955 
L 337.126635 -60.879953 
L 336.720411 -60.879952 
L 336.314187 -60.879951 
L 335.907963 -60.879951 
L 335.501738 -60.879951 
L 335.095514 -60.879953 
L 334.68929 -60.879956 
L 334.283066 -60.879958 
L 333.876842 -60.879962 
L 333.470618 -60.879965 
L 333.064393 -60.879966 
L 332.658169 -60.879966 
L 332.251945 -60.879964 
L 331.845721 -60.879962 
L 331.439497 -60.87996 
L 331.033273 -60.879958 
L 330.627048 -60.879955 
L 330.220824 -60.879952 
L 329.8146 -60.87995 
L 329.408376 -60.879949 
L 329.002152 -60.879948 
L 328.595928 -60.879949 
L 328.189703 -60.879951 
L 327.783479 -60.879955 
L 327.377255 -60.879959 
L 326.971031 -60.879961 
L 326.564807 -60.879963 
L 326.158583 -60.879962 
L 325.752358 -60.87996 
L 325.346134 -60.879956 
L 324.93991 -60.879953 
L 324.533686 -60.879949 
L 324.127462 -60.879947 
L 323.721238 -60.879945 
L 323.315013 -60.879943 
L 322.908789 -60.879942 
L 322.502565 -60.879941 
L 322.096341 -60.87994 
L 321.690117 -60.87994 
L 321.283893 -60.879941 
L 320.877644 -60.879943 
L 320.47142 -60.879944 
L 320.065196 -60.879945 
L 319.658972 -60.879947 
L 319.252748 -60.879948 
L 318.846523 -60.87995 
L 318.440299 -60.879951 
L 318.034075 -60.879951 
L 317.627851 -60.879953 
L 317.221627 -60.879954 
L 316.815403 -60.879955 
L 316.409178 -60.879953 
L 316.002954 -60.87995 
L 315.59673 -60.879948 
L 315.190506 -60.879945 
L 314.784282 -60.879943 
L 314.378058 -60.879943 
L 313.971833 -60.879944 
L 313.565609 -60.879944 
L 313.159385 -60.879943 
L 312.753161 -60.879942 
L 312.346937 -60.879942 
L 311.940713 -60.879943 
L 311.534488 -60.879942 
L 311.128264 -60.87994 
L 310.72204 -60.879938 
L 310.315816 -60.879936 
L 309.909592 -60.879933 
L 309.503368 -60.879931 
L 309.097143 -60.879932 
L 308.690919 -60.879932 
L 308.284695 -60.879932 
L 307.878471 -60.879935 
L 307.472247 -60.879937 
L 307.066023 -60.879939 
L 306.659799 -60.879941 
L 306.253574 -60.879942 
L 305.84735 -60.879942 
L 305.441126 -60.879939 
L 305.034902 -60.879939 
L 304.628678 -60.879937 
L 304.222454 -60.879935 
L 303.816229 -60.879933 
L 303.410005 -60.879932 
L 303.003781 -60.879931 
L 302.597557 -60.879929 
L 302.191333 -60.879929 
L 301.785109 -60.879927 
L 301.378884 -60.879927 
L 300.97266 -60.879927 
L 300.566436 -60.879929 
L 300.160212 -60.879932 
L 299.753988 -60.879936 
L 299.347764 -60.879939 
L 298.941539 -60.879943 
L 298.535315 -60.879945 
L 298.129091 -60.879949 
L 297.722867 -60.879953 
L 297.316643 -60.879956 
L 296.910419 -60.879961 
L 296.504194 -60.879965 
L 296.09797 -60.879967 
L 295.691746 -60.879968 
L 295.285522 -60.879969 
L 294.879298 -60.87997 
L 294.473074 -60.879973 
L 294.066849 -60.879975 
L 293.660625 -60.879978 
L 293.254401 -60.87998 
L 292.848177 -60.879981 
L 292.441953 -60.879983 
L 292.035729 -60.879985 
L 291.629504 -60.879984 
L 291.22328 -60.879982 
L 290.817056 -60.879979 
L 290.410832 -60.879976 
L 290.004608 -60.879974 
L 289.598384 -60.879971 
L 289.192159 -60.879967 
L 288.785935 -60.879961 
L 288.379711 -60.879954 
L 287.973487 -60.879944 
L 287.567263 -60.879935 
L 287.161039 -60.879928 
L 286.754814 -60.879921 
L 286.34859 -60.879914 
L 285.942366 -60.879907 
L 285.536142 -60.879902 
L 285.129918 -60.879899 
L 284.723694 -60.879899 
L 284.317469 -60.8799 
L 283.911245 -60.879902 
L 283.505021 -60.879905 
L 283.098797 -60.879909 
L 282.692573 -60.879915 
L 282.286349 -60.879922 
L 281.880124 -60.879932 
L 281.4739 -60.879939 
L 281.067676 -60.879946 
L 280.661452 -60.879955 
L 280.255228 -60.879963 
L 279.849004 -60.87997 
L 279.442755 -60.879975 
L 279.036531 -60.879981 
L 278.630307 -60.879985 
L 278.224083 -60.879989 
L 277.817859 -60.879995 
L 277.411634 -60.880001 
L 277.00541 -60.88001 
L 276.599186 -60.88002 
L 276.192962 -60.880028 
L 275.786738 -60.880035 
L 275.380514 -60.880041 
L 274.97429 -60.880043 
L 274.568065 -60.880045 
L 274.161841 -60.880044 
L 273.755617 -60.880043 
L 273.349393 -60.880037 
L 272.943169 -60.880032 
L 272.536945 -60.880024 
L 272.13072 -60.880014 
L 271.724496 -60.880003 
L 271.318272 -60.879991 
L 270.912048 -60.879978 
L 270.505824 -60.879963 
L 270.0996 -60.87995 
L 269.693375 -60.879933 
L 269.287151 -60.879918 
L 268.880927 -60.879904 
L 268.474703 -60.879889 
L 268.068479 -60.879872 
L 267.662255 -60.879856 
L 267.25603 -60.87984 
L 266.849806 -60.879827 
L 266.443582 -60.879812 
L 266.037358 -60.879802 
L 265.631134 -60.879794 
L 265.22491 -60.879788 
L 264.818685 -60.879786 
L 264.412461 -60.879788 
L 264.006237 -60.879794 
L 263.600013 -60.879802 
L 263.193789 -60.879813 
L 262.787565 -60.879827 
L 262.38134 -60.879841 
L 261.975116 -60.879859 
L 261.568892 -60.879881 
L 261.162668 -60.879903 
L 260.756444 -60.879928 
L 260.35022 -60.879957 
L 259.943995 -60.879987 
L 259.537771 -60.880018 
L 259.131547 -60.880049 
L 258.725323 -60.880079 
L 258.319087 -60.880106 
L 257.912863 -60.880134 
L 257.506638 -60.880159 
L 257.100414 -60.880183 
L 256.69419 -60.880204 
L 256.287966 -60.880222 
L 255.881742 -60.880235 
L 255.475518 -60.880244 
L 255.069293 -60.880248 
L 254.663069 -60.880245 
L 254.256845 -60.880236 
L 253.850621 -60.88022 
L 253.444397 -60.880197 
L 253.038173 -60.880167 
L 252.631948 -60.880131 
L 252.225724 -60.88009 
L 251.8195 -60.880044 
L 251.413276 -60.879994 
L 251.007052 -60.87994 
L 250.600828 -60.879882 
L 250.194603 -60.879819 
L 249.788379 -60.879756 
L 249.382155 -60.879691 
L 248.975931 -60.879628 
L 248.569707 -60.879571 
L 248.163483 -60.879519 
L 247.757258 -60.879474 
L 247.351034 -60.879438 
L 246.94481 -60.879411 
L 246.538586 -60.879391 
L 246.132362 -60.879379 
L 245.726138 -60.879378 
L 245.319913 -60.879386 
L 244.913689 -60.879405 
L 244.507465 -60.879434 
L 244.101241 -60.879475 
L 243.695017 -60.879528 
L 243.288793 -60.879591 
L 242.882568 -60.879666 
L 242.476344 -60.87975 
L 242.07012 -60.879842 
L 241.663896 -60.879941 
L 241.257672 -60.880046 
L 240.851448 -60.880154 
L 240.445223 -60.880266 
L 240.038999 -60.880376 
L 239.632775 -60.880483 
L 239.226551 -60.880585 
L 238.820327 -60.88068 
L 238.414103 -60.880767 
L 238.007878 -60.880841 
L 237.601642 -60.880902 
L 237.195418 -60.880949 
L 236.789194 -60.880979 
L 236.38297 -60.880991 
L 235.976746 -60.880984 
L 235.570521 -60.880954 
L 235.164297 -60.880907 
L 234.758073 -60.880836 
L 234.351849 -60.880744 
L 233.945625 -60.880632 
L 233.539401 -60.880501 
L 233.133176 -60.880351 
L 232.726952 -60.880184 
L 232.320728 -60.880006 
L 231.914504 -60.879817 
L 231.50828 -60.879621 
L 231.102056 -60.87942 
L 230.695831 -60.879217 
L 230.289607 -60.879018 
L 229.883383 -60.878825 
L 229.477159 -60.878644 
L 229.070935 -60.878481 
L 228.664711 -60.878339 
L 228.258486 -60.878222 
L 227.852262 -60.878132 
L 227.446038 -60.878073 
L 227.039814 -60.878047 
L 226.63359 -60.878055 
L 226.227366 -60.878102 
L 225.821141 -60.878187 
L 225.414917 -60.878312 
L 225.008693 -60.878474 
L 224.602469 -60.878673 
L 224.196245 -60.878909 
L 223.790021 -60.879178 
L 223.383796 -60.879476 
L 222.977572 -60.8798 
L 222.571348 -60.880143 
L 222.165124 -60.880503 
L 221.7589 -60.880871 
L 221.352676 -60.881244 
L 220.946451 -60.881611 
L 220.540227 -60.881966 
L 220.134003 -60.882299 
L 219.727779 -60.882602 
L 219.321555 -60.88287 
L 218.915331 -60.883094 
L 218.509107 -60.883266 
L 218.102882 -60.883384 
L 217.696658 -60.883441 
L 217.290434 -60.883434 
L 216.88421 -60.883359 
L 216.477974 -60.883212 
L 216.071749 -60.882995 
L 215.665525 -60.882708 
L 215.259301 -60.882351 
L 214.853077 -60.881928 
L 214.446853 -60.881444 
L 214.040629 -60.880906 
L 213.634404 -60.88032 
L 213.22818 -60.879697 
L 212.821956 -60.879046 
L 212.415732 -60.878379 
L 212.009508 -60.877707 
L 211.603284 -60.87704 
L 211.197059 -60.876394 
L 210.790835 -60.875782 
L 210.384611 -60.87522 
L 209.978387 -60.874721 
L 209.572163 -60.874297 
L 209.165939 -60.873962 
L 208.759714 -60.873725 
L 208.35349 -60.873596 
L 207.947266 -60.873585 
L 207.541042 -60.8737 
L 207.134818 -60.873944 
L 206.728594 -60.874319 
L 206.322369 -60.874827 
L 205.916145 -60.875462 
L 205.509921 -60.876221 
L 205.103697 -60.877096 
L 204.697473 -60.878076 
L 204.291249 -60.879147 
L 203.885025 -60.880292 
L 203.4788 -60.881493 
L 203.072576 -60.882732 
L 202.666352 -60.883982 
L 202.260128 -60.885223 
L 201.853904 -60.886428 
L 201.44768 -60.887574 
L 201.041455 -60.888632 
L 200.635231 -60.889576 
L 200.229007 -60.890381 
L 199.822783 -60.891022 
L 199.416559 -60.89148 
L 199.010335 -60.891735 
L 198.60411 -60.891773 
L 198.197886 -60.891582 
L 197.791662 -60.891153 
L 197.385438 -60.890486 
L 196.979214 -60.889578 
L 196.57299 -60.888437 
L 196.166765 -60.88707 
L 195.760529 -60.885496 
L 195.354305 -60.883735 
L 194.948081 -60.881814 
L 194.541857 -60.879758 
L 194.135632 -60.877603 
L 193.729408 -60.875381 
L 193.323184 -60.873132 
L 192.91696 -60.870896 
L 192.510736 -60.868717 
L 192.104512 -60.866638 
L 191.698287 -60.8647 
L 191.292063 -60.862954 
L 190.885839 -60.861443 
L 190.479615 -60.86021 
L 190.073391 -60.859295 
L 189.667167 -60.858737 
L 189.260943 -60.858562 
L 188.854718 -60.8588 
L 188.448494 -60.859471 
L 188.04227 -60.860587 
L 187.636046 -60.862155 
L 187.229822 -60.864168 
L 186.823598 -60.866615 
L 186.417373 -60.86947 
L 186.011149 -60.872705 
L 185.604925 -60.876272 
L 185.198701 -60.880122 
L 184.792477 -60.884192 
L 184.386253 -60.888413 
L 183.980028 -60.892709 
L 183.573804 -60.896961 
L 183.16758 -60.900953 
L 182.761356 -60.904766 
L 182.355132 -60.908321 
L 181.948908 -60.911593 
L 181.542683 -60.914419 
L 181.136459 -60.916717 
L 180.730235 -60.918414 
L 180.324011 -60.919448 
L 179.917787 -60.919766 
L 179.511563 -60.919333 
L 179.105338 -60.918123 
L 178.699114 -60.91613 
L 178.29289 -60.913381 
L 177.886666 -60.909954 
L 177.480442 -60.905558 
L 177.074218 -60.900486 
L 176.667993 -60.894803 
L 176.261769 -60.88859 
L 175.855545 -60.881938 
L 175.449321 -60.874949 
L 175.043085 -60.867732 
L 174.636861 -60.860404 
L 174.230636 -60.853091 
L 173.824412 -60.845921 
L 173.418188 -60.839025 
L 173.011964 -60.832538 
L 172.60574 -60.826594 
L 172.199516 -60.821333 
L 171.793291 -60.816891 
L 171.387067 -60.813402 
L 170.980843 -60.810998 
L 170.574619 -60.809799 
L 170.168395 -60.811462 
L 169.762171 -60.816982 
L 169.355946 -60.821609 
L 168.949722 -60.82858 
L 168.543498 -60.836156 
L 168.137274 -60.843769 
L 167.73105 -60.851275 
L 167.324826 -60.858525 
L 166.918601 -60.866882 
L 166.512377 -60.878684 
L 166.106153 -60.892073 
L 165.699929 -60.906346 
L 165.293705 -60.921287 
L 164.887481 -60.937467 
L 164.481256 -60.953182 
L 164.075032 -60.967641 
L 163.668808 -60.981273 
L 163.262584 -60.99353 
L 162.85636 -61.004071 
L 162.450136 -61.012584 
L 162.043911 -61.018802 
L 161.637687 -61.022507 
L 161.231463 -61.023541 
L 160.825239 -61.021815 
L 160.419015 -61.017306 
L 160.012791 -61.010061 
L 159.60656 -61.000189 
L 159.200336 -60.987872 
L 158.794112 -60.973699 
L 158.387888 -60.956811 
L 157.981664 -60.939155 
L 157.57544 -60.919877 
L 157.169215 -60.899545 
L 156.762991 -60.878457 
L 156.356767 -60.8569 
L 155.950543 -60.835151 
L 155.544319 -60.813475 
L 155.138095 -60.792121 
L 154.73187 -60.771344 
L 154.325646 -60.751401 
L 153.919422 -60.732576 
L 153.513198 -60.715179 
L 153.106974 -60.699571 
L 152.70075 -60.686166 
L 152.294525 -60.691523 
L 151.888301 -60.705417 
L 151.482077 -60.725074 
L 151.075853 -60.748061 
L 150.669629 -60.774182 
L 150.263405 -60.803146 
L 149.85718 -60.834559 
L 149.450956 -60.867935 
L 149.044726 -60.902695 
L 148.638502 -60.938178 
L 148.232278 -60.973658 
L 147.826054 -61.008363 
L 147.419829 -61.041496 
L 147.013605 -61.072253 
L 146.607381 -61.099861 
L 146.201157 -61.126455 
L 145.794933 -61.179965 
L 145.388709 -61.240537 
L 144.982484 -61.297671 
L 144.57626 -61.348633 
L 144.170036 -61.391714 
L 143.763812 -61.425461 
L 143.357588 -61.448724 
L 142.951364 -61.460944 
L 142.545139 -61.461343 
L 142.138915 -61.44998 
L 141.732691 -61.427665 
L 141.326467 -61.395359 
L 140.920243 -61.354311 
L 140.514019 -61.306171 
L 140.107794 -61.253141 
L 139.70157 -61.198065 
L 139.295346 -61.144442 
L 138.889122 -61.092228 
L 138.482892 -61.042941 
L 138.076668 -60.996658 
L 137.670443 -60.953752 
L 137.264219 -60.914072 
L 136.857995 -60.877004 
L 136.451771 -60.841761 
L 136.045547 -60.806697 
L 135.639323 -60.770413 
L 135.233098 -60.731635 
L 134.826874 -60.689462 
L 134.42065 -60.643583 
L 134.014426 -60.594509 
L 133.608202 -60.543743 
L 133.201978 -60.493884 
L 132.795753 -60.44867 
L 132.389529 -60.412897 
L 131.983305 -60.420487 
L 131.577081 -60.512715 
L 131.170857 -60.633141 
L 130.764633 -60.774892 
L 130.358408 -60.936054 
L 129.952184 -61.113725 
L 129.54596 -61.304079 
L 129.139736 -61.502506 
L 128.733512 -61.703793 
L 128.327282 -61.902339 
L 127.921057 -62.092929 
L 127.514833 -62.281468 
L 127.108609 -62.583968 
L 126.702385 -62.891112 
L 126.296161 -63.174518 
L 125.889937 -63.423735 
L 125.483712 -63.629614 
L 125.077488 -63.784765 
L 124.671264 -63.883945 
L 124.26504 -63.924401 
L 123.858816 -63.90618 
L 123.452592 -63.832355 
L 123.046367 -63.709187 
L 122.640143 -63.546165 
L 122.233919 -63.355878 
L 121.827695 -63.153635 
L 121.421471 -62.956781 
L 121.015247 -62.783591 
L 120.609022 -62.664821 
L 120.202798 -62.623554 
L 119.796574 -62.659262 
L 119.39035 -62.767406 
L 118.984126 -62.942302 
L 118.577902 -63.172256 
L 118.171678 -63.439729 
L 117.765447 -63.723054 
L 117.359223 -63.99836 
L 116.952999 -64.241619 
L 116.546775 -64.43049 
L 116.140551 -64.546008 
L 115.734326 -64.574127 
L 115.328102 -64.507193 
L 114.921878 -64.345444 
L 114.515654 -64.098589 
L 114.10943 -63.787419 
L 113.703206 -63.445284 
L 113.296981 -63.118916 
L 112.890757 -62.867501 
L 112.484533 -62.758608 
L 112.078309 -62.85969 
L 111.672085 -63.225905 
L 111.265861 -63.888125 
L 110.859637 -64.846626 
L 110.453412 -66.073262 
L 110.047185 -67.519839 
L 109.640961 -69.127874 
L 109.234737 -70.836469 
L 108.828513 -72.587169 
L 108.422289 -74.326576 
L 108.016064 -76.004475 
L 107.60984 -77.568599 
L 107.203616 -79.001752 
L 106.797392 -80.289644 
L 106.391168 -81.412487 
L 105.984944 -82.391063 
L 105.578719 -83.169219 
L 105.172495 -83.781057 
L 104.766268 -84.227061 
L 104.360044 -84.534813 
L 103.95382 -84.744017 
L 103.547596 -84.906957 
L 103.141371 -85.08851 
L 102.735147 -85.375143 
L 102.328923 -85.943515 
L 101.922699 -86.78122 
L 101.516475 -87.927171 
L 101.110251 -89.443072 
L 100.704026 -91.343276 
L 100.297802 -93.61716 
L 99.891578 -96.233735 
L 99.485351 -99.148856 
L 99.079127 -102.312813 
L 98.672903 -105.676844 
L 98.266678 -109.19726 
L 97.860454 -112.837053 
L 97.45423 -116.565319 
L 97.048006 -120.354679 
L 96.641782 -124.17782 
L 96.235558 -128.003563 
L 95.829333 -131.793877 
L 95.423109 -135.502175 
L 95.016885 -139.073846 
L 94.610658 -142.449027 
L 94.204434 -145.567731 
L 93.79821 -148.376941 
L 93.391985 -150.839034 
L 92.985761 -152.94068 
L 92.579537 -154.70136 
L 92.173313 -156.180089 
L 91.767089 -157.478876 
L 91.360865 -158.740785 
L 90.95464 -160.134876 
L 90.548416 -161.835467 
L 90.142192 -164.285025 
L 89.735968 -168.123336 
L 89.329741 -172.555383 
L 88.923517 -177.492824 
L 88.517292 -182.775064 
L 88.111068 -188.186403 
L 87.704844 -193.473692 
L 87.29862 -198.364173 
L 86.892396 -202.602312 
L 86.486172 -205.964654 
L 86.079947 -208.136492 
L 85.673723 -208.979888 
L 85.267498 -208.415529 
L 84.861273 -206.388628 
L 84.455049 -202.966447 
L 84.048825 -198.326215 
L 83.642601 -192.768547 
L 83.236377 -186.728805 
L 82.830151 -180.789124 
L 82.423927 -175.579173 
L 82.017703 -171.925153 
L 81.611479 -170.418506 
L 81.205254 -171.464959 
L 80.79903 -175.132859 
L 80.392806 -181.120857 
L 79.98658 -188.843802 
L 79.580356 -197.565897 
L 79.174132 -206.515449 
L 78.767908 -214.968943 
L 78.361684 -222.306524 
L 77.95546 -227.88878 
L 77.549234 -231.337109 
L 77.14301 -232.385812 
L 76.736786 -230.910758 
L 76.330561 -227.002261 
L 75.924337 -220.987136 
L 75.518113 -213.387218 
L 75.111887 -204.900875 
L 74.705663 -196.532206 
L 74.299439 -189.266572 
L 73.893215 -184.066637 
L 73.486991 -181.633257 
L 73.080766 -182.217661 
L 72.674542 -185.583735 
L 72.268317 -191.138343 
L 71.862093 -198.125792 
L 71.455868 -205.766683 
L 71.049644 -213.333224 
L 70.64342 -219.995983 
L 70.237195 -225.083324 
L 69.830971 -227.9959 
L 69.424747 -228.311124 
L 69.018522 -225.871121 
L 68.612298 -220.884788 
L 68.206074 -214.039819 
L 67.799849 -206.373252 
L 67.393624 -199.377412 
L 66.9874 -194.75239 
L 66.581176 -193.920732 
L 66.174951 -197.481831 
L 65.768727 -204.975241 
L 65.362503 -215.150052 
L 64.956278 -226.233083 
L 64.550054 -237.375988 
L 64.143829 -245.654857 
L 63.737605 -249.23625 
L 63.331381 -247.722934 
L 62.925156 -239.907802 
L 62.518932 -223.729432 
L 62.112707 -197.685262 
L 61.706483 -160.418967 
L 61.300258 -110.691614 
L 60.894034 -47.63625 
z
" style="stroke: #ff7f0e; stroke-opacity: 0.2"/>
    </defs>
    <g clip-path="url(#pc5e437d195)">
     <use xlink:href="#mfc323c0e85" x="0" y="281.634375" style="fill: #ff7f0e; fill-opacity: 0.2; stroke: #ff7f0e; stroke-opacity: 0.2"/>
    </g>
   </g>
   <g id="matplotlib.axis_1">
    <g id="xtick_1">
     <g id="line2d_1">
      <path d="M 60.894034 244.078125 
L 60.894034 22.318125 
" clip-path="url(#pc5e437d195)" style="fill: none; stroke: #b0b0b0; stroke-opacity: 0.3; stroke-width: 0.8; stroke-linecap: square"/>
     </g>
     <g id="line2d_2">
      <defs>
       <path id="mcf312c7c0f" d="M 0 0 
L 0 3.5 
" style="stroke: #000000; stroke-width: 0.8"/>
      </defs>
      <g>
       <use xlink:href="#mcf312c7c0f" x="60.894034" y="244.078125" style="stroke: #000000; stroke-width: 0.8"/>
      </g>
     </g>
     <g id="text_1">
      <text style="font: 10px 'DejaVu Sans', 'Bitstream Vera Sans', 'Computer Modern Sans Serif', 'Lucida Grande', 'Verdana', 'Geneva', 'Lucid', 'Arial', 'Helvetica', 'Avant Garde', sans-serif; text-anchor: middle" x="60.894034" y="258.676562" transform="rotate(-0 60.894034 258.676562)">0.0</text>
     </g>
    </g>
    <g id="xtick_2">
     <g id="line2d_3">
      <path d="M 142.05767 244.078125 
L 142.05767 22.318125 
" clip-path="url(#pc5e437d195)" style="fill: none; stroke: #b0b0b0; stroke-opacity: 0.3; stroke-width: 0.8; stroke-linecap: square"/>
     </g>
     <g id="line2d_4">
      <g>
       <use xlink:href="#mcf312c7c0f" x="142.05767" y="244.078125" style="stroke: #000000; stroke-width: 0.8"/>
      </g>
     </g>
     <g id="text_2">
      <text style="font: 10px 'DejaVu Sans', 'Bitstream Vera Sans', 'Computer Modern Sans Serif', 'Lucida Grande', 'Verdana', 'Geneva', 'Lucid', 'Arial', 'Helvetica', 'Avant Garde', sans-serif; text-anchor: middle" x="142.05767" y="258.676562" transform="rotate(-0 142.05767 258.676562)">0.2</text>
     </g>
    </g>
    <g id="xtick_3">
     <g id="line2d_5">
      <path d="M 223.221307 244.078125 
L 223.221307 22.318125 
" clip-path="url(#pc5e437d195)" style="fill: none; stroke: #b0b0b0; stroke-opacity: 0.3; stroke-width: 0.8; stroke-linecap: square"/>
     </g>
     <g id="line2d_6">
      <g>
       <use xlink:href="#mcf312c7c0f" x="223.221307" y="244.078125" style="stroke: #000000; stroke-width: 0.8"/>
      </g>
     </g>
     <g id="text_3">
      <text style="font: 10px 'DejaVu Sans', 'Bitstream Vera Sans', 'Computer Modern Sans Serif', 'Lucida Grande', 'Verdana', 'Geneva', 'Lucid', 'Arial', 'Helvetica', 'Avant Garde', sans-serif; text-anchor: middle" x="223.221307" y="258.676562" transform="rotate(-0 223.221307 258.676562)">0.4</text>
     </g>
    </g>
    <g id="xtick_4">
     <g id="line2d_7">
      <path d="M 304.384943 244.078125 
L 304.384943 22.318125 
" clip-path="url(#pc5e437d195)" style="fill: none; stroke: #b0b0b0; stroke-opacity: 0.3; stroke-width: 0.8; stroke-linecap: square"/>
     </g>
     <g id="line2d_8">
      <g>
       <use xlink:href="#mcf312c7c0f" x="304.384943" y="244.078125" style="stroke: #000000; stroke-width: 0.8"/>
      </g>
     </g>
     <g id="text_4">
      <text style="font: 10px 'DejaVu Sans', 'Bitstream Vera Sans', 'Computer Modern Sans Serif', 'Lucida Grande', 'Verdana', 'Geneva', 'Lucid', 'Arial', 'Helvetica', 'Avant Garde', sans-serif; text-anchor: middle" x="304.384943" y="258.676562" transform="rotate(-0 304.384943 258.676562)">0.6</text>
     </g>
    </g>
    <g id="xtick_5">
     <g id="line2d_9">
      <path d="M 385.54858 244.078125 
L 385.54858 22.318125 
" clip-path="url(#pc5e437d195)" style="fill: none; stroke: #b0b0b0; stroke-opacity: 0.3; stroke-width: 0.8; stroke-linecap: square"/>
     </g>
     <g id="line2d_10">
      <g>
       <use xlink:href="#mcf312c7c0f" x="385.54858" y="244.078125" style="stroke: #000000; stroke-width: 0.8"/>
      </g>
     </g>
     <g id="text_5">
      <text style="font: 10px 'DejaVu Sans', 'Bitstream Vera Sans', 'Computer Modern Sans Serif', 'Lucida Grande', 'Verdana', 'Geneva', 'Lucid', 'Arial', 'Helvetica', 'Avant Garde', sans-serif; text-anchor: middle" x="385.54858" y="258.676562" transform="rotate(-0 385.54858 258.676562)">0.8</text>
     </g>
    </g>
    <g id="xtick_6">
     <g id="line2d_11">
      <path d="M 466.712216 244.078125 
L 466.712216 22.318125 
" clip-path="url(#pc5e437d195)" style="fill: none; stroke: #b0b0b0; stroke-opacity: 0.3; stroke-width: 0.8; stroke-linecap: square"/>
     </g>
     <g id="line2d_12">
      <g>
       <use xlink:href="#mcf312c7c0f" x="466.712216" y="244.078125" style="stroke: #000000; stroke-width: 0.8"/>
      </g>
     </g>
     <g id="text_6">
      <text style="font: 10px 'DejaVu Sans', 'Bitstream Vera Sans', 'Computer Modern Sans Serif', 'Lucida Grande', 'Verdana', 'Geneva', 'Lucid', 'Arial', 'Helvetica', 'Avant Garde', sans-serif; text-anchor: middle" x="466.712216" y="258.676562" transform="rotate(-0 466.712216 258.676562)">1.0</text>
     </g>
    </g>
    <g id="text_7">
     <text style="font: 10px 'DejaVu Sans', 'Bitstream Vera Sans', 'Computer Modern Sans Serif', 'Lucida Grande', 'Verdana', 'Geneva', 'Lucid', 'Arial', 'Helvetica', 'Avant Garde', sans-serif; text-anchor: middle" x="263.803125" y="272.354687" transform="rotate(-0 263.803125 272.354687)">Tiempo (s)</text>
    </g>
   </g>
   <g id="matplotlib.axis_2">
    <g id="ytick_1">
     <g id="line2d_13">
      <path d="M 40.603125 233.998125 
L 487.003125 233.998125 
" clip-path="url(#pc5e437d195)" style="fill: none; stroke: #b0b0b0; stroke-opacity: 0.3; stroke-width: 0.8; stroke-linecap: square"/>
     </g>
     <g id="line2d_14">
      <defs>
       <path id="m479e97f531" d="M 0 0 
L -3.5 0 
" style="stroke: #000000; stroke-width: 0.8"/>
      </defs>
      <g>
       <use xlink:href="#m479e97f531" x="40.603125" y="233.998125" style="stroke: #000000; stroke-width: 0.8"/>
      </g>
     </g>
     <g id="text_8">
      <text style="font: 10px 'DejaVu Sans', 'Bitstream Vera Sans', 'Computer Modern Sans Serif', 'Lucida Grande', 'Verdana', 'Geneva', 'Lucid', 'Arial', 'Helvetica', 'Avant Garde', sans-serif; text-anchor: end" x="33.603125" y="237.797344" transform="rotate(-0 33.603125 237.797344)">0</text>
     </g>
    </g>
    <g id="ytick_2">
     <g id="line2d_15">
      <path d="M 40.603125 188.248904 
L 487.003125 188.248904 
" clip-path="url(#pc5e437d195)" style="fill: none; stroke: #b0b0b0; stroke-opacity: 0.3; stroke-width: 0.8; stroke-linecap: square"/>
     </g>
     <g id="line2d_16">
      <g>
       <use xlink:href="#m479e97f531" x="40.603125" y="188.248904" style="stroke: #000000; stroke-width: 0.8"/>
      </g>
     </g>
     <g id="text_9">
      <text style="font: 10px 'DejaVu Sans', 'Bitstream Vera Sans', 'Computer Modern Sans Serif', 'Lucida Grande', 'Verdana', 'Geneva', 'Lucid', 'Arial', 'Helvetica', 'Avant Garde', sans-serif; text-anchor: end" x="33.603125" y="192.048123" transform="rotate(-0 33.603125 192.048123)">20</text>
     </g>
    </g>
    <g id="ytick_3">
     <g id="line2d_17">
      <path d="M 40.603125 142.499683 
L 487.003125 142.499683 
" clip-path="url(#pc5e437d195)" style="fill: none; stroke: #b0b0b0; stroke-opacity: 0.3; stroke-width: 0.8; stroke-linecap: square"/>
     </g>
     <g id="line2d_18">
      <g>
       <use xlink:href="#m479e97f531" x="40.603125" y="142.499683" style="stroke: #000000; stroke-width: 0.8"/>
      </g>
     </g>
     <g id="text_10">
      <text style="font: 10px 'DejaVu Sans', 'Bitstream Vera Sans', 'Computer Modern Sans Serif', 'Lucida Grande', 'Verdana', 'Geneva', 'Lucid', 'Arial', 'Helvetica', 'Avant Garde', sans-serif; text-anchor: end" x="33.603125" y="146.298902" transform="rotate(-0 33.603125 146.298902)">40</text>
     </g>
    </g>
    <g id="ytick_4">
     <g id="line2d_19">
      <path d="M 40.603125 96.750462 
L 487.003125 96.750462 
" clip-path="url(#pc5e437d195)" style="fill: none; stroke: #b0b0b0; stroke-opacity: 0.3; stroke-width: 0.8; stroke-linecap: square"/>
     </g>
     <g id="line2d_20">
      <g>
       <use xlink:href="#m479e97f531" x="40.603125" y="96.750462" style="stroke: #000000; stroke-width: 0.8"/>
      </g>
     </g>
     <g id="text_11">
      <text style="font: 10px 'DejaVu Sans', 'Bitstream Vera Sans', 'Computer Modern Sans Serif', 'Lucida Grande', 'Verdana', 'Geneva', 'Lucid', 'Arial', 'Helvetica', 'Avant Garde', sans-serif; text-anchor: end" x="33.603125" y="100.549681" transform="rotate(-0 33.603125 100.549681)">60</text>
     </g>
    </g>
    <g id="ytick_5">
     <g id="line2d_21">
      <path d="M 40.603125 51.001242 
L 487.003125 51.001242 
" clip-path="url(#pc5e437d195)" style="fill: none; stroke: #b0b0b0; stroke-opacity: 0.3; stroke-width: 0.8; stroke-linecap: square"/>
     </g>
     <g id="line2d_22">
      <g>
       <use xlink:href="#m479e97f531" x="40.603125" y="51.001242" style="stroke: #000000; stroke-width: 0.8"/>
      </g>
     </g>
     <g id="text_12">
      <text style="font: 10px 'DejaVu Sans', 'Bitstream Vera Sans', 'Computer Modern Sans Serif', 'Lucida Grande', 'Verdana', 'Geneva', 'Lucid', 'Arial', 'Helvetica', 'Avant Garde', sans-serif; text-anchor: end" x="33.603125" y="54.80046" transform="rotate(-0 33.603125 54.80046)">80</text>
     </g>
    </g>
    <g id="text_13">
     <text style="font: 10px 'DejaVu Sans', 'Bitstream Vera Sans', 'Computer Modern Sans Serif', 'Lucida Grande', 'Verdana', 'Geneva', 'Lucid', 'Arial', 'Helvetica', 'Avant Garde', sans-serif; text-anchor: middle" x="14.798438" y="133.198125" transform="rotate(-90 14.798438 133.198125)">Corriente (A)</text>
    </g>
   </g>
   <g id="line2d_23">
    <path d="M 60.894034 233.998125 
L 61.706483 121.330555 
L 62.112707 84.067961 
L 62.518932 58.061966 
L 62.925156 41.915708 
L 63.331381 34.103607 
L 63.737605 33.066805 
L 64.143829 37.282583 
L 64.550054 45.279657 
L 66.174951 84.347471 
L 66.581176 87.941385 
L 66.9874 87.110899 
L 67.393624 82.470881 
L 69.018522 55.899007 
L 69.424747 53.466747 
L 69.830971 53.784093 
L 70.237195 56.700767 
L 70.64342 61.793959 
L 71.455868 76.000382 
L 72.268317 90.68874 
L 72.674542 96.273117 
L 73.080766 99.657337 
L 73.486991 100.24408 
L 73.893215 97.796043 
L 74.299439 92.567485 
L 75.111887 76.862979 
L 75.924337 60.775918 
L 76.330561 54.760181 
L 76.736786 50.867071 
L 77.14301 49.398385 
L 77.549234 50.4451 
L 77.95546 53.90535 
L 78.361684 59.505207 
L 79.174132 75.299913 
L 80.392806 100.776896 
L 80.79903 106.768645 
L 81.205254 110.422637 
L 81.611479 111.438253 
L 82.017703 109.889498 
L 82.423927 106.201667 
L 83.236377 95.08635 
L 84.048825 83.510773 
L 84.861273 75.454398 
L 85.267498 73.424684 
L 85.673723 72.854198 
L 86.079947 73.715277 
L 86.486172 75.899597 
L 86.892396 79.233302 
L 87.704844 88.417971 
L 89.735968 113.834335 
L 90.548416 120.86773 
L 91.360865 125.683087 
L 94.204434 139.138099 
L 95.016885 144.893392 
L 96.235558 155.253868 
L 99.485351 184.681945 
L 100.297802 190.552438 
L 101.110251 195.165537 
L 101.922699 198.348603 
L 102.735147 200.201759 
L 103.547596 201.111302 
L 105.578719 202.565422 
L 106.391168 203.777298 
L 107.203616 205.571545 
L 108.016064 207.90941 
L 109.640961 213.578865 
L 110.859637 217.676553 
L 111.672085 219.7316 
L 112.078309 220.44858 
L 112.484533 220.936569 
L 112.890757 221.202609 
L 113.296981 221.273027 
L 114.10943 220.995407 
L 116.140551 219.765606 
L 116.952999 219.542179 
L 117.765447 219.513225 
L 121.015247 219.757201 
L 122.233919 219.496888 
L 124.26504 218.959664 
L 125.483712 218.886143 
L 126.702385 219.107565 
L 127.921057 219.580148 
L 131.170857 221.054431 
L 132.389529 221.344656 
L 134.014426 221.442065 
L 136.045547 221.290792 
L 143.763812 220.518391 
L 146.201157 220.555166 
L 155.138095 221.012266 
L 168.949722 220.851595 
L 176.667993 220.892058 
L 192.510736 220.874683 
L 288.379711 220.86664 
L 466.712216 220.866653 
L 466.712216 220.866653 
" clip-path="url(#pc5e437d195)" style="fill: none; stroke: #ff7f0e; stroke-width: 2; stroke-linecap: square"/>
   </g>
   <g id="line2d_24">
    <path d="M 60.894034 233.998125 
L 61.706483 121.335616 
L 62.112707 84.076198 
L 62.518932 58.073188 
L 62.925156 41.92939 
L 63.331381 34.119087 
L 63.737605 33.083332 
L 64.143829 37.299477 
L 64.550054 45.296568 
L 66.174951 84.362428 
L 66.581176 87.954858 
L 66.9874 87.122226 
L 67.393624 82.479607 
L 69.018522 55.899531 
L 69.424747 53.466712 
L 69.830971 53.78439 
L 70.237195 56.702338 
L 70.64342 61.797903 
L 71.455868 76.012179 
L 72.268317 90.71093 
L 72.674542 96.300324 
L 73.080766 99.688602 
L 73.486991 100.27784 
L 73.893215 97.830589 
L 74.299439 92.601176 
L 75.111887 76.89146 
L 75.924337 60.796877 
L 76.330561 54.777039 
L 76.736786 50.879724 
L 77.14301 49.40685 
L 77.549234 50.449743 
L 77.95546 53.906798 
L 78.361684 59.504456 
L 79.174132 75.299424 
L 80.392806 100.793964 
L 80.79903 106.79642 
L 81.205254 110.462751 
L 81.611479 111.491263 
L 82.017703 109.954786 
L 82.423927 106.277827 
L 83.236377 95.178863 
L 84.048825 83.61264 
L 84.861273 75.559458 
L 85.267498 73.529326 
L 85.673723 72.957269 
L 86.079947 73.815852 
L 86.486172 75.996996 
L 86.892396 79.327123 
L 87.704844 88.505074 
L 89.735968 113.931595 
L 90.548416 120.988785 
L 91.360865 125.838785 
L 94.204434 139.438002 
L 95.016885 145.225563 
L 96.235558 155.619085 
L 99.485351 185.006224 
L 100.297802 190.82485 
L 101.110251 195.369476 
L 101.922699 198.476611 
L 102.735147 200.261181 
L 103.547596 201.122253 
L 105.172495 202.139822 
L 105.984944 203.096066 
L 106.797392 204.615847 
L 107.60984 206.714855 
L 108.828513 210.714317 
L 110.859637 217.748047 
L 111.672085 219.791462 
L 112.078309 220.500519 
L 112.484533 220.980315 
L 112.890757 221.238902 
L 113.296981 221.303489 
L 114.10943 221.020842 
L 116.140551 219.806587 
L 116.952999 219.590859 
L 118.171678 219.603296 
L 120.202798 219.828988 
L 121.421471 219.700757 
L 125.077488 218.858965 
L 126.296161 218.987194 
L 127.514833 219.394688 
L 131.983305 221.282209 
L 133.201978 221.442161 
L 134.826874 221.418455 
L 138.076668 221.064228 
L 142.951364 220.552974 
L 145.388709 220.519329 
L 148.638502 220.747871 
L 152.70075 221.012156 
L 156.356767 220.990815 
L 165.699929 220.799907 
L 179.917787 220.869074 
L 192.91696 220.879912 
L 349.719584 220.871299 
L 466.712216 220.871304 
L 466.712216 220.871304 
" clip-path="url(#pc5e437d195)" style="fill: none; stroke-dasharray: 4.44,1.92; stroke-dashoffset: 0; stroke: #808080; stroke-width: 1.2"/>
   </g>
   <g id="patch_3">
    <path d="M 40.603125 244.078125 
L 40.603125 22.318125 
" style="fill: none; stroke: #000000; stroke-width: 0.8; stroke-linejoin: miter; stroke-linecap: square"/>
   </g>
   <g id="patch_4">
    <path d="M 487.003125 244.078125 
L 487.003125 22.318125 
" style="fill: none; stroke: #000000; stroke-width: 0.8; stroke-linejoin: miter; stroke-linecap: square"/>
   </g>
   <g id="patch_5">
    <path d="M 40.603125 244.078125 
L 487.003125 244.078125 
" style="fill: none; stroke: #000000; stroke-width: 0.8; stroke-linejoin: miter; stroke-linecap: square"/>
   </g>
   <g id="patch_6">
    <path d="M 40.603125 22.318125 
L 487.003125 22.318125 
" style="fill: none; stroke: #000000; stroke-width: 0.8; stroke-linejoin: miter; stroke-linecap: square"/>
   </g>
   <g id="text_14">
    <text style="font: 12px 'DejaVu Sans', 'Bitstream Vera Sans', 'Computer Modern Sans Serif', 'Lucida Grande', 'Verdana', 'Geneva', 'Lucid', 'Arial', 'Helvetica', 'Avant Garde', sans-serif; text-anchor: middle" x="263.803125" y="16.318125" transform="rotate(-0 263.803125 16.318125)">Corriente - PSO</text>
   </g>
   <g id="legend_1">
    <g id="patch_7">
     <path d="M 365.76875 74.3525 
L 480.003125 74.3525 
Q 482.003125 74.3525 482.003125 72.3525 
L 482.003125 29.318125 
Q 482.003125 27.318125 480.003125 27.318125 
L 365.76875 27.318125 
Q 363.76875 27.318125 363.76875 29.318125 
L 363.76875 72.3525 
Q 363.76875 74.3525 365.76875 74.3525 
z
" style="fill: #ffffff; opacity: 0.8; stroke: #cccccc; stroke-linejoin: miter"/>
    </g>
    <g id="patch_8">
     <path d="M 367.76875 38.916562 
L 387.76875 38.916562 
L 387.76875 31.916562 
L 367.76875 31.916562 
z
" style="fill: #ff7f0e; fill-opacity: 0.2; stroke: #ff7f0e; stroke-opacity: 0.2; stroke-linejoin: miter"/>
    </g>
    <g id="text_15">
     <text style="font: 10px 'DejaVu Sans', 'Bitstream Vera Sans', 'Computer Modern Sans Serif', 'Lucida Grande', 'Verdana', 'Geneva', 'Lucid', 'Arial', 'Helvetica', 'Avant Garde', sans-serif; text-anchor: start" x="395.76875" y="38.916562" transform="rotate(-0 395.76875 38.916562)">Rango 95% runs</text>
    </g>
    <g id="line2d_25">
     <path d="M 367.76875 50.094687 
L 377.76875 50.094687 
L 387.76875 50.094687 
" style="fill: none; stroke: #ff7f0e; stroke-width: 2; stroke-linecap: square"/>
    </g>
    <g id="text_16">
     <text style="font: 10px 'DejaVu Sans', 'Bitstream Vera Sans', 'Computer Modern Sans Serif', 'Lucida Grande', 'Verdana', 'Geneva', 'Lucid', 'Arial', 'Helvetica', 'Avant Garde', sans-serif; text-anchor: start" x="395.76875" y="53.594687" transform="rotate(-0 395.76875 53.594687)">Mejor run</text>
    </g>
    <g id="line2d_26">
     <path d="M 367.76875 64.772812 
L 377.76875 64.772812 
L 387.76875 64.772812 
" style="fill: none; stroke-dasharray: 4.44,1.92; stroke-dashoffset: 0; stroke: #808080; stroke-width: 1.2"/>
    </g>
    <g id="text_17">
     <text style="font: 10px 'DejaVu Sans', 'Bitstream Vera Sans', 'Computer Modern Sans Serif', 'Lucida Grande', 'Verdana', 'Geneva', 'Lucid', 'Arial', 'Helvetica', 'Avant Garde', sans-serif; text-anchor: start" x="395.76875" y="68.272812" transform="rotate(-0 395.76875 68.272812)">Medida</text>
    </g>
   </g>
  </g>
 </g>
 <defs>
  <clipPath id="pc5e437d195">
   <rect x="40.603125" y="22.318125" width="446.4" height="221.76"/>
  </clipPath>
 </defs>
</svg>
