<?xml version="1.0" encoding="utf-8" standalone="no"?>
<!DOCTYPE svg PUBLIC "-//W3C//DTD SVG 1.1//EN"
  "http://www.w3.org/Graphics/SVG/1.1/DTD/svg11.dtd">
<svg xmlns:xlink="http://www.w3.org/1999/xlink" width="506.928125pt" height="281.634375pt" viewBox="0 0 506.928125 281.634375" xmlns="http://www.w3.org/2000/svg" version="1.1">
 <metadata>
  <rdf:RDF xmlns:dc="http://purl.org/dc/elements/1.1/" xmlns:cc="http://creativecommons.org/ns#" xmlns:rdf="http://www.w3.org/1999/02/22-rdf-syntax-ns#">
   <cc:Work>
    <dc:type rdf:resource="http://purl.org/dc/dcmitype/StillImage"/>
    <dc:date>2025-11-28T07:42:44.983428</dc:date>
    <dc:format>image/svg+xml</dc:format>
    <dc:creator>
     <cc:Agent>
      <dc:title>Matplotlib v3.9.2, https://matplotlib.org/</dc:title>
     </cc:Agent>
    </dc:creator>
   </cc:Work>
  </rdf:RDF>
 </metadata>
 <defs>
  <style type="text/css">*{stroke-linejoin: round; stroke-linecap: butt}</style>
 </defs>
 <g id="figure_1">
  <g id="patch_1">
   <path d="M 0 281.634375 
L 506.928125 281.634375 
L 506.928125 0 
L 0 0 
z
" style="fill: #ffffff"/>
  </g>
  <g id="axes_1">
   <g id="patch_2">
    <path d="M 53.328125 244.078125 
L 499.728125 244.078125 
L 499.728125 22.318125 
L 53.328125 22.318125 
z
" style="fill: #ffffff"/>
   </g>
   <g id="PolyCollection_1">
    <defs>
     <path id="mc6af230e9b" d="M 73.619034 -47.63625 
L 73.619034 -47.63625 
L 74.025258 -47.637239 
L 74.431483 -47.654552 
L 74.837707 -47.756359 
L 75.243932 -48.083161 
L 75.650156 -48.832962 
L 76.056381 -50.219149 
L 76.462605 -52.373223 
L 76.868829 -55.348518 
L 77.275054 -59.089627 
L 77.681278 -63.415029 
L 78.087503 -68.055999 
L 78.493727 -72.698382 
L 78.899951 -77.032069 
L 79.306176 -80.790196 
L 79.7124 -83.776835 
L 80.118624 -85.881129 
L 80.524849 -87.080859 
L 80.931074 -87.437853 
L 81.337298 -87.08977 
L 81.743522 -86.23842 
L 82.149747 -85.132957 
L 82.555971 -84.050238 
L 82.962195 -83.260513 
L 83.36842 -82.935695 
L 83.774644 -82.807657 
L 84.180868 -83.617277 
L 84.587093 -85.404489 
L 84.993317 -88.091656 
L 85.399542 -91.500443 
L 85.805766 -95.384294 
L 86.211991 -99.467973 
L 86.618215 -103.485237 
L 87.024439 -107.208021 
L 87.430663 -110.464307 
L 87.836887 -113.145105 
L 88.243113 -115.203342 
L 88.649337 -116.647725 
L 89.055561 -117.534433 
L 89.461786 -117.956666 
L 89.86801 -118.033287 
L 90.274234 -117.915612 
L 90.68046 -117.759264 
L 91.086684 -117.716779 
L 91.492908 -117.926414 
L 91.899132 -118.500367 
L 92.305356 -119.515308 
L 92.71158 -121.00689 
L 93.117806 -122.96264 
L 93.52403 -125.345847 
L 93.930254 -128.086368 
L 94.336479 -131.100161 
L 94.742703 -134.295854 
L 95.148927 -137.586579 
L 95.555151 -140.897162 
L 95.961377 -144.168278 
L 96.367601 -147.357697 
L 96.773825 -150.439391 
L 97.180049 -153.40119 
L 97.586273 -156.241591 
L 97.992498 -158.966531 
L 98.398723 -161.589406 
L 98.804947 -164.125643 
L 99.211172 -166.592471 
L 99.617396 -169.007913 
L 100.02362 -171.39013 
L 100.429844 -173.757026 
L 100.836068 -176.125909 
L 101.242292 -178.513101 
L 101.648517 -180.933599 
L 102.054741 -183.400559 
L 102.460968 -185.924766 
L 102.867192 -188.513994 
L 103.273416 -191.17105 
L 103.67964 -193.89653 
L 104.085865 -196.515016 
L 104.492089 -199.159676 
L 104.898313 -201.831452 
L 105.304537 -204.530768 
L 105.710761 -207.24649 
L 106.116985 -209.965924 
L 106.52321 -212.675171 
L 106.929434 -215.359694 
L 107.335658 -218.004495 
L 107.741885 -220.595094 
L 108.148109 -223.117451 
L 108.554333 -225.558203 
L 108.960558 -227.904845 
L 109.366782 -230.145806 
L 109.773006 -232.270439 
L 110.17923 -234.269004 
L 110.585454 -236.132504 
L 110.991678 -237.852812 
L 111.397903 -239.42256 
L 111.804127 -240.835287 
L 112.210351 -242.085516 
L 112.616578 -243.168995 
L 113.022802 -244.082802 
L 113.429026 -244.825688 
L 113.835251 -245.398176 
L 114.241475 -245.802723 
L 114.647699 -246.043742 
L 115.053923 -246.127751 
L 115.460147 -246.060014 
L 115.866371 -245.853989 
L 116.272596 -245.521162 
L 116.67882 -245.069957 
L 117.085044 -244.516393 
L 117.491268 -243.874641 
L 117.897495 -243.155777 
L 118.303719 -242.038126 
L 118.709944 -240.88077 
L 119.116168 -239.728605 
L 119.522392 -238.601148 
L 119.928616 -237.516675 
L 120.33484 -236.491946 
L 120.741064 -235.542035 
L 121.147289 -234.680086 
L 121.553513 -233.917266 
L 121.959737 -233.262505 
L 122.365961 -232.722494 
L 122.772185 -232.300996 
L 123.178412 -232.004347 
L 123.584637 -231.812012 
L 123.990861 -231.725423 
L 124.397085 -231.742192 
L 124.803309 -231.875828 
L 125.209533 -232.110985 
L 125.615757 -232.438523 
L 126.021981 -232.848128 
L 126.428206 -233.328465 
L 126.83443 -233.867424 
L 127.240654 -234.452448 
L 127.646878 -234.930567 
L 128.053102 -235.298175 
L 128.459326 -235.688422 
L 128.865551 -236.093551 
L 129.271775 -236.506023 
L 129.677999 -236.918568 
L 130.084223 -237.3243 
L 130.490447 -237.716859 
L 130.896678 -238.090465 
L 131.302902 -238.439969 
L 131.709126 -238.760938 
L 132.11535 -239.049647 
L 132.521574 -239.303143 
L 132.927798 -239.519239 
L 133.334022 -239.696508 
L 133.740247 -239.83428 
L 134.146471 -239.932534 
L 134.552695 -239.991967 
L 134.958919 -240.013849 
L 135.365143 -240.000063 
L 135.771367 -239.952895 
L 136.177592 -239.875145 
L 136.583816 -239.769915 
L 136.99004 -239.63988 
L 137.396264 -239.304596 
L 137.802488 -238.957981 
L 138.208712 -238.613046 
L 138.614937 -238.27642 
L 139.021161 -237.953943 
L 139.427385 -237.65087 
L 139.833609 -237.369797 
L 140.239833 -237.113386 
L 140.646057 -236.888943 
L 141.052282 -236.69577 
L 141.458512 -236.534 
L 141.864736 -236.408711 
L 142.27096 -236.321897 
L 142.677184 -236.271432 
L 143.083408 -236.256437 
L 143.489633 -236.27539 
L 143.895857 -236.326203 
L 144.302081 -236.406354 
L 144.708305 -236.512856 
L 145.114529 -236.6424 
L 145.520753 -236.791433 
L 145.926978 -236.956196 
L 146.333202 -237.107591 
L 146.739426 -237.170094 
L 147.14565 -237.241434 
L 147.551874 -237.32086 
L 147.958098 -237.406667 
L 148.364323 -237.497083 
L 148.770547 -237.590648 
L 149.176771 -237.685733 
L 149.582995 -237.780676 
L 149.989219 -237.873828 
L 150.395443 -237.963746 
L 150.801668 -238.049068 
L 151.207892 -238.12865 
L 151.614122 -238.201449 
L 152.020346 -238.266633 
L 152.42657 -238.32356 
L 152.832794 -238.371717 
L 153.239019 -238.410803 
L 153.645243 -238.440697 
L 154.051467 -238.461399 
L 154.457691 -238.473096 
L 154.863915 -238.476126 
L 155.270139 -238.47096 
L 155.676364 -238.458105 
L 156.082588 -238.437139 
L 156.488812 -238.362713 
L 156.895036 -238.25971 
L 157.30126 -238.158108 
L 157.707484 -238.059714 
L 158.113709 -237.96621 
L 158.519933 -237.879064 
L 158.926157 -237.799578 
L 159.332381 -237.728849 
L 159.738605 -237.667731 
L 160.144829 -237.616882 
L 160.551054 -237.576725 
L 160.957278 -237.547465 
L 161.363502 -237.529081 
L 161.769726 -237.521366 
L 162.175956 -237.52393 
L 162.58218 -237.536195 
L 162.988405 -237.55742 
L 163.394629 -237.586787 
L 163.800853 -237.623318 
L 164.207077 -237.665957 
L 164.613301 -237.713629 
L 165.019525 -237.764883 
L 165.42575 -237.77395 
L 165.831974 -237.783083 
L 166.238198 -237.795398 
L 166.644422 -237.810538 
L 167.050646 -237.827702 
L 167.45687 -237.846583 
L 167.863095 -237.866987 
L 168.269319 -237.88849 
L 168.675543 -237.910641 
L 169.081767 -237.933049 
L 169.487991 -237.955325 
L 169.894215 -237.977059 
L 170.30044 -237.997864 
L 170.706664 -238.017516 
L 171.112888 -238.035766 
L 171.519112 -238.052391 
L 171.925336 -238.067186 
L 172.33156 -238.080041 
L 172.737791 -238.090807 
L 173.144015 -238.099461 
L 173.550239 -238.105945 
L 173.956463 -238.110311 
L 174.362687 -238.112493 
L 174.768911 -238.112634 
L 175.175136 -238.110883 
L 175.58136 -238.103124 
L 175.987584 -238.09316 
L 176.393808 -238.063525 
L 176.800032 -238.035213 
L 177.206256 -238.008678 
L 177.612481 -237.984324 
L 178.018705 -237.962471 
L 178.424929 -237.943437 
L 178.831153 -237.927408 
L 179.237377 -237.91453 
L 179.643601 -237.904894 
L 180.049826 -237.898488 
L 180.45605 -237.895297 
L 180.862274 -237.895201 
L 181.268498 -237.898033 
L 181.674722 -237.90361 
L 182.080946 -237.911688 
L 182.487171 -237.921989 
L 182.893395 -237.934196 
L 183.299619 -237.9471 
L 183.705843 -237.945532 
L 184.112067 -237.944115 
L 184.518291 -237.94653 
L 184.924516 -237.947157 
L 185.33074 -237.948552 
L 185.736964 -237.950744 
L 186.143188 -237.95368 
L 186.549412 -237.957239 
L 186.955636 -237.961311 
L 187.361861 -237.965839 
L 187.768085 -237.9707 
L 188.174321 -237.975789 
L 188.580545 -237.981006 
L 188.986769 -237.986256 
L 189.392993 -237.991465 
L 189.799218 -237.996507 
L 190.205442 -238.001356 
L 190.611666 -238.005908 
L 191.01789 -238.010103 
L 191.424114 -238.013904 
L 191.830338 -238.017277 
L 192.236563 -238.020169 
L 192.642787 -238.022567 
L 193.049011 -238.024465 
L 193.455235 -238.025853 
L 193.861459 -238.026734 
L 194.267683 -238.027119 
L 194.673908 -238.027058 
L 195.080132 -238.024777 
L 195.486356 -238.021878 
L 195.89258 -238.020624 
L 196.298804 -238.019061 
L 196.705028 -238.0172 
L 197.111253 -238.015129 
L 197.517477 -238.012877 
L 197.923701 -238.010093 
L 198.329925 -238.007473 
L 198.736149 -238.005032 
L 199.142373 -238.002836 
L 199.548598 -238.000543 
L 199.954822 -237.998172 
L 200.361046 -237.995924 
L 200.76727 -237.99385 
L 201.173494 -237.99194 
L 201.579718 -237.990242 
L 201.985943 -237.988769 
L 202.392167 -237.989338 
L 202.798391 -237.989764 
L 203.204615 -237.988997 
L 203.610839 -237.988479 
L 204.017063 -237.988196 
L 204.423287 -237.988146 
L 204.829512 -237.988328 
L 205.235736 -237.988695 
L 205.64196 -237.989255 
L 206.048184 -237.989973 
L 206.454408 -237.990857 
L 206.860632 -237.991849 
L 207.266857 -237.992939 
L 207.673081 -237.994084 
L 208.079305 -237.99529 
L 208.485529 -237.996519 
L 208.891765 -237.997762 
L 209.29799 -237.998988 
L 209.704214 -238.000163 
L 210.110438 -238.001273 
L 210.516662 -238.002338 
L 210.922886 -238.003301 
L 211.32911 -238.004169 
L 211.735335 -238.004935 
L 212.141559 -238.005568 
L 212.547783 -238.006108 
L 212.954007 -238.006521 
L 213.360231 -238.006816 
L 213.766455 -238.006988 
L 214.17268 -238.007067 
L 214.578904 -238.007016 
L 214.985128 -238.006875 
L 215.391352 -238.006624 
L 215.797576 -238.006312 
L 216.2038 -238.005885 
L 216.610025 -238.005248 
L 217.016249 -238.004632 
L 217.422473 -238.004037 
L 217.828697 -238.003486 
L 218.234921 -238.002986 
L 218.641145 -238.002537 
L 219.047369 -238.002042 
L 219.453594 -238.001465 
L 219.859818 -238.000896 
L 220.266042 -238.000374 
L 220.672266 -237.999893 
L 221.07849 -237.999463 
L 221.484714 -237.999073 
L 221.890939 -237.998734 
L 222.297163 -237.998455 
L 222.703387 -237.998223 
L 223.109611 -237.998061 
L 223.515835 -237.997947 
L 223.922059 -237.997891 
L 224.328284 -237.997894 
L 224.734508 -237.997946 
L 225.140732 -237.998055 
L 225.546956 -237.998187 
L 225.95318 -237.998374 
L 226.359404 -237.998574 
L 226.765629 -237.998815 
L 227.171853 -237.999066 
L 227.578077 -237.999343 
L 227.984301 -237.999621 
L 228.390525 -237.999921 
L 228.796749 -238.000208 
L 229.202974 -238.000485 
L 229.60921 -238.00077 
L 230.015434 -238.001028 
L 230.421658 -238.001284 
L 230.827882 -238.001496 
L 231.234107 -238.001693 
L 231.640331 -238.001874 
L 232.046555 -238.002023 
L 232.452779 -238.002142 
L 232.859003 -238.00223 
L 233.265227 -238.002294 
L 233.671451 -238.002333 
L 234.077676 -238.002343 
L 234.4839 -238.002324 
L 234.890124 -238.002286 
L 235.296348 -238.002215 
L 235.702572 -238.002138 
L 236.108796 -238.002051 
L 236.515021 -238.001935 
L 236.921245 -238.001813 
L 237.327469 -238.001681 
L 237.733693 -238.001539 
L 238.139917 -238.001394 
L 238.546141 -238.001262 
L 238.952366 -238.001106 
L 239.35859 -238.000977 
L 239.764814 -238.000855 
L 240.171038 -238.000729 
L 240.577262 -238.000613 
L 240.983486 -238.000519 
L 241.389711 -238.000419 
L 241.795935 -238.000348 
L 242.202159 -238.000289 
L 242.608383 -238.000238 
L 243.014607 -238.000199 
L 243.420831 -238.000186 
L 243.827056 -238.000176 
L 244.23328 -238.000179 
L 244.639504 -238.000192 
L 245.045728 -238.000231 
L 245.451952 -238.000262 
L 245.858176 -238.000308 
L 246.264401 -238.000363 
L 246.670625 -238.00042 
L 247.076849 -238.000485 
L 247.483073 -238.00055 
L 247.889297 -238.000617 
L 248.295521 -238.000675 
L 248.701746 -238.000742 
L 249.10797 -238.00081 
L 249.514194 -238.000874 
L 249.920418 -238.000929 
L 250.326642 -238.000991 
L 250.732878 -238.001042 
L 251.139103 -238.001094 
L 251.545327 -238.00113 
L 251.951551 -238.001159 
L 252.357775 -238.001184 
L 252.763999 -238.0012 
L 253.170223 -238.00122 
L 253.576448 -238.00122 
L 253.982672 -238.00122 
L 254.388896 -238.00122 
L 254.79512 -238.001194 
L 255.201344 -238.001181 
L 255.607568 -238.001163 
L 256.013793 -238.001147 
L 256.420017 -238.001118 
L 256.826241 -238.001092 
L 257.232465 -238.001054 
L 257.638689 -238.001028 
L 258.044913 -238.000989 
L 258.451138 -238.000966 
L 258.857362 -238.000927 
L 259.263586 -238.000901 
L 259.66981 -238.000873 
L 260.076034 -238.000847 
L 260.482258 -238.000808 
L 260.888483 -238.000792 
L 261.294707 -238.000776 
L 261.700931 -238.000756 
L 262.107155 -238.000743 
L 262.513379 -238.00073 
L 262.919603 -238.00072 
L 263.325828 -238.00072 
L 263.732052 -238.00072 
L 264.138276 -238.00072 
L 264.5445 -238.00072 
L 264.950724 -238.00072 
L 265.356948 -238.000733 
L 265.763173 -238.000746 
L 266.169397 -238.000756 
L 266.575621 -238.000782 
L 266.981845 -238.000795 
L 267.388069 -238.000808 
L 267.794293 -238.000821 
L 268.200518 -238.000847 
L 268.606742 -238.00086 
L 269.012966 -238.000873 
L 269.41919 -238.000896 
L 269.825414 -238.000901 
L 270.231638 -238.000914 
L 270.637863 -238.000927 
L 271.044087 -238.000943 
L 271.450323 -238.000966 
L 271.856547 -238.000966 
L 272.262771 -238.000966 
L 272.668995 -238.000966 
L 273.07522 -238.000966 
L 273.481444 -238.000966 
L 273.887668 -238.000966 
L 274.293892 -238.000966 
L 274.700116 -238.000966 
L 275.10634 -238.000966 
L 275.512565 -238.000966 
L 275.918789 -238.000966 
L 276.325013 -238.000943 
L 276.731237 -238.000927 
L 277.137461 -238.000914 
L 277.543685 -238.000901 
L 277.94991 -238.000896 
L 278.356134 -238.000873 
L 278.762358 -238.000863 
L 279.168582 -238.000863 
L 279.574806 -238.000863 
L 279.98103 -238.000863 
L 280.387255 -238.000863 
L 280.793479 -238.000863 
L 281.199703 -238.000863 
L 281.605927 -238.000863 
L 282.012151 -238.000863 
L 282.418375 -238.000863 
L 282.8246 -238.000863 
L 283.230824 -238.000863 
L 283.637048 -238.000863 
L 284.043272 -238.000863 
L 284.449496 -238.000863 
L 284.85572 -238.000863 
L 285.261945 -238.000863 
L 285.668169 -238.000863 
L 286.074393 -238.000863 
L 286.480617 -238.000863 
L 286.886841 -238.000863 
L 287.293065 -238.000863 
L 287.69929 -238.000863 
L 288.105514 -238.000863 
L 288.511738 -238.000863 
L 288.917962 -238.000863 
L 289.324186 -238.000863 
L 289.73041 -238.000863 
L 290.136634 -238.000863 
L 290.542859 -238.000863 
L 290.949083 -238.000863 
L 291.355307 -238.000863 
L 291.761531 -238.000863 
L 292.167755 -238.000863 
L 292.574004 -238.000863 
L 292.980228 -238.000863 
L 293.386452 -238.000863 
L 293.792676 -238.000863 
L 294.1989 -238.000863 
L 294.605124 -238.000863 
L 295.011349 -238.000863 
L 295.417573 -238.000863 
L 295.823797 -238.000863 
L 296.230021 -238.000863 
L 296.636245 -238.000863 
L 297.042469 -238.000863 
L 297.448694 -238.000863 
L 297.854918 -238.000863 
L 298.261142 -238.000863 
L 298.667366 -238.000863 
L 299.07359 -238.000863 
L 299.479814 -238.000863 
L 299.886039 -238.000863 
L 300.292263 -238.000863 
L 300.698487 -238.000863 
L 301.104711 -238.000863 
L 301.510935 -238.000863 
L 301.917159 -238.000863 
L 302.323384 -238.000863 
L 302.729608 -238.000863 
L 303.135832 -238.000863 
L 303.542056 -238.000863 
L 303.94828 -238.000863 
L 304.354504 -238.000863 
L 304.760729 -238.000863 
L 305.166953 -238.000863 
L 305.573177 -238.000863 
L 305.979401 -238.000863 
L 306.385625 -238.000863 
L 306.791849 -238.000863 
L 307.198074 -238.000863 
L 307.604298 -238.000863 
L 308.010522 -238.000863 
L 308.416746 -238.000863 
L 308.82297 -238.000863 
L 309.229194 -238.000863 
L 309.635419 -238.000863 
L 310.041643 -238.000863 
L 310.447867 -238.000863 
L 310.854091 -238.000863 
L 311.260315 -238.000863 
L 311.666539 -238.000863 
L 312.072764 -238.000863 
L 312.478988 -238.000863 
L 312.885212 -238.000863 
L 313.291436 -238.000863 
L 313.69766 -238.000863 
L 314.103884 -238.000863 
L 314.510109 -238.000863 
L 314.916333 -238.000863 
L 315.322557 -238.000863 
L 315.728781 -238.000863 
L 316.135005 -238.000863 
L 316.541229 -238.000863 
L 316.947454 -238.000863 
L 317.353678 -238.000863 
L 317.759902 -238.000863 
L 318.166126 -238.000863 
L 318.57235 -238.000863 
L 318.978574 -238.000863 
L 319.384799 -238.000863 
L 319.791023 -238.000863 
L 320.197247 -238.000863 
L 320.603471 -238.000863 
L 321.009695 -238.000863 
L 321.415919 -238.000863 
L 321.822143 -238.000863 
L 322.228368 -238.000863 
L 322.634592 -238.000863 
L 323.040816 -238.000863 
L 323.44704 -238.000863 
L 323.853264 -238.000863 
L 324.259488 -238.000863 
L 324.665713 -238.000863 
L 325.071937 -238.000863 
L 325.478161 -238.000863 
L 325.884385 -238.000863 
L 326.290609 -238.000863 
L 326.696833 -238.000863 
L 327.103058 -238.000863 
L 327.509282 -238.000863 
L 327.915506 -238.000863 
L 328.32173 -238.000863 
L 328.727954 -238.000863 
L 329.134178 -238.000863 
L 329.540403 -238.000863 
L 329.946627 -238.000863 
L 330.352851 -238.000863 
L 330.759075 -238.000863 
L 331.165299 -238.000863 
L 331.571523 -238.000863 
L 331.977748 -238.000863 
L 332.383972 -238.000863 
L 332.790196 -238.000863 
L 333.19642 -238.000863 
L 333.602644 -238.000863 
L 334.008893 -238.000863 
L 334.415117 -238.000863 
L 334.821341 -238.000863 
L 335.227565 -238.000863 
L 335.633789 -238.000863 
L 336.040013 -238.000863 
L 336.446238 -238.000863 
L 336.852462 -238.000863 
L 337.258686 -238.000863 
L 337.66491 -238.000863 
L 338.071134 -238.000863 
L 338.477358 -238.000863 
L 338.883583 -238.000863 
L 339.289807 -238.000863 
L 339.696031 -238.000863 
L 340.102255 -238.000863 
L 340.508479 -238.000863 
L 340.914703 -238.000863 
L 341.320928 -238.000863 
L 341.727152 -238.000863 
L 342.133376 -238.000863 
L 342.5396 -238.000863 
L 342.945824 -238.000863 
L 343.352048 -238.000863 
L 343.758273 -238.000863 
L 344.164497 -238.000863 
L 344.570721 -238.000863 
L 344.976945 -238.000863 
L 345.383169 -238.000863 
L 345.789393 -238.000863 
L 346.195618 -238.000863 
L 346.601842 -238.000863 
L 347.008066 -238.000863 
L 347.41429 -238.000863 
L 347.820514 -238.000863 
L 348.226738 -238.000863 
L 348.632963 -238.000863 
L 349.039187 -238.000863 
L 349.445411 -238.000863 
L 349.851635 -238.000863 
L 350.257859 -238.000863 
L 350.664083 -238.000863 
L 351.070307 -238.000863 
L 351.476532 -238.000863 
L 351.882756 -238.000863 
L 352.28898 -238.000863 
L 352.695204 -238.000863 
L 353.101428 -238.000863 
L 353.507652 -238.000863 
L 353.913877 -238.000863 
L 354.320101 -238.000863 
L 354.726325 -238.000863 
L 355.132549 -238.000863 
L 355.538773 -238.000863 
L 355.944997 -238.000863 
L 356.351222 -238.000863 
L 356.757446 -238.000863 
L 357.16367 -238.000863 
L 357.569894 -238.000863 
L 357.976118 -238.000863 
L 358.382342 -238.000863 
L 358.788567 -238.000863 
L 359.194791 -238.000863 
L 359.601015 -238.000863 
L 360.007239 -238.000863 
L 360.413463 -238.000863 
L 360.819687 -238.000863 
L 361.225912 -238.000863 
L 361.632136 -238.000863 
L 362.03836 -238.000863 
L 362.444584 -238.000863 
L 362.850808 -238.000863 
L 363.257032 -238.000863 
L 363.663257 -238.000863 
L 364.069481 -238.000863 
L 364.475705 -238.000863 
L 364.881929 -238.000863 
L 365.288153 -238.000863 
L 365.694377 -238.000863 
L 366.100602 -238.000863 
L 366.506826 -238.000863 
L 366.91305 -238.000863 
L 367.319274 -238.000863 
L 367.725498 -238.000863 
L 368.131722 -238.000863 
L 368.537947 -238.000863 
L 368.944171 -238.000863 
L 369.350395 -238.000863 
L 369.756619 -238.000863 
L 370.162843 -238.000863 
L 370.569067 -238.000863 
L 370.975292 -238.000863 
L 371.381516 -238.000863 
L 371.78774 -238.000863 
L 372.193964 -238.000863 
L 372.600188 -238.000863 
L 373.006412 -238.000863 
L 373.412637 -238.000863 
L 373.818861 -238.000863 
L 374.225085 -238.000863 
L 374.631309 -238.000863 
L 375.037533 -238.000863 
L 375.443782 -238.000863 
L 375.850006 -238.000863 
L 376.25623 -238.000863 
L 376.662454 -238.000863 
L 377.068678 -238.000863 
L 377.474902 -238.000863 
L 377.881127 -238.000863 
L 378.287351 -238.000863 
L 378.693575 -238.000863 
L 379.099799 -238.000863 
L 379.506023 -238.000863 
L 379.912247 -238.000863 
L 380.318471 -238.000863 
L 380.724696 -238.000863 
L 381.13092 -238.000863 
L 381.537144 -238.000863 
L 381.943368 -238.000863 
L 382.349592 -238.000863 
L 382.755816 -238.000863 
L 383.162041 -238.000863 
L 383.568265 -238.000863 
L 383.974489 -238.000863 
L 384.380713 -238.000863 
L 384.786937 -238.000863 
L 385.193161 -238.000863 
L 385.599386 -238.000863 
L 386.00561 -238.000863 
L 386.411834 -238.000863 
L 386.818058 -238.000863 
L 387.224282 -238.000863 
L 387.630506 -238.000863 
L 388.036731 -238.000863 
L 388.442955 -238.000863 
L 388.849179 -238.000863 
L 389.255403 -238.000863 
L 389.661627 -238.000863 
L 390.067851 -238.000863 
L 390.474076 -238.000863 
L 390.8803 -238.000863 
L 391.286524 -238.000863 
L 391.692748 -238.000863 
L 392.098972 -238.000863 
L 392.505196 -238.000863 
L 392.911421 -238.000863 
L 393.317645 -238.000863 
L 393.723869 -238.000863 
L 394.130093 -238.000863 
L 394.536317 -238.000863 
L 394.942541 -238.000863 
L 395.348766 -238.000863 
L 395.75499 -238.000863 
L 396.161214 -238.000863 
L 396.567438 -238.000863 
L 396.973662 -238.000863 
L 397.379886 -238.000863 
L 397.786111 -238.000863 
L 398.192335 -238.000863 
L 398.598559 -238.000863 
L 399.004783 -238.000863 
L 399.411007 -238.000863 
L 399.817231 -238.000863 
L 400.223456 -238.000863 
L 400.62968 -238.000863 
L 401.035904 -238.000863 
L 401.442128 -238.000863 
L 401.848352 -238.000863 
L 402.254576 -238.000863 
L 402.660801 -238.000863 
L 403.067025 -238.000863 
L 403.473249 -238.000863 
L 403.879473 -238.000863 
L 404.285697 -238.000863 
L 404.691921 -238.000863 
L 405.098146 -238.000863 
L 405.50437 -238.000863 
L 405.910594 -238.000863 
L 406.316818 -238.000863 
L 406.723042 -238.000863 
L 407.129266 -238.000863 
L 407.53549 -238.000863 
L 407.941715 -238.000863 
L 408.347939 -238.000863 
L 408.754163 -238.000863 
L 409.160387 -238.000863 
L 409.566611 -238.000863 
L 409.972835 -238.000863 
L 410.37906 -238.000863 
L 410.785284 -238.000863 
L 411.191508 -238.000863 
L 411.597732 -238.000863 
L 412.003956 -238.000863 
L 412.41018 -238.000863 
L 412.816405 -238.000863 
L 413.222629 -238.000863 
L 413.628853 -238.000863 
L 414.035077 -238.000863 
L 414.441301 -238.000863 
L 414.847525 -238.000863 
L 415.25375 -238.000863 
L 415.659974 -238.000863 
L 416.066198 -238.000863 
L 416.472422 -238.000863 
L 416.878646 -238.000863 
L 417.284895 -238.000863 
L 417.691119 -238.000863 
L 418.097343 -238.000863 
L 418.503567 -238.000863 
L 418.909791 -238.000863 
L 419.316015 -238.000863 
L 419.72224 -238.000863 
L 420.128464 -238.000863 
L 420.534688 -238.000863 
L 420.940912 -238.000863 
L 421.347136 -238.000863 
L 421.75336 -238.000863 
L 422.159585 -238.000863 
L 422.565809 -238.000863 
L 422.972033 -238.000863 
L 423.378257 -238.000863 
L 423.784481 -238.000863 
L 424.190705 -238.000863 
L 424.59693 -238.000863 
L 425.003154 -238.000863 
L 425.409378 -238.000863 
L 425.815602 -238.000863 
L 426.221826 -238.000863 
L 426.62805 -238.000863 
L 427.034275 -238.000863 
L 427.440499 -238.000863 
L 427.846723 -238.000863 
L 428.252947 -238.000863 
L 428.659171 -238.000863 
L 429.065395 -238.000863 
L 429.47162 -238.000863 
L 429.877844 -238.000863 
L 430.284068 -238.000863 
L 430.690292 -238.000863 
L 431.096516 -238.000863 
L 431.50274 -238.000863 
L 431.908965 -238.000863 
L 432.315189 -238.000863 
L 432.721413 -238.000863 
L 433.127637 -238.000863 
L 433.533861 -238.000863 
L 433.940085 -238.000863 
L 434.34631 -238.000863 
L 434.752534 -238.000863 
L 435.158758 -238.000863 
L 435.564982 -238.000863 
L 435.971206 -238.000863 
L 436.37743 -238.000863 
L 436.783654 -238.000863 
L 437.189879 -238.000863 
L 437.596103 -238.000863 
L 438.002327 -238.000863 
L 438.408551 -238.000863 
L 438.814775 -238.000863 
L 439.220999 -238.000863 
L 439.627224 -238.000863 
L 440.033448 -238.000863 
L 440.439672 -238.000863 
L 440.845896 -238.000863 
L 441.25212 -238.000863 
L 441.658344 -238.000863 
L 442.064569 -238.000863 
L 442.470793 -238.000863 
L 442.877017 -238.000863 
L 443.283241 -238.000863 
L 443.689465 -238.000863 
L 444.095689 -238.000863 
L 444.501914 -238.000863 
L 444.908138 -238.000863 
L 445.314362 -238.000863 
L 445.720586 -238.000863 
L 446.12681 -238.000863 
L 446.533034 -238.000863 
L 446.939259 -238.000863 
L 447.345483 -238.000863 
L 447.751707 -238.000863 
L 448.157931 -238.000863 
L 448.564155 -238.000863 
L 448.970379 -238.000863 
L 449.376604 -238.000863 
L 449.782828 -238.000863 
L 450.189052 -238.000863 
L 450.595276 -238.000863 
L 451.0015 -238.000863 
L 451.407724 -238.000863 
L 451.813949 -238.000863 
L 452.220173 -238.000863 
L 452.626397 -238.000863 
L 453.032621 -238.000863 
L 453.438845 -238.000863 
L 453.845069 -238.000863 
L 454.251294 -238.000863 
L 454.657518 -238.000863 
L 455.063742 -238.000863 
L 455.469966 -238.000863 
L 455.87619 -238.000863 
L 456.282414 -238.000863 
L 456.688639 -238.000863 
L 457.094863 -238.000863 
L 457.501087 -238.000863 
L 457.907311 -238.000863 
L 458.313535 -238.000863 
L 458.719784 -238.000863 
L 459.126008 -238.000863 
L 459.532232 -238.000863 
L 459.938456 -238.000863 
L 460.34468 -238.000863 
L 460.750904 -238.000863 
L 461.157129 -238.000863 
L 461.563353 -238.000863 
L 461.969577 -238.000863 
L 462.375801 -238.000863 
L 462.782025 -238.000863 
L 463.188249 -238.000863 
L 463.594474 -238.000863 
L 464.000698 -238.000863 
L 464.406922 -238.000863 
L 464.813146 -238.000863 
L 465.21937 -238.000863 
L 465.625594 -238.000863 
L 466.031818 -238.000863 
L 466.438043 -238.000863 
L 466.844267 -238.000863 
L 467.250491 -238.000863 
L 467.656715 -238.000863 
L 468.062939 -238.000863 
L 468.469163 -238.000863 
L 468.875388 -238.000863 
L 469.281612 -238.000863 
L 469.687836 -238.000863 
L 470.09406 -238.000863 
L 470.500284 -238.000863 
L 470.906508 -238.000863 
L 471.312733 -238.000863 
L 471.718957 -238.000863 
L 472.125181 -238.000863 
L 472.531405 -238.000863 
L 472.937629 -238.000863 
L 473.343853 -238.000863 
L 473.750078 -238.000863 
L 474.156302 -238.000863 
L 474.562526 -238.000863 
L 474.96875 -238.000863 
L 475.374974 -238.000863 
L 475.781198 -238.000863 
L 476.187423 -238.000863 
L 476.593647 -238.000863 
L 476.999871 -238.000863 
L 477.406095 -238.000863 
L 477.812319 -238.000863 
L 478.218543 -238.000863 
L 478.624768 -238.000863 
L 479.030992 -238.000863 
L 479.437216 -238.000863 
L 479.437216 -238.126475 
L 479.437216 -238.126475 
L 479.030992 -238.126475 
L 478.624768 -238.126475 
L 478.218543 -238.126475 
L 477.812319 -238.126475 
L 477.406095 -238.126475 
L 476.999871 -238.126475 
L 476.593647 -238.126475 
L 476.187423 -238.126475 
L 475.781198 -238.126475 
L 475.374974 -238.126475 
L 474.96875 -238.126475 
L 474.562526 -238.126475 
L 474.156302 -238.126475 
L 473.750078 -238.126475 
L 473.343853 -238.126475 
L 472.937629 -238.126475 
L 472.531405 -238.126475 
L 472.125181 -238.126475 
L 471.718957 -238.126475 
L 471.312733 -238.126475 
L 470.906508 -238.126475 
L 470.500284 -238.126475 
L 470.09406 -238.126475 
L 469.687836 -238.126475 
L 469.281612 -238.126475 
L 468.875388 -238.126475 
L 468.469163 -238.126475 
L 468.062939 -238.126475 
L 467.656715 -238.126475 
L 467.250491 -238.126475 
L 466.844267 -238.126475 
L 466.438043 -238.126475 
L 466.031818 -238.126475 
L 465.625594 -238.126475 
L 465.21937 -238.126475 
L 464.813146 -238.126475 
L 464.406922 -238.126475 
L 464.000698 -238.126475 
L 463.594474 -238.126475 
L 463.188249 -238.126475 
L 462.782025 -238.126475 
L 462.375801 -238.126475 
L 461.969577 -238.126475 
L 461.563353 -238.126475 
L 461.157129 -238.126475 
L 460.750904 -238.126475 
L 460.34468 -238.126475 
L 459.938456 -238.126475 
L 459.532232 -238.126475 
L 459.126008 -238.126475 
L 458.719784 -238.126475 
L 458.313535 -238.126475 
L 457.907311 -238.126475 
L 457.501087 -238.126475 
L 457.094863 -238.126475 
L 456.688639 -238.126475 
L 456.282414 -238.126475 
L 455.87619 -238.126475 
L 455.469966 -238.126475 
L 455.063742 -238.126475 
L 454.657518 -238.126475 
L 454.251294 -238.126475 
L 453.845069 -238.126475 
L 453.438845 -238.126475 
L 453.032621 -238.126475 
L 452.626397 -238.126475 
L 452.220173 -238.126475 
L 451.813949 -238.126475 
L 451.407724 -238.126475 
L 451.0015 -238.126475 
L 450.595276 -238.126475 
L 450.189052 -238.126475 
L 449.782828 -238.126475 
L 449.376604 -238.126475 
L 448.970379 -238.126475 
L 448.564155 -238.126475 
L 448.157931 -238.126475 
L 447.751707 -238.126475 
L 447.345483 -238.126475 
L 446.939259 -238.126475 
L 446.533034 -238.126475 
L 446.12681 -238.126475 
L 445.720586 -238.126475 
L 445.314362 -238.126475 
L 444.908138 -238.126475 
L 444.501914 -238.126475 
L 444.095689 -238.126475 
L 443.689465 -238.126475 
L 443.283241 -238.126475 
L 442.877017 -238.126475 
L 442.470793 -238.126475 
L 442.064569 -238.126475 
L 441.658344 -238.126475 
L 441.25212 -238.126475 
L 440.845896 -238.126475 
L 440.439672 -238.126475 
L 440.033448 -238.126475 
L 439.627224 -238.126475 
L 439.220999 -238.126475 
L 438.814775 -238.126475 
L 438.408551 -238.126475 
L 438.002327 -238.126475 
L 437.596103 -238.126475 
L 437.189879 -238.126475 
L 436.783654 -238.126475 
L 436.37743 -238.126475 
L 435.971206 -238.126475 
L 435.564982 -238.126475 
L 435.158758 -238.126475 
L 434.752534 -238.126475 
L 434.34631 -238.126475 
L 433.940085 -238.126475 
L 433.533861 -238.126475 
L 433.127637 -238.126475 
L 432.721413 -238.126475 
L 432.315189 -238.126475 
L 431.908965 -238.126475 
L 431.50274 -238.126475 
L 431.096516 -238.126475 
L 430.690292 -238.126475 
L 430.284068 -238.126475 
L 429.877844 -238.126475 
L 429.47162 -238.126475 
L 429.065395 -238.126475 
L 428.659171 -238.126475 
L 428.252947 -238.126475 
L 427.846723 -238.126475 
L 427.440499 -238.126475 
L 427.034275 -238.126475 
L 426.62805 -238.126475 
L 426.221826 -238.126475 
L 425.815602 -238.126475 
L 425.409378 -238.126475 
L 425.003154 -238.126475 
L 424.59693 -238.126475 
L 424.190705 -238.126475 
L 423.784481 -238.126475 
L 423.378257 -238.126475 
L 422.972033 -238.126475 
L 422.565809 -238.126475 
L 422.159585 -238.126475 
L 421.75336 -238.126475 
L 421.347136 -238.126475 
L 420.940912 -238.126475 
L 420.534688 -238.126475 
L 420.128464 -238.126475 
L 419.72224 -238.126475 
L 419.316015 -238.126475 
L 418.909791 -238.126475 
L 418.503567 -238.126475 
L 418.097343 -238.126475 
L 417.691119 -238.126475 
L 417.284895 -238.126475 
L 416.878646 -238.126475 
L 416.472422 -238.126475 
L 416.066198 -238.126475 
L 415.659974 -238.126475 
L 415.25375 -238.126475 
L 414.847525 -238.126475 
L 414.441301 -238.126475 
L 414.035077 -238.126475 
L 413.628853 -238.126475 
L 413.222629 -238.126475 
L 412.816405 -238.126475 
L 412.41018 -238.126475 
L 412.003956 -238.126475 
L 411.597732 -238.126475 
L 411.191508 -238.126475 
L 410.785284 -238.126475 
L 410.37906 -238.126475 
L 409.972835 -238.126475 
L 409.566611 -238.126475 
L 409.160387 -238.126475 
L 408.754163 -238.126475 
L 408.347939 -238.126475 
L 407.941715 -238.126475 
L 407.53549 -238.126475 
L 407.129266 -238.126475 
L 406.723042 -238.126475 
L 406.316818 -238.126475 
L 405.910594 -238.126475 
L 405.50437 -238.126475 
L 405.098146 -238.126475 
L 404.691921 -238.126475 
L 404.285697 -238.126475 
L 403.879473 -238.126475 
L 403.473249 -238.126475 
L 403.067025 -238.126475 
L 402.660801 -238.126475 
L 402.254576 -238.126475 
L 401.848352 -238.126475 
L 401.442128 -238.126475 
L 401.035904 -238.126475 
L 400.62968 -238.126475 
L 400.223456 -238.126475 
L 399.817231 -238.126475 
L 399.411007 -238.126475 
L 399.004783 -238.126475 
L 398.598559 -238.126475 
L 398.192335 -238.126475 
L 397.786111 -238.126475 
L 397.379886 -238.126475 
L 396.973662 -238.126475 
L 396.567438 -238.126475 
L 396.161214 -238.126475 
L 395.75499 -238.126475 
L 395.348766 -238.126475 
L 394.942541 -238.126475 
L 394.536317 -238.126475 
L 394.130093 -238.126475 
L 393.723869 -238.126475 
L 393.317645 -238.126475 
L 392.911421 -238.126475 
L 392.505196 -238.126475 
L 392.098972 -238.126475 
L 391.692748 -238.126475 
L 391.286524 -238.126475 
L 390.8803 -238.126475 
L 390.474076 -238.126475 
L 390.067851 -238.126475 
L 389.661627 -238.126475 
L 389.255403 -238.126475 
L 388.849179 -238.126475 
L 388.442955 -238.126475 
L 388.036731 -238.126475 
L 387.630506 -238.126475 
L 387.224282 -238.126475 
L 386.818058 -238.126475 
L 386.411834 -238.126475 
L 386.00561 -238.126475 
L 385.599386 -238.126475 
L 385.193161 -238.126475 
L 384.786937 -238.126475 
L 384.380713 -238.126475 
L 383.974489 -238.126475 
L 383.568265 -238.126475 
L 383.162041 -238.126475 
L 382.755816 -238.126475 
L 382.349592 -238.126475 
L 381.943368 -238.126475 
L 381.537144 -238.126475 
L 381.13092 -238.126475 
L 380.724696 -238.126475 
L 380.318471 -238.126475 
L 379.912247 -238.126475 
L 379.506023 -238.126475 
L 379.099799 -238.126475 
L 378.693575 -238.126475 
L 378.287351 -238.126475 
L 377.881127 -238.126475 
L 377.474902 -238.126475 
L 377.068678 -238.126475 
L 376.662454 -238.126475 
L 376.25623 -238.126475 
L 375.850006 -238.126475 
L 375.443782 -238.126475 
L 375.037533 -238.126475 
L 374.631309 -238.126475 
L 374.225085 -238.126475 
L 373.818861 -238.126475 
L 373.412637 -238.126475 
L 373.006412 -238.126475 
L 372.600188 -238.126475 
L 372.193964 -238.126475 
L 371.78774 -238.126475 
L 371.381516 -238.126475 
L 370.975292 -238.126475 
L 370.569067 -238.126475 
L 370.162843 -238.126475 
L 369.756619 -238.126475 
L 369.350395 -238.126475 
L 368.944171 -238.126475 
L 368.537947 -238.126475 
L 368.131722 -238.126475 
L 367.725498 -238.126475 
L 367.319274 -238.126475 
L 366.91305 -238.126475 
L 366.506826 -238.126475 
L 366.100602 -238.126475 
L 365.694377 -238.126475 
L 365.288153 -238.126475 
L 364.881929 -238.126475 
L 364.475705 -238.126475 
L 364.069481 -238.126475 
L 363.663257 -238.126475 
L 363.257032 -238.126475 
L 362.850808 -238.126475 
L 362.444584 -238.126475 
L 362.03836 -238.126475 
L 361.632136 -238.126475 
L 361.225912 -238.126475 
L 360.819687 -238.126475 
L 360.413463 -238.126475 
L 360.007239 -238.126475 
L 359.601015 -238.126475 
L 359.194791 -238.126475 
L 358.788567 -238.126475 
L 358.382342 -238.126475 
L 357.976118 -238.126475 
L 357.569894 -238.126475 
L 357.16367 -238.126475 
L 356.757446 -238.126475 
L 356.351222 -238.126475 
L 355.944997 -238.126475 
L 355.538773 -238.126475 
L 355.132549 -238.126475 
L 354.726325 -238.126475 
L 354.320101 -238.126475 
L 353.913877 -238.126475 
L 353.507652 -238.126475 
L 353.101428 -238.126475 
L 352.695204 -238.126475 
L 352.28898 -238.126475 
L 351.882756 -238.126475 
L 351.476532 -238.126475 
L 351.070307 -238.126475 
L 350.664083 -238.126475 
L 350.257859 -238.126475 
L 349.851635 -238.126475 
L 349.445411 -238.126475 
L 349.039187 -238.126475 
L 348.632963 -238.126475 
L 348.226738 -238.126475 
L 347.820514 -238.126475 
L 347.41429 -238.126475 
L 347.008066 -238.126475 
L 346.601842 -238.126475 
L 346.195618 -238.126475 
L 345.789393 -238.126475 
L 345.383169 -238.126475 
L 344.976945 -238.126475 
L 344.570721 -238.126475 
L 344.164497 -238.126475 
L 343.758273 -238.126475 
L 343.352048 -238.126475 
L 342.945824 -238.126475 
L 342.5396 -238.126475 
L 342.133376 -238.126475 
L 341.727152 -238.126475 
L 341.320928 -238.126475 
L 340.914703 -238.126475 
L 340.508479 -238.126475 
L 340.102255 -238.126475 
L 339.696031 -238.126475 
L 339.289807 -238.126475 
L 338.883583 -238.126475 
L 338.477358 -238.126475 
L 338.071134 -238.126475 
L 337.66491 -238.126475 
L 337.258686 -238.126475 
L 336.852462 -238.126475 
L 336.446238 -238.126475 
L 336.040013 -238.126455 
L 335.633789 -238.126445 
L 335.227565 -238.126445 
L 334.821341 -238.126445 
L 334.415117 -238.126445 
L 334.008893 -238.126445 
L 333.602644 -238.126445 
L 333.19642 -238.126445 
L 332.790196 -238.126445 
L 332.383972 -238.126445 
L 331.977748 -238.126445 
L 331.571523 -238.126445 
L 331.165299 -238.126445 
L 330.759075 -238.126445 
L 330.352851 -238.126445 
L 329.946627 -238.126445 
L 329.540403 -238.126445 
L 329.134178 -238.126445 
L 328.727954 -238.126445 
L 328.32173 -238.126445 
L 327.915506 -238.126445 
L 327.509282 -238.126445 
L 327.103058 -238.126445 
L 326.696833 -238.126445 
L 326.290609 -238.126445 
L 325.884385 -238.126445 
L 325.478161 -238.126445 
L 325.071937 -238.126445 
L 324.665713 -238.126445 
L 324.259488 -238.126445 
L 323.853264 -238.126442 
L 323.44704 -238.126436 
L 323.040816 -238.126436 
L 322.634592 -238.126436 
L 322.228368 -238.126436 
L 321.822143 -238.126436 
L 321.415919 -238.126436 
L 321.009695 -238.126436 
L 320.603471 -238.126436 
L 320.197247 -238.126436 
L 319.791023 -238.126436 
L 319.384799 -238.126436 
L 318.978574 -238.126436 
L 318.57235 -238.126436 
L 318.166126 -238.126436 
L 317.759902 -238.126436 
L 317.353678 -238.126436 
L 316.947454 -238.126436 
L 316.541229 -238.126436 
L 316.135005 -238.126436 
L 315.728781 -238.126436 
L 315.322557 -238.126436 
L 314.916333 -238.126436 
L 314.510109 -238.126436 
L 314.103884 -238.126436 
L 313.69766 -238.126436 
L 313.291436 -238.126436 
L 312.885212 -238.126436 
L 312.478988 -238.126436 
L 312.072764 -238.126436 
L 311.666539 -238.126436 
L 311.260315 -238.126436 
L 310.854091 -238.126436 
L 310.447867 -238.126436 
L 310.041643 -238.126436 
L 309.635419 -238.126436 
L 309.229194 -238.126436 
L 308.82297 -238.126436 
L 308.416746 -238.126436 
L 308.010522 -238.126452 
L 307.604298 -238.126475 
L 307.198074 -238.126478 
L 306.791849 -238.126491 
L 306.385625 -238.126507 
L 305.979401 -238.12652 
L 305.573177 -238.12652 
L 305.166953 -238.12652 
L 304.760729 -238.12652 
L 304.354504 -238.12652 
L 303.94828 -238.12652 
L 303.542056 -238.12652 
L 303.135832 -238.12652 
L 302.729608 -238.12652 
L 302.323384 -238.12652 
L 301.917159 -238.12652 
L 301.510935 -238.12652 
L 301.104711 -238.12652 
L 300.698487 -238.12652 
L 300.292263 -238.12651 
L 299.886039 -238.126497 
L 299.479814 -238.126481 
L 299.07359 -238.126478 
L 298.667366 -238.126455 
L 298.261142 -238.126442 
L 297.854918 -238.126426 
L 297.448694 -238.126403 
L 297.042469 -238.126391 
L 296.636245 -238.126381 
L 296.230021 -238.126365 
L 295.823797 -238.126365 
L 295.417573 -238.126365 
L 295.011349 -238.126365 
L 294.605124 -238.126365 
L 294.1989 -238.126365 
L 293.792676 -238.126365 
L 293.386452 -238.126365 
L 292.980228 -238.126365 
L 292.574004 -238.126375 
L 292.167755 -238.126391 
L 291.761531 -238.126401 
L 291.355307 -238.126423 
L 290.949083 -238.126436 
L 290.542859 -238.126452 
L 290.136634 -238.126475 
L 289.73041 -238.126478 
L 289.324186 -238.126491 
L 288.917962 -238.126507 
L 288.511738 -238.12652 
L 288.105514 -238.126543 
L 287.69929 -238.126556 
L 287.293065 -238.126571 
L 286.886841 -238.126584 
L 286.480617 -238.126607 
L 286.074393 -238.126623 
L 285.668169 -238.126636 
L 285.261945 -238.126656 
L 284.85572 -238.126656 
L 284.449496 -238.126656 
L 284.043272 -238.126656 
L 283.637048 -238.126656 
L 283.230824 -238.126633 
L 282.8246 -238.126617 
L 282.418375 -238.126604 
L 282.012151 -238.126581 
L 281.605927 -238.126553 
L 281.199703 -238.126517 
L 280.793479 -238.126488 
L 280.387255 -238.126472 
L 279.98103 -238.126433 
L 279.574806 -238.126401 
L 279.168582 -238.126372 
L 278.762358 -238.126336 
L 278.356134 -238.126307 
L 277.94991 -238.126271 
L 277.543685 -238.126243 
L 277.137461 -238.126204 
L 276.731237 -238.126188 
L 276.325013 -238.126158 
L 275.918789 -238.126145 
L 275.512565 -238.126129 
L 275.10634 -238.126119 
L 274.700116 -238.126119 
L 274.293892 -238.126119 
L 273.887668 -238.126135 
L 273.481444 -238.126148 
L 273.07522 -238.126161 
L 272.668995 -238.1262 
L 272.262771 -238.126221 
L 271.856547 -238.12627 
L 271.450323 -238.126322 
L 271.044087 -238.126383 
L 270.637863 -238.126448 
L 270.231638 -238.126503 
L 269.825414 -238.126567 
L 269.41919 -238.126639 
L 269.012966 -238.126704 
L 268.606742 -238.126788 
L 268.200518 -238.126853 
L 267.794293 -238.126915 
L 267.388069 -238.126966 
L 266.981845 -238.127018 
L 266.575621 -238.12706 
L 266.169397 -238.127095 
L 265.763173 -238.127108 
L 265.356948 -238.127134 
L 264.950724 -238.127134 
L 264.5445 -238.127108 
L 264.138276 -238.127083 
L 263.732052 -238.127031 
L 263.325828 -238.126966 
L 262.919603 -238.126902 
L 262.513379 -238.126817 
L 262.107155 -238.126724 
L 261.700931 -238.126623 
L 261.294707 -238.126507 
L 260.888483 -238.126391 
L 260.482258 -238.126261 
L 260.076034 -238.126145 
L 259.66981 -238.126013 
L 259.263586 -238.125899 
L 258.857362 -238.125767 
L 258.451138 -238.125657 
L 258.044913 -238.125541 
L 257.638689 -238.125457 
L 257.232465 -238.125373 
L 256.826241 -238.125308 
L 256.420017 -238.125256 
L 256.013793 -238.125233 
L 255.607568 -238.125233 
L 255.201344 -238.125249 
L 254.79512 -238.125301 
L 254.388896 -238.125375 
L 253.982672 -238.125479 
L 253.576448 -238.125598 
L 253.170223 -238.125737 
L 252.763999 -238.125915 
L 252.357775 -238.126099 
L 251.951551 -238.126306 
L 251.545327 -238.126513 
L 251.139103 -238.126745 
L 250.732878 -238.126988 
L 250.326642 -238.127231 
L 249.920418 -238.12747 
L 249.514194 -238.127703 
L 249.10797 -238.127933 
L 248.701746 -238.128129 
L 248.295521 -238.128307 
L 247.889297 -238.128462 
L 247.483073 -238.128592 
L 247.076849 -238.128666 
L 246.670625 -238.128718 
L 246.264401 -238.128728 
L 245.858176 -238.128699 
L 245.451952 -238.128635 
L 245.045728 -238.128495 
L 244.639504 -238.128337 
L 244.23328 -238.128121 
L 243.827056 -238.127859 
L 243.420831 -238.127549 
L 243.014607 -238.1272 
L 242.608383 -238.126828 
L 242.202159 -238.126431 
L 241.795935 -238.125994 
L 241.389711 -238.125548 
L 240.983486 -238.125108 
L 240.577262 -238.124672 
L 240.171038 -238.124235 
L 239.764814 -238.123818 
L 239.35859 -238.12344 
L 238.952366 -238.123108 
L 238.546141 -238.12291 
L 238.139917 -238.122749 
L 237.733693 -238.122664 
L 237.327469 -238.122602 
L 236.921245 -238.122614 
L 236.515021 -238.122671 
L 236.108796 -238.122813 
L 235.702572 -238.123003 
L 235.296348 -238.123267 
L 234.890124 -238.123592 
L 234.4839 -238.123968 
L 234.077676 -238.124405 
L 233.671451 -238.125009 
L 233.265227 -238.125711 
L 232.859003 -238.126445 
L 232.452779 -238.127221 
L 232.046555 -238.128022 
L 231.640331 -238.128843 
L 231.234107 -238.129664 
L 230.827882 -238.130453 
L 230.421658 -238.131202 
L 230.015434 -238.13191 
L 229.60921 -238.132563 
L 229.202974 -238.133106 
L 228.796749 -238.133568 
L 228.390525 -238.133888 
L 227.984301 -238.134105 
L 227.578077 -238.134177 
L 227.171853 -238.134102 
L 226.765629 -238.13387 
L 226.359404 -238.133492 
L 225.95318 -238.132949 
L 225.546956 -238.132241 
L 225.140732 -238.131391 
L 224.734508 -238.130399 
L 224.328284 -238.129265 
L 223.922059 -238.128027 
L 223.515835 -238.126689 
L 223.109611 -238.12527 
L 222.703387 -238.123803 
L 222.297163 -238.122307 
L 221.890939 -238.120821 
L 221.484714 -238.119717 
L 221.07849 -238.118725 
L 220.672266 -238.1178 
L 220.266042 -238.116979 
L 219.859818 -238.116287 
L 219.453594 -238.115751 
L 219.047369 -238.115371 
L 218.641145 -238.115157 
L 218.234921 -238.115163 
L 217.828697 -238.115383 
L 217.422473 -238.115797 
L 217.016249 -238.116439 
L 216.610025 -238.117312 
L 216.2038 -238.118394 
L 215.797576 -238.119662 
L 215.391352 -238.121135 
L 214.985128 -238.122782 
L 214.578904 -238.124565 
L 214.17268 -238.126475 
L 213.766455 -238.12845 
L 213.360231 -238.130921 
L 212.954007 -238.133642 
L 212.547783 -238.136386 
L 212.141559 -238.139075 
L 211.735335 -238.141677 
L 211.32911 -238.144105 
L 210.922886 -238.146316 
L 210.516662 -238.148262 
L 210.110438 -238.149881 
L 209.704214 -238.151136 
L 209.29799 -238.151977 
L 208.891765 -238.152356 
L 208.485529 -238.15226 
L 208.079305 -238.15164 
L 207.673081 -238.150494 
L 207.266857 -238.148814 
L 206.860632 -238.146617 
L 206.454408 -238.143903 
L 206.048184 -238.140691 
L 205.64196 -238.137047 
L 205.235736 -238.132985 
L 204.829512 -238.128589 
L 204.423287 -238.12391 
L 204.017063 -238.119027 
L 203.610839 -238.114034 
L 203.204615 -238.109371 
L 202.798391 -238.105675 
L 202.392167 -238.102184 
L 201.985943 -238.098942 
L 201.579718 -238.099265 
L 201.173494 -238.100955 
L 200.76727 -238.099438 
L 200.361046 -238.101371 
L 199.954822 -238.103636 
L 199.548598 -238.10601 
L 199.142373 -238.108499 
L 198.736149 -238.111061 
L 198.329925 -238.113616 
L 197.923701 -238.11616 
L 197.517477 -238.118624 
L 197.111253 -238.120962 
L 196.705028 -238.123132 
L 196.298804 -238.125082 
L 195.89258 -238.128023 
L 195.486356 -238.132207 
L 195.080132 -238.134334 
L 194.673908 -238.141172 
L 194.267683 -238.14833 
L 193.861459 -238.157132 
L 193.455235 -238.16623 
L 193.049011 -238.175047 
L 192.642787 -238.183374 
L 192.236563 -238.191044 
L 191.830338 -238.197858 
L 191.424114 -238.203629 
L 191.01789 -238.208217 
L 190.611666 -238.211432 
L 190.205442 -238.21316 
L 189.799218 -238.213286 
L 189.392993 -238.211705 
L 188.986769 -238.208359 
L 188.580545 -238.203263 
L 188.174321 -238.196379 
L 187.768085 -238.187754 
L 187.361861 -238.17746 
L 186.955636 -238.165611 
L 186.549412 -238.152347 
L 186.143188 -238.137893 
L 185.736964 -238.122417 
L 185.33074 -238.106195 
L 184.924516 -238.0895 
L 184.518291 -238.072631 
L 184.112067 -238.058588 
L 183.705843 -238.053266 
L 183.299619 -238.052556 
L 182.893395 -238.055869 
L 182.487171 -238.06026 
L 182.080946 -238.065688 
L 181.674722 -238.072126 
L 181.268498 -238.079517 
L 180.862274 -238.087796 
L 180.45605 -238.096857 
L 180.049826 -238.106586 
L 179.643601 -238.116877 
L 179.237377 -238.127529 
L 178.831153 -238.138403 
L 178.424929 -238.149326 
L 178.018705 -238.16008 
L 177.612481 -238.170485 
L 177.206256 -238.180316 
L 176.800032 -238.189364 
L 176.393808 -238.197495 
L 175.987584 -238.204455 
L 175.58136 -238.209992 
L 175.175136 -238.223507 
L 174.768911 -238.251204 
L 174.362687 -238.281098 
L 173.956463 -238.309581 
L 173.550239 -238.33599 
L 173.144015 -238.359737 
L 172.737791 -238.38025 
L 172.33156 -238.396904 
L 171.925336 -238.409137 
L 171.519112 -238.416493 
L 171.112888 -238.418545 
L 170.706664 -238.414985 
L 170.30044 -238.405568 
L 169.894215 -238.390174 
L 169.487991 -238.368762 
L 169.081767 -238.341453 
L 168.675543 -238.308449 
L 168.269319 -238.270104 
L 167.863095 -238.226867 
L 167.45687 -238.179344 
L 167.050646 -238.128212 
L 166.644422 -238.074283 
L 166.238198 -238.018522 
L 165.831974 -237.961962 
L 165.42575 -237.905558 
L 165.019525 -237.872557 
L 164.613301 -237.870515 
L 164.207077 -237.872555 
L 163.800853 -237.878823 
L 163.394629 -237.889585 
L 162.988405 -237.904877 
L 162.58218 -237.924615 
L 162.175956 -237.948707 
L 161.769726 -237.977021 
L 161.363502 -238.009265 
L 160.957278 -238.04514 
L 160.551054 -238.084384 
L 160.144829 -238.12643 
L 159.738605 -238.170619 
L 159.332381 -238.216324 
L 158.926157 -238.262766 
L 158.519933 -238.309183 
L 158.113709 -238.354898 
L 157.707484 -238.399032 
L 157.30126 -238.440528 
L 156.895036 -238.478497 
L 156.488812 -238.512012 
L 156.082588 -238.540242 
L 155.676364 -238.615818 
L 155.270139 -238.712948 
L 154.863915 -238.803962 
L 154.457691 -238.886598 
L 154.051467 -238.958773 
L 153.645243 -239.018475 
L 153.239019 -239.063884 
L 152.832794 -239.093334 
L 152.42657 -239.105392 
L 152.020346 -239.098884 
L 151.614122 -239.072929 
L 151.207892 -239.026982 
L 150.801668 -238.96087 
L 150.395443 -238.874795 
L 149.989219 -238.769378 
L 149.582995 -238.645629 
L 149.176771 -238.504998 
L 148.770547 -238.3493 
L 148.364323 -238.18079 
L 147.958098 -238.002098 
L 147.551874 -237.816152 
L 147.14565 -237.626181 
L 146.739426 -237.435948 
L 146.333202 -237.248988 
L 145.926978 -237.173942 
L 145.520753 -237.137733 
L 145.114529 -237.116522 
L 144.708305 -237.111594 
L 144.302081 -237.124051 
L 143.895857 -237.15473 
L 143.489633 -237.204173 
L 143.083408 -237.272638 
L 142.677184 -237.360081 
L 142.27096 -237.466061 
L 141.864736 -237.589814 
L 141.458512 -237.730216 
L 141.052282 -237.887196 
L 140.646057 -238.057591 
L 140.239833 -238.239002 
L 139.833609 -238.42883 
L 139.427385 -238.624478 
L 139.021161 -238.820574 
L 138.614937 -239.019027 
L 138.208712 -239.211571 
L 137.802488 -239.39584 
L 137.396264 -239.568489 
L 136.99004 -239.725109 
L 136.583816 -239.977432 
L 136.177592 -240.288445 
L 135.771367 -240.57422 
L 135.365143 -240.827077 
L 134.958919 -241.040327 
L 134.552695 -241.207623 
L 134.146471 -241.323236 
L 133.740247 -241.38203 
L 133.334022 -241.379791 
L 132.927798 -241.313174 
L 132.521574 -241.179923 
L 132.11535 -240.978987 
L 131.709126 -240.710493 
L 131.302902 -240.375961 
L 130.896678 -239.978233 
L 130.490447 -239.521515 
L 130.084223 -239.011423 
L 129.677999 -238.45486 
L 129.271775 -237.860043 
L 128.865551 -237.236261 
L 128.459326 -236.593968 
L 128.053102 -235.944805 
L 127.646878 -235.300468 
L 127.240654 -234.76258 
L 126.83443 -234.451467 
L 126.428206 -234.184253 
L 126.021981 -233.968199 
L 125.615757 -233.810036 
L 125.209533 -233.715854 
L 124.803309 -233.691558 
L 124.397085 -233.741143 
L 123.990861 -233.872439 
L 123.584637 -234.086343 
L 123.178412 -234.381523 
L 122.772185 -234.757822 
L 122.365961 -235.211622 
L 121.959737 -235.741008 
L 121.553513 -236.335481 
L 121.147289 -236.99249 
L 120.741064 -237.706075 
L 120.33484 -238.462665 
L 119.928616 -239.251377 
L 119.522392 -240.062172 
L 119.116168 -240.884584 
L 118.709944 -241.694694 
L 118.303719 -242.483475 
L 117.897495 -243.374439 
L 117.491268 -244.461447 
L 117.085044 -245.48429 
L 116.67882 -246.421042 
L 116.272596 -247.250051 
L 115.866371 -247.941263 
L 115.460147 -248.503589 
L 115.053923 -248.92954 
L 114.647699 -249.1784 
L 114.241475 -249.23625 
L 113.835251 -249.088944 
L 113.429026 -248.72875 
L 113.022802 -248.151452 
L 112.616578 -247.356461 
L 112.210351 -246.346588 
L 111.804127 -245.127788 
L 111.397903 -243.707957 
L 110.991678 -242.09705 
L 110.585454 -240.306167 
L 110.17923 -238.347 
L 109.773006 -236.231345 
L 109.366782 -233.970956 
L 108.960558 -231.577493 
L 108.554333 -229.062651 
L 108.148109 -226.438562 
L 107.741885 -223.718043 
L 107.335658 -220.914968 
L 106.929434 -218.044556 
L 106.52321 -215.123175 
L 106.116985 -212.16831 
L 105.710761 -209.19799 
L 105.304537 -206.230265 
L 104.898313 -203.282324 
L 104.492089 -200.36978 
L 104.085865 -197.505859 
L 103.67964 -194.747548 
L 103.273416 -192.141047 
L 102.867192 -189.638053 
L 102.460968 -187.186018 
L 102.054741 -184.777723 
L 101.648517 -182.407972 
L 101.242292 -180.069575 
L 100.836068 -177.75363 
L 100.429844 -175.449679 
L 100.02362 -173.145913 
L 99.617396 -170.829338 
L 99.211172 -168.484175 
L 98.804947 -166.094572 
L 98.398723 -163.647463 
L 97.992498 -161.127537 
L 97.586273 -158.520498 
L 97.180049 -155.814395 
L 96.773825 -153.001445 
L 96.367601 -150.080297 
L 95.961377 -147.058543 
L 95.555151 -143.955289 
L 95.148927 -140.803204 
L 94.742703 -137.649442 
L 94.336479 -134.554942 
L 93.930254 -131.591436 
L 93.52403 -128.836053 
L 93.117806 -126.363584 
L 92.71158 -124.237414 
L 92.305356 -122.500278 
L 91.899132 -121.166404 
L 91.492908 -120.21664 
L 91.086684 -119.597378 
L 90.68046 -119.223588 
L 90.274234 -118.985441 
L 89.86801 -118.757198 
L 89.461786 -118.405189 
L 89.055561 -117.802919 
L 88.649337 -116.841275 
L 88.243113 -115.427673 
L 87.836887 -113.501373 
L 87.430663 -111.035098 
L 87.024439 -108.056324 
L 86.618215 -104.642567 
L 86.211991 -100.924819 
L 85.805766 -97.08403 
L 85.399542 -93.338555 
L 84.993317 -89.922439 
L 84.587093 -87.056027 
L 84.180868 -84.913307 
L 83.774644 -83.592456 
L 83.36842 -83.10023 
L 82.962195 -83.921322 
L 82.555971 -85.375912 
L 82.149747 -87.052716 
L 81.743522 -88.640978 
L 81.337298 -89.833205 
L 80.931074 -90.363745 
L 80.524849 -90.030809 
L 80.118624 -88.708268 
L 79.7124 -86.355346 
L 79.306176 -83.023594 
L 78.899951 -78.859005 
L 78.493727 -74.096926 
L 78.087503 -69.044103 
L 77.681278 -64.045916 
L 77.275054 -59.440389 
L 76.868829 -55.506357 
L 76.462605 -52.41822 
L 76.056381 -50.230786 
L 75.650156 -48.853258 
L 75.243932 -48.09682 
L 74.837707 -47.761834 
L 74.431483 -47.655733 
L 74.025258 -47.637354 
L 73.619034 -47.63625 
z
" style="stroke: #ff7f0e; stroke-opacity: 0.2"/>
    </defs>
    <g clip-path="url(#p3040bf6d88)">
     <use xlink:href="#mc6af230e9b" x="0" y="281.634375" style="fill: #ff7f0e; fill-opacity: 0.2; stroke: #ff7f0e; stroke-opacity: 0.2"/>
    </g>
   </g>
   <g id="matplotlib.axis_1">
    <g id="xtick_1">
     <g id="line2d_1">
      <path d="M 73.619034 244.078125 
L 73.619034 22.318125 
" clip-path="url(#p3040bf6d88)" style="fill: none; stroke: #b0b0b0; stroke-opacity: 0.3; stroke-width: 0.8; stroke-linecap: square"/>
     </g>
     <g id="line2d_2">
      <defs>
       <path id="m307a15f82f" d="M 0 0 
L 0 3.5 
" style="stroke: #000000; stroke-width: 0.8"/>
      </defs>
      <g>
       <use xlink:href="#m307a15f82f" x="73.619034" y="244.078125" style="stroke: #000000; stroke-width: 0.8"/>
      </g>
     </g>
     <g id="text_1">
      <text style="font: 10px 'DejaVu Sans', 'Bitstream Vera Sans', 'Computer Modern Sans Serif', 'Lucida Grande', 'Verdana', 'Geneva', 'Lucid', 'Arial', 'Helvetica', 'Avant Garde', sans-serif; text-anchor: middle" x="73.619034" y="258.676562" transform="rotate(-0 73.619034 258.676562)">0.0</text>
     </g>
    </g>
    <g id="xtick_2">
     <g id="line2d_3">
      <path d="M 154.78267 244.078125 
L 154.78267 22.318125 
" clip-path="url(#p3040bf6d88)" style="fill: none; stroke: #b0b0b0; stroke-opacity: 0.3; stroke-width: 0.8; stroke-linecap: square"/>
     </g>
     <g id="line2d_4">
      <g>
       <use xlink:href="#m307a15f82f" x="154.78267" y="244.078125" style="stroke: #000000; stroke-width: 0.8"/>
      </g>
     </g>
     <g id="text_2">
      <text style="font: 10px 'DejaVu Sans', 'Bitstream Vera Sans', 'Computer Modern Sans Serif', 'Lucida Grande', 'Verdana', 'Geneva', 'Lucid', 'Arial', 'Helvetica', 'Avant Garde', sans-serif; text-anchor: middle" x="154.78267" y="258.676562" transform="rotate(-0 154.78267 258.676562)">0.2</text>
     </g>
    </g>
    <g id="xtick_3">
     <g id="line2d_5">
      <path d="M 235.946307 244.078125 
L 235.946307 22.318125 
" clip-path="url(#p3040bf6d88)" style="fill: none; stroke: #b0b0b0; stroke-opacity: 0.3; stroke-width: 0.8; stroke-linecap: square"/>
     </g>
     <g id="line2d_6">
      <g>
       <use xlink:href="#m307a15f82f" x="235.946307" y="244.078125" style="stroke: #000000; stroke-width: 0.8"/>
      </g>
     </g>
     <g id="text_3">
      <text style="font: 10px 'DejaVu Sans', 'Bitstream Vera Sans', 'Computer Modern Sans Serif', 'Lucida Grande', 'Verdana', 'Geneva', 'Lucid', 'Arial', 'Helvetica', 'Avant Garde', sans-serif; text-anchor: middle" x="235.946307" y="258.676562" transform="rotate(-0 235.946307 258.676562)">0.4</text>
     </g>
    </g>
    <g id="xtick_4">
     <g id="line2d_7">
      <path d="M 317.109943 244.078125 
L 317.109943 22.318125 
" clip-path="url(#p3040bf6d88)" style="fill: none; stroke: #b0b0b0; stroke-opacity: 0.3; stroke-width: 0.8; stroke-linecap: square"/>
     </g>
     <g id="line2d_8">
      <g>
       <use xlink:href="#m307a15f82f" x="317.109943" y="244.078125" style="stroke: #000000; stroke-width: 0.8"/>
      </g>
     </g>
     <g id="text_4">
      <text style="font: 10px 'DejaVu Sans', 'Bitstream Vera Sans', 'Computer Modern Sans Serif', 'Lucida Grande', 'Verdana', 'Geneva', 'Lucid', 'Arial', 'Helvetica', 'Avant Garde', sans-serif; text-anchor: middle" x="317.109943" y="258.676562" transform="rotate(-0 317.109943 258.676562)">0.6</text>
     </g>
    </g>
    <g id="xtick_5">
     <g id="line2d_9">
      <path d="M 398.27358 244.078125 
L 398.27358 22.318125 
" clip-path="url(#p3040bf6d88)" style="fill: none; stroke: #b0b0b0; stroke-opacity: 0.3; stroke-width: 0.8; stroke-linecap: square"/>
     </g>
     <g id="line2d_10">
      <g>
       <use xlink:href="#m307a15f82f" x="398.27358" y="244.078125" style="stroke: #000000; stroke-width: 0.8"/>
      </g>
     </g>
     <g id="text_5">
      <text style="font: 10px 'DejaVu Sans', 'Bitstream Vera Sans', 'Computer Modern Sans Serif', 'Lucida Grande', 'Verdana', 'Geneva', 'Lucid', 'Arial', 'Helvetica', 'Avant Garde', sans-serif; text-anchor: middle" x="398.27358" y="258.676562" transform="rotate(-0 398.27358 258.676562)">0.8</text>
     </g>
    </g>
    <g id="xtick_6">
     <g id="line2d_11">
      <path d="M 479.437216 244.078125 
L 479.437216 22.318125 
" clip-path="url(#p3040bf6d88)" style="fill: none; stroke: #b0b0b0; stroke-opacity: 0.3; stroke-width: 0.8; stroke-linecap: square"/>
     </g>
     <g id="line2d_12">
      <g>
       <use xlink:href="#m307a15f82f" x="479.437216" y="244.078125" style="stroke: #000000; stroke-width: 0.8"/>
      </g>
     </g>
     <g id="text_6">
      <text style="font: 10px 'DejaVu Sans', 'Bitstream Vera Sans', 'Computer Modern Sans Serif', 'Lucida Grande', 'Verdana', 'Geneva', 'Lucid', 'Arial', 'Helvetica', 'Avant Garde', sans-serif; text-anchor: middle" x="479.437216" y="258.676562" transform="rotate(-0 479.437216 258.676562)">1.0</text>
     </g>
    </g>
    <g id="text_7">
     <text style="font: 10px 'DejaVu Sans', 'Bitstream Vera Sans', 'Computer Modern Sans Serif', 'Lucida Grande', 'Verdana', 'Geneva', 'Lucid', 'Arial', 'Helvetica', 'Avant Garde', sans-serif; text-anchor: middle" x="276.528125" y="272.354687" transform="rotate(-0 276.528125 272.354687)">Tiempo (s)</text>
    </g>
   </g>
   <g id="matplotlib.axis_2">
    <g id="ytick_1">
     <g id="line2d_13">
      <path d="M 53.328125 233.998125 
L 499.728125 233.998125 
" clip-path="url(#p3040bf6d88)" style="fill: none; stroke: #b0b0b0; stroke-opacity: 0.3; stroke-width: 0.8; stroke-linecap: square"/>
     </g>
     <g id="line2d_14">
      <defs>
       <path id="m84db81af6b" d="M 0 0 
L -3.5 0 
" style="stroke: #000000; stroke-width: 0.8"/>
      </defs>
      <g>
       <use xlink:href="#m84db81af6b" x="53.328125" y="233.998125" style="stroke: #000000; stroke-width: 0.8"/>
      </g>
     </g>
     <g id="text_8">
      <text style="font: 10px 'DejaVu Sans', 'Bitstream Vera Sans', 'Computer Modern Sans Serif', 'Lucida Grande', 'Verdana', 'Geneva', 'Lucid', 'Arial', 'Helvetica', 'Avant Garde', sans-serif; text-anchor: end" x="46.328125" y="237.797344" transform="rotate(-0 46.328125 237.797344)">0</text>
     </g>
    </g>
    <g id="ytick_2">
     <g id="line2d_15">
      <path d="M 53.328125 207.531669 
L 499.728125 207.531669 
" clip-path="url(#p3040bf6d88)" style="fill: none; stroke: #b0b0b0; stroke-opacity: 0.3; stroke-width: 0.8; stroke-linecap: square"/>
     </g>
     <g id="line2d_16">
      <g>
       <use xlink:href="#m84db81af6b" x="53.328125" y="207.531669" style="stroke: #000000; stroke-width: 0.8"/>
      </g>
     </g>
     <g id="text_9">
      <text style="font: 10px 'DejaVu Sans', 'Bitstream Vera Sans', 'Computer Modern Sans Serif', 'Lucida Grande', 'Verdana', 'Geneva', 'Lucid', 'Arial', 'Helvetica', 'Avant Garde', sans-serif; text-anchor: end" x="46.328125" y="211.330887" transform="rotate(-0 46.328125 211.330887)">250</text>
     </g>
    </g>
    <g id="ytick_3">
     <g id="line2d_17">
      <path d="M 53.328125 181.065212 
L 499.728125 181.065212 
" clip-path="url(#p3040bf6d88)" style="fill: none; stroke: #b0b0b0; stroke-opacity: 0.3; stroke-width: 0.8; stroke-linecap: square"/>
     </g>
     <g id="line2d_18">
      <g>
       <use xlink:href="#m84db81af6b" x="53.328125" y="181.065212" style="stroke: #000000; stroke-width: 0.8"/>
      </g>
     </g>
     <g id="text_10">
      <text style="font: 10px 'DejaVu Sans', 'Bitstream Vera Sans', 'Computer Modern Sans Serif', 'Lucida Grande', 'Verdana', 'Geneva', 'Lucid', 'Arial', 'Helvetica', 'Avant Garde', sans-serif; text-anchor: end" x="46.328125" y="184.864431" transform="rotate(-0 46.328125 184.864431)">500</text>
     </g>
    </g>
    <g id="ytick_4">
     <g id="line2d_19">
      <path d="M 53.328125 154.598756 
L 499.728125 154.598756 
" clip-path="url(#p3040bf6d88)" style="fill: none; stroke: #b0b0b0; stroke-opacity: 0.3; stroke-width: 0.8; stroke-linecap: square"/>
     </g>
     <g id="line2d_20">
      <g>
       <use xlink:href="#m84db81af6b" x="53.328125" y="154.598756" style="stroke: #000000; stroke-width: 0.8"/>
      </g>
     </g>
     <g id="text_11">
      <text style="font: 10px 'DejaVu Sans', 'Bitstream Vera Sans', 'Computer Modern Sans Serif', 'Lucida Grande', 'Verdana', 'Geneva', 'Lucid', 'Arial', 'Helvetica', 'Avant Garde', sans-serif; text-anchor: end" x="46.328125" y="158.397975" transform="rotate(-0 46.328125 158.397975)">750</text>
     </g>
    </g>
    <g id="ytick_5">
     <g id="line2d_21">
      <path d="M 53.328125 128.1323 
L 499.728125 128.1323 
" clip-path="url(#p3040bf6d88)" style="fill: none; stroke: #b0b0b0; stroke-opacity: 0.3; stroke-width: 0.8; stroke-linecap: square"/>
     </g>
     <g id="line2d_22">
      <g>
       <use xlink:href="#m84db81af6b" x="53.328125" y="128.1323" style="stroke: #000000; stroke-width: 0.8"/>
      </g>
     </g>
     <g id="text_12">
      <text style="font: 10px 'DejaVu Sans', 'Bitstream Vera Sans', 'Computer Modern Sans Serif', 'Lucida Grande', 'Verdana', 'Geneva', 'Lucid', 'Arial', 'Helvetica', 'Avant Garde', sans-serif; text-anchor: end" x="46.328125" y="131.931518" transform="rotate(-0 46.328125 131.931518)">1000</text>
     </g>
    </g>
    <g id="ytick_6">
     <g id="line2d_23">
      <path d="M 53.328125 101.665843 
L 499.728125 101.665843 
" clip-path="url(#p3040bf6d88)" style="fill: none; stroke: #b0b0b0; stroke-opacity: 0.3; stroke-width: 0.8; stroke-linecap: square"/>
     </g>
     <g id="line2d_24">
      <g>
       <use xlink:href="#m84db81af6b" x="53.328125" y="101.665843" style="stroke: #000000; stroke-width: 0.8"/>
      </g>
     </g>
     <g id="text_13">
      <text style="font: 10px 'DejaVu Sans', 'Bitstream Vera Sans', 'Computer Modern Sans Serif', 'Lucida Grande', 'Verdana', 'Geneva', 'Lucid', 'Arial', 'Helvetica', 'Avant Garde', sans-serif; text-anchor: end" x="46.328125" y="105.465062" transform="rotate(-0 46.328125 105.465062)">1250</text>
     </g>
    </g>
    <g id="ytick_7">
     <g id="line2d_25">
      <path d="M 53.328125 75.199387 
L 499.728125 75.199387 
" clip-path="url(#p3040bf6d88)" style="fill: none; stroke: #b0b0b0; stroke-opacity: 0.3; stroke-width: 0.8; stroke-linecap: square"/>
     </g>
     <g id="line2d_26">
      <g>
       <use xlink:href="#m84db81af6b" x="53.328125" y="75.199387" style="stroke: #000000; stroke-width: 0.8"/>
      </g>
     </g>
     <g id="text_14">
      <text style="font: 10px 'DejaVu Sans', 'Bitstream Vera Sans', 'Computer Modern Sans Serif', 'Lucida Grande', 'Verdana', 'Geneva', 'Lucid', 'Arial', 'Helvetica', 'Avant Garde', sans-serif; text-anchor: end" x="46.328125" y="78.998606" transform="rotate(-0 46.328125 78.998606)">1500</text>
     </g>
    </g>
    <g id="ytick_8">
     <g id="line2d_27">
      <path d="M 53.328125 48.73293 
L 499.728125 48.73293 
" clip-path="url(#p3040bf6d88)" style="fill: none; stroke: #b0b0b0; stroke-opacity: 0.3; stroke-width: 0.8; stroke-linecap: square"/>
     </g>
     <g id="line2d_28">
      <g>
       <use xlink:href="#m84db81af6b" x="53.328125" y="48.73293" style="stroke: #000000; stroke-width: 0.8"/>
      </g>
     </g>
     <g id="text_15">
      <text style="font: 10px 'DejaVu Sans', 'Bitstream Vera Sans', 'Computer Modern Sans Serif', 'Lucida Grande', 'Verdana', 'Geneva', 'Lucid', 'Arial', 'Helvetica', 'Avant Garde', sans-serif; text-anchor: end" x="46.328125" y="52.532149" transform="rotate(-0 46.328125 52.532149)">1750</text>
     </g>
    </g>
    <g id="text_16">
     <text style="font: 10px 'DejaVu Sans', 'Bitstream Vera Sans', 'Computer Modern Sans Serif', 'Lucida Grande', 'Verdana', 'Geneva', 'Lucid', 'Arial', 'Helvetica', 'Avant Garde', sans-serif; text-anchor: middle" x="14.798438" y="133.198125" transform="rotate(-90 14.798438 133.198125)">Velocidad (rpm)</text>
    </g>
   </g>
   <g id="line2d_29">
    <path d="M 73.619034 233.998125 
L 74.431483 233.978672 
L 74.837707 233.872692 
L 75.243932 233.537998 
L 75.650156 232.782111 
L 76.056381 231.405791 
L 76.462605 229.257376 
L 77.275054 222.535562 
L 79.306176 200.804462 
L 79.7124 197.812577 
L 80.118624 195.70441 
L 80.524849 194.502738 
L 80.931074 194.145932 
L 81.337298 194.496302 
L 82.149747 196.462299 
L 82.962195 198.337354 
L 83.36842 198.578282 
L 83.774644 198.089221 
L 84.180868 196.773891 
L 84.587093 194.635245 
L 85.399542 188.356656 
L 87.024439 173.640402 
L 87.836887 168.199555 
L 88.649337 164.864394 
L 89.055561 163.910807 
L 89.461786 163.321314 
L 90.274234 162.76411 
L 90.68046 162.536334 
L 91.086684 162.17213 
L 91.492908 161.561198 
L 91.899132 160.618227 
L 92.305356 159.289438 
L 93.117806 155.431674 
L 93.930254 150.205583 
L 98.398723 118.216179 
L 100.836068 104.164455 
L 103.273416 89.792782 
L 105.710761 73.91305 
L 108.554333 55.627055 
L 109.773006 48.948953 
L 110.991678 43.416455 
L 111.804127 40.475383 
L 112.616578 38.188503 
L 113.429026 36.582397 
L 114.241475 35.657648 
L 114.647699 35.442621 
L 115.053923 35.384144 
L 115.460147 35.473481 
L 116.272596 36.052073 
L 117.085044 37.077106 
L 118.303719 39.19176 
L 121.553513 45.347537 
L 122.365961 46.465655 
L 123.178412 47.289139 
L 123.990861 47.795465 
L 124.803309 47.985033 
L 125.615757 47.878819 
L 126.428206 47.514737 
L 127.646878 46.598336 
L 129.677999 44.587144 
L 131.302902 43.067209 
L 132.521574 42.214635 
L 133.740247 41.69934 
L 134.552695 41.553659 
L 135.771367 41.610753 
L 136.99004 41.938895 
L 138.614937 42.638137 
L 141.458512 43.927757 
L 143.083408 44.393763 
L 144.302081 44.54756 
L 145.926978 44.501877 
L 147.958098 44.152166 
L 152.42657 43.23234 
L 154.457691 43.08932 
L 156.895036 43.190276 
L 164.613301 43.799586 
L 168.269319 43.677114 
L 173.956463 43.456465 
L 179.237377 43.542055 
L 186.143188 43.613997 
L 202.392167 43.577218 
L 243.827056 43.567629 
L 479.437216 43.566944 
L 479.437216 43.566944 
" clip-path="url(#p3040bf6d88)" style="fill: none; stroke: #ff7f0e; stroke-width: 2; stroke-linecap: square"/>
   </g>
   <g id="line2d_30">
    <path d="M 73.619034 233.998125 
L 74.431483 233.978663 
L 74.837707 233.872634 
L 75.243932 233.537787 
L 75.650156 232.781561 
L 76.056381 231.404649 
L 76.462605 229.255322 
L 77.275054 222.530684 
L 79.306176 200.789785 
L 79.7124 197.796045 
L 80.118624 195.686133 
L 80.524849 194.482833 
L 80.931074 194.124509 
L 81.337298 194.473477 
L 82.149747 196.437054 
L 82.962195 198.310238 
L 83.36842 198.550423 
L 83.774644 198.060693 
L 84.180868 196.744701 
L 84.587093 194.605325 
L 85.399542 188.324714 
L 87.430663 170.620092 
L 88.243113 166.222964 
L 88.649337 164.809374 
L 89.055561 163.851328 
L 89.461786 163.257293 
L 90.274234 162.69136 
L 90.68046 162.459701 
L 91.086684 162.092142 
L 91.492908 161.478477 
L 91.899132 160.533394 
L 92.305356 159.203125 
L 93.117806 155.343713 
L 93.930254 150.116388 
L 98.398723 118.075279 
L 100.836068 103.976334 
L 103.273416 89.576359 
L 105.710761 73.690023 
L 108.148109 57.852201 
L 109.773006 48.767034 
L 110.991678 43.262218 
L 111.804127 40.34309 
L 112.616578 38.080221 
L 113.429026 36.499341 
L 114.241475 35.599934 
L 114.647699 35.397248 
L 115.053923 35.350686 
L 115.460147 35.45137 
L 116.272596 36.050406 
L 117.085044 37.092226 
L 118.303719 39.2239 
L 121.553513 45.376601 
L 122.365961 46.485492 
L 123.178412 47.297939 
L 123.990861 47.792324 
L 124.803309 47.969926 
L 125.615757 47.852456 
L 126.428206 47.478526 
L 127.646878 46.550999 
L 129.677999 44.532776 
L 131.302902 43.016964 
L 132.521574 42.17155 
L 133.740247 41.665236 
L 134.552695 41.525796 
L 135.771367 41.591601 
L 136.99004 41.926709 
L 138.614937 42.63134 
L 141.458512 43.919486 
L 143.083408 44.380297 
L 144.302081 44.529494 
L 145.926978 44.478086 
L 147.958098 44.123645 
L 152.42657 43.20537 
L 154.457691 43.066136 
L 156.895036 43.170956 
L 164.613301 43.778353 
L 168.269319 43.653503 
L 173.956463 43.434199 
L 179.237377 43.521313 
L 186.143188 43.592028 
L 201.985943 43.554422 
L 235.702572 43.543941 
L 479.437216 43.545221 
L 479.437216 43.545221 
" clip-path="url(#p3040bf6d88)" style="fill: none; stroke-dasharray: 4.44,1.92; stroke-dashoffset: 0; stroke: #808080; stroke-width: 1.2"/>
   </g>
   <g id="patch_3">
    <path d="M 53.328125 244.078125 
L 53.328125 22.318125 
" style="fill: none; stroke: #000000; stroke-width: 0.8; stroke-linejoin: miter; stroke-linecap: square"/>
   </g>
   <g id="patch_4">
    <path d="M 499.728125 244.078125 
L 499.728125 22.318125 
" style="fill: none; stroke: #000000; stroke-width: 0.8; stroke-linejoin: miter; stroke-linecap: square"/>
   </g>
   <g id="patch_5">
    <path d="M 53.328125 244.078125 
L 499.728125 244.078125 
" style="fill: none; stroke: #000000; stroke-width: 0.8; stroke-linejoin: miter; stroke-linecap: square"/>
   </g>
   <g id="patch_6">
    <path d="M 53.328125 22.318125 
L 499.728125 22.318125 
" style="fill: none; stroke: #000000; stroke-width: 0.8; stroke-linejoin: miter; stroke-linecap: square"/>
   </g>
   <g id="text_17">
    <text style="font: 12px 'DejaVu Sans', 'Bitstream Vera Sans', 'Computer Modern Sans Serif', 'Lucida Grande', 'Verdana', 'Geneva', 'Lucid', 'Arial', 'Helvetica', 'Avant Garde', sans-serif; text-anchor: middle" x="276.528125" y="16.318125" transform="rotate(-0 276.528125 16.318125)">Velocidad - PSO</text>
   </g>
   <g id="legend_1">
    <g id="patch_7">
     <path d="M 378.49375 239.078125 
L 492.728125 239.078125 
Q 494.728125 239.078125 494.728125 237.078125 
L 494.728125 194.04375 
Q 494.728125 192.04375 492.728125 192.04375 
L 378.49375 192.04375 
Q 376.49375 192.04375 376.49375 194.04375 
L 376.49375 237.078125 
Q 376.49375 239.078125 378.49375 239.078125 
z
" style="fill: #ffffff; opacity: 0.8; stroke: #cccccc; stroke-linejoin: miter"/>
    </g>
    <g id="patch_8">
     <path d="M 380.49375 203.642187 
L 400.49375 203.642187 
L 400.49375 196.642187 
L 380.49375 196.642187 
z
" style="fill: #ff7f0e; fill-opacity: 0.2; stroke: #ff7f0e; stroke-opacity: 0.2; stroke-linejoin: miter"/>
    </g>
    <g id="text_18">
     <text style="font: 10px 'DejaVu Sans', 'Bitstream Vera Sans', 'Computer Modern Sans Serif', 'Lucida Grande', 'Verdana', 'Geneva', 'Lucid', 'Arial', 'Helvetica', 'Avant Garde', sans-serif; text-anchor: start" x="408.49375" y="203.642187" transform="rotate(-0 408.49375 203.642187)">Rango 95% runs</text>
    </g>
    <g id="line2d_31">
     <path d="M 380.49375 214.820312 
L 390.49375 214.820312 
L 400.49375 214.820312 
" style="fill: none; stroke: #ff7f0e; stroke-width: 2; stroke-linecap: square"/>
    </g>
    <g id="text_19">
     <text style="font: 10px 'DejaVu Sans', 'Bitstream Vera Sans', 'Computer Modern Sans Serif', 'Lucida Grande', 'Verdana', 'Geneva', 'Lucid', 'Arial', 'Helvetica', 'Avant Garde', sans-serif; text-anchor: start" x="408.49375" y="218.320312" transform="rotate(-0 408.49375 218.320312)">Mejor run</text>
    </g>
    <g id="line2d_32">
     <path d="M 380.49375 229.498437 
L 390.49375 229.498437 
L 400.49375 229.498437 
" style="fill: none; stroke-dasharray: 4.44,1.92; stroke-dashoffset: 0; stroke: #808080; stroke-width: 1.2"/>
    </g>
    <g id="text_20">
     <text style="font: 10px 'DejaVu Sans', 'Bitstream Vera Sans', 'Computer Modern Sans Serif', 'Lucida Grande', 'Verdana', 'Geneva', 'Lucid', 'Arial', 'Helvetica', 'Avant Garde', sans-serif; text-anchor: start" x="408.49375" y="232.998437" transform="rotate(-0 408.49375 232.998437)">Medida</text>
    </g>
   </g>
  </g>
 </g>
 <defs>
  <clipPath id="p3040bf6d88">
   <rect x="53.328125" y="22.318125" width="446.4" height="221.76"/>
  </clipPath>
 </defs>
</svg>
