<?xml version="1.0" encoding="utf-8" standalone="no"?>
<!DOCTYPE svg PUBLIC "-//W3C//DTD SVG 1.1//EN"
  "http://www.w3.org/Graphics/SVG/1.1/DTD/svg11.dtd">
<svg xmlns:xlink="http://www.w3.org/1999/xlink" width="502.582812pt" height="281.634375pt" viewBox="0 0 502.582812 281.634375" xmlns="http://www.w3.org/2000/svg" version="1.1">
 <metadata>
  <rdf:RDF xmlns:dc="http://purl.org/dc/elements/1.1/" xmlns:cc="http://creativecommons.org/ns#" xmlns:rdf="http://www.w3.org/1999/02/22-rdf-syntax-ns#">
   <cc:Work>
    <dc:type rdf:resource="http://purl.org/dc/dcmitype/StillImage"/>
    <dc:date>2025-11-28T07:42:50.033505</dc:date>
    <dc:format>image/svg+xml</dc:format>
    <dc:creator>
     <cc:Agent>
      <dc:title>Matplotlib v3.9.2, https://matplotlib.org/</dc:title>
     </cc:Agent>
    </dc:creator>
   </cc:Work>
  </rdf:RDF>
 </metadata>
 <defs>
  <style type="text/css">*{stroke-linejoin: round; stroke-linecap: butt}</style>
 </defs>
 <g id="figure_1">
  <g id="patch_1">
   <path d="M 0 281.634375 
L 502.582812 281.634375 
L 502.582812 0 
L 0 0 
z
" style="fill: #ffffff"/>
  </g>
  <g id="axes_1">
   <g id="patch_2">
    <path d="M 48.982813 244.078125 
L 495.382812 244.078125 
L 495.382812 22.318125 
L 48.982813 22.318125 
z
" style="fill: #ffffff"/>
   </g>
   <g id="PolyCollection_1">
    <defs>
     <path id="m71b5b2392b" d="M 69.273722 -93.961164 
L 69.273722 -93.961164 
L 69.679946 -94.044424 
L 70.08617 -95.107016 
L 70.492395 -99.027721 
L 70.898619 -107.743152 
L 71.304844 -122.355028 
L 71.711068 -142.546093 
L 72.117292 -166.432023 
L 72.523517 -190.896638 
L 72.929741 -212.299773 
L 73.335965 -227.31409 
L 73.74219 -233.625696 
L 74.148415 -230.321218 
L 74.554639 -217.877934 
L 74.960863 -197.874236 
L 75.367087 -172.578528 
L 75.773312 -144.562152 
L 76.179536 -116.412511 
L 76.585761 -90.587937 
L 76.991985 -69.307839 
L 77.398209 -54.494369 
L 77.804434 -47.63625 
L 78.210658 -49.583019 
L 78.616883 -60.323441 
L 79.023108 -78.811576 
L 79.429332 -102.954086 
L 79.835556 -129.840179 
L 80.24178 -156.194657 
L 80.648005 -178.90246 
L 81.054229 -195.580074 
L 81.460453 -204.930948 
L 81.866678 -206.687174 
L 82.272902 -201.541923 
L 82.679127 -190.803995 
L 83.085351 -176.192833 
L 83.491575 -159.456296 
L 83.897801 -142.228484 
L 84.304025 -125.934619 
L 84.710249 -111.757752 
L 85.116473 -100.63302 
L 85.522697 -93.243193 
L 85.928921 -90.001148 
L 86.335147 -91.02075 
L 86.741371 -96.077401 
L 87.147595 -104.618261 
L 87.55382 -115.76787 
L 87.960044 -128.453692 
L 88.366268 -141.559163 
L 88.772494 -154.016791 
L 89.178718 -164.93548 
L 89.584942 -173.698351 
L 89.991166 -180.001414 
L 90.39739 -183.837041 
L 90.803614 -185.436603 
L 91.209839 -185.116761 
L 91.616064 -183.360208 
L 92.022288 -180.676443 
L 92.428513 -177.484193 
L 92.834737 -174.126288 
L 93.240961 -170.862305 
L 93.647185 -167.882144 
L 94.053411 -165.308451 
L 94.459635 -163.190409 
L 94.865859 -161.560159 
L 95.272083 -160.42909 
L 95.678307 -159.794947 
L 96.084532 -159.645834 
L 96.490756 -159.947452 
L 96.89698 -160.669819 
L 97.303204 -161.780939 
L 97.709428 -163.223389 
L 98.115655 -164.9251 
L 98.52188 -166.809988 
L 98.928104 -168.725124 
L 99.334328 -170.585255 
L 99.740552 -172.313986 
L 100.146776 -173.809423 
L 100.553 -174.979804 
L 100.959225 -175.749581 
L 101.365449 -176.069104 
L 101.771673 -175.904012 
L 102.177897 -175.238075 
L 102.584121 -174.081444 
L 102.990345 -172.457614 
L 103.396573 -170.399346 
L 103.802797 -167.942158 
L 104.209021 -165.118654 
L 104.615245 -161.953815 
L 105.021469 -158.462882 
L 105.427693 -154.651685 
L 105.833918 -150.519073 
L 106.240142 -146.061604 
L 106.646366 -141.279317 
L 107.05259 -136.181283 
L 107.458814 -130.790584 
L 107.865038 -125.147415 
L 108.271266 -119.309927 
L 108.67749 -113.35308 
L 109.083714 -107.36491 
L 109.489938 -101.441844 
L 109.896162 -95.682988 
L 110.302386 -90.184621 
L 110.708611 -85.035386 
L 111.114835 -80.312585 
L 111.521059 -76.079996 
L 111.927283 -72.385573 
L 112.333507 -69.265162 
L 112.739731 -66.74113 
L 113.145956 -64.823265 
L 113.552183 -63.510852 
L 113.958407 -62.794012 
L 114.364631 -62.654762 
L 114.770855 -63.067883 
L 115.177079 -64.001491 
L 115.583304 -65.417468 
L 115.989528 -67.271846 
L 116.395752 -69.504058 
L 116.801976 -72.043822 
L 117.2082 -74.030774 
L 117.614424 -76.217357 
L 118.020648 -78.587567 
L 118.426873 -81.100464 
L 118.8331 -83.707552 
L 119.239324 -86.360165 
L 119.645548 -89.008809 
L 120.051772 -91.597778 
L 120.457997 -94.082117 
L 120.864221 -96.46997 
L 121.270445 -98.694974 
L 121.676669 -100.730246 
L 122.082893 -102.55638 
L 122.489117 -104.154177 
L 122.895341 -105.499472 
L 123.301566 -106.576675 
L 123.70779 -107.392186 
L 124.114014 -107.949919 
L 124.520238 -108.254649 
L 124.926462 -108.315381 
L 125.332686 -108.144609 
L 125.738911 -107.758086 
L 126.145135 -107.174414 
L 126.551365 -106.23031 
L 126.957589 -104.55126 
L 127.363813 -102.771555 
L 127.770038 -100.932287 
L 128.176262 -99.070321 
L 128.582486 -97.221052 
L 128.98871 -95.417117 
L 129.394934 -93.688975 
L 129.801158 -92.065379 
L 130.207382 -90.570695 
L 130.613607 -89.225678 
L 131.019831 -88.047294 
L 131.426055 -87.048608 
L 131.832279 -86.23875 
L 132.238503 -85.622976 
L 132.644727 -85.202735 
L 133.050952 -84.975852 
L 133.457176 -84.936732 
L 133.8634 -85.076611 
L 134.269624 -85.38388 
L 134.675848 -85.844425 
L 135.082072 -86.441998 
L 135.488297 -87.158619 
L 135.894521 -87.974984 
L 136.300745 -88.776175 
L 136.706969 -89.185887 
L 137.113199 -89.662024 
L 137.519423 -90.194585 
L 137.925648 -90.7713 
L 138.331872 -91.379868 
L 138.738096 -92.008137 
L 139.14432 -92.643117 
L 139.550544 -93.273279 
L 139.956768 -93.888708 
L 140.362993 -94.476027 
L 140.769217 -95.039348 
L 141.175441 -95.560676 
L 141.581665 -96.035611 
L 141.987889 -96.458765 
L 142.394113 -96.825937 
L 142.800338 -97.134119 
L 143.206562 -97.381465 
L 143.612786 -97.567223 
L 144.01901 -97.691942 
L 144.425234 -97.756867 
L 144.831458 -97.768407 
L 145.237683 -97.723686 
L 145.643907 -97.597641 
L 146.050131 -97.107809 
L 146.456355 -96.567022 
L 146.862579 -96.015013 
L 147.268809 -95.462609 
L 147.675034 -94.920112 
L 148.081258 -94.396659 
L 148.487482 -93.901124 
L 148.893706 -93.441616 
L 149.29993 -93.024816 
L 149.706154 -92.656284 
L 150.112379 -92.340389 
L 150.518603 -92.08029 
L 150.924827 -91.877971 
L 151.331051 -91.734242 
L 151.737275 -91.648768 
L 152.143499 -91.620173 
L 152.549724 -91.646095 
L 152.955948 -91.723282 
L 153.362172 -91.847684 
L 153.768396 -92.014592 
L 154.17462 -92.218635 
L 154.580844 -92.453672 
L 154.987069 -92.714262 
L 155.393293 -92.985812 
L 155.799517 -93.165765 
L 156.205741 -93.247749 
L 156.611965 -93.347906 
L 157.018189 -93.463485 
L 157.424414 -93.591113 
L 157.830644 -93.727991 
L 158.236868 -93.87167 
L 158.643092 -94.019317 
L 159.049316 -94.168212 
L 159.45554 -94.315758 
L 159.861765 -94.459538 
L 160.267989 -94.597319 
L 160.674213 -94.727121 
L 161.080437 -94.847208 
L 161.486661 -94.9561 
L 161.892885 -95.052596 
L 162.29911 -95.13578 
L 162.705334 -95.205005 
L 163.111558 -95.259901 
L 163.517782 -95.300367 
L 163.924006 -95.326543 
L 164.33023 -95.33391 
L 164.736455 -95.280055 
L 165.142679 -95.142741 
L 165.548903 -94.979034 
L 165.955127 -94.81426 
L 166.361351 -94.651533 
L 166.767575 -94.493781 
L 167.1738 -94.343669 
L 167.580024 -94.203606 
L 167.986248 -94.075682 
L 168.392478 -93.961647 
L 168.798702 -93.86292 
L 169.204926 -93.780542 
L 169.611151 -93.715215 
L 170.017375 -93.667283 
L 170.423599 -93.636751 
L 170.829823 -93.623309 
L 171.236047 -93.626326 
L 171.642271 -93.644909 
L 172.048496 -93.67792 
L 172.45472 -93.723994 
L 172.860944 -93.781636 
L 173.267168 -93.849166 
L 173.673392 -93.924834 
L 174.079616 -94.006815 
L 174.485841 -94.09208 
L 174.892065 -94.1624 
L 175.298289 -94.218472 
L 175.704513 -94.253712 
L 176.110737 -94.284169 
L 176.516961 -94.308349 
L 176.923186 -94.335991 
L 177.32941 -94.366428 
L 177.735634 -94.398985 
L 178.141858 -94.432991 
L 178.548082 -94.467781 
L 178.954306 -94.502715 
L 179.360531 -94.537199 
L 179.766755 -94.570674 
L 180.172979 -94.602626 
L 180.579203 -94.632608 
L 180.985427 -94.660219 
L 181.391651 -94.685142 
L 181.797876 -94.707098 
L 182.2041 -94.725899 
L 182.610324 -94.719115 
L 183.016548 -94.729743 
L 183.422772 -94.708205 
L 183.829008 -94.672889 
L 184.235233 -94.635622 
L 184.641457 -94.588097 
L 185.047681 -94.539362 
L 185.453905 -94.491846 
L 185.860129 -94.44638 
L 186.266353 -94.403703 
L 186.672578 -94.364471 
L 187.078802 -94.329241 
L 187.485026 -94.298465 
L 187.89125 -94.272484 
L 188.297474 -94.25154 
L 188.703698 -94.235762 
L 189.109923 -94.225179 
L 189.516147 -94.219728 
L 189.922371 -94.219241 
L 190.328595 -94.223483 
L 190.734819 -94.232131 
L 191.141043 -94.244788 
L 191.547268 -94.26103 
L 191.953492 -94.280357 
L 192.359716 -94.302264 
L 192.76594 -94.326217 
L 193.172164 -94.351655 
L 193.578388 -94.37595 
L 193.984613 -94.396434 
L 194.390837 -94.417176 
L 194.797061 -94.437764 
L 195.203285 -94.457835 
L 195.609509 -94.477026 
L 196.015733 -94.491624 
L 196.421958 -94.500747 
L 196.828182 -94.509941 
L 197.234406 -94.517679 
L 197.64063 -94.525564 
L 198.046854 -94.533747 
L 198.453078 -94.542072 
L 198.859303 -94.550384 
L 199.265527 -94.557839 
L 199.671751 -94.563528 
L 200.077975 -94.568365 
L 200.484199 -94.567546 
L 200.890423 -94.562283 
L 201.296647 -94.555524 
L 201.702872 -94.547478 
L 202.109096 -94.538364 
L 202.51532 -94.528413 
L 202.921544 -94.517843 
L 203.327768 -94.506891 
L 203.733992 -94.495786 
L 204.140217 -94.481892 
L 204.546453 -94.468138 
L 204.952677 -94.455158 
L 205.358901 -94.443148 
L 205.765125 -94.432294 
L 206.17135 -94.422733 
L 206.577574 -94.414577 
L 206.983798 -94.407903 
L 207.390022 -94.402764 
L 207.796246 -94.399171 
L 208.20247 -94.397117 
L 208.608695 -94.396552 
L 209.014919 -94.397422 
L 209.421143 -94.399631 
L 209.827367 -94.403074 
L 210.233591 -94.407619 
L 210.639815 -94.413127 
L 211.04604 -94.419449 
L 211.452264 -94.426431 
L 211.858488 -94.433907 
L 212.264712 -94.440453 
L 212.670936 -94.446333 
L 213.07716 -94.452306 
L 213.483385 -94.458255 
L 213.889609 -94.464069 
L 214.295833 -94.469653 
L 214.702057 -94.474911 
L 215.108281 -94.479761 
L 215.514505 -94.484126 
L 215.920729 -94.487955 
L 216.326954 -94.491198 
L 216.733178 -94.493831 
L 217.139402 -94.495847 
L 217.545626 -94.497236 
L 217.95185 -94.497995 
L 218.358074 -94.498151 
L 218.764299 -94.497736 
L 219.170523 -94.496789 
L 219.576747 -94.495337 
L 219.982971 -94.493437 
L 220.389195 -94.491156 
L 220.795419 -94.488559 
L 221.201644 -94.485705 
L 221.607868 -94.482671 
L 222.014092 -94.479509 
L 222.420316 -94.476297 
L 222.82654 -94.473097 
L 223.232764 -94.469958 
L 223.638989 -94.466938 
L 224.045213 -94.464087 
L 224.451437 -94.461113 
L 224.857661 -94.45815 
L 225.263897 -94.455593 
L 225.670122 -94.453467 
L 226.076346 -94.4518 
L 226.48257 -94.45059 
L 226.888794 -94.449846 
L 227.295018 -94.449547 
L 227.701242 -94.44968 
L 228.107467 -94.450223 
L 228.513691 -94.451139 
L 228.919915 -94.452406 
L 229.326139 -94.453867 
L 229.732363 -94.455095 
L 230.138587 -94.456491 
L 230.544811 -94.458025 
L 230.951036 -94.459657 
L 231.35726 -94.461357 
L 231.763484 -94.463095 
L 232.169708 -94.464828 
L 232.575932 -94.466528 
L 232.982156 -94.468163 
L 233.388381 -94.469704 
L 233.794605 -94.471128 
L 234.200829 -94.472417 
L 234.607053 -94.473547 
L 235.013277 -94.474514 
L 235.419501 -94.475303 
L 235.825726 -94.475907 
L 236.23195 -94.476329 
L 236.638174 -94.476564 
L 237.044398 -94.476624 
L 237.450622 -94.47651 
L 237.856846 -94.47624 
L 238.263071 -94.47582 
L 238.669295 -94.475272 
L 239.075519 -94.474609 
L 239.481743 -94.473846 
L 239.887967 -94.473016 
L 240.294191 -94.472132 
L 240.700416 -94.471206 
L 241.10664 -94.470264 
L 241.512864 -94.469331 
L 241.919088 -94.468425 
L 242.325312 -94.467546 
L 242.731536 -94.466719 
L 243.137761 -94.465952 
L 243.543985 -94.465262 
L 243.950209 -94.464653 
L 244.356433 -94.46413 
L 244.762657 -94.463702 
L 245.168881 -94.463373 
L 245.575106 -94.463133 
L 245.98133 -94.462993 
L 246.387566 -94.462954 
L 246.79379 -94.46301 
L 247.200014 -94.463153 
L 247.606238 -94.463375 
L 248.012463 -94.463662 
L 248.418687 -94.464011 
L 248.824911 -94.464409 
L 249.231135 -94.464848 
L 249.637359 -94.465327 
L 250.043583 -94.465827 
L 250.449808 -94.466336 
L 250.856032 -94.466846 
L 251.262256 -94.467347 
L 251.66848 -94.467818 
L 252.074704 -94.468265 
L 252.480928 -94.468671 
L 252.887153 -94.469039 
L 253.293377 -94.469371 
L 253.699601 -94.469656 
L 254.105825 -94.469892 
L 254.512049 -94.470076 
L 254.918273 -94.47021 
L 255.324498 -94.470288 
L 255.730722 -94.470314 
L 256.136946 -94.470299 
L 256.54317 -94.470237 
L 256.949394 -94.470127 
L 257.355618 -94.469972 
L 257.761843 -94.469794 
L 258.168067 -94.46958 
L 258.574291 -94.469342 
L 258.980515 -94.469091 
L 259.386739 -94.468833 
L 259.792963 -94.468564 
L 260.199188 -94.46829 
L 260.605412 -94.468022 
L 261.011636 -94.467762 
L 261.41786 -94.467518 
L 261.824084 -94.467296 
L 262.230308 -94.467092 
L 262.636533 -94.466909 
L 263.042757 -94.466746 
L 263.448981 -94.466611 
L 263.855205 -94.466502 
L 264.261429 -94.466427 
L 264.667653 -94.466377 
L 265.073878 -94.466362 
L 265.480102 -94.466373 
L 265.886326 -94.466418 
L 266.29255 -94.466483 
L 266.698774 -94.46657 
L 267.10501 -94.466672 
L 267.511235 -94.466792 
L 267.917459 -94.466926 
L 268.323683 -94.467065 
L 268.729907 -94.467203 
L 269.136131 -94.467352 
L 269.542355 -94.467484 
L 269.94858 -94.467621 
L 270.354804 -94.467751 
L 270.761028 -94.467876 
L 271.167252 -94.467995 
L 271.573476 -94.468103 
L 271.9797 -94.4682 
L 272.385925 -94.468281 
L 272.792149 -94.468352 
L 273.198373 -94.468408 
L 273.604597 -94.468446 
L 274.010821 -94.468469 
L 274.417045 -94.468485 
L 274.82327 -94.468489 
L 275.229494 -94.468481 
L 275.635718 -94.468456 
L 276.041942 -94.468427 
L 276.448166 -94.468382 
L 276.85439 -94.468329 
L 277.260615 -94.468272 
L 277.666839 -94.468208 
L 278.073063 -94.468134 
L 278.479287 -94.468064 
L 278.885511 -94.467992 
L 279.291735 -94.467922 
L 279.69796 -94.467851 
L 280.104184 -94.467781 
L 280.510408 -94.467712 
L 280.916632 -94.467647 
L 281.322856 -94.467581 
L 281.72908 -94.467525 
L 282.135305 -94.467483 
L 282.541529 -94.467445 
L 282.947753 -94.467418 
L 283.353977 -94.467396 
L 283.760201 -94.467383 
L 284.166425 -94.467375 
L 284.57265 -94.46737 
L 284.978874 -94.467374 
L 285.385098 -94.467386 
L 285.791322 -94.467399 
L 286.197546 -94.467423 
L 286.60377 -94.467449 
L 287.009994 -94.467485 
L 287.416219 -94.467523 
L 287.822443 -94.467568 
L 288.228691 -94.467611 
L 288.634915 -94.467655 
L 289.041139 -94.467702 
L 289.447364 -94.467749 
L 289.853588 -94.4678 
L 290.259812 -94.467842 
L 290.666036 -94.467879 
L 291.07226 -94.467916 
L 291.478484 -94.467954 
L 291.884709 -94.467985 
L 292.290933 -94.468014 
L 292.697157 -94.468035 
L 293.103381 -94.468046 
L 293.509605 -94.468051 
L 293.915829 -94.468049 
L 294.322054 -94.468042 
L 294.728278 -94.468032 
L 295.134502 -94.468018 
L 295.540726 -94.468004 
L 295.94695 -94.467993 
L 296.353174 -94.467969 
L 296.759399 -94.467939 
L 297.165623 -94.467914 
L 297.571847 -94.467891 
L 297.978071 -94.467863 
L 298.384295 -94.467829 
L 298.790519 -94.467795 
L 299.196744 -94.467761 
L 299.602968 -94.467727 
L 300.009192 -94.467696 
L 300.415416 -94.467668 
L 300.82164 -94.467643 
L 301.227864 -94.467623 
L 301.634089 -94.467596 
L 302.040313 -94.467574 
L 302.446537 -94.467564 
L 302.852761 -94.467562 
L 303.258985 -94.467569 
L 303.665209 -94.467578 
L 304.071434 -94.46759 
L 304.477658 -94.467606 
L 304.883882 -94.46762 
L 305.290106 -94.467638 
L 305.69633 -94.46766 
L 306.102554 -94.46768 
L 306.508779 -94.467701 
L 306.915003 -94.467721 
L 307.321227 -94.467732 
L 307.727451 -94.467742 
L 308.133675 -94.467751 
L 308.539899 -94.467762 
L 308.946124 -94.467767 
L 309.352348 -94.46777 
L 309.758572 -94.467774 
L 310.164796 -94.467781 
L 310.57102 -94.467782 
L 310.977244 -94.467786 
L 311.383469 -94.46779 
L 311.789693 -94.467796 
L 312.195917 -94.467807 
L 312.602141 -94.467816 
L 313.008365 -94.467827 
L 313.414589 -94.467836 
L 313.820814 -94.467848 
L 314.227038 -94.467858 
L 314.633262 -94.46786 
L 315.039486 -94.467862 
L 315.44571 -94.467869 
L 315.851934 -94.467871 
L 316.258158 -94.467865 
L 316.664383 -94.46786 
L 317.070607 -94.467855 
L 317.476831 -94.46785 
L 317.883055 -94.467851 
L 318.289279 -94.467855 
L 318.695503 -94.467861 
L 319.101728 -94.467867 
L 319.507952 -94.467874 
L 319.914176 -94.467875 
L 320.3204 -94.467876 
L 320.726624 -94.467878 
L 321.132848 -94.46788 
L 321.539073 -94.467884 
L 321.945297 -94.467887 
L 322.351521 -94.467882 
L 322.757745 -94.467884 
L 323.163969 -94.467883 
L 323.570193 -94.467887 
L 323.976418 -94.46789 
L 324.382642 -94.467889 
L 324.788866 -94.467896 
L 325.19509 -94.467902 
L 325.601314 -94.467899 
L 326.007538 -94.4679 
L 326.413763 -94.467895 
L 326.819987 -94.467894 
L 327.226211 -94.467892 
L 327.632435 -94.467891 
L 328.038659 -94.467882 
L 328.444883 -94.467875 
L 328.851108 -94.467873 
L 329.257332 -94.467871 
L 329.66358 -94.467875 
L 330.069804 -94.467882 
L 330.476028 -94.46789 
L 330.882253 -94.467897 
L 331.288477 -94.467904 
L 331.694701 -94.467911 
L 332.100925 -94.467909 
L 332.507149 -94.467903 
L 332.913373 -94.467898 
L 333.319598 -94.46789 
L 333.725822 -94.467872 
L 334.132046 -94.467855 
L 334.53827 -94.467839 
L 334.944494 -94.467824 
L 335.350718 -94.467822 
L 335.756943 -94.467819 
L 336.163167 -94.467814 
L 336.569391 -94.467806 
L 336.975615 -94.467792 
L 337.381839 -94.467785 
L 337.788063 -94.467783 
L 338.194288 -94.467777 
L 338.600512 -94.467773 
L 339.006736 -94.46777 
L 339.41296 -94.467768 
L 339.819184 -94.467765 
L 340.225408 -94.467765 
L 340.631633 -94.46777 
L 341.037857 -94.467769 
L 341.444081 -94.467766 
L 341.850305 -94.467764 
L 342.256529 -94.467761 
L 342.662753 -94.467754 
L 343.068978 -94.467749 
L 343.475202 -94.467747 
L 343.881426 -94.467745 
L 344.28765 -94.467744 
L 344.693874 -94.467744 
L 345.100098 -94.467742 
L 345.506322 -94.46774 
L 345.912547 -94.467738 
L 346.318771 -94.467734 
L 346.724995 -94.467731 
L 347.131219 -94.467728 
L 347.537443 -94.467726 
L 347.943667 -94.467726 
L 348.349892 -94.467724 
L 348.756116 -94.467723 
L 349.16234 -94.46772 
L 349.568564 -94.467718 
L 349.974788 -94.467716 
L 350.381012 -94.467715 
L 350.787237 -94.467718 
L 351.193461 -94.467722 
L 351.599685 -94.467724 
L 352.005909 -94.467724 
L 352.412133 -94.467724 
L 352.818357 -94.467724 
L 353.224582 -94.467727 
L 353.630806 -94.467727 
L 354.03703 -94.467727 
L 354.443254 -94.467727 
L 354.849478 -94.467732 
L 355.255702 -94.467736 
L 355.661927 -94.467739 
L 356.068151 -94.46774 
L 356.474375 -94.467734 
L 356.880599 -94.467729 
L 357.286823 -94.467725 
L 357.693047 -94.46772 
L 358.099272 -94.467711 
L 358.505496 -94.46771 
L 358.91172 -94.467706 
L 359.317944 -94.467713 
L 359.724168 -94.467716 
L 360.130392 -94.467716 
L 360.536617 -94.467714 
L 360.942841 -94.467714 
L 361.349065 -94.467713 
L 361.755289 -94.467712 
L 362.161513 -94.46772 
L 362.567737 -94.46772 
L 362.973962 -94.46772 
L 363.380186 -94.467722 
L 363.78641 -94.467727 
L 364.192634 -94.467727 
L 364.598858 -94.467726 
L 365.005082 -94.467726 
L 365.411307 -94.467723 
L 365.817531 -94.467723 
L 366.223755 -94.467724 
L 366.629979 -94.467724 
L 367.036203 -94.467723 
L 367.442427 -94.467728 
L 367.848652 -94.467728 
L 368.254876 -94.46773 
L 368.6611 -94.467727 
L 369.067324 -94.467719 
L 369.473548 -94.467714 
L 369.879772 -94.467708 
L 370.285997 -94.467709 
L 370.692221 -94.467708 
L 371.098469 -94.467705 
L 371.504693 -94.467702 
L 371.910917 -94.467699 
L 372.317142 -94.467699 
L 372.723366 -94.467703 
L 373.12959 -94.467704 
L 373.535814 -94.467706 
L 373.942038 -94.467713 
L 374.348262 -94.467718 
L 374.754487 -94.467718 
L 375.160711 -94.467718 
L 375.566935 -94.467718 
L 375.973159 -94.467723 
L 376.379383 -94.467727 
L 376.785607 -94.467736 
L 377.191831 -94.467736 
L 377.598056 -94.467738 
L 378.00428 -94.467737 
L 378.410504 -94.467735 
L 378.816728 -94.467729 
L 379.222952 -94.46772 
L 379.629176 -94.467719 
L 380.035401 -94.467715 
L 380.441625 -94.467713 
L 380.847849 -94.467712 
L 381.254073 -94.467713 
L 381.660297 -94.467714 
L 382.066521 -94.467714 
L 382.472746 -94.467714 
L 382.87897 -94.467712 
L 383.285194 -94.467711 
L 383.691418 -94.46771 
L 384.097642 -94.467709 
L 384.503866 -94.467709 
L 384.910091 -94.467709 
L 385.316315 -94.467708 
L 385.722539 -94.46771 
L 386.128763 -94.467714 
L 386.534987 -94.467719 
L 386.941211 -94.46772 
L 387.347436 -94.467719 
L 387.75366 -94.467714 
L 388.159884 -94.467713 
L 388.566108 -94.467708 
L 388.972332 -94.46771 
L 389.378556 -94.467713 
L 389.784781 -94.467715 
L 390.191005 -94.467715 
L 390.597229 -94.467713 
L 391.003453 -94.46771 
L 391.409677 -94.467712 
L 391.815901 -94.467712 
L 392.222126 -94.467711 
L 392.62835 -94.467709 
L 393.034574 -94.467714 
L 393.440798 -94.467716 
L 393.847022 -94.467716 
L 394.253246 -94.467717 
L 394.659471 -94.467717 
L 395.065695 -94.467718 
L 395.471919 -94.467717 
L 395.878143 -94.467721 
L 396.284367 -94.467721 
L 396.690591 -94.467721 
L 397.096816 -94.467719 
L 397.50304 -94.467717 
L 397.909264 -94.467717 
L 398.315488 -94.467717 
L 398.721712 -94.467719 
L 399.127936 -94.467721 
L 399.534161 -94.467722 
L 399.940385 -94.467724 
L 400.346609 -94.467729 
L 400.752833 -94.467727 
L 401.159057 -94.467727 
L 401.565281 -94.467727 
L 401.971505 -94.467724 
L 402.37773 -94.467721 
L 402.783954 -94.467719 
L 403.190178 -94.467719 
L 403.596402 -94.467718 
L 404.002626 -94.46772 
L 404.40885 -94.467721 
L 404.815075 -94.467717 
L 405.221299 -94.467716 
L 405.627523 -94.46772 
L 406.033747 -94.467724 
L 406.439971 -94.467726 
L 406.846195 -94.467725 
L 407.25242 -94.467723 
L 407.658644 -94.467721 
L 408.064868 -94.467716 
L 408.471092 -94.467715 
L 408.877316 -94.467714 
L 409.28354 -94.467712 
L 409.689765 -94.467711 
L 410.095989 -94.467714 
L 410.502213 -94.467716 
L 410.908437 -94.467725 
L 411.314661 -94.467728 
L 411.720885 -94.467733 
L 412.12711 -94.467741 
L 412.533334 -94.467747 
L 412.939582 -94.467749 
L 413.345806 -94.467748 
L 413.75203 -94.467743 
L 414.158255 -94.467739 
L 414.564479 -94.46773 
L 414.970703 -94.467721 
L 415.376927 -94.467711 
L 415.783151 -94.467704 
L 416.189375 -94.467706 
L 416.5956 -94.467708 
L 417.001824 -94.467708 
L 417.408048 -94.46771 
L 417.814272 -94.46771 
L 418.220496 -94.467713 
L 418.62672 -94.467714 
L 419.032945 -94.467716 
L 419.439169 -94.467717 
L 419.845393 -94.467716 
L 420.251617 -94.467718 
L 420.657841 -94.467719 
L 421.064065 -94.467719 
L 421.47029 -94.46772 
L 421.876514 -94.467719 
L 422.282738 -94.467719 
L 422.688962 -94.467719 
L 423.095186 -94.467718 
L 423.50141 -94.467717 
L 423.907635 -94.467716 
L 424.313859 -94.467718 
L 424.720083 -94.467718 
L 425.126307 -94.46772 
L 425.532531 -94.46772 
L 425.938755 -94.467719 
L 426.34498 -94.467718 
L 426.751204 -94.467717 
L 427.157428 -94.467717 
L 427.563652 -94.467716 
L 427.969876 -94.467715 
L 428.3761 -94.467714 
L 428.782325 -94.467713 
L 429.188549 -94.467714 
L 429.594773 -94.467716 
L 430.000997 -94.467719 
L 430.407221 -94.467721 
L 430.813445 -94.467724 
L 431.219669 -94.467726 
L 431.625894 -94.467731 
L 432.032118 -94.467734 
L 432.438342 -94.467738 
L 432.844566 -94.467746 
L 433.25079 -94.467744 
L 433.657014 -94.467738 
L 434.063239 -94.467736 
L 434.469463 -94.467724 
L 434.875687 -94.467718 
L 435.281911 -94.467712 
L 435.688135 -94.467706 
L 436.094359 -94.467708 
L 436.500584 -94.467712 
L 436.906808 -94.467714 
L 437.313032 -94.467714 
L 437.719256 -94.467714 
L 438.12548 -94.467719 
L 438.531704 -94.467728 
L 438.937929 -94.46773 
L 439.344153 -94.467729 
L 439.750377 -94.46773 
L 440.156601 -94.467727 
L 440.562825 -94.467724 
L 440.969049 -94.467722 
L 441.375274 -94.467717 
L 441.781498 -94.467714 
L 442.187722 -94.467711 
L 442.593946 -94.467707 
L 443.00017 -94.467703 
L 443.406394 -94.467701 
L 443.812619 -94.467699 
L 444.218843 -94.467697 
L 444.625067 -94.467697 
L 445.031291 -94.467704 
L 445.437515 -94.467708 
L 445.843739 -94.467712 
L 446.249964 -94.467715 
L 446.656188 -94.467715 
L 447.062412 -94.467715 
L 447.468636 -94.467715 
L 447.87486 -94.467711 
L 448.281084 -94.467709 
L 448.687309 -94.467711 
L 449.093533 -94.467714 
L 449.499757 -94.467716 
L 449.905981 -94.467717 
L 450.312205 -94.467718 
L 450.718429 -94.467719 
L 451.124654 -94.46772 
L 451.530878 -94.467722 
L 451.937102 -94.467722 
L 452.343326 -94.467722 
L 452.74955 -94.467723 
L 453.155774 -94.467721 
L 453.561999 -94.467719 
L 453.968223 -94.467717 
L 454.374471 -94.467714 
L 454.780695 -94.467712 
L 455.186919 -94.467711 
L 455.593144 -94.467709 
L 455.999368 -94.467708 
L 456.405592 -94.467708 
L 456.811816 -94.46771 
L 457.21804 -94.467716 
L 457.624264 -94.467719 
L 458.030489 -94.46772 
L 458.436713 -94.467726 
L 458.842937 -94.467729 
L 459.249161 -94.467732 
L 459.655385 -94.467735 
L 460.061609 -94.467737 
L 460.467834 -94.467739 
L 460.874058 -94.467739 
L 461.280282 -94.467744 
L 461.686506 -94.467743 
L 462.09273 -94.46774 
L 462.498954 -94.467732 
L 462.905178 -94.467727 
L 463.311403 -94.467721 
L 463.717627 -94.467719 
L 464.123851 -94.467717 
L 464.530075 -94.467715 
L 464.936299 -94.467715 
L 465.342523 -94.467713 
L 465.748748 -94.467711 
L 466.154972 -94.467709 
L 466.561196 -94.467708 
L 466.96742 -94.467706 
L 467.373644 -94.467707 
L 467.779868 -94.467703 
L 468.186093 -94.467703 
L 468.592317 -94.467706 
L 468.998541 -94.467708 
L 469.404765 -94.467711 
L 469.810989 -94.467712 
L 470.217213 -94.467714 
L 470.623438 -94.467715 
L 471.029662 -94.467719 
L 471.435886 -94.467717 
L 471.84211 -94.467719 
L 472.248334 -94.467718 
L 472.654558 -94.467717 
L 473.060783 -94.467716 
L 473.467007 -94.467717 
L 473.873231 -94.467717 
L 474.279455 -94.467717 
L 474.685679 -94.467717 
L 475.091903 -94.467718 
L 475.091903 -95.30798 
L 475.091903 -95.30798 
L 474.685679 -95.307976 
L 474.279455 -95.307975 
L 473.873231 -95.307973 
L 473.467007 -95.307972 
L 473.060783 -95.307968 
L 472.654558 -95.307968 
L 472.248334 -95.307973 
L 471.84211 -95.307976 
L 471.435886 -95.307978 
L 471.029662 -95.307984 
L 470.623438 -95.307988 
L 470.217213 -95.307996 
L 469.810989 -95.307996 
L 469.404765 -95.307997 
L 468.998541 -95.307997 
L 468.592317 -95.307997 
L 468.186093 -95.307995 
L 467.779868 -95.307992 
L 467.373644 -95.307993 
L 466.96742 -95.307991 
L 466.561196 -95.307986 
L 466.154972 -95.307985 
L 465.748748 -95.307984 
L 465.342523 -95.307984 
L 464.936299 -95.307984 
L 464.530075 -95.307984 
L 464.123851 -95.307983 
L 463.717627 -95.307983 
L 463.311403 -95.307982 
L 462.905178 -95.307982 
L 462.498954 -95.307979 
L 462.09273 -95.307978 
L 461.686506 -95.307977 
L 461.280282 -95.307973 
L 460.874058 -95.307971 
L 460.467834 -95.30797 
L 460.061609 -95.307965 
L 459.655385 -95.30797 
L 459.249161 -95.307978 
L 458.842937 -95.307986 
L 458.436713 -95.307991 
L 458.030489 -95.307999 
L 457.624264 -95.308008 
L 457.21804 -95.308012 
L 456.811816 -95.30802 
L 456.405592 -95.308023 
L 455.999368 -95.308022 
L 455.593144 -95.308017 
L 455.186919 -95.308011 
L 454.780695 -95.308007 
L 454.374471 -95.307997 
L 453.968223 -95.307989 
L 453.561999 -95.307983 
L 453.155774 -95.307982 
L 452.74955 -95.307981 
L 452.343326 -95.307981 
L 451.937102 -95.307981 
L 451.530878 -95.307985 
L 451.124654 -95.307986 
L 450.718429 -95.307989 
L 450.312205 -95.307993 
L 449.905981 -95.307993 
L 449.499757 -95.307994 
L 449.093533 -95.307995 
L 448.687309 -95.307995 
L 448.281084 -95.307996 
L 447.87486 -95.307994 
L 447.468636 -95.307995 
L 447.062412 -95.307995 
L 446.656188 -95.307992 
L 446.249964 -95.307992 
L 445.843739 -95.307987 
L 445.437515 -95.307987 
L 445.031291 -95.307987 
L 444.625067 -95.307986 
L 444.218843 -95.307981 
L 443.812619 -95.307978 
L 443.406394 -95.307976 
L 443.00017 -95.307975 
L 442.593946 -95.307974 
L 442.187722 -95.307972 
L 441.781498 -95.307971 
L 441.375274 -95.307969 
L 440.969049 -95.307972 
L 440.562825 -95.307972 
L 440.156601 -95.307976 
L 439.750377 -95.307982 
L 439.344153 -95.30799 
L 438.937929 -95.307994 
L 438.531704 -95.307994 
L 438.12548 -95.307999 
L 437.719256 -95.307999 
L 437.313032 -95.308 
L 436.906808 -95.308001 
L 436.500584 -95.308002 
L 436.094359 -95.308 
L 435.688135 -95.307996 
L 435.281911 -95.307989 
L 434.875687 -95.307988 
L 434.469463 -95.307988 
L 434.063239 -95.307988 
L 433.657014 -95.307991 
L 433.25079 -95.307991 
L 432.844566 -95.307992 
L 432.438342 -95.307989 
L 432.032118 -95.307978 
L 431.625894 -95.307976 
L 431.219669 -95.307975 
L 430.813445 -95.307974 
L 430.407221 -95.307972 
L 430.000997 -95.307971 
L 429.594773 -95.307969 
L 429.188549 -95.307958 
L 428.782325 -95.307951 
L 428.3761 -95.307944 
L 427.969876 -95.307945 
L 427.563652 -95.307953 
L 427.157428 -95.307962 
L 426.751204 -95.307975 
L 426.34498 -95.307997 
L 425.938755 -95.308011 
L 425.532531 -95.308018 
L 425.126307 -95.308021 
L 424.720083 -95.308016 
L 424.313859 -95.30801 
L 423.907635 -95.308004 
L 423.50141 -95.307995 
L 423.095186 -95.307986 
L 422.688962 -95.307981 
L 422.282738 -95.307975 
L 421.876514 -95.307974 
L 421.47029 -95.307973 
L 421.064065 -95.307971 
L 420.657841 -95.307971 
L 420.251617 -95.307977 
L 419.845393 -95.307987 
L 419.439169 -95.307998 
L 419.032945 -95.308 
L 418.62672 -95.308001 
L 418.220496 -95.308002 
L 417.814272 -95.307999 
L 417.408048 -95.307996 
L 417.001824 -95.307991 
L 416.5956 -95.307983 
L 416.189375 -95.307981 
L 415.783151 -95.307981 
L 415.376927 -95.30798 
L 414.970703 -95.307977 
L 414.564479 -95.307976 
L 414.158255 -95.307978 
L 413.75203 -95.307977 
L 413.345806 -95.307978 
L 412.939582 -95.307978 
L 412.533334 -95.307978 
L 412.12711 -95.307982 
L 411.720885 -95.307982 
L 411.314661 -95.307985 
L 410.908437 -95.307984 
L 410.502213 -95.307984 
L 410.095989 -95.307984 
L 409.689765 -95.307981 
L 409.28354 -95.30798 
L 408.877316 -95.307982 
L 408.471092 -95.307982 
L 408.064868 -95.307984 
L 407.658644 -95.307987 
L 407.25242 -95.307987 
L 406.846195 -95.307987 
L 406.439971 -95.307992 
L 406.033747 -95.307993 
L 405.627523 -95.307994 
L 405.221299 -95.308002 
L 404.815075 -95.308003 
L 404.40885 -95.308004 
L 404.002626 -95.308001 
L 403.596402 -95.307997 
L 403.190178 -95.307994 
L 402.783954 -95.307992 
L 402.37773 -95.307992 
L 401.971505 -95.307993 
L 401.565281 -95.307993 
L 401.159057 -95.307994 
L 400.752833 -95.307995 
L 400.346609 -95.307995 
L 399.940385 -95.307996 
L 399.534161 -95.307993 
L 399.127936 -95.307993 
L 398.721712 -95.307994 
L 398.315488 -95.307994 
L 397.909264 -95.307995 
L 397.50304 -95.307996 
L 397.096816 -95.307997 
L 396.690591 -95.307997 
L 396.284367 -95.307998 
L 395.878143 -95.307999 
L 395.471919 -95.308 
L 395.065695 -95.307995 
L 394.659471 -95.307993 
L 394.253246 -95.307993 
L 393.847022 -95.307993 
L 393.440798 -95.307994 
L 393.034574 -95.307995 
L 392.62835 -95.307995 
L 392.222126 -95.307995 
L 391.815901 -95.307995 
L 391.409677 -95.307996 
L 391.003453 -95.307997 
L 390.597229 -95.307994 
L 390.191005 -95.307995 
L 389.784781 -95.307993 
L 389.378556 -95.307993 
L 388.972332 -95.307991 
L 388.566108 -95.307991 
L 388.159884 -95.307986 
L 387.75366 -95.307985 
L 387.347436 -95.307985 
L 386.941211 -95.307984 
L 386.534987 -95.307981 
L 386.128763 -95.30798 
L 385.722539 -95.307984 
L 385.316315 -95.307988 
L 384.910091 -95.307988 
L 384.503866 -95.307988 
L 384.097642 -95.307988 
L 383.691418 -95.307987 
L 383.285194 -95.307987 
L 382.87897 -95.307987 
L 382.472746 -95.307987 
L 382.066521 -95.307987 
L 381.660297 -95.307987 
L 381.254073 -95.307987 
L 380.847849 -95.307987 
L 380.441625 -95.307987 
L 380.035401 -95.307987 
L 379.629176 -95.307987 
L 379.222952 -95.307987 
L 378.816728 -95.307987 
L 378.410504 -95.307987 
L 378.00428 -95.307987 
L 377.598056 -95.307987 
L 377.191831 -95.307987 
L 376.785607 -95.307987 
L 376.379383 -95.307987 
L 375.973159 -95.307987 
L 375.566935 -95.307987 
L 375.160711 -95.307986 
L 374.754487 -95.307986 
L 374.348262 -95.307986 
L 373.942038 -95.307986 
L 373.535814 -95.307986 
L 373.12959 -95.307986 
L 372.723366 -95.307985 
L 372.317142 -95.307985 
L 371.910917 -95.307985 
L 371.504693 -95.307985 
L 371.098469 -95.307984 
L 370.692221 -95.307984 
L 370.285997 -95.307984 
L 369.879772 -95.307983 
L 369.473548 -95.307983 
L 369.067324 -95.307975 
L 368.6611 -95.307972 
L 368.254876 -95.307971 
L 367.848652 -95.307967 
L 367.442427 -95.307973 
L 367.036203 -95.307979 
L 366.629979 -95.30799 
L 366.223755 -95.307992 
L 365.817531 -95.307993 
L 365.411307 -95.307993 
L 365.005082 -95.307995 
L 364.598858 -95.307995 
L 364.192634 -95.307996 
L 363.78641 -95.307994 
L 363.380186 -95.307995 
L 362.973962 -95.30799 
L 362.567737 -95.307986 
L 362.161513 -95.307983 
L 361.755289 -95.307982 
L 361.349065 -95.307982 
L 360.942841 -95.307981 
L 360.536617 -95.307981 
L 360.130392 -95.30798 
L 359.724168 -95.30798 
L 359.317944 -95.307983 
L 358.91172 -95.307991 
L 358.505496 -95.307995 
L 358.099272 -95.308 
L 357.693047 -95.307998 
L 357.286823 -95.307999 
L 356.880599 -95.307996 
L 356.474375 -95.307993 
L 356.068151 -95.307993 
L 355.661927 -95.307992 
L 355.255702 -95.307985 
L 354.849478 -95.30798 
L 354.443254 -95.307979 
L 354.03703 -95.307982 
L 353.630806 -95.307985 
L 353.224582 -95.307985 
L 352.818357 -95.307984 
L 352.412133 -95.307984 
L 352.005909 -95.307984 
L 351.599685 -95.307983 
L 351.193461 -95.307983 
L 350.787237 -95.307982 
L 350.381012 -95.307981 
L 349.974788 -95.307981 
L 349.568564 -95.30798 
L 349.16234 -95.307979 
L 348.756116 -95.30798 
L 348.349892 -95.307981 
L 347.943667 -95.307984 
L 347.537443 -95.307985 
L 347.131219 -95.307995 
L 346.724995 -95.308004 
L 346.318771 -95.308006 
L 345.912547 -95.308009 
L 345.506322 -95.308012 
L 345.100098 -95.308014 
L 344.693874 -95.308017 
L 344.28765 -95.308015 
L 343.881426 -95.308009 
L 343.475202 -95.308 
L 343.068978 -95.307987 
L 342.662753 -95.307985 
L 342.256529 -95.307985 
L 341.850305 -95.307984 
L 341.444081 -95.307984 
L 341.037857 -95.307987 
L 340.631633 -95.307987 
L 340.225408 -95.307986 
L 339.819184 -95.307986 
L 339.41296 -95.307986 
L 339.006736 -95.307986 
L 338.600512 -95.307986 
L 338.194288 -95.307985 
L 337.788063 -95.307984 
L 337.381839 -95.307984 
L 336.975615 -95.307983 
L 336.569391 -95.307983 
L 336.163167 -95.307983 
L 335.756943 -95.307982 
L 335.350718 -95.307981 
L 334.944494 -95.307978 
L 334.53827 -95.307977 
L 334.132046 -95.307976 
L 333.725822 -95.307978 
L 333.319598 -95.307987 
L 332.913373 -95.307995 
L 332.507149 -95.308003 
L 332.100925 -95.308007 
L 331.694701 -95.308009 
L 331.288477 -95.30801 
L 330.882253 -95.308001 
L 330.476028 -95.307993 
L 330.069804 -95.307989 
L 329.66358 -95.307977 
L 329.257332 -95.307975 
L 328.851108 -95.307974 
L 328.444883 -95.307973 
L 328.038659 -95.307973 
L 327.632435 -95.307978 
L 327.226211 -95.307977 
L 326.819987 -95.307976 
L 326.413763 -95.307975 
L 326.007538 -95.307973 
L 325.601314 -95.307971 
L 325.19509 -95.307966 
L 324.788866 -95.307971 
L 324.382642 -95.307971 
L 323.976418 -95.307969 
L 323.570193 -95.30797 
L 323.163969 -95.307973 
L 322.757745 -95.307981 
L 322.351521 -95.307993 
L 321.945297 -95.307994 
L 321.539073 -95.307996 
L 321.132848 -95.307999 
L 320.726624 -95.308004 
L 320.3204 -95.308009 
L 319.914176 -95.308008 
L 319.507952 -95.308009 
L 319.101728 -95.308008 
L 318.695503 -95.308008 
L 318.289279 -95.308007 
L 317.883055 -95.308006 
L 317.476831 -95.308002 
L 317.070607 -95.308001 
L 316.664383 -95.30799 
L 316.258158 -95.307986 
L 315.851934 -95.307987 
L 315.44571 -95.307985 
L 315.039486 -95.307985 
L 314.633262 -95.307983 
L 314.227038 -95.307984 
L 313.820814 -95.307986 
L 313.414589 -95.307988 
L 313.008365 -95.30799 
L 312.602141 -95.307999 
L 312.195917 -95.308 
L 311.789693 -95.308003 
L 311.383469 -95.308003 
L 310.977244 -95.308005 
L 310.57102 -95.308001 
L 310.164796 -95.307997 
L 309.758572 -95.307998 
L 309.352348 -95.307995 
L 308.946124 -95.307994 
L 308.539899 -95.307986 
L 308.133675 -95.307985 
L 307.727451 -95.307982 
L 307.321227 -95.307979 
L 306.915003 -95.307975 
L 306.508779 -95.307974 
L 306.102554 -95.307973 
L 305.69633 -95.307971 
L 305.290106 -95.307977 
L 304.883882 -95.307978 
L 304.477658 -95.307985 
L 304.071434 -95.30799 
L 303.665209 -95.307991 
L 303.258985 -95.307992 
L 302.852761 -95.307991 
L 302.446537 -95.30799 
L 302.040313 -95.307987 
L 301.634089 -95.307977 
L 301.227864 -95.307972 
L 300.82164 -95.307971 
L 300.415416 -95.307969 
L 300.009192 -95.307968 
L 299.602968 -95.307958 
L 299.196744 -95.307953 
L 298.790519 -95.307955 
L 298.384295 -95.307957 
L 297.978071 -95.307961 
L 297.571847 -95.307969 
L 297.165623 -95.307976 
L 296.759399 -95.307989 
L 296.353174 -95.308005 
L 295.94695 -95.30801 
L 295.540726 -95.308011 
L 295.134502 -95.30801 
L 294.728278 -95.308 
L 294.322054 -95.307992 
L 293.915829 -95.307992 
L 293.509605 -95.307985 
L 293.103381 -95.307985 
L 292.697157 -95.307985 
L 292.290933 -95.307982 
L 291.884709 -95.307974 
L 291.478484 -95.307967 
L 291.07226 -95.307962 
L 290.666036 -95.307959 
L 290.259812 -95.307957 
L 289.853588 -95.307961 
L 289.447364 -95.307965 
L 289.041139 -95.307968 
L 288.634915 -95.307969 
L 288.228691 -95.30797 
L 287.822443 -95.307971 
L 287.416219 -95.307972 
L 287.009994 -95.307965 
L 286.60377 -95.307964 
L 286.197546 -95.307959 
L 285.791322 -95.307958 
L 285.385098 -95.307961 
L 284.978874 -95.307957 
L 284.57265 -95.307953 
L 284.166425 -95.307953 
L 283.760201 -95.30795 
L 283.353977 -95.30794 
L 282.947753 -95.307929 
L 282.541529 -95.307922 
L 282.135305 -95.307914 
L 281.72908 -95.307903 
L 281.322856 -95.307891 
L 280.916632 -95.307876 
L 280.510408 -95.307855 
L 280.104184 -95.307833 
L 279.69796 -95.307819 
L 279.291735 -95.307811 
L 278.885511 -95.307798 
L 278.479287 -95.307777 
L 278.073063 -95.307755 
L 277.666839 -95.307732 
L 277.260615 -95.307713 
L 276.85439 -95.307691 
L 276.448166 -95.30767 
L 276.041942 -95.307658 
L 275.635718 -95.307642 
L 275.229494 -95.307627 
L 274.82327 -95.307606 
L 274.417045 -95.307582 
L 274.010821 -95.30756 
L 273.604597 -95.307546 
L 273.198373 -95.307535 
L 272.792149 -95.30753 
L 272.385925 -95.307534 
L 271.9797 -95.307549 
L 271.573476 -95.307581 
L 271.167252 -95.307607 
L 270.761028 -95.307642 
L 270.354804 -95.307683 
L 269.94858 -95.307722 
L 269.542355 -95.307767 
L 269.136131 -95.307815 
L 268.729907 -95.307864 
L 268.323683 -95.307916 
L 267.917459 -95.307966 
L 267.511235 -95.308022 
L 267.10501 -95.30808 
L 266.698774 -95.308135 
L 266.29255 -95.308179 
L 265.886326 -95.308225 
L 265.480102 -95.308269 
L 265.073878 -95.308308 
L 264.667653 -95.308335 
L 264.261429 -95.308356 
L 263.855205 -95.30837 
L 263.448981 -95.308369 
L 263.042757 -95.308359 
L 262.636533 -95.308339 
L 262.230308 -95.308313 
L 261.824084 -95.308278 
L 261.41786 -95.308235 
L 261.011636 -95.30817 
L 260.605412 -95.30809 
L 260.199188 -95.308009 
L 259.792963 -95.30792 
L 259.386739 -95.307828 
L 258.980515 -95.307725 
L 258.574291 -95.307621 
L 258.168067 -95.307516 
L 257.761843 -95.307417 
L 257.355618 -95.307314 
L 256.949394 -95.307216 
L 256.54317 -95.30712 
L 256.136946 -95.307031 
L 255.730722 -95.306948 
L 255.324498 -95.306884 
L 254.918273 -95.306834 
L 254.512049 -95.306794 
L 254.105825 -95.306769 
L 253.699601 -95.306759 
L 253.293377 -95.306766 
L 252.887153 -95.306791 
L 252.480928 -95.306838 
L 252.074704 -95.306903 
L 251.66848 -95.306994 
L 251.262256 -95.307103 
L 250.856032 -95.307235 
L 250.449808 -95.307381 
L 250.043583 -95.307553 
L 249.637359 -95.307734 
L 249.231135 -95.307927 
L 248.824911 -95.308132 
L 248.418687 -95.308346 
L 248.012463 -95.30857 
L 247.606238 -95.308791 
L 247.200014 -95.309007 
L 246.79379 -95.309213 
L 246.387566 -95.309404 
L 245.98133 -95.309578 
L 245.575106 -95.309731 
L 245.168881 -95.30986 
L 244.762657 -95.309954 
L 244.356433 -95.310019 
L 243.950209 -95.310058 
L 243.543985 -95.310055 
L 243.137761 -95.310006 
L 242.731536 -95.309918 
L 242.325312 -95.309797 
L 241.919088 -95.30962 
L 241.512864 -95.309404 
L 241.10664 -95.309153 
L 240.700416 -95.308855 
L 240.294191 -95.308518 
L 239.887967 -95.308147 
L 239.481743 -95.307747 
L 239.075519 -95.307333 
L 238.669295 -95.306895 
L 238.263071 -95.306542 
L 237.856846 -95.306322 
L 237.450622 -95.306053 
L 237.044398 -95.30575 
L 236.638174 -95.305416 
L 236.23195 -95.305066 
L 235.825726 -95.304692 
L 235.419501 -95.304299 
L 235.013277 -95.303895 
L 234.607053 -95.30349 
L 234.200829 -95.303178 
L 233.794605 -95.303162 
L 233.388381 -95.303225 
L 232.982156 -95.303376 
L 232.575932 -95.303613 
L 232.169708 -95.303941 
L 231.763484 -95.304364 
L 231.35726 -95.30488 
L 230.951036 -95.305473 
L 230.544811 -95.30615 
L 230.138587 -95.306891 
L 229.732363 -95.307697 
L 229.326139 -95.308556 
L 228.919915 -95.309453 
L 228.513691 -95.310374 
L 228.107467 -95.311301 
L 227.701242 -95.312218 
L 227.295018 -95.313107 
L 226.888794 -95.313963 
L 226.48257 -95.314763 
L 226.076346 -95.315493 
L 225.670122 -95.316127 
L 225.263897 -95.316645 
L 224.857661 -95.317036 
L 224.451437 -95.317289 
L 224.045213 -95.317383 
L 223.638989 -95.317313 
L 223.232764 -95.317059 
L 222.82654 -95.316639 
L 222.420316 -95.31603 
L 222.014092 -95.315232 
L 221.607868 -95.314251 
L 221.201644 -95.314242 
L 220.795419 -95.31407 
L 220.389195 -95.315721 
L 219.982971 -95.317726 
L 219.576747 -95.319342 
L 219.170523 -95.320508 
L 218.764299 -95.321183 
L 218.358074 -95.321323 
L 217.95185 -95.320896 
L 217.545626 -95.319877 
L 217.139402 -95.31825 
L 216.733178 -95.316021 
L 216.326954 -95.313198 
L 215.920729 -95.309802 
L 215.514505 -95.305874 
L 215.108281 -95.301457 
L 214.702057 -95.296618 
L 214.295833 -95.291426 
L 213.889609 -95.28961 
L 213.483385 -95.288464 
L 213.07716 -95.2892 
L 212.670936 -95.290321 
L 212.264712 -95.291814 
L 211.858488 -95.293688 
L 211.452264 -95.29592 
L 211.04604 -95.298506 
L 210.639815 -95.301419 
L 210.233591 -95.304629 
L 209.827367 -95.308093 
L 209.421143 -95.311761 
L 209.014919 -95.315585 
L 208.608695 -95.319504 
L 208.20247 -95.323452 
L 207.796246 -95.327359 
L 207.390022 -95.331143 
L 206.983798 -95.334745 
L 206.577574 -95.338084 
L 206.17135 -95.34109 
L 205.765125 -95.343671 
L 205.358901 -95.345776 
L 204.952677 -95.347321 
L 204.546453 -95.348253 
L 204.140217 -95.348513 
L 203.733992 -95.348056 
L 203.327768 -95.346844 
L 202.921544 -95.346527 
L 202.51532 -95.355279 
L 202.109096 -95.361458 
L 201.702872 -95.357127 
L 201.296647 -95.352068 
L 200.890423 -95.346326 
L 200.484199 -95.339971 
L 200.077975 -95.333074 
L 199.671751 -95.325727 
L 199.265527 -95.318041 
L 198.859303 -95.310127 
L 198.453078 -95.302108 
L 198.046854 -95.294132 
L 197.64063 -95.28633 
L 197.234406 -95.278872 
L 196.828182 -95.271905 
L 196.421958 -95.265583 
L 196.015733 -95.260052 
L 195.609509 -95.255472 
L 195.203285 -95.25198 
L 194.797061 -95.2497 
L 194.390837 -95.234089 
L 193.984613 -95.224351 
L 193.578388 -95.226282 
L 193.172164 -95.229794 
L 192.76594 -95.234925 
L 192.359716 -95.241685 
L 191.953492 -95.250049 
L 191.547268 -95.259971 
L 191.141043 -95.27136 
L 190.734819 -95.2841 
L 190.328595 -95.298049 
L 189.922371 -95.313029 
L 189.516147 -95.328839 
L 189.109923 -95.345237 
L 188.703698 -95.361968 
L 188.297474 -95.37874 
L 187.89125 -95.395254 
L 187.485026 -95.411218 
L 187.078802 -95.426292 
L 186.672578 -95.440155 
L 186.266353 -95.4525 
L 185.860129 -95.463001 
L 185.453905 -95.471345 
L 185.047681 -95.477254 
L 184.641457 -95.480477 
L 184.235233 -95.480794 
L 183.829008 -95.499705 
L 183.422772 -95.493574 
L 183.016548 -95.48415 
L 182.610324 -95.471407 
L 182.2041 -95.455366 
L 181.797876 -95.444781 
L 181.391651 -95.46026 
L 180.985427 -95.475129 
L 180.579203 -95.48191 
L 180.172979 -95.480042 
L 179.766755 -95.469096 
L 179.360531 -95.448795 
L 178.954306 -95.419053 
L 178.548082 -95.379925 
L 178.141858 -95.331681 
L 177.735634 -95.274772 
L 177.32941 -95.209849 
L 176.923186 -95.137759 
L 176.516961 -95.063163 
L 176.110737 -95.02068 
L 175.704513 -95.002111 
L 175.298289 -94.988335 
L 174.892065 -94.965272 
L 174.485841 -94.950219 
L 174.079616 -94.953481 
L 173.673392 -94.963331 
L 173.267168 -94.979974 
L 172.860944 -95.003545 
L 172.45472 -95.034034 
L 172.048496 -95.071319 
L 171.642271 -95.11515 
L 171.236047 -95.165141 
L 170.829823 -95.220757 
L 170.423599 -95.281348 
L 170.017375 -95.346131 
L 169.611151 -95.414197 
L 169.204926 -95.484522 
L 168.798702 -95.55598 
L 168.392478 -95.627358 
L 167.986248 -95.697361 
L 167.580024 -95.764656 
L 167.1738 -95.82786 
L 166.767575 -95.885591 
L 166.361351 -95.936456 
L 165.955127 -95.97947 
L 165.548903 -96.014469 
L 165.142679 -96.038767 
L 164.736455 -96.066224 
L 164.33023 -96.064505 
L 163.924006 -96.170926 
L 163.517782 -96.292081 
L 163.111558 -96.394863 
L 162.705334 -96.476266 
L 162.29911 -96.533549 
L 161.892885 -96.564298 
L 161.486661 -96.56648 
L 161.080437 -96.538512 
L 160.674213 -96.479331 
L 160.267989 -96.388416 
L 159.861765 -96.265847 
L 159.45554 -96.112327 
L 159.049316 -95.929203 
L 158.643092 -95.718478 
L 158.236868 -95.482799 
L 157.830644 -95.225441 
L 157.424414 -94.950291 
L 157.018189 -94.661781 
L 156.611965 -94.364858 
L 156.205741 -94.064873 
L 155.799517 -93.907621 
L 155.393293 -93.822229 
L 154.987069 -93.790405 
L 154.580844 -93.784904 
L 154.17462 -93.806598 
L 153.768396 -93.856485 
L 153.362172 -93.935393 
L 152.955948 -94.043691 
L 152.549724 -94.181235 
L 152.143499 -94.347361 
L 151.737275 -94.540836 
L 151.331051 -94.759872 
L 150.924827 -95.002101 
L 150.518603 -95.264582 
L 150.112379 -95.54386 
L 149.706154 -95.835933 
L 149.29993 -96.136347 
L 148.893706 -96.440576 
L 148.487482 -96.744364 
L 148.081258 -97.040986 
L 147.675034 -97.324646 
L 147.268809 -97.589453 
L 146.862579 -97.830564 
L 146.456355 -98.0454 
L 146.050131 -98.223977 
L 145.643907 -98.366509 
L 145.237683 -98.760525 
L 144.831458 -99.184048 
L 144.425234 -99.548908 
L 144.01901 -99.844797 
L 143.612786 -100.062218 
L 143.206562 -100.1927 
L 142.800338 -100.229032 
L 142.394113 -100.165472 
L 141.987889 -99.997933 
L 141.581665 -99.724147 
L 141.175441 -99.343818 
L 140.769217 -98.858709 
L 140.362993 -98.272734 
L 139.956768 -97.591981 
L 139.550544 -96.824718 
L 139.14432 -95.981349 
L 138.738096 -95.074316 
L 138.331872 -94.11799 
L 137.925648 -93.128453 
L 137.519423 -92.123307 
L 137.113199 -91.121395 
L 136.706969 -90.144943 
L 136.300745 -89.464747 
L 135.894521 -89.164196 
L 135.488297 -88.956602 
L 135.082072 -88.850501 
L 134.675848 -88.854036 
L 134.269624 -88.97387 
L 133.8634 -89.214997 
L 133.457176 -89.580577 
L 133.050952 -90.07173 
L 132.644727 -90.687432 
L 132.238503 -91.424378 
L 131.832279 -92.276916 
L 131.426055 -93.236998 
L 131.019831 -94.294169 
L 130.613607 -95.435589 
L 130.207382 -96.646126 
L 129.801158 -97.908456 
L 129.394934 -99.203265 
L 128.98871 -100.50942 
L 128.582486 -101.804283 
L 128.176262 -103.063988 
L 127.770038 -104.263831 
L 127.363813 -105.378656 
L 126.957589 -106.388115 
L 126.551365 -107.282166 
L 126.145135 -108.656878 
L 125.738911 -109.974712 
L 125.332686 -111.076572 
L 124.926462 -111.929924 
L 124.520238 -112.50545 
L 124.114014 -112.777781 
L 123.70779 -112.726149 
L 123.301566 -112.335018 
L 122.895341 -111.594617 
L 122.489117 -110.493752 
L 122.082893 -109.046703 
L 121.676669 -107.284892 
L 121.270445 -105.250814 
L 120.864221 -102.917877 
L 120.457997 -100.303803 
L 120.051772 -97.446833 
L 119.645548 -94.391523 
L 119.239324 -91.187227 
L 118.8331 -87.888045 
L 118.426873 -84.552294 
L 118.020648 -81.242787 
L 117.614424 -78.017886 
L 117.2082 -74.947314 
L 116.801976 -72.606637 
L 116.395752 -71.023822 
L 115.989528 -69.762489 
L 115.583304 -68.894749 
L 115.177079 -68.447872 
L 114.770855 -68.457021 
L 114.364631 -68.944008 
L 113.958407 -69.92959 
L 113.552183 -71.427458 
L 113.145956 -73.443504 
L 112.739731 -75.975071 
L 112.333507 -79.010465 
L 111.927283 -82.528512 
L 111.521059 -86.498402 
L 111.114835 -90.880014 
L 110.708611 -95.62457 
L 110.302386 -100.675823 
L 109.896162 -105.971805 
L 109.489938 -111.446952 
L 109.083714 -117.034577 
L 108.67749 -122.669309 
L 108.271266 -128.289393 
L 107.865038 -133.838673 
L 107.458814 -139.267511 
L 107.05259 -144.53345 
L 106.646366 -149.60054 
L 106.240142 -154.437922 
L 105.833918 -159.018294 
L 105.427693 -163.315629 
L 105.021469 -167.303593 
L 104.615245 -170.95434 
L 104.209021 -174.238133 
L 103.802797 -177.124161 
L 103.396573 -179.582202 
L 102.990345 -181.585267 
L 102.584121 -183.112561 
L 102.177897 -184.152755 
L 101.771673 -184.706825 
L 101.365449 -184.789687 
L 100.959225 -184.431713 
L 100.553 -183.677939 
L 100.146776 -182.587199 
L 99.740552 -181.229377 
L 99.334328 -179.682508 
L 98.928104 -178.029355 
L 98.52188 -176.357066 
L 98.115655 -174.798068 
L 97.709428 -173.399147 
L 97.303204 -172.200172 
L 96.89698 -171.275537 
L 96.490756 -170.687092 
L 96.084532 -170.470105 
L 95.678307 -170.668077 
L 95.272083 -171.317815 
L 94.865859 -172.448634 
L 94.459635 -174.082656 
L 94.053411 -176.227883 
L 93.647185 -178.867577 
L 93.240961 -181.949026 
L 92.834737 -185.364858 
L 92.428513 -188.944518 
L 92.022288 -192.438917 
L 91.616064 -195.50942 
L 91.209839 -197.744563 
L 90.803614 -198.675501 
L 90.39739 -197.827363 
L 89.991166 -194.766258 
L 89.584942 -189.207686 
L 89.178718 -181.069459 
L 88.772494 -170.579403 
L 88.366268 -158.266854 
L 87.960044 -144.961135 
L 87.55382 -131.728344 
L 87.147595 -119.733654 
L 86.741371 -110.062267 
L 86.335147 -103.65137 
L 85.928921 -101.182626 
L 85.522697 -103.017415 
L 85.116473 -109.181221 
L 84.710249 -119.375743 
L 84.304025 -133.002332 
L 83.897801 -149.181092 
L 83.491575 -166.753104 
L 83.085351 -184.33329 
L 82.679127 -200.250102 
L 82.272902 -212.729246 
L 81.866678 -220.024647 
L 81.460453 -220.646611 
L 81.054229 -213.652195 
L 80.648005 -198.972902 
L 80.24178 -177.608696 
L 79.835556 -151.625452 
L 79.429332 -123.904507 
L 79.023108 -97.737861 
L 78.616883 -76.27148 
L 78.210658 -62.030276 
L 77.804434 -56.597096 
L 77.398209 -60.475717 
L 76.991985 -73.16482 
L 76.585761 -93.389336 
L 76.179536 -119.313812 
L 75.773312 -148.638206 
L 75.367087 -178.68948 
L 74.960863 -206.513922 
L 74.554639 -229.197136 
L 74.148415 -244.091722 
L 73.74219 -249.23625 
L 73.335965 -243.826285 
L 72.929741 -228.573189 
L 72.523517 -205.693376 
L 72.117292 -178.631719 
L 71.711068 -151.538275 
L 71.304844 -128.120055 
L 70.898619 -110.809934 
L 70.492395 -100.258856 
L 70.08617 -95.40978 
L 69.679946 -94.068106 
L 69.273722 -93.961164 
z
" style="stroke: #ff7f0e; stroke-opacity: 0.2"/>
    </defs>
    <g clip-path="url(#p77dbeb4f82)">
     <use xlink:href="#m71b5b2392b" x="0" y="281.634375" style="fill: #ff7f0e; fill-opacity: 0.2; stroke: #ff7f0e; stroke-opacity: 0.2"/>
    </g>
   </g>
   <g id="matplotlib.axis_1">
    <g id="xtick_1">
     <g id="line2d_1">
      <path d="M 69.273722 244.078125 
L 69.273722 22.318125 
" clip-path="url(#p77dbeb4f82)" style="fill: none; stroke: #b0b0b0; stroke-opacity: 0.3; stroke-width: 0.8; stroke-linecap: square"/>
     </g>
     <g id="line2d_2">
      <defs>
       <path id="md435c914c9" d="M 0 0 
L 0 3.5 
" style="stroke: #000000; stroke-width: 0.8"/>
      </defs>
      <g>
       <use xlink:href="#md435c914c9" x="69.273722" y="244.078125" style="stroke: #000000; stroke-width: 0.8"/>
      </g>
     </g>
     <g id="text_1">
      <text style="font: 10px 'DejaVu Sans', 'Bitstream Vera Sans', 'Computer Modern Sans Serif', 'Lucida Grande', 'Verdana', 'Geneva', 'Lucid', 'Arial', 'Helvetica', 'Avant Garde', sans-serif; text-anchor: middle" x="69.273722" y="258.676562" transform="rotate(-0 69.273722 258.676562)">0.0</text>
     </g>
    </g>
    <g id="xtick_2">
     <g id="line2d_3">
      <path d="M 150.437358 244.078125 
L 150.437358 22.318125 
" clip-path="url(#p77dbeb4f82)" style="fill: none; stroke: #b0b0b0; stroke-opacity: 0.3; stroke-width: 0.8; stroke-linecap: square"/>
     </g>
     <g id="line2d_4">
      <g>
       <use xlink:href="#md435c914c9" x="150.437358" y="244.078125" style="stroke: #000000; stroke-width: 0.8"/>
      </g>
     </g>
     <g id="text_2">
      <text style="font: 10px 'DejaVu Sans', 'Bitstream Vera Sans', 'Computer Modern Sans Serif', 'Lucida Grande', 'Verdana', 'Geneva', 'Lucid', 'Arial', 'Helvetica', 'Avant Garde', sans-serif; text-anchor: middle" x="150.437358" y="258.676562" transform="rotate(-0 150.437358 258.676562)">0.2</text>
     </g>
    </g>
    <g id="xtick_3">
     <g id="line2d_5">
      <path d="M 231.600994 244.078125 
L 231.600994 22.318125 
" clip-path="url(#p77dbeb4f82)" style="fill: none; stroke: #b0b0b0; stroke-opacity: 0.3; stroke-width: 0.8; stroke-linecap: square"/>
     </g>
     <g id="line2d_6">
      <g>
       <use xlink:href="#md435c914c9" x="231.600994" y="244.078125" style="stroke: #000000; stroke-width: 0.8"/>
      </g>
     </g>
     <g id="text_3">
      <text style="font: 10px 'DejaVu Sans', 'Bitstream Vera Sans', 'Computer Modern Sans Serif', 'Lucida Grande', 'Verdana', 'Geneva', 'Lucid', 'Arial', 'Helvetica', 'Avant Garde', sans-serif; text-anchor: middle" x="231.600994" y="258.676562" transform="rotate(-0 231.600994 258.676562)">0.4</text>
     </g>
    </g>
    <g id="xtick_4">
     <g id="line2d_7">
      <path d="M 312.764631 244.078125 
L 312.764631 22.318125 
" clip-path="url(#p77dbeb4f82)" style="fill: none; stroke: #b0b0b0; stroke-opacity: 0.3; stroke-width: 0.8; stroke-linecap: square"/>
     </g>
     <g id="line2d_8">
      <g>
       <use xlink:href="#md435c914c9" x="312.764631" y="244.078125" style="stroke: #000000; stroke-width: 0.8"/>
      </g>
     </g>
     <g id="text_4">
      <text style="font: 10px 'DejaVu Sans', 'Bitstream Vera Sans', 'Computer Modern Sans Serif', 'Lucida Grande', 'Verdana', 'Geneva', 'Lucid', 'Arial', 'Helvetica', 'Avant Garde', sans-serif; text-anchor: middle" x="312.764631" y="258.676562" transform="rotate(-0 312.764631 258.676562)">0.6</text>
     </g>
    </g>
    <g id="xtick_5">
     <g id="line2d_9">
      <path d="M 393.928267 244.078125 
L 393.928267 22.318125 
" clip-path="url(#p77dbeb4f82)" style="fill: none; stroke: #b0b0b0; stroke-opacity: 0.3; stroke-width: 0.8; stroke-linecap: square"/>
     </g>
     <g id="line2d_10">
      <g>
       <use xlink:href="#md435c914c9" x="393.928267" y="244.078125" style="stroke: #000000; stroke-width: 0.8"/>
      </g>
     </g>
     <g id="text_5">
      <text style="font: 10px 'DejaVu Sans', 'Bitstream Vera Sans', 'Computer Modern Sans Serif', 'Lucida Grande', 'Verdana', 'Geneva', 'Lucid', 'Arial', 'Helvetica', 'Avant Garde', sans-serif; text-anchor: middle" x="393.928267" y="258.676562" transform="rotate(-0 393.928267 258.676562)">0.8</text>
     </g>
    </g>
    <g id="xtick_6">
     <g id="line2d_11">
      <path d="M 475.091903 244.078125 
L 475.091903 22.318125 
" clip-path="url(#p77dbeb4f82)" style="fill: none; stroke: #b0b0b0; stroke-opacity: 0.3; stroke-width: 0.8; stroke-linecap: square"/>
     </g>
     <g id="line2d_12">
      <g>
       <use xlink:href="#md435c914c9" x="475.091903" y="244.078125" style="stroke: #000000; stroke-width: 0.8"/>
      </g>
     </g>
     <g id="text_6">
      <text style="font: 10px 'DejaVu Sans', 'Bitstream Vera Sans', 'Computer Modern Sans Serif', 'Lucida Grande', 'Verdana', 'Geneva', 'Lucid', 'Arial', 'Helvetica', 'Avant Garde', sans-serif; text-anchor: middle" x="475.091903" y="258.676562" transform="rotate(-0 475.091903 258.676562)">1.0</text>
     </g>
    </g>
    <g id="text_7">
     <text style="font: 10px 'DejaVu Sans', 'Bitstream Vera Sans', 'Computer Modern Sans Serif', 'Lucida Grande', 'Verdana', 'Geneva', 'Lucid', 'Arial', 'Helvetica', 'Avant Garde', sans-serif; text-anchor: middle" x="272.182813" y="272.354687" transform="rotate(-0 272.182813 272.354687)">Tiempo (s)</text>
    </g>
   </g>
   <g id="matplotlib.axis_2">
    <g id="ytick_1">
     <g id="line2d_13">
      <path d="M 48.982813 243.294591 
L 495.382812 243.294591 
" clip-path="url(#p77dbeb4f82)" style="fill: none; stroke: #b0b0b0; stroke-opacity: 0.3; stroke-width: 0.8; stroke-linecap: square"/>
     </g>
     <g id="line2d_14">
      <defs>
       <path id="mb8ab785296" d="M 0 0 
L -3.5 0 
" style="stroke: #000000; stroke-width: 0.8"/>
      </defs>
      <g>
       <use xlink:href="#mb8ab785296" x="48.982813" y="243.294591" style="stroke: #000000; stroke-width: 0.8"/>
      </g>
     </g>
     <g id="text_8">
      <text style="font: 10px 'DejaVu Sans', 'Bitstream Vera Sans', 'Computer Modern Sans Serif', 'Lucida Grande', 'Verdana', 'Geneva', 'Lucid', 'Arial', 'Helvetica', 'Avant Garde', sans-serif; text-anchor: end" x="41.982813" y="247.09381" transform="rotate(-0 41.982813 247.09381)">20</text>
     </g>
    </g>
    <g id="ytick_2">
     <g id="line2d_15">
      <path d="M 48.982813 215.483901 
L 495.382812 215.483901 
" clip-path="url(#p77dbeb4f82)" style="fill: none; stroke: #b0b0b0; stroke-opacity: 0.3; stroke-width: 0.8; stroke-linecap: square"/>
     </g>
     <g id="line2d_16">
      <g>
       <use xlink:href="#mb8ab785296" x="48.982813" y="215.483901" style="stroke: #000000; stroke-width: 0.8"/>
      </g>
     </g>
     <g id="text_9">
      <text style="font: 10px 'DejaVu Sans', 'Bitstream Vera Sans', 'Computer Modern Sans Serif', 'Lucida Grande', 'Verdana', 'Geneva', 'Lucid', 'Arial', 'Helvetica', 'Avant Garde', sans-serif; text-anchor: end" x="41.982813" y="219.28312" transform="rotate(-0 41.982813 219.28312)">10</text>
     </g>
    </g>
    <g id="ytick_3">
     <g id="line2d_17">
      <path d="M 48.982813 187.673211 
L 495.382812 187.673211 
" clip-path="url(#p77dbeb4f82)" style="fill: none; stroke: #b0b0b0; stroke-opacity: 0.3; stroke-width: 0.8; stroke-linecap: square"/>
     </g>
     <g id="line2d_18">
      <g>
       <use xlink:href="#mb8ab785296" x="48.982813" y="187.673211" style="stroke: #000000; stroke-width: 0.8"/>
      </g>
     </g>
     <g id="text_10">
      <text style="font: 10px 'DejaVu Sans', 'Bitstream Vera Sans', 'Computer Modern Sans Serif', 'Lucida Grande', 'Verdana', 'Geneva', 'Lucid', 'Arial', 'Helvetica', 'Avant Garde', sans-serif; text-anchor: end" x="41.982813" y="191.47243" transform="rotate(-0 41.982813 191.47243)">0</text>
     </g>
    </g>
    <g id="ytick_4">
     <g id="line2d_19">
      <path d="M 48.982813 159.862521 
L 495.382812 159.862521 
" clip-path="url(#p77dbeb4f82)" style="fill: none; stroke: #b0b0b0; stroke-opacity: 0.3; stroke-width: 0.8; stroke-linecap: square"/>
     </g>
     <g id="line2d_20">
      <g>
       <use xlink:href="#mb8ab785296" x="48.982813" y="159.862521" style="stroke: #000000; stroke-width: 0.8"/>
      </g>
     </g>
     <g id="text_11">
      <text style="font: 10px 'DejaVu Sans', 'Bitstream Vera Sans', 'Computer Modern Sans Serif', 'Lucida Grande', 'Verdana', 'Geneva', 'Lucid', 'Arial', 'Helvetica', 'Avant Garde', sans-serif; text-anchor: end" x="41.982813" y="163.66174" transform="rotate(-0 41.982813 163.66174)">10</text>
     </g>
    </g>
    <g id="ytick_5">
     <g id="line2d_21">
      <path d="M 48.982813 132.051831 
L 495.382812 132.051831 
" clip-path="url(#p77dbeb4f82)" style="fill: none; stroke: #b0b0b0; stroke-opacity: 0.3; stroke-width: 0.8; stroke-linecap: square"/>
     </g>
     <g id="line2d_22">
      <g>
       <use xlink:href="#mb8ab785296" x="48.982813" y="132.051831" style="stroke: #000000; stroke-width: 0.8"/>
      </g>
     </g>
     <g id="text_12">
      <text style="font: 10px 'DejaVu Sans', 'Bitstream Vera Sans', 'Computer Modern Sans Serif', 'Lucida Grande', 'Verdana', 'Geneva', 'Lucid', 'Arial', 'Helvetica', 'Avant Garde', sans-serif; text-anchor: end" x="41.982813" y="135.85105" transform="rotate(-0 41.982813 135.85105)">20</text>
     </g>
    </g>
    <g id="ytick_6">
     <g id="line2d_23">
      <path d="M 48.982813 104.241141 
L 495.382812 104.241141 
" clip-path="url(#p77dbeb4f82)" style="fill: none; stroke: #b0b0b0; stroke-opacity: 0.3; stroke-width: 0.8; stroke-linecap: square"/>
     </g>
     <g id="line2d_24">
      <g>
       <use xlink:href="#mb8ab785296" x="48.982813" y="104.241141" style="stroke: #000000; stroke-width: 0.8"/>
      </g>
     </g>
     <g id="text_13">
      <text style="font: 10px 'DejaVu Sans', 'Bitstream Vera Sans', 'Computer Modern Sans Serif', 'Lucida Grande', 'Verdana', 'Geneva', 'Lucid', 'Arial', 'Helvetica', 'Avant Garde', sans-serif; text-anchor: end" x="41.982813" y="108.04036" transform="rotate(-0 41.982813 108.04036)">30</text>
     </g>
    </g>
    <g id="ytick_7">
     <g id="line2d_25">
      <path d="M 48.982813 76.430451 
L 495.382812 76.430451 
" clip-path="url(#p77dbeb4f82)" style="fill: none; stroke: #b0b0b0; stroke-opacity: 0.3; stroke-width: 0.8; stroke-linecap: square"/>
     </g>
     <g id="line2d_26">
      <g>
       <use xlink:href="#mb8ab785296" x="48.982813" y="76.430451" style="stroke: #000000; stroke-width: 0.8"/>
      </g>
     </g>
     <g id="text_14">
      <text style="font: 10px 'DejaVu Sans', 'Bitstream Vera Sans', 'Computer Modern Sans Serif', 'Lucida Grande', 'Verdana', 'Geneva', 'Lucid', 'Arial', 'Helvetica', 'Avant Garde', sans-serif; text-anchor: end" x="41.982813" y="80.22967" transform="rotate(-0 41.982813 80.22967)">40</text>
     </g>
    </g>
    <g id="ytick_8">
     <g id="line2d_27">
      <path d="M 48.982813 48.619761 
L 495.382812 48.619761 
" clip-path="url(#p77dbeb4f82)" style="fill: none; stroke: #b0b0b0; stroke-opacity: 0.3; stroke-width: 0.8; stroke-linecap: square"/>
     </g>
     <g id="line2d_28">
      <g>
       <use xlink:href="#mb8ab785296" x="48.982813" y="48.619761" style="stroke: #000000; stroke-width: 0.8"/>
      </g>
     </g>
     <g id="text_15">
      <text style="font: 10px 'DejaVu Sans', 'Bitstream Vera Sans', 'Computer Modern Sans Serif', 'Lucida Grande', 'Verdana', 'Geneva', 'Lucid', 'Arial', 'Helvetica', 'Avant Garde', sans-serif; text-anchor: end" x="41.982813" y="52.41898" transform="rotate(-0 41.982813 52.41898)">50</text>
     </g>
    </g>
    <g id="text_16">
     <text style="font: 10px 'DejaVu Sans', 'Bitstream Vera Sans', 'Computer Modern Sans Serif', 'Lucida Grande', 'Verdana', 'Geneva', 'Lucid', 'Arial', 'Helvetica', 'Avant Garde', sans-serif; text-anchor: middle" x="14.798438" y="133.198125" transform="rotate(-90 14.798438 133.198125)">Torque (Nm)</text>
    </g>
   </g>
   <g id="line2d_29">
    <path d="M 69.273722 187.673211 
L 69.679946 187.566519 
L 70.08617 186.227887 
L 70.492395 181.387346 
L 70.898619 170.851263 
L 71.304844 153.559078 
L 72.117292 103.132704 
L 72.929741 53.191406 
L 73.335965 37.902168 
L 73.74219 32.505063 
L 74.148415 37.672262 
L 74.554639 52.574783 
L 75.367087 103.032884 
L 76.585761 188.338032 
L 76.991985 208.651267 
L 77.398209 221.406003 
L 77.804434 225.321202 
L 78.210658 219.916028 
L 78.616883 205.692849 
L 79.429332 158.019622 
L 80.24178 104.218581 
L 80.648005 82.81335 
L 81.054229 68.098575 
L 81.460453 61.068701 
L 81.866678 61.660531 
L 82.272902 68.949008 
L 82.679127 81.441625 
L 84.710249 162.480655 
L 85.116473 172.704637 
L 85.522697 178.886358 
L 85.928921 180.725217 
L 86.335147 178.245841 
L 86.741371 171.81049 
L 87.55382 150.073255 
L 89.178718 100.719224 
L 89.584942 92.564564 
L 89.991166 86.978344 
L 90.39739 83.897519 
L 90.803614 83.039012 
L 91.209839 83.980704 
L 91.616064 86.241107 
L 92.428513 92.877814 
L 93.647185 103.040385 
L 94.459635 107.840923 
L 94.865859 109.470026 
L 95.272083 110.587221 
L 95.678307 111.215753 
L 96.084532 111.387421 
L 96.490756 111.139825 
L 96.89698 110.516598 
L 97.709428 108.344434 
L 98.928104 103.713034 
L 100.146776 99.278222 
L 100.553 98.227285 
L 100.959225 97.514184 
L 101.365449 97.198452 
L 101.771673 97.325844 
L 102.177897 97.927052 
L 102.584121 99.01729 
L 102.990345 100.597465 
L 103.802797 105.172261 
L 104.615245 111.463737 
L 105.833918 123.587269 
L 107.05259 138.246363 
L 109.489938 171.524152 
L 111.114835 192.024525 
L 111.927283 200.282696 
L 112.739731 206.711487 
L 113.552183 211.112847 
L 113.958407 212.532781 
L 114.364631 213.438994 
L 114.770855 213.846467 
L 115.177079 213.777207 
L 115.583304 213.259464 
L 115.989528 212.326952 
L 116.801976 209.375135 
L 117.614424 205.270893 
L 119.239324 195.15674 
L 120.864221 185.030837 
L 122.082893 178.941255 
L 122.895341 175.991038 
L 123.70779 174.050435 
L 124.114014 173.467442 
L 124.520238 173.138293 
L 124.926462 173.054548 
L 125.332686 173.204029 
L 125.738911 173.571267 
L 126.551365 174.88314 
L 127.363813 176.817365 
L 128.582486 180.456308 
L 131.019831 187.995735 
L 131.832279 189.996291 
L 132.644727 191.559287 
L 133.457176 192.632555 
L 134.269624 193.201437 
L 134.675848 193.301656 
L 135.488297 193.160134 
L 136.300745 192.616227 
L 137.113199 191.750569 
L 138.331872 190.053098 
L 141.175441 185.865966 
L 142.394113 184.58755 
L 143.206562 184.021427 
L 144.01901 183.699826 
L 144.831458 183.616549 
L 145.643907 183.75039 
L 146.456355 184.068277 
L 147.675034 184.798062 
L 151.737275 187.594034 
L 152.955948 188.081619 
L 154.17462 188.305525 
L 155.393293 188.277062 
L 156.611965 188.0415 
L 158.643092 187.375902 
L 161.486661 186.436756 
L 163.111558 186.128974 
L 164.736455 186.046718 
L 166.767575 186.214529 
L 173.673392 187.13699 
L 176.110737 187.100444 
L 185.860129 186.633645 
L 197.234406 186.840911 
L 206.983798 186.761974 
L 221.201644 186.783179 
L 258.168067 186.788947 
L 475.091903 186.788577 
L 475.091903 186.788577 
" clip-path="url(#p77dbeb4f82)" style="fill: none; stroke: #ff7f0e; stroke-width: 2; stroke-linecap: square"/>
   </g>
   <g id="line2d_30">
    <path d="M 69.273722 187.673211 
L 69.679946 187.566507 
L 70.08617 186.227408 
L 70.492395 181.385334 
L 70.898619 170.846006 
L 71.304844 153.549331 
L 72.117292 103.111061 
L 72.929741 53.160842 
L 73.335965 37.870363 
L 73.74219 32.473926 
L 74.148415 37.643289 
L 74.554639 52.548781 
L 75.367087 103.012478 
L 76.585761 188.321439 
L 76.991985 208.635682 
L 77.398209 221.392477 
L 77.804434 225.31085 
L 78.210658 219.91009 
L 78.616883 205.692582 
L 79.429332 158.03014 
L 80.24178 104.23381 
L 80.648005 82.826887 
L 81.054229 68.107231 
L 81.460453 61.069443 
L 81.866678 61.650866 
L 82.272902 68.927058 
L 82.679127 81.406339 
L 85.116473 172.612745 
L 85.522697 178.798451 
L 85.928921 180.647155 
L 86.335147 178.183302 
L 86.741371 171.768322 
L 87.55382 150.076881 
L 89.178718 100.775048 
L 89.584942 92.615731 
L 89.991166 87.017798 
L 90.39739 83.918917 
L 90.803614 83.037824 
L 91.209839 83.95363 
L 91.616064 86.186981 
L 92.428513 92.771841 
L 93.647185 102.879829 
L 94.459635 107.669191 
L 94.865859 109.301004 
L 95.272083 110.426851 
L 95.678307 111.068639 
L 96.084532 111.257584 
L 96.490756 111.030834 
L 96.89698 110.430517 
L 97.709428 108.30691 
L 98.928104 103.745359 
L 100.146776 99.372546 
L 100.553 98.341628 
L 100.959225 97.648992 
L 101.365449 97.354456 
L 101.771673 97.504042 
L 102.177897 98.128601 
L 102.584121 99.243489 
L 102.990345 100.849554 
L 103.802797 105.479018 
L 104.615245 111.827554 
L 105.833918 124.035157 
L 107.05259 138.766752 
L 111.521059 196.858309 
L 112.333507 204.173633 
L 113.145956 209.531005 
L 113.958407 212.813884 
L 114.364631 213.680888 
L 114.770855 214.049833 
L 115.177079 213.943274 
L 115.583304 213.39001 
L 115.989528 212.424252 
L 116.801976 209.414338 
L 117.614424 205.265283 
L 119.239324 195.106207 
L 120.864221 184.992909 
L 122.082893 178.942207 
L 122.895341 176.027048 
L 123.70779 174.125381 
L 124.114014 173.562406 
L 124.520238 173.253171 
L 124.926462 173.188905 
L 125.332686 173.357133 
L 125.738911 173.742094 
L 126.551365 175.085442 
L 127.363813 177.044601 
L 128.582486 180.706734 
L 131.019831 188.241936 
L 131.832279 190.229076 
L 132.644727 191.774839 
L 133.457176 192.828587 
L 134.269624 193.377161 
L 134.675848 193.467379 
L 135.488297 193.30693 
L 136.300745 192.746402 
L 137.113199 191.867275 
L 138.331872 190.156594 
L 141.175441 185.971403 
L 142.394113 184.704454 
L 143.206562 184.147803 
L 144.01901 183.836269 
L 144.831458 183.762909 
L 145.643907 183.905928 
L 146.862579 184.450289 
L 148.487482 185.560764 
L 150.924827 187.310578 
L 152.143499 187.954053 
L 153.362172 188.347917 
L 154.580844 188.476997 
L 155.799517 188.366252 
L 157.424414 187.943206 
L 162.29911 186.397939 
L 163.924006 186.207729 
L 165.548903 186.235913 
L 167.580024 186.494152 
L 172.45472 187.223553 
L 174.892065 187.295987 
L 177.735634 187.135076 
L 183.016548 186.780983 
L 186.672578 186.809274 
L 195.609509 187.016199 
L 210.233591 186.943472 
L 222.82654 186.930717 
L 328.851108 186.939558 
L 475.091903 186.939553 
L 475.091903 186.939553 
" clip-path="url(#p77dbeb4f82)" style="fill: none; stroke-dasharray: 4.44,1.92; stroke-dashoffset: 0; stroke: #808080; stroke-width: 1.2"/>
   </g>
   <g id="patch_3">
    <path d="M 48.982813 244.078125 
L 48.982813 22.318125 
" style="fill: none; stroke: #000000; stroke-width: 0.8; stroke-linejoin: miter; stroke-linecap: square"/>
   </g>
   <g id="patch_4">
    <path d="M 495.382812 244.078125 
L 495.382812 22.318125 
" style="fill: none; stroke: #000000; stroke-width: 0.8; stroke-linejoin: miter; stroke-linecap: square"/>
   </g>
   <g id="patch_5">
    <path d="M 48.982813 244.078125 
L 495.382812 244.078125 
" style="fill: none; stroke: #000000; stroke-width: 0.8; stroke-linejoin: miter; stroke-linecap: square"/>
   </g>
   <g id="patch_6">
    <path d="M 48.982813 22.318125 
L 495.382812 22.318125 
" style="fill: none; stroke: #000000; stroke-width: 0.8; stroke-linejoin: miter; stroke-linecap: square"/>
   </g>
   <g id="text_17">
    <text style="font: 12px 'DejaVu Sans', 'Bitstream Vera Sans', 'Computer Modern Sans Serif', 'Lucida Grande', 'Verdana', 'Geneva', 'Lucid', 'Arial', 'Helvetica', 'Avant Garde', sans-serif; text-anchor: middle" x="272.182813" y="16.318125" transform="rotate(-0 272.182813 16.318125)">Torque - PSO</text>
   </g>
   <g id="legend_1">
    <g id="patch_7">
     <path d="M 374.148438 74.3525 
L 488.382812 74.3525 
Q 490.382812 74.3525 490.382812 72.3525 
L 490.382812 29.318125 
Q 490.382812 27.318125 488.382812 27.318125 
L 374.148438 27.318125 
Q 372.148438 27.318125 372.148438 29.318125 
L 372.148438 72.3525 
Q 372.148438 74.3525 374.148438 74.3525 
z
" style="fill: #ffffff; opacity: 0.8; stroke: #cccccc; stroke-linejoin: miter"/>
    </g>
    <g id="patch_8">
     <path d="M 376.148438 38.916562 
L 396.148438 38.916562 
L 396.148438 31.916562 
L 376.148438 31.916562 
z
" style="fill: #ff7f0e; fill-opacity: 0.2; stroke: #ff7f0e; stroke-opacity: 0.2; stroke-linejoin: miter"/>
    </g>
    <g id="text_18">
     <text style="font: 10px 'DejaVu Sans', 'Bitstream Vera Sans', 'Computer Modern Sans Serif', 'Lucida Grande', 'Verdana', 'Geneva', 'Lucid', 'Arial', 'Helvetica', 'Avant Garde', sans-serif; text-anchor: start" x="404.148438" y="38.916562" transform="rotate(-0 404.148438 38.916562)">Rango 95% runs</text>
    </g>
    <g id="line2d_31">
     <path d="M 376.148438 50.094687 
L 386.148438 50.094687 
L 396.148438 50.094687 
" style="fill: none; stroke: #ff7f0e; stroke-width: 2; stroke-linecap: square"/>
    </g>
    <g id="text_19">
     <text style="font: 10px 'DejaVu Sans', 'Bitstream Vera Sans', 'Computer Modern Sans Serif', 'Lucida Grande', 'Verdana', 'Geneva', 'Lucid', 'Arial', 'Helvetica', 'Avant Garde', sans-serif; text-anchor: start" x="404.148438" y="53.594687" transform="rotate(-0 404.148438 53.594687)">Mejor run</text>
    </g>
    <g id="line2d_32">
     <path d="M 376.148438 64.772812 
L 386.148438 64.772812 
L 396.148438 64.772812 
" style="fill: none; stroke-dasharray: 4.44,1.92; stroke-dashoffset: 0; stroke: #808080; stroke-width: 1.2"/>
    </g>
    <g id="text_20">
     <text style="font: 10px 'DejaVu Sans', 'Bitstream Vera Sans', 'Computer Modern Sans Serif', 'Lucida Grande', 'Verdana', 'Geneva', 'Lucid', 'Arial', 'Helvetica', 'Avant Garde', sans-serif; text-anchor: start" x="404.148438" y="68.272812" transform="rotate(-0 404.148438 68.272812)">Medida</text>
    </g>
   </g>
  </g>
 </g>
 <defs>
  <clipPath id="p77dbeb4f82">
   <rect x="48.982813" y="22.318125" width="446.4" height="221.76"/>
  </clipPath>
 </defs>
</svg>
