<?xml version="1.0" encoding="utf-8" standalone="no"?>
<!DOCTYPE svg PUBLIC "-//W3C//DTD SVG 1.1//EN"
  "http://www.w3.org/Graphics/SVG/1.1/DTD/svg11.dtd">
<svg xmlns:xlink="http://www.w3.org/1999/xlink" width="855.850089pt" height="207.122875pt" viewBox="0 0 855.850089 207.122875" xmlns="http://www.w3.org/2000/svg" version="1.1">
 <metadata>
  <rdf:RDF xmlns:dc="http://purl.org/dc/elements/1.1/" xmlns:cc="http://creativecommons.org/ns#" xmlns:rdf="http://www.w3.org/1999/02/22-rdf-syntax-ns#">
   <cc:Work>
    <dc:type rdf:resource="http://purl.org/dc/dcmitype/StillImage"/>
    <dc:date>2025-11-28T09:10:44.058423</dc:date>
    <dc:format>image/svg+xml</dc:format>
    <dc:creator>
     <cc:Agent>
      <dc:title>Matplotlib v3.9.2, https://matplotlib.org/</dc:title>
     </cc:Agent>
    </dc:creator>
   </cc:Work>
  </rdf:RDF>
 </metadata>
 <defs>
  <style type="text/css">*{stroke-linejoin: round; stroke-linecap: butt}</style>
 </defs>
 <g id="figure_1">
  <g id="patch_1">
   <path d="M 0 207.122875 
L 855.850089 207.122875 
L 855.850089 0 
L 0 0 
z
" style="fill: #ffffff"/>
  </g>
  <g id="axes_1">
   <g id="patch_2">
    <path d="M 54.3557 168.03435 
L 296.819003 168.03435 
L 296.819003 21.22395 
L 54.3557 21.22395 
z
" style="fill: #ffffff"/>
   </g>
   <g id="matplotlib.axis_1">
    <g id="xtick_1">
     <g id="line2d_1">
      <path d="M 59.869464 168.03435 
L 59.869464 21.22395 
" clip-path="url(#padf44f5788)" style="fill: none; stroke: #cccccc; stroke-width: 0.8; stroke-linecap: round"/>
     </g>
     <g id="text_1">
      <text style="fill: #262626; font: 9.68px 'Arial', 'DejaVu Sans', 'Liberation Sans', 'Bitstream Vera Sans', sans-serif; text-anchor: middle" x="59.869464" y="183.689638" transform="rotate(-0 59.869464 183.689638)">0.00000</text>
     </g>
    </g>
    <g id="xtick_2">
     <g id="line2d_2">
      <path d="M 91.097948 168.03435 
L 91.097948 21.22395 
" clip-path="url(#padf44f5788)" style="fill: none; stroke: #cccccc; stroke-width: 0.8; stroke-linecap: round"/>
     </g>
     <g id="text_2">
      <text style="fill: #262626; font: 9.68px 'Arial', 'DejaVu Sans', 'Liberation Sans', 'Bitstream Vera Sans', sans-serif; text-anchor: middle" x="91.097948" y="183.689638" transform="rotate(-0 91.097948 183.689638)">0.00025</text>
     </g>
    </g>
    <g id="xtick_3">
     <g id="line2d_3">
      <path d="M 122.326432 168.03435 
L 122.326432 21.22395 
" clip-path="url(#padf44f5788)" style="fill: none; stroke: #cccccc; stroke-width: 0.8; stroke-linecap: round"/>
     </g>
     <g id="text_3">
      <text style="fill: #262626; font: 9.68px 'Arial', 'DejaVu Sans', 'Liberation Sans', 'Bitstream Vera Sans', sans-serif; text-anchor: middle" x="122.326432" y="183.689638" transform="rotate(-0 122.326432 183.689638)">0.00050</text>
     </g>
    </g>
    <g id="xtick_4">
     <g id="line2d_4">
      <path d="M 153.554915 168.03435 
L 153.554915 21.22395 
" clip-path="url(#padf44f5788)" style="fill: none; stroke: #cccccc; stroke-width: 0.8; stroke-linecap: round"/>
     </g>
     <g id="text_4">
      <text style="fill: #262626; font: 9.68px 'Arial', 'DejaVu Sans', 'Liberation Sans', 'Bitstream Vera Sans', sans-serif; text-anchor: middle" x="153.554915" y="183.689638" transform="rotate(-0 153.554915 183.689638)">0.00075</text>
     </g>
    </g>
    <g id="xtick_5">
     <g id="line2d_5">
      <path d="M 184.783399 168.03435 
L 184.783399 21.22395 
" clip-path="url(#padf44f5788)" style="fill: none; stroke: #cccccc; stroke-width: 0.8; stroke-linecap: round"/>
     </g>
     <g id="text_5">
      <text style="fill: #262626; font: 9.68px 'Arial', 'DejaVu Sans', 'Liberation Sans', 'Bitstream Vera Sans', sans-serif; text-anchor: middle" x="184.783399" y="183.689638" transform="rotate(-0 184.783399 183.689638)">0.00100</text>
     </g>
    </g>
    <g id="xtick_6">
     <g id="line2d_6">
      <path d="M 216.011883 168.03435 
L 216.011883 21.22395 
" clip-path="url(#padf44f5788)" style="fill: none; stroke: #cccccc; stroke-width: 0.8; stroke-linecap: round"/>
     </g>
     <g id="text_6">
      <text style="fill: #262626; font: 9.68px 'Arial', 'DejaVu Sans', 'Liberation Sans', 'Bitstream Vera Sans', sans-serif; text-anchor: middle" x="216.011883" y="183.689638" transform="rotate(-0 216.011883 183.689638)">0.00125</text>
     </g>
    </g>
    <g id="xtick_7">
     <g id="line2d_7">
      <path d="M 247.240367 168.03435 
L 247.240367 21.22395 
" clip-path="url(#padf44f5788)" style="fill: none; stroke: #cccccc; stroke-width: 0.8; stroke-linecap: round"/>
     </g>
     <g id="text_7">
      <text style="fill: #262626; font: 9.68px 'Arial', 'DejaVu Sans', 'Liberation Sans', 'Bitstream Vera Sans', sans-serif; text-anchor: middle" x="247.240367" y="183.689638" transform="rotate(-0 247.240367 183.689638)">0.00150</text>
     </g>
    </g>
    <g id="xtick_8">
     <g id="line2d_8">
      <path d="M 278.46885 168.03435 
L 278.46885 21.22395 
" clip-path="url(#padf44f5788)" style="fill: none; stroke: #cccccc; stroke-width: 0.8; stroke-linecap: round"/>
     </g>
     <g id="text_8">
      <text style="fill: #262626; font: 9.68px 'Arial', 'DejaVu Sans', 'Liberation Sans', 'Bitstream Vera Sans', sans-serif; text-anchor: middle" x="278.46885" y="183.689638" transform="rotate(-0 278.46885 183.689638)">0.00175</text>
     </g>
    </g>
    <g id="text_9">
     <text style="fill: #262626; font: 10.56px 'Arial', 'DejaVu Sans', 'Liberation Sans', 'Bitstream Vera Sans', sans-serif; text-anchor: middle" x="175.587351" y="197.726725" transform="rotate(-0 175.587351 197.726725)">Best fitness</text>
    </g>
   </g>
   <g id="matplotlib.axis_2">
    <g id="ytick_1">
     <g id="line2d_9">
      <path d="M 54.3557 168.03435 
L 296.819003 168.03435 
" clip-path="url(#padf44f5788)" style="fill: none; stroke: #cccccc; stroke-width: 0.8; stroke-linecap: round"/>
     </g>
     <g id="text_10">
      <text style="fill: #262626; font: 9.68px 'Arial', 'DejaVu Sans', 'Liberation Sans', 'Bitstream Vera Sans', sans-serif; text-anchor: end" x="46.0557" y="171.711994" transform="rotate(-0 46.0557 171.711994)">0</text>
     </g>
    </g>
    <g id="ytick_2">
     <g id="line2d_10">
      <path d="M 54.3557 135.65156 
L 296.819003 135.65156 
" clip-path="url(#padf44f5788)" style="fill: none; stroke: #cccccc; stroke-width: 0.8; stroke-linecap: round"/>
     </g>
     <g id="text_11">
      <text style="fill: #262626; font: 9.68px 'Arial', 'DejaVu Sans', 'Liberation Sans', 'Bitstream Vera Sans', sans-serif; text-anchor: end" x="46.0557" y="139.329203" transform="rotate(-0 46.0557 139.329203)">2000</text>
     </g>
    </g>
    <g id="ytick_3">
     <g id="line2d_11">
      <path d="M 54.3557 103.268769 
L 296.819003 103.268769 
" clip-path="url(#padf44f5788)" style="fill: none; stroke: #cccccc; stroke-width: 0.8; stroke-linecap: round"/>
     </g>
     <g id="text_12">
      <text style="fill: #262626; font: 9.68px 'Arial', 'DejaVu Sans', 'Liberation Sans', 'Bitstream Vera Sans', sans-serif; text-anchor: end" x="46.0557" y="106.946413" transform="rotate(-0 46.0557 106.946413)">4000</text>
     </g>
    </g>
    <g id="ytick_4">
     <g id="line2d_12">
      <path d="M 54.3557 70.885979 
L 296.819003 70.885979 
" clip-path="url(#padf44f5788)" style="fill: none; stroke: #cccccc; stroke-width: 0.8; stroke-linecap: round"/>
     </g>
     <g id="text_13">
      <text style="fill: #262626; font: 9.68px 'Arial', 'DejaVu Sans', 'Liberation Sans', 'Bitstream Vera Sans', sans-serif; text-anchor: end" x="46.0557" y="74.563622" transform="rotate(-0 46.0557 74.563622)">6000</text>
     </g>
    </g>
    <g id="ytick_5">
     <g id="line2d_13">
      <path d="M 54.3557 38.503188 
L 296.819003 38.503188 
" clip-path="url(#padf44f5788)" style="fill: none; stroke: #cccccc; stroke-width: 0.8; stroke-linecap: round"/>
     </g>
     <g id="text_14">
      <text style="fill: #262626; font: 9.68px 'Arial', 'DejaVu Sans', 'Liberation Sans', 'Bitstream Vera Sans', sans-serif; text-anchor: end" x="46.0557" y="42.180832" transform="rotate(-0 46.0557 42.180832)">8000</text>
     </g>
    </g>
    <g id="text_15">
     <text style="fill: #262626; font: 10.56px 'Arial', 'DejaVu Sans', 'Liberation Sans', 'Bitstream Vera Sans', sans-serif; text-anchor: middle" x="15.22395" y="94.62915" transform="rotate(-90 15.22395 94.62915)">Densidad</text>
    </g>
   </g>
   <g id="patch_3">
    <path d="M 65.376759 168.03435 
L 87.418878 168.03435 
L 87.418878 116.650119 
L 65.376759 116.650119 
z
" clip-path="url(#padf44f5788)" style="fill: #d62728; fill-opacity: 0.4; stroke: #ffffff; stroke-width: 0.8; stroke-linejoin: miter"/>
   </g>
   <g id="patch_4">
    <path d="M 87.418878 168.03435 
L 109.460996 168.03435 
L 109.460996 149.682839 
L 87.418878 149.682839 
z
" clip-path="url(#padf44f5788)" style="fill: #d62728; fill-opacity: 0.4; stroke: #ffffff; stroke-width: 0.8; stroke-linejoin: miter"/>
   </g>
   <g id="patch_5">
    <path d="M 109.460996 168.03435 
L 131.503115 168.03435 
L 131.503115 157.023443 
L 109.460996 157.023443 
z
" clip-path="url(#padf44f5788)" style="fill: #d62728; fill-opacity: 0.4; stroke: #ffffff; stroke-width: 0.8; stroke-linejoin: miter"/>
   </g>
   <g id="patch_6">
    <path d="M 131.503115 168.03435 
L 153.545233 168.03435 
L 153.545233 160.693746 
L 131.503115 160.693746 
z
" clip-path="url(#padf44f5788)" style="fill: #d62728; fill-opacity: 0.4; stroke: #ffffff; stroke-width: 0.8; stroke-linejoin: miter"/>
   </g>
   <g id="patch_7">
    <path d="M 153.545233 168.03435 
L 175.587351 168.03435 
L 175.587351 166.199199 
L 153.545233 166.199199 
z
" clip-path="url(#padf44f5788)" style="fill: #d62728; fill-opacity: 0.4; stroke: #ffffff; stroke-width: 0.8; stroke-linejoin: miter"/>
   </g>
   <g id="patch_8">
    <path d="M 175.587351 168.03435 
L 197.62947 168.03435 
L 197.62947 168.03435 
L 175.587351 168.03435 
z
" clip-path="url(#padf44f5788)" style="fill: #d62728; fill-opacity: 0.4; stroke: #ffffff; stroke-width: 0.8; stroke-linejoin: miter"/>
   </g>
   <g id="patch_9">
    <path d="M 197.62947 168.03435 
L 219.671588 168.03435 
L 219.671588 168.03435 
L 197.62947 168.03435 
z
" clip-path="url(#padf44f5788)" style="fill: #d62728; fill-opacity: 0.4; stroke: #ffffff; stroke-width: 0.8; stroke-linejoin: miter"/>
   </g>
   <g id="patch_10">
    <path d="M 219.671588 168.03435 
L 241.713707 168.03435 
L 241.713707 168.03435 
L 219.671588 168.03435 
z
" clip-path="url(#padf44f5788)" style="fill: #d62728; fill-opacity: 0.4; stroke: #ffffff; stroke-width: 0.8; stroke-linejoin: miter"/>
   </g>
   <g id="patch_11">
    <path d="M 241.713707 168.03435 
L 263.755825 168.03435 
L 263.755825 168.03435 
L 241.713707 168.03435 
z
" clip-path="url(#padf44f5788)" style="fill: #d62728; fill-opacity: 0.4; stroke: #ffffff; stroke-width: 0.8; stroke-linejoin: miter"/>
   </g>
   <g id="patch_12">
    <path d="M 263.755825 168.03435 
L 285.797944 168.03435 
L 285.797944 166.199199 
L 263.755825 166.199199 
z
" clip-path="url(#padf44f5788)" style="fill: #d62728; fill-opacity: 0.4; stroke: #ffffff; stroke-width: 0.8; stroke-linejoin: miter"/>
   </g>
   <g id="line2d_14">
    <path d="M 65.376759 143.825632 
L 67.592048 142.209883 
L 69.807336 140.832687 
L 72.022624 139.732362 
L 74.237912 138.936046 
L 76.453201 138.458279 
L 78.668489 138.300488 
L 80.883777 138.451408 
L 83.099065 138.888354 
L 85.314354 139.579195 
L 87.529642 140.484809 
L 90.852574 142.150464 
L 95.283151 144.711385 
L 103.03666 149.270111 
L 107.467237 151.56469 
L 110.790169 153.063899 
L 114.113101 154.369489 
L 118.543678 155.838953 
L 122.974255 157.059862 
L 128.512475 158.349815 
L 137.373628 160.14405 
L 151.773002 162.821315 
L 161.7418 164.456278 
L 169.495309 165.516905 
L 177.248818 166.371658 
L 185.002327 167.025478 
L 193.86348 167.538906 
L 202.724633 167.832748 
L 214.908718 167.993318 
L 237.061601 168.016036 
L 253.676263 167.867952 
L 266.967993 167.51849 
L 282.475011 167.118552 
L 285.797944 167.1015 
L 285.797944 167.1015 
" clip-path="url(#padf44f5788)" style="fill: none; stroke: #d62728; stroke-width: 1.2; stroke-linecap: round"/>
   </g>
   <g id="patch_13">
    <path d="M 54.3557 168.03435 
L 54.3557 21.22395 
" style="fill: none; stroke: #cccccc; stroke-linejoin: miter; stroke-linecap: square"/>
   </g>
   <g id="patch_14">
    <path d="M 296.819003 168.03435 
L 296.819003 21.22395 
" style="fill: none; stroke: #cccccc; stroke-linejoin: miter; stroke-linecap: square"/>
   </g>
   <g id="patch_15">
    <path d="M 54.3557 168.03435 
L 296.819003 168.03435 
" style="fill: none; stroke: #cccccc; stroke-linejoin: miter; stroke-linecap: square"/>
   </g>
   <g id="patch_16">
    <path d="M 54.3557 21.22395 
L 296.819003 21.22395 
" style="fill: none; stroke: #cccccc; stroke-linejoin: miter; stroke-linecap: square"/>
   </g>
   <g id="text_16">
    <text style="fill: #262626; font: 10.56px 'Arial', 'DejaVu Sans', 'Liberation Sans', 'Bitstream Vera Sans', sans-serif; text-anchor: middle" x="175.587351" y="15.22395" transform="rotate(-0 175.587351 15.22395)">GA</text>
   </g>
  </g>
  <g id="axes_2">
   <g id="patch_17">
    <path d="M 322.180275 168.03435 
L 564.643578 168.03435 
L 564.643578 21.22395 
L 322.180275 21.22395 
z
" style="fill: #ffffff"/>
   </g>
   <g id="matplotlib.axis_3">
    <g id="xtick_9">
     <g id="line2d_15">
      <path d="M 333.185348 168.03435 
L 333.185348 21.22395 
" clip-path="url(#p09da9fae22)" style="fill: none; stroke: #cccccc; stroke-width: 0.8; stroke-linecap: round"/>
     </g>
     <g id="text_17">
      <text style="fill: #262626; font: 9.68px 'Arial', 'DejaVu Sans', 'Liberation Sans', 'Bitstream Vera Sans', sans-serif; text-anchor: middle" x="333.185348" y="183.689638" transform="rotate(-0 333.185348 183.689638)">0.0000</text>
     </g>
    </g>
    <g id="xtick_10">
     <g id="line2d_16">
      <path d="M 376.823644 168.03435 
L 376.823644 21.22395 
" clip-path="url(#p09da9fae22)" style="fill: none; stroke: #cccccc; stroke-width: 0.8; stroke-linecap: round"/>
     </g>
     <g id="text_18">
      <text style="fill: #262626; font: 9.68px 'Arial', 'DejaVu Sans', 'Liberation Sans', 'Bitstream Vera Sans', sans-serif; text-anchor: middle" x="376.823644" y="183.689638" transform="rotate(-0 376.823644 183.689638)">0.0005</text>
     </g>
    </g>
    <g id="xtick_11">
     <g id="line2d_17">
      <path d="M 420.46194 168.03435 
L 420.46194 21.22395 
" clip-path="url(#p09da9fae22)" style="fill: none; stroke: #cccccc; stroke-width: 0.8; stroke-linecap: round"/>
     </g>
     <g id="text_19">
      <text style="fill: #262626; font: 9.68px 'Arial', 'DejaVu Sans', 'Liberation Sans', 'Bitstream Vera Sans', sans-serif; text-anchor: middle" x="420.46194" y="183.689638" transform="rotate(-0 420.46194 183.689638)">0.0010</text>
     </g>
    </g>
    <g id="xtick_12">
     <g id="line2d_18">
      <path d="M 464.100235 168.03435 
L 464.100235 21.22395 
" clip-path="url(#p09da9fae22)" style="fill: none; stroke: #cccccc; stroke-width: 0.8; stroke-linecap: round"/>
     </g>
     <g id="text_20">
      <text style="fill: #262626; font: 9.68px 'Arial', 'DejaVu Sans', 'Liberation Sans', 'Bitstream Vera Sans', sans-serif; text-anchor: middle" x="464.100235" y="183.689638" transform="rotate(-0 464.100235 183.689638)">0.0015</text>
     </g>
    </g>
    <g id="xtick_13">
     <g id="line2d_19">
      <path d="M 507.738531 168.03435 
L 507.738531 21.22395 
" clip-path="url(#p09da9fae22)" style="fill: none; stroke: #cccccc; stroke-width: 0.8; stroke-linecap: round"/>
     </g>
     <g id="text_21">
      <text style="fill: #262626; font: 9.68px 'Arial', 'DejaVu Sans', 'Liberation Sans', 'Bitstream Vera Sans', sans-serif; text-anchor: middle" x="507.738531" y="183.689638" transform="rotate(-0 507.738531 183.689638)">0.0020</text>
     </g>
    </g>
    <g id="xtick_14">
     <g id="line2d_20">
      <path d="M 551.376826 168.03435 
L 551.376826 21.22395 
" clip-path="url(#p09da9fae22)" style="fill: none; stroke: #cccccc; stroke-width: 0.8; stroke-linecap: round"/>
     </g>
     <g id="text_22">
      <text style="fill: #262626; font: 9.68px 'Arial', 'DejaVu Sans', 'Liberation Sans', 'Bitstream Vera Sans', sans-serif; text-anchor: middle" x="551.376826" y="183.689638" transform="rotate(-0 551.376826 183.689638)">0.0025</text>
     </g>
    </g>
    <g id="text_23">
     <text style="fill: #262626; font: 10.56px 'Arial', 'DejaVu Sans', 'Liberation Sans', 'Bitstream Vera Sans', sans-serif; text-anchor: middle" x="443.411927" y="197.726725" transform="rotate(-0 443.411927 197.726725)">Best fitness</text>
    </g>
   </g>
   <g id="matplotlib.axis_4">
    <g id="ytick_6">
     <g id="line2d_21">
      <path d="M 322.180275 168.03435 
L 564.643578 168.03435 
" clip-path="url(#p09da9fae22)" style="fill: none; stroke: #cccccc; stroke-width: 0.8; stroke-linecap: round"/>
     </g>
    </g>
    <g id="ytick_7">
     <g id="line2d_22">
      <path d="M 322.180275 135.65156 
L 564.643578 135.65156 
" clip-path="url(#p09da9fae22)" style="fill: none; stroke: #cccccc; stroke-width: 0.8; stroke-linecap: round"/>
     </g>
    </g>
    <g id="ytick_8">
     <g id="line2d_23">
      <path d="M 322.180275 103.268769 
L 564.643578 103.268769 
" clip-path="url(#p09da9fae22)" style="fill: none; stroke: #cccccc; stroke-width: 0.8; stroke-linecap: round"/>
     </g>
    </g>
    <g id="ytick_9">
     <g id="line2d_24">
      <path d="M 322.180275 70.885979 
L 564.643578 70.885979 
" clip-path="url(#p09da9fae22)" style="fill: none; stroke: #cccccc; stroke-width: 0.8; stroke-linecap: round"/>
     </g>
    </g>
    <g id="ytick_10">
     <g id="line2d_25">
      <path d="M 322.180275 38.503188 
L 564.643578 38.503188 
" clip-path="url(#p09da9fae22)" style="fill: none; stroke: #cccccc; stroke-width: 0.8; stroke-linecap: round"/>
     </g>
    </g>
   </g>
   <g id="patch_18">
    <path d="M 333.201335 168.03435 
L 355.243453 168.03435 
L 355.243453 118.028211 
L 333.201335 118.028211 
z
" clip-path="url(#p09da9fae22)" style="fill: #d62728; fill-opacity: 0.4; stroke: #ffffff; stroke-width: 0.8; stroke-linejoin: miter"/>
   </g>
   <g id="patch_19">
    <path d="M 355.243453 168.03435 
L 377.285571 168.03435 
L 377.285571 168.03435 
L 355.243453 168.03435 
z
" clip-path="url(#p09da9fae22)" style="fill: #d62728; fill-opacity: 0.4; stroke: #ffffff; stroke-width: 0.8; stroke-linejoin: miter"/>
   </g>
   <g id="patch_20">
    <path d="M 377.285571 168.03435 
L 399.32769 168.03435 
L 399.32769 168.03435 
L 377.285571 168.03435 
z
" clip-path="url(#p09da9fae22)" style="fill: #d62728; fill-opacity: 0.4; stroke: #ffffff; stroke-width: 0.8; stroke-linejoin: miter"/>
   </g>
   <g id="patch_21">
    <path d="M 399.32769 168.03435 
L 421.369808 168.03435 
L 421.369808 168.03435 
L 399.32769 168.03435 
z
" clip-path="url(#p09da9fae22)" style="fill: #d62728; fill-opacity: 0.4; stroke: #ffffff; stroke-width: 0.8; stroke-linejoin: miter"/>
   </g>
   <g id="patch_22">
    <path d="M 421.369808 168.03435 
L 443.411927 168.03435 
L 443.411927 168.03435 
L 421.369808 168.03435 
z
" clip-path="url(#p09da9fae22)" style="fill: #d62728; fill-opacity: 0.4; stroke: #ffffff; stroke-width: 0.8; stroke-linejoin: miter"/>
   </g>
   <g id="patch_23">
    <path d="M 443.411927 168.03435 
L 465.454045 168.03435 
L 465.454045 168.03435 
L 443.411927 168.03435 
z
" clip-path="url(#p09da9fae22)" style="fill: #d62728; fill-opacity: 0.4; stroke: #ffffff; stroke-width: 0.8; stroke-linejoin: miter"/>
   </g>
   <g id="patch_24">
    <path d="M 465.454045 168.03435 
L 487.496164 168.03435 
L 487.496164 168.03435 
L 465.454045 168.03435 
z
" clip-path="url(#p09da9fae22)" style="fill: #d62728; fill-opacity: 0.4; stroke: #ffffff; stroke-width: 0.8; stroke-linejoin: miter"/>
   </g>
   <g id="patch_25">
    <path d="M 487.496164 168.03435 
L 509.538282 168.03435 
L 509.538282 168.03435 
L 487.496164 168.03435 
z
" clip-path="url(#p09da9fae22)" style="fill: #d62728; fill-opacity: 0.4; stroke: #ffffff; stroke-width: 0.8; stroke-linejoin: miter"/>
   </g>
   <g id="patch_26">
    <path d="M 509.538282 168.03435 
L 531.5804 168.03435 
L 531.5804 168.03435 
L 509.538282 168.03435 
z
" clip-path="url(#p09da9fae22)" style="fill: #d62728; fill-opacity: 0.4; stroke: #ffffff; stroke-width: 0.8; stroke-linejoin: miter"/>
   </g>
   <g id="patch_27">
    <path d="M 531.5804 168.03435 
L 553.622519 168.03435 
L 553.622519 153.930055 
L 531.5804 153.930055 
z
" clip-path="url(#p09da9fae22)" style="fill: #d62728; fill-opacity: 0.4; stroke: #ffffff; stroke-width: 0.8; stroke-linejoin: miter"/>
   </g>
   <g id="line2d_26">
    <path d="M 333.201335 157.40389 
L 338.739555 157.42727 
L 345.38542 157.703256 
L 352.031285 158.229098 
L 359.784794 159.105662 
L 368.645947 160.350451 
L 397.444695 164.598358 
L 406.305848 165.598041 
L 415.167001 166.378356 
L 424.028154 166.947166 
L 433.996951 167.366099 
L 445.073393 167.60935 
L 458.365123 167.663254 
L 472.764496 167.48846 
L 488.271514 167.067616 
L 507.101465 166.313931 
L 532.57728 165.305109 
L 544.761366 165.059012 
L 553.622519 165.035081 
L 553.622519 165.035081 
" clip-path="url(#p09da9fae22)" style="fill: none; stroke: #d62728; stroke-width: 1.2; stroke-linecap: round"/>
   </g>
   <g id="patch_28">
    <path d="M 322.180275 168.03435 
L 322.180275 21.22395 
" style="fill: none; stroke: #cccccc; stroke-linejoin: miter; stroke-linecap: square"/>
   </g>
   <g id="patch_29">
    <path d="M 564.643578 168.03435 
L 564.643578 21.22395 
" style="fill: none; stroke: #cccccc; stroke-linejoin: miter; stroke-linecap: square"/>
   </g>
   <g id="patch_30">
    <path d="M 322.180275 168.03435 
L 564.643578 168.03435 
" style="fill: none; stroke: #cccccc; stroke-linejoin: miter; stroke-linecap: square"/>
   </g>
   <g id="patch_31">
    <path d="M 322.180275 21.22395 
L 564.643578 21.22395 
" style="fill: none; stroke: #cccccc; stroke-linejoin: miter; stroke-linecap: square"/>
   </g>
   <g id="text_24">
    <text style="fill: #262626; font: 10.56px 'Arial', 'DejaVu Sans', 'Liberation Sans', 'Bitstream Vera Sans', sans-serif; text-anchor: middle" x="443.411927" y="15.22395" transform="rotate(-0 443.411927 15.22395)">PSO</text>
   </g>
  </g>
  <g id="axes_3">
   <g id="patch_32">
    <path d="M 590.004851 168.03435 
L 832.468153 168.03435 
L 832.468153 21.22395 
L 590.004851 21.22395 
z
" style="fill: #ffffff"/>
   </g>
   <g id="matplotlib.axis_5">
    <g id="xtick_15">
     <g id="line2d_27">
      <path d="M 600.996014 168.03435 
L 600.996014 21.22395 
" clip-path="url(#p139f9293d8)" style="fill: none; stroke: #cccccc; stroke-width: 0.8; stroke-linecap: round"/>
     </g>
     <g id="text_25">
      <text style="fill: #262626; font: 9.68px 'Arial', 'DejaVu Sans', 'Liberation Sans', 'Bitstream Vera Sans', sans-serif; text-anchor: middle" x="600.996014" y="183.689638" transform="rotate(-0 600.996014 183.689638)">0.0000</text>
     </g>
    </g>
    <g id="xtick_16">
     <g id="line2d_28">
      <path d="M 658.675667 168.03435 
L 658.675667 21.22395 
" clip-path="url(#p139f9293d8)" style="fill: none; stroke: #cccccc; stroke-width: 0.8; stroke-linecap: round"/>
     </g>
     <g id="text_26">
      <text style="fill: #262626; font: 9.68px 'Arial', 'DejaVu Sans', 'Liberation Sans', 'Bitstream Vera Sans', sans-serif; text-anchor: middle" x="658.675667" y="183.689638" transform="rotate(-0 658.675667 183.689638)">0.0002</text>
     </g>
    </g>
    <g id="xtick_17">
     <g id="line2d_29">
      <path d="M 716.35532 168.03435 
L 716.35532 21.22395 
" clip-path="url(#p139f9293d8)" style="fill: none; stroke: #cccccc; stroke-width: 0.8; stroke-linecap: round"/>
     </g>
     <g id="text_27">
      <text style="fill: #262626; font: 9.68px 'Arial', 'DejaVu Sans', 'Liberation Sans', 'Bitstream Vera Sans', sans-serif; text-anchor: middle" x="716.35532" y="183.689638" transform="rotate(-0 716.35532 183.689638)">0.0004</text>
     </g>
    </g>
    <g id="xtick_18">
     <g id="line2d_30">
      <path d="M 774.034973 168.03435 
L 774.034973 21.22395 
" clip-path="url(#p139f9293d8)" style="fill: none; stroke: #cccccc; stroke-width: 0.8; stroke-linecap: round"/>
     </g>
     <g id="text_28">
      <text style="fill: #262626; font: 9.68px 'Arial', 'DejaVu Sans', 'Liberation Sans', 'Bitstream Vera Sans', sans-serif; text-anchor: middle" x="774.034973" y="183.689638" transform="rotate(-0 774.034973 183.689638)">0.0006</text>
     </g>
    </g>
    <g id="xtick_19">
     <g id="line2d_31">
      <path d="M 831.714626 168.03435 
L 831.714626 21.22395 
" clip-path="url(#p139f9293d8)" style="fill: none; stroke: #cccccc; stroke-width: 0.8; stroke-linecap: round"/>
     </g>
     <g id="text_29">
      <text style="fill: #262626; font: 9.68px 'Arial', 'DejaVu Sans', 'Liberation Sans', 'Bitstream Vera Sans', sans-serif; text-anchor: middle" x="831.714626" y="183.689638" transform="rotate(-0 831.714626 183.689638)">0.0008</text>
     </g>
    </g>
    <g id="text_30">
     <text style="fill: #262626; font: 10.56px 'Arial', 'DejaVu Sans', 'Liberation Sans', 'Bitstream Vera Sans', sans-serif; text-anchor: middle" x="711.236502" y="197.726725" transform="rotate(-0 711.236502 197.726725)">Best fitness</text>
    </g>
   </g>
   <g id="matplotlib.axis_6">
    <g id="ytick_11">
     <g id="line2d_32">
      <path d="M 590.004851 168.03435 
L 832.468153 168.03435 
" clip-path="url(#p139f9293d8)" style="fill: none; stroke: #cccccc; stroke-width: 0.8; stroke-linecap: round"/>
     </g>
    </g>
    <g id="ytick_12">
     <g id="line2d_33">
      <path d="M 590.004851 135.65156 
L 832.468153 135.65156 
" clip-path="url(#p139f9293d8)" style="fill: none; stroke: #cccccc; stroke-width: 0.8; stroke-linecap: round"/>
     </g>
    </g>
    <g id="ytick_13">
     <g id="line2d_34">
      <path d="M 590.004851 103.268769 
L 832.468153 103.268769 
" clip-path="url(#p139f9293d8)" style="fill: none; stroke: #cccccc; stroke-width: 0.8; stroke-linecap: round"/>
     </g>
    </g>
    <g id="ytick_14">
     <g id="line2d_35">
      <path d="M 590.004851 70.885979 
L 832.468153 70.885979 
" clip-path="url(#p139f9293d8)" style="fill: none; stroke: #cccccc; stroke-width: 0.8; stroke-linecap: round"/>
     </g>
    </g>
    <g id="ytick_15">
     <g id="line2d_36">
      <path d="M 590.004851 38.503188 
L 832.468153 38.503188 
" clip-path="url(#p139f9293d8)" style="fill: none; stroke: #cccccc; stroke-width: 0.8; stroke-linecap: round"/>
     </g>
    </g>
   </g>
   <g id="patch_33">
    <path d="M 601.02591 168.03435 
L 623.068028 168.03435 
L 623.068028 28.214921 
L 601.02591 28.214921 
z
" clip-path="url(#p139f9293d8)" style="fill: #d62728; fill-opacity: 0.4; stroke: #ffffff; stroke-width: 0.8; stroke-linejoin: miter"/>
   </g>
   <g id="patch_34">
    <path d="M 623.068028 168.03435 
L 645.110147 168.03435 
L 645.110147 168.03435 
L 623.068028 168.03435 
z
" clip-path="url(#p139f9293d8)" style="fill: #d62728; fill-opacity: 0.4; stroke: #ffffff; stroke-width: 0.8; stroke-linejoin: miter"/>
   </g>
   <g id="patch_35">
    <path d="M 645.110147 168.03435 
L 667.152265 168.03435 
L 667.152265 168.03435 
L 645.110147 168.03435 
z
" clip-path="url(#p139f9293d8)" style="fill: #d62728; fill-opacity: 0.4; stroke: #ffffff; stroke-width: 0.8; stroke-linejoin: miter"/>
   </g>
   <g id="patch_36">
    <path d="M 667.152265 168.03435 
L 689.194384 168.03435 
L 689.194384 151.08654 
L 667.152265 151.08654 
z
" clip-path="url(#p139f9293d8)" style="fill: #d62728; fill-opacity: 0.4; stroke: #ffffff; stroke-width: 0.8; stroke-linejoin: miter"/>
   </g>
   <g id="patch_37">
    <path d="M 689.194384 168.03435 
L 711.236502 168.03435 
L 711.236502 138.375683 
L 689.194384 138.375683 
z
" clip-path="url(#p139f9293d8)" style="fill: #d62728; fill-opacity: 0.4; stroke: #ffffff; stroke-width: 0.8; stroke-linejoin: miter"/>
   </g>
   <g id="patch_38">
    <path d="M 711.236502 168.03435 
L 733.27862 168.03435 
L 733.27862 151.08654 
L 711.236502 151.08654 
z
" clip-path="url(#p139f9293d8)" style="fill: #d62728; fill-opacity: 0.4; stroke: #ffffff; stroke-width: 0.8; stroke-linejoin: miter"/>
   </g>
   <g id="patch_39">
    <path d="M 733.27862 168.03435 
L 755.320739 168.03435 
L 755.320739 168.03435 
L 733.27862 168.03435 
z
" clip-path="url(#p139f9293d8)" style="fill: #d62728; fill-opacity: 0.4; stroke: #ffffff; stroke-width: 0.8; stroke-linejoin: miter"/>
   </g>
   <g id="patch_40">
    <path d="M 755.320739 168.03435 
L 777.362857 168.03435 
L 777.362857 168.03435 
L 755.320739 168.03435 
z
" clip-path="url(#p139f9293d8)" style="fill: #d62728; fill-opacity: 0.4; stroke: #ffffff; stroke-width: 0.8; stroke-linejoin: miter"/>
   </g>
   <g id="patch_41">
    <path d="M 777.362857 168.03435 
L 799.404976 168.03435 
L 799.404976 163.797398 
L 777.362857 163.797398 
z
" clip-path="url(#p139f9293d8)" style="fill: #d62728; fill-opacity: 0.4; stroke: #ffffff; stroke-width: 0.8; stroke-linejoin: miter"/>
   </g>
   <g id="patch_42">
    <path d="M 799.404976 168.03435 
L 821.447094 168.03435 
L 821.447094 163.797398 
L 799.404976 163.797398 
z
" clip-path="url(#p139f9293d8)" style="fill: #d62728; fill-opacity: 0.4; stroke: #ffffff; stroke-width: 0.8; stroke-linejoin: miter"/>
   </g>
   <g id="line2d_37">
    <path d="M 601.02591 121.954477 
L 603.241198 121.504467 
L 605.456486 121.376129 
L 607.671775 121.570521 
L 609.887063 122.081655 
L 612.102351 122.896663 
L 614.31764 123.996214 
L 616.532928 125.355124 
L 618.748216 126.943167 
L 622.071149 129.678917 
L 625.394081 132.724785 
L 638.685811 145.383093 
L 642.008743 148.091837 
L 645.331676 150.450191 
L 647.546964 151.804225 
L 649.762252 152.973671 
L 651.97754 153.954656 
L 654.192829 154.747176 
L 656.408117 155.354743 
L 658.623405 155.783991 
L 660.838693 156.044259 
L 663.053982 156.147179 
L 666.376914 156.036523 
L 669.699847 155.654179 
L 673.022779 155.05668 
L 677.453356 154.02767 
L 691.852729 150.423146 
L 696.283306 149.678217 
L 699.606238 149.331006 
L 702.929171 149.190122 
L 706.252103 149.267767 
L 709.575036 149.566292 
L 712.897968 150.078379 
L 716.220901 150.787691 
L 720.651477 151.997391 
L 725.082054 153.43969 
L 732.835563 156.261832 
L 741.696716 159.442519 
L 747.234937 161.172382 
L 751.665513 162.345583 
L 756.09609 163.313503 
L 760.526666 164.078317 
L 766.064887 164.774085 
L 771.603108 165.228817 
L 778.248973 165.540615 
L 787.110126 165.718388 
L 821.447094 166.140408 
L 821.447094 166.140408 
" clip-path="url(#p139f9293d8)" style="fill: none; stroke: #d62728; stroke-width: 1.2; stroke-linecap: round"/>
   </g>
   <g id="patch_43">
    <path d="M 590.004851 168.03435 
L 590.004851 21.22395 
" style="fill: none; stroke: #cccccc; stroke-linejoin: miter; stroke-linecap: square"/>
   </g>
   <g id="patch_44">
    <path d="M 832.468153 168.03435 
L 832.468153 21.22395 
" style="fill: none; stroke: #cccccc; stroke-linejoin: miter; stroke-linecap: square"/>
   </g>
   <g id="patch_45">
    <path d="M 590.004851 168.03435 
L 832.468153 168.03435 
" style="fill: none; stroke: #cccccc; stroke-linejoin: miter; stroke-linecap: square"/>
   </g>
   <g id="patch_46">
    <path d="M 590.004851 21.22395 
L 832.468153 21.22395 
" style="fill: none; stroke: #cccccc; stroke-linejoin: miter; stroke-linecap: square"/>
   </g>
   <g id="text_31">
    <text style="fill: #262626; font: 10.56px 'Arial', 'DejaVu Sans', 'Liberation Sans', 'Bitstream Vera Sans', sans-serif; text-anchor: middle" x="711.236502" y="15.22395" transform="rotate(-0 711.236502 15.22395)">HYBRID_PSO_LBFGS</text>
   </g>
  </g>
 </g>
 <defs>
  <clipPath id="padf44f5788">
   <rect x="54.3557" y="21.22395" width="242.463303" height="146.8104"/>
  </clipPath>
  <clipPath id="p09da9fae22">
   <rect x="322.180275" y="21.22395" width="242.463303" height="146.8104"/>
  </clipPath>
  <clipPath id="p139f9293d8">
   <rect x="590.004851" y="21.22395" width="242.463303" height="146.8104"/>
  </clipPath>
 </defs>
</svg>
