<?xml version="1.0" encoding="utf-8" standalone="no"?>
<!DOCTYPE svg PUBLIC "-//W3C//DTD SVG 1.1//EN"
  "http://www.w3.org/Graphics/SVG/1.1/DTD/svg11.dtd">
<svg xmlns:xlink="http://www.w3.org/1999/xlink" width="423.8707pt" height="277.313275pt" viewBox="0 0 423.8707 277.313275" xmlns="http://www.w3.org/2000/svg" version="1.1">
 <metadata>
  <rdf:RDF xmlns:dc="http://purl.org/dc/elements/1.1/" xmlns:cc="http://creativecommons.org/ns#" xmlns:rdf="http://www.w3.org/1999/02/22-rdf-syntax-ns#">
   <cc:Work>
    <dc:type rdf:resource="http://purl.org/dc/dcmitype/StillImage"/>
    <dc:date>2025-11-28T08:57:43.768349</dc:date>
    <dc:format>image/svg+xml</dc:format>
    <dc:creator>
     <cc:Agent>
      <dc:title>Matplotlib v3.9.2, https://matplotlib.org/</dc:title>
     </cc:Agent>
    </dc:creator>
   </cc:Work>
  </rdf:RDF>
 </metadata>
 <defs>
  <style type="text/css">*{stroke-linejoin: round; stroke-linecap: butt}</style>
 </defs>
 <g id="figure_1">
  <g id="patch_1">
   <path d="M 0 277.313275 
L 423.8707 277.313275 
L 423.8707 0 
L 0 0 
z
" style="fill: #ffffff"/>
  </g>
  <g id="axes_1">
   <g id="patch_2">
    <path d="M 42.4603 238.22475 
L 416.6707 238.22475 
L 416.6707 21.64635 
L 42.4603 21.64635 
z
" style="fill: #ffffff"/>
   </g>
   <g id="matplotlib.axis_1">
    <g id="xtick_1">
     <g id="line2d_1">
      <path d="M 58.258427 238.22475 
L 58.258427 21.64635 
" clip-path="url(#p7dfa93f539)" style="fill: none; stroke: #cccccc; stroke-opacity: 0.3; stroke-width: 0.8; stroke-linecap: round"/>
     </g>
     <g id="text_1">
      <!-- $\mathdefault{10^{-7}}$ -->
      <g style="fill: #262626" transform="translate(46.884427 253.880038)">
       <text>
        <tspan style="font: 9.68px 'DejaVu Sans'" x="0 6.153534" y="-0.359375">10</tspan>
        <tspan style="font: 6.776px 'DejaVu Sans'" x="12.399763 18.072545" y="-4.067187499999999">−7</tspan>
       </text>
      </g>
     </g>
    </g>
    <g id="xtick_2">
     <g id="line2d_2">
      <path d="M 135.80788 238.22475 
L 135.80788 21.64635 
" clip-path="url(#p7dfa93f539)" style="fill: none; stroke: #cccccc; stroke-opacity: 0.3; stroke-width: 0.8; stroke-linecap: round"/>
     </g>
     <g id="text_2">
      <!-- $\mathdefault{10^{-6}}$ -->
      <g style="fill: #262626" transform="translate(124.43388 253.880038)">
       <text>
        <tspan style="font: 9.68px 'DejaVu Sans'" x="0 6.153534" y="-0.2718750000000014">10</tspan>
        <tspan style="font: 6.776px 'DejaVu Sans'" x="12.399763 18.072545" y="-3.9796875000000007">−6</tspan>
       </text>
      </g>
     </g>
    </g>
    <g id="xtick_3">
     <g id="line2d_3">
      <path d="M 213.357334 238.22475 
L 213.357334 21.64635 
" clip-path="url(#p7dfa93f539)" style="fill: none; stroke: #cccccc; stroke-opacity: 0.3; stroke-width: 0.8; stroke-linecap: round"/>
     </g>
     <g id="text_3">
      <!-- $\mathdefault{10^{-5}}$ -->
      <g style="fill: #262626" transform="translate(201.983334 253.880038)">
       <text>
        <tspan style="font: 9.68px 'DejaVu Sans'" x="0 6.153534" y="-0.359375">10</tspan>
        <tspan style="font: 6.776px 'DejaVu Sans'" x="12.399763 18.072545" y="-4.067187499999999">−5</tspan>
       </text>
      </g>
     </g>
    </g>
    <g id="xtick_4">
     <g id="line2d_4">
      <path d="M 290.906787 238.22475 
L 290.906787 21.64635 
" clip-path="url(#p7dfa93f539)" style="fill: none; stroke: #cccccc; stroke-opacity: 0.3; stroke-width: 0.8; stroke-linecap: round"/>
     </g>
     <g id="text_4">
      <!-- $\mathdefault{10^{-4}}$ -->
      <g style="fill: #262626" transform="translate(279.532787 253.880038)">
       <text>
        <tspan style="font: 9.68px 'DejaVu Sans'" x="0 6.153534" y="-0.359375">10</tspan>
        <tspan style="font: 6.776px 'DejaVu Sans'" x="12.399763 18.072545" y="-4.067187499999999">−4</tspan>
       </text>
      </g>
     </g>
    </g>
    <g id="xtick_5">
     <g id="line2d_5">
      <path d="M 368.45624 238.22475 
L 368.45624 21.64635 
" clip-path="url(#p7dfa93f539)" style="fill: none; stroke: #cccccc; stroke-opacity: 0.3; stroke-width: 0.8; stroke-linecap: round"/>
     </g>
     <g id="text_5">
      <!-- $\mathdefault{10^{-3}}$ -->
      <g style="fill: #262626" transform="translate(357.08224 253.880038)">
       <text>
        <tspan style="font: 9.68px 'DejaVu Sans'" x="0 6.153534" y="-0.2718750000000014">10</tspan>
        <tspan style="font: 6.776px 'DejaVu Sans'" x="12.399763 18.072545" y="-3.9796875000000007">−3</tspan>
       </text>
      </g>
     </g>
    </g>
    <g id="xtick_6"/>
    <g id="xtick_7"/>
    <g id="xtick_8"/>
    <g id="xtick_9"/>
    <g id="xtick_10"/>
    <g id="xtick_11"/>
    <g id="xtick_12"/>
    <g id="xtick_13"/>
    <g id="xtick_14"/>
    <g id="xtick_15"/>
    <g id="xtick_16"/>
    <g id="xtick_17"/>
    <g id="xtick_18"/>
    <g id="xtick_19"/>
    <g id="xtick_20"/>
    <g id="xtick_21"/>
    <g id="xtick_22"/>
    <g id="xtick_23"/>
    <g id="xtick_24"/>
    <g id="xtick_25"/>
    <g id="xtick_26"/>
    <g id="xtick_27"/>
    <g id="xtick_28"/>
    <g id="xtick_29"/>
    <g id="xtick_30"/>
    <g id="xtick_31"/>
    <g id="xtick_32"/>
    <g id="xtick_33"/>
    <g id="xtick_34"/>
    <g id="xtick_35"/>
    <g id="xtick_36"/>
    <g id="xtick_37"/>
    <g id="xtick_38"/>
    <g id="xtick_39"/>
    <g id="xtick_40"/>
    <g id="xtick_41"/>
    <g id="xtick_42"/>
    <g id="xtick_43"/>
    <g id="text_6">
     <text style="fill: #262626; font: 10.56px 'Arial', 'DejaVu Sans', 'Liberation Sans', 'Bitstream Vera Sans', sans-serif; text-anchor: middle" x="229.5655" y="267.917125" transform="rotate(-0 229.5655 267.917125)">Best fitness (escala log)</text>
    </g>
   </g>
   <g id="matplotlib.axis_2">
    <g id="ytick_1">
     <g id="line2d_6">
      <path d="M 42.4603 234.446811 
L 416.6707 234.446811 
" clip-path="url(#p7dfa93f539)" style="fill: none; stroke: #cccccc; stroke-opacity: 0.3; stroke-width: 0.8; stroke-linecap: round"/>
     </g>
     <g id="text_7">
      <text style="fill: #262626; font: 9.68px 'Arial', 'DejaVu Sans', 'Liberation Sans', 'Bitstream Vera Sans', sans-serif; text-anchor: end" x="34.1603" y="238.124455" transform="rotate(-0 34.1603 238.124455)">0</text>
     </g>
    </g>
    <g id="ytick_2">
     <g id="line2d_7">
      <path d="M 42.4603 191.168042 
L 416.6707 191.168042 
" clip-path="url(#p7dfa93f539)" style="fill: none; stroke: #cccccc; stroke-opacity: 0.3; stroke-width: 0.8; stroke-linecap: round"/>
     </g>
     <g id="text_8">
      <text style="fill: #262626; font: 9.68px 'Arial', 'DejaVu Sans', 'Liberation Sans', 'Bitstream Vera Sans', sans-serif; text-anchor: end" x="34.1603" y="194.845686" transform="rotate(-0 34.1603 194.845686)">10</text>
     </g>
    </g>
    <g id="ytick_3">
     <g id="line2d_8">
      <path d="M 42.4603 147.889274 
L 416.6707 147.889274 
" clip-path="url(#p7dfa93f539)" style="fill: none; stroke: #cccccc; stroke-opacity: 0.3; stroke-width: 0.8; stroke-linecap: round"/>
     </g>
     <g id="text_9">
      <text style="fill: #262626; font: 9.68px 'Arial', 'DejaVu Sans', 'Liberation Sans', 'Bitstream Vera Sans', sans-serif; text-anchor: end" x="34.1603" y="151.566918" transform="rotate(-0 34.1603 151.566918)">20</text>
     </g>
    </g>
    <g id="ytick_4">
     <g id="line2d_9">
      <path d="M 42.4603 104.610505 
L 416.6707 104.610505 
" clip-path="url(#p7dfa93f539)" style="fill: none; stroke: #cccccc; stroke-opacity: 0.3; stroke-width: 0.8; stroke-linecap: round"/>
     </g>
     <g id="text_10">
      <text style="fill: #262626; font: 9.68px 'Arial', 'DejaVu Sans', 'Liberation Sans', 'Bitstream Vera Sans', sans-serif; text-anchor: end" x="34.1603" y="108.288149" transform="rotate(-0 34.1603 108.288149)">30</text>
     </g>
    </g>
    <g id="ytick_5">
     <g id="line2d_10">
      <path d="M 42.4603 61.331737 
L 416.6707 61.331737 
" clip-path="url(#p7dfa93f539)" style="fill: none; stroke: #cccccc; stroke-opacity: 0.3; stroke-width: 0.8; stroke-linecap: round"/>
     </g>
     <g id="text_11">
      <text style="fill: #262626; font: 9.68px 'Arial', 'DejaVu Sans', 'Liberation Sans', 'Bitstream Vera Sans', sans-serif; text-anchor: end" x="34.1603" y="65.009381" transform="rotate(-0 34.1603 65.009381)">40</text>
     </g>
    </g>
    <g id="text_12">
     <text style="fill: #262626; font: 10.56px 'Arial', 'DejaVu Sans', 'Liberation Sans', 'Bitstream Vera Sans', sans-serif; text-anchor: middle" x="15.64635" y="129.93555" transform="rotate(-90 15.64635 129.93555)">Error medio de parámetros (%)</text>
    </g>
   </g>
   <g id="PathCollection_1">
    <path d="M 315.562449 108.219593 
C 316.589576 108.219593 317.574773 107.811511 318.301062 107.085223 
C 319.02735 106.358934 319.435432 105.373737 319.435432 104.34661 
C 319.435432 103.319483 319.02735 102.334286 318.301062 101.607997 
C 317.574773 100.881709 316.589576 100.473627 315.562449 100.473627 
C 314.535322 100.473627 313.550125 100.881709 312.823836 101.607997 
C 312.097548 102.334286 311.689466 103.319483 311.689466 104.34661 
C 311.689466 105.373737 312.097548 106.358934 312.823836 107.085223 
C 313.550125 107.811511 314.535322 108.219593 315.562449 108.219593 
z
" clip-path="url(#p7dfa93f539)" style="fill: #4c72b0; fill-opacity: 0.8; stroke: #ffffff; stroke-opacity: 0.8; stroke-width: 0.619677"/>
    <path d="M 299.407976 168.856868 
C 300.435103 168.856868 301.4203 168.448786 302.146588 167.722497 
C 302.872877 166.996208 303.280959 166.011011 303.280959 164.983884 
C 303.280959 163.956757 302.872877 162.97156 302.146588 162.245271 
C 301.4203 161.518983 300.435103 161.110901 299.407976 161.110901 
C 298.380848 161.110901 297.395651 161.518983 296.669363 162.245271 
C 295.943074 162.97156 295.534992 163.956757 295.534992 164.983884 
C 295.534992 166.011011 295.943074 166.996208 296.669363 167.722497 
C 297.395651 168.448786 298.380848 168.856868 299.407976 168.856868 
z
" clip-path="url(#p7dfa93f539)" style="fill: #4c72b0; fill-opacity: 0.8; stroke: #ffffff; stroke-opacity: 0.8; stroke-width: 0.619677"/>
    <path d="M 303.864797 96.973377 
C 304.891924 96.973377 305.877121 96.565295 306.603409 95.839006 
C 307.329698 95.112717 307.73778 94.12752 307.73778 93.100393 
C 307.73778 92.073266 307.329698 91.088069 306.603409 90.361781 
C 305.877121 89.635492 304.891924 89.22741 303.864797 89.22741 
C 302.837669 89.22741 301.852472 89.635492 301.126184 90.361781 
C 300.399895 91.088069 299.991813 92.073266 299.991813 93.100393 
C 299.991813 94.12752 300.399895 95.112717 301.126184 95.839006 
C 301.852472 96.565295 302.837669 96.973377 303.864797 96.973377 
z
" clip-path="url(#p7dfa93f539)" style="fill: #4c72b0; fill-opacity: 0.8; stroke: #ffffff; stroke-opacity: 0.8; stroke-width: 0.619677"/>
    <path d="M 353.929359 112.096864 
C 354.956486 112.096864 355.941683 111.688782 356.667972 110.962493 
C 357.39426 110.236205 357.802342 109.251008 357.802342 108.223881 
C 357.802342 107.196753 357.39426 106.211556 356.667972 105.485268 
C 355.941683 104.758979 354.956486 104.350897 353.929359 104.350897 
C 352.902232 104.350897 351.917035 104.758979 351.190746 105.485268 
C 350.464458 106.211556 350.056376 107.196753 350.056376 108.223881 
C 350.056376 109.251008 350.464458 110.236205 351.190746 110.962493 
C 351.917035 111.688782 352.902232 112.096864 353.929359 112.096864 
z
" clip-path="url(#p7dfa93f539)" style="fill: #4c72b0; fill-opacity: 0.8; stroke: #ffffff; stroke-opacity: 0.8; stroke-width: 0.619677"/>
    <path d="M 331.459794 86.708914 
C 332.486921 86.708914 333.472118 86.300833 334.198406 85.574544 
C 334.924695 84.848255 335.332777 83.863058 335.332777 82.835931 
C 335.332777 81.808804 334.924695 80.823607 334.198406 80.097318 
C 333.472118 79.37103 332.486921 78.962948 331.459794 78.962948 
C 330.432666 78.962948 329.447469 79.37103 328.721181 80.097318 
C 327.994892 80.823607 327.58681 81.808804 327.58681 82.835931 
C 327.58681 83.863058 327.994892 84.848255 328.721181 85.574544 
C 329.447469 86.300833 330.432666 86.708914 331.459794 86.708914 
z
" clip-path="url(#p7dfa93f539)" style="fill: #4c72b0; fill-opacity: 0.8; stroke: #ffffff; stroke-opacity: 0.8; stroke-width: 0.619677"/>
    <path d="M 298.996177 155.543583 
C 300.023304 155.543583 301.008501 155.135501 301.73479 154.409212 
C 302.461078 153.682924 302.86916 152.697727 302.86916 151.6706 
C 302.86916 150.643472 302.461078 149.658275 301.73479 148.931987 
C 301.008501 148.205698 300.023304 147.797616 298.996177 147.797616 
C 297.96905 147.797616 296.983853 148.205698 296.257564 148.931987 
C 295.531276 149.658275 295.123194 150.643472 295.123194 151.6706 
C 295.123194 152.697727 295.531276 153.682924 296.257564 154.409212 
C 296.983853 155.135501 297.96905 155.543583 298.996177 155.543583 
z
" clip-path="url(#p7dfa93f539)" style="fill: #4c72b0; fill-opacity: 0.8; stroke: #ffffff; stroke-opacity: 0.8; stroke-width: 0.619677"/>
    <path d="M 343.681611 147.132321 
C 344.708738 147.132321 345.693935 146.724239 346.420224 145.99795 
C 347.146513 145.271662 347.554595 144.286465 347.554595 143.259337 
C 347.554595 142.23221 347.146513 141.247013 346.420224 140.520725 
C 345.693935 139.794436 344.708738 139.386354 343.681611 139.386354 
C 342.654484 139.386354 341.669287 139.794436 340.942998 140.520725 
C 340.21671 141.247013 339.808628 142.23221 339.808628 143.259337 
C 339.808628 144.286465 340.21671 145.271662 340.942998 145.99795 
C 341.669287 146.724239 342.654484 147.132321 343.681611 147.132321 
z
" clip-path="url(#p7dfa93f539)" style="fill: #4c72b0; fill-opacity: 0.8; stroke: #ffffff; stroke-opacity: 0.8; stroke-width: 0.619677"/>
    <path d="M 357.107276 128.469972 
C 358.134403 128.469972 359.1196 128.06189 359.845889 127.335602 
C 360.572178 126.609313 360.980259 125.624116 360.980259 124.596989 
C 360.980259 123.569862 360.572178 122.584665 359.845889 121.858376 
C 359.1196 121.132087 358.134403 120.724005 357.107276 120.724005 
C 356.080149 120.724005 355.094952 121.132087 354.368663 121.858376 
C 353.642375 122.584665 353.234293 123.569862 353.234293 124.596989 
C 353.234293 125.624116 353.642375 126.609313 354.368663 127.335602 
C 355.094952 128.06189 356.080149 128.469972 357.107276 128.469972 
z
" clip-path="url(#p7dfa93f539)" style="fill: #4c72b0; fill-opacity: 0.8; stroke: #ffffff; stroke-opacity: 0.8; stroke-width: 0.619677"/>
    <path d="M 266.599554 151.767563 
C 267.626681 151.767563 268.611878 151.359481 269.338167 150.633192 
C 270.064456 149.906903 270.472538 148.921706 270.472538 147.894579 
C 270.472538 146.867452 270.064456 145.882255 269.338167 145.155966 
C 268.611878 144.429678 267.626681 144.021596 266.599554 144.021596 
C 265.572427 144.021596 264.58723 144.429678 263.860941 145.155966 
C 263.134653 145.882255 262.726571 146.867452 262.726571 147.894579 
C 262.726571 148.921706 263.134653 149.906903 263.860941 150.633192 
C 264.58723 151.359481 265.572427 151.767563 266.599554 151.767563 
z
" clip-path="url(#p7dfa93f539)" style="fill: #4c72b0; fill-opacity: 0.8; stroke: #ffffff; stroke-opacity: 0.8; stroke-width: 0.619677"/>
    <path d="M 352.109222 166.0878 
C 353.136349 166.0878 354.121546 165.679718 354.847835 164.95343 
C 355.574124 164.227141 355.982205 163.241944 355.982205 162.214817 
C 355.982205 161.18769 355.574124 160.202493 354.847835 159.476204 
C 354.121546 158.749916 353.136349 158.341834 352.109222 158.341834 
C 351.082095 158.341834 350.096898 158.749916 349.370609 159.476204 
C 348.644321 160.202493 348.236239 161.18769 348.236239 162.214817 
C 348.236239 163.241944 348.644321 164.227141 349.370609 164.95343 
C 350.096898 165.679718 351.082095 166.0878 352.109222 166.0878 
z
" clip-path="url(#p7dfa93f539)" style="fill: #4c72b0; fill-opacity: 0.8; stroke: #ffffff; stroke-opacity: 0.8; stroke-width: 0.619677"/>
    <path d="M 293.605134 135.941774 
C 294.632262 135.941774 295.617459 135.533692 296.343747 134.807404 
C 297.070036 134.081115 297.478118 133.095918 297.478118 132.068791 
C 297.478118 131.041664 297.070036 130.056467 296.343747 129.330178 
C 295.617459 128.60389 294.632262 128.195808 293.605134 128.195808 
C 292.578007 128.195808 291.59281 128.60389 290.866522 129.330178 
C 290.140233 130.056467 289.732151 131.041664 289.732151 132.068791 
C 289.732151 133.095918 290.140233 134.081115 290.866522 134.807404 
C 291.59281 135.533692 292.578007 135.941774 293.605134 135.941774 
z
" clip-path="url(#p7dfa93f539)" style="fill: #4c72b0; fill-opacity: 0.8; stroke: #ffffff; stroke-opacity: 0.8; stroke-width: 0.619677"/>
    <path d="M 339.900407 41.000275 
C 340.927534 41.000275 341.912731 40.592193 342.63902 39.865904 
C 343.365308 39.139616 343.77339 38.154419 343.77339 37.127292 
C 343.77339 36.100164 343.365308 35.114967 342.63902 34.388679 
C 341.912731 33.66239 340.927534 33.254308 339.900407 33.254308 
C 338.87328 33.254308 337.888083 33.66239 337.161794 34.388679 
C 336.435505 35.114967 336.027423 36.100164 336.027423 37.127292 
C 336.027423 38.154419 336.435505 39.139616 337.161794 39.865904 
C 337.888083 40.592193 338.87328 41.000275 339.900407 41.000275 
z
" clip-path="url(#p7dfa93f539)" style="fill: #4c72b0; fill-opacity: 0.8; stroke: #ffffff; stroke-opacity: 0.8; stroke-width: 0.619677"/>
    <path d="M 326.974452 224.277147 
C 328.001579 224.277147 328.986776 223.869065 329.713065 223.142777 
C 330.439354 222.416488 330.847436 221.431291 330.847436 220.404164 
C 330.847436 219.377037 330.439354 218.39184 329.713065 217.665551 
C 328.986776 216.939263 328.001579 216.531181 326.974452 216.531181 
C 325.947325 216.531181 324.962128 216.939263 324.235839 217.665551 
C 323.509551 218.39184 323.101469 219.377037 323.101469 220.404164 
C 323.101469 221.431291 323.509551 222.416488 324.235839 223.142777 
C 324.962128 223.869065 325.947325 224.277147 326.974452 224.277147 
z
" clip-path="url(#p7dfa93f539)" style="fill: #4c72b0; fill-opacity: 0.8; stroke: #ffffff; stroke-opacity: 0.8; stroke-width: 0.619677"/>
    <path d="M 263.324575 148.93219 
C 264.351703 148.93219 265.3369 148.524108 266.063188 147.797819 
C 266.789477 147.07153 267.197559 146.086333 267.197559 145.059206 
C 267.197559 144.032079 266.789477 143.046882 266.063188 142.320593 
C 265.3369 141.594305 264.351703 141.186223 263.324575 141.186223 
C 262.297448 141.186223 261.312251 141.594305 260.585963 142.320593 
C 259.859674 143.046882 259.451592 144.032079 259.451592 145.059206 
C 259.451592 146.086333 259.859674 147.07153 260.585963 147.797819 
C 261.312251 148.524108 262.297448 148.93219 263.324575 148.93219 
z
" clip-path="url(#p7dfa93f539)" style="fill: #4c72b0; fill-opacity: 0.8; stroke: #ffffff; stroke-opacity: 0.8; stroke-width: 0.619677"/>
    <path d="M 293.869747 178.98719 
C 294.896875 178.98719 295.882072 178.579108 296.60836 177.85282 
C 297.334649 177.126531 297.742731 176.141334 297.742731 175.114207 
C 297.742731 174.08708 297.334649 173.101883 296.60836 172.375594 
C 295.882072 171.649306 294.896875 171.241224 293.869747 171.241224 
C 292.84262 171.241224 291.857423 171.649306 291.131135 172.375594 
C 290.404846 173.101883 289.996764 174.08708 289.996764 175.114207 
C 289.996764 176.141334 290.404846 177.126531 291.131135 177.85282 
C 291.857423 178.579108 292.84262 178.98719 293.869747 178.98719 
z
" clip-path="url(#p7dfa93f539)" style="fill: #4c72b0; fill-opacity: 0.8; stroke: #ffffff; stroke-opacity: 0.8; stroke-width: 0.619677"/>
    <path d="M 278.85272 181.214399 
C 279.879847 181.214399 280.865044 180.806317 281.591333 180.080028 
C 282.317622 179.35374 282.725704 178.368543 282.725704 177.341416 
C 282.725704 176.314288 282.317622 175.329091 281.591333 174.602803 
C 280.865044 173.876514 279.879847 173.468432 278.85272 173.468432 
C 277.825593 173.468432 276.840396 173.876514 276.114107 174.602803 
C 275.387819 175.329091 274.979737 176.314288 274.979737 177.341416 
C 274.979737 178.368543 275.387819 179.35374 276.114107 180.080028 
C 276.840396 180.806317 277.825593 181.214399 278.85272 181.214399 
z
" clip-path="url(#p7dfa93f539)" style="fill: #4c72b0; fill-opacity: 0.8; stroke: #ffffff; stroke-opacity: 0.8; stroke-width: 0.619677"/>
    <path d="M 310.756129 103.887852 
C 311.783256 103.887852 312.768453 103.47977 313.494742 102.753481 
C 314.221031 102.027193 314.629112 101.041996 314.629112 100.014868 
C 314.629112 98.987741 314.221031 98.002544 313.494742 97.276256 
C 312.768453 96.549967 311.783256 96.141885 310.756129 96.141885 
C 309.729002 96.141885 308.743805 96.549967 308.017516 97.276256 
C 307.291228 98.002544 306.883146 98.987741 306.883146 100.014868 
C 306.883146 101.041996 307.291228 102.027193 308.017516 102.753481 
C 308.743805 103.47977 309.729002 103.887852 310.756129 103.887852 
z
" clip-path="url(#p7dfa93f539)" style="fill: #4c72b0; fill-opacity: 0.8; stroke: #ffffff; stroke-opacity: 0.8; stroke-width: 0.619677"/>
    <path d="M 307.558054 199.3078 
C 308.585181 199.3078 309.570378 198.899718 310.296667 198.173429 
C 311.022955 197.447141 311.431037 196.461944 311.431037 195.434817 
C 311.431037 194.407689 311.022955 193.422492 310.296667 192.696204 
C 309.570378 191.969915 308.585181 191.561833 307.558054 191.561833 
C 306.530927 191.561833 305.54573 191.969915 304.819441 192.696204 
C 304.093152 193.422492 303.685071 194.407689 303.685071 195.434817 
C 303.685071 196.461944 304.093152 197.447141 304.819441 198.173429 
C 305.54573 198.899718 306.530927 199.3078 307.558054 199.3078 
z
" clip-path="url(#p7dfa93f539)" style="fill: #4c72b0; fill-opacity: 0.8; stroke: #ffffff; stroke-opacity: 0.8; stroke-width: 0.619677"/>
    <path d="M 303.557072 66.577928 
C 304.5842 66.577928 305.569397 66.169846 306.295685 65.443557 
C 307.021974 64.717269 307.430056 63.732072 307.430056 62.704944 
C 307.430056 61.677817 307.021974 60.69262 306.295685 59.966332 
C 305.569397 59.240043 304.5842 58.831961 303.557072 58.831961 
C 302.529945 58.831961 301.544748 59.240043 300.81846 59.966332 
C 300.092171 60.69262 299.684089 61.677817 299.684089 62.704944 
C 299.684089 63.732072 300.092171 64.717269 300.81846 65.443557 
C 301.544748 66.169846 302.529945 66.577928 303.557072 66.577928 
z
" clip-path="url(#p7dfa93f539)" style="fill: #4c72b0; fill-opacity: 0.8; stroke: #ffffff; stroke-opacity: 0.8; stroke-width: 0.619677"/>
    <path d="M 281.895377 109.074932 
C 282.922504 109.074932 283.907701 108.66685 284.63399 107.940562 
C 285.360278 107.214273 285.76836 106.229076 285.76836 105.201949 
C 285.76836 104.174822 285.360278 103.189625 284.63399 102.463336 
C 283.907701 101.737048 282.922504 101.328966 281.895377 101.328966 
C 280.86825 101.328966 279.883053 101.737048 279.156764 102.463336 
C 278.430476 103.189625 278.022394 104.174822 278.022394 105.201949 
C 278.022394 106.229076 278.430476 107.214273 279.156764 107.940562 
C 279.883053 108.66685 280.86825 109.074932 281.895377 109.074932 
z
" clip-path="url(#p7dfa93f539)" style="fill: #4c72b0; fill-opacity: 0.8; stroke: #ffffff; stroke-opacity: 0.8; stroke-width: 0.619677"/>
    <path d="M 284.768403 106.875946 
C 285.79553 106.875946 286.780727 106.467864 287.507016 105.741575 
C 288.233305 105.015286 288.641387 104.030089 288.641387 103.002962 
C 288.641387 101.975835 288.233305 100.990638 287.507016 100.264349 
C 286.780727 99.538061 285.79553 99.129979 284.768403 99.129979 
C 283.741276 99.129979 282.756079 99.538061 282.02979 100.264349 
C 281.303502 100.990638 280.89542 101.975835 280.89542 103.002962 
C 280.89542 104.030089 281.303502 105.015286 282.02979 105.741575 
C 282.756079 106.467864 283.741276 106.875946 284.768403 106.875946 
z
" clip-path="url(#p7dfa93f539)" style="fill: #4c72b0; fill-opacity: 0.8; stroke: #ffffff; stroke-opacity: 0.8; stroke-width: 0.619677"/>
    <path d="M 296.055774 166.270056 
C 297.082901 166.270056 298.068098 165.861974 298.794386 165.135685 
C 299.520675 164.409397 299.928757 163.4242 299.928757 162.397072 
C 299.928757 161.369945 299.520675 160.384748 298.794386 159.65846 
C 298.068098 158.932171 297.082901 158.524089 296.055774 158.524089 
C 295.028646 158.524089 294.043449 158.932171 293.317161 159.65846 
C 292.590872 160.384748 292.18279 161.369945 292.18279 162.397072 
C 292.18279 163.4242 292.590872 164.409397 293.317161 165.135685 
C 294.043449 165.861974 295.028646 166.270056 296.055774 166.270056 
z
" clip-path="url(#p7dfa93f539)" style="fill: #4c72b0; fill-opacity: 0.8; stroke: #ffffff; stroke-opacity: 0.8; stroke-width: 0.619677"/>
    <path d="M 347.433395 158.17463 
C 348.460522 158.17463 349.445719 157.766549 350.172008 157.04026 
C 350.898297 156.313971 351.306379 155.328774 351.306379 154.301647 
C 351.306379 153.27452 350.898297 152.289323 350.172008 151.563034 
C 349.445719 150.836746 348.460522 150.428664 347.433395 150.428664 
C 346.406268 150.428664 345.421071 150.836746 344.694782 151.563034 
C 343.968494 152.289323 343.560412 153.27452 343.560412 154.301647 
C 343.560412 155.328774 343.968494 156.313971 344.694782 157.04026 
C 345.421071 157.766549 346.406268 158.17463 347.433395 158.17463 
z
" clip-path="url(#p7dfa93f539)" style="fill: #4c72b0; fill-opacity: 0.8; stroke: #ffffff; stroke-opacity: 0.8; stroke-width: 0.619677"/>
    <path d="M 331.022023 155.695568 
C 332.04915 155.695568 333.034347 155.287486 333.760636 154.561197 
C 334.486925 153.834909 334.895007 152.849712 334.895007 151.822585 
C 334.895007 150.795458 334.486925 149.810261 333.760636 149.083972 
C 333.034347 148.357683 332.04915 147.949601 331.022023 147.949601 
C 329.994896 147.949601 329.009699 148.357683 328.28341 149.083972 
C 327.557122 149.810261 327.14904 150.795458 327.14904 151.822585 
C 327.14904 152.849712 327.557122 153.834909 328.28341 154.561197 
C 329.009699 155.287486 329.994896 155.695568 331.022023 155.695568 
z
" clip-path="url(#p7dfa93f539)" style="fill: #4c72b0; fill-opacity: 0.8; stroke: #ffffff; stroke-opacity: 0.8; stroke-width: 0.619677"/>
    <path d="M 326.967542 127.356686 
C 327.994669 127.356686 328.979866 126.948604 329.706155 126.222315 
C 330.432443 125.496027 330.840525 124.51083 330.840525 123.483702 
C 330.840525 122.456575 330.432443 121.471378 329.706155 120.74509 
C 328.979866 120.018801 327.994669 119.610719 326.967542 119.610719 
C 325.940415 119.610719 324.955218 120.018801 324.228929 120.74509 
C 323.502641 121.471378 323.094559 122.456575 323.094559 123.483702 
C 323.094559 124.51083 323.502641 125.496027 324.228929 126.222315 
C 324.955218 126.948604 325.940415 127.356686 326.967542 127.356686 
z
" clip-path="url(#p7dfa93f539)" style="fill: #4c72b0; fill-opacity: 0.8; stroke: #ffffff; stroke-opacity: 0.8; stroke-width: 0.619677"/>
    <path d="M 364.600217 147.205263 
C 365.627344 147.205263 366.612541 146.797181 367.33883 146.070893 
C 368.065118 145.344604 368.4732 144.359407 368.4732 143.33228 
C 368.4732 142.305153 368.065118 141.319956 367.33883 140.593667 
C 366.612541 139.867378 365.627344 139.459296 364.600217 139.459296 
C 363.57309 139.459296 362.587893 139.867378 361.861604 140.593667 
C 361.135315 141.319956 360.727233 142.305153 360.727233 143.33228 
C 360.727233 144.359407 361.135315 145.344604 361.861604 146.070893 
C 362.587893 146.797181 363.57309 147.205263 364.600217 147.205263 
z
" clip-path="url(#p7dfa93f539)" style="fill: #4c72b0; fill-opacity: 0.8; stroke: #ffffff; stroke-opacity: 0.8; stroke-width: 0.619677"/>
    <path d="M 269.941085 123.307569 
C 270.968212 123.307569 271.953409 122.899487 272.679698 122.173199 
C 273.405986 121.44691 273.814068 120.461713 273.814068 119.434586 
C 273.814068 118.407459 273.405986 117.422262 272.679698 116.695973 
C 271.953409 115.969684 270.968212 115.561602 269.941085 115.561602 
C 268.913958 115.561602 267.928761 115.969684 267.202472 116.695973 
C 266.476184 117.422262 266.068102 118.407459 266.068102 119.434586 
C 266.068102 120.461713 266.476184 121.44691 267.202472 122.173199 
C 267.928761 122.899487 268.913958 123.307569 269.941085 123.307569 
z
" clip-path="url(#p7dfa93f539)" style="fill: #4c72b0; fill-opacity: 0.8; stroke: #ffffff; stroke-opacity: 0.8; stroke-width: 0.619677"/>
    <path d="M 283.82725 164.114355 
C 284.854377 164.114355 285.839574 163.706273 286.565862 162.979984 
C 287.292151 162.253696 287.700233 161.268499 287.700233 160.241372 
C 287.700233 159.214244 287.292151 158.229047 286.565862 157.502759 
C 285.839574 156.77647 284.854377 156.368388 283.82725 156.368388 
C 282.800122 156.368388 281.814925 156.77647 281.088637 157.502759 
C 280.362348 158.229047 279.954266 159.214244 279.954266 160.241372 
C 279.954266 161.268499 280.362348 162.253696 281.088637 162.979984 
C 281.814925 163.706273 282.800122 164.114355 283.82725 164.114355 
z
" clip-path="url(#p7dfa93f539)" style="fill: #4c72b0; fill-opacity: 0.8; stroke: #ffffff; stroke-opacity: 0.8; stroke-width: 0.619677"/>
    <path d="M 330.372392 186.76768 
C 331.399519 186.76768 332.384716 186.359599 333.111005 185.63331 
C 333.837293 184.907021 334.245375 183.921824 334.245375 182.894697 
C 334.245375 181.86757 333.837293 180.882373 333.111005 180.156084 
C 332.384716 179.429796 331.399519 179.021714 330.372392 179.021714 
C 329.345265 179.021714 328.360068 179.429796 327.633779 180.156084 
C 326.907491 180.882373 326.499409 181.86757 326.499409 182.894697 
C 326.499409 183.921824 326.907491 184.907021 327.633779 185.63331 
C 328.360068 186.359599 329.345265 186.76768 330.372392 186.76768 
z
" clip-path="url(#p7dfa93f539)" style="fill: #4c72b0; fill-opacity: 0.8; stroke: #ffffff; stroke-opacity: 0.8; stroke-width: 0.619677"/>
    <path d="M 300.202182 205.14974 
C 301.22931 205.14974 302.214507 204.741658 302.940795 204.01537 
C 303.667084 203.289081 304.075166 202.303884 304.075166 201.276757 
C 304.075166 200.24963 303.667084 199.264433 302.940795 198.538144 
C 302.214507 197.811856 301.22931 197.403774 300.202182 197.403774 
C 299.175055 197.403774 298.189858 197.811856 297.46357 198.538144 
C 296.737281 199.264433 296.329199 200.24963 296.329199 201.276757 
C 296.329199 202.303884 296.737281 203.289081 297.46357 204.01537 
C 298.189858 204.741658 299.175055 205.14974 300.202182 205.14974 
z
" clip-path="url(#p7dfa93f539)" style="fill: #4c72b0; fill-opacity: 0.8; stroke: #ffffff; stroke-opacity: 0.8; stroke-width: 0.619677"/>
    <path d="M 273.904297 114.424127 
C 274.931424 114.424127 275.916621 114.016045 276.64291 113.289757 
C 277.369198 112.563468 277.77728 111.578271 277.77728 110.551144 
C 277.77728 109.524017 277.369198 108.53882 276.64291 107.812531 
C 275.916621 107.086243 274.931424 106.678161 273.904297 106.678161 
C 272.87717 106.678161 271.891973 107.086243 271.165684 107.812531 
C 270.439396 108.53882 270.031314 109.524017 270.031314 110.551144 
C 270.031314 111.578271 270.439396 112.563468 271.165684 113.289757 
C 271.891973 114.016045 272.87717 114.424127 273.904297 114.424127 
z
" clip-path="url(#p7dfa93f539)" style="fill: #4c72b0; fill-opacity: 0.8; stroke: #ffffff; stroke-opacity: 0.8; stroke-width: 0.619677"/>
    <path d="M 306.503459 181.2926 
C 307.530587 181.2926 308.515784 180.884518 309.242072 180.15823 
C 309.968361 179.431941 310.376443 178.446744 310.376443 177.419617 
C 310.376443 176.39249 309.968361 175.407293 309.242072 174.681004 
C 308.515784 173.954716 307.530587 173.546634 306.503459 173.546634 
C 305.476332 173.546634 304.491135 173.954716 303.764847 174.681004 
C 303.038558 175.407293 302.630476 176.39249 302.630476 177.419617 
C 302.630476 178.446744 303.038558 179.431941 303.764847 180.15823 
C 304.491135 180.884518 305.476332 181.2926 306.503459 181.2926 
z
" clip-path="url(#p7dfa93f539)" style="fill: #4c72b0; fill-opacity: 0.8; stroke: #ffffff; stroke-opacity: 0.8; stroke-width: 0.619677"/>
    <path d="M 303.150319 154.832871 
C 304.177446 154.832871 305.162643 154.424789 305.888932 153.698501 
C 306.61522 152.972212 307.023302 151.987015 307.023302 150.959888 
C 307.023302 149.932761 306.61522 148.947564 305.888932 148.221275 
C 305.162643 147.494986 304.177446 147.086904 303.150319 147.086904 
C 302.123192 147.086904 301.137995 147.494986 300.411706 148.221275 
C 299.685417 148.947564 299.277335 149.932761 299.277335 150.959888 
C 299.277335 151.987015 299.685417 152.972212 300.411706 153.698501 
C 301.137995 154.424789 302.123192 154.832871 303.150319 154.832871 
z
" clip-path="url(#p7dfa93f539)" style="fill: #4c72b0; fill-opacity: 0.8; stroke: #ffffff; stroke-opacity: 0.8; stroke-width: 0.619677"/>
    <path d="M 277.313124 125.539494 
C 278.340251 125.539494 279.325448 125.131412 280.051737 124.405124 
C 280.778026 123.678835 281.186108 122.693638 281.186108 121.666511 
C 281.186108 120.639384 280.778026 119.654187 280.051737 118.927898 
C 279.325448 118.20161 278.340251 117.793528 277.313124 117.793528 
C 276.285997 117.793528 275.3008 118.20161 274.574511 118.927898 
C 273.848223 119.654187 273.440141 120.639384 273.440141 121.666511 
C 273.440141 122.693638 273.848223 123.678835 274.574511 124.405124 
C 275.3008 125.131412 276.285997 125.539494 277.313124 125.539494 
z
" clip-path="url(#p7dfa93f539)" style="fill: #4c72b0; fill-opacity: 0.8; stroke: #ffffff; stroke-opacity: 0.8; stroke-width: 0.619677"/>
    <path d="M 358.250964 35.363806 
C 359.278092 35.363806 360.263289 34.955724 360.989577 34.229436 
C 361.715866 33.503147 362.123948 32.51795 362.123948 31.490823 
C 362.123948 30.463696 361.715866 29.478499 360.989577 28.75221 
C 360.263289 28.025921 359.278092 27.617839 358.250964 27.617839 
C 357.223837 27.617839 356.23864 28.025921 355.512352 28.75221 
C 354.786063 29.478499 354.377981 30.463696 354.377981 31.490823 
C 354.377981 32.51795 354.786063 33.503147 355.512352 34.229436 
C 356.23864 34.955724 357.223837 35.363806 358.250964 35.363806 
z
" clip-path="url(#p7dfa93f539)" style="fill: #4c72b0; fill-opacity: 0.8; stroke: #ffffff; stroke-opacity: 0.8; stroke-width: 0.619677"/>
    <path d="M 348.203311 173.320731 
C 349.230438 173.320731 350.215635 172.912649 350.941924 172.18636 
C 351.668212 171.460072 352.076294 170.474875 352.076294 169.447747 
C 352.076294 168.42062 351.668212 167.435423 350.941924 166.709135 
C 350.215635 165.982846 349.230438 165.574764 348.203311 165.574764 
C 347.176184 165.574764 346.190987 165.982846 345.464698 166.709135 
C 344.738409 167.435423 344.330327 168.42062 344.330327 169.447747 
C 344.330327 170.474875 344.738409 171.460072 345.464698 172.18636 
C 346.190987 172.912649 347.176184 173.320731 348.203311 173.320731 
z
" clip-path="url(#p7dfa93f539)" style="fill: #4c72b0; fill-opacity: 0.8; stroke: #ffffff; stroke-opacity: 0.8; stroke-width: 0.619677"/>
    <path d="M 287.276384 71.685269 
C 288.303511 71.685269 289.288708 71.277187 290.014997 70.550898 
C 290.741285 69.824609 291.149367 68.839412 291.149367 67.812285 
C 291.149367 66.785158 290.741285 65.799961 290.014997 65.073672 
C 289.288708 64.347384 288.303511 63.939302 287.276384 63.939302 
C 286.249257 63.939302 285.26406 64.347384 284.537771 65.073672 
C 283.811483 65.799961 283.403401 66.785158 283.403401 67.812285 
C 283.403401 68.839412 283.811483 69.824609 284.537771 70.550898 
C 285.26406 71.277187 286.249257 71.685269 287.276384 71.685269 
z
" clip-path="url(#p7dfa93f539)" style="fill: #4c72b0; fill-opacity: 0.8; stroke: #ffffff; stroke-opacity: 0.8; stroke-width: 0.619677"/>
    <path d="M 324.22334 170.617193 
C 325.250467 170.617193 326.235664 170.209111 326.961952 169.482822 
C 327.688241 168.756534 328.096323 167.771337 328.096323 166.744209 
C 328.096323 165.717082 327.688241 164.731885 326.961952 164.005597 
C 326.235664 163.279308 325.250467 162.871226 324.22334 162.871226 
C 323.196212 162.871226 322.211015 163.279308 321.484727 164.005597 
C 320.758438 164.731885 320.350356 165.717082 320.350356 166.744209 
C 320.350356 167.771337 320.758438 168.756534 321.484727 169.482822 
C 322.211015 170.209111 323.196212 170.617193 324.22334 170.617193 
z
" clip-path="url(#p7dfa93f539)" style="fill: #4c72b0; fill-opacity: 0.8; stroke: #ffffff; stroke-opacity: 0.8; stroke-width: 0.619677"/>
    <path d="M 327.20349 61.871999 
C 328.230617 61.871999 329.215814 61.463917 329.942103 60.737628 
C 330.668391 60.011339 331.076473 59.026142 331.076473 57.999015 
C 331.076473 56.971888 330.668391 55.986691 329.942103 55.260402 
C 329.215814 54.534114 328.230617 54.126032 327.20349 54.126032 
C 326.176363 54.126032 325.191166 54.534114 324.464877 55.260402 
C 323.738589 55.986691 323.330507 56.971888 323.330507 57.999015 
C 323.330507 59.026142 323.738589 60.011339 324.464877 60.737628 
C 325.191166 61.463917 326.176363 61.871999 327.20349 61.871999 
z
" clip-path="url(#p7dfa93f539)" style="fill: #4c72b0; fill-opacity: 0.8; stroke: #ffffff; stroke-opacity: 0.8; stroke-width: 0.619677"/>
    <path d="M 288.213424 108.562878 
C 289.240551 108.562878 290.225748 108.154796 290.952037 107.428508 
C 291.678325 106.702219 292.086407 105.717022 292.086407 104.689895 
C 292.086407 103.662768 291.678325 102.677571 290.952037 101.951282 
C 290.225748 101.224993 289.240551 100.816911 288.213424 100.816911 
C 287.186297 100.816911 286.2011 101.224993 285.474811 101.951282 
C 284.748523 102.677571 284.340441 103.662768 284.340441 104.689895 
C 284.340441 105.717022 284.748523 106.702219 285.474811 107.428508 
C 286.2011 108.154796 287.186297 108.562878 288.213424 108.562878 
z
" clip-path="url(#p7dfa93f539)" style="fill: #4c72b0; fill-opacity: 0.8; stroke: #ffffff; stroke-opacity: 0.8; stroke-width: 0.619677"/>
    <path d="M 336.477086 158.950563 
C 337.504213 158.950563 338.48941 158.542481 339.215699 157.816192 
C 339.941988 157.089904 340.35007 156.104707 340.35007 155.077579 
C 340.35007 154.050452 339.941988 153.065255 339.215699 152.338967 
C 338.48941 151.612678 337.504213 151.204596 336.477086 151.204596 
C 335.449959 151.204596 334.464762 151.612678 333.738473 152.338967 
C 333.012185 153.065255 332.604103 154.050452 332.604103 155.077579 
C 332.604103 156.104707 333.012185 157.089904 333.738473 157.816192 
C 334.464762 158.542481 335.449959 158.950563 336.477086 158.950563 
z
" clip-path="url(#p7dfa93f539)" style="fill: #4c72b0; fill-opacity: 0.8; stroke: #ffffff; stroke-opacity: 0.8; stroke-width: 0.619677"/>
    <path d="M 346.476716 159.726758 
C 347.503843 159.726758 348.48904 159.318676 349.215329 158.592388 
C 349.941617 157.866099 350.349699 156.880902 350.349699 155.853775 
C 350.349699 154.826648 349.941617 153.841451 349.215329 153.115162 
C 348.48904 152.388874 347.503843 151.980792 346.476716 151.980792 
C 345.449589 151.980792 344.464392 152.388874 343.738103 153.115162 
C 343.011814 153.841451 342.603732 154.826648 342.603732 155.853775 
C 342.603732 156.880902 343.011814 157.866099 343.738103 158.592388 
C 344.464392 159.318676 345.449589 159.726758 346.476716 159.726758 
z
" clip-path="url(#p7dfa93f539)" style="fill: #4c72b0; fill-opacity: 0.8; stroke: #ffffff; stroke-opacity: 0.8; stroke-width: 0.619677"/>
    <path d="M 342.257732 91.088496 
C 343.284859 91.088496 344.270056 90.680414 344.996345 89.954126 
C 345.722634 89.227837 346.130716 88.24264 346.130716 87.215513 
C 346.130716 86.188386 345.722634 85.203189 344.996345 84.4769 
C 344.270056 83.750611 343.284859 83.34253 342.257732 83.34253 
C 341.230605 83.34253 340.245408 83.750611 339.519119 84.4769 
C 338.792831 85.203189 338.384749 86.188386 338.384749 87.215513 
C 338.384749 88.24264 338.792831 89.227837 339.519119 89.954126 
C 340.245408 90.680414 341.230605 91.088496 342.257732 91.088496 
z
" clip-path="url(#p7dfa93f539)" style="fill: #4c72b0; fill-opacity: 0.8; stroke: #ffffff; stroke-opacity: 0.8; stroke-width: 0.619677"/>
    <path d="M 313.20578 153.624861 
C 314.232907 153.624861 315.218104 153.216779 315.944393 152.490491 
C 316.670681 151.764202 317.078763 150.779005 317.078763 149.751878 
C 317.078763 148.724751 316.670681 147.739554 315.944393 147.013265 
C 315.218104 146.286977 314.232907 145.878895 313.20578 145.878895 
C 312.178653 145.878895 311.193456 146.286977 310.467167 147.013265 
C 309.740879 147.739554 309.332797 148.724751 309.332797 149.751878 
C 309.332797 150.779005 309.740879 151.764202 310.467167 152.490491 
C 311.193456 153.216779 312.178653 153.624861 313.20578 153.624861 
z
" clip-path="url(#p7dfa93f539)" style="fill: #4c72b0; fill-opacity: 0.8; stroke: #ffffff; stroke-opacity: 0.8; stroke-width: 0.619677"/>
    <path d="M 388.414375 151.478705 
C 389.441502 151.478705 390.426699 151.070624 391.152987 150.344335 
C 391.879276 149.618046 392.287358 148.632849 392.287358 147.605722 
C 392.287358 146.578595 391.879276 145.593398 391.152987 144.867109 
C 390.426699 144.140821 389.441502 143.732739 388.414375 143.732739 
C 387.387247 143.732739 386.40205 144.140821 385.675762 144.867109 
C 384.949473 145.593398 384.541391 146.578595 384.541391 147.605722 
C 384.541391 148.632849 384.949473 149.618046 385.675762 150.344335 
C 386.40205 151.070624 387.387247 151.478705 388.414375 151.478705 
z
" clip-path="url(#p7dfa93f539)" style="fill: #4c72b0; fill-opacity: 0.8; stroke: #ffffff; stroke-opacity: 0.8; stroke-width: 0.619677"/>
    <path d="M 318.713186 43.838818 
C 319.740313 43.838818 320.72551 43.430736 321.451799 42.704448 
C 322.178087 41.978159 322.586169 40.992962 322.586169 39.965835 
C 322.586169 38.938708 322.178087 37.953511 321.451799 37.227222 
C 320.72551 36.500934 319.740313 36.092852 318.713186 36.092852 
C 317.686059 36.092852 316.700862 36.500934 315.974573 37.227222 
C 315.248285 37.953511 314.840203 38.938708 314.840203 39.965835 
C 314.840203 40.992962 315.248285 41.978159 315.974573 42.704448 
C 316.700862 43.430736 317.686059 43.838818 318.713186 43.838818 
z
" clip-path="url(#p7dfa93f539)" style="fill: #4c72b0; fill-opacity: 0.8; stroke: #ffffff; stroke-opacity: 0.8; stroke-width: 0.619677"/>
    <path d="M 303.612733 112.620291 
C 304.63986 112.620291 305.625057 112.212209 306.351345 111.485921 
C 307.077634 110.759632 307.485716 109.774435 307.485716 108.747308 
C 307.485716 107.720181 307.077634 106.734984 306.351345 106.008695 
C 305.625057 105.282407 304.63986 104.874325 303.612733 104.874325 
C 302.585605 104.874325 301.600408 105.282407 300.87412 106.008695 
C 300.147831 106.734984 299.739749 107.720181 299.739749 108.747308 
C 299.739749 109.774435 300.147831 110.759632 300.87412 111.485921 
C 301.600408 112.212209 302.585605 112.620291 303.612733 112.620291 
z
" clip-path="url(#p7dfa93f539)" style="fill: #4c72b0; fill-opacity: 0.8; stroke: #ffffff; stroke-opacity: 0.8; stroke-width: 0.619677"/>
    <path d="M 302.337858 198.990526 
C 303.364985 198.990526 304.350182 198.582444 305.076471 197.856155 
C 305.80276 197.129867 306.210841 196.14467 306.210841 195.117543 
C 306.210841 194.090415 305.80276 193.105218 305.076471 192.37893 
C 304.350182 191.652641 303.364985 191.244559 302.337858 191.244559 
C 301.310731 191.244559 300.325534 191.652641 299.599245 192.37893 
C 298.872957 193.105218 298.464875 194.090415 298.464875 195.117543 
C 298.464875 196.14467 298.872957 197.129867 299.599245 197.856155 
C 300.325534 198.582444 301.310731 198.990526 302.337858 198.990526 
z
" clip-path="url(#p7dfa93f539)" style="fill: #4c72b0; fill-opacity: 0.8; stroke: #ffffff; stroke-opacity: 0.8; stroke-width: 0.619677"/>
    <path d="M 317.953809 144.014233 
C 318.980936 144.014233 319.966133 143.606151 320.692422 142.879863 
C 321.41871 142.153574 321.826792 141.168377 321.826792 140.14125 
C 321.826792 139.114123 321.41871 138.128926 320.692422 137.402637 
C 319.966133 136.676348 318.980936 136.268267 317.953809 136.268267 
C 316.926682 136.268267 315.941485 136.676348 315.215196 137.402637 
C 314.488908 138.128926 314.080826 139.114123 314.080826 140.14125 
C 314.080826 141.168377 314.488908 142.153574 315.215196 142.879863 
C 315.941485 143.606151 316.926682 144.014233 317.953809 144.014233 
z
" clip-path="url(#p7dfa93f539)" style="fill: #4c72b0; fill-opacity: 0.8; stroke: #ffffff; stroke-opacity: 0.8; stroke-width: 0.619677"/>
    <path d="M 281.842694 149.166994 
C 282.869821 149.166994 283.855018 148.758912 284.581307 148.032624 
C 285.307595 147.306335 285.715677 146.321138 285.715677 145.294011 
C 285.715677 144.266884 285.307595 143.281687 284.581307 142.555398 
C 283.855018 141.82911 282.869821 141.421028 281.842694 141.421028 
C 280.815567 141.421028 279.83037 141.82911 279.104081 142.555398 
C 278.377793 143.281687 277.969711 144.266884 277.969711 145.294011 
C 277.969711 146.321138 278.377793 147.306335 279.104081 148.032624 
C 279.83037 148.758912 280.815567 149.166994 281.842694 149.166994 
z
" clip-path="url(#p7dfa93f539)" style="fill: #4c72b0; fill-opacity: 0.8; stroke: #ffffff; stroke-opacity: 0.8; stroke-width: 0.619677"/>
    <path d="M 397.210616 177.919567 
L 399.147108 175.983075 
L 401.083599 177.919567 
L 403.020091 175.983075 
L 401.083599 174.046584 
L 403.020091 172.110092 
L 401.083599 170.1736 
L 399.147108 172.110092 
L 397.210616 170.1736 
L 395.274124 172.110092 
L 397.210616 174.046584 
L 395.274124 175.983075 
z
" clip-path="url(#p7dfa93f539)" style="fill: #dd8452; fill-opacity: 0.8; stroke: #ffffff; stroke-opacity: 0.8; stroke-width: 0.619677"/>
    <path d="M 280.825099 78.476725 
L 282.76159 76.540234 
L 284.698082 78.476725 
L 286.634574 76.540234 
L 284.698082 74.603742 
L 286.634574 72.66725 
L 284.698082 70.730759 
L 282.76159 72.66725 
L 280.825099 70.730759 
L 278.888607 72.66725 
L 280.825099 74.603742 
L 278.888607 76.540234 
z
" clip-path="url(#p7dfa93f539)" style="fill: #dd8452; fill-opacity: 0.8; stroke: #ffffff; stroke-opacity: 0.8; stroke-width: 0.619677"/>
    <path d="M 235.418058 147.233434 
L 237.354549 145.296943 
L 239.291041 147.233434 
L 241.227533 145.296943 
L 239.291041 143.360451 
L 241.227533 141.423959 
L 239.291041 139.487468 
L 237.354549 141.423959 
L 235.418058 139.487468 
L 233.481566 141.423959 
L 235.418058 143.360451 
L 233.481566 145.296943 
z
" clip-path="url(#p7dfa93f539)" style="fill: #dd8452; fill-opacity: 0.8; stroke: #ffffff; stroke-opacity: 0.8; stroke-width: 0.619677"/>
    <path d="M 280.364284 82.553088 
L 282.300776 80.616596 
L 284.237267 82.553088 
L 286.173759 80.616596 
L 284.237267 78.680104 
L 286.173759 76.743613 
L 284.237267 74.807121 
L 282.300776 76.743613 
L 280.364284 74.807121 
L 278.427792 76.743613 
L 280.364284 78.680104 
L 278.427792 80.616596 
z
" clip-path="url(#p7dfa93f539)" style="fill: #dd8452; fill-opacity: 0.8; stroke: #ffffff; stroke-opacity: 0.8; stroke-width: 0.619677"/>
    <path d="M 232.77109 166.552931 
L 234.707582 164.61644 
L 236.644073 166.552931 
L 238.580565 164.61644 
L 236.644073 162.679948 
L 238.580565 160.743456 
L 236.644073 158.806965 
L 234.707582 160.743456 
L 232.77109 158.806965 
L 230.834598 160.743456 
L 232.77109 162.679948 
L 230.834598 164.61644 
z
" clip-path="url(#p7dfa93f539)" style="fill: #dd8452; fill-opacity: 0.8; stroke: #ffffff; stroke-opacity: 0.8; stroke-width: 0.619677"/>
    <path d="M 175.631285 186.745935 
L 177.567777 184.809444 
L 179.504269 186.745935 
L 181.44076 184.809444 
L 179.504269 182.872952 
L 181.44076 180.93646 
L 179.504269 178.999969 
L 177.567777 180.93646 
L 175.631285 178.999969 
L 173.694794 180.93646 
L 175.631285 182.872952 
L 173.694794 184.809444 
z
" clip-path="url(#p7dfa93f539)" style="fill: #dd8452; fill-opacity: 0.8; stroke: #ffffff; stroke-opacity: 0.8; stroke-width: 0.619677"/>
    <path d="M 397.332284 145.873645 
L 399.268776 143.937154 
L 401.205268 145.873645 
L 403.141759 143.937154 
L 401.205268 142.000662 
L 403.141759 140.06417 
L 401.205268 138.127679 
L 399.268776 140.06417 
L 397.332284 138.127679 
L 395.395793 140.06417 
L 397.332284 142.000662 
L 395.395793 143.937154 
z
" clip-path="url(#p7dfa93f539)" style="fill: #dd8452; fill-opacity: 0.8; stroke: #ffffff; stroke-opacity: 0.8; stroke-width: 0.619677"/>
    <path d="M 204.837525 177.863136 
L 206.774016 175.926645 
L 208.710508 177.863136 
L 210.647 175.926645 
L 208.710508 173.990153 
L 210.647 172.053661 
L 208.710508 170.11717 
L 206.774016 172.053661 
L 204.837525 170.11717 
L 202.901033 172.053661 
L 204.837525 173.990153 
L 202.901033 175.926645 
z
" clip-path="url(#p7dfa93f539)" style="fill: #dd8452; fill-opacity: 0.8; stroke: #ffffff; stroke-opacity: 0.8; stroke-width: 0.619677"/>
    <path d="M 232.835716 171.269155 
L 234.772207 169.332663 
L 236.708699 171.269155 
L 238.645191 169.332663 
L 236.708699 167.396171 
L 238.645191 165.45968 
L 236.708699 163.523188 
L 234.772207 165.45968 
L 232.835716 163.523188 
L 230.899224 165.45968 
L 232.835716 167.396171 
L 230.899224 169.332663 
z
" clip-path="url(#p7dfa93f539)" style="fill: #dd8452; fill-opacity: 0.8; stroke: #ffffff; stroke-opacity: 0.8; stroke-width: 0.619677"/>
    <path d="M 215.586731 165.062032 
L 217.523223 163.125541 
L 219.459715 165.062032 
L 221.396206 163.125541 
L 219.459715 161.189049 
L 221.396206 159.252557 
L 219.459715 157.316066 
L 217.523223 159.252557 
L 215.586731 157.316066 
L 213.65024 159.252557 
L 215.586731 161.189049 
L 213.65024 163.125541 
z
" clip-path="url(#p7dfa93f539)" style="fill: #dd8452; fill-opacity: 0.8; stroke: #ffffff; stroke-opacity: 0.8; stroke-width: 0.619677"/>
    <path d="M 397.187475 161.314322 
L 399.123967 159.37783 
L 401.060459 161.314322 
L 402.99695 159.37783 
L 401.060459 157.441339 
L 402.99695 155.504847 
L 401.060459 153.568355 
L 399.123967 155.504847 
L 397.187475 153.568355 
L 395.250984 155.504847 
L 397.187475 157.441339 
L 395.250984 159.37783 
z
" clip-path="url(#p7dfa93f539)" style="fill: #dd8452; fill-opacity: 0.8; stroke: #ffffff; stroke-opacity: 0.8; stroke-width: 0.619677"/>
    <path d="M 218.430858 188.229335 
L 220.36735 186.292844 
L 222.303841 188.229335 
L 224.240333 186.292844 
L 222.303841 184.356352 
L 224.240333 182.41986 
L 222.303841 180.483369 
L 220.36735 182.41986 
L 218.430858 180.483369 
L 216.494366 182.41986 
L 218.430858 184.356352 
L 216.494366 186.292844 
z
" clip-path="url(#p7dfa93f539)" style="fill: #dd8452; fill-opacity: 0.8; stroke: #ffffff; stroke-opacity: 0.8; stroke-width: 0.619677"/>
    <path d="M 140.106102 205.842748 
L 142.042594 203.906256 
L 143.979086 205.842748 
L 145.915577 203.906256 
L 143.979086 201.969764 
L 145.915577 200.033273 
L 143.979086 198.096781 
L 142.042594 200.033273 
L 140.106102 198.096781 
L 138.169611 200.033273 
L 140.106102 201.969764 
L 138.169611 203.906256 
z
" clip-path="url(#p7dfa93f539)" style="fill: #dd8452; fill-opacity: 0.8; stroke: #ffffff; stroke-opacity: 0.8; stroke-width: 0.619677"/>
    <path d="M 261.291398 136.940663 
L 263.22789 135.004172 
L 265.164382 136.940663 
L 267.100873 135.004172 
L 265.164382 133.06768 
L 267.100873 131.131188 
L 265.164382 129.194696 
L 263.22789 131.131188 
L 261.291398 129.194696 
L 259.354906 131.131188 
L 261.291398 133.06768 
L 259.354906 135.004172 
z
" clip-path="url(#p7dfa93f539)" style="fill: #dd8452; fill-opacity: 0.8; stroke: #ffffff; stroke-opacity: 0.8; stroke-width: 0.619677"/>
    <path d="M 397.724645 115.447742 
L 399.661136 113.51125 
L 401.597628 115.447742 
L 403.53412 113.51125 
L 401.597628 111.574759 
L 403.53412 109.638267 
L 401.597628 107.701775 
L 399.661136 109.638267 
L 397.724645 107.701775 
L 395.788153 109.638267 
L 397.724645 111.574759 
L 395.788153 113.51125 
z
" clip-path="url(#p7dfa93f539)" style="fill: #dd8452; fill-opacity: 0.8; stroke: #ffffff; stroke-opacity: 0.8; stroke-width: 0.619677"/>
    <path d="M 397.156733 181.269333 
L 399.093224 179.332841 
L 401.029716 181.269333 
L 402.966208 179.332841 
L 401.029716 177.396349 
L 402.966208 175.459858 
L 401.029716 173.523366 
L 399.093224 175.459858 
L 397.156733 173.523366 
L 395.220241 175.459858 
L 397.156733 177.396349 
L 395.220241 179.332841 
z
" clip-path="url(#p7dfa93f539)" style="fill: #dd8452; fill-opacity: 0.8; stroke: #ffffff; stroke-opacity: 0.8; stroke-width: 0.619677"/>
    <path d="M 156.80854 167.113321 
L 158.745031 165.176829 
L 160.681523 167.113321 
L 162.618015 165.176829 
L 160.681523 163.240338 
L 162.618015 161.303846 
L 160.681523 159.367354 
L 158.745031 161.303846 
L 156.80854 159.367354 
L 154.872048 161.303846 
L 156.80854 163.240338 
L 154.872048 165.176829 
z
" clip-path="url(#p7dfa93f539)" style="fill: #dd8452; fill-opacity: 0.8; stroke: #ffffff; stroke-opacity: 0.8; stroke-width: 0.619677"/>
    <path d="M 397.24951 170.010194 
L 399.186002 168.073702 
L 401.122493 170.010194 
L 403.058985 168.073702 
L 401.122493 166.137211 
L 403.058985 164.200719 
L 401.122493 162.264227 
L 399.186002 164.200719 
L 397.24951 162.264227 
L 395.313018 164.200719 
L 397.24951 166.137211 
L 395.313018 168.073702 
z
" clip-path="url(#p7dfa93f539)" style="fill: #dd8452; fill-opacity: 0.8; stroke: #ffffff; stroke-opacity: 0.8; stroke-width: 0.619677"/>
    <path d="M 280.141778 111.727406 
L 282.078269 109.790914 
L 284.014761 111.727406 
L 285.951253 109.790914 
L 284.014761 107.854422 
L 285.951253 105.917931 
L 284.014761 103.981439 
L 282.078269 105.917931 
L 280.141778 103.981439 
L 278.205286 105.917931 
L 280.141778 107.854422 
L 278.205286 109.790914 
z
" clip-path="url(#p7dfa93f539)" style="fill: #dd8452; fill-opacity: 0.8; stroke: #ffffff; stroke-opacity: 0.8; stroke-width: 0.619677"/>
    <path d="M 272.564063 131.725396 
L 274.500555 129.788904 
L 276.437046 131.725396 
L 278.373538 129.788904 
L 276.437046 127.852413 
L 278.373538 125.915921 
L 276.437046 123.979429 
L 274.500555 125.915921 
L 272.564063 123.979429 
L 270.627571 125.915921 
L 272.564063 127.852413 
L 270.627571 129.788904 
z
" clip-path="url(#p7dfa93f539)" style="fill: #dd8452; fill-opacity: 0.8; stroke: #ffffff; stroke-opacity: 0.8; stroke-width: 0.619677"/>
    <path d="M 139.826968 215.609442 
L 141.76346 213.672951 
L 143.699952 215.609442 
L 145.636443 213.672951 
L 143.699952 211.736459 
L 145.636443 209.799967 
L 143.699952 207.863476 
L 141.76346 209.799967 
L 139.826968 207.863476 
L 137.890477 209.799967 
L 139.826968 211.736459 
L 137.890477 213.672951 
z
" clip-path="url(#p7dfa93f539)" style="fill: #dd8452; fill-opacity: 0.8; stroke: #ffffff; stroke-opacity: 0.8; stroke-width: 0.619677"/>
    <path d="M 82.931202 232.253261 
L 84.867693 230.316769 
L 86.804185 232.253261 
L 88.740677 230.316769 
L 86.804185 228.380277 
L 88.740677 226.443786 
L 86.804185 224.507294 
L 84.867693 226.443786 
L 82.931202 224.507294 
L 80.99471 226.443786 
L 82.931202 228.380277 
L 80.99471 230.316769 
z
" clip-path="url(#p7dfa93f539)" style="fill: #dd8452; fill-opacity: 0.8; stroke: #ffffff; stroke-opacity: 0.8; stroke-width: 0.619677"/>
    <path d="M 216.519179 143.05622 
L 218.45567 141.119728 
L 220.392162 143.05622 
L 222.328654 141.119728 
L 220.392162 139.183237 
L 222.328654 137.246745 
L 220.392162 135.310253 
L 218.45567 137.246745 
L 216.519179 135.310253 
L 214.582687 137.246745 
L 216.519179 139.183237 
L 214.582687 141.119728 
z
" clip-path="url(#p7dfa93f539)" style="fill: #dd8452; fill-opacity: 0.8; stroke: #ffffff; stroke-opacity: 0.8; stroke-width: 0.619677"/>
    <path d="M 123.776565 222.560944 
L 125.713057 220.624452 
L 127.649548 222.560944 
L 129.58604 220.624452 
L 127.649548 218.687961 
L 129.58604 216.751469 
L 127.649548 214.814977 
L 125.713057 216.751469 
L 123.776565 214.814977 
L 121.840073 216.751469 
L 123.776565 218.687961 
L 121.840073 220.624452 
z
" clip-path="url(#p7dfa93f539)" style="fill: #dd8452; fill-opacity: 0.8; stroke: #ffffff; stroke-opacity: 0.8; stroke-width: 0.619677"/>
    <path d="M 283.193419 84.97726 
L 285.129911 83.040769 
L 287.066403 84.97726 
L 289.002894 83.040769 
L 287.066403 81.104277 
L 289.002894 79.167785 
L 287.066403 77.231293 
L 285.129911 79.167785 
L 283.193419 77.231293 
L 281.256928 79.167785 
L 283.193419 81.104277 
L 281.256928 83.040769 
z
" clip-path="url(#p7dfa93f539)" style="fill: #dd8452; fill-opacity: 0.8; stroke: #ffffff; stroke-opacity: 0.8; stroke-width: 0.619677"/>
    <path d="M 263.766796 92.419553 
L 265.703288 90.483061 
L 267.639779 92.419553 
L 269.576271 90.483061 
L 267.639779 88.54657 
L 269.576271 86.610078 
L 267.639779 84.673586 
L 265.703288 86.610078 
L 263.766796 84.673586 
L 261.830304 86.610078 
L 263.766796 88.54657 
L 261.830304 90.483061 
z
" clip-path="url(#p7dfa93f539)" style="fill: #dd8452; fill-opacity: 0.8; stroke: #ffffff; stroke-opacity: 0.8; stroke-width: 0.619677"/>
    <path d="M 159.027313 204.856771 
L 160.963805 202.920279 
L 162.900297 204.856771 
L 164.836788 202.920279 
L 162.900297 200.983788 
L 164.836788 199.047296 
L 162.900297 197.110804 
L 160.963805 199.047296 
L 159.027313 197.110804 
L 157.090822 199.047296 
L 159.027313 200.983788 
L 157.090822 202.920279 
z
" clip-path="url(#p7dfa93f539)" style="fill: #dd8452; fill-opacity: 0.8; stroke: #ffffff; stroke-opacity: 0.8; stroke-width: 0.619677"/>
    <path d="M 397.184412 163.574117 
L 399.120904 161.637625 
L 401.057396 163.574117 
L 402.993887 161.637625 
L 401.057396 159.701133 
L 402.993887 157.764642 
L 401.057396 155.82815 
L 399.120904 157.764642 
L 397.184412 155.82815 
L 395.247921 157.764642 
L 397.184412 159.701133 
L 395.247921 161.637625 
z
" clip-path="url(#p7dfa93f539)" style="fill: #dd8452; fill-opacity: 0.8; stroke: #ffffff; stroke-opacity: 0.8; stroke-width: 0.619677"/>
    <path d="M 186.778667 199.848421 
L 188.715159 197.911929 
L 190.651651 199.848421 
L 192.588142 197.911929 
L 190.651651 195.975437 
L 192.588142 194.038946 
L 190.651651 192.102454 
L 188.715159 194.038946 
L 186.778667 192.102454 
L 184.842176 194.038946 
L 186.778667 195.975437 
L 184.842176 197.911929 
z
" clip-path="url(#p7dfa93f539)" style="fill: #dd8452; fill-opacity: 0.8; stroke: #ffffff; stroke-opacity: 0.8; stroke-width: 0.619677"/>
    <path d="M 189.971712 200.182424 
L 191.908203 198.245932 
L 193.844695 200.182424 
L 195.781187 198.245932 
L 193.844695 196.30944 
L 195.781187 194.372949 
L 193.844695 192.436457 
L 191.908203 194.372949 
L 189.971712 192.436457 
L 188.03522 194.372949 
L 189.971712 196.30944 
L 188.03522 198.245932 
z
" clip-path="url(#p7dfa93f539)" style="fill: #dd8452; fill-opacity: 0.8; stroke: #ffffff; stroke-opacity: 0.8; stroke-width: 0.619677"/>
    <path d="M 160.060081 193.017071 
L 161.996573 191.08058 
L 163.933065 193.017071 
L 165.869556 191.08058 
L 163.933065 189.144088 
L 165.869556 187.207596 
L 163.933065 185.271105 
L 161.996573 187.207596 
L 160.060081 185.271105 
L 158.12359 187.207596 
L 160.060081 189.144088 
L 158.12359 191.08058 
z
" clip-path="url(#p7dfa93f539)" style="fill: #dd8452; fill-opacity: 0.8; stroke: #ffffff; stroke-opacity: 0.8; stroke-width: 0.619677"/>
    <path d="M 282.336714 102.788944 
L 284.273206 100.852453 
L 286.209698 102.788944 
L 288.146189 100.852453 
L 286.209698 98.915961 
L 288.146189 96.979469 
L 286.209698 95.042978 
L 284.273206 96.979469 
L 282.336714 95.042978 
L 280.400223 96.979469 
L 282.336714 98.915961 
L 280.400223 100.852453 
z
" clip-path="url(#p7dfa93f539)" style="fill: #dd8452; fill-opacity: 0.8; stroke: #ffffff; stroke-opacity: 0.8; stroke-width: 0.619677"/>
    <path d="M 229.425706 157.103409 
L 231.362197 155.166918 
L 233.298689 157.103409 
L 235.235181 155.166918 
L 233.298689 153.230426 
L 235.235181 151.293934 
L 233.298689 149.357443 
L 231.362197 151.293934 
L 229.425706 149.357443 
L 227.489214 151.293934 
L 229.425706 153.230426 
L 227.489214 155.166918 
z
" clip-path="url(#p7dfa93f539)" style="fill: #dd8452; fill-opacity: 0.8; stroke: #ffffff; stroke-opacity: 0.8; stroke-width: 0.619677"/>
    <path d="M 209.660469 193.61716 
L 211.596961 191.680669 
L 213.533452 193.61716 
L 215.469944 191.680669 
L 213.533452 189.744177 
L 215.469944 187.807685 
L 213.533452 185.871194 
L 211.596961 187.807685 
L 209.660469 185.871194 
L 207.723977 187.807685 
L 209.660469 189.744177 
L 207.723977 191.680669 
z
" clip-path="url(#p7dfa93f539)" style="fill: #dd8452; fill-opacity: 0.8; stroke: #ffffff; stroke-opacity: 0.8; stroke-width: 0.619677"/>
    <path d="M 397.150464 152.308059 
L 399.086956 150.371567 
L 401.023448 152.308059 
L 402.959939 150.371567 
L 401.023448 148.435075 
L 402.959939 146.498584 
L 401.023448 144.562092 
L 399.086956 146.498584 
L 397.150464 144.562092 
L 395.213973 146.498584 
L 397.150464 148.435075 
L 395.213973 150.371567 
z
" clip-path="url(#p7dfa93f539)" style="fill: #dd8452; fill-opacity: 0.8; stroke: #ffffff; stroke-opacity: 0.8; stroke-width: 0.619677"/>
    <path d="M 174.260739 192.020011 
L 176.197231 190.083519 
L 178.133722 192.020011 
L 180.070214 190.083519 
L 178.133722 188.147027 
L 180.070214 186.210536 
L 178.133722 184.274044 
L 176.197231 186.210536 
L 174.260739 184.274044 
L 172.324247 186.210536 
L 174.260739 188.147027 
L 172.324247 190.083519 
z
" clip-path="url(#p7dfa93f539)" style="fill: #dd8452; fill-opacity: 0.8; stroke: #ffffff; stroke-opacity: 0.8; stroke-width: 0.619677"/>
    <path d="M 397.220595 179.658233 
L 399.157087 177.721741 
L 401.093578 179.658233 
L 403.03007 177.721741 
L 401.093578 175.78525 
L 403.03007 173.848758 
L 401.093578 171.912266 
L 399.157087 173.848758 
L 397.220595 171.912266 
L 395.284103 173.848758 
L 397.220595 175.78525 
L 395.284103 177.721741 
z
" clip-path="url(#p7dfa93f539)" style="fill: #dd8452; fill-opacity: 0.8; stroke: #ffffff; stroke-opacity: 0.8; stroke-width: 0.619677"/>
    <path d="M 252.334666 102.538003 
L 254.271157 100.601511 
L 256.207649 102.538003 
L 258.144141 100.601511 
L 256.207649 98.665019 
L 258.144141 96.728528 
L 256.207649 94.792036 
L 254.271157 96.728528 
L 252.334666 94.792036 
L 250.398174 96.728528 
L 252.334666 98.665019 
L 250.398174 100.601511 
z
" clip-path="url(#p7dfa93f539)" style="fill: #dd8452; fill-opacity: 0.8; stroke: #ffffff; stroke-opacity: 0.8; stroke-width: 0.619677"/>
    <path d="M 199.426426 189.309708 
L 201.362918 187.373217 
L 203.29941 189.309708 
L 205.235901 187.373217 
L 203.29941 185.436725 
L 205.235901 183.500233 
L 203.29941 181.563742 
L 201.362918 183.500233 
L 199.426426 181.563742 
L 197.489935 183.500233 
L 199.426426 185.436725 
L 197.489935 187.373217 
z
" clip-path="url(#p7dfa93f539)" style="fill: #dd8452; fill-opacity: 0.8; stroke: #ffffff; stroke-opacity: 0.8; stroke-width: 0.619677"/>
    <path d="M 397.300381 141.288182 
L 399.236873 139.35169 
L 401.173365 141.288182 
L 403.109856 139.35169 
L 401.173365 137.415198 
L 403.109856 135.478707 
L 401.173365 133.542215 
L 399.236873 135.478707 
L 397.300381 133.542215 
L 395.36389 135.478707 
L 397.300381 137.415198 
L 395.36389 139.35169 
z
" clip-path="url(#p7dfa93f539)" style="fill: #dd8452; fill-opacity: 0.8; stroke: #ffffff; stroke-opacity: 0.8; stroke-width: 0.619677"/>
    <path d="M 206.747738 185.467056 
L 208.68423 183.530564 
L 210.620721 185.467056 
L 212.557213 183.530564 
L 210.620721 181.594073 
L 212.557213 179.657581 
L 210.620721 177.721089 
L 208.68423 179.657581 
L 206.747738 177.721089 
L 204.811246 179.657581 
L 206.747738 181.594073 
L 204.811246 183.530564 
z
" clip-path="url(#p7dfa93f539)" style="fill: #dd8452; fill-opacity: 0.8; stroke: #ffffff; stroke-opacity: 0.8; stroke-width: 0.619677"/>
    <path d="M 230.010963 171.2283 
L 231.947455 169.291809 
L 233.883946 171.2283 
L 235.820438 169.291809 
L 233.883946 167.355317 
L 235.820438 165.418825 
L 233.883946 163.482334 
L 231.947455 165.418825 
L 230.010963 163.482334 
L 228.074471 165.418825 
L 230.010963 167.355317 
L 228.074471 169.291809 
z
" clip-path="url(#p7dfa93f539)" style="fill: #dd8452; fill-opacity: 0.8; stroke: #ffffff; stroke-opacity: 0.8; stroke-width: 0.619677"/>
    <path d="M 89.851718 207.168443 
L 91.78821 205.231952 
L 93.724702 207.168443 
L 95.661194 205.231952 
L 93.724702 203.29546 
L 95.661194 201.358968 
L 93.724702 199.422476 
L 91.78821 201.358968 
L 89.851718 199.422476 
L 87.915227 201.358968 
L 89.851718 203.29546 
L 87.915227 205.231952 
z
" clip-path="url(#p7dfa93f539)" style="fill: #dd8452; fill-opacity: 0.8; stroke: #ffffff; stroke-opacity: 0.8; stroke-width: 0.619677"/>
    <path d="M 282.286564 80.223354 
L 284.223056 78.286862 
L 286.159548 80.223354 
L 288.096039 78.286862 
L 286.159548 76.35037 
L 288.096039 74.413879 
L 286.159548 72.477387 
L 284.223056 74.413879 
L 282.286564 72.477387 
L 280.350073 74.413879 
L 282.286564 76.35037 
L 280.350073 78.286862 
z
" clip-path="url(#p7dfa93f539)" style="fill: #dd8452; fill-opacity: 0.8; stroke: #ffffff; stroke-opacity: 0.8; stroke-width: 0.619677"/>
    <path d="M 76.887026 230.42613 
L 78.823518 228.489638 
L 80.76001 230.42613 
L 82.696501 228.489638 
L 80.76001 226.553146 
L 82.696501 224.616655 
L 80.76001 222.680163 
L 78.823518 224.616655 
L 76.887026 222.680163 
L 74.950535 224.616655 
L 76.887026 226.553146 
L 74.950535 228.489638 
z
" clip-path="url(#p7dfa93f539)" style="fill: #dd8452; fill-opacity: 0.8; stroke: #ffffff; stroke-opacity: 0.8; stroke-width: 0.619677"/>
    <path d="M 76.705281 221.355477 
L 78.641773 219.418985 
L 80.578265 221.355477 
L 82.514757 219.418985 
L 80.578265 217.482494 
L 82.514757 215.546002 
L 80.578265 213.60951 
L 78.641773 215.546002 
L 76.705281 213.60951 
L 74.76879 215.546002 
L 76.705281 217.482494 
L 74.76879 219.418985 
z
" clip-path="url(#p7dfa93f539)" style="fill: #dd8452; fill-opacity: 0.8; stroke: #ffffff; stroke-opacity: 0.8; stroke-width: 0.619677"/>
    <path d="M 262.69075 139.260131 
L 264.627242 137.323639 
L 266.563733 139.260131 
L 268.500225 137.323639 
L 266.563733 135.387148 
L 268.500225 133.450656 
L 266.563733 131.514164 
L 264.627242 133.450656 
L 262.69075 131.514164 
L 260.754258 133.450656 
L 262.69075 135.387148 
L 260.754258 137.323639 
z
" clip-path="url(#p7dfa93f539)" style="fill: #dd8452; fill-opacity: 0.8; stroke: #ffffff; stroke-opacity: 0.8; stroke-width: 0.619677"/>
    <path d="M 397.360253 146.418121 
L 399.296745 144.481629 
L 401.233237 146.418121 
L 403.169728 144.481629 
L 401.233237 142.545137 
L 403.169728 140.608646 
L 401.233237 138.672154 
L 399.296745 140.608646 
L 397.360253 138.672154 
L 395.423762 140.608646 
L 397.360253 142.545137 
L 395.423762 144.481629 
z
" clip-path="url(#p7dfa93f539)" style="fill: #dd8452; fill-opacity: 0.8; stroke: #ffffff; stroke-opacity: 0.8; stroke-width: 0.619677"/>
    <path d="M 257.974113 134.20343 
L 259.910604 132.266939 
L 261.847096 134.20343 
L 263.783588 132.266939 
L 261.847096 130.330447 
L 263.783588 128.393955 
L 261.847096 126.457464 
L 259.910604 128.393955 
L 257.974113 126.457464 
L 256.037621 128.393955 
L 257.974113 130.330447 
L 256.037621 132.266939 
z
" clip-path="url(#p7dfa93f539)" style="fill: #dd8452; fill-opacity: 0.8; stroke: #ffffff; stroke-opacity: 0.8; stroke-width: 0.619677"/>
    <path d="M 152.006577 201.608748 
L 153.943069 199.672257 
L 155.87956 201.608748 
L 157.816052 199.672257 
L 155.87956 197.735765 
L 157.816052 195.799273 
L 155.87956 193.862782 
L 153.943069 195.799273 
L 152.006577 193.862782 
L 150.070085 195.799273 
L 152.006577 197.735765 
L 150.070085 199.672257 
z
" clip-path="url(#p7dfa93f539)" style="fill: #dd8452; fill-opacity: 0.8; stroke: #ffffff; stroke-opacity: 0.8; stroke-width: 0.619677"/>
    <path d="M 333.312971 92.917307 
L 333.312971 98.394532 
L 338.790197 98.394532 
L 338.790197 92.917307 
z
" clip-path="url(#p7dfa93f539)" style="fill: #55a868; fill-opacity: 0.8; stroke: #ffffff; stroke-opacity: 0.8; stroke-width: 0.619677"/>
    <path d="M 247.413898 143.994987 
L 247.413898 149.472212 
L 252.891124 149.472212 
L 252.891124 143.994987 
z
" clip-path="url(#p7dfa93f539)" style="fill: #55a868; fill-opacity: 0.8; stroke: #ffffff; stroke-opacity: 0.8; stroke-width: 0.619677"/>
    <path d="M 153.663594 169.768088 
L 153.663594 175.245314 
L 159.14082 175.245314 
L 159.14082 169.768088 
z
" clip-path="url(#p7dfa93f539)" style="fill: #55a868; fill-opacity: 0.8; stroke: #ffffff; stroke-opacity: 0.8; stroke-width: 0.619677"/>
    <path d="M 356.669125 44.397062 
L 356.669125 49.874288 
L 362.146351 49.874288 
L 362.146351 44.397062 
z
" clip-path="url(#p7dfa93f539)" style="fill: #55a868; fill-opacity: 0.8; stroke: #ffffff; stroke-opacity: 0.8; stroke-width: 0.619677"/>
    <path d="M 274.30801 120.683502 
L 274.30801 126.160728 
L 279.785236 126.160728 
L 279.785236 120.683502 
z
" clip-path="url(#p7dfa93f539)" style="fill: #55a868; fill-opacity: 0.8; stroke: #ffffff; stroke-opacity: 0.8; stroke-width: 0.619677"/>
    <path d="M 202.107062 168.765856 
L 202.107062 174.243082 
L 207.584287 174.243082 
L 207.584287 168.765856 
z
" clip-path="url(#p7dfa93f539)" style="fill: #55a868; fill-opacity: 0.8; stroke: #ffffff; stroke-opacity: 0.8; stroke-width: 0.619677"/>
    <path d="M 323.751436 120.976812 
L 323.751436 126.454038 
L 329.228661 126.454038 
L 329.228661 120.976812 
z
" clip-path="url(#p7dfa93f539)" style="fill: #55a868; fill-opacity: 0.8; stroke: #ffffff; stroke-opacity: 0.8; stroke-width: 0.619677"/>
    <path d="M 332.157733 112.054928 
L 332.157733 117.532154 
L 337.634958 117.532154 
L 337.634958 112.054928 
z
" clip-path="url(#p7dfa93f539)" style="fill: #55a868; fill-opacity: 0.8; stroke: #ffffff; stroke-opacity: 0.8; stroke-width: 0.619677"/>
    <path d="M 229.485753 160.009052 
L 229.485753 165.486278 
L 234.962978 165.486278 
L 234.962978 160.009052 
z
" clip-path="url(#p7dfa93f539)" style="fill: #55a868; fill-opacity: 0.8; stroke: #ffffff; stroke-opacity: 0.8; stroke-width: 0.619677"/>
    <path d="M 214.909896 173.360874 
L 214.909896 178.838099 
L 220.387121 178.838099 
L 220.387121 173.360874 
z
" clip-path="url(#p7dfa93f539)" style="fill: #55a868; fill-opacity: 0.8; stroke: #ffffff; stroke-opacity: 0.8; stroke-width: 0.619677"/>
    <path d="M 334.972983 75.974949 
L 334.972983 81.452175 
L 340.450209 81.452175 
L 340.450209 75.974949 
z
" clip-path="url(#p7dfa93f539)" style="fill: #55a868; fill-opacity: 0.8; stroke: #ffffff; stroke-opacity: 0.8; stroke-width: 0.619677"/>
    <path d="M 162.699106 204.268226 
L 162.699106 209.745452 
L 168.176332 209.745452 
L 168.176332 204.268226 
z
" clip-path="url(#p7dfa93f539)" style="fill: #55a868; fill-opacity: 0.8; stroke: #ffffff; stroke-opacity: 0.8; stroke-width: 0.619677"/>
    <path d="M 128.026462 209.525794 
L 128.026462 215.00302 
L 133.503688 215.00302 
L 133.503688 209.525794 
z
" clip-path="url(#p7dfa93f539)" style="fill: #55a868; fill-opacity: 0.8; stroke: #ffffff; stroke-opacity: 0.8; stroke-width: 0.619677"/>
    <path d="M 240.389177 168.902459 
L 240.389177 174.379685 
L 245.866403 174.379685 
L 245.866403 168.902459 
z
" clip-path="url(#p7dfa93f539)" style="fill: #55a868; fill-opacity: 0.8; stroke: #ffffff; stroke-opacity: 0.8; stroke-width: 0.619677"/>
    <path d="M 320.132187 127.409746 
L 320.132187 132.886972 
L 325.609413 132.886972 
L 325.609413 127.409746 
z
" clip-path="url(#p7dfa93f539)" style="fill: #55a868; fill-opacity: 0.8; stroke: #ffffff; stroke-opacity: 0.8; stroke-width: 0.619677"/>
    <path d="M 327.718721 72.889614 
L 327.718721 78.36684 
L 333.195947 78.36684 
L 333.195947 72.889614 
z
" clip-path="url(#p7dfa93f539)" style="fill: #55a868; fill-opacity: 0.8; stroke: #ffffff; stroke-opacity: 0.8; stroke-width: 0.619677"/>
    <path d="M 84.400829 174.874726 
L 84.400829 180.351952 
L 89.878055 180.351952 
L 89.878055 174.874726 
z
" clip-path="url(#p7dfa93f539)" style="fill: #55a868; fill-opacity: 0.8; stroke: #ffffff; stroke-opacity: 0.8; stroke-width: 0.619677"/>
    <path d="M 331.577832 110.584224 
L 331.577832 116.06145 
L 337.055058 116.06145 
L 337.055058 110.584224 
z
" clip-path="url(#p7dfa93f539)" style="fill: #55a868; fill-opacity: 0.8; stroke: #ffffff; stroke-opacity: 0.8; stroke-width: 0.619677"/>
    <path d="M 325.635014 195.818563 
L 325.635014 201.295788 
L 331.11224 201.295788 
L 331.11224 195.818563 
z
" clip-path="url(#p7dfa93f539)" style="fill: #55a868; fill-opacity: 0.8; stroke: #ffffff; stroke-opacity: 0.8; stroke-width: 0.619677"/>
    <path d="M 56.955346 209.848893 
L 56.955346 215.326119 
L 62.432571 215.326119 
L 62.432571 209.848893 
z
" clip-path="url(#p7dfa93f539)" style="fill: #55a868; fill-opacity: 0.8; stroke: #ffffff; stroke-opacity: 0.8; stroke-width: 0.619677"/>
    <path d="M 198.386433 189.037122 
L 198.386433 194.514348 
L 203.863659 194.514348 
L 203.863659 189.037122 
z
" clip-path="url(#p7dfa93f539)" style="fill: #55a868; fill-opacity: 0.8; stroke: #ffffff; stroke-opacity: 0.8; stroke-width: 0.619677"/>
    <path d="M 115.290202 200.762083 
L 115.290202 206.239309 
L 120.767427 206.239309 
L 120.767427 200.762083 
z
" clip-path="url(#p7dfa93f539)" style="fill: #55a868; fill-opacity: 0.8; stroke: #ffffff; stroke-opacity: 0.8; stroke-width: 0.619677"/>
    <path d="M 207.680777 150.263141 
L 207.680777 155.740366 
L 213.158003 155.740366 
L 213.158003 150.263141 
z
" clip-path="url(#p7dfa93f539)" style="fill: #55a868; fill-opacity: 0.8; stroke: #ffffff; stroke-opacity: 0.8; stroke-width: 0.619677"/>
    <path d="M 330.892101 94.183369 
L 330.892101 99.660594 
L 336.369327 99.660594 
L 336.369327 94.183369 
z
" clip-path="url(#p7dfa93f539)" style="fill: #55a868; fill-opacity: 0.8; stroke: #ffffff; stroke-opacity: 0.8; stroke-width: 0.619677"/>
    <path d="M 61.449406 203.947154 
L 61.449406 209.424379 
L 66.926632 209.424379 
L 66.926632 203.947154 
z
" clip-path="url(#p7dfa93f539)" style="fill: #55a868; fill-opacity: 0.8; stroke: #ffffff; stroke-opacity: 0.8; stroke-width: 0.619677"/>
    <path d="M 259.33332 135.023507 
L 259.33332 140.500733 
L 264.810546 140.500733 
L 264.810546 135.023507 
z
" clip-path="url(#p7dfa93f539)" style="fill: #55a868; fill-opacity: 0.8; stroke: #ffffff; stroke-opacity: 0.8; stroke-width: 0.619677"/>
    <path d="M 164.159315 208.61739 
L 164.159315 214.094616 
L 169.636541 214.094616 
L 169.636541 208.61739 
z
" clip-path="url(#p7dfa93f539)" style="fill: #55a868; fill-opacity: 0.8; stroke: #ffffff; stroke-opacity: 0.8; stroke-width: 0.619677"/>
    <path d="M 334.826885 92.661511 
L 334.826885 98.138737 
L 340.304111 98.138737 
L 340.304111 92.661511 
z
" clip-path="url(#p7dfa93f539)" style="fill: #55a868; fill-opacity: 0.8; stroke: #ffffff; stroke-opacity: 0.8; stroke-width: 0.619677"/>
    <path d="M 350.010447 181.955239 
L 350.010447 187.432465 
L 355.487673 187.432465 
L 355.487673 181.955239 
z
" clip-path="url(#p7dfa93f539)" style="fill: #55a868; fill-opacity: 0.8; stroke: #ffffff; stroke-opacity: 0.8; stroke-width: 0.619677"/>
    <path d="M 333.940134 55.792982 
L 333.940134 61.270208 
L 339.417359 61.270208 
L 339.417359 55.792982 
z
" clip-path="url(#p7dfa93f539)" style="fill: #55a868; fill-opacity: 0.8; stroke: #ffffff; stroke-opacity: 0.8; stroke-width: 0.619677"/>
    <path d="M 153.764357 194.848302 
L 153.764357 200.325528 
L 159.241583 200.325528 
L 159.241583 194.848302 
z
" clip-path="url(#p7dfa93f539)" style="fill: #55a868; fill-opacity: 0.8; stroke: #ffffff; stroke-opacity: 0.8; stroke-width: 0.619677"/>
    <path d="M 261.937155 132.807181 
L 261.937155 138.284407 
L 267.41438 138.284407 
L 267.41438 132.807181 
z
" clip-path="url(#p7dfa93f539)" style="fill: #55a868; fill-opacity: 0.8; stroke: #ffffff; stroke-opacity: 0.8; stroke-width: 0.619677"/>
    <path d="M 94.227261 189.98818 
L 94.227261 195.465406 
L 99.704486 195.465406 
L 99.704486 189.98818 
z
" clip-path="url(#p7dfa93f539)" style="fill: #55a868; fill-opacity: 0.8; stroke: #ffffff; stroke-opacity: 0.8; stroke-width: 0.619677"/>
    <path d="M 111.370809 212.280184 
L 111.370809 217.75741 
L 116.848035 217.75741 
L 116.848035 212.280184 
z
" clip-path="url(#p7dfa93f539)" style="fill: #55a868; fill-opacity: 0.8; stroke: #ffffff; stroke-opacity: 0.8; stroke-width: 0.619677"/>
    <path d="M 332.250239 69.502269 
L 332.250239 74.979494 
L 337.727465 74.979494 
L 337.727465 69.502269 
z
" clip-path="url(#p7dfa93f539)" style="fill: #55a868; fill-opacity: 0.8; stroke: #ffffff; stroke-opacity: 0.8; stroke-width: 0.619677"/>
    <path d="M 161.787842 172.74245 
L 161.787842 178.219675 
L 167.265067 178.219675 
L 167.265067 172.74245 
z
" clip-path="url(#p7dfa93f539)" style="fill: #55a868; fill-opacity: 0.8; stroke: #ffffff; stroke-opacity: 0.8; stroke-width: 0.619677"/>
    <path d="M 331.747782 80.51416 
L 331.747782 85.991386 
L 337.225008 85.991386 
L 337.225008 80.51416 
z
" clip-path="url(#p7dfa93f539)" style="fill: #55a868; fill-opacity: 0.8; stroke: #ffffff; stroke-opacity: 0.8; stroke-width: 0.619677"/>
    <path d="M 195.743199 142.934558 
L 195.743199 148.411784 
L 201.220424 148.411784 
L 201.220424 142.934558 
z
" clip-path="url(#p7dfa93f539)" style="fill: #55a868; fill-opacity: 0.8; stroke: #ffffff; stroke-opacity: 0.8; stroke-width: 0.619677"/>
    <path d="M 184.553243 190.508887 
L 184.553243 195.986113 
L 190.030469 195.986113 
L 190.030469 190.508887 
z
" clip-path="url(#p7dfa93f539)" style="fill: #55a868; fill-opacity: 0.8; stroke: #ffffff; stroke-opacity: 0.8; stroke-width: 0.619677"/>
    <path d="M 338.884512 81.682462 
L 338.884512 87.159688 
L 344.361738 87.159688 
L 344.361738 81.682462 
z
" clip-path="url(#p7dfa93f539)" style="fill: #55a868; fill-opacity: 0.8; stroke: #ffffff; stroke-opacity: 0.8; stroke-width: 0.619677"/>
    <path d="M 170.50111 202.893004 
L 170.50111 208.37023 
L 175.978335 208.37023 
L 175.978335 202.893004 
z
" clip-path="url(#p7dfa93f539)" style="fill: #55a868; fill-opacity: 0.8; stroke: #ffffff; stroke-opacity: 0.8; stroke-width: 0.619677"/>
    <path d="M 56.731251 218.216758 
L 56.731251 223.693983 
L 62.208476 223.693983 
L 62.208476 218.216758 
z
" clip-path="url(#p7dfa93f539)" style="fill: #55a868; fill-opacity: 0.8; stroke: #ffffff; stroke-opacity: 0.8; stroke-width: 0.619677"/>
    <path d="M 257.665877 116.025076 
L 257.665877 121.502301 
L 263.143102 121.502301 
L 263.143102 116.025076 
z
" clip-path="url(#p7dfa93f539)" style="fill: #55a868; fill-opacity: 0.8; stroke: #ffffff; stroke-opacity: 0.8; stroke-width: 0.619677"/>
    <path d="M 274.226709 104.335529 
L 274.226709 109.812755 
L 279.703935 109.812755 
L 279.703935 104.335529 
z
" clip-path="url(#p7dfa93f539)" style="fill: #55a868; fill-opacity: 0.8; stroke: #ffffff; stroke-opacity: 0.8; stroke-width: 0.619677"/>
    <path d="M 258.090629 122.062504 
L 258.090629 127.539729 
L 263.567855 127.539729 
L 263.567855 122.062504 
z
" clip-path="url(#p7dfa93f539)" style="fill: #55a868; fill-opacity: 0.8; stroke: #ffffff; stroke-opacity: 0.8; stroke-width: 0.619677"/>
    <path d="M 227.538895 164.792395 
L 227.538895 170.26962 
L 233.01612 170.26962 
L 233.01612 164.792395 
z
" clip-path="url(#p7dfa93f539)" style="fill: #55a868; fill-opacity: 0.8; stroke: #ffffff; stroke-opacity: 0.8; stroke-width: 0.619677"/>
    <path d="M 240.655451 162.644773 
L 240.655451 168.121999 
L 246.132676 168.121999 
L 246.132676 162.644773 
z
" clip-path="url(#p7dfa93f539)" style="fill: #55a868; fill-opacity: 0.8; stroke: #ffffff; stroke-opacity: 0.8; stroke-width: 0.619677"/>
    <path d="M 323.59341 126.650337 
L 323.59341 132.127563 
L 329.070635 132.127563 
L 329.070635 126.650337 
z
" clip-path="url(#p7dfa93f539)" style="fill: #55a868; fill-opacity: 0.8; stroke: #ffffff; stroke-opacity: 0.8; stroke-width: 0.619677"/>
    <path d="M 210.691436 159.245264 
L 210.691436 164.722489 
L 216.168662 164.722489 
L 216.168662 159.245264 
z
" clip-path="url(#p7dfa93f539)" style="fill: #55a868; fill-opacity: 0.8; stroke: #ffffff; stroke-opacity: 0.8; stroke-width: 0.619677"/>
    <path d="M 108.44622 210.966501 
L 108.44622 216.443727 
L 113.923445 216.443727 
L 113.923445 210.966501 
z
" clip-path="url(#p7dfa93f539)" style="fill: #55a868; fill-opacity: 0.8; stroke: #ffffff; stroke-opacity: 0.8; stroke-width: 0.619677"/>
   </g>
   <g id="line2d_11"/>
   <g id="line2d_12"/>
   <g id="line2d_13"/>
   <g id="patch_3">
    <path d="M 42.4603 238.22475 
L 42.4603 21.64635 
" style="fill: none; stroke: #cccccc; stroke-linejoin: miter; stroke-linecap: square"/>
   </g>
   <g id="patch_4">
    <path d="M 416.6707 238.22475 
L 416.6707 21.64635 
" style="fill: none; stroke: #cccccc; stroke-linejoin: miter; stroke-linecap: square"/>
   </g>
   <g id="patch_5">
    <path d="M 42.4603 238.22475 
L 416.6707 238.22475 
" style="fill: none; stroke: #cccccc; stroke-linejoin: miter; stroke-linecap: square"/>
   </g>
   <g id="patch_6">
    <path d="M 42.4603 21.64635 
L 416.6707 21.64635 
" style="fill: none; stroke: #cccccc; stroke-linejoin: miter; stroke-linecap: square"/>
   </g>
   <g id="text_13">
    <text style="fill: #262626; font: 10.56px 'Arial', 'DejaVu Sans', 'Liberation Sans', 'Bitstream Vera Sans', sans-serif; text-anchor: middle" x="229.5655" y="15.64635" transform="rotate(-0 229.5655 15.64635)">Relación fitness – error de parámetros</text>
   </g>
   <g id="legend_1">
    <g id="patch_7">
     <path d="M 49.2363 87.34495 
L 177.61125 87.34495 
Q 179.54725 87.34495 179.54725 85.40895 
L 179.54725 28.42235 
Q 179.54725 26.48635 177.61125 26.48635 
L 49.2363 26.48635 
Q 47.3003 26.48635 47.3003 28.42235 
L 47.3003 85.40895 
Q 47.3003 87.34495 49.2363 87.34495 
z
" style="fill: #ffffff; opacity: 0.8; stroke: #cccccc; stroke-width: 0.8; stroke-linejoin: miter"/>
    </g>
    <g id="text_14">
     <text style="fill: #262626; font: 10.56px 'Arial', 'DejaVu Sans', 'Liberation Sans', 'Bitstream Vera Sans', sans-serif; text-anchor: start" x="87.942" y="38.3823" transform="rotate(-0 87.942 38.3823)">algorithm</text>
    </g>
    <g id="line2d_14">
     <defs>
      <path id="m79d422e47a" d="M 0 3.872983 
C 1.027127 3.872983 2.012324 3.464901 2.738613 2.738613 
C 3.464901 2.012324 3.872983 1.027127 3.872983 0 
C 3.872983 -1.027127 3.464901 -2.012324 2.738613 -2.738613 
C 2.012324 -3.464901 1.027127 -3.872983 0 -3.872983 
C -1.027127 -3.872983 -2.012324 -3.464901 -2.738613 -2.738613 
C -3.464901 -2.012324 -3.872983 -1.027127 -3.872983 0 
C -3.872983 1.027127 -3.464901 2.012324 -2.738613 2.738613 
C -2.012324 3.464901 -1.027127 3.872983 0 3.872983 
z
" style="stroke: #ffffff; stroke-opacity: 0.8; stroke-width: 0.619677"/>
     </defs>
     <g>
      <use xlink:href="#m79d422e47a" x="60.8523" y="49.385738" style="fill: #4c72b0; fill-opacity: 0.8; stroke: #ffffff; stroke-opacity: 0.8; stroke-width: 0.619677"/>
     </g>
    </g>
    <g id="text_15">
     <text style="fill: #262626; font: 9.68px 'Arial', 'DejaVu Sans', 'Liberation Sans', 'Bitstream Vera Sans', sans-serif; text-anchor: start" x="78.2763" y="52.773738" transform="rotate(-0 78.2763 52.773738)">GA</text>
    </g>
    <g id="line2d_15">
     <defs>
      <path id="m0d4e42043f" d="M -1.936492 3.872983 
L 0 1.936492 
L 1.936492 3.872983 
L 3.872983 1.936492 
L 1.936492 0 
L 3.872983 -1.936492 
L 1.936492 -3.872983 
L 0 -1.936492 
L -1.936492 -3.872983 
L -3.872983 -1.936492 
L -1.936492 0 
L -3.872983 1.936492 
z
" style="stroke: #ffffff; stroke-opacity: 0.8; stroke-width: 0.619677; stroke-linejoin: miter"/>
     </defs>
     <g>
      <use xlink:href="#m0d4e42043f" x="60.8523" y="63.594163" style="fill: #dd8452; fill-opacity: 0.8; stroke: #ffffff; stroke-opacity: 0.8; stroke-width: 0.619677; stroke-linejoin: miter"/>
     </g>
    </g>
    <g id="text_16">
     <text style="fill: #262626; font: 9.68px 'Arial', 'DejaVu Sans', 'Liberation Sans', 'Bitstream Vera Sans', sans-serif; text-anchor: start" x="78.2763" y="66.982163" transform="rotate(-0 78.2763 66.982163)">PSO</text>
    </g>
    <g id="line2d_16">
     <defs>
      <path id="m540fcacba7" d="M -2.738613 -2.738613 
L -2.738613 2.738613 
L 2.738613 2.738613 
L 2.738613 -2.738613 
z
" style="stroke: #ffffff; stroke-opacity: 0.8; stroke-width: 0.619677; stroke-linejoin: miter"/>
     </defs>
     <g>
      <use xlink:href="#m540fcacba7" x="60.8523" y="77.802588" style="fill: #55a868; fill-opacity: 0.8; stroke: #ffffff; stroke-opacity: 0.8; stroke-width: 0.619677; stroke-linejoin: miter"/>
     </g>
    </g>
    <g id="text_17">
     <text style="fill: #262626; font: 9.68px 'Arial', 'DejaVu Sans', 'Liberation Sans', 'Bitstream Vera Sans', sans-serif; text-anchor: start" x="78.2763" y="81.190588" transform="rotate(-0 78.2763 81.190588)">HYBRID_PSO_LBFGS</text>
    </g>
   </g>
  </g>
 </g>
 <defs>
  <clipPath id="p7dfa93f539">
   <rect x="42.4603" y="21.64635" width="374.2104" height="216.5784"/>
  </clipPath>
 </defs>
</svg>
