<?xml version="1.0" encoding="utf-8" standalone="no"?>
<!DOCTYPE svg PUBLIC "-//W3C//DTD SVG 1.1//EN"
  "http://www.w3.org/Graphics/SVG/1.1/DTD/svg11.dtd">
<svg xmlns:xlink="http://www.w3.org/1999/xlink" width="494.203125pt" height="281.634375pt" viewBox="0 0 494.203125 281.634375" xmlns="http://www.w3.org/2000/svg" version="1.1">
 <metadata>
  <rdf:RDF xmlns:dc="http://purl.org/dc/elements/1.1/" xmlns:cc="http://creativecommons.org/ns#" xmlns:rdf="http://www.w3.org/1999/02/22-rdf-syntax-ns#">
   <cc:Work>
    <dc:type rdf:resource="http://purl.org/dc/dcmitype/StillImage"/>
    <dc:date>2025-11-28T07:09:24.986370</dc:date>
    <dc:format>image/svg+xml</dc:format>
    <dc:creator>
     <cc:Agent>
      <dc:title>Matplotlib v3.9.2, https://matplotlib.org/</dc:title>
     </cc:Agent>
    </dc:creator>
   </cc:Work>
  </rdf:RDF>
 </metadata>
 <defs>
  <style type="text/css">*{stroke-linejoin: round; stroke-linecap: butt}</style>
 </defs>
 <g id="figure_1">
  <g id="patch_1">
   <path d="M 0 281.634375 
L 494.203125 281.634375 
L 494.203125 0 
L 0 0 
z
" style="fill: #ffffff"/>
  </g>
  <g id="axes_1">
   <g id="patch_2">
    <path d="M 40.603125 244.078125 
L 487.003125 244.078125 
L 487.003125 22.318125 
L 40.603125 22.318125 
z
" style="fill: #ffffff"/>
   </g>
   <g id="PolyCollection_1">
    <defs>
     <path id="ma9bc7fda2a" d="M 60.894034 -47.63625 
L 60.894034 -47.63625 
L 61.300258 -107.10193 
L 61.706483 -154.869313 
L 62.112707 -191.378852 
L 62.518932 -217.040425 
L 62.925156 -232.318661 
L 63.331381 -239.436472 
L 63.737605 -240.167219 
L 64.143829 -236.010159 
L 64.550054 -228.385522 
L 64.956278 -218.84741 
L 65.362503 -208.410938 
L 65.768727 -197.881094 
L 66.174951 -189.367605 
L 66.581176 -184.6245 
L 66.9874 -184.826092 
L 67.393624 -189.512853 
L 67.799849 -197.134424 
L 68.206074 -205.670304 
L 68.612298 -213.493338 
L 69.018522 -219.361549 
L 69.424747 -222.419096 
L 69.830971 -221.669122 
L 70.237195 -218.967425 
L 70.64342 -214.199159 
L 71.049644 -207.171519 
L 71.455868 -199.307723 
L 71.862093 -191.162115 
L 72.268317 -183.656887 
L 72.674542 -177.641619 
L 73.080766 -173.75389 
L 73.486991 -172.957938 
L 73.893215 -175.530347 
L 74.299439 -181.174575 
L 74.705663 -189.062883 
L 75.111887 -198.0681 
L 75.518113 -207.128213 
L 75.924337 -215.185433 
L 76.330561 -220.593633 
L 76.736786 -224.15029 
L 77.14301 -225.347208 
L 77.549234 -224.117736 
L 77.95546 -220.575027 
L 78.361684 -215.462999 
L 78.767908 -207.625251 
L 79.174132 -198.690705 
L 79.580356 -189.272838 
L 79.98658 -180.21524 
L 80.392806 -172.345945 
L 80.79903 -166.47944 
L 81.205254 -163.291354 
L 81.611479 -163.043676 
L 82.017703 -165.492732 
L 82.423927 -170.073974 
L 82.830151 -176.012375 
L 83.236377 -182.487585 
L 83.642601 -187.153466 
L 84.048825 -192.402694 
L 84.455049 -196.712261 
L 84.861273 -199.803214 
L 85.267498 -201.51625 
L 85.673723 -201.798175 
L 86.079947 -200.687216 
L 86.486172 -198.562676 
L 86.892396 -194.509191 
L 87.29862 -189.684752 
L 87.704844 -184.187306 
L 88.111068 -178.456141 
L 88.517292 -172.801519 
L 88.923517 -167.501916 
L 89.329741 -162.779164 
L 89.735968 -158.860076 
L 90.142192 -156.104984 
L 90.548416 -153.601097 
L 90.95464 -151.229231 
L 91.360865 -149.550345 
L 91.767089 -148.23685 
L 92.173313 -146.997491 
L 92.579537 -145.715138 
L 92.985761 -143.555506 
L 93.391985 -140.979212 
L 93.79821 -138.776914 
L 94.204434 -136.42689 
L 94.610658 -133.788199 
L 95.016885 -130.882203 
L 95.423109 -127.740554 
L 95.829333 -124.472496 
L 96.235558 -121.402013 
L 96.641782 -117.837009 
L 97.048006 -114.074142 
L 97.45423 -110.331235 
L 97.860454 -106.646581 
L 98.266678 -103.054195 
L 98.672903 -99.585731 
L 99.079127 -96.272399 
L 99.485351 -93.146252 
L 99.891578 -90.270595 
L 100.297802 -87.653422 
L 100.704026 -85.323245 
L 101.110251 -83.304455 
L 101.516475 -81.610413 
L 101.922699 -80.239554 
L 102.328923 -79.173189 
L 102.735147 -78.337899 
L 103.141371 -77.723492 
L 103.547596 -77.261448 
L 103.95382 -76.883851 
L 104.360044 -76.57299 
L 104.766268 -76.29004 
L 105.172495 -75.990462 
L 105.578719 -75.638575 
L 105.984944 -75.207209 
L 106.391168 -74.66849 
L 106.797392 -74.022142 
L 107.203616 -73.26617 
L 107.60984 -72.393453 
L 108.016064 -71.409575 
L 108.422289 -70.346019 
L 108.828513 -69.222339 
L 109.234737 -68.061674 
L 109.640961 -66.88142 
L 110.047185 -65.7157 
L 110.453412 -64.590678 
L 110.859637 -63.108257 
L 111.265861 -62.117218 
L 111.672085 -61.251578 
L 112.078309 -60.440091 
L 112.484533 -59.800148 
L 112.890757 -59.384611 
L 113.296981 -59.187535 
L 113.703206 -59.178984 
L 114.10943 -59.311868 
L 114.515654 -59.501094 
L 114.921878 -59.677496 
L 115.328102 -59.877513 
L 115.734326 -60.182984 
L 116.140551 -60.511088 
L 116.546775 -60.70501 
L 116.952999 -60.856439 
L 117.359223 -60.976501 
L 117.765447 -61.066407 
L 118.171678 -61.12997 
L 118.577902 -61.172786 
L 118.984126 -61.201455 
L 119.39035 -61.222868 
L 119.796574 -61.243539 
L 120.202798 -61.269072 
L 120.609022 -61.303719 
L 121.015247 -61.350127 
L 121.421471 -61.408588 
L 121.827695 -61.475971 
L 122.233919 -61.552162 
L 122.640143 -61.628691 
L 123.046367 -61.708014 
L 123.452592 -61.785966 
L 123.858816 -61.855813 
L 124.26504 -61.91435 
L 124.671264 -61.960304 
L 125.077488 -61.990836 
L 125.483712 -62.003798 
L 125.889937 -61.994243 
L 126.296161 -61.964802 
L 126.702385 -61.917352 
L 127.108609 -61.852266 
L 127.514833 -61.749417 
L 127.921057 -61.618302 
L 128.327282 -61.459009 
L 128.733512 -61.266195 
L 129.139736 -61.041774 
L 129.54596 -60.801826 
L 129.952184 -60.634126 
L 130.358408 -60.436031 
L 130.764633 -60.234927 
L 131.170857 -60.029161 
L 131.577081 -59.863034 
L 131.983305 -59.724371 
L 132.389529 -59.616158 
L 132.795753 -59.530517 
L 133.201978 -59.471932 
L 133.608202 -59.438653 
L 134.014426 -59.427742 
L 134.42065 -59.435884 
L 134.826874 -59.459661 
L 135.233098 -59.495773 
L 135.639323 -59.541202 
L 136.045547 -59.59335 
L 136.451771 -59.650072 
L 136.857995 -59.709715 
L 137.264219 -59.771062 
L 137.670443 -59.83329 
L 138.076668 -59.895882 
L 138.482892 -59.95853 
L 138.889122 -60.021062 
L 139.295346 -60.079703 
L 139.70157 -60.186587 
L 140.107794 -60.257421 
L 140.514019 -60.291943 
L 140.920243 -60.325364 
L 141.326467 -60.381951 
L 141.732691 -60.435679 
L 142.138915 -60.48573 
L 142.545139 -60.531244 
L 142.951364 -60.570968 
L 143.357588 -60.597367 
L 143.763812 -60.617732 
L 144.170036 -60.631644 
L 144.57626 -60.638826 
L 144.982484 -60.63917 
L 145.388709 -60.632735 
L 145.794933 -60.619754 
L 146.201157 -60.600628 
L 146.607381 -60.575904 
L 147.013605 -60.546266 
L 147.419829 -60.512503 
L 147.826054 -60.475487 
L 148.232278 -60.436134 
L 148.638502 -60.400321 
L 149.044726 -60.36741 
L 149.450956 -60.334486 
L 149.85718 -60.297287 
L 150.263405 -60.262566 
L 150.669629 -60.230863 
L 151.075853 -60.168509 
L 151.482077 -60.081168 
L 151.888301 -60.048255 
L 152.294525 -60.021794 
L 152.70075 -60.000238 
L 153.106974 -59.983591 
L 153.513198 -59.971751 
L 153.919422 -59.964525 
L 154.325646 -59.961644 
L 154.73187 -59.96279 
L 155.138095 -59.967602 
L 155.544319 -59.975696 
L 155.950543 -59.98668 
L 156.356767 -60.000158 
L 156.762991 -60.015736 
L 157.169215 -60.033034 
L 157.57544 -60.051681 
L 157.981664 -60.071328 
L 158.387888 -60.091634 
L 158.794112 -60.112279 
L 159.200336 -60.147732 
L 159.60656 -60.198249 
L 160.012791 -60.248432 
L 160.419015 -60.27362 
L 160.825239 -60.284858 
L 161.231463 -60.295218 
L 161.637687 -60.304579 
L 162.043911 -60.312824 
L 162.450136 -60.318281 
L 162.85636 -60.323017 
L 163.262584 -60.326995 
L 163.668808 -60.330194 
L 164.075032 -60.332599 
L 164.481256 -60.334219 
L 164.887481 -60.335067 
L 165.293705 -60.333779 
L 165.699929 -60.330979 
L 166.106153 -60.327211 
L 166.512377 -60.322592 
L 166.918601 -60.317246 
L 167.324826 -60.311309 
L 167.73105 -60.304919 
L 168.137274 -60.298213 
L 168.543498 -60.291328 
L 168.949722 -60.284398 
L 169.355946 -60.27755 
L 169.762171 -60.270903 
L 170.168395 -60.26456 
L 170.574619 -60.25299 
L 170.980843 -60.23956 
L 171.387067 -60.217588 
L 171.793291 -60.191482 
L 172.199516 -60.168327 
L 172.60574 -60.148368 
L 173.011964 -60.131771 
L 173.418188 -60.125416 
L 173.824412 -60.123322 
L 174.230636 -60.122311 
L 174.636861 -60.122333 
L 175.043085 -60.123319 
L 175.449321 -60.125198 
L 175.855545 -60.127884 
L 176.261769 -60.131283 
L 176.667993 -60.135299 
L 177.074218 -60.142608 
L 177.480442 -60.157315 
L 177.886666 -60.173412 
L 178.29289 -60.190594 
L 178.699114 -60.208554 
L 179.105338 -60.226988 
L 179.511563 -60.245601 
L 179.917787 -60.256715 
L 180.324011 -60.264334 
L 180.730235 -60.269524 
L 181.136459 -60.271938 
L 181.542683 -60.274098 
L 181.948908 -60.275984 
L 182.355132 -60.277578 
L 182.761356 -60.278868 
L 183.16758 -60.279849 
L 183.573804 -60.280523 
L 183.980028 -60.280895 
L 184.386253 -60.280977 
L 184.792477 -60.280783 
L 185.198701 -60.280332 
L 185.604925 -60.279648 
L 186.011149 -60.278754 
L 186.417373 -60.277676 
L 186.823598 -60.276441 
L 187.229822 -60.275081 
L 187.636046 -60.273625 
L 188.04227 -60.272105 
L 188.448494 -60.270551 
L 188.854718 -60.268992 
L 189.260943 -60.267453 
L 189.667167 -60.265963 
L 190.073391 -60.264456 
L 190.479615 -60.26013 
L 190.885839 -60.256049 
L 191.292063 -60.25227 
L 191.698287 -60.248845 
L 192.104512 -60.24581 
L 192.510736 -60.238878 
L 192.91696 -60.232839 
L 193.323184 -60.227936 
L 193.729408 -60.224196 
L 194.135632 -60.221627 
L 194.541857 -60.220214 
L 194.948081 -60.219924 
L 195.354305 -60.220712 
L 195.760529 -60.22251 
L 196.166765 -60.225249 
L 196.57299 -60.228838 
L 196.979214 -60.233183 
L 197.385438 -60.23818 
L 197.791662 -60.243719 
L 198.197886 -60.249687 
L 198.60411 -60.252281 
L 199.010335 -60.254805 
L 199.416559 -60.257336 
L 199.822783 -60.259837 
L 200.229007 -60.262267 
L 200.635231 -60.264589 
L 201.041455 -60.266562 
L 201.44768 -60.267054 
L 201.853904 -60.26748 
L 202.260128 -60.267836 
L 202.666352 -60.268123 
L 203.072576 -60.268337 
L 203.4788 -60.268478 
L 203.885025 -60.26855 
L 204.291249 -60.268557 
L 204.697473 -60.268499 
L 205.103697 -60.268382 
L 205.509921 -60.268211 
L 205.916145 -60.267994 
L 206.322369 -60.267737 
L 206.728594 -60.267447 
L 207.134818 -60.267131 
L 207.541042 -60.266795 
L 207.947266 -60.266447 
L 208.35349 -60.266093 
L 208.759714 -60.265737 
L 209.165939 -60.265386 
L 209.572163 -60.264727 
L 209.978387 -60.263307 
L 210.384611 -60.261936 
L 210.790835 -60.260632 
L 211.197059 -60.259416 
L 211.603284 -60.258306 
L 212.009508 -60.257314 
L 212.415732 -60.256451 
L 212.821956 -60.255724 
L 213.22818 -60.255141 
L 213.634404 -60.254704 
L 214.040629 -60.254412 
L 214.446853 -60.254265 
L 214.853077 -60.254255 
L 215.259301 -60.254377 
L 215.665525 -60.254624 
L 216.071749 -60.254985 
L 216.477974 -60.255452 
L 216.88421 -60.25601 
L 217.290434 -60.256647 
L 217.696658 -60.257348 
L 218.102882 -60.258099 
L 218.509107 -60.258885 
L 218.915331 -60.259693 
L 219.321555 -60.260508 
L 219.727779 -60.261317 
L 220.134003 -60.262108 
L 220.540227 -60.262868 
L 220.946451 -60.263585 
L 221.352676 -60.264249 
L 221.7589 -60.264851 
L 222.165124 -60.265384 
L 222.571348 -60.265623 
L 222.977572 -60.265665 
L 223.383796 -60.265692 
L 223.790021 -60.265704 
L 224.196245 -60.265701 
L 224.602469 -60.265685 
L 225.008693 -60.265656 
L 225.414917 -60.265616 
L 225.821141 -60.265566 
L 226.227366 -60.265508 
L 226.63359 -60.265441 
L 227.039814 -60.265368 
L 227.446038 -60.26529 
L 227.852262 -60.265052 
L 228.258486 -60.264615 
L 228.664711 -60.264162 
L 229.070935 -60.263698 
L 229.477159 -60.263234 
L 229.883383 -60.262777 
L 230.289607 -60.262333 
L 230.695831 -60.261908 
L 231.102056 -60.261508 
L 231.50828 -60.261136 
L 231.914504 -60.2608 
L 232.320728 -60.260504 
L 232.726952 -60.260252 
L 233.133176 -60.260046 
L 233.539401 -60.259888 
L 233.945625 -60.259779 
L 234.351849 -60.259717 
L 234.758073 -60.2597 
L 235.164297 -60.259725 
L 235.570521 -60.259791 
L 235.976746 -60.259895 
L 236.38297 -60.260034 
L 236.789194 -60.260206 
L 237.195418 -60.260406 
L 237.601642 -60.260629 
L 238.007878 -60.26087 
L 238.414103 -60.261123 
L 238.820327 -60.261384 
L 239.226551 -60.261649 
L 239.632775 -60.261913 
L 240.038999 -60.262173 
L 240.445223 -60.262424 
L 240.851448 -60.262663 
L 241.257672 -60.262887 
L 241.663896 -60.263092 
L 242.07012 -60.263276 
L 242.476344 -60.263436 
L 242.882568 -60.263571 
L 243.288793 -60.26368 
L 243.695017 -60.263761 
L 244.101241 -60.263816 
L 244.507465 -60.263842 
L 244.913689 -60.263842 
L 245.319913 -60.263818 
L 245.726138 -60.26377 
L 246.132362 -60.263703 
L 246.538586 -60.263617 
L 246.94481 -60.263515 
L 247.351034 -60.263396 
L 247.757258 -60.263265 
L 248.163483 -60.263122 
L 248.569707 -60.262972 
L 248.975931 -60.262816 
L 249.382155 -60.26266 
L 249.788379 -60.262506 
L 250.194603 -60.262356 
L 250.600828 -60.262211 
L 251.007052 -60.262074 
L 251.413276 -60.261949 
L 251.8195 -60.261837 
L 252.225724 -60.261738 
L 252.631948 -60.261653 
L 253.038173 -60.261584 
L 253.444397 -60.261532 
L 253.850621 -60.261494 
L 254.256845 -60.261473 
L 254.663069 -60.261466 
L 255.069293 -60.261472 
L 255.475518 -60.26149 
L 255.881742 -60.26152 
L 256.287966 -60.261563 
L 256.69419 -60.261617 
L 257.100414 -60.261681 
L 257.506638 -60.261753 
L 257.912863 -60.26183 
L 258.319087 -60.261912 
L 258.725323 -60.261997 
L 259.131547 -60.262084 
L 259.537771 -60.262174 
L 259.943995 -60.262261 
L 260.35022 -60.262346 
L 260.756444 -60.262427 
L 261.162668 -60.262503 
L 261.568892 -60.262574 
L 261.975116 -60.262638 
L 262.38134 -60.262692 
L 262.787565 -60.262739 
L 263.193789 -60.262776 
L 263.600013 -60.262803 
L 264.006237 -60.262822 
L 264.412461 -60.262835 
L 264.818685 -60.262838 
L 265.22491 -60.262835 
L 265.631134 -60.262824 
L 266.037358 -60.262807 
L 266.443582 -60.262784 
L 266.849806 -60.262754 
L 267.25603 -60.262716 
L 267.662255 -60.262671 
L 268.068479 -60.262621 
L 268.474703 -60.262569 
L 268.880927 -60.262515 
L 269.287151 -60.262463 
L 269.693375 -60.262411 
L 270.0996 -60.262362 
L 270.505824 -60.262316 
L 270.912048 -60.262273 
L 271.318272 -60.262232 
L 271.724496 -60.262195 
L 272.13072 -60.262163 
L 272.536945 -60.262135 
L 272.943169 -60.262111 
L 273.349393 -60.262091 
L 273.755617 -60.262076 
L 274.161841 -60.262066 
L 274.568065 -60.262061 
L 274.97429 -60.26206 
L 275.380514 -60.262062 
L 275.786738 -60.262069 
L 276.192962 -60.262078 
L 276.599186 -60.262091 
L 277.00541 -60.262107 
L 277.411634 -60.262126 
L 277.817859 -60.262148 
L 278.224083 -60.262175 
L 278.630307 -60.262204 
L 279.036531 -60.262235 
L 279.442755 -60.262268 
L 279.849004 -60.2623 
L 280.255228 -60.262332 
L 280.661452 -60.262362 
L 281.067676 -60.262389 
L 281.4739 -60.262414 
L 281.880124 -60.262434 
L 282.286349 -60.262452 
L 282.692573 -60.262465 
L 283.098797 -60.262474 
L 283.505021 -60.262481 
L 283.911245 -60.262486 
L 284.317469 -60.262488 
L 284.723694 -60.26249 
L 285.129918 -60.26249 
L 285.536142 -60.26249 
L 285.942366 -60.262488 
L 286.34859 -60.262483 
L 286.754814 -60.262475 
L 287.161039 -60.262466 
L 287.567263 -60.262455 
L 287.973487 -60.262441 
L 288.379711 -60.262426 
L 288.785935 -60.26241 
L 289.192159 -60.262393 
L 289.598384 -60.262374 
L 290.004608 -60.262353 
L 290.410832 -60.262332 
L 290.817056 -60.262312 
L 291.22328 -60.262294 
L 291.629504 -60.262278 
L 292.035729 -60.262266 
L 292.441953 -60.262256 
L 292.848177 -60.262248 
L 293.254401 -60.262244 
L 293.660625 -60.262241 
L 294.066849 -60.262239 
L 294.473074 -60.262237 
L 294.879298 -60.262234 
L 295.285522 -60.262234 
L 295.691746 -60.262235 
L 296.09797 -60.262237 
L 296.504194 -60.262243 
L 296.910419 -60.262253 
L 297.316643 -60.262266 
L 297.722867 -60.262279 
L 298.129091 -60.262292 
L 298.535315 -60.262303 
L 298.941539 -60.262314 
L 299.347764 -60.262324 
L 299.753988 -60.262332 
L 300.160212 -60.262337 
L 300.566436 -60.262342 
L 300.97266 -60.262348 
L 301.378884 -60.262355 
L 301.785109 -60.262363 
L 302.191333 -60.262371 
L 302.597557 -60.262379 
L 303.003781 -60.262387 
L 303.410005 -60.262391 
L 303.816229 -60.262396 
L 304.222454 -60.262398 
L 304.628678 -60.262401 
L 305.034902 -60.262403 
L 305.441126 -60.262404 
L 305.84735 -60.262402 
L 306.253574 -60.262399 
L 306.659799 -60.262395 
L 307.066023 -60.262392 
L 307.472247 -60.262388 
L 307.878471 -60.262382 
L 308.284695 -60.262375 
L 308.690919 -60.262367 
L 309.097143 -60.26236 
L 309.503368 -60.262352 
L 309.909592 -60.262345 
L 310.315816 -60.262339 
L 310.72204 -60.262332 
L 311.128264 -60.262326 
L 311.534488 -60.262321 
L 311.940713 -60.262316 
L 312.346937 -60.262309 
L 312.753161 -60.262301 
L 313.159385 -60.262294 
L 313.565609 -60.262288 
L 313.971833 -60.262282 
L 314.378058 -60.262279 
L 314.784282 -60.262278 
L 315.190506 -60.26228 
L 315.59673 -60.262283 
L 316.002954 -60.262289 
L 316.409178 -60.262295 
L 316.815403 -60.2623 
L 317.221627 -60.262305 
L 317.627851 -60.262309 
L 318.034075 -60.262312 
L 318.440299 -60.262315 
L 318.846523 -60.262319 
L 319.252748 -60.262326 
L 319.658972 -60.262332 
L 320.065196 -60.262339 
L 320.47142 -60.262345 
L 320.877644 -60.26235 
L 321.283893 -60.262354 
L 321.690117 -60.262358 
L 322.096341 -60.262361 
L 322.502565 -60.262362 
L 322.908789 -60.262361 
L 323.315013 -60.262361 
L 323.721238 -60.262361 
L 324.127462 -60.262363 
L 324.533686 -60.262366 
L 324.93991 -60.262368 
L 325.346134 -60.26237 
L 325.752358 -60.262371 
L 326.158583 -60.262371 
L 326.564807 -60.26237 
L 326.971031 -60.262367 
L 327.377255 -60.262363 
L 327.783479 -60.262359 
L 328.189703 -60.262355 
L 328.595928 -60.26235 
L 329.002152 -60.262345 
L 329.408376 -60.262341 
L 329.8146 -60.262339 
L 330.220824 -60.262338 
L 330.627048 -60.262339 
L 331.033273 -60.262341 
L 331.439497 -60.262342 
L 331.845721 -60.262343 
L 332.251945 -60.262345 
L 332.658169 -60.262345 
L 333.064393 -60.262344 
L 333.470618 -60.262342 
L 333.876842 -60.262339 
L 334.283066 -60.262336 
L 334.68929 -60.262333 
L 335.095514 -60.262332 
L 335.501738 -60.262331 
L 335.907963 -60.262331 
L 336.314187 -60.262331 
L 336.720411 -60.262331 
L 337.126635 -60.262331 
L 337.532859 -60.262332 
L 337.939083 -60.262336 
L 338.345307 -60.262341 
L 338.751532 -60.262343 
L 339.157756 -60.262344 
L 339.56398 -60.262345 
L 339.970204 -60.262347 
L 340.376428 -60.262347 
L 340.782652 -60.262345 
L 341.188877 -60.262344 
L 341.595101 -60.262341 
L 342.001325 -60.262337 
L 342.407549 -60.262333 
L 342.813773 -60.26233 
L 343.219997 -60.26233 
L 343.626222 -60.26233 
L 344.032446 -60.262331 
L 344.43867 -60.262333 
L 344.844894 -60.262333 
L 345.251118 -60.262332 
L 345.657342 -60.262332 
L 346.063567 -60.26233 
L 346.469791 -60.262329 
L 346.876015 -60.262325 
L 347.282239 -60.262322 
L 347.688463 -60.262322 
L 348.094687 -60.262322 
L 348.500912 -60.26232 
L 348.907136 -60.262321 
L 349.31336 -60.262322 
L 349.719584 -60.262325 
L 350.125808 -60.262328 
L 350.532032 -60.262331 
L 350.938257 -60.262335 
L 351.344481 -60.262338 
L 351.750705 -60.262339 
L 352.156929 -60.262339 
L 352.563153 -60.262338 
L 352.969377 -60.262335 
L 353.375602 -60.262331 
L 353.781826 -60.262328 
L 354.18805 -60.262324 
L 354.594274 -60.262321 
L 355.000498 -60.262321 
L 355.406722 -60.262322 
L 355.812947 -60.262324 
L 356.219171 -60.262327 
L 356.625395 -60.26233 
L 357.031619 -60.262331 
L 357.437843 -60.26233 
L 357.844067 -60.26233 
L 358.250292 -60.262329 
L 358.656516 -60.26233 
L 359.06274 -60.262332 
L 359.468964 -60.262333 
L 359.875188 -60.262333 
L 360.281412 -60.262332 
L 360.687637 -60.262332 
L 361.093861 -60.262334 
L 361.500085 -60.262336 
L 361.906309 -60.262337 
L 362.312533 -60.262337 
L 362.718782 -60.262338 
L 363.125006 -60.26234 
L 363.53123 -60.262342 
L 363.937454 -60.262344 
L 364.343678 -60.262345 
L 364.749902 -60.262344 
L 365.156127 -60.262342 
L 365.562351 -60.262339 
L 365.968575 -60.262336 
L 366.374799 -60.262331 
L 366.781023 -60.262327 
L 367.187247 -60.262324 
L 367.593471 -60.262324 
L 367.999696 -60.262324 
L 368.40592 -60.262327 
L 368.812144 -60.26233 
L 369.218368 -60.262335 
L 369.624592 -60.262338 
L 370.030816 -60.262341 
L 370.437041 -60.262344 
L 370.843265 -60.262345 
L 371.249489 -60.262346 
L 371.655713 -60.262346 
L 372.061937 -60.262345 
L 372.468161 -60.262345 
L 372.874386 -60.262345 
L 373.28061 -60.262344 
L 373.686834 -60.262344 
L 374.093058 -60.262342 
L 374.499282 -60.262341 
L 374.905506 -60.26234 
L 375.311731 -60.262341 
L 375.717955 -60.262343 
L 376.124179 -60.262342 
L 376.530403 -60.262341 
L 376.936627 -60.262339 
L 377.342851 -60.262339 
L 377.749076 -60.262339 
L 378.1553 -60.26234 
L 378.561524 -60.262341 
L 378.967748 -60.262343 
L 379.373972 -60.262342 
L 379.780196 -60.262342 
L 380.186421 -60.262343 
L 380.592645 -60.262344 
L 380.998869 -60.262345 
L 381.405093 -60.262344 
L 381.811317 -60.262343 
L 382.217541 -60.262339 
L 382.623766 -60.262336 
L 383.02999 -60.262331 
L 383.436214 -60.262326 
L 383.842438 -60.262323 
L 384.248662 -60.262323 
L 384.654886 -60.262324 
L 385.061111 -60.262328 
L 385.467335 -60.262332 
L 385.873559 -60.262336 
L 386.279783 -60.26234 
L 386.686007 -60.262341 
L 387.092231 -60.262341 
L 387.498456 -60.262341 
L 387.90468 -60.26234 
L 388.310904 -60.262339 
L 388.717128 -60.262337 
L 389.123352 -60.262336 
L 389.529576 -60.262335 
L 389.935801 -60.262334 
L 390.342025 -60.262331 
L 390.748249 -60.262328 
L 391.154473 -60.262325 
L 391.560697 -60.262322 
L 391.966921 -60.262319 
L 392.373146 -60.262316 
L 392.77937 -60.262315 
L 393.185594 -60.262313 
L 393.591818 -60.262312 
L 393.998042 -60.26231 
L 394.404266 -60.262311 
L 394.81049 -60.262313 
L 395.216715 -60.262314 
L 395.622939 -60.262315 
L 396.029163 -60.262318 
L 396.435387 -60.262321 
L 396.841611 -60.262322 
L 397.247835 -60.262323 
L 397.65406 -60.262325 
L 398.060284 -60.262328 
L 398.466508 -60.262331 
L 398.872732 -60.262332 
L 399.278956 -60.262334 
L 399.68518 -60.262334 
L 400.091405 -60.262333 
L 400.497629 -60.262331 
L 400.903853 -60.262327 
L 401.310077 -60.262324 
L 401.716301 -60.26232 
L 402.122525 -60.262316 
L 402.52875 -60.262313 
L 402.934974 -60.262311 
L 403.341198 -60.262311 
L 403.747422 -60.262313 
L 404.153646 -60.262315 
L 404.559895 -60.262318 
L 404.966119 -60.262321 
L 405.372343 -60.262325 
L 405.778567 -60.262328 
L 406.184791 -60.262332 
L 406.591015 -60.262335 
L 406.99724 -60.262338 
L 407.403464 -60.262339 
L 407.809688 -60.262341 
L 408.215912 -60.262343 
L 408.622136 -60.262345 
L 409.02836 -60.262347 
L 409.434585 -60.262349 
L 409.840809 -60.262348 
L 410.247033 -60.262348 
L 410.653257 -60.262349 
L 411.059481 -60.262349 
L 411.465705 -60.262351 
L 411.87193 -60.26235 
L 412.278154 -60.262348 
L 412.684378 -60.262345 
L 413.090602 -60.26234 
L 413.496826 -60.262337 
L 413.90305 -60.262336 
L 414.309275 -60.262335 
L 414.715499 -60.262335 
L 415.121723 -60.262334 
L 415.527947 -60.262333 
L 415.934171 -60.262332 
L 416.340395 -60.262331 
L 416.74662 -60.26233 
L 417.152844 -60.262329 
L 417.559068 -60.262328 
L 417.965292 -60.262328 
L 418.371516 -60.26233 
L 418.77774 -60.262331 
L 419.183965 -60.262333 
L 419.590189 -60.262336 
L 419.996413 -60.262339 
L 420.402637 -60.262342 
L 420.808861 -60.262343 
L 421.215085 -60.262344 
L 421.62131 -60.262342 
L 422.027534 -60.26234 
L 422.433758 -60.262337 
L 422.839982 -60.262334 
L 423.246206 -60.262333 
L 423.65243 -60.262334 
L 424.058654 -60.262335 
L 424.464879 -60.262337 
L 424.871103 -60.262339 
L 425.277327 -60.26234 
L 425.683551 -60.26234 
L 426.089775 -60.26234 
L 426.495999 -60.26234 
L 426.902224 -60.26234 
L 427.308448 -60.262338 
L 427.714672 -60.262337 
L 428.120896 -60.262332 
L 428.52712 -60.262329 
L 428.933344 -60.262327 
L 429.339569 -60.262326 
L 429.745793 -60.262327 
L 430.152017 -60.26233 
L 430.558241 -60.262333 
L 430.964465 -60.262336 
L 431.370689 -60.262339 
L 431.776914 -60.262343 
L 432.183138 -60.262345 
L 432.589362 -60.262347 
L 432.995586 -60.262348 
L 433.40181 -60.26235 
L 433.808034 -60.262351 
L 434.214259 -60.262352 
L 434.620483 -60.262351 
L 435.026707 -60.262349 
L 435.432931 -60.262347 
L 435.839155 -60.262345 
L 436.245379 -60.262342 
L 436.651604 -60.262341 
L 437.057828 -60.262343 
L 437.464052 -60.262343 
L 437.870276 -60.262345 
L 438.2765 -60.262346 
L 438.682724 -60.262345 
L 439.088949 -60.262344 
L 439.495173 -60.262341 
L 439.901397 -60.262338 
L 440.307621 -60.262337 
L 440.713845 -60.262336 
L 441.120069 -60.262335 
L 441.526294 -60.262332 
L 441.932518 -60.26233 
L 442.338742 -60.26233 
L 442.744966 -60.262331 
L 443.15119 -60.262334 
L 443.557414 -60.262334 
L 443.963639 -60.262336 
L 444.369863 -60.262335 
L 444.776087 -60.262335 
L 445.182311 -60.262334 
L 445.588535 -60.262331 
L 445.994784 -60.262327 
L 446.401008 -60.262323 
L 446.807232 -60.262317 
L 447.213456 -60.262312 
L 447.61968 -60.262309 
L 448.025904 -60.262307 
L 448.432129 -60.262307 
L 448.838353 -60.26231 
L 449.244577 -60.262314 
L 449.650801 -60.262319 
L 450.057025 -60.262324 
L 450.463249 -60.262329 
L 450.869474 -60.262331 
L 451.275698 -60.262332 
L 451.681922 -60.262331 
L 452.088146 -60.262329 
L 452.49437 -60.262325 
L 452.900594 -60.26232 
L 453.306818 -60.262315 
L 453.713043 -60.26231 
L 454.119267 -60.262307 
L 454.525491 -60.262307 
L 454.931715 -60.262307 
L 455.337939 -60.262308 
L 455.744163 -60.262308 
L 456.150388 -60.262308 
L 456.556612 -60.26231 
L 456.962836 -60.262311 
L 457.36906 -60.262314 
L 457.775284 -60.262316 
L 458.181508 -60.26232 
L 458.587733 -60.262323 
L 458.993957 -60.262324 
L 459.400181 -60.262324 
L 459.806405 -60.262323 
L 460.212629 -60.262321 
L 460.618853 -60.262319 
L 461.025078 -60.262316 
L 461.431302 -60.262314 
L 461.837526 -60.262315 
L 462.24375 -60.262316 
L 462.649974 -60.262318 
L 463.056198 -60.262319 
L 463.462423 -60.262319 
L 463.868647 -60.262318 
L 464.274871 -60.262318 
L 464.681095 -60.26232 
L 465.087319 -60.262319 
L 465.493543 -60.262321 
L 465.899768 -60.262321 
L 466.305992 -60.26232 
L 466.712216 -60.26232 
L 466.712216 -61.295848 
L 466.712216 -61.295848 
L 466.305992 -61.29585 
L 465.899768 -61.29585 
L 465.493543 -61.295852 
L 465.087319 -61.295852 
L 464.681095 -61.295853 
L 464.274871 -61.295855 
L 463.868647 -61.295856 
L 463.462423 -61.295856 
L 463.056198 -61.295858 
L 462.649974 -61.295857 
L 462.24375 -61.295858 
L 461.837526 -61.295858 
L 461.431302 -61.295858 
L 461.025078 -61.295858 
L 460.618853 -61.295857 
L 460.212629 -61.295856 
L 459.806405 -61.295855 
L 459.400181 -61.295854 
L 458.993957 -61.295853 
L 458.587733 -61.295852 
L 458.181508 -61.295851 
L 457.775284 -61.29585 
L 457.36906 -61.295848 
L 456.962836 -61.295846 
L 456.556612 -61.295845 
L 456.150388 -61.295845 
L 455.744163 -61.295845 
L 455.337939 -61.295845 
L 454.931715 -61.295845 
L 454.525491 -61.295843 
L 454.119267 -61.295845 
L 453.713043 -61.295847 
L 453.306818 -61.29585 
L 452.900594 -61.29585 
L 452.49437 -61.29585 
L 452.088146 -61.29585 
L 451.681922 -61.295849 
L 451.275698 -61.295847 
L 450.869474 -61.295848 
L 450.463249 -61.295849 
L 450.057025 -61.29585 
L 449.650801 -61.295853 
L 449.244577 -61.295857 
L 448.838353 -61.29586 
L 448.432129 -61.295863 
L 448.025904 -61.295867 
L 447.61968 -61.295869 
L 447.213456 -61.29587 
L 446.807232 -61.295872 
L 446.401008 -61.295872 
L 445.994784 -61.295872 
L 445.588535 -61.295871 
L 445.182311 -61.295869 
L 444.776087 -61.295866 
L 444.369863 -61.295864 
L 443.963639 -61.295862 
L 443.557414 -61.295861 
L 443.15119 -61.29586 
L 442.744966 -61.29586 
L 442.338742 -61.29586 
L 441.932518 -61.29586 
L 441.526294 -61.29586 
L 441.120069 -61.295859 
L 440.713845 -61.295857 
L 440.307621 -61.295855 
L 439.901397 -61.295853 
L 439.495173 -61.295853 
L 439.088949 -61.295853 
L 438.682724 -61.295854 
L 438.2765 -61.295855 
L 437.870276 -61.295856 
L 437.464052 -61.295859 
L 437.057828 -61.295861 
L 436.651604 -61.295862 
L 436.245379 -61.295861 
L 435.839155 -61.29586 
L 435.432931 -61.295858 
L 435.026707 -61.295855 
L 434.620483 -61.295851 
L 434.214259 -61.295847 
L 433.808034 -61.295844 
L 433.40181 -61.295841 
L 432.995586 -61.295839 
L 432.589362 -61.29584 
L 432.183138 -61.295842 
L 431.776914 -61.295846 
L 431.370689 -61.295852 
L 430.964465 -61.295858 
L 430.558241 -61.295865 
L 430.152017 -61.29587 
L 429.745793 -61.295875 
L 429.339569 -61.295878 
L 428.933344 -61.295879 
L 428.52712 -61.295879 
L 428.120896 -61.295875 
L 427.714672 -61.295871 
L 427.308448 -61.295866 
L 426.902224 -61.295861 
L 426.495999 -61.295852 
L 426.089775 -61.295845 
L 425.683551 -61.29584 
L 425.277327 -61.295835 
L 424.871103 -61.295831 
L 424.464879 -61.295831 
L 424.058654 -61.295833 
L 423.65243 -61.295835 
L 423.246206 -61.29584 
L 422.839982 -61.295845 
L 422.433758 -61.29585 
L 422.027534 -61.295854 
L 421.62131 -61.295855 
L 421.215085 -61.295855 
L 420.808861 -61.295855 
L 420.402637 -61.295855 
L 419.996413 -61.295854 
L 419.590189 -61.295853 
L 419.183965 -61.295851 
L 418.77774 -61.295849 
L 418.371516 -61.295848 
L 417.965292 -61.295847 
L 417.559068 -61.295848 
L 417.152844 -61.295848 
L 416.74662 -61.295849 
L 416.340395 -61.295849 
L 415.934171 -61.295851 
L 415.527947 -61.295851 
L 415.121723 -61.29585 
L 414.715499 -61.29585 
L 414.309275 -61.29585 
L 413.90305 -61.295852 
L 413.496826 -61.295852 
L 413.090602 -61.295853 
L 412.684378 -61.295854 
L 412.278154 -61.295856 
L 411.87193 -61.295856 
L 411.465705 -61.295856 
L 411.059481 -61.295854 
L 410.653257 -61.295852 
L 410.247033 -61.295848 
L 409.840809 -61.295845 
L 409.434585 -61.295842 
L 409.02836 -61.295839 
L 408.622136 -61.295839 
L 408.215912 -61.295839 
L 407.809688 -61.29584 
L 407.403464 -61.295844 
L 406.99724 -61.295848 
L 406.591015 -61.295854 
L 406.184791 -61.29586 
L 405.778567 -61.295867 
L 405.372343 -61.295872 
L 404.966119 -61.295875 
L 404.559895 -61.295875 
L 404.153646 -61.295874 
L 403.747422 -61.295871 
L 403.341198 -61.295865 
L 402.934974 -61.29586 
L 402.52875 -61.295855 
L 402.122525 -61.295852 
L 401.716301 -61.295849 
L 401.310077 -61.295849 
L 400.903853 -61.295849 
L 400.497629 -61.295851 
L 400.091405 -61.295853 
L 399.68518 -61.295855 
L 399.278956 -61.295855 
L 398.872732 -61.295856 
L 398.466508 -61.295858 
L 398.060284 -61.29586 
L 397.65406 -61.295862 
L 397.247835 -61.295865 
L 396.841611 -61.295868 
L 396.435387 -61.295871 
L 396.029163 -61.295873 
L 395.622939 -61.295874 
L 395.216715 -61.295873 
L 394.81049 -61.295871 
L 394.404266 -61.295868 
L 393.998042 -61.295865 
L 393.591818 -61.29586 
L 393.185594 -61.295855 
L 392.77937 -61.295853 
L 392.373146 -61.295851 
L 391.966921 -61.29585 
L 391.560697 -61.295849 
L 391.154473 -61.295847 
L 390.748249 -61.295847 
L 390.342025 -61.295845 
L 389.935801 -61.295844 
L 389.529576 -61.295844 
L 389.123352 -61.295846 
L 388.717128 -61.295849 
L 388.310904 -61.295852 
L 387.90468 -61.295855 
L 387.498456 -61.295859 
L 387.092231 -61.295862 
L 386.686007 -61.295864 
L 386.279783 -61.295865 
L 385.873559 -61.295864 
L 385.467335 -61.295861 
L 385.061111 -61.295859 
L 384.654886 -61.295855 
L 384.248662 -61.295853 
L 383.842438 -61.295851 
L 383.436214 -61.29585 
L 383.02999 -61.29585 
L 382.623766 -61.29585 
L 382.217541 -61.29585 
L 381.811317 -61.29585 
L 381.405093 -61.29585 
L 380.998869 -61.295849 
L 380.592645 -61.295851 
L 380.186421 -61.29585 
L 379.780196 -61.295852 
L 379.373972 -61.295852 
L 378.967748 -61.295851 
L 378.561524 -61.295848 
L 378.1553 -61.295846 
L 377.749076 -61.295845 
L 377.342851 -61.295843 
L 376.936627 -61.295843 
L 376.530403 -61.295841 
L 376.124179 -61.295841 
L 375.717955 -61.295841 
L 375.311731 -61.295843 
L 374.905506 -61.295843 
L 374.499282 -61.295845 
L 374.093058 -61.295848 
L 373.686834 -61.295851 
L 373.28061 -61.295854 
L 372.874386 -61.295856 
L 372.468161 -61.295858 
L 372.061937 -61.295857 
L 371.655713 -61.295855 
L 371.249489 -61.295854 
L 370.843265 -61.295852 
L 370.437041 -61.295849 
L 370.030816 -61.295847 
L 369.624592 -61.295844 
L 369.218368 -61.295842 
L 368.812144 -61.29584 
L 368.40592 -61.295837 
L 367.999696 -61.295835 
L 367.593471 -61.295834 
L 367.187247 -61.295835 
L 366.781023 -61.295837 
L 366.374799 -61.29584 
L 365.968575 -61.295843 
L 365.562351 -61.295846 
L 365.156127 -61.295851 
L 364.749902 -61.295854 
L 364.343678 -61.295858 
L 363.937454 -61.295861 
L 363.53123 -61.295863 
L 363.125006 -61.295864 
L 362.718782 -61.295862 
L 362.312533 -61.29586 
L 361.906309 -61.295858 
L 361.500085 -61.295856 
L 361.093861 -61.295855 
L 360.687637 -61.295852 
L 360.281412 -61.295851 
L 359.875188 -61.29585 
L 359.468964 -61.295848 
L 359.06274 -61.295848 
L 358.656516 -61.295848 
L 358.250292 -61.295848 
L 357.844067 -61.295847 
L 357.437843 -61.295846 
L 357.031619 -61.295843 
L 356.625395 -61.295843 
L 356.219171 -61.295842 
L 355.812947 -61.29584 
L 355.406722 -61.29584 
L 355.000498 -61.295839 
L 354.594274 -61.295839 
L 354.18805 -61.295838 
L 353.781826 -61.29584 
L 353.375602 -61.29584 
L 352.969377 -61.295841 
L 352.563153 -61.295842 
L 352.156929 -61.295844 
L 351.750705 -61.295844 
L 351.344481 -61.295844 
L 350.938257 -61.295844 
L 350.532032 -61.295845 
L 350.125808 -61.295847 
L 349.719584 -61.295848 
L 349.31336 -61.29585 
L 348.907136 -61.295851 
L 348.500912 -61.295852 
L 348.094687 -61.295854 
L 347.688463 -61.295856 
L 347.282239 -61.295857 
L 346.876015 -61.295856 
L 346.469791 -61.295856 
L 346.063567 -61.295854 
L 345.657342 -61.295852 
L 345.251118 -61.29585 
L 344.844894 -61.295846 
L 344.43867 -61.295843 
L 344.032446 -61.29584 
L 343.626222 -61.295836 
L 343.219997 -61.295833 
L 342.813773 -61.29583 
L 342.407549 -61.29583 
L 342.001325 -61.29583 
L 341.595101 -61.295831 
L 341.188877 -61.295834 
L 340.782652 -61.295836 
L 340.376428 -61.29584 
L 339.970204 -61.295843 
L 339.56398 -61.295846 
L 339.157756 -61.29585 
L 338.751532 -61.295853 
L 338.345307 -61.295856 
L 337.939083 -61.295856 
L 337.532859 -61.295855 
L 337.126635 -61.295852 
L 336.720411 -61.295849 
L 336.314187 -61.295846 
L 335.907963 -61.295841 
L 335.501738 -61.295839 
L 335.095514 -61.295839 
L 334.68929 -61.29584 
L 334.283066 -61.295841 
L 333.876842 -61.295843 
L 333.470618 -61.295845 
L 333.064393 -61.295846 
L 332.658169 -61.295848 
L 332.251945 -61.295847 
L 331.845721 -61.295848 
L 331.439497 -61.295846 
L 331.033273 -61.295846 
L 330.627048 -61.295845 
L 330.220824 -61.295845 
L 329.8146 -61.295847 
L 329.408376 -61.295849 
L 329.002152 -61.295852 
L 328.595928 -61.295854 
L 328.189703 -61.295855 
L 327.783479 -61.295855 
L 327.377255 -61.295855 
L 326.971031 -61.295854 
L 326.564807 -61.295853 
L 326.158583 -61.295852 
L 325.752358 -61.295849 
L 325.346134 -61.295846 
L 324.93991 -61.295843 
L 324.533686 -61.295839 
L 324.127462 -61.295834 
L 323.721238 -61.295832 
L 323.315013 -61.29583 
L 322.908789 -61.29583 
L 322.502565 -61.29583 
L 322.096341 -61.295832 
L 321.690117 -61.295836 
L 321.283893 -61.29584 
L 320.877644 -61.295845 
L 320.47142 -61.295848 
L 320.065196 -61.29585 
L 319.658972 -61.295851 
L 319.252748 -61.29585 
L 318.846523 -61.295847 
L 318.440299 -61.295842 
L 318.034075 -61.295839 
L 317.627851 -61.295835 
L 317.221627 -61.295832 
L 316.815403 -61.295828 
L 316.409178 -61.295826 
L 316.002954 -61.295826 
L 315.59673 -61.295827 
L 315.190506 -61.295831 
L 314.784282 -61.295837 
L 314.378058 -61.295842 
L 313.971833 -61.29585 
L 313.565609 -61.295857 
L 313.159385 -61.295861 
L 312.753161 -61.295864 
L 312.346937 -61.295864 
L 311.940713 -61.295862 
L 311.534488 -61.295859 
L 311.128264 -61.295854 
L 310.72204 -61.295851 
L 310.315816 -61.295848 
L 309.909592 -61.295846 
L 309.503368 -61.295844 
L 309.097143 -61.295842 
L 308.690919 -61.295841 
L 308.284695 -61.295841 
L 307.878471 -61.295843 
L 307.472247 -61.295846 
L 307.066023 -61.29585 
L 306.659799 -61.295854 
L 306.253574 -61.295859 
L 305.84735 -61.295863 
L 305.441126 -61.295868 
L 305.034902 -61.295872 
L 304.628678 -61.295873 
L 304.222454 -61.295872 
L 303.816229 -61.295871 
L 303.410005 -61.29587 
L 303.003781 -61.295865 
L 302.597557 -61.295863 
L 302.191333 -61.29586 
L 301.785109 -61.295858 
L 301.378884 -61.295854 
L 300.97266 -61.295852 
L 300.566436 -61.295849 
L 300.160212 -61.29585 
L 299.753988 -61.29585 
L 299.347764 -61.295852 
L 298.941539 -61.295852 
L 298.535315 -61.295854 
L 298.129091 -61.295854 
L 297.722867 -61.295854 
L 297.316643 -61.295855 
L 296.910419 -61.295855 
L 296.504194 -61.295857 
L 296.09797 -61.295858 
L 295.691746 -61.29586 
L 295.285522 -61.295859 
L 294.879298 -61.295857 
L 294.473074 -61.295855 
L 294.066849 -61.295855 
L 293.660625 -61.295854 
L 293.254401 -61.295854 
L 292.848177 -61.295854 
L 292.441953 -61.295854 
L 292.035729 -61.295854 
L 291.629504 -61.295854 
L 291.22328 -61.295854 
L 290.817056 -61.295854 
L 290.410832 -61.295854 
L 290.004608 -61.295855 
L 289.598384 -61.295858 
L 289.192159 -61.29586 
L 288.785935 -61.295861 
L 288.379711 -61.295863 
L 287.973487 -61.295865 
L 287.567263 -61.295865 
L 287.161039 -61.295867 
L 286.754814 -61.295869 
L 286.34859 -61.295871 
L 285.942366 -61.295872 
L 285.536142 -61.295873 
L 285.129918 -61.295872 
L 284.723694 -61.29587 
L 284.317469 -61.295868 
L 283.911245 -61.295864 
L 283.505021 -61.29586 
L 283.098797 -61.295856 
L 282.692573 -61.295852 
L 282.286349 -61.295849 
L 281.880124 -61.295847 
L 281.4739 -61.295847 
L 281.067676 -61.295849 
L 280.661452 -61.29585 
L 280.255228 -61.29585 
L 279.849004 -61.295852 
L 279.442755 -61.295854 
L 279.036531 -61.295856 
L 278.630307 -61.295858 
L 278.224083 -61.29586 
L 277.817859 -61.295859 
L 277.411634 -61.295859 
L 277.00541 -61.295858 
L 276.599186 -61.295858 
L 276.192962 -61.295859 
L 275.786738 -61.295859 
L 275.380514 -61.295858 
L 274.97429 -61.295857 
L 274.568065 -61.295855 
L 274.161841 -61.295854 
L 273.755617 -61.295851 
L 273.349393 -61.29585 
L 272.943169 -61.295851 
L 272.536945 -61.295853 
L 272.13072 -61.295854 
L 271.724496 -61.295856 
L 271.318272 -61.295858 
L 270.912048 -61.295862 
L 270.505824 -61.295864 
L 270.0996 -61.295865 
L 269.693375 -61.295864 
L 269.287151 -61.295862 
L 268.880927 -61.29586 
L 268.474703 -61.295857 
L 268.068479 -61.295854 
L 267.662255 -61.295853 
L 267.25603 -61.295852 
L 266.849806 -61.29585 
L 266.443582 -61.295848 
L 266.037358 -61.295847 
L 265.631134 -61.295847 
L 265.22491 -61.295848 
L 264.818685 -61.295848 
L 264.412461 -61.295849 
L 264.006237 -61.295851 
L 263.600013 -61.295852 
L 263.193789 -61.295854 
L 262.787565 -61.295854 
L 262.38134 -61.29585 
L 261.975116 -61.295846 
L 261.568892 -61.295842 
L 261.162668 -61.29584 
L 260.756444 -61.295838 
L 260.35022 -61.295835 
L 259.943995 -61.295834 
L 259.537771 -61.295832 
L 259.131547 -61.295829 
L 258.725323 -61.295827 
L 258.319087 -61.295824 
L 257.912863 -61.29582 
L 257.506638 -61.295819 
L 257.100414 -61.295817 
L 256.69419 -61.295817 
L 256.287966 -61.295819 
L 255.881742 -61.295822 
L 255.475518 -61.295825 
L 255.069293 -61.295828 
L 254.663069 -61.295831 
L 254.256845 -61.295832 
L 253.850621 -61.295832 
L 253.444397 -61.295832 
L 253.038173 -61.295831 
L 252.631948 -61.295829 
L 252.225724 -61.295826 
L 251.8195 -61.295823 
L 251.413276 -61.295823 
L 251.007052 -61.295824 
L 250.600828 -61.295829 
L 250.194603 -61.295834 
L 249.788379 -61.29584 
L 249.382155 -61.295847 
L 248.975931 -61.295854 
L 248.569707 -61.295862 
L 248.163483 -61.295871 
L 247.757258 -61.295882 
L 247.351034 -61.295892 
L 246.94481 -61.295901 
L 246.538586 -61.295907 
L 246.132362 -61.29591 
L 245.726138 -61.295912 
L 245.319913 -61.295913 
L 244.913689 -61.295913 
L 244.507465 -61.295913 
L 244.101241 -61.295913 
L 243.695017 -61.295913 
L 243.288793 -61.295914 
L 242.882568 -61.295915 
L 242.476344 -61.295915 
L 242.07012 -61.295913 
L 241.663896 -61.29591 
L 241.257672 -61.295903 
L 240.851448 -61.295894 
L 240.445223 -61.295883 
L 240.038999 -61.29587 
L 239.632775 -61.295853 
L 239.226551 -61.295835 
L 238.820327 -61.295815 
L 238.414103 -61.295796 
L 238.007878 -61.295779 
L 237.601642 -61.29576 
L 237.195418 -61.295745 
L 236.789194 -61.295731 
L 236.38297 -61.295718 
L 235.976746 -61.295708 
L 235.570521 -61.295701 
L 235.164297 -61.295696 
L 234.758073 -61.295695 
L 234.351849 -61.295695 
L 233.945625 -61.295699 
L 233.539401 -61.295704 
L 233.133176 -61.295712 
L 232.726952 -61.295723 
L 232.320728 -61.295735 
L 231.914504 -61.29575 
L 231.50828 -61.295767 
L 231.102056 -61.295784 
L 230.695831 -61.295801 
L 230.289607 -61.295821 
L 229.883383 -61.295841 
L 229.477159 -61.295862 
L 229.070935 -61.295887 
L 228.664711 -61.295912 
L 228.258486 -61.295939 
L 227.852262 -61.295969 
L 227.446038 -61.295999 
L 227.039814 -61.296031 
L 226.63359 -61.296062 
L 226.227366 -61.296093 
L 225.821141 -61.296117 
L 225.414917 -61.296138 
L 225.008693 -61.296151 
L 224.602469 -61.296161 
L 224.196245 -61.296165 
L 223.790021 -61.296165 
L 223.383796 -61.296156 
L 222.977572 -61.296143 
L 222.571348 -61.296124 
L 222.165124 -61.296099 
L 221.7589 -61.296071 
L 221.352676 -61.296037 
L 220.946451 -61.295997 
L 220.540227 -61.29595 
L 220.134003 -61.295897 
L 219.727779 -61.29584 
L 219.321555 -61.295778 
L 218.915331 -61.295712 
L 218.509107 -61.295644 
L 218.102882 -61.295578 
L 217.696658 -61.295511 
L 217.290434 -61.295447 
L 216.88421 -61.295387 
L 216.477974 -61.29533 
L 216.071749 -61.29528 
L 215.665525 -61.295236 
L 215.259301 -61.295202 
L 214.853077 -61.295179 
L 214.446853 -61.295165 
L 214.040629 -61.29516 
L 213.634404 -61.295167 
L 213.22818 -61.295187 
L 212.821956 -61.295218 
L 212.415732 -61.295263 
L 212.009508 -61.295323 
L 211.603284 -61.295398 
L 211.197059 -61.295486 
L 210.790835 -61.295587 
L 210.384611 -61.295697 
L 209.978387 -61.295819 
L 209.572163 -61.295949 
L 209.165939 -61.296088 
L 208.759714 -61.296232 
L 208.35349 -61.296378 
L 207.947266 -61.296524 
L 207.541042 -61.296667 
L 207.134818 -61.296805 
L 206.728594 -61.296935 
L 206.322369 -61.297053 
L 205.916145 -61.297158 
L 205.509921 -61.297247 
L 205.103697 -61.29732 
L 204.697473 -61.29737 
L 204.291249 -61.297394 
L 203.885025 -61.297392 
L 203.4788 -61.297362 
L 203.072576 -61.297303 
L 202.666352 -61.297215 
L 202.260128 -61.297096 
L 201.853904 -61.296945 
L 201.44768 -61.296764 
L 201.041455 -61.296553 
L 200.635231 -61.296315 
L 200.229007 -61.296052 
L 199.822783 -61.295768 
L 199.416559 -61.295469 
L 199.010335 -61.295158 
L 198.60411 -61.294839 
L 198.197886 -61.294516 
L 197.791662 -61.294197 
L 197.385438 -61.293884 
L 196.979214 -61.293585 
L 196.57299 -61.293305 
L 196.166765 -61.293051 
L 195.760529 -61.292829 
L 195.354305 -61.292645 
L 194.948081 -61.292505 
L 194.541857 -61.292416 
L 194.135632 -61.292383 
L 193.729408 -61.292409 
L 193.323184 -61.292502 
L 192.91696 -61.292662 
L 192.510736 -61.292891 
L 192.104512 -61.293189 
L 191.698287 -61.293557 
L 191.292063 -61.293991 
L 190.885839 -61.29449 
L 190.479615 -61.295047 
L 190.073391 -61.295656 
L 189.667167 -61.296309 
L 189.260943 -61.296998 
L 188.854718 -61.297712 
L 188.448494 -61.298441 
L 188.04227 -61.299172 
L 187.636046 -61.299894 
L 187.229822 -61.300592 
L 186.823598 -61.301251 
L 186.417373 -61.301858 
L 186.011149 -61.302397 
L 185.604925 -61.302855 
L 185.198701 -61.303215 
L 184.792477 -61.303466 
L 184.386253 -61.303596 
L 183.980028 -61.303596 
L 183.573804 -61.303455 
L 183.16758 -61.303169 
L 182.761356 -61.302733 
L 182.355132 -61.302146 
L 181.948908 -61.301407 
L 181.542683 -61.300519 
L 181.136459 -61.29949 
L 180.730235 -61.298328 
L 180.324011 -61.297048 
L 179.917787 -61.295663 
L 179.511563 -61.294189 
L 179.105338 -61.292648 
L 178.699114 -61.29106 
L 178.29289 -61.289454 
L 177.886666 -61.287855 
L 177.480442 -61.286292 
L 177.074218 -61.284793 
L 176.667993 -61.28339 
L 176.261769 -61.282112 
L 175.855545 -61.280994 
L 175.449321 -61.280064 
L 175.043085 -61.279354 
L 174.636861 -61.278893 
L 174.230636 -61.278709 
L 173.824412 -61.278826 
L 173.418188 -61.279263 
L 173.011964 -61.280034 
L 172.60574 -61.281149 
L 172.199516 -61.282613 
L 171.793291 -61.284424 
L 171.387067 -61.286575 
L 170.980843 -61.289047 
L 170.574619 -61.291821 
L 170.168395 -61.294863 
L 169.762171 -61.298138 
L 169.355946 -61.301599 
L 168.949722 -61.305198 
L 168.543498 -61.308871 
L 168.137274 -61.312557 
L 167.73105 -61.316189 
L 167.324826 -61.319696 
L 166.918601 -61.323006 
L 166.512377 -61.326043 
L 166.106153 -61.328731 
L 165.699929 -61.331004 
L 165.293705 -61.33279 
L 164.887481 -61.334029 
L 164.481256 -61.334666 
L 164.075032 -61.334653 
L 163.668808 -61.333952 
L 163.262584 -61.33254 
L 162.85636 -61.330399 
L 162.450136 -61.32753 
L 162.043911 -61.323937 
L 161.637687 -61.319646 
L 161.231463 -61.314691 
L 160.825239 -61.309118 
L 160.419015 -61.302984 
L 160.012791 -61.296358 
L 159.60656 -61.288632 
L 159.200336 -61.279775 
L 158.794112 -61.270841 
L 158.387888 -61.261974 
L 157.981664 -61.253324 
L 157.57544 -61.24505 
L 157.169215 -61.237313 
L 156.762991 -61.230287 
L 156.356767 -61.224144 
L 155.950543 -61.219054 
L 155.544319 -61.21519 
L 155.138095 -61.21272 
L 154.73187 -61.211805 
L 154.325646 -61.212594 
L 153.919422 -61.212966 
L 153.513198 -61.214749 
L 153.106974 -61.218244 
L 152.70075 -61.22354 
L 152.294525 -61.230701 
L 151.888301 -61.239756 
L 151.482077 -61.250692 
L 151.075853 -61.263454 
L 150.669629 -61.277935 
L 150.263405 -61.293979 
L 149.85718 -61.311372 
L 149.450956 -61.329857 
L 149.044726 -61.349122 
L 148.638502 -61.368813 
L 148.232278 -61.388538 
L 147.826054 -61.407883 
L 147.419829 -61.426411 
L 147.013605 -61.443692 
L 146.607381 -61.459296 
L 146.201157 -61.479968 
L 145.794933 -61.506759 
L 145.388709 -61.520238 
L 144.982484 -61.517173 
L 144.57626 -61.505633 
L 144.170036 -61.504836 
L 143.763812 -61.50476 
L 143.357588 -61.504133 
L 142.951364 -61.495434 
L 142.545139 -61.478422 
L 142.138915 -61.458819 
L 141.732691 -61.437061 
L 141.326467 -61.406874 
L 140.920243 -61.371145 
L 140.514019 -61.33284 
L 140.107794 -61.295944 
L 139.70157 -61.259275 
L 139.295346 -61.221667 
L 138.889122 -61.183459 
L 138.482892 -61.145001 
L 138.076668 -61.106663 
L 137.670443 -61.06886 
L 137.264219 -61.032064 
L 136.857995 -60.996836 
L 136.451771 -60.963853 
L 136.045547 -60.933913 
L 135.639323 -60.907963 
L 135.233098 -60.887095 
L 134.826874 -60.872543 
L 134.42065 -60.865647 
L 134.014426 -60.86782 
L 133.608202 -60.880488 
L 133.201978 -60.905006 
L 132.795753 -60.942582 
L 132.389529 -60.994167 
L 131.983305 -61.058366 
L 131.577081 -61.122322 
L 131.170857 -61.20065 
L 130.764633 -61.292861 
L 130.358408 -61.397851 
L 129.952184 -61.515452 
L 129.54596 -61.675554 
L 129.139736 -61.890898 
L 128.733512 -62.079695 
L 128.327282 -62.274822 
L 127.921057 -62.476972 
L 127.514833 -62.667159 
L 127.108609 -62.851899 
L 126.702385 -63.08666 
L 126.296161 -63.30187 
L 125.889937 -63.476008 
L 125.483712 -63.603368 
L 125.077488 -63.680091 
L 124.671264 -63.704433 
L 124.26504 -63.676986 
L 123.858816 -63.600844 
L 123.452592 -63.463029 
L 123.046367 -63.192609 
L 122.640143 -62.910322 
L 122.233919 -62.683714 
L 121.827695 -62.504338 
L 121.421471 -62.380152 
L 121.015247 -62.306898 
L 120.609022 -62.289157 
L 120.202798 -62.306751 
L 119.796574 -62.358114 
L 119.39035 -62.438097 
L 118.984126 -62.538239 
L 118.577902 -62.647366 
L 118.171678 -62.76327 
L 117.765447 -62.875315 
L 117.359223 -62.955235 
L 116.952999 -62.988384 
L 116.546775 -62.96293 
L 116.140551 -62.871108 
L 115.734326 -62.7105 
L 115.328102 -62.485347 
L 114.921878 -62.207898 
L 114.515654 -61.899727 
L 114.10943 -61.627952 
L 113.703206 -61.419332 
L 113.296981 -61.339332 
L 112.890757 -61.404057 
L 112.484533 -61.628273 
L 112.078309 -62.036792 
L 111.672085 -62.64473 
L 111.265861 -63.443081 
L 110.859637 -64.499255 
L 110.453412 -65.78799 
L 110.047185 -67.283585 
L 109.640961 -68.889893 
L 109.234737 -70.530715 
L 108.828513 -72.085422 
L 108.422289 -73.618017 
L 108.016064 -75.133451 
L 107.60984 -76.588093 
L 107.203616 -77.905838 
L 106.797392 -79.067279 
L 106.391168 -80.067148 
L 105.984944 -80.892412 
L 105.578719 -81.546408 
L 105.172495 -82.042452 
L 104.766268 -82.404424 
L 104.360044 -82.66752 
L 103.95382 -82.878618 
L 103.547596 -83.095711 
L 103.141371 -83.386036 
L 102.735147 -83.822389 
L 102.328923 -84.477548 
L 101.922699 -85.417286 
L 101.516475 -86.693281 
L 101.110251 -88.323101 
L 100.704026 -90.421646 
L 100.297802 -92.900869 
L 99.891578 -95.706947 
L 99.485351 -98.807129 
L 99.079127 -102.134889 
L 98.672903 -105.653254 
L 98.266678 -109.30626 
L 97.860454 -113.043089 
L 97.45423 -116.81812 
L 97.048006 -120.58687 
L 96.641782 -124.305782 
L 96.235558 -127.97791 
L 95.829333 -131.562337 
L 95.423109 -135.014353 
L 95.016885 -138.219247 
L 94.610658 -141.284723 
L 94.204434 -144.067424 
L 93.79821 -146.543339 
L 93.391985 -148.720169 
L 92.985761 -150.626986 
L 92.579537 -152.55537 
L 92.173313 -154.567912 
L 91.767089 -156.304285 
L 91.360865 -158.259914 
L 90.95464 -161.099132 
L 90.548416 -164.636297 
L 90.142192 -168.849942 
L 89.735968 -173.202642 
L 89.329741 -177.773467 
L 88.923517 -182.466021 
L 88.517292 -187.37615 
L 88.111068 -192.201062 
L 87.704844 -196.877251 
L 87.29862 -201.088806 
L 86.892396 -204.612102 
L 86.486172 -207.267714 
L 86.079947 -209.110801 
L 85.673723 -209.570252 
L 85.267498 -208.594887 
L 84.861273 -206.334624 
L 84.455049 -202.834719 
L 84.048825 -198.332506 
L 83.642601 -193.201416 
L 83.236377 -187.520113 
L 82.830151 -181.932591 
L 82.423927 -177.982762 
L 82.017703 -175.801187 
L 81.611479 -175.123066 
L 81.205254 -176.686037 
L 80.79903 -180.47403 
L 80.392806 -186.189721 
L 79.98658 -193.325823 
L 79.580356 -200.862949 
L 79.174132 -209.155482 
L 78.767908 -216.82199 
L 78.361684 -223.429777 
L 77.95546 -228.618167 
L 77.549234 -231.885568 
L 77.14301 -232.891952 
L 76.736786 -231.567312 
L 76.330561 -227.956021 
L 75.924337 -222.338652 
L 75.518113 -215.361584 
L 75.111887 -207.764695 
L 74.705663 -201.010438 
L 74.299439 -194.611841 
L 73.893215 -190.011431 
L 73.486991 -187.796715 
L 73.080766 -188.174546 
L 72.674542 -190.950609 
L 72.268317 -195.637473 
L 71.862093 -201.382887 
L 71.455868 -207.768697 
L 71.049644 -214.784647 
L 70.64342 -220.894288 
L 70.237195 -225.715971 
L 69.830971 -228.69345 
L 69.424747 -229.397103 
L 69.018522 -227.767869 
L 68.612298 -223.819413 
L 68.206074 -218.203077 
L 67.799849 -212.145775 
L 67.393624 -206.079999 
L 66.9874 -201.755293 
L 66.581176 -200.41383 
L 66.174951 -202.721479 
L 65.768727 -207.790841 
L 65.362503 -216.734809 
L 64.956278 -226.945305 
L 64.550054 -237.13496 
L 64.143829 -245.220243 
L 63.737605 -249.23625 
L 63.331381 -248.297863 
L 62.925156 -240.876853 
L 62.518932 -225.464284 
L 62.112707 -200.249064 
L 61.706483 -163.789795 
L 61.300258 -113.313593 
L 60.894034 -47.63625 
z
" style="stroke: #1f77b4; stroke-opacity: 0.2"/>
    </defs>
    <g clip-path="url(#pd50ef0b6a4)">
     <use xlink:href="#ma9bc7fda2a" x="0" y="281.634375" style="fill: #1f77b4; fill-opacity: 0.2; stroke: #1f77b4; stroke-opacity: 0.2"/>
    </g>
   </g>
   <g id="matplotlib.axis_1">
    <g id="xtick_1">
     <g id="line2d_1">
      <path d="M 60.894034 244.078125 
L 60.894034 22.318125 
" clip-path="url(#pd50ef0b6a4)" style="fill: none; stroke: #b0b0b0; stroke-opacity: 0.3; stroke-width: 0.8; stroke-linecap: square"/>
     </g>
     <g id="line2d_2">
      <defs>
       <path id="mb584981228" d="M 0 0 
L 0 3.5 
" style="stroke: #000000; stroke-width: 0.8"/>
      </defs>
      <g>
       <use xlink:href="#mb584981228" x="60.894034" y="244.078125" style="stroke: #000000; stroke-width: 0.8"/>
      </g>
     </g>
     <g id="text_1">
      <text style="font: 10px 'DejaVu Sans', 'Bitstream Vera Sans', 'Computer Modern Sans Serif', 'Lucida Grande', 'Verdana', 'Geneva', 'Lucid', 'Arial', 'Helvetica', 'Avant Garde', sans-serif; text-anchor: middle" x="60.894034" y="258.676562" transform="rotate(-0 60.894034 258.676562)">0.0</text>
     </g>
    </g>
    <g id="xtick_2">
     <g id="line2d_3">
      <path d="M 142.05767 244.078125 
L 142.05767 22.318125 
" clip-path="url(#pd50ef0b6a4)" style="fill: none; stroke: #b0b0b0; stroke-opacity: 0.3; stroke-width: 0.8; stroke-linecap: square"/>
     </g>
     <g id="line2d_4">
      <g>
       <use xlink:href="#mb584981228" x="142.05767" y="244.078125" style="stroke: #000000; stroke-width: 0.8"/>
      </g>
     </g>
     <g id="text_2">
      <text style="font: 10px 'DejaVu Sans', 'Bitstream Vera Sans', 'Computer Modern Sans Serif', 'Lucida Grande', 'Verdana', 'Geneva', 'Lucid', 'Arial', 'Helvetica', 'Avant Garde', sans-serif; text-anchor: middle" x="142.05767" y="258.676562" transform="rotate(-0 142.05767 258.676562)">0.2</text>
     </g>
    </g>
    <g id="xtick_3">
     <g id="line2d_5">
      <path d="M 223.221307 244.078125 
L 223.221307 22.318125 
" clip-path="url(#pd50ef0b6a4)" style="fill: none; stroke: #b0b0b0; stroke-opacity: 0.3; stroke-width: 0.8; stroke-linecap: square"/>
     </g>
     <g id="line2d_6">
      <g>
       <use xlink:href="#mb584981228" x="223.221307" y="244.078125" style="stroke: #000000; stroke-width: 0.8"/>
      </g>
     </g>
     <g id="text_3">
      <text style="font: 10px 'DejaVu Sans', 'Bitstream Vera Sans', 'Computer Modern Sans Serif', 'Lucida Grande', 'Verdana', 'Geneva', 'Lucid', 'Arial', 'Helvetica', 'Avant Garde', sans-serif; text-anchor: middle" x="223.221307" y="258.676562" transform="rotate(-0 223.221307 258.676562)">0.4</text>
     </g>
    </g>
    <g id="xtick_4">
     <g id="line2d_7">
      <path d="M 304.384943 244.078125 
L 304.384943 22.318125 
" clip-path="url(#pd50ef0b6a4)" style="fill: none; stroke: #b0b0b0; stroke-opacity: 0.3; stroke-width: 0.8; stroke-linecap: square"/>
     </g>
     <g id="line2d_8">
      <g>
       <use xlink:href="#mb584981228" x="304.384943" y="244.078125" style="stroke: #000000; stroke-width: 0.8"/>
      </g>
     </g>
     <g id="text_4">
      <text style="font: 10px 'DejaVu Sans', 'Bitstream Vera Sans', 'Computer Modern Sans Serif', 'Lucida Grande', 'Verdana', 'Geneva', 'Lucid', 'Arial', 'Helvetica', 'Avant Garde', sans-serif; text-anchor: middle" x="304.384943" y="258.676562" transform="rotate(-0 304.384943 258.676562)">0.6</text>
     </g>
    </g>
    <g id="xtick_5">
     <g id="line2d_9">
      <path d="M 385.54858 244.078125 
L 385.54858 22.318125 
" clip-path="url(#pd50ef0b6a4)" style="fill: none; stroke: #b0b0b0; stroke-opacity: 0.3; stroke-width: 0.8; stroke-linecap: square"/>
     </g>
     <g id="line2d_10">
      <g>
       <use xlink:href="#mb584981228" x="385.54858" y="244.078125" style="stroke: #000000; stroke-width: 0.8"/>
      </g>
     </g>
     <g id="text_5">
      <text style="font: 10px 'DejaVu Sans', 'Bitstream Vera Sans', 'Computer Modern Sans Serif', 'Lucida Grande', 'Verdana', 'Geneva', 'Lucid', 'Arial', 'Helvetica', 'Avant Garde', sans-serif; text-anchor: middle" x="385.54858" y="258.676562" transform="rotate(-0 385.54858 258.676562)">0.8</text>
     </g>
    </g>
    <g id="xtick_6">
     <g id="line2d_11">
      <path d="M 466.712216 244.078125 
L 466.712216 22.318125 
" clip-path="url(#pd50ef0b6a4)" style="fill: none; stroke: #b0b0b0; stroke-opacity: 0.3; stroke-width: 0.8; stroke-linecap: square"/>
     </g>
     <g id="line2d_12">
      <g>
       <use xlink:href="#mb584981228" x="466.712216" y="244.078125" style="stroke: #000000; stroke-width: 0.8"/>
      </g>
     </g>
     <g id="text_6">
      <text style="font: 10px 'DejaVu Sans', 'Bitstream Vera Sans', 'Computer Modern Sans Serif', 'Lucida Grande', 'Verdana', 'Geneva', 'Lucid', 'Arial', 'Helvetica', 'Avant Garde', sans-serif; text-anchor: middle" x="466.712216" y="258.676562" transform="rotate(-0 466.712216 258.676562)">1.0</text>
     </g>
    </g>
    <g id="text_7">
     <text style="font: 10px 'DejaVu Sans', 'Bitstream Vera Sans', 'Computer Modern Sans Serif', 'Lucida Grande', 'Verdana', 'Geneva', 'Lucid', 'Arial', 'Helvetica', 'Avant Garde', sans-serif; text-anchor: middle" x="263.803125" y="272.354687" transform="rotate(-0 263.803125 272.354687)">Tiempo (s)</text>
    </g>
   </g>
   <g id="matplotlib.axis_2">
    <g id="ytick_1">
     <g id="line2d_13">
      <path d="M 40.603125 233.998125 
L 487.003125 233.998125 
" clip-path="url(#pd50ef0b6a4)" style="fill: none; stroke: #b0b0b0; stroke-opacity: 0.3; stroke-width: 0.8; stroke-linecap: square"/>
     </g>
     <g id="line2d_14">
      <defs>
       <path id="m4ea26fe708" d="M 0 0 
L -3.5 0 
" style="stroke: #000000; stroke-width: 0.8"/>
      </defs>
      <g>
       <use xlink:href="#m4ea26fe708" x="40.603125" y="233.998125" style="stroke: #000000; stroke-width: 0.8"/>
      </g>
     </g>
     <g id="text_8">
      <text style="font: 10px 'DejaVu Sans', 'Bitstream Vera Sans', 'Computer Modern Sans Serif', 'Lucida Grande', 'Verdana', 'Geneva', 'Lucid', 'Arial', 'Helvetica', 'Avant Garde', sans-serif; text-anchor: end" x="33.603125" y="237.797344" transform="rotate(-0 33.603125 237.797344)">0</text>
     </g>
    </g>
    <g id="ytick_2">
     <g id="line2d_15">
      <path d="M 40.603125 188.69651 
L 487.003125 188.69651 
" clip-path="url(#pd50ef0b6a4)" style="fill: none; stroke: #b0b0b0; stroke-opacity: 0.3; stroke-width: 0.8; stroke-linecap: square"/>
     </g>
     <g id="line2d_16">
      <g>
       <use xlink:href="#m4ea26fe708" x="40.603125" y="188.69651" style="stroke: #000000; stroke-width: 0.8"/>
      </g>
     </g>
     <g id="text_9">
      <text style="font: 10px 'DejaVu Sans', 'Bitstream Vera Sans', 'Computer Modern Sans Serif', 'Lucida Grande', 'Verdana', 'Geneva', 'Lucid', 'Arial', 'Helvetica', 'Avant Garde', sans-serif; text-anchor: end" x="33.603125" y="192.495729" transform="rotate(-0 33.603125 192.495729)">20</text>
     </g>
    </g>
    <g id="ytick_3">
     <g id="line2d_17">
      <path d="M 40.603125 143.394896 
L 487.003125 143.394896 
" clip-path="url(#pd50ef0b6a4)" style="fill: none; stroke: #b0b0b0; stroke-opacity: 0.3; stroke-width: 0.8; stroke-linecap: square"/>
     </g>
     <g id="line2d_18">
      <g>
       <use xlink:href="#m4ea26fe708" x="40.603125" y="143.394896" style="stroke: #000000; stroke-width: 0.8"/>
      </g>
     </g>
     <g id="text_10">
      <text style="font: 10px 'DejaVu Sans', 'Bitstream Vera Sans', 'Computer Modern Sans Serif', 'Lucida Grande', 'Verdana', 'Geneva', 'Lucid', 'Arial', 'Helvetica', 'Avant Garde', sans-serif; text-anchor: end" x="33.603125" y="147.194115" transform="rotate(-0 33.603125 147.194115)">40</text>
     </g>
    </g>
    <g id="ytick_4">
     <g id="line2d_19">
      <path d="M 40.603125 98.093281 
L 487.003125 98.093281 
" clip-path="url(#pd50ef0b6a4)" style="fill: none; stroke: #b0b0b0; stroke-opacity: 0.3; stroke-width: 0.8; stroke-linecap: square"/>
     </g>
     <g id="line2d_20">
      <g>
       <use xlink:href="#m4ea26fe708" x="40.603125" y="98.093281" style="stroke: #000000; stroke-width: 0.8"/>
      </g>
     </g>
     <g id="text_11">
      <text style="font: 10px 'DejaVu Sans', 'Bitstream Vera Sans', 'Computer Modern Sans Serif', 'Lucida Grande', 'Verdana', 'Geneva', 'Lucid', 'Arial', 'Helvetica', 'Avant Garde', sans-serif; text-anchor: end" x="33.603125" y="101.8925" transform="rotate(-0 33.603125 101.8925)">60</text>
     </g>
    </g>
    <g id="ytick_5">
     <g id="line2d_21">
      <path d="M 40.603125 52.791667 
L 487.003125 52.791667 
" clip-path="url(#pd50ef0b6a4)" style="fill: none; stroke: #b0b0b0; stroke-opacity: 0.3; stroke-width: 0.8; stroke-linecap: square"/>
     </g>
     <g id="line2d_22">
      <g>
       <use xlink:href="#m4ea26fe708" x="40.603125" y="52.791667" style="stroke: #000000; stroke-width: 0.8"/>
      </g>
     </g>
     <g id="text_12">
      <text style="font: 10px 'DejaVu Sans', 'Bitstream Vera Sans', 'Computer Modern Sans Serif', 'Lucida Grande', 'Verdana', 'Geneva', 'Lucid', 'Arial', 'Helvetica', 'Avant Garde', sans-serif; text-anchor: end" x="33.603125" y="56.590886" transform="rotate(-0 33.603125 56.590886)">80</text>
     </g>
    </g>
    <g id="text_13">
     <text style="font: 10px 'DejaVu Sans', 'Bitstream Vera Sans', 'Computer Modern Sans Serif', 'Lucida Grande', 'Verdana', 'Geneva', 'Lucid', 'Arial', 'Helvetica', 'Avant Garde', sans-serif; text-anchor: middle" x="14.798438" y="133.198125" transform="rotate(-90 14.798438 133.198125)">Corriente (A)</text>
    </g>
   </g>
   <g id="line2d_23">
    <path d="M 60.894034 233.998125 
L 61.706483 122.839892 
L 62.112707 86.089746 
L 62.518932 60.447461 
L 62.925156 44.531532 
L 63.331381 36.835128 
L 63.737605 35.820013 
L 64.143829 39.985109 
L 64.550054 47.880887 
L 66.174951 86.457076 
L 66.581176 89.998511 
L 66.9874 89.163319 
L 67.393624 84.560689 
L 69.018522 58.258504 
L 69.424747 55.854741 
L 69.830971 56.171817 
L 70.237195 59.060939 
L 70.64342 64.104473 
L 71.455868 78.1761 
L 72.268317 92.734426 
L 72.674542 98.270275 
L 73.080766 101.621816 
L 73.486991 102.194748 
L 73.893215 99.755024 
L 74.299439 94.559148 
L 75.111887 78.986415 
L 75.924337 63.07441 
L 76.330561 57.139857 
L 76.736786 53.312954 
L 77.14301 51.889744 
L 77.549234 52.957739 
L 77.95546 56.413771 
L 78.361684 61.98464 
L 79.174132 77.658079 
L 80.392806 102.860947 
L 80.79903 108.756815 
L 81.205254 112.322608 
L 81.611479 113.265591 
L 82.017703 111.667798 
L 82.423927 107.960316 
L 83.236377 96.894839 
L 84.048825 85.4543 
L 84.861273 77.562099 
L 85.267498 75.60986 
L 85.673723 75.107565 
L 86.079947 76.024246 
L 86.486172 78.249303 
L 87.29862 85.873455 
L 90.142192 119.674936 
L 90.95464 125.351644 
L 91.767089 129.229942 
L 93.391985 136.009043 
L 94.204434 140.560841 
L 95.016885 146.248782 
L 96.235558 156.488684 
L 99.485351 185.466837 
L 100.297802 191.238501 
L 101.110251 195.781191 
L 101.922699 198.927732 
L 102.735147 200.773426 
L 103.547596 201.690556 
L 105.578719 203.129354 
L 106.391168 204.297629 
L 107.203616 206.023839 
L 108.016064 208.272689 
L 109.640961 213.730993 
L 110.859637 217.690071 
L 111.672085 219.695706 
L 112.484533 220.903514 
L 112.890757 221.189339 
L 113.296981 221.287665 
L 114.10943 221.073456 
L 116.546775 219.784065 
L 117.359223 219.644172 
L 118.577902 219.696817 
L 120.202798 219.834813 
L 121.421471 219.722994 
L 125.483712 218.952303 
L 126.702385 219.148977 
L 127.921057 219.581916 
L 131.577081 221.086046 
L 132.795753 221.311646 
L 134.42065 221.360998 
L 136.857995 221.155233 
L 143.357588 220.513481 
L 145.794933 220.506769 
L 149.450956 220.759923 
L 153.106974 220.95119 
L 157.169215 220.908338 
L 165.699929 220.752669 
L 181.542683 220.808033 
L 205.103697 220.814572 
L 459.806405 220.818046 
L 466.712216 220.818054 
L 466.712216 220.818054 
" clip-path="url(#pd50ef0b6a4)" style="fill: none; stroke: #1f77b4; stroke-width: 2; stroke-linecap: square"/>
   </g>
   <g id="line2d_24">
    <path d="M 60.894034 233.998125 
L 61.706483 122.437896 
L 62.112707 85.543021 
L 62.518932 59.794422 
L 62.925156 43.808574 
L 63.331381 36.074686 
L 63.737605 35.049065 
L 64.143829 39.223959 
L 64.550054 47.142807 
L 66.174951 85.82645 
L 66.581176 89.383732 
L 66.9874 88.559246 
L 67.393624 83.962051 
L 69.018522 57.642032 
L 69.424747 55.233016 
L 69.830971 55.547585 
L 70.237195 58.436984 
L 70.64342 63.482695 
L 71.455868 77.5579 
L 72.268317 92.112839 
L 72.674542 97.647548 
L 73.080766 101.002674 
L 73.486991 101.586148 
L 73.893215 99.162841 
L 74.299439 93.984591 
L 75.111887 78.428578 
L 75.924337 62.491463 
L 76.330561 56.530523 
L 76.736786 52.671338 
L 77.14301 51.212874 
L 77.549234 52.245564 
L 77.95546 55.668796 
L 78.361684 61.211687 
L 79.174132 76.852119 
L 80.392806 102.097222 
L 80.79903 108.040951 
L 81.205254 111.67141 
L 81.611479 112.68986 
L 82.017703 111.168415 
L 82.423927 107.527431 
L 83.236377 96.537058 
L 84.048825 85.083998 
L 84.861273 77.109608 
L 85.267498 75.099339 
L 85.673723 74.532879 
L 86.079947 75.383061 
L 86.486172 77.542865 
L 86.892396 80.840411 
L 87.704844 89.928565 
L 89.735968 115.106315 
L 90.548416 122.094459 
L 91.360865 126.897006 
L 94.204434 140.36317 
L 95.016885 146.094106 
L 96.235558 156.385939 
L 99.485351 185.485557 
L 100.297802 191.247254 
L 101.110251 195.747415 
L 101.922699 198.82415 
L 102.735147 200.59126 
L 103.547596 201.443908 
L 105.172495 202.45152 
L 105.984944 203.398409 
L 106.797392 204.90332 
L 107.60984 206.981792 
L 108.828513 210.942123 
L 110.859637 217.907037 
L 111.672085 219.930458 
L 112.078309 220.632578 
L 112.484533 221.10768 
L 112.890757 221.363737 
L 113.296981 221.427692 
L 114.10943 221.14781 
L 116.140551 219.945436 
L 116.952999 219.731818 
L 118.171678 219.744134 
L 120.202798 219.967617 
L 121.421471 219.840641 
L 125.077488 219.007085 
L 126.296161 219.13406 
L 127.514833 219.537567 
L 131.983305 221.40662 
L 133.201978 221.565008 
L 134.826874 221.541533 
L 138.076668 221.190773 
L 142.951364 220.68452 
L 145.388709 220.651204 
L 148.638502 220.87751 
L 152.70075 221.13921 
L 156.356767 221.118077 
L 165.699929 220.929037 
L 179.917787 220.997528 
L 193.323184 221.008522 
L 466.712216 220.999735 
L 466.712216 220.999735 
" clip-path="url(#pd50ef0b6a4)" style="fill: none; stroke-dasharray: 4.44,1.92; stroke-dashoffset: 0; stroke: #808080; stroke-width: 1.2"/>
   </g>
   <g id="patch_3">
    <path d="M 40.603125 244.078125 
L 40.603125 22.318125 
" style="fill: none; stroke: #000000; stroke-width: 0.8; stroke-linejoin: miter; stroke-linecap: square"/>
   </g>
   <g id="patch_4">
    <path d="M 487.003125 244.078125 
L 487.003125 22.318125 
" style="fill: none; stroke: #000000; stroke-width: 0.8; stroke-linejoin: miter; stroke-linecap: square"/>
   </g>
   <g id="patch_5">
    <path d="M 40.603125 244.078125 
L 487.003125 244.078125 
" style="fill: none; stroke: #000000; stroke-width: 0.8; stroke-linejoin: miter; stroke-linecap: square"/>
   </g>
   <g id="patch_6">
    <path d="M 40.603125 22.318125 
L 487.003125 22.318125 
" style="fill: none; stroke: #000000; stroke-width: 0.8; stroke-linejoin: miter; stroke-linecap: square"/>
   </g>
   <g id="text_14">
    <text style="font: 12px 'DejaVu Sans', 'Bitstream Vera Sans', 'Computer Modern Sans Serif', 'Lucida Grande', 'Verdana', 'Geneva', 'Lucid', 'Arial', 'Helvetica', 'Avant Garde', sans-serif; text-anchor: middle" x="263.803125" y="16.318125" transform="rotate(-0 263.803125 16.318125)">Corriente - GA</text>
   </g>
   <g id="legend_1">
    <g id="patch_7">
     <path d="M 365.76875 74.3525 
L 480.003125 74.3525 
Q 482.003125 74.3525 482.003125 72.3525 
L 482.003125 29.318125 
Q 482.003125 27.318125 480.003125 27.318125 
L 365.76875 27.318125 
Q 363.76875 27.318125 363.76875 29.318125 
L 363.76875 72.3525 
Q 363.76875 74.3525 365.76875 74.3525 
z
" style="fill: #ffffff; opacity: 0.8; stroke: #cccccc; stroke-linejoin: miter"/>
    </g>
    <g id="patch_8">
     <path d="M 367.76875 38.916562 
L 387.76875 38.916562 
L 387.76875 31.916562 
L 367.76875 31.916562 
z
" style="fill: #1f77b4; fill-opacity: 0.2; stroke: #1f77b4; stroke-opacity: 0.2; stroke-linejoin: miter"/>
    </g>
    <g id="text_15">
     <text style="font: 10px 'DejaVu Sans', 'Bitstream Vera Sans', 'Computer Modern Sans Serif', 'Lucida Grande', 'Verdana', 'Geneva', 'Lucid', 'Arial', 'Helvetica', 'Avant Garde', sans-serif; text-anchor: start" x="395.76875" y="38.916562" transform="rotate(-0 395.76875 38.916562)">Rango 95% runs</text>
    </g>
    <g id="line2d_25">
     <path d="M 367.76875 50.094687 
L 377.76875 50.094687 
L 387.76875 50.094687 
" style="fill: none; stroke: #1f77b4; stroke-width: 2; stroke-linecap: square"/>
    </g>
    <g id="text_16">
     <text style="font: 10px 'DejaVu Sans', 'Bitstream Vera Sans', 'Computer Modern Sans Serif', 'Lucida Grande', 'Verdana', 'Geneva', 'Lucid', 'Arial', 'Helvetica', 'Avant Garde', sans-serif; text-anchor: start" x="395.76875" y="53.594687" transform="rotate(-0 395.76875 53.594687)">Mejor run</text>
    </g>
    <g id="line2d_26">
     <path d="M 367.76875 64.772812 
L 377.76875 64.772812 
L 387.76875 64.772812 
" style="fill: none; stroke-dasharray: 4.44,1.92; stroke-dashoffset: 0; stroke: #808080; stroke-width: 1.2"/>
    </g>
    <g id="text_17">
     <text style="font: 10px 'DejaVu Sans', 'Bitstream Vera Sans', 'Computer Modern Sans Serif', 'Lucida Grande', 'Verdana', 'Geneva', 'Lucid', 'Arial', 'Helvetica', 'Avant Garde', sans-serif; text-anchor: start" x="395.76875" y="68.272812" transform="rotate(-0 395.76875 68.272812)">Medida</text>
    </g>
   </g>
  </g>
 </g>
 <defs>
  <clipPath id="pd50ef0b6a4">
   <rect x="40.603125" y="22.318125" width="446.4" height="221.76"/>
  </clipPath>
 </defs>
</svg>
