<?xml version="1.0" encoding="utf-8" standalone="no"?>
<!DOCTYPE svg PUBLIC "-//W3C//DTD SVG 1.1//EN"
  "http://www.w3.org/Graphics/SVG/1.1/DTD/svg11.dtd">
<svg xmlns:xlink="http://www.w3.org/1999/xlink" width="506.928125pt" height="281.634375pt" viewBox="0 0 506.928125 281.634375" xmlns="http://www.w3.org/2000/svg" version="1.1">
 <metadata>
  <rdf:RDF xmlns:dc="http://purl.org/dc/elements/1.1/" xmlns:cc="http://creativecommons.org/ns#" xmlns:rdf="http://www.w3.org/1999/02/22-rdf-syntax-ns#">
   <cc:Work>
    <dc:type rdf:resource="http://purl.org/dc/dcmitype/StillImage"/>
    <dc:date>2025-11-28T07:37:46.924379</dc:date>
    <dc:format>image/svg+xml</dc:format>
    <dc:creator>
     <cc:Agent>
      <dc:title>Matplotlib v3.9.2, https://matplotlib.org/</dc:title>
     </cc:Agent>
    </dc:creator>
   </cc:Work>
  </rdf:RDF>
 </metadata>
 <defs>
  <style type="text/css">*{stroke-linejoin: round; stroke-linecap: butt}</style>
 </defs>
 <g id="figure_1">
  <g id="patch_1">
   <path d="M 0 281.634375 
L 506.928125 281.634375 
L 506.928125 0 
L 0 0 
z
" style="fill: #ffffff"/>
  </g>
  <g id="axes_1">
   <g id="patch_2">
    <path d="M 53.328125 244.078125 
L 499.728125 244.078125 
L 499.728125 22.318125 
L 53.328125 22.318125 
z
" style="fill: #ffffff"/>
   </g>
   <g id="PolyCollection_1">
    <defs>
     <path id="mf25151a83a" d="M 73.619034 -47.63625 
L 73.619034 -47.63625 
L 74.025258 -47.637312 
L 74.431483 -47.655371 
L 74.837707 -47.760282 
L 75.243932 -48.093424 
L 75.650156 -48.849842 
L 76.056381 -50.228666 
L 76.462605 -52.36841 
L 76.868829 -55.293308 
L 77.275054 -58.941354 
L 77.681278 -63.129083 
L 78.087503 -67.594534 
L 78.493727 -72.035113 
L 78.899951 -76.143505 
L 79.306176 -79.689608 
L 79.7124 -82.499849 
L 80.118624 -84.48299 
L 80.524849 -85.631975 
L 80.931074 -86.019071 
L 81.337298 -85.78663 
L 81.743522 -85.13429 
L 82.149747 -84.282214 
L 82.555971 -83.4803 
L 82.962195 -83.003274 
L 83.36842 -83.055083 
L 83.774644 -83.529682 
L 84.180868 -84.711175 
L 84.587093 -86.768366 
L 84.993317 -89.607514 
L 85.399542 -93.051176 
L 85.805766 -96.868877 
L 86.211991 -100.812088 
L 86.618215 -104.64621 
L 87.024439 -108.174683 
L 87.430663 -111.253106 
L 87.836887 -113.717801 
L 88.243113 -115.63953 
L 88.649337 -117.112565 
L 89.055561 -118.034573 
L 89.461786 -118.646978 
L 89.86801 -118.847113 
L 90.274234 -118.945568 
L 90.68046 -119.083386 
L 91.086684 -119.319042 
L 91.492908 -119.763486 
L 91.899132 -120.608043 
L 92.305356 -121.917115 
L 92.71158 -123.607693 
L 93.117806 -125.708006 
L 93.52403 -128.182031 
L 93.930254 -130.957613 
L 94.336479 -133.96159 
L 94.742703 -137.111122 
L 95.148927 -140.328628 
L 95.555151 -143.547876 
L 95.961377 -146.717321 
L 96.367601 -149.800951 
L 96.773825 -152.777478 
L 97.180049 -155.648564 
L 97.586273 -158.37943 
L 97.992498 -160.980764 
L 98.398723 -163.463748 
L 98.804947 -165.870542 
L 99.211172 -168.221996 
L 99.617396 -170.559808 
L 100.02362 -172.878836 
L 100.429844 -175.194113 
L 100.836068 -177.520441 
L 101.242292 -179.871514 
L 101.648517 -182.25712 
L 102.054741 -184.687235 
L 102.460968 -187.172217 
L 102.867192 -189.717692 
L 103.273416 -192.321676 
L 103.67964 -194.934787 
L 104.085865 -197.50685 
L 104.492089 -200.096952 
L 104.898313 -202.721325 
L 105.304537 -205.372348 
L 105.710761 -208.130267 
L 106.116985 -210.911582 
L 106.52321 -213.679718 
L 106.929434 -216.407077 
L 107.335658 -219.040363 
L 107.741885 -221.455438 
L 108.148109 -223.788762 
L 108.554333 -226.097862 
L 108.960558 -228.445698 
L 109.366782 -230.69972 
L 109.773006 -232.848093 
L 110.17923 -234.853377 
L 110.585454 -236.665234 
L 110.991678 -238.341969 
L 111.397903 -239.877758 
L 111.804127 -241.267735 
L 112.210351 -242.507982 
L 112.616578 -243.593444 
L 113.022802 -244.523815 
L 113.429026 -245.299813 
L 113.835251 -245.916627 
L 114.241475 -246.383312 
L 114.647699 -246.705159 
L 115.053923 -246.88793 
L 115.460147 -246.938928 
L 115.866371 -246.86161 
L 116.272596 -246.662479 
L 116.67882 -246.35802 
L 117.085044 -245.959981 
L 117.491268 -245.463056 
L 117.897495 -244.877667 
L 118.303719 -244.036794 
L 118.709944 -243.135308 
L 119.116168 -242.201866 
L 119.522392 -241.281091 
L 119.928616 -240.363247 
L 120.33484 -239.48854 
L 120.741064 -238.661845 
L 121.147289 -237.895021 
L 121.553513 -237.198376 
L 121.959737 -236.577984 
L 122.365961 -236.032853 
L 122.772185 -235.57877 
L 123.178412 -235.219108 
L 123.584637 -234.95553 
L 123.990861 -234.787936 
L 124.397085 -234.714611 
L 124.803309 -234.732286 
L 125.209533 -234.836319 
L 125.615757 -235.020845 
L 126.021981 -235.278867 
L 126.428206 -235.585918 
L 126.83443 -235.928059 
L 127.240654 -236.293157 
L 127.646878 -236.704357 
L 128.053102 -237.087692 
L 128.459326 -237.505225 
L 128.865551 -237.942017 
L 129.271775 -238.342988 
L 129.677999 -238.722375 
L 130.084223 -239.081271 
L 130.490447 -239.387473 
L 130.896678 -239.680879 
L 131.302902 -239.953833 
L 131.709126 -240.210868 
L 132.11535 -240.448877 
L 132.521574 -240.66529 
L 132.927798 -240.858048 
L 133.334022 -241.026623 
L 133.740247 -241.168924 
L 134.146471 -241.282809 
L 134.552695 -241.368316 
L 134.958919 -241.425941 
L 135.365143 -241.45659 
L 135.771367 -241.461568 
L 136.177592 -241.442472 
L 136.583816 -241.401217 
L 136.99004 -241.346464 
L 137.396264 -241.276047 
L 137.802488 -241.18437 
L 138.208712 -241.039094 
L 138.614937 -240.823671 
L 139.021161 -240.557844 
L 139.427385 -240.291154 
L 139.833609 -240.03124 
L 140.239833 -239.784633 
L 140.646057 -239.55496 
L 141.052282 -239.345347 
L 141.458512 -239.158452 
L 141.864736 -238.996391 
L 142.27096 -238.860688 
L 142.677184 -238.7524 
L 143.083408 -238.662476 
L 143.489633 -238.596348 
L 143.895857 -238.569206 
L 144.302081 -238.580546 
L 144.708305 -238.617357 
L 145.114529 -238.66719 
L 145.520753 -238.736629 
L 145.926978 -238.819765 
L 146.333202 -238.907776 
L 146.739426 -239.004729 
L 147.14565 -239.107931 
L 147.551874 -239.210976 
L 147.958098 -239.31082 
L 148.364323 -239.417543 
L 148.770547 -239.519169 
L 149.176771 -239.622946 
L 149.582995 -239.722014 
L 149.989219 -239.787397 
L 150.395443 -239.893909 
L 150.801668 -239.96264 
L 151.207892 -240.024051 
L 151.614122 -240.077212 
L 152.020346 -240.127161 
L 152.42657 -240.172338 
L 152.832794 -240.212285 
L 153.239019 -240.24794 
L 153.645243 -240.279025 
L 154.051467 -240.305326 
L 154.457691 -240.326719 
L 154.863915 -240.343172 
L 155.270139 -240.351102 
L 155.676364 -240.34701 
L 156.082588 -240.33778 
L 156.488812 -240.320471 
L 156.895036 -240.297895 
L 157.30126 -240.271675 
L 157.707484 -240.242419 
L 158.113709 -240.215448 
L 158.519933 -240.174928 
L 158.926157 -240.104683 
L 159.332381 -240.030848 
L 159.738605 -239.960992 
L 160.144829 -239.896143 
L 160.551054 -239.837152 
L 160.957278 -239.791575 
L 161.363502 -239.75506 
L 161.769726 -239.726595 
L 162.175956 -239.704854 
L 162.58218 -239.658641 
L 162.988405 -239.636715 
L 163.394629 -239.6299 
L 163.800853 -239.630631 
L 164.207077 -239.638522 
L 164.613301 -239.64803 
L 165.019525 -239.66095 
L 165.42575 -239.677992 
L 165.831974 -239.699697 
L 166.238198 -239.725415 
L 166.644422 -239.754543 
L 167.050646 -239.786355 
L 167.45687 -239.81864 
L 167.863095 -239.851381 
L 168.269319 -239.882584 
L 168.675543 -239.904284 
L 169.081767 -239.922434 
L 169.487991 -239.939351 
L 169.894215 -239.953697 
L 170.30044 -239.974932 
L 170.706664 -239.990836 
L 171.112888 -240.005563 
L 171.519112 -240.019128 
L 171.925336 -240.031019 
L 172.33156 -240.040806 
L 172.737791 -240.049184 
L 173.144015 -240.05612 
L 173.550239 -240.061562 
L 173.956463 -240.065554 
L 174.362687 -240.068071 
L 174.768911 -240.069212 
L 175.175136 -240.069008 
L 175.58136 -240.067576 
L 175.987584 -240.064988 
L 176.393808 -240.06138 
L 176.800032 -240.056883 
L 177.206256 -240.051772 
L 177.612481 -240.048116 
L 178.018705 -240.041184 
L 178.424929 -240.032518 
L 178.831153 -240.024073 
L 179.237377 -240.007821 
L 179.643601 -239.991391 
L 180.049826 -239.97583 
L 180.45605 -239.960994 
L 180.862274 -239.947825 
L 181.268498 -239.936473 
L 181.674722 -239.927015 
L 182.080946 -239.917464 
L 182.487171 -239.909079 
L 182.893395 -239.905152 
L 183.299619 -239.903072 
L 183.705843 -239.902768 
L 184.112067 -239.904158 
L 184.518291 -239.907119 
L 184.924516 -239.911534 
L 185.33074 -239.917245 
L 185.736964 -239.924085 
L 186.143188 -239.931868 
L 186.549412 -239.940421 
L 186.955636 -239.949544 
L 187.361861 -239.957685 
L 187.768085 -239.963754 
L 188.174321 -239.968759 
L 188.580545 -239.972668 
L 188.986769 -239.97637 
L 189.392993 -239.980038 
L 189.799218 -239.990846 
L 190.205442 -239.993668 
L 190.611666 -239.996232 
L 191.01789 -239.998519 
L 191.424114 -240.000536 
L 191.830338 -240.002465 
L 192.236563 -240.004238 
L 192.642787 -240.005857 
L 193.049011 -240.007324 
L 193.455235 -240.008599 
L 193.861459 -240.009673 
L 194.267683 -240.010392 
L 194.673908 -240.01076 
L 195.080132 -240.010878 
L 195.486356 -240.010775 
L 195.89258 -240.010462 
L 196.298804 -240.009835 
L 196.705028 -240.008907 
L 197.111253 -240.007822 
L 197.517477 -240.006614 
L 197.923701 -240.005314 
L 198.329925 -240.003075 
L 198.736149 -239.999276 
L 199.142373 -239.99536 
L 199.548598 -239.992976 
L 199.954822 -239.989691 
L 200.361046 -239.986438 
L 200.76727 -239.983542 
L 201.173494 -239.981044 
L 201.579718 -239.978958 
L 201.985943 -239.977412 
L 202.392167 -239.97659 
L 202.798391 -239.975802 
L 203.204615 -239.974256 
L 203.610839 -239.973815 
L 204.017063 -239.974551 
L 204.423287 -239.975694 
L 204.829512 -239.9772 
L 205.235736 -239.978765 
L 205.64196 -239.980325 
L 206.048184 -239.981115 
L 206.454408 -239.982048 
L 206.860632 -239.983081 
L 207.266857 -239.984199 
L 207.673081 -239.985156 
L 208.079305 -239.989219 
L 208.485529 -239.993509 
L 208.891765 -239.994141 
L 209.29799 -239.994773 
L 209.704214 -239.995406 
L 210.110438 -239.996013 
L 210.516662 -239.996591 
L 210.922886 -239.997139 
L 211.32911 -239.997633 
L 211.735335 -239.998064 
L 212.141559 -239.998445 
L 212.547783 -239.998784 
L 212.954007 -239.999054 
L 213.360231 -239.999276 
L 213.766455 -239.99943 
L 214.17268 -239.999521 
L 214.578904 -239.999562 
L 214.985128 -239.999547 
L 215.391352 -239.99948 
L 215.797576 -239.999371 
L 216.2038 -239.99921 
L 216.610025 -239.99902 
L 217.016249 -239.9988 
L 217.422473 -239.998558 
L 217.828697 -239.998289 
L 218.234921 -239.998035 
L 218.641145 -239.997719 
L 219.047369 -239.99719 
L 219.453594 -239.996399 
L 219.859818 -239.995574 
L 220.266042 -239.994799 
L 220.672266 -239.994167 
L 221.07849 -239.993663 
L 221.484714 -239.993275 
L 221.890939 -239.993041 
L 222.297163 -239.992838 
L 222.703387 -239.992769 
L 223.109611 -239.992832 
L 223.515835 -239.993005 
L 223.922059 -239.99331 
L 224.328284 -239.9937 
L 224.734508 -239.994179 
L 225.140732 -239.994692 
L 225.546956 -239.995152 
L 225.95318 -239.995281 
L 226.359404 -239.995355 
L 226.765629 -239.995455 
L 227.171853 -239.995545 
L 227.578077 -239.995672 
L 227.984301 -239.995781 
L 228.390525 -239.995904 
L 228.796749 -239.996033 
L 229.202974 -239.99617 
L 229.60921 -239.996296 
L 230.015434 -239.996425 
L 230.421658 -239.996536 
L 230.827882 -239.996656 
L 231.234107 -239.996753 
L 231.640331 -239.996851 
L 232.046555 -239.996929 
L 232.452779 -239.997 
L 232.859003 -239.997055 
L 233.265227 -239.997098 
L 233.671451 -239.997121 
L 234.077676 -239.997144 
L 234.4839 -239.997154 
L 234.890124 -239.997151 
L 235.296348 -239.997138 
L 235.702572 -239.997109 
L 236.108796 -239.997077 
L 236.515021 -239.997032 
L 236.921245 -239.996997 
L 237.327469 -239.996945 
L 237.733693 -239.996887 
L 238.139917 -239.996826 
L 238.546141 -239.99677 
L 238.952366 -239.996733 
L 239.35859 -239.996664 
L 239.764814 -239.996603 
L 240.171038 -239.996551 
L 240.577262 -239.996496 
L 240.983486 -239.996461 
L 241.389711 -239.996409 
L 241.795935 -239.996372 
L 242.202159 -239.996343 
L 242.608383 -239.996307 
L 243.014607 -239.996291 
L 243.420831 -239.996278 
L 243.827056 -239.996255 
L 244.23328 -239.996245 
L 244.639504 -239.996245 
L 245.045728 -239.996248 
L 245.451952 -239.996251 
L 245.858176 -239.996267 
L 246.264401 -239.996293 
L 246.670625 -239.996312 
L 247.076849 -239.996325 
L 247.483073 -239.996344 
L 247.889297 -239.99637 
L 248.295521 -239.996389 
L 248.701746 -239.996425 
L 249.10797 -239.996454 
L 249.514194 -239.99649 
L 249.920418 -239.996509 
L 250.326642 -239.996522 
L 250.732878 -239.996541 
L 251.139103 -239.996567 
L 251.545327 -239.996583 
L 251.951551 -239.996596 
L 252.357775 -239.99662 
L 252.763999 -239.996633 
L 253.170223 -239.996649 
L 253.576448 -239.996649 
L 253.982672 -239.996649 
L 254.388896 -239.996649 
L 254.79512 -239.996649 
L 255.201344 -239.996649 
L 255.607568 -239.996643 
L 256.013793 -239.99664 
L 256.420017 -239.996637 
L 256.826241 -239.996634 
L 257.232465 -239.996618 
L 257.638689 -239.996605 
L 258.044913 -239.996582 
L 258.451138 -239.996569 
L 258.857362 -239.996553 
L 259.263586 -239.99653 
L 259.66981 -239.996519 
L 260.076034 -239.996506 
L 260.482258 -239.9965 
L 260.888483 -239.996487 
L 261.294707 -239.996484 
L 261.700931 -239.996484 
L 262.107155 -239.996484 
L 262.513379 -239.996484 
L 262.919603 -239.996484 
L 263.325828 -239.996484 
L 263.732052 -239.996484 
L 264.138276 -239.996484 
L 264.5445 -239.996484 
L 264.950724 -239.996484 
L 265.356948 -239.996484 
L 265.763173 -239.996484 
L 266.169397 -239.996484 
L 266.575621 -239.996484 
L 266.981845 -239.996484 
L 267.388069 -239.996484 
L 267.794293 -239.996487 
L 268.200518 -239.99649 
L 268.606742 -239.996496 
L 269.012966 -239.996499 
L 269.41919 -239.996499 
L 269.825414 -239.996502 
L 270.231638 -239.996508 
L 270.637863 -239.996508 
L 271.044087 -239.996518 
L 271.450323 -239.996518 
L 271.856547 -239.996518 
L 272.262771 -239.996518 
L 272.668995 -239.996518 
L 273.07522 -239.996518 
L 273.481444 -239.996518 
L 273.887668 -239.996518 
L 274.293892 -239.996518 
L 274.700116 -239.996518 
L 275.10634 -239.996518 
L 275.512565 -239.996518 
L 275.918789 -239.996518 
L 276.325013 -239.996518 
L 276.731237 -239.996518 
L 277.137461 -239.996518 
L 277.543685 -239.996518 
L 277.94991 -239.996518 
L 278.356134 -239.996518 
L 278.762358 -239.996518 
L 279.168582 -239.996518 
L 279.574806 -239.996518 
L 279.98103 -239.996518 
L 280.387255 -239.996518 
L 280.793479 -239.996518 
L 281.199703 -239.996518 
L 281.605927 -239.996518 
L 282.012151 -239.996518 
L 282.418375 -239.996518 
L 282.8246 -239.996518 
L 283.230824 -239.996518 
L 283.637048 -239.996518 
L 284.043272 -239.996518 
L 284.449496 -239.996518 
L 284.85572 -239.996518 
L 285.261945 -239.996518 
L 285.668169 -239.996518 
L 286.074393 -239.996518 
L 286.480617 -239.996518 
L 286.886841 -239.996518 
L 287.293065 -239.996512 
L 287.69929 -239.996509 
L 288.105514 -239.996509 
L 288.511738 -239.996509 
L 288.917962 -239.996509 
L 289.324186 -239.996509 
L 289.73041 -239.996509 
L 290.136634 -239.996509 
L 290.542859 -239.996509 
L 290.949083 -239.996509 
L 291.355307 -239.996509 
L 291.761531 -239.996509 
L 292.167755 -239.996509 
L 292.574004 -239.996509 
L 292.980228 -239.996509 
L 293.386452 -239.996509 
L 293.792676 -239.996509 
L 294.1989 -239.996509 
L 294.605124 -239.996509 
L 295.011349 -239.996509 
L 295.417573 -239.996509 
L 295.823797 -239.996509 
L 296.230021 -239.996509 
L 296.636245 -239.996509 
L 297.042469 -239.996509 
L 297.448694 -239.996509 
L 297.854918 -239.996509 
L 298.261142 -239.996509 
L 298.667366 -239.996509 
L 299.07359 -239.996509 
L 299.479814 -239.996509 
L 299.886039 -239.996509 
L 300.292263 -239.996509 
L 300.698487 -239.996509 
L 301.104711 -239.996509 
L 301.510935 -239.996509 
L 301.917159 -239.996509 
L 302.323384 -239.996509 
L 302.729608 -239.996509 
L 303.135832 -239.996509 
L 303.542056 -239.996509 
L 303.94828 -239.996509 
L 304.354504 -239.996509 
L 304.760729 -239.996509 
L 305.166953 -239.996509 
L 305.573177 -239.996509 
L 305.979401 -239.996509 
L 306.385625 -239.996509 
L 306.791849 -239.996509 
L 307.198074 -239.996509 
L 307.604298 -239.996509 
L 308.010522 -239.996509 
L 308.416746 -239.996509 
L 308.82297 -239.996509 
L 309.229194 -239.996509 
L 309.635419 -239.996509 
L 310.041643 -239.996509 
L 310.447867 -239.996509 
L 310.854091 -239.996509 
L 311.260315 -239.996509 
L 311.666539 -239.996509 
L 312.072764 -239.996509 
L 312.478988 -239.996509 
L 312.885212 -239.996509 
L 313.291436 -239.996509 
L 313.69766 -239.996509 
L 314.103884 -239.996509 
L 314.510109 -239.996509 
L 314.916333 -239.996509 
L 315.322557 -239.996509 
L 315.728781 -239.996509 
L 316.135005 -239.996509 
L 316.541229 -239.996509 
L 316.947454 -239.996509 
L 317.353678 -239.996509 
L 317.759902 -239.996509 
L 318.166126 -239.996509 
L 318.57235 -239.996509 
L 318.978574 -239.996509 
L 319.384799 -239.996509 
L 319.791023 -239.996509 
L 320.197247 -239.996509 
L 320.603471 -239.996509 
L 321.009695 -239.996509 
L 321.415919 -239.996509 
L 321.822143 -239.996509 
L 322.228368 -239.996509 
L 322.634592 -239.996509 
L 323.040816 -239.996509 
L 323.44704 -239.996509 
L 323.853264 -239.996509 
L 324.259488 -239.996509 
L 324.665713 -239.996509 
L 325.071937 -239.996509 
L 325.478161 -239.996509 
L 325.884385 -239.996509 
L 326.290609 -239.996509 
L 326.696833 -239.996509 
L 327.103058 -239.996509 
L 327.509282 -239.996509 
L 327.915506 -239.996509 
L 328.32173 -239.996509 
L 328.727954 -239.996509 
L 329.134178 -239.996509 
L 329.540403 -239.996509 
L 329.946627 -239.996509 
L 330.352851 -239.996509 
L 330.759075 -239.996509 
L 331.165299 -239.996509 
L 331.571523 -239.996509 
L 331.977748 -239.996509 
L 332.383972 -239.996509 
L 332.790196 -239.996509 
L 333.19642 -239.996509 
L 333.602644 -239.996509 
L 334.008893 -239.996509 
L 334.415117 -239.996509 
L 334.821341 -239.996509 
L 335.227565 -239.996509 
L 335.633789 -239.996509 
L 336.040013 -239.996509 
L 336.446238 -239.996509 
L 336.852462 -239.996509 
L 337.258686 -239.996509 
L 337.66491 -239.996509 
L 338.071134 -239.996509 
L 338.477358 -239.996509 
L 338.883583 -239.996509 
L 339.289807 -239.996509 
L 339.696031 -239.996509 
L 340.102255 -239.996509 
L 340.508479 -239.996509 
L 340.914703 -239.996509 
L 341.320928 -239.996509 
L 341.727152 -239.996509 
L 342.133376 -239.996509 
L 342.5396 -239.996509 
L 342.945824 -239.996509 
L 343.352048 -239.996509 
L 343.758273 -239.996509 
L 344.164497 -239.996509 
L 344.570721 -239.996509 
L 344.976945 -239.996509 
L 345.383169 -239.996509 
L 345.789393 -239.996509 
L 346.195618 -239.996509 
L 346.601842 -239.996509 
L 347.008066 -239.996509 
L 347.41429 -239.996509 
L 347.820514 -239.996509 
L 348.226738 -239.996509 
L 348.632963 -239.996509 
L 349.039187 -239.996509 
L 349.445411 -239.996509 
L 349.851635 -239.996509 
L 350.257859 -239.996509 
L 350.664083 -239.996509 
L 351.070307 -239.996509 
L 351.476532 -239.996509 
L 351.882756 -239.996509 
L 352.28898 -239.996509 
L 352.695204 -239.996509 
L 353.101428 -239.996509 
L 353.507652 -239.996509 
L 353.913877 -239.996509 
L 354.320101 -239.996509 
L 354.726325 -239.996509 
L 355.132549 -239.996509 
L 355.538773 -239.996509 
L 355.944997 -239.996509 
L 356.351222 -239.996509 
L 356.757446 -239.996509 
L 357.16367 -239.996509 
L 357.569894 -239.996509 
L 357.976118 -239.996509 
L 358.382342 -239.996509 
L 358.788567 -239.996509 
L 359.194791 -239.996509 
L 359.601015 -239.996509 
L 360.007239 -239.996509 
L 360.413463 -239.996509 
L 360.819687 -239.996509 
L 361.225912 -239.996509 
L 361.632136 -239.996509 
L 362.03836 -239.996509 
L 362.444584 -239.996509 
L 362.850808 -239.996509 
L 363.257032 -239.996509 
L 363.663257 -239.996509 
L 364.069481 -239.996509 
L 364.475705 -239.996509 
L 364.881929 -239.996509 
L 365.288153 -239.996509 
L 365.694377 -239.996509 
L 366.100602 -239.996509 
L 366.506826 -239.996509 
L 366.91305 -239.996509 
L 367.319274 -239.996509 
L 367.725498 -239.996509 
L 368.131722 -239.996509 
L 368.537947 -239.996509 
L 368.944171 -239.996509 
L 369.350395 -239.996509 
L 369.756619 -239.996509 
L 370.162843 -239.996509 
L 370.569067 -239.996509 
L 370.975292 -239.996509 
L 371.381516 -239.996509 
L 371.78774 -239.996509 
L 372.193964 -239.996509 
L 372.600188 -239.996509 
L 373.006412 -239.996509 
L 373.412637 -239.996509 
L 373.818861 -239.996509 
L 374.225085 -239.996509 
L 374.631309 -239.996509 
L 375.037533 -239.996509 
L 375.443782 -239.996509 
L 375.850006 -239.996509 
L 376.25623 -239.996509 
L 376.662454 -239.996509 
L 377.068678 -239.996509 
L 377.474902 -239.996509 
L 377.881127 -239.996509 
L 378.287351 -239.996509 
L 378.693575 -239.996509 
L 379.099799 -239.996509 
L 379.506023 -239.996509 
L 379.912247 -239.996509 
L 380.318471 -239.996509 
L 380.724696 -239.996509 
L 381.13092 -239.996509 
L 381.537144 -239.996509 
L 381.943368 -239.996509 
L 382.349592 -239.996509 
L 382.755816 -239.996509 
L 383.162041 -239.996509 
L 383.568265 -239.996509 
L 383.974489 -239.996509 
L 384.380713 -239.996509 
L 384.786937 -239.996509 
L 385.193161 -239.996509 
L 385.599386 -239.996509 
L 386.00561 -239.996509 
L 386.411834 -239.996509 
L 386.818058 -239.996509 
L 387.224282 -239.996509 
L 387.630506 -239.996509 
L 388.036731 -239.996509 
L 388.442955 -239.996509 
L 388.849179 -239.996509 
L 389.255403 -239.996509 
L 389.661627 -239.996509 
L 390.067851 -239.996509 
L 390.474076 -239.996509 
L 390.8803 -239.996509 
L 391.286524 -239.996509 
L 391.692748 -239.996509 
L 392.098972 -239.996509 
L 392.505196 -239.996509 
L 392.911421 -239.996509 
L 393.317645 -239.996509 
L 393.723869 -239.996509 
L 394.130093 -239.996509 
L 394.536317 -239.996509 
L 394.942541 -239.996509 
L 395.348766 -239.996509 
L 395.75499 -239.996509 
L 396.161214 -239.996509 
L 396.567438 -239.996509 
L 396.973662 -239.996509 
L 397.379886 -239.996509 
L 397.786111 -239.996509 
L 398.192335 -239.996509 
L 398.598559 -239.996509 
L 399.004783 -239.996509 
L 399.411007 -239.996509 
L 399.817231 -239.996509 
L 400.223456 -239.996509 
L 400.62968 -239.996509 
L 401.035904 -239.996509 
L 401.442128 -239.996509 
L 401.848352 -239.996509 
L 402.254576 -239.996509 
L 402.660801 -239.996509 
L 403.067025 -239.996509 
L 403.473249 -239.996509 
L 403.879473 -239.996509 
L 404.285697 -239.996509 
L 404.691921 -239.996509 
L 405.098146 -239.996509 
L 405.50437 -239.996509 
L 405.910594 -239.996509 
L 406.316818 -239.996509 
L 406.723042 -239.996509 
L 407.129266 -239.996509 
L 407.53549 -239.996509 
L 407.941715 -239.996509 
L 408.347939 -239.996509 
L 408.754163 -239.996509 
L 409.160387 -239.996509 
L 409.566611 -239.996509 
L 409.972835 -239.996509 
L 410.37906 -239.996509 
L 410.785284 -239.996509 
L 411.191508 -239.996509 
L 411.597732 -239.996509 
L 412.003956 -239.996509 
L 412.41018 -239.996509 
L 412.816405 -239.996509 
L 413.222629 -239.996509 
L 413.628853 -239.996509 
L 414.035077 -239.996509 
L 414.441301 -239.996509 
L 414.847525 -239.996509 
L 415.25375 -239.996509 
L 415.659974 -239.996509 
L 416.066198 -239.996509 
L 416.472422 -239.996509 
L 416.878646 -239.996509 
L 417.284895 -239.996509 
L 417.691119 -239.996509 
L 418.097343 -239.996509 
L 418.503567 -239.996509 
L 418.909791 -239.996509 
L 419.316015 -239.996509 
L 419.72224 -239.996509 
L 420.128464 -239.996509 
L 420.534688 -239.996509 
L 420.940912 -239.996509 
L 421.347136 -239.996509 
L 421.75336 -239.996509 
L 422.159585 -239.996509 
L 422.565809 -239.996509 
L 422.972033 -239.996509 
L 423.378257 -239.996509 
L 423.784481 -239.996509 
L 424.190705 -239.996509 
L 424.59693 -239.996509 
L 425.003154 -239.996509 
L 425.409378 -239.996509 
L 425.815602 -239.996509 
L 426.221826 -239.996509 
L 426.62805 -239.996509 
L 427.034275 -239.996509 
L 427.440499 -239.996509 
L 427.846723 -239.996509 
L 428.252947 -239.996509 
L 428.659171 -239.996509 
L 429.065395 -239.996509 
L 429.47162 -239.996509 
L 429.877844 -239.996509 
L 430.284068 -239.996509 
L 430.690292 -239.996509 
L 431.096516 -239.996509 
L 431.50274 -239.996509 
L 431.908965 -239.996509 
L 432.315189 -239.996509 
L 432.721413 -239.996509 
L 433.127637 -239.996509 
L 433.533861 -239.996509 
L 433.940085 -239.996509 
L 434.34631 -239.996509 
L 434.752534 -239.996509 
L 435.158758 -239.996509 
L 435.564982 -239.996509 
L 435.971206 -239.996509 
L 436.37743 -239.996509 
L 436.783654 -239.996509 
L 437.189879 -239.996509 
L 437.596103 -239.996509 
L 438.002327 -239.996509 
L 438.408551 -239.996509 
L 438.814775 -239.996509 
L 439.220999 -239.996509 
L 439.627224 -239.996509 
L 440.033448 -239.996509 
L 440.439672 -239.996509 
L 440.845896 -239.996509 
L 441.25212 -239.996509 
L 441.658344 -239.996509 
L 442.064569 -239.996509 
L 442.470793 -239.996509 
L 442.877017 -239.996509 
L 443.283241 -239.996509 
L 443.689465 -239.996509 
L 444.095689 -239.996509 
L 444.501914 -239.996509 
L 444.908138 -239.996509 
L 445.314362 -239.996509 
L 445.720586 -239.996509 
L 446.12681 -239.996509 
L 446.533034 -239.996509 
L 446.939259 -239.996509 
L 447.345483 -239.996509 
L 447.751707 -239.996509 
L 448.157931 -239.996509 
L 448.564155 -239.996509 
L 448.970379 -239.996509 
L 449.376604 -239.996509 
L 449.782828 -239.996509 
L 450.189052 -239.996509 
L 450.595276 -239.996509 
L 451.0015 -239.996509 
L 451.407724 -239.996509 
L 451.813949 -239.996509 
L 452.220173 -239.996509 
L 452.626397 -239.996509 
L 453.032621 -239.996509 
L 453.438845 -239.996509 
L 453.845069 -239.996509 
L 454.251294 -239.996509 
L 454.657518 -239.996509 
L 455.063742 -239.996509 
L 455.469966 -239.996509 
L 455.87619 -239.996509 
L 456.282414 -239.996509 
L 456.688639 -239.996509 
L 457.094863 -239.996509 
L 457.501087 -239.996509 
L 457.907311 -239.996509 
L 458.313535 -239.996509 
L 458.719784 -239.996509 
L 459.126008 -239.996509 
L 459.532232 -239.996509 
L 459.938456 -239.996509 
L 460.34468 -239.996509 
L 460.750904 -239.996509 
L 461.157129 -239.996509 
L 461.563353 -239.996509 
L 461.969577 -239.996509 
L 462.375801 -239.996509 
L 462.782025 -239.996509 
L 463.188249 -239.996509 
L 463.594474 -239.996509 
L 464.000698 -239.996509 
L 464.406922 -239.996509 
L 464.813146 -239.996509 
L 465.21937 -239.996509 
L 465.625594 -239.996509 
L 466.031818 -239.996509 
L 466.438043 -239.996509 
L 466.844267 -239.996509 
L 467.250491 -239.996509 
L 467.656715 -239.996509 
L 468.062939 -239.996509 
L 468.469163 -239.996509 
L 468.875388 -239.996509 
L 469.281612 -239.996509 
L 469.687836 -239.996509 
L 470.09406 -239.996509 
L 470.500284 -239.996509 
L 470.906508 -239.996509 
L 471.312733 -239.996509 
L 471.718957 -239.996509 
L 472.125181 -239.996509 
L 472.531405 -239.996509 
L 472.937629 -239.996509 
L 473.343853 -239.996509 
L 473.750078 -239.996509 
L 474.156302 -239.996509 
L 474.562526 -239.996509 
L 474.96875 -239.996509 
L 475.374974 -239.996509 
L 475.781198 -239.996509 
L 476.187423 -239.996509 
L 476.593647 -239.996509 
L 476.999871 -239.996509 
L 477.406095 -239.996509 
L 477.812319 -239.996509 
L 478.218543 -239.996509 
L 478.624768 -239.996509 
L 479.030992 -239.996509 
L 479.437216 -239.996509 
L 479.437216 -240.138474 
L 479.437216 -240.138474 
L 479.030992 -240.138474 
L 478.624768 -240.138474 
L 478.218543 -240.138474 
L 477.812319 -240.138474 
L 477.406095 -240.138474 
L 476.999871 -240.138474 
L 476.593647 -240.138474 
L 476.187423 -240.138474 
L 475.781198 -240.138474 
L 475.374974 -240.138474 
L 474.96875 -240.138474 
L 474.562526 -240.138474 
L 474.156302 -240.138474 
L 473.750078 -240.138474 
L 473.343853 -240.138474 
L 472.937629 -240.138474 
L 472.531405 -240.138474 
L 472.125181 -240.138474 
L 471.718957 -240.138474 
L 471.312733 -240.138474 
L 470.906508 -240.138474 
L 470.500284 -240.138474 
L 470.09406 -240.138474 
L 469.687836 -240.138474 
L 469.281612 -240.138474 
L 468.875388 -240.138474 
L 468.469163 -240.138474 
L 468.062939 -240.138474 
L 467.656715 -240.138474 
L 467.250491 -240.138474 
L 466.844267 -240.138474 
L 466.438043 -240.138474 
L 466.031818 -240.138474 
L 465.625594 -240.138474 
L 465.21937 -240.138474 
L 464.813146 -240.138474 
L 464.406922 -240.138474 
L 464.000698 -240.138474 
L 463.594474 -240.138474 
L 463.188249 -240.138474 
L 462.782025 -240.138474 
L 462.375801 -240.138474 
L 461.969577 -240.138474 
L 461.563353 -240.138474 
L 461.157129 -240.138474 
L 460.750904 -240.138474 
L 460.34468 -240.138474 
L 459.938456 -240.138474 
L 459.532232 -240.138474 
L 459.126008 -240.138474 
L 458.719784 -240.138474 
L 458.313535 -240.138474 
L 457.907311 -240.138474 
L 457.501087 -240.138474 
L 457.094863 -240.138474 
L 456.688639 -240.138474 
L 456.282414 -240.138474 
L 455.87619 -240.138474 
L 455.469966 -240.138474 
L 455.063742 -240.138474 
L 454.657518 -240.138474 
L 454.251294 -240.138474 
L 453.845069 -240.138474 
L 453.438845 -240.138474 
L 453.032621 -240.138474 
L 452.626397 -240.138474 
L 452.220173 -240.138474 
L 451.813949 -240.138474 
L 451.407724 -240.138474 
L 451.0015 -240.138474 
L 450.595276 -240.138474 
L 450.189052 -240.138474 
L 449.782828 -240.138474 
L 449.376604 -240.138474 
L 448.970379 -240.138474 
L 448.564155 -240.138474 
L 448.157931 -240.138474 
L 447.751707 -240.138474 
L 447.345483 -240.138474 
L 446.939259 -240.138474 
L 446.533034 -240.138474 
L 446.12681 -240.138474 
L 445.720586 -240.138474 
L 445.314362 -240.138474 
L 444.908138 -240.138474 
L 444.501914 -240.138474 
L 444.095689 -240.138474 
L 443.689465 -240.138474 
L 443.283241 -240.138474 
L 442.877017 -240.138474 
L 442.470793 -240.138474 
L 442.064569 -240.138474 
L 441.658344 -240.138474 
L 441.25212 -240.138474 
L 440.845896 -240.138474 
L 440.439672 -240.138474 
L 440.033448 -240.138474 
L 439.627224 -240.138474 
L 439.220999 -240.138474 
L 438.814775 -240.138474 
L 438.408551 -240.138474 
L 438.002327 -240.138474 
L 437.596103 -240.138474 
L 437.189879 -240.138474 
L 436.783654 -240.138474 
L 436.37743 -240.138474 
L 435.971206 -240.138474 
L 435.564982 -240.138474 
L 435.158758 -240.138474 
L 434.752534 -240.138474 
L 434.34631 -240.138474 
L 433.940085 -240.138474 
L 433.533861 -240.138474 
L 433.127637 -240.138474 
L 432.721413 -240.138474 
L 432.315189 -240.138474 
L 431.908965 -240.138474 
L 431.50274 -240.138474 
L 431.096516 -240.138474 
L 430.690292 -240.138474 
L 430.284068 -240.138474 
L 429.877844 -240.138474 
L 429.47162 -240.138474 
L 429.065395 -240.138474 
L 428.659171 -240.138474 
L 428.252947 -240.138474 
L 427.846723 -240.138474 
L 427.440499 -240.138474 
L 427.034275 -240.138474 
L 426.62805 -240.138474 
L 426.221826 -240.138474 
L 425.815602 -240.138474 
L 425.409378 -240.138474 
L 425.003154 -240.138474 
L 424.59693 -240.138474 
L 424.190705 -240.138474 
L 423.784481 -240.138474 
L 423.378257 -240.138474 
L 422.972033 -240.138474 
L 422.565809 -240.138474 
L 422.159585 -240.138474 
L 421.75336 -240.138474 
L 421.347136 -240.138474 
L 420.940912 -240.138474 
L 420.534688 -240.138474 
L 420.128464 -240.138474 
L 419.72224 -240.138474 
L 419.316015 -240.138474 
L 418.909791 -240.138474 
L 418.503567 -240.138474 
L 418.097343 -240.138474 
L 417.691119 -240.138474 
L 417.284895 -240.138474 
L 416.878646 -240.138474 
L 416.472422 -240.138474 
L 416.066198 -240.138474 
L 415.659974 -240.138474 
L 415.25375 -240.138474 
L 414.847525 -240.138474 
L 414.441301 -240.138474 
L 414.035077 -240.138474 
L 413.628853 -240.138474 
L 413.222629 -240.138474 
L 412.816405 -240.138474 
L 412.41018 -240.138474 
L 412.003956 -240.138474 
L 411.597732 -240.138474 
L 411.191508 -240.138474 
L 410.785284 -240.138474 
L 410.37906 -240.138474 
L 409.972835 -240.138474 
L 409.566611 -240.138474 
L 409.160387 -240.138474 
L 408.754163 -240.138474 
L 408.347939 -240.138474 
L 407.941715 -240.138474 
L 407.53549 -240.138474 
L 407.129266 -240.138474 
L 406.723042 -240.138474 
L 406.316818 -240.138474 
L 405.910594 -240.138474 
L 405.50437 -240.138474 
L 405.098146 -240.138474 
L 404.691921 -240.138474 
L 404.285697 -240.138474 
L 403.879473 -240.138474 
L 403.473249 -240.138474 
L 403.067025 -240.138474 
L 402.660801 -240.138474 
L 402.254576 -240.138474 
L 401.848352 -240.138474 
L 401.442128 -240.138474 
L 401.035904 -240.138474 
L 400.62968 -240.138474 
L 400.223456 -240.138474 
L 399.817231 -240.138474 
L 399.411007 -240.138474 
L 399.004783 -240.138474 
L 398.598559 -240.138474 
L 398.192335 -240.138474 
L 397.786111 -240.138474 
L 397.379886 -240.138474 
L 396.973662 -240.138474 
L 396.567438 -240.138474 
L 396.161214 -240.138474 
L 395.75499 -240.138474 
L 395.348766 -240.138474 
L 394.942541 -240.138474 
L 394.536317 -240.138474 
L 394.130093 -240.138474 
L 393.723869 -240.138474 
L 393.317645 -240.138474 
L 392.911421 -240.138474 
L 392.505196 -240.138474 
L 392.098972 -240.138474 
L 391.692748 -240.138474 
L 391.286524 -240.138474 
L 390.8803 -240.138474 
L 390.474076 -240.138474 
L 390.067851 -240.138474 
L 389.661627 -240.138474 
L 389.255403 -240.138474 
L 388.849179 -240.138474 
L 388.442955 -240.138474 
L 388.036731 -240.138474 
L 387.630506 -240.138474 
L 387.224282 -240.138474 
L 386.818058 -240.138474 
L 386.411834 -240.138474 
L 386.00561 -240.138474 
L 385.599386 -240.138474 
L 385.193161 -240.138474 
L 384.786937 -240.138474 
L 384.380713 -240.138474 
L 383.974489 -240.138474 
L 383.568265 -240.138474 
L 383.162041 -240.138474 
L 382.755816 -240.138474 
L 382.349592 -240.138474 
L 381.943368 -240.138474 
L 381.537144 -240.138474 
L 381.13092 -240.138474 
L 380.724696 -240.138474 
L 380.318471 -240.138474 
L 379.912247 -240.138474 
L 379.506023 -240.138474 
L 379.099799 -240.138474 
L 378.693575 -240.138474 
L 378.287351 -240.138474 
L 377.881127 -240.138474 
L 377.474902 -240.138474 
L 377.068678 -240.138474 
L 376.662454 -240.138474 
L 376.25623 -240.138474 
L 375.850006 -240.138474 
L 375.443782 -240.138474 
L 375.037533 -240.138474 
L 374.631309 -240.138474 
L 374.225085 -240.138474 
L 373.818861 -240.138474 
L 373.412637 -240.138474 
L 373.006412 -240.138474 
L 372.600188 -240.138474 
L 372.193964 -240.138474 
L 371.78774 -240.138474 
L 371.381516 -240.138474 
L 370.975292 -240.138474 
L 370.569067 -240.138474 
L 370.162843 -240.138474 
L 369.756619 -240.138474 
L 369.350395 -240.138474 
L 368.944171 -240.138474 
L 368.537947 -240.138474 
L 368.131722 -240.138474 
L 367.725498 -240.138474 
L 367.319274 -240.138474 
L 366.91305 -240.138474 
L 366.506826 -240.138474 
L 366.100602 -240.138474 
L 365.694377 -240.138474 
L 365.288153 -240.138474 
L 364.881929 -240.138474 
L 364.475705 -240.138474 
L 364.069481 -240.138474 
L 363.663257 -240.138474 
L 363.257032 -240.138474 
L 362.850808 -240.138474 
L 362.444584 -240.138474 
L 362.03836 -240.138474 
L 361.632136 -240.138474 
L 361.225912 -240.138474 
L 360.819687 -240.138474 
L 360.413463 -240.138474 
L 360.007239 -240.138474 
L 359.601015 -240.138474 
L 359.194791 -240.138474 
L 358.788567 -240.138474 
L 358.382342 -240.138474 
L 357.976118 -240.138474 
L 357.569894 -240.138474 
L 357.16367 -240.138474 
L 356.757446 -240.138474 
L 356.351222 -240.138474 
L 355.944997 -240.138474 
L 355.538773 -240.138474 
L 355.132549 -240.138474 
L 354.726325 -240.138474 
L 354.320101 -240.138474 
L 353.913877 -240.138474 
L 353.507652 -240.138474 
L 353.101428 -240.138474 
L 352.695204 -240.138474 
L 352.28898 -240.138474 
L 351.882756 -240.138474 
L 351.476532 -240.138474 
L 351.070307 -240.138474 
L 350.664083 -240.138474 
L 350.257859 -240.138474 
L 349.851635 -240.138474 
L 349.445411 -240.138474 
L 349.039187 -240.138474 
L 348.632963 -240.138474 
L 348.226738 -240.138474 
L 347.820514 -240.138474 
L 347.41429 -240.138474 
L 347.008066 -240.138474 
L 346.601842 -240.138474 
L 346.195618 -240.138474 
L 345.789393 -240.138474 
L 345.383169 -240.138474 
L 344.976945 -240.138474 
L 344.570721 -240.138474 
L 344.164497 -240.138474 
L 343.758273 -240.138474 
L 343.352048 -240.138474 
L 342.945824 -240.138474 
L 342.5396 -240.138474 
L 342.133376 -240.138474 
L 341.727152 -240.138474 
L 341.320928 -240.138474 
L 340.914703 -240.138474 
L 340.508479 -240.138474 
L 340.102255 -240.138474 
L 339.696031 -240.138474 
L 339.289807 -240.138474 
L 338.883583 -240.138474 
L 338.477358 -240.138474 
L 338.071134 -240.138474 
L 337.66491 -240.138474 
L 337.258686 -240.138474 
L 336.852462 -240.138474 
L 336.446238 -240.138474 
L 336.040013 -240.138474 
L 335.633789 -240.138474 
L 335.227565 -240.138474 
L 334.821341 -240.138474 
L 334.415117 -240.138474 
L 334.008893 -240.138474 
L 333.602644 -240.138474 
L 333.19642 -240.138474 
L 332.790196 -240.138474 
L 332.383972 -240.138474 
L 331.977748 -240.138474 
L 331.571523 -240.138474 
L 331.165299 -240.138474 
L 330.759075 -240.138474 
L 330.352851 -240.138474 
L 329.946627 -240.138474 
L 329.540403 -240.138474 
L 329.134178 -240.138474 
L 328.727954 -240.138474 
L 328.32173 -240.138474 
L 327.915506 -240.138474 
L 327.509282 -240.138474 
L 327.103058 -240.138474 
L 326.696833 -240.138474 
L 326.290609 -240.138474 
L 325.884385 -240.138474 
L 325.478161 -240.138474 
L 325.071937 -240.138474 
L 324.665713 -240.138474 
L 324.259488 -240.138474 
L 323.853264 -240.138474 
L 323.44704 -240.138474 
L 323.040816 -240.138474 
L 322.634592 -240.138474 
L 322.228368 -240.138474 
L 321.822143 -240.138474 
L 321.415919 -240.138474 
L 321.009695 -240.138474 
L 320.603471 -240.138474 
L 320.197247 -240.138474 
L 319.791023 -240.138474 
L 319.384799 -240.138474 
L 318.978574 -240.138474 
L 318.57235 -240.138474 
L 318.166126 -240.138474 
L 317.759902 -240.138474 
L 317.353678 -240.138474 
L 316.947454 -240.138474 
L 316.541229 -240.138474 
L 316.135005 -240.138474 
L 315.728781 -240.138474 
L 315.322557 -240.138474 
L 314.916333 -240.138474 
L 314.510109 -240.138474 
L 314.103884 -240.138474 
L 313.69766 -240.138474 
L 313.291436 -240.138474 
L 312.885212 -240.138474 
L 312.478988 -240.138474 
L 312.072764 -240.138474 
L 311.666539 -240.138474 
L 311.260315 -240.138474 
L 310.854091 -240.138474 
L 310.447867 -240.138474 
L 310.041643 -240.138474 
L 309.635419 -240.138474 
L 309.229194 -240.138474 
L 308.82297 -240.138474 
L 308.416746 -240.138474 
L 308.010522 -240.138474 
L 307.604298 -240.138474 
L 307.198074 -240.138474 
L 306.791849 -240.138474 
L 306.385625 -240.138474 
L 305.979401 -240.138474 
L 305.573177 -240.138474 
L 305.166953 -240.138474 
L 304.760729 -240.138474 
L 304.354504 -240.138474 
L 303.94828 -240.138474 
L 303.542056 -240.138474 
L 303.135832 -240.138474 
L 302.729608 -240.138474 
L 302.323384 -240.138474 
L 301.917159 -240.138474 
L 301.510935 -240.138474 
L 301.104711 -240.138474 
L 300.698487 -240.138474 
L 300.292263 -240.138474 
L 299.886039 -240.138474 
L 299.479814 -240.138474 
L 299.07359 -240.138474 
L 298.667366 -240.138474 
L 298.261142 -240.138474 
L 297.854918 -240.138474 
L 297.448694 -240.138474 
L 297.042469 -240.138474 
L 296.636245 -240.138474 
L 296.230021 -240.138474 
L 295.823797 -240.138474 
L 295.417573 -240.138474 
L 295.011349 -240.138474 
L 294.605124 -240.138474 
L 294.1989 -240.138474 
L 293.792676 -240.138474 
L 293.386452 -240.138474 
L 292.980228 -240.138474 
L 292.574004 -240.138474 
L 292.167755 -240.138474 
L 291.761531 -240.138474 
L 291.355307 -240.138474 
L 290.949083 -240.138474 
L 290.542859 -240.138474 
L 290.136634 -240.138474 
L 289.73041 -240.138474 
L 289.324186 -240.138474 
L 288.917962 -240.138474 
L 288.511738 -240.138474 
L 288.105514 -240.138474 
L 287.69929 -240.138474 
L 287.293065 -240.138474 
L 286.886841 -240.138474 
L 286.480617 -240.138474 
L 286.074393 -240.138474 
L 285.668169 -240.138474 
L 285.261945 -240.138474 
L 284.85572 -240.138474 
L 284.449496 -240.138474 
L 284.043272 -240.138474 
L 283.637048 -240.138474 
L 283.230824 -240.138474 
L 282.8246 -240.138474 
L 282.418375 -240.138474 
L 282.012151 -240.138474 
L 281.605927 -240.138474 
L 281.199703 -240.138474 
L 280.793479 -240.138474 
L 280.387255 -240.138474 
L 279.98103 -240.138474 
L 279.574806 -240.138474 
L 279.168582 -240.138474 
L 278.762358 -240.138474 
L 278.356134 -240.138474 
L 277.94991 -240.138471 
L 277.543685 -240.138471 
L 277.137461 -240.138471 
L 276.731237 -240.138471 
L 276.325013 -240.138471 
L 275.918789 -240.138471 
L 275.512565 -240.138471 
L 275.10634 -240.138471 
L 274.700116 -240.138471 
L 274.293892 -240.138471 
L 273.887668 -240.138471 
L 273.481444 -240.138471 
L 273.07522 -240.138471 
L 272.668995 -240.138471 
L 272.262771 -240.138471 
L 271.856547 -240.138471 
L 271.450323 -240.138471 
L 271.044087 -240.138471 
L 270.637863 -240.138471 
L 270.231638 -240.138471 
L 269.825414 -240.138461 
L 269.41919 -240.13845 
L 269.012966 -240.13843 
L 268.606742 -240.13842 
L 268.200518 -240.13841 
L 267.794293 -240.13839 
L 267.388069 -240.13839 
L 266.981845 -240.13839 
L 266.575621 -240.13839 
L 266.169397 -240.13839 
L 265.763173 -240.13839 
L 265.356948 -240.13839 
L 264.950724 -240.13839 
L 264.5445 -240.13839 
L 264.138276 -240.13839 
L 263.732052 -240.138393 
L 263.325828 -240.138396 
L 262.919603 -240.138398 
L 262.513379 -240.138404 
L 262.107155 -240.138407 
L 261.700931 -240.138407 
L 261.294707 -240.13843 
L 260.888483 -240.138446 
L 260.482258 -240.13846 
L 260.076034 -240.13848 
L 259.66981 -240.13849 
L 259.263586 -240.1385 
L 258.857362 -240.13851 
L 258.451138 -240.13853 
L 258.044913 -240.13854 
L 257.638689 -240.138551 
L 257.232465 -240.138561 
L 256.826241 -240.138581 
L 256.420017 -240.138591 
L 256.013793 -240.138601 
L 255.607568 -240.138598 
L 255.201344 -240.138592 
L 254.79512 -240.138589 
L 254.388896 -240.138589 
L 253.982672 -240.138587 
L 253.576448 -240.138581 
L 253.170223 -240.138568 
L 252.763999 -240.138555 
L 252.357775 -240.138531 
L 251.951551 -240.138515 
L 251.545327 -240.138502 
L 251.139103 -240.138489 
L 250.732878 -240.138453 
L 250.326642 -240.13843 
L 249.920418 -240.138397 
L 249.514194 -240.138363 
L 249.10797 -240.138347 
L 248.701746 -240.138324 
L 248.295521 -240.138291 
L 247.889297 -240.138268 
L 247.483073 -240.138237 
L 247.076849 -240.138207 
L 246.670625 -240.138197 
L 246.264401 -240.138187 
L 245.858176 -240.138176 
L 245.451952 -240.138156 
L 245.045728 -240.138159 
L 244.639504 -240.138162 
L 244.23328 -240.138165 
L 243.827056 -240.138194 
L 243.420831 -240.13821 
L 243.014607 -240.138229 
L 242.608383 -240.138268 
L 242.202159 -240.138297 
L 241.795935 -240.138347 
L 241.389711 -240.138399 
L 240.983486 -240.138431 
L 240.577262 -240.1385 
L 240.171038 -240.138563 
L 239.764814 -240.138622 
L 239.35859 -240.138674 
L 238.952366 -240.138734 
L 238.546141 -240.138793 
L 238.139917 -240.138853 
L 237.733693 -240.138899 
L 237.327469 -240.138953 
L 236.921245 -240.138999 
L 236.515021 -240.139029 
L 236.108796 -240.13906 
L 235.702572 -240.139074 
L 235.296348 -240.139091 
L 234.890124 -240.139085 
L 234.4839 -240.139077 
L 234.077676 -240.139065 
L 233.671451 -240.13902 
L 233.265227 -240.138968 
L 232.859003 -240.13892 
L 232.452779 -240.138841 
L 232.046555 -240.13877 
L 231.640331 -240.138676 
L 231.234107 -240.138564 
L 230.827882 -240.13846 
L 230.421658 -240.138332 
L 230.015434 -240.13822 
L 229.60921 -240.138082 
L 229.202974 -240.137951 
L 228.796749 -240.137819 
L 228.390525 -240.137697 
L 227.984301 -240.137581 
L 227.578077 -240.137455 
L 227.171853 -240.137352 
L 226.765629 -240.137265 
L 226.359404 -240.137181 
L 225.95318 -240.137131 
L 225.546956 -240.137096 
L 225.140732 -240.137078 
L 224.734508 -240.137092 
L 224.328284 -240.13713 
L 223.922059 -240.137197 
L 223.515835 -240.137284 
L 223.109611 -240.137403 
L 222.703387 -240.137543 
L 222.297163 -240.137705 
L 221.890939 -240.137901 
L 221.484714 -240.138116 
L 221.07849 -240.138345 
L 220.672266 -240.138601 
L 220.266042 -240.138876 
L 219.859818 -240.139162 
L 219.453594 -240.139447 
L 219.047369 -240.139737 
L 218.641145 -240.140014 
L 218.234921 -240.140294 
L 217.828697 -240.140562 
L 217.422473 -240.140797 
L 217.016249 -240.141015 
L 216.610025 -240.141202 
L 216.2038 -240.141347 
L 215.797576 -240.141458 
L 215.391352 -240.141514 
L 214.985128 -240.141518 
L 214.578904 -240.141473 
L 214.17268 -240.141368 
L 213.766455 -240.141405 
L 213.360231 -240.141613 
L 212.954007 -240.141746 
L 212.547783 -240.142298 
L 212.141559 -240.143063 
L 211.735335 -240.143631 
L 211.32911 -240.143964 
L 210.922886 -240.144054 
L 210.516662 -240.143878 
L 210.110438 -240.143456 
L 209.704214 -240.14274 
L 209.29799 -240.14174 
L 208.891765 -240.140477 
L 208.485529 -240.138927 
L 208.079305 -240.137141 
L 207.673081 -240.135107 
L 207.266857 -240.133637 
L 206.860632 -240.132667 
L 206.454408 -240.132297 
L 206.048184 -240.131999 
L 205.64196 -240.131799 
L 205.235736 -240.131112 
L 204.829512 -240.130571 
L 204.423287 -240.130478 
L 204.017063 -240.130763 
L 203.610839 -240.131179 
L 203.204615 -240.131737 
L 202.798391 -240.132436 
L 202.392167 -240.133277 
L 201.985943 -240.134243 
L 201.579718 -240.135325 
L 201.173494 -240.136493 
L 200.76727 -240.137786 
L 200.361046 -240.139142 
L 199.954822 -240.140598 
L 199.548598 -240.142758 
L 199.142373 -240.144428 
L 198.736149 -240.145835 
L 198.329925 -240.147195 
L 197.923701 -240.148478 
L 197.517477 -240.149687 
L 197.111253 -240.150751 
L 196.705028 -240.15169 
L 196.298804 -240.152433 
L 195.89258 -240.153013 
L 195.486356 -240.1541 
L 195.080132 -240.157189 
L 194.673908 -240.16228 
L 194.267683 -240.167334 
L 193.861459 -240.170409 
L 193.455235 -240.170474 
L 193.049011 -240.16994 
L 192.642787 -240.168789 
L 192.236563 -240.167005 
L 191.830338 -240.164582 
L 191.424114 -240.161509 
L 191.01789 -240.15784 
L 190.611666 -240.153585 
L 190.205442 -240.148776 
L 189.799218 -240.143797 
L 189.392993 -240.138953 
L 188.986769 -240.133892 
L 188.580545 -240.128681 
L 188.174321 -240.123392 
L 187.768085 -240.118146 
L 187.361861 -240.113255 
L 186.955636 -240.11119 
L 186.549412 -240.108479 
L 186.143188 -240.107285 
L 185.736964 -240.10689 
L 185.33074 -240.106968 
L 184.924516 -240.107586 
L 184.518291 -240.108741 
L 184.112067 -240.110455 
L 183.705843 -240.11277 
L 183.299619 -240.11564 
L 182.893395 -240.11907 
L 182.487171 -240.123035 
L 182.080946 -240.127501 
L 181.674722 -240.132411 
L 181.268498 -240.136904 
L 180.862274 -240.141148 
L 180.45605 -240.145508 
L 180.049826 -240.150744 
L 179.643601 -240.157053 
L 179.237377 -240.163509 
L 178.831153 -240.173533 
L 178.424929 -240.180589 
L 178.018705 -240.191506 
L 177.612481 -240.202373 
L 177.206256 -240.214005 
L 176.800032 -240.225157 
L 176.393808 -240.235486 
L 175.987584 -240.24564 
L 175.58136 -240.254655 
L 175.175136 -240.27267 
L 174.768911 -240.289939 
L 174.362687 -240.305082 
L 173.956463 -240.31768 
L 173.550239 -240.314984 
L 173.144015 -240.296125 
L 172.737791 -240.284195 
L 172.33156 -240.277249 
L 171.925336 -240.266112 
L 171.519112 -240.250769 
L 171.112888 -240.231269 
L 170.706664 -240.207749 
L 170.30044 -240.180409 
L 169.894215 -240.150563 
L 169.487991 -240.122904 
L 169.081767 -240.097483 
L 168.675543 -240.071274 
L 168.269319 -240.049268 
L 167.863095 -240.038983 
L 167.45687 -240.03238 
L 167.050646 -240.006907 
L 166.644422 -239.999959 
L 166.238198 -239.996369 
L 165.831974 -239.994858 
L 165.42575 -239.996511 
L 165.019525 -240.001121 
L 164.613301 -240.007985 
L 164.207077 -240.017115 
L 163.800853 -240.028537 
L 163.394629 -240.042186 
L 162.988405 -240.05799 
L 162.58218 -240.07583 
L 162.175956 -240.095517 
L 161.769726 -240.116864 
L 161.363502 -240.139554 
L 160.957278 -240.163546 
L 160.551054 -240.190414 
L 160.144829 -240.218011 
L 159.738605 -240.241933 
L 159.332381 -240.275237 
L 158.926157 -240.305688 
L 158.519933 -240.348223 
L 158.113709 -240.400475 
L 157.707484 -240.450692 
L 157.30126 -240.499288 
L 156.895036 -240.544211 
L 156.488812 -240.586384 
L 156.082588 -240.645234 
L 155.676364 -240.70892 
L 155.270139 -240.771048 
L 154.863915 -240.824181 
L 154.457691 -240.86681 
L 154.051467 -240.897565 
L 153.645243 -240.870834 
L 153.239019 -240.836759 
L 152.832794 -240.79811 
L 152.42657 -240.751457 
L 152.020346 -240.69544 
L 151.614122 -240.624847 
L 151.207892 -240.54023 
L 150.801668 -240.442371 
L 150.395443 -240.332369 
L 149.989219 -240.211555 
L 149.582995 -240.081603 
L 149.176771 -239.944377 
L 148.770547 -239.807173 
L 148.364323 -239.712148 
L 147.958098 -239.666012 
L 147.551874 -239.574006 
L 147.14565 -239.54004 
L 146.739426 -239.51369 
L 146.333202 -239.49597 
L 145.926978 -239.487744 
L 145.520753 -239.489829 
L 145.114529 -239.503475 
L 144.708305 -239.528845 
L 144.302081 -239.565979 
L 143.895857 -239.615022 
L 143.489633 -239.675927 
L 143.083408 -239.748467 
L 142.677184 -239.832174 
L 142.27096 -239.926351 
L 141.864736 -240.030081 
L 141.458512 -240.142178 
L 141.052282 -240.261302 
L 140.646057 -240.383031 
L 140.239833 -240.504689 
L 139.833609 -240.628193 
L 139.427385 -240.782595 
L 139.021161 -240.983418 
L 138.614937 -241.185093 
L 138.208712 -241.378788 
L 137.802488 -241.570765 
L 137.396264 -241.746662 
L 136.99004 -241.909377 
L 136.583816 -242.129053 
L 136.177592 -242.358982 
L 135.771367 -242.559006 
L 135.365143 -242.693728 
L 134.958919 -242.728382 
L 134.552695 -242.758594 
L 134.146471 -242.74083 
L 133.740247 -242.672926 
L 133.334022 -242.570392 
L 132.927798 -242.417438 
L 132.521574 -242.212336 
L 132.11535 -241.955961 
L 131.709126 -241.65018 
L 131.302902 -241.297886 
L 130.896678 -240.902938 
L 130.490447 -240.470203 
L 130.084223 -240.005475 
L 129.677999 -239.515425 
L 129.271775 -239.011945 
L 128.865551 -238.524845 
L 128.459326 -238.061857 
L 128.053102 -237.736133 
L 127.646878 -237.444894 
L 127.240654 -237.192744 
L 126.83443 -237.005886 
L 126.428206 -236.858538 
L 126.021981 -236.755778 
L 125.615757 -236.70229 
L 125.209533 -236.702125 
L 124.803309 -236.758741 
L 124.397085 -236.88167 
L 123.990861 -237.066586 
L 123.584637 -237.313497 
L 123.178412 -237.622139 
L 122.772185 -237.991147 
L 122.365961 -238.418011 
L 121.959737 -238.894299 
L 121.553513 -239.410505 
L 121.147289 -239.970771 
L 120.741064 -240.568366 
L 120.33484 -241.195455 
L 119.928616 -241.843088 
L 119.522392 -242.530449 
L 119.116168 -243.263666 
L 118.709944 -243.973088 
L 118.303719 -244.756577 
L 117.897495 -245.574673 
L 117.491268 -246.379036 
L 117.085044 -247.185058 
L 116.67882 -247.838947 
L 116.272596 -248.385809 
L 115.866371 -248.809472 
L 115.460147 -249.095024 
L 115.053923 -249.23625 
L 114.647699 -249.22157 
L 114.241475 -249.035272 
L 113.835251 -248.693592 
L 113.429026 -248.179364 
L 113.022802 -247.498099 
L 112.616578 -246.631301 
L 112.210351 -245.580642 
L 111.804127 -244.349819 
L 111.397903 -242.944156 
L 110.991678 -241.370306 
L 110.585454 -239.644679 
L 110.17923 -237.804622 
L 109.773006 -235.82094 
L 109.366782 -233.703413 
L 108.960558 -231.464906 
L 108.554333 -229.117267 
L 108.148109 -226.672828 
L 107.741885 -224.145344 
L 107.335658 -221.549118 
L 106.929434 -218.898684 
L 106.52321 -216.073171 
L 106.116985 -213.221035 
L 105.710761 -210.369183 
L 105.304537 -207.634552 
L 104.898313 -204.926099 
L 104.492089 -202.24353 
L 104.085865 -199.651152 
L 103.67964 -197.202052 
L 103.273416 -194.777644 
L 102.867192 -192.301918 
L 102.460968 -189.816782 
L 102.054741 -187.370099 
L 101.648517 -184.959604 
L 101.242292 -182.575734 
L 100.836068 -180.208417 
L 100.429844 -177.847483 
L 100.02362 -175.481536 
L 99.617396 -173.098029 
L 99.211172 -170.683471 
L 98.804947 -168.22363 
L 98.398723 -165.753541 
L 97.992498 -163.230366 
L 97.586273 -160.633754 
L 97.180049 -157.94481 
L 96.773825 -155.155027 
L 96.367601 -152.261528 
L 95.961377 -149.269544 
L 95.555151 -146.199261 
L 95.148927 -143.076288 
L 94.742703 -139.94255 
L 94.336479 -136.854032 
L 93.930254 -133.877564 
L 93.52403 -131.085977 
L 93.117806 -128.551139 
L 92.71158 -126.335494 
L 92.305356 -124.483327 
L 91.899132 -123.012997 
L 91.492908 -121.911857 
L 91.086684 -121.134517 
L 90.68046 -120.618464 
L 90.274234 -120.258633 
L 89.86801 -119.931571 
L 89.461786 -119.529335 
L 89.055561 -118.866481 
L 88.649337 -117.840277 
L 88.243113 -116.423904 
L 87.836887 -114.556219 
L 87.430663 -112.15832 
L 87.024439 -109.206985 
L 86.618215 -105.816703 
L 86.211991 -102.127666 
L 85.805766 -98.407714 
L 85.399542 -94.644901 
L 84.993317 -91.174354 
L 84.587093 -88.217696 
L 84.180868 -85.95474 
L 83.774644 -84.461402 
L 83.36842 -83.863568 
L 82.962195 -84.127303 
L 82.555971 -85.213162 
L 82.149747 -86.594518 
L 81.743522 -87.963375 
L 81.337298 -89.006405 
L 80.931074 -89.461491 
L 80.524849 -89.122488 
L 80.118624 -87.854195 
L 79.7124 -85.603329 
L 79.306176 -82.414781 
L 78.899951 -78.412438 
L 78.493727 -73.809431 
L 78.087503 -68.896069 
L 77.681278 -64.005472 
L 77.275054 -59.47208 
L 76.868829 -55.57918 
L 76.462605 -52.513788 
L 76.056381 -50.308941 
L 75.650156 -48.893594 
L 75.243932 -48.114113 
L 74.837707 -47.767779 
L 74.431483 -47.656924 
L 74.025258 -47.637464 
L 73.619034 -47.63625 
z
" style="stroke: #1f77b4; stroke-opacity: 0.2"/>
    </defs>
    <g clip-path="url(#p8866d8b261)">
     <use xlink:href="#mf25151a83a" x="0" y="281.634375" style="fill: #1f77b4; fill-opacity: 0.2; stroke: #1f77b4; stroke-opacity: 0.2"/>
    </g>
   </g>
   <g id="matplotlib.axis_1">
    <g id="xtick_1">
     <g id="line2d_1">
      <path d="M 73.619034 244.078125 
L 73.619034 22.318125 
" clip-path="url(#p8866d8b261)" style="fill: none; stroke: #b0b0b0; stroke-opacity: 0.3; stroke-width: 0.8; stroke-linecap: square"/>
     </g>
     <g id="line2d_2">
      <defs>
       <path id="mcb0b51eb07" d="M 0 0 
L 0 3.5 
" style="stroke: #000000; stroke-width: 0.8"/>
      </defs>
      <g>
       <use xlink:href="#mcb0b51eb07" x="73.619034" y="244.078125" style="stroke: #000000; stroke-width: 0.8"/>
      </g>
     </g>
     <g id="text_1">
      <text style="font: 10px 'DejaVu Sans', 'Bitstream Vera Sans', 'Computer Modern Sans Serif', 'Lucida Grande', 'Verdana', 'Geneva', 'Lucid', 'Arial', 'Helvetica', 'Avant Garde', sans-serif; text-anchor: middle" x="73.619034" y="258.676562" transform="rotate(-0 73.619034 258.676562)">0.0</text>
     </g>
    </g>
    <g id="xtick_2">
     <g id="line2d_3">
      <path d="M 154.78267 244.078125 
L 154.78267 22.318125 
" clip-path="url(#p8866d8b261)" style="fill: none; stroke: #b0b0b0; stroke-opacity: 0.3; stroke-width: 0.8; stroke-linecap: square"/>
     </g>
     <g id="line2d_4">
      <g>
       <use xlink:href="#mcb0b51eb07" x="154.78267" y="244.078125" style="stroke: #000000; stroke-width: 0.8"/>
      </g>
     </g>
     <g id="text_2">
      <text style="font: 10px 'DejaVu Sans', 'Bitstream Vera Sans', 'Computer Modern Sans Serif', 'Lucida Grande', 'Verdana', 'Geneva', 'Lucid', 'Arial', 'Helvetica', 'Avant Garde', sans-serif; text-anchor: middle" x="154.78267" y="258.676562" transform="rotate(-0 154.78267 258.676562)">0.2</text>
     </g>
    </g>
    <g id="xtick_3">
     <g id="line2d_5">
      <path d="M 235.946307 244.078125 
L 235.946307 22.318125 
" clip-path="url(#p8866d8b261)" style="fill: none; stroke: #b0b0b0; stroke-opacity: 0.3; stroke-width: 0.8; stroke-linecap: square"/>
     </g>
     <g id="line2d_6">
      <g>
       <use xlink:href="#mcb0b51eb07" x="235.946307" y="244.078125" style="stroke: #000000; stroke-width: 0.8"/>
      </g>
     </g>
     <g id="text_3">
      <text style="font: 10px 'DejaVu Sans', 'Bitstream Vera Sans', 'Computer Modern Sans Serif', 'Lucida Grande', 'Verdana', 'Geneva', 'Lucid', 'Arial', 'Helvetica', 'Avant Garde', sans-serif; text-anchor: middle" x="235.946307" y="258.676562" transform="rotate(-0 235.946307 258.676562)">0.4</text>
     </g>
    </g>
    <g id="xtick_4">
     <g id="line2d_7">
      <path d="M 317.109943 244.078125 
L 317.109943 22.318125 
" clip-path="url(#p8866d8b261)" style="fill: none; stroke: #b0b0b0; stroke-opacity: 0.3; stroke-width: 0.8; stroke-linecap: square"/>
     </g>
     <g id="line2d_8">
      <g>
       <use xlink:href="#mcb0b51eb07" x="317.109943" y="244.078125" style="stroke: #000000; stroke-width: 0.8"/>
      </g>
     </g>
     <g id="text_4">
      <text style="font: 10px 'DejaVu Sans', 'Bitstream Vera Sans', 'Computer Modern Sans Serif', 'Lucida Grande', 'Verdana', 'Geneva', 'Lucid', 'Arial', 'Helvetica', 'Avant Garde', sans-serif; text-anchor: middle" x="317.109943" y="258.676562" transform="rotate(-0 317.109943 258.676562)">0.6</text>
     </g>
    </g>
    <g id="xtick_5">
     <g id="line2d_9">
      <path d="M 398.27358 244.078125 
L 398.27358 22.318125 
" clip-path="url(#p8866d8b261)" style="fill: none; stroke: #b0b0b0; stroke-opacity: 0.3; stroke-width: 0.8; stroke-linecap: square"/>
     </g>
     <g id="line2d_10">
      <g>
       <use xlink:href="#mcb0b51eb07" x="398.27358" y="244.078125" style="stroke: #000000; stroke-width: 0.8"/>
      </g>
     </g>
     <g id="text_5">
      <text style="font: 10px 'DejaVu Sans', 'Bitstream Vera Sans', 'Computer Modern Sans Serif', 'Lucida Grande', 'Verdana', 'Geneva', 'Lucid', 'Arial', 'Helvetica', 'Avant Garde', sans-serif; text-anchor: middle" x="398.27358" y="258.676562" transform="rotate(-0 398.27358 258.676562)">0.8</text>
     </g>
    </g>
    <g id="xtick_6">
     <g id="line2d_11">
      <path d="M 479.437216 244.078125 
L 479.437216 22.318125 
" clip-path="url(#p8866d8b261)" style="fill: none; stroke: #b0b0b0; stroke-opacity: 0.3; stroke-width: 0.8; stroke-linecap: square"/>
     </g>
     <g id="line2d_12">
      <g>
       <use xlink:href="#mcb0b51eb07" x="479.437216" y="244.078125" style="stroke: #000000; stroke-width: 0.8"/>
      </g>
     </g>
     <g id="text_6">
      <text style="font: 10px 'DejaVu Sans', 'Bitstream Vera Sans', 'Computer Modern Sans Serif', 'Lucida Grande', 'Verdana', 'Geneva', 'Lucid', 'Arial', 'Helvetica', 'Avant Garde', sans-serif; text-anchor: middle" x="479.437216" y="258.676562" transform="rotate(-0 479.437216 258.676562)">1.0</text>
     </g>
    </g>
    <g id="text_7">
     <text style="font: 10px 'DejaVu Sans', 'Bitstream Vera Sans', 'Computer Modern Sans Serif', 'Lucida Grande', 'Verdana', 'Geneva', 'Lucid', 'Arial', 'Helvetica', 'Avant Garde', sans-serif; text-anchor: middle" x="276.528125" y="272.354687" transform="rotate(-0 276.528125 272.354687)">Tiempo (s)</text>
    </g>
   </g>
   <g id="matplotlib.axis_2">
    <g id="ytick_1">
     <g id="line2d_13">
      <path d="M 53.328125 233.998125 
L 499.728125 233.998125 
" clip-path="url(#p8866d8b261)" style="fill: none; stroke: #b0b0b0; stroke-opacity: 0.3; stroke-width: 0.8; stroke-linecap: square"/>
     </g>
     <g id="line2d_14">
      <defs>
       <path id="m380fcda30c" d="M 0 0 
L -3.5 0 
" style="stroke: #000000; stroke-width: 0.8"/>
      </defs>
      <g>
       <use xlink:href="#m380fcda30c" x="53.328125" y="233.998125" style="stroke: #000000; stroke-width: 0.8"/>
      </g>
     </g>
     <g id="text_8">
      <text style="font: 10px 'DejaVu Sans', 'Bitstream Vera Sans', 'Computer Modern Sans Serif', 'Lucida Grande', 'Verdana', 'Geneva', 'Lucid', 'Arial', 'Helvetica', 'Avant Garde', sans-serif; text-anchor: end" x="46.328125" y="237.797344" transform="rotate(-0 46.328125 237.797344)">0</text>
     </g>
    </g>
    <g id="ytick_2">
     <g id="line2d_15">
      <path d="M 53.328125 207.253619 
L 499.728125 207.253619 
" clip-path="url(#p8866d8b261)" style="fill: none; stroke: #b0b0b0; stroke-opacity: 0.3; stroke-width: 0.8; stroke-linecap: square"/>
     </g>
     <g id="line2d_16">
      <g>
       <use xlink:href="#m380fcda30c" x="53.328125" y="207.253619" style="stroke: #000000; stroke-width: 0.8"/>
      </g>
     </g>
     <g id="text_9">
      <text style="font: 10px 'DejaVu Sans', 'Bitstream Vera Sans', 'Computer Modern Sans Serif', 'Lucida Grande', 'Verdana', 'Geneva', 'Lucid', 'Arial', 'Helvetica', 'Avant Garde', sans-serif; text-anchor: end" x="46.328125" y="211.052838" transform="rotate(-0 46.328125 211.052838)">250</text>
     </g>
    </g>
    <g id="ytick_3">
     <g id="line2d_17">
      <path d="M 53.328125 180.509113 
L 499.728125 180.509113 
" clip-path="url(#p8866d8b261)" style="fill: none; stroke: #b0b0b0; stroke-opacity: 0.3; stroke-width: 0.8; stroke-linecap: square"/>
     </g>
     <g id="line2d_18">
      <g>
       <use xlink:href="#m380fcda30c" x="53.328125" y="180.509113" style="stroke: #000000; stroke-width: 0.8"/>
      </g>
     </g>
     <g id="text_10">
      <text style="font: 10px 'DejaVu Sans', 'Bitstream Vera Sans', 'Computer Modern Sans Serif', 'Lucida Grande', 'Verdana', 'Geneva', 'Lucid', 'Arial', 'Helvetica', 'Avant Garde', sans-serif; text-anchor: end" x="46.328125" y="184.308332" transform="rotate(-0 46.328125 184.308332)">500</text>
     </g>
    </g>
    <g id="ytick_4">
     <g id="line2d_19">
      <path d="M 53.328125 153.764607 
L 499.728125 153.764607 
" clip-path="url(#p8866d8b261)" style="fill: none; stroke: #b0b0b0; stroke-opacity: 0.3; stroke-width: 0.8; stroke-linecap: square"/>
     </g>
     <g id="line2d_20">
      <g>
       <use xlink:href="#m380fcda30c" x="53.328125" y="153.764607" style="stroke: #000000; stroke-width: 0.8"/>
      </g>
     </g>
     <g id="text_11">
      <text style="font: 10px 'DejaVu Sans', 'Bitstream Vera Sans', 'Computer Modern Sans Serif', 'Lucida Grande', 'Verdana', 'Geneva', 'Lucid', 'Arial', 'Helvetica', 'Avant Garde', sans-serif; text-anchor: end" x="46.328125" y="157.563826" transform="rotate(-0 46.328125 157.563826)">750</text>
     </g>
    </g>
    <g id="ytick_5">
     <g id="line2d_21">
      <path d="M 53.328125 127.020101 
L 499.728125 127.020101 
" clip-path="url(#p8866d8b261)" style="fill: none; stroke: #b0b0b0; stroke-opacity: 0.3; stroke-width: 0.8; stroke-linecap: square"/>
     </g>
     <g id="line2d_22">
      <g>
       <use xlink:href="#m380fcda30c" x="53.328125" y="127.020101" style="stroke: #000000; stroke-width: 0.8"/>
      </g>
     </g>
     <g id="text_12">
      <text style="font: 10px 'DejaVu Sans', 'Bitstream Vera Sans', 'Computer Modern Sans Serif', 'Lucida Grande', 'Verdana', 'Geneva', 'Lucid', 'Arial', 'Helvetica', 'Avant Garde', sans-serif; text-anchor: end" x="46.328125" y="130.81932" transform="rotate(-0 46.328125 130.81932)">1000</text>
     </g>
    </g>
    <g id="ytick_6">
     <g id="line2d_23">
      <path d="M 53.328125 100.275595 
L 499.728125 100.275595 
" clip-path="url(#p8866d8b261)" style="fill: none; stroke: #b0b0b0; stroke-opacity: 0.3; stroke-width: 0.8; stroke-linecap: square"/>
     </g>
     <g id="line2d_24">
      <g>
       <use xlink:href="#m380fcda30c" x="53.328125" y="100.275595" style="stroke: #000000; stroke-width: 0.8"/>
      </g>
     </g>
     <g id="text_13">
      <text style="font: 10px 'DejaVu Sans', 'Bitstream Vera Sans', 'Computer Modern Sans Serif', 'Lucida Grande', 'Verdana', 'Geneva', 'Lucid', 'Arial', 'Helvetica', 'Avant Garde', sans-serif; text-anchor: end" x="46.328125" y="104.074814" transform="rotate(-0 46.328125 104.074814)">1250</text>
     </g>
    </g>
    <g id="ytick_7">
     <g id="line2d_25">
      <path d="M 53.328125 73.531089 
L 499.728125 73.531089 
" clip-path="url(#p8866d8b261)" style="fill: none; stroke: #b0b0b0; stroke-opacity: 0.3; stroke-width: 0.8; stroke-linecap: square"/>
     </g>
     <g id="line2d_26">
      <g>
       <use xlink:href="#m380fcda30c" x="53.328125" y="73.531089" style="stroke: #000000; stroke-width: 0.8"/>
      </g>
     </g>
     <g id="text_14">
      <text style="font: 10px 'DejaVu Sans', 'Bitstream Vera Sans', 'Computer Modern Sans Serif', 'Lucida Grande', 'Verdana', 'Geneva', 'Lucid', 'Arial', 'Helvetica', 'Avant Garde', sans-serif; text-anchor: end" x="46.328125" y="77.330308" transform="rotate(-0 46.328125 77.330308)">1500</text>
     </g>
    </g>
    <g id="ytick_8">
     <g id="line2d_27">
      <path d="M 53.328125 46.786583 
L 499.728125 46.786583 
" clip-path="url(#p8866d8b261)" style="fill: none; stroke: #b0b0b0; stroke-opacity: 0.3; stroke-width: 0.8; stroke-linecap: square"/>
     </g>
     <g id="line2d_28">
      <g>
       <use xlink:href="#m380fcda30c" x="53.328125" y="46.786583" style="stroke: #000000; stroke-width: 0.8"/>
      </g>
     </g>
     <g id="text_15">
      <text style="font: 10px 'DejaVu Sans', 'Bitstream Vera Sans', 'Computer Modern Sans Serif', 'Lucida Grande', 'Verdana', 'Geneva', 'Lucid', 'Arial', 'Helvetica', 'Avant Garde', sans-serif; text-anchor: end" x="46.328125" y="50.585801" transform="rotate(-0 46.328125 50.585801)">1750</text>
     </g>
    </g>
    <g id="text_16">
     <text style="font: 10px 'DejaVu Sans', 'Bitstream Vera Sans', 'Computer Modern Sans Serif', 'Lucida Grande', 'Verdana', 'Geneva', 'Lucid', 'Arial', 'Helvetica', 'Avant Garde', sans-serif; text-anchor: middle" x="14.798438" y="133.198125" transform="rotate(-90 14.798438 133.198125)">Velocidad (rpm)</text>
    </g>
   </g>
   <g id="line2d_29">
    <path d="M 73.619034 233.998125 
L 74.431483 233.978436 
L 74.837707 233.871198 
L 75.243932 233.532588 
L 75.650156 232.767963 
L 76.056381 231.375988 
L 76.462605 229.203504 
L 77.275054 222.408223 
L 79.306176 200.453864 
L 79.7124 197.433312 
L 80.118624 195.305478 
L 80.524849 194.09287 
L 80.931074 193.732694 
L 81.337298 194.08541 
L 82.149747 196.063358 
L 82.962195 197.942166 
L 83.36842 198.176275 
L 83.774644 197.672974 
L 84.180868 196.335981 
L 84.587093 194.169209 
L 85.399542 187.822354 
L 87.024439 172.980195 
L 87.836887 167.502063 
L 88.649337 164.145987 
L 89.055561 163.18549 
L 89.461786 162.589687 
L 90.274234 162.016038 
L 90.68046 161.775716 
L 91.086684 161.394992 
L 91.492908 160.763251 
L 91.899132 159.795317 
L 92.305356 158.438033 
L 93.117806 154.516489 
L 93.930254 149.225014 
L 98.398723 116.983794 
L 101.242292 100.471099 
L 103.67964 85.708549 
L 109.366782 49.219353 
L 110.585454 43.240964 
L 111.804127 38.567035 
L 112.616578 36.260687 
L 113.429026 34.635096 
L 114.241475 33.690394 
L 114.647699 33.465168 
L 115.053923 33.396295 
L 115.460147 33.475106 
L 116.272596 34.032392 
L 117.085044 35.036212 
L 118.303719 37.12086 
L 121.553513 43.230412 
L 122.365961 44.349072 
L 123.178412 45.178569 
L 123.990861 45.696078 
L 124.803309 45.901337 
L 125.615757 45.814313 
L 126.428206 45.471753 
L 127.646878 44.589224 
L 129.677999 42.627486 
L 131.302902 41.130825 
L 132.521574 40.282784 
L 133.740247 39.760809 
L 134.958919 39.58313 
L 136.177592 39.716592 
L 137.396264 40.089983 
L 139.833609 41.179508 
L 141.864736 42.004618 
L 143.489633 42.400601 
L 145.114529 42.508454 
L 146.739426 42.363553 
L 149.176771 41.873507 
L 152.42657 41.255223 
L 154.457691 41.10566 
L 156.895036 41.187618 
L 165.019525 41.77238 
L 169.081767 41.626016 
L 174.362687 41.452556 
L 180.049826 41.54688 
L 186.955636 41.593487 
L 201.579718 41.56127 
L 230.827882 41.555185 
L 476.593647 41.555577 
L 479.437216 41.555577 
L 479.437216 41.555577 
" clip-path="url(#p8866d8b261)" style="fill: none; stroke: #1f77b4; stroke-width: 2; stroke-linecap: square"/>
   </g>
   <g id="line2d_30">
    <path d="M 73.619034 233.998125 
L 74.431483 233.978459 
L 74.837707 233.871316 
L 75.243932 233.53295 
L 75.650156 232.76878 
L 76.056381 231.377402 
L 76.462605 229.205495 
L 77.275054 222.41021 
L 79.306176 200.440907 
L 79.7124 197.415715 
L 80.118624 195.283637 
L 80.524849 194.067696 
L 80.931074 193.705607 
L 81.337298 194.058241 
L 82.149747 196.042447 
L 82.962195 197.93531 
L 83.36842 198.178018 
L 83.774644 197.683144 
L 84.180868 196.353326 
L 84.587093 194.191474 
L 85.399542 187.844881 
L 87.430663 169.954259 
L 88.243113 165.510936 
L 88.649337 164.082495 
L 89.055561 163.114384 
L 89.461786 162.514109 
L 90.274234 161.942229 
L 90.68046 161.708137 
L 91.086684 161.336717 
L 91.492908 160.716605 
L 91.899132 159.761592 
L 92.305356 158.417348 
L 93.117806 154.51739 
L 93.930254 149.235148 
L 98.398723 116.857424 
L 100.836068 102.610359 
L 103.273416 88.059101 
L 105.710761 72.005868 
L 108.148109 56.001658 
L 109.773006 46.821045 
L 110.991678 41.258397 
L 111.804127 38.3086 
L 112.616578 36.021958 
L 113.429026 34.42447 
L 114.241475 33.515614 
L 114.647699 33.310799 
L 115.053923 33.263748 
L 115.460147 33.36549 
L 116.272596 33.970819 
L 117.085044 35.023584 
L 118.303719 37.177653 
L 121.553513 43.394993 
L 122.365961 44.515533 
L 123.178412 45.336516 
L 123.990861 45.836095 
L 124.803309 46.015563 
L 125.615757 45.896858 
L 126.428206 45.519 
L 127.646878 44.581728 
L 129.677999 42.542303 
L 131.302902 41.010566 
L 132.521574 40.15627 
L 133.740247 39.644637 
L 134.552695 39.503732 
L 135.771367 39.570228 
L 136.99004 39.908857 
L 138.614937 40.62089 
L 141.458512 41.922569 
L 143.083408 42.388221 
L 144.302081 42.538986 
L 145.926978 42.487038 
L 147.958098 42.128873 
L 152.42657 41.200951 
L 154.457691 41.060255 
L 156.895036 41.166175 
L 164.613301 41.779954 
L 168.269319 41.653792 
L 173.956463 41.432184 
L 179.237377 41.520213 
L 185.736964 41.594819 
L 204.829512 41.557039 
L 325.071937 41.544372 
L 479.437216 41.544372 
L 479.437216 41.544372 
" clip-path="url(#p8866d8b261)" style="fill: none; stroke-dasharray: 4.44,1.92; stroke-dashoffset: 0; stroke: #808080; stroke-width: 1.2"/>
   </g>
   <g id="patch_3">
    <path d="M 53.328125 244.078125 
L 53.328125 22.318125 
" style="fill: none; stroke: #000000; stroke-width: 0.8; stroke-linejoin: miter; stroke-linecap: square"/>
   </g>
   <g id="patch_4">
    <path d="M 499.728125 244.078125 
L 499.728125 22.318125 
" style="fill: none; stroke: #000000; stroke-width: 0.8; stroke-linejoin: miter; stroke-linecap: square"/>
   </g>
   <g id="patch_5">
    <path d="M 53.328125 244.078125 
L 499.728125 244.078125 
" style="fill: none; stroke: #000000; stroke-width: 0.8; stroke-linejoin: miter; stroke-linecap: square"/>
   </g>
   <g id="patch_6">
    <path d="M 53.328125 22.318125 
L 499.728125 22.318125 
" style="fill: none; stroke: #000000; stroke-width: 0.8; stroke-linejoin: miter; stroke-linecap: square"/>
   </g>
   <g id="text_17">
    <text style="font: 12px 'DejaVu Sans', 'Bitstream Vera Sans', 'Computer Modern Sans Serif', 'Lucida Grande', 'Verdana', 'Geneva', 'Lucid', 'Arial', 'Helvetica', 'Avant Garde', sans-serif; text-anchor: middle" x="276.528125" y="16.318125" transform="rotate(-0 276.528125 16.318125)">Velocidad - GA</text>
   </g>
   <g id="legend_1">
    <g id="patch_7">
     <path d="M 378.49375 239.078125 
L 492.728125 239.078125 
Q 494.728125 239.078125 494.728125 237.078125 
L 494.728125 194.04375 
Q 494.728125 192.04375 492.728125 192.04375 
L 378.49375 192.04375 
Q 376.49375 192.04375 376.49375 194.04375 
L 376.49375 237.078125 
Q 376.49375 239.078125 378.49375 239.078125 
z
" style="fill: #ffffff; opacity: 0.8; stroke: #cccccc; stroke-linejoin: miter"/>
    </g>
    <g id="patch_8">
     <path d="M 380.49375 203.642187 
L 400.49375 203.642187 
L 400.49375 196.642187 
L 380.49375 196.642187 
z
" style="fill: #1f77b4; fill-opacity: 0.2; stroke: #1f77b4; stroke-opacity: 0.2; stroke-linejoin: miter"/>
    </g>
    <g id="text_18">
     <text style="font: 10px 'DejaVu Sans', 'Bitstream Vera Sans', 'Computer Modern Sans Serif', 'Lucida Grande', 'Verdana', 'Geneva', 'Lucid', 'Arial', 'Helvetica', 'Avant Garde', sans-serif; text-anchor: start" x="408.49375" y="203.642187" transform="rotate(-0 408.49375 203.642187)">Rango 95% runs</text>
    </g>
    <g id="line2d_31">
     <path d="M 380.49375 214.820312 
L 390.49375 214.820312 
L 400.49375 214.820312 
" style="fill: none; stroke: #1f77b4; stroke-width: 2; stroke-linecap: square"/>
    </g>
    <g id="text_19">
     <text style="font: 10px 'DejaVu Sans', 'Bitstream Vera Sans', 'Computer Modern Sans Serif', 'Lucida Grande', 'Verdana', 'Geneva', 'Lucid', 'Arial', 'Helvetica', 'Avant Garde', sans-serif; text-anchor: start" x="408.49375" y="218.320312" transform="rotate(-0 408.49375 218.320312)">Mejor run</text>
    </g>
    <g id="line2d_32">
     <path d="M 380.49375 229.498437 
L 390.49375 229.498437 
L 400.49375 229.498437 
" style="fill: none; stroke-dasharray: 4.44,1.92; stroke-dashoffset: 0; stroke: #808080; stroke-width: 1.2"/>
    </g>
    <g id="text_20">
     <text style="font: 10px 'DejaVu Sans', 'Bitstream Vera Sans', 'Computer Modern Sans Serif', 'Lucida Grande', 'Verdana', 'Geneva', 'Lucid', 'Arial', 'Helvetica', 'Avant Garde', sans-serif; text-anchor: start" x="408.49375" y="232.998437" transform="rotate(-0 408.49375 232.998437)">Medida</text>
    </g>
   </g>
  </g>
 </g>
 <defs>
  <clipPath id="p8866d8b261">
   <rect x="53.328125" y="22.318125" width="446.4" height="221.76"/>
  </clipPath>
 </defs>
</svg>
