<?xml version="1.0" encoding="utf-8" standalone="no"?>
<!DOCTYPE svg PUBLIC "-//W3C//DTD SVG 1.1//EN"
  "http://www.w3.org/Graphics/SVG/1.1/DTD/svg11.dtd">
<svg xmlns:xlink="http://www.w3.org/1999/xlink" width="502.582812pt" height="281.634375pt" viewBox="0 0 502.582812 281.634375" xmlns="http://www.w3.org/2000/svg" version="1.1">
 <metadata>
  <rdf:RDF xmlns:dc="http://purl.org/dc/elements/1.1/" xmlns:cc="http://creativecommons.org/ns#" xmlns:rdf="http://www.w3.org/1999/02/22-rdf-syntax-ns#">
   <cc:Work>
    <dc:type rdf:resource="http://purl.org/dc/dcmitype/StillImage"/>
    <dc:date>2025-11-28T07:37:52.353708</dc:date>
    <dc:format>image/svg+xml</dc:format>
    <dc:creator>
     <cc:Agent>
      <dc:title>Matplotlib v3.9.2, https://matplotlib.org/</dc:title>
     </cc:Agent>
    </dc:creator>
   </cc:Work>
  </rdf:RDF>
 </metadata>
 <defs>
  <style type="text/css">*{stroke-linejoin: round; stroke-linecap: butt}</style>
 </defs>
 <g id="figure_1">
  <g id="patch_1">
   <path d="M 0 281.634375 
L 502.582812 281.634375 
L 502.582812 0 
L 0 0 
z
" style="fill: #ffffff"/>
  </g>
  <g id="axes_1">
   <g id="patch_2">
    <path d="M 48.982813 244.078125 
L 495.382812 244.078125 
L 495.382812 22.318125 
L 48.982813 22.318125 
z
" style="fill: #ffffff"/>
   </g>
   <g id="PolyCollection_1">
    <defs>
     <path id="m95863e0aec" d="M 69.273722 -89.600299 
L 69.273722 -89.600299 
L 69.679946 -89.69473 
L 70.08617 -90.889166 
L 70.492395 -95.251169 
L 70.898619 -104.84362 
L 71.304844 -120.751171 
L 71.711068 -142.487113 
L 72.117292 -167.886378 
L 72.523517 -193.455168 
L 72.929741 -215.33171 
L 73.335965 -227.378038 
L 73.74219 -232.404801 
L 74.148415 -228.35029 
L 74.554639 -215.167283 
L 74.960863 -194.565335 
L 75.367087 -168.917977 
L 75.773312 -140.868587 
L 76.179536 -112.932991 
L 76.585761 -87.176668 
L 76.991985 -66.299311 
L 77.398209 -52.750944 
L 77.804434 -47.63625 
L 78.210658 -51.095976 
L 78.616883 -63.15915 
L 79.023108 -83.708981 
L 79.429332 -109.248843 
L 79.835556 -136.614565 
L 80.24178 -162.53708 
L 80.648005 -184.23335 
L 81.054229 -199.523869 
L 81.460453 -207.288086 
L 81.866678 -207.472108 
L 82.272902 -200.700759 
L 82.679127 -189.048593 
L 83.085351 -173.603225 
L 83.491575 -156.618223 
L 83.897801 -139.40855 
L 84.304025 -123.48201 
L 84.710249 -109.987432 
L 85.116473 -99.739991 
L 85.522697 -93.008006 
L 85.928921 -91.162577 
L 86.335147 -93.548373 
L 86.741371 -99.658323 
L 87.147595 -109.034353 
L 87.55382 -120.703345 
L 87.960044 -133.610935 
L 88.366268 -146.62188 
L 88.772494 -158.689888 
L 89.178718 -168.980484 
L 89.584942 -176.906019 
L 89.991166 -182.300988 
L 90.39739 -185.243015 
L 90.803614 -186.027545 
L 91.209839 -185.083697 
L 91.616064 -182.620085 
L 92.022288 -179.572957 
L 92.428513 -176.363212 
L 92.834737 -172.956584 
L 93.240961 -169.703001 
L 93.647185 -166.78307 
L 94.053411 -164.278409 
L 94.459635 -162.342317 
L 94.865859 -160.926382 
L 95.272083 -159.998831 
L 95.678307 -159.520929 
L 96.084532 -159.501185 
L 96.490756 -159.908449 
L 96.89698 -160.704653 
L 97.303204 -161.843257 
L 97.709428 -163.267344 
L 98.115655 -164.908773 
L 98.52188 -166.679563 
L 98.928104 -168.498367 
L 99.334328 -170.274176 
L 99.740552 -171.884505 
L 100.146776 -172.581523 
L 100.553 -173.105587 
L 100.959225 -173.435142 
L 101.365449 -173.685659 
L 101.771673 -173.564144 
L 102.177897 -172.953601 
L 102.584121 -171.904546 
L 102.990345 -170.687819 
L 103.396573 -169.050017 
L 103.802797 -166.532465 
L 104.209021 -163.553761 
L 104.615245 -160.262652 
L 105.021469 -156.688925 
L 105.427693 -152.853039 
L 105.833918 -148.767376 
L 106.240142 -144.438852 
L 106.646366 -139.826991 
L 107.05259 -134.916108 
L 107.458814 -129.778318 
L 107.865038 -124.339968 
L 108.271266 -118.794117 
L 108.67749 -113.181889 
L 109.083714 -107.579659 
L 109.489938 -102.056304 
L 109.896162 -96.657759 
L 110.302386 -91.445992 
L 110.708611 -86.513213 
L 111.114835 -81.92043 
L 111.521059 -77.669544 
L 111.927283 -73.807884 
L 112.333507 -70.433528 
L 112.739731 -67.578127 
L 113.145956 -65.263392 
L 113.552183 -63.501024 
L 113.958407 -62.29293 
L 114.364631 -61.631645 
L 114.770855 -61.500922 
L 115.177079 -61.854921 
L 115.583304 -62.658382 
L 115.989528 -63.902409 
L 116.395752 -65.466914 
L 116.801976 -67.339912 
L 117.2082 -69.446379 
L 117.614424 -71.575738 
L 118.020648 -73.858202 
L 118.426873 -76.243548 
L 118.8331 -78.599696 
L 119.239324 -80.737938 
L 119.645548 -83.136473 
L 120.051772 -85.317538 
L 120.457997 -87.339637 
L 120.864221 -89.259042 
L 121.270445 -91.072415 
L 121.676669 -92.756596 
L 122.082893 -94.331388 
L 122.489117 -95.771709 
L 122.895341 -97.035007 
L 123.301566 -98.11156 
L 123.70779 -98.989981 
L 124.114014 -99.662049 
L 124.520238 -100.138823 
L 124.926462 -100.42462 
L 125.332686 -100.526671 
L 125.738911 -100.454802 
L 126.145135 -100.209885 
L 126.551365 -99.727009 
L 126.957589 -99.115727 
L 127.363813 -98.39549 
L 127.770038 -97.5824 
L 128.176262 -96.64632 
L 128.582486 -95.580575 
L 128.98871 -94.168515 
L 129.394934 -92.735929 
L 129.801158 -91.270118 
L 130.207382 -89.804143 
L 130.613607 -88.39867 
L 131.019831 -87.103567 
L 131.426055 -85.935598 
L 131.832279 -84.908443 
L 132.238503 -84.032627 
L 132.644727 -83.315515 
L 133.050952 -82.761328 
L 133.457176 -82.363961 
L 133.8634 -82.047437 
L 134.269624 -81.84711 
L 134.675848 -81.870761 
L 135.082072 -82.197749 
L 135.488297 -82.632196 
L 135.894521 -83.148035 
L 136.300745 -83.74518 
L 136.706969 -84.217896 
L 137.113199 -84.684472 
L 137.519423 -85.224295 
L 137.925648 -85.824362 
L 138.331872 -86.455162 
L 138.738096 -87.105146 
L 139.14432 -87.778453 
L 139.550544 -88.260481 
L 139.956768 -88.69268 
L 140.362993 -89.091572 
L 140.769217 -89.48833 
L 141.175441 -89.870153 
L 141.581665 -90.231744 
L 141.987889 -90.56849 
L 142.394113 -90.876473 
L 142.800338 -91.152485 
L 143.206562 -91.394069 
L 143.612786 -91.599485 
L 144.01901 -91.767677 
L 144.425234 -91.898294 
L 144.831458 -91.991606 
L 145.237683 -92.048497 
L 145.643907 -92.07037 
L 146.050131 -92.057388 
L 146.456355 -91.992285 
L 146.862579 -91.898907 
L 147.268809 -91.762887 
L 147.675034 -91.489713 
L 148.081258 -91.346512 
L 148.487482 -91.132364 
L 148.893706 -90.82901 
L 149.29993 -90.502457 
L 149.706154 -90.173461 
L 150.112379 -89.83393 
L 150.518603 -89.49601 
L 150.924827 -89.168534 
L 151.331051 -88.881399 
L 151.737275 -88.637545 
L 152.143499 -88.439004 
L 152.549724 -88.286912 
L 152.955948 -88.181537 
L 153.362172 -88.062514 
L 153.768396 -87.878936 
L 154.17462 -87.91141 
L 154.580844 -88.026229 
L 154.987069 -88.163397 
L 155.393293 -88.327954 
L 155.799517 -88.49474 
L 156.205741 -88.621642 
L 156.611965 -88.745339 
L 157.018189 -88.882107 
L 157.424414 -89.031186 
L 157.830644 -89.186001 
L 158.236868 -89.338059 
L 158.643092 -89.428661 
L 159.049316 -89.518226 
L 159.45554 -89.644701 
L 159.861765 -89.717651 
L 160.267989 -89.792282 
L 160.674213 -89.877105 
L 161.080437 -89.95763 
L 161.486661 -90.034122 
L 161.892885 -90.105585 
L 162.29911 -90.171161 
L 162.705334 -90.230144 
L 163.111558 -90.281973 
L 163.517782 -90.326254 
L 163.924006 -90.362723 
L 164.33023 -90.391285 
L 164.736455 -90.408108 
L 165.142679 -90.416373 
L 165.548903 -90.416817 
L 165.955127 -90.409924 
L 166.361351 -90.396271 
L 166.767575 -90.376501 
L 167.1738 -90.350624 
L 167.580024 -90.295207 
L 167.986248 -90.267533 
L 168.392478 -90.199377 
L 168.798702 -90.131057 
L 169.204926 -90.063762 
L 169.611151 -89.99858 
L 170.017375 -89.930002 
L 170.423599 -89.864063 
L 170.829823 -89.8042 
L 171.236047 -89.751101 
L 171.642271 -89.705289 
L 172.048496 -89.667144 
L 172.45472 -89.636885 
L 172.860944 -89.614581 
L 173.267168 -89.600164 
L 173.673392 -89.593443 
L 174.079616 -89.594095 
L 174.485841 -89.593098 
L 174.892065 -89.607316 
L 175.298289 -89.634174 
L 175.704513 -89.660538 
L 176.110737 -89.683065 
L 176.516961 -89.708546 
L 176.923186 -89.752746 
L 177.32941 -89.804722 
L 177.735634 -89.821967 
L 178.141858 -89.838716 
L 178.548082 -89.862972 
L 178.954306 -89.887592 
L 179.360531 -89.912029 
L 179.766755 -89.931144 
L 180.172979 -89.949638 
L 180.579203 -89.967468 
L 180.985427 -89.982948 
L 181.391651 -89.995551 
L 181.797876 -90.007497 
L 182.2041 -90.018639 
L 182.610324 -90.028849 
L 183.016548 -90.038006 
L 183.422772 -90.046044 
L 183.829008 -90.05289 
L 184.235233 -90.058509 
L 184.641457 -90.062891 
L 185.047681 -90.066043 
L 185.453905 -90.067999 
L 185.860129 -90.066865 
L 186.266353 -90.063877 
L 186.672578 -90.061969 
L 187.078802 -90.054736 
L 187.485026 -90.042449 
L 187.89125 -90.034365 
L 188.297474 -90.01757 
L 188.703698 -89.995311 
L 189.109923 -89.975544 
L 189.516147 -89.960233 
L 189.922371 -89.946215 
L 190.328595 -89.933205 
L 190.734819 -89.924867 
L 191.141043 -89.919675 
L 191.547268 -89.91742 
L 191.953492 -89.917984 
L 192.359716 -89.921203 
L 192.76594 -89.926876 
L 193.172164 -89.930454 
L 193.578388 -89.931015 
L 193.984613 -89.928506 
L 194.390837 -89.926855 
L 194.797061 -89.926037 
L 195.203285 -89.926016 
L 195.609509 -89.926745 
L 196.015733 -89.928162 
L 196.421958 -89.930196 
L 196.828182 -89.932779 
L 197.234406 -89.935838 
L 197.64063 -89.939282 
L 198.046854 -89.943026 
L 198.453078 -89.947002 
L 198.859303 -89.951116 
L 199.265527 -89.955296 
L 199.671751 -89.960633 
L 200.077975 -89.964981 
L 200.484199 -89.96918 
L 200.890423 -89.973415 
L 201.296647 -89.977262 
L 201.702872 -89.980663 
L 202.109096 -89.983593 
L 202.51532 -89.986114 
L 202.921544 -89.988408 
L 203.327768 -89.990284 
L 203.733992 -89.99174 
L 204.140217 -89.992779 
L 204.546453 -89.993397 
L 204.952677 -89.993164 
L 205.358901 -89.991241 
L 205.765125 -89.989858 
L 206.17135 -89.989108 
L 206.577574 -89.988092 
L 206.983798 -89.986843 
L 207.390022 -89.985395 
L 207.796246 -89.983789 
L 208.20247 -89.982063 
L 208.608695 -89.980238 
L 209.014919 -89.978368 
L 209.421143 -89.976479 
L 209.827367 -89.974606 
L 210.233591 -89.972781 
L 210.639815 -89.971027 
L 211.04604 -89.969377 
L 211.452264 -89.967847 
L 211.858488 -89.966455 
L 212.264712 -89.965211 
L 212.670936 -89.964134 
L 213.07716 -89.963234 
L 213.483385 -89.96251 
L 213.889609 -89.961961 
L 214.295833 -89.961592 
L 214.702057 -89.961394 
L 215.108281 -89.961363 
L 215.514505 -89.961487 
L 215.920729 -89.961751 
L 216.326954 -89.962146 
L 216.733178 -89.962656 
L 217.139402 -89.963261 
L 217.545626 -89.963943 
L 217.95185 -89.964693 
L 218.358074 -89.965494 
L 218.764299 -89.966322 
L 219.170523 -89.967176 
L 219.576747 -89.968033 
L 219.982971 -89.968874 
L 220.389195 -89.96969 
L 220.795419 -89.970468 
L 221.201644 -89.971195 
L 221.607868 -89.971861 
L 222.014092 -89.972463 
L 222.420316 -89.97299 
L 222.82654 -89.973436 
L 223.232764 -89.973809 
L 223.638989 -89.974101 
L 224.045213 -89.974319 
L 224.451437 -89.974457 
L 224.857661 -89.974515 
L 225.263897 -89.974502 
L 225.670122 -89.97442 
L 226.076346 -89.974268 
L 226.48257 -89.974063 
L 226.888794 -89.973813 
L 227.295018 -89.973528 
L 227.701242 -89.973197 
L 228.107467 -89.972838 
L 228.513691 -89.972468 
L 228.919915 -89.972091 
L 229.326139 -89.971706 
L 229.732363 -89.971322 
L 230.138587 -89.970943 
L 230.544811 -89.970579 
L 230.951036 -89.970239 
L 231.35726 -89.969924 
L 231.763484 -89.96964 
L 232.169708 -89.969382 
L 232.575932 -89.969154 
L 232.982156 -89.968972 
L 233.388381 -89.968815 
L 233.794605 -89.968704 
L 234.200829 -89.968627 
L 234.607053 -89.968582 
L 235.013277 -89.968571 
L 235.419501 -89.968587 
L 235.825726 -89.968639 
L 236.23195 -89.968717 
L 236.638174 -89.968815 
L 237.044398 -89.968939 
L 237.450622 -89.96908 
L 237.856846 -89.969237 
L 238.263071 -89.96941 
L 238.669295 -89.969584 
L 239.075519 -89.969764 
L 239.481743 -89.969938 
L 239.887967 -89.970111 
L 240.294191 -89.97028 
L 240.700416 -89.970441 
L 241.10664 -89.970593 
L 241.512864 -89.970733 
L 241.919088 -89.970864 
L 242.325312 -89.97098 
L 242.731536 -89.97108 
L 243.137761 -89.971164 
L 243.543985 -89.971233 
L 243.950209 -89.971283 
L 244.356433 -89.971319 
L 244.762657 -89.971343 
L 245.168881 -89.971348 
L 245.575106 -89.971333 
L 245.98133 -89.971305 
L 246.387566 -89.971259 
L 246.79379 -89.971202 
L 247.200014 -89.971132 
L 247.606238 -89.971062 
L 248.012463 -89.970983 
L 248.418687 -89.970903 
L 248.824911 -89.970824 
L 249.231135 -89.970741 
L 249.637359 -89.970657 
L 250.043583 -89.970578 
L 250.449808 -89.970502 
L 250.856032 -89.970431 
L 251.262256 -89.970364 
L 251.66848 -89.970299 
L 252.074704 -89.970238 
L 252.480928 -89.970182 
L 252.887153 -89.970142 
L 253.293377 -89.970114 
L 253.699601 -89.970098 
L 254.105825 -89.970087 
L 254.512049 -89.970079 
L 254.918273 -89.970072 
L 255.324498 -89.970071 
L 255.730722 -89.97007 
L 256.136946 -89.97008 
L 256.54317 -89.970103 
L 256.949394 -89.970132 
L 257.355618 -89.970171 
L 257.761843 -89.970216 
L 258.168067 -89.970258 
L 258.574291 -89.970298 
L 258.980515 -89.970336 
L 259.386739 -89.970378 
L 259.792963 -89.970419 
L 260.199188 -89.970455 
L 260.605412 -89.970487 
L 261.011636 -89.970518 
L 261.41786 -89.970539 
L 261.824084 -89.97056 
L 262.230308 -89.970578 
L 262.636533 -89.970595 
L 263.042757 -89.970615 
L 263.448981 -89.970632 
L 263.855205 -89.970649 
L 264.261429 -89.970665 
L 264.667653 -89.970675 
L 265.073878 -89.970675 
L 265.480102 -89.970671 
L 265.886326 -89.97066 
L 266.29255 -89.970646 
L 266.698774 -89.970638 
L 267.10501 -89.970625 
L 267.511235 -89.970609 
L 267.917459 -89.970592 
L 268.323683 -89.970575 
L 268.729907 -89.970559 
L 269.136131 -89.970542 
L 269.542355 -89.97053 
L 269.94858 -89.970514 
L 270.354804 -89.970499 
L 270.761028 -89.970492 
L 271.167252 -89.970481 
L 271.573476 -89.970463 
L 271.9797 -89.970448 
L 272.385925 -89.970446 
L 272.792149 -89.970448 
L 273.198373 -89.970446 
L 273.604597 -89.970448 
L 274.010821 -89.970442 
L 274.417045 -89.970438 
L 274.82327 -89.970429 
L 275.229494 -89.970422 
L 275.635718 -89.970412 
L 276.041942 -89.970406 
L 276.448166 -89.970407 
L 276.85439 -89.970405 
L 277.260615 -89.9704 
L 277.666839 -89.970395 
L 278.073063 -89.970391 
L 278.479287 -89.970387 
L 278.885511 -89.970382 
L 279.291735 -89.970375 
L 279.69796 -89.970375 
L 280.104184 -89.970375 
L 280.510408 -89.970375 
L 280.916632 -89.970379 
L 281.322856 -89.970377 
L 281.72908 -89.970378 
L 282.135305 -89.970375 
L 282.541529 -89.970376 
L 282.947753 -89.970375 
L 283.353977 -89.97037 
L 283.760201 -89.97037 
L 284.166425 -89.970366 
L 284.57265 -89.970367 
L 284.978874 -89.970372 
L 285.385098 -89.970376 
L 285.791322 -89.970378 
L 286.197546 -89.970377 
L 286.60377 -89.970374 
L 287.009994 -89.970366 
L 287.416219 -89.970363 
L 287.822443 -89.970361 
L 288.228691 -89.970357 
L 288.634915 -89.970361 
L 289.041139 -89.97036 
L 289.447364 -89.970361 
L 289.853588 -89.970362 
L 290.259812 -89.970363 
L 290.666036 -89.970363 
L 291.07226 -89.970369 
L 291.478484 -89.970369 
L 291.884709 -89.970372 
L 292.290933 -89.970372 
L 292.697157 -89.970375 
L 293.103381 -89.970373 
L 293.509605 -89.970372 
L 293.915829 -89.970366 
L 294.322054 -89.970369 
L 294.728278 -89.970361 
L 295.134502 -89.970358 
L 295.540726 -89.970362 
L 295.94695 -89.97036 
L 296.353174 -89.970362 
L 296.759399 -89.97036 
L 297.165623 -89.970359 
L 297.571847 -89.970356 
L 297.978071 -89.970358 
L 298.384295 -89.970359 
L 298.790519 -89.970362 
L 299.196744 -89.970363 
L 299.602968 -89.970364 
L 300.009192 -89.970362 
L 300.415416 -89.970361 
L 300.82164 -89.970362 
L 301.227864 -89.970361 
L 301.634089 -89.970359 
L 302.040313 -89.970358 
L 302.446537 -89.97036 
L 302.852761 -89.97036 
L 303.258985 -89.970359 
L 303.665209 -89.970361 
L 304.071434 -89.970359 
L 304.477658 -89.97036 
L 304.883882 -89.970355 
L 305.290106 -89.970353 
L 305.69633 -89.970353 
L 306.102554 -89.970352 
L 306.508779 -89.970353 
L 306.915003 -89.97036 
L 307.321227 -89.97036 
L 307.727451 -89.970361 
L 308.133675 -89.970362 
L 308.539899 -89.97036 
L 308.946124 -89.970362 
L 309.352348 -89.97036 
L 309.758572 -89.97036 
L 310.164796 -89.970362 
L 310.57102 -89.970365 
L 310.977244 -89.970363 
L 311.383469 -89.970365 
L 311.789693 -89.970365 
L 312.195917 -89.970361 
L 312.602141 -89.970359 
L 313.008365 -89.970354 
L 313.414589 -89.970355 
L 313.820814 -89.970353 
L 314.227038 -89.970348 
L 314.633262 -89.970347 
L 315.039486 -89.970344 
L 315.44571 -89.970344 
L 315.851934 -89.970345 
L 316.258158 -89.970347 
L 316.664383 -89.970349 
L 317.070607 -89.97035 
L 317.476831 -89.970352 
L 317.883055 -89.970357 
L 318.289279 -89.970361 
L 318.695503 -89.970359 
L 319.101728 -89.970363 
L 319.507952 -89.970361 
L 319.914176 -89.970362 
L 320.3204 -89.970357 
L 320.726624 -89.970358 
L 321.132848 -89.97036 
L 321.539073 -89.97036 
L 321.945297 -89.970359 
L 322.351521 -89.970359 
L 322.757745 -89.970358 
L 323.163969 -89.970359 
L 323.570193 -89.970362 
L 323.976418 -89.970363 
L 324.382642 -89.970367 
L 324.788866 -89.970363 
L 325.19509 -89.97036 
L 325.601314 -89.970361 
L 326.007538 -89.970362 
L 326.413763 -89.970368 
L 326.819987 -89.970366 
L 327.226211 -89.970364 
L 327.632435 -89.970361 
L 328.038659 -89.970361 
L 328.444883 -89.970362 
L 328.851108 -89.970363 
L 329.257332 -89.970364 
L 329.66358 -89.970363 
L 330.069804 -89.97036 
L 330.476028 -89.97036 
L 330.882253 -89.970361 
L 331.288477 -89.970362 
L 331.694701 -89.970361 
L 332.100925 -89.970362 
L 332.507149 -89.970366 
L 332.913373 -89.970368 
L 333.319598 -89.970368 
L 333.725822 -89.970373 
L 334.132046 -89.970375 
L 334.53827 -89.970372 
L 334.944494 -89.97037 
L 335.350718 -89.970369 
L 335.756943 -89.970365 
L 336.163167 -89.970364 
L 336.569391 -89.970364 
L 336.975615 -89.970364 
L 337.381839 -89.970361 
L 337.788063 -89.970363 
L 338.194288 -89.970362 
L 338.600512 -89.970363 
L 339.006736 -89.970363 
L 339.41296 -89.970364 
L 339.819184 -89.970364 
L 340.225408 -89.970363 
L 340.631633 -89.970359 
L 341.037857 -89.970357 
L 341.444081 -89.970357 
L 341.850305 -89.970356 
L 342.256529 -89.970354 
L 342.662753 -89.970353 
L 343.068978 -89.970352 
L 343.475202 -89.970351 
L 343.881426 -89.970349 
L 344.28765 -89.970351 
L 344.693874 -89.970356 
L 345.100098 -89.970361 
L 345.506322 -89.970363 
L 345.912547 -89.970364 
L 346.318771 -89.970362 
L 346.724995 -89.970363 
L 347.131219 -89.970363 
L 347.537443 -89.970362 
L 347.943667 -89.97036 
L 348.349892 -89.970359 
L 348.756116 -89.970357 
L 349.16234 -89.970356 
L 349.568564 -89.970355 
L 349.974788 -89.970356 
L 350.381012 -89.970356 
L 350.787237 -89.970357 
L 351.193461 -89.970358 
L 351.599685 -89.97036 
L 352.005909 -89.970362 
L 352.412133 -89.970362 
L 352.818357 -89.970362 
L 353.224582 -89.970362 
L 353.630806 -89.970364 
L 354.03703 -89.970364 
L 354.443254 -89.970364 
L 354.849478 -89.970364 
L 355.255702 -89.970361 
L 355.661927 -89.970359 
L 356.068151 -89.970358 
L 356.474375 -89.970356 
L 356.880599 -89.970356 
L 357.286823 -89.970354 
L 357.693047 -89.970349 
L 358.099272 -89.970351 
L 358.505496 -89.97035 
L 358.91172 -89.970351 
L 359.317944 -89.970349 
L 359.724168 -89.970355 
L 360.130392 -89.97036 
L 360.536617 -89.970365 
L 360.942841 -89.970365 
L 361.349065 -89.970365 
L 361.755289 -89.970365 
L 362.161513 -89.970369 
L 362.567737 -89.970366 
L 362.973962 -89.970367 
L 363.380186 -89.970365 
L 363.78641 -89.970368 
L 364.192634 -89.970372 
L 364.598858 -89.970366 
L 365.005082 -89.97037 
L 365.411307 -89.97037 
L 365.817531 -89.970372 
L 366.223755 -89.970378 
L 366.629979 -89.970373 
L 367.036203 -89.970367 
L 367.442427 -89.970362 
L 367.848652 -89.970359 
L 368.254876 -89.970359 
L 368.6611 -89.970359 
L 369.067324 -89.970358 
L 369.473548 -89.970357 
L 369.879772 -89.970359 
L 370.285997 -89.970362 
L 370.692221 -89.970369 
L 371.098469 -89.970364 
L 371.504693 -89.970362 
L 371.910917 -89.970362 
L 372.317142 -89.97036 
L 372.723366 -89.97036 
L 373.12959 -89.970362 
L 373.535814 -89.97036 
L 373.942038 -89.970361 
L 374.348262 -89.970361 
L 374.754487 -89.970363 
L 375.160711 -89.970364 
L 375.566935 -89.970369 
L 375.973159 -89.970375 
L 376.379383 -89.970372 
L 376.785607 -89.970368 
L 377.191831 -89.970366 
L 377.598056 -89.970365 
L 378.00428 -89.970363 
L 378.410504 -89.970359 
L 378.816728 -89.970359 
L 379.222952 -89.970361 
L 379.629176 -89.970361 
L 380.035401 -89.97036 
L 380.441625 -89.970358 
L 380.847849 -89.970358 
L 381.254073 -89.970358 
L 381.660297 -89.970354 
L 382.066521 -89.970349 
L 382.472746 -89.970352 
L 382.87897 -89.970354 
L 383.285194 -89.970355 
L 383.691418 -89.970355 
L 384.097642 -89.970356 
L 384.503866 -89.970357 
L 384.910091 -89.970367 
L 385.316315 -89.970364 
L 385.722539 -89.970371 
L 386.128763 -89.97037 
L 386.534987 -89.970365 
L 386.941211 -89.970368 
L 387.347436 -89.970368 
L 387.75366 -89.970367 
L 388.159884 -89.970367 
L 388.566108 -89.970366 
L 388.972332 -89.970364 
L 389.378556 -89.970366 
L 389.784781 -89.970368 
L 390.191005 -89.970368 
L 390.597229 -89.970365 
L 391.003453 -89.970361 
L 391.409677 -89.970362 
L 391.815901 -89.970362 
L 392.222126 -89.970363 
L 392.62835 -89.970363 
L 393.034574 -89.970363 
L 393.440798 -89.970363 
L 393.847022 -89.970366 
L 394.253246 -89.970368 
L 394.659471 -89.970365 
L 395.065695 -89.970365 
L 395.471919 -89.970365 
L 395.878143 -89.970368 
L 396.284367 -89.970368 
L 396.690591 -89.97037 
L 397.096816 -89.970369 
L 397.50304 -89.970366 
L 397.909264 -89.97036 
L 398.315488 -89.97036 
L 398.721712 -89.970364 
L 399.127936 -89.970364 
L 399.534161 -89.970361 
L 399.940385 -89.97036 
L 400.346609 -89.970362 
L 400.752833 -89.970362 
L 401.159057 -89.97036 
L 401.565281 -89.970362 
L 401.971505 -89.970362 
L 402.37773 -89.970362 
L 402.783954 -89.970361 
L 403.190178 -89.970362 
L 403.596402 -89.970363 
L 404.002626 -89.970361 
L 404.40885 -89.970359 
L 404.815075 -89.970359 
L 405.221299 -89.970357 
L 405.627523 -89.970356 
L 406.033747 -89.970357 
L 406.439971 -89.970357 
L 406.846195 -89.970359 
L 407.25242 -89.970359 
L 407.658644 -89.97036 
L 408.064868 -89.97036 
L 408.471092 -89.97036 
L 408.877316 -89.970359 
L 409.28354 -89.97036 
L 409.689765 -89.970361 
L 410.095989 -89.970362 
L 410.502213 -89.970362 
L 410.908437 -89.970361 
L 411.314661 -89.970361 
L 411.720885 -89.970363 
L 412.12711 -89.970363 
L 412.533334 -89.970365 
L 412.939582 -89.970366 
L 413.345806 -89.970367 
L 413.75203 -89.970367 
L 414.158255 -89.970367 
L 414.564479 -89.970364 
L 414.970703 -89.970361 
L 415.376927 -89.970359 
L 415.783151 -89.970358 
L 416.189375 -89.970355 
L 416.5956 -89.970355 
L 417.001824 -89.970355 
L 417.408048 -89.970355 
L 417.814272 -89.970357 
L 418.220496 -89.970357 
L 418.62672 -89.970351 
L 419.032945 -89.970353 
L 419.439169 -89.970351 
L 419.845393 -89.970351 
L 420.251617 -89.970351 
L 420.657841 -89.970359 
L 421.064065 -89.970359 
L 421.47029 -89.970361 
L 421.876514 -89.970361 
L 422.282738 -89.970366 
L 422.688962 -89.970364 
L 423.095186 -89.970365 
L 423.50141 -89.970367 
L 423.907635 -89.970371 
L 424.313859 -89.970371 
L 424.720083 -89.97037 
L 425.126307 -89.970369 
L 425.532531 -89.970366 
L 425.938755 -89.970359 
L 426.34498 -89.970359 
L 426.751204 -89.970359 
L 427.157428 -89.970357 
L 427.563652 -89.970357 
L 427.969876 -89.970359 
L 428.3761 -89.970356 
L 428.782325 -89.970357 
L 429.188549 -89.970357 
L 429.594773 -89.970357 
L 430.000997 -89.970357 
L 430.407221 -89.970356 
L 430.813445 -89.970357 
L 431.219669 -89.970358 
L 431.625894 -89.970357 
L 432.032118 -89.970357 
L 432.438342 -89.970357 
L 432.844566 -89.970359 
L 433.25079 -89.970359 
L 433.657014 -89.97036 
L 434.063239 -89.970362 
L 434.469463 -89.970364 
L 434.875687 -89.970367 
L 435.281911 -89.970367 
L 435.688135 -89.970366 
L 436.094359 -89.970364 
L 436.500584 -89.970364 
L 436.906808 -89.970363 
L 437.313032 -89.970363 
L 437.719256 -89.970363 
L 438.12548 -89.970363 
L 438.531704 -89.97036 
L 438.937929 -89.970359 
L 439.344153 -89.970359 
L 439.750377 -89.970362 
L 440.156601 -89.970362 
L 440.562825 -89.970362 
L 440.969049 -89.970363 
L 441.375274 -89.970363 
L 441.781498 -89.97036 
L 442.187722 -89.97036 
L 442.593946 -89.97036 
L 443.00017 -89.970359 
L 443.406394 -89.970353 
L 443.812619 -89.970347 
L 444.218843 -89.970339 
L 444.625067 -89.97034 
L 445.031291 -89.970344 
L 445.437515 -89.970347 
L 445.843739 -89.970349 
L 446.249964 -89.970351 
L 446.656188 -89.970364 
L 447.062412 -89.970371 
L 447.468636 -89.970375 
L 447.87486 -89.970377 
L 448.281084 -89.970382 
L 448.687309 -89.970378 
L 449.093533 -89.970373 
L 449.499757 -89.970366 
L 449.905981 -89.970365 
L 450.312205 -89.970365 
L 450.718429 -89.970365 
L 451.124654 -89.97037 
L 451.530878 -89.970372 
L 451.937102 -89.970375 
L 452.343326 -89.970373 
L 452.74955 -89.970366 
L 453.155774 -89.970363 
L 453.561999 -89.970364 
L 453.968223 -89.970364 
L 454.374471 -89.970365 
L 454.780695 -89.970362 
L 455.186919 -89.970363 
L 455.593144 -89.970358 
L 455.999368 -89.970356 
L 456.405592 -89.970355 
L 456.811816 -89.97035 
L 457.21804 -89.970349 
L 457.624264 -89.970353 
L 458.030489 -89.970354 
L 458.436713 -89.970356 
L 458.842937 -89.970358 
L 459.249161 -89.970359 
L 459.655385 -89.97036 
L 460.061609 -89.970359 
L 460.467834 -89.970355 
L 460.874058 -89.970346 
L 461.280282 -89.970344 
L 461.686506 -89.970344 
L 462.09273 -89.970345 
L 462.498954 -89.970345 
L 462.905178 -89.970346 
L 463.311403 -89.970352 
L 463.717627 -89.970353 
L 464.123851 -89.970354 
L 464.530075 -89.970354 
L 464.936299 -89.970355 
L 465.342523 -89.970358 
L 465.748748 -89.970359 
L 466.154972 -89.970358 
L 466.561196 -89.970353 
L 466.96742 -89.970351 
L 467.373644 -89.97035 
L 467.779868 -89.970349 
L 468.186093 -89.97035 
L 468.592317 -89.970356 
L 468.998541 -89.970362 
L 469.404765 -89.970365 
L 469.810989 -89.970365 
L 470.217213 -89.970366 
L 470.623438 -89.970367 
L 471.029662 -89.970364 
L 471.435886 -89.970361 
L 471.84211 -89.970362 
L 472.248334 -89.970361 
L 472.654558 -89.970362 
L 473.060783 -89.970365 
L 473.467007 -89.970365 
L 473.873231 -89.970365 
L 474.279455 -89.970364 
L 474.685679 -89.970362 
L 475.091903 -89.970362 
L 475.091903 -90.975705 
L 475.091903 -90.975705 
L 474.685679 -90.975712 
L 474.279455 -90.975716 
L 473.873231 -90.975723 
L 473.467007 -90.975723 
L 473.060783 -90.975726 
L 472.654558 -90.975732 
L 472.248334 -90.975731 
L 471.84211 -90.975734 
L 471.435886 -90.975723 
L 471.029662 -90.975712 
L 470.623438 -90.975703 
L 470.217213 -90.975699 
L 469.810989 -90.975702 
L 469.404765 -90.975706 
L 468.998541 -90.975712 
L 468.592317 -90.975721 
L 468.186093 -90.975732 
L 467.779868 -90.975739 
L 467.373644 -90.975741 
L 466.96742 -90.975739 
L 466.561196 -90.975732 
L 466.154972 -90.975719 
L 465.748748 -90.975712 
L 465.342523 -90.975706 
L 464.936299 -90.975703 
L 464.530075 -90.975705 
L 464.123851 -90.975703 
L 463.717627 -90.975704 
L 463.311403 -90.975712 
L 462.905178 -90.975721 
L 462.498954 -90.975725 
L 462.09273 -90.97573 
L 461.686506 -90.975731 
L 461.280282 -90.975728 
L 460.874058 -90.975719 
L 460.467834 -90.97571 
L 460.061609 -90.975702 
L 459.655385 -90.975694 
L 459.249161 -90.975691 
L 458.842937 -90.975693 
L 458.436713 -90.975693 
L 458.030489 -90.975694 
L 457.624264 -90.975698 
L 457.21804 -90.975706 
L 456.811816 -90.975714 
L 456.405592 -90.975722 
L 455.999368 -90.975725 
L 455.593144 -90.975725 
L 455.186919 -90.975722 
L 454.780695 -90.975722 
L 454.374471 -90.97572 
L 453.968223 -90.975714 
L 453.561999 -90.975709 
L 453.155774 -90.975702 
L 452.74955 -90.975699 
L 452.343326 -90.975699 
L 451.937102 -90.975703 
L 451.530878 -90.975705 
L 451.124654 -90.975704 
L 450.718429 -90.975702 
L 450.312205 -90.975703 
L 449.905981 -90.975702 
L 449.499757 -90.975702 
L 449.093533 -90.975707 
L 448.687309 -90.975714 
L 448.281084 -90.975717 
L 447.87486 -90.975714 
L 447.468636 -90.975709 
L 447.062412 -90.975709 
L 446.656188 -90.975709 
L 446.249964 -90.975711 
L 445.843739 -90.975716 
L 445.437515 -90.975718 
L 445.031291 -90.975723 
L 444.625067 -90.975722 
L 444.218843 -90.975724 
L 443.812619 -90.975723 
L 443.406394 -90.975722 
L 443.00017 -90.97572 
L 442.593946 -90.975724 
L 442.187722 -90.975723 
L 441.781498 -90.97572 
L 441.375274 -90.97571 
L 440.969049 -90.975715 
L 440.562825 -90.975714 
L 440.156601 -90.975713 
L 439.750377 -90.975713 
L 439.344153 -90.975713 
L 438.937929 -90.975713 
L 438.531704 -90.975712 
L 438.12548 -90.975707 
L 437.719256 -90.975708 
L 437.313032 -90.975705 
L 436.906808 -90.975708 
L 436.500584 -90.975715 
L 436.094359 -90.975723 
L 435.688135 -90.97573 
L 435.281911 -90.975737 
L 434.875687 -90.975738 
L 434.469463 -90.975741 
L 434.063239 -90.975741 
L 433.657014 -90.975745 
L 433.25079 -90.975745 
L 432.844566 -90.975742 
L 432.438342 -90.975734 
L 432.032118 -90.97572 
L 431.625894 -90.975709 
L 431.219669 -90.975696 
L 430.813445 -90.975692 
L 430.407221 -90.975692 
L 430.000997 -90.975694 
L 429.594773 -90.9757 
L 429.188549 -90.975707 
L 428.782325 -90.975715 
L 428.3761 -90.975719 
L 427.969876 -90.975723 
L 427.563652 -90.97572 
L 427.157428 -90.975718 
L 426.751204 -90.975718 
L 426.34498 -90.975708 
L 425.938755 -90.975699 
L 425.532531 -90.975699 
L 425.126307 -90.975704 
L 424.720083 -90.975708 
L 424.313859 -90.975714 
L 423.907635 -90.975724 
L 423.50141 -90.975728 
L 423.095186 -90.975724 
L 422.688962 -90.975717 
L 422.282738 -90.975703 
L 421.876514 -90.975698 
L 421.47029 -90.975695 
L 421.064065 -90.975695 
L 420.657841 -90.975702 
L 420.251617 -90.975713 
L 419.845393 -90.975725 
L 419.439169 -90.975733 
L 419.032945 -90.975741 
L 418.62672 -90.975745 
L 418.220496 -90.97575 
L 417.814272 -90.975749 
L 417.408048 -90.975746 
L 417.001824 -90.975737 
L 416.5956 -90.975722 
L 416.189375 -90.97571 
L 415.783151 -90.975703 
L 415.376927 -90.975698 
L 414.970703 -90.975694 
L 414.564479 -90.97569 
L 414.158255 -90.97569 
L 413.75203 -90.975687 
L 413.345806 -90.975688 
L 412.939582 -90.975695 
L 412.533334 -90.975702 
L 412.12711 -90.975708 
L 411.720885 -90.975715 
L 411.314661 -90.975722 
L 410.908437 -90.975726 
L 410.502213 -90.97572 
L 410.095989 -90.975721 
L 409.689765 -90.975716 
L 409.28354 -90.975713 
L 408.877316 -90.975711 
L 408.471092 -90.975714 
L 408.064868 -90.975711 
L 407.658644 -90.975711 
L 407.25242 -90.975704 
L 406.846195 -90.975701 
L 406.439971 -90.9757 
L 406.033747 -90.975698 
L 405.627523 -90.975704 
L 405.221299 -90.975711 
L 404.815075 -90.975719 
L 404.40885 -90.975722 
L 404.002626 -90.975722 
L 403.596402 -90.975723 
L 403.190178 -90.975725 
L 402.783954 -90.975728 
L 402.37773 -90.975734 
L 401.971505 -90.975741 
L 401.565281 -90.975738 
L 401.159057 -90.975733 
L 400.752833 -90.975721 
L 400.346609 -90.975708 
L 399.940385 -90.975699 
L 399.534161 -90.975694 
L 399.127936 -90.975694 
L 398.721712 -90.975695 
L 398.315488 -90.975704 
L 397.909264 -90.975712 
L 397.50304 -90.975718 
L 397.096816 -90.975724 
L 396.690591 -90.975726 
L 396.284367 -90.975726 
L 395.878143 -90.975721 
L 395.471919 -90.975717 
L 395.065695 -90.975718 
L 394.659471 -90.97572 
L 394.253246 -90.97572 
L 393.847022 -90.975725 
L 393.440798 -90.975726 
L 393.034574 -90.975728 
L 392.62835 -90.975727 
L 392.222126 -90.975723 
L 391.815901 -90.975716 
L 391.409677 -90.97571 
L 391.003453 -90.975709 
L 390.597229 -90.975714 
L 390.191005 -90.975717 
L 389.784781 -90.975722 
L 389.378556 -90.975728 
L 388.972332 -90.975728 
L 388.566108 -90.975732 
L 388.159884 -90.975734 
L 387.75366 -90.975736 
L 387.347436 -90.975725 
L 386.941211 -90.975714 
L 386.534987 -90.97571 
L 386.128763 -90.975706 
L 385.722539 -90.975702 
L 385.316315 -90.975694 
L 384.910091 -90.975699 
L 384.503866 -90.9757 
L 384.097642 -90.975705 
L 383.691418 -90.975708 
L 383.285194 -90.975714 
L 382.87897 -90.975719 
L 382.472746 -90.97572 
L 382.066521 -90.975718 
L 381.660297 -90.975718 
L 381.254073 -90.975727 
L 380.847849 -90.975732 
L 380.441625 -90.975735 
L 380.035401 -90.975738 
L 379.629176 -90.975733 
L 379.222952 -90.975721 
L 378.816728 -90.975717 
L 378.410504 -90.975714 
L 378.00428 -90.975715 
L 377.598056 -90.975713 
L 377.191831 -90.975704 
L 376.785607 -90.975699 
L 376.379383 -90.9757 
L 375.973159 -90.975704 
L 375.566935 -90.975708 
L 375.160711 -90.97572 
L 374.754487 -90.975729 
L 374.348262 -90.975734 
L 373.942038 -90.975732 
L 373.535814 -90.975726 
L 373.12959 -90.975718 
L 372.723366 -90.975706 
L 372.317142 -90.975701 
L 371.910917 -90.975706 
L 371.504693 -90.975708 
L 371.098469 -90.975711 
L 370.692221 -90.975716 
L 370.285997 -90.975719 
L 369.879772 -90.975725 
L 369.473548 -90.975728 
L 369.067324 -90.97573 
L 368.6611 -90.975729 
L 368.254876 -90.975723 
L 367.848652 -90.975717 
L 367.442427 -90.975711 
L 367.036203 -90.975703 
L 366.629979 -90.975696 
L 366.223755 -90.975693 
L 365.817531 -90.975698 
L 365.411307 -90.975701 
L 365.005082 -90.975712 
L 364.598858 -90.975719 
L 364.192634 -90.975726 
L 363.78641 -90.975734 
L 363.380186 -90.975742 
L 362.973962 -90.975741 
L 362.567737 -90.975746 
L 362.161513 -90.975739 
L 361.755289 -90.975732 
L 361.349065 -90.975721 
L 360.942841 -90.975711 
L 360.536617 -90.975711 
L 360.130392 -90.975707 
L 359.724168 -90.975711 
L 359.317944 -90.975713 
L 358.91172 -90.975707 
L 358.505496 -90.97571 
L 358.099272 -90.975711 
L 357.693047 -90.975711 
L 357.286823 -90.975709 
L 356.880599 -90.975701 
L 356.474375 -90.9757 
L 356.068151 -90.975695 
L 355.661927 -90.975698 
L 355.255702 -90.975704 
L 354.849478 -90.975707 
L 354.443254 -90.97571 
L 354.03703 -90.975711 
L 353.630806 -90.975718 
L 353.224582 -90.97572 
L 352.818357 -90.975721 
L 352.412133 -90.975719 
L 352.005909 -90.97572 
L 351.599685 -90.97572 
L 351.193461 -90.975718 
L 350.787237 -90.975722 
L 350.381012 -90.97572 
L 349.974788 -90.975719 
L 349.568564 -90.975716 
L 349.16234 -90.975708 
L 348.756116 -90.975707 
L 348.349892 -90.975704 
L 347.943667 -90.975704 
L 347.537443 -90.975703 
L 347.131219 -90.975704 
L 346.724995 -90.975708 
L 346.318771 -90.975713 
L 345.912547 -90.975709 
L 345.506322 -90.975713 
L 345.100098 -90.975716 
L 344.693874 -90.975723 
L 344.28765 -90.975727 
L 343.881426 -90.975725 
L 343.475202 -90.97573 
L 343.068978 -90.975735 
L 342.662753 -90.975738 
L 342.256529 -90.975742 
L 341.850305 -90.975742 
L 341.444081 -90.975735 
L 341.037857 -90.975725 
L 340.631633 -90.975717 
L 340.225408 -90.975712 
L 339.819184 -90.975708 
L 339.41296 -90.975702 
L 339.006736 -90.975696 
L 338.600512 -90.975693 
L 338.194288 -90.97569 
L 337.788063 -90.975691 
L 337.381839 -90.975697 
L 336.975615 -90.975705 
L 336.569391 -90.975714 
L 336.163167 -90.975723 
L 335.756943 -90.975733 
L 335.350718 -90.975742 
L 334.944494 -90.97574 
L 334.53827 -90.975737 
L 334.132046 -90.975731 
L 333.725822 -90.975725 
L 333.319598 -90.975717 
L 332.913373 -90.975716 
L 332.507149 -90.975717 
L 332.100925 -90.975711 
L 331.694701 -90.975706 
L 331.288477 -90.975707 
L 330.882253 -90.975709 
L 330.476028 -90.975711 
L 330.069804 -90.975712 
L 329.66358 -90.975714 
L 329.257332 -90.975719 
L 328.851108 -90.975725 
L 328.444883 -90.975733 
L 328.038659 -90.975738 
L 327.632435 -90.975738 
L 327.226211 -90.975728 
L 326.819987 -90.975717 
L 326.413763 -90.975711 
L 326.007538 -90.975704 
L 325.601314 -90.975691 
L 325.19509 -90.975688 
L 324.788866 -90.975689 
L 324.382642 -90.97569 
L 323.976418 -90.975695 
L 323.570193 -90.975702 
L 323.163969 -90.975706 
L 322.757745 -90.975712 
L 322.351521 -90.975724 
L 321.945297 -90.975733 
L 321.539073 -90.975739 
L 321.132848 -90.975739 
L 320.726624 -90.97574 
L 320.3204 -90.975736 
L 319.914176 -90.97573 
L 319.507952 -90.975724 
L 319.101728 -90.975722 
L 318.695503 -90.975719 
L 318.289279 -90.975713 
L 317.883055 -90.975707 
L 317.476831 -90.975707 
L 317.070607 -90.975707 
L 316.664383 -90.975708 
L 316.258158 -90.975715 
L 315.851934 -90.975719 
L 315.44571 -90.975726 
L 315.039486 -90.975724 
L 314.633262 -90.975724 
L 314.227038 -90.975719 
L 313.820814 -90.975712 
L 313.414589 -90.975708 
L 313.008365 -90.975703 
L 312.602141 -90.975697 
L 312.195917 -90.975691 
L 311.789693 -90.975691 
L 311.383469 -90.975694 
L 310.977244 -90.975699 
L 310.57102 -90.975703 
L 310.164796 -90.975707 
L 309.758572 -90.975713 
L 309.352348 -90.975719 
L 308.946124 -90.975729 
L 308.539899 -90.975738 
L 308.133675 -90.975742 
L 307.727451 -90.975739 
L 307.321227 -90.975734 
L 306.915003 -90.975725 
L 306.508779 -90.975715 
L 306.102554 -90.975707 
L 305.69633 -90.975697 
L 305.290106 -90.975689 
L 304.883882 -90.975687 
L 304.477658 -90.975687 
L 304.071434 -90.975684 
L 303.665209 -90.975686 
L 303.258985 -90.975687 
L 302.852761 -90.975684 
L 302.446537 -90.975683 
L 302.040313 -90.97568 
L 301.634089 -90.975678 
L 301.227864 -90.975673 
L 300.82164 -90.975672 
L 300.415416 -90.975671 
L 300.009192 -90.975672 
L 299.602968 -90.975676 
L 299.196744 -90.975673 
L 298.790519 -90.975671 
L 298.384295 -90.975664 
L 297.978071 -90.97566 
L 297.571847 -90.975657 
L 297.165623 -90.975649 
L 296.759399 -90.975644 
L 296.353174 -90.975637 
L 295.94695 -90.97563 
L 295.540726 -90.975617 
L 295.134502 -90.975603 
L 294.728278 -90.975587 
L 294.322054 -90.975574 
L 293.915829 -90.975561 
L 293.509605 -90.975547 
L 293.103381 -90.97553 
L 292.697157 -90.975515 
L 292.290933 -90.975506 
L 291.884709 -90.975497 
L 291.478484 -90.975487 
L 291.07226 -90.975474 
L 290.666036 -90.97546 
L 290.259812 -90.975444 
L 289.853588 -90.975431 
L 289.447364 -90.975421 
L 289.041139 -90.975418 
L 288.634915 -90.975414 
L 288.228691 -90.975413 
L 287.822443 -90.975414 
L 287.416219 -90.975431 
L 287.009994 -90.975449 
L 286.60377 -90.97547 
L 286.197546 -90.975498 
L 285.791322 -90.97553 
L 285.385098 -90.975562 
L 284.978874 -90.9756 
L 284.57265 -90.975636 
L 284.166425 -90.975675 
L 283.760201 -90.975707 
L 283.353977 -90.975738 
L 282.947753 -90.975774 
L 282.541529 -90.975805 
L 282.135305 -90.975829 
L 281.72908 -90.975848 
L 281.322856 -90.975856 
L 280.916632 -90.975868 
L 280.510408 -90.975874 
L 280.104184 -90.975874 
L 279.69796 -90.975868 
L 279.291735 -90.975855 
L 278.885511 -90.975845 
L 278.479287 -90.975821 
L 278.073063 -90.975783 
L 277.666839 -90.975735 
L 277.260615 -90.975682 
L 276.85439 -90.975618 
L 276.448166 -90.97556 
L 276.041942 -90.975502 
L 275.635718 -90.975445 
L 275.229494 -90.975388 
L 274.82327 -90.975326 
L 274.417045 -90.975277 
L 274.010821 -90.975225 
L 273.604597 -90.975178 
L 273.198373 -90.975133 
L 272.792149 -90.975096 
L 272.385925 -90.975065 
L 271.9797 -90.975034 
L 271.573476 -90.975007 
L 271.167252 -90.974992 
L 270.761028 -90.974988 
L 270.354804 -90.974998 
L 269.94858 -90.975026 
L 269.542355 -90.975068 
L 269.136131 -90.975116 
L 268.729907 -90.975166 
L 268.323683 -90.975231 
L 267.917459 -90.975308 
L 267.511235 -90.975405 
L 267.10501 -90.975506 
L 266.698774 -90.975618 
L 266.29255 -90.975735 
L 265.886326 -90.975852 
L 265.480102 -90.975968 
L 265.073878 -90.976081 
L 264.667653 -90.976191 
L 264.261429 -90.9763 
L 263.855205 -90.976399 
L 263.448981 -90.976486 
L 263.042757 -90.976562 
L 262.636533 -90.97663 
L 262.230308 -90.976681 
L 261.824084 -90.976716 
L 261.41786 -90.976728 
L 261.011636 -90.976717 
L 260.605412 -90.976689 
L 260.199188 -90.976638 
L 259.792963 -90.976563 
L 259.386739 -90.976458 
L 258.980515 -90.97634 
L 258.574291 -90.976195 
L 258.168067 -90.976022 
L 257.761843 -90.975844 
L 257.355618 -90.975645 
L 256.949394 -90.975438 
L 256.54317 -90.97522 
L 256.136946 -90.974994 
L 255.730722 -90.974765 
L 255.324498 -90.974543 
L 254.918273 -90.974327 
L 254.512049 -90.97412 
L 254.105825 -90.973934 
L 253.699601 -90.973762 
L 253.293377 -90.97361 
L 252.887153 -90.973482 
L 252.480928 -90.973387 
L 252.074704 -90.973335 
L 251.66848 -90.973325 
L 251.262256 -90.973359 
L 250.856032 -90.973429 
L 250.449808 -90.973545 
L 250.043583 -90.973703 
L 249.637359 -90.973912 
L 249.231135 -90.974155 
L 248.824911 -90.974439 
L 248.418687 -90.974764 
L 248.012463 -90.975123 
L 247.606238 -90.97551 
L 247.200014 -90.975918 
L 246.79379 -90.97634 
L 246.387566 -90.976773 
L 245.98133 -90.977207 
L 245.575106 -90.97764 
L 245.168881 -90.978068 
L 244.762657 -90.978473 
L 244.356433 -90.978859 
L 243.950209 -90.979198 
L 243.543985 -90.979491 
L 243.137761 -90.979728 
L 242.731536 -90.979901 
L 242.325312 -90.98 
L 241.919088 -90.980034 
L 241.512864 -90.979988 
L 241.10664 -90.979865 
L 240.700416 -90.979658 
L 240.294191 -90.979363 
L 239.887967 -90.978982 
L 239.481743 -90.978518 
L 239.075519 -90.977968 
L 238.669295 -90.977342 
L 238.263071 -90.976554 
L 237.856846 -90.975643 
L 237.450622 -90.974685 
L 237.044398 -90.973707 
L 236.638174 -90.972724 
L 236.23195 -90.971753 
L 235.825726 -90.970812 
L 235.419501 -90.969914 
L 235.013277 -90.969088 
L 234.607053 -90.968344 
L 234.200829 -90.967711 
L 233.794605 -90.967195 
L 233.388381 -90.966816 
L 232.982156 -90.966599 
L 232.575932 -90.966548 
L 232.169708 -90.966674 
L 231.763484 -90.96696 
L 231.35726 -90.967191 
L 230.951036 -90.967602 
L 230.544811 -90.968188 
L 230.138587 -90.968944 
L 229.732363 -90.969869 
L 229.326139 -90.970955 
L 228.919915 -90.972189 
L 228.513691 -90.97355 
L 228.107467 -90.975022 
L 227.701242 -90.976587 
L 227.295018 -90.978227 
L 226.888794 -90.979913 
L 226.48257 -90.981618 
L 226.076346 -90.983309 
L 225.670122 -90.984956 
L 225.263897 -90.986522 
L 224.857661 -90.987978 
L 224.451437 -90.989285 
L 224.045213 -90.990414 
L 223.638989 -90.991339 
L 223.232764 -90.992037 
L 222.82654 -90.992464 
L 222.420316 -90.9926 
L 222.014092 -90.992435 
L 221.607868 -90.991952 
L 221.201644 -90.991139 
L 220.795419 -90.99 
L 220.389195 -90.98853 
L 219.982971 -90.986559 
L 219.576747 -90.983912 
L 219.170523 -90.980987 
L 218.764299 -90.97781 
L 218.358074 -90.974438 
L 217.95185 -90.970909 
L 217.545626 -90.967283 
L 217.139402 -90.963623 
L 216.733178 -90.959977 
L 216.326954 -90.956425 
L 215.920729 -90.953044 
L 215.514505 -90.949897 
L 215.108281 -90.947061 
L 214.702057 -90.94461 
L 214.295833 -90.9426 
L 213.889609 -90.941086 
L 213.483385 -90.940134 
L 213.07716 -90.939793 
L 212.670936 -90.940098 
L 212.264712 -90.941074 
L 211.858488 -90.942751 
L 211.452264 -90.945086 
L 211.04604 -90.947322 
L 210.639815 -90.950204 
L 210.233591 -90.953721 
L 209.827367 -90.957839 
L 209.421143 -90.962516 
L 209.014919 -90.967707 
L 208.608695 -90.973338 
L 208.20247 -90.979338 
L 207.796246 -90.9856 
L 207.390022 -90.992046 
L 206.983798 -90.998565 
L 206.577574 -91.00503 
L 206.17135 -91.012507 
L 205.765125 -91.019833 
L 205.358901 -91.025968 
L 204.952677 -91.030756 
L 204.546453 -91.034047 
L 204.140217 -91.03578 
L 203.733992 -91.038436 
L 203.327768 -91.040089 
L 202.921544 -91.040647 
L 202.51532 -91.040046 
L 202.109096 -91.03822 
L 201.702872 -91.035143 
L 201.296647 -91.030798 
L 200.890423 -91.024432 
L 200.484199 -91.016006 
L 200.077975 -91.006384 
L 199.671751 -90.995678 
L 199.265527 -90.984014 
L 198.859303 -90.971554 
L 198.453078 -90.958476 
L 198.046854 -90.944979 
L 197.64063 -90.931296 
L 197.234406 -90.917666 
L 196.828182 -90.90435 
L 196.421958 -90.8916 
L 196.015733 -90.885371 
L 195.609509 -90.878609 
L 195.203285 -90.866499 
L 194.797061 -90.855912 
L 194.390837 -90.847121 
L 193.984613 -90.840388 
L 193.578388 -90.836382 
L 193.172164 -90.835061 
L 192.76594 -90.836143 
L 192.359716 -90.840099 
L 191.953492 -90.847058 
L 191.547268 -90.856017 
L 191.141043 -90.869228 
L 190.734819 -90.88626 
L 190.328595 -90.906266 
L 189.922371 -90.928861 
L 189.516147 -90.954944 
L 189.109923 -90.983301 
L 188.703698 -91.009169 
L 188.297474 -91.03885 
L 187.89125 -91.069233 
L 187.485026 -91.099815 
L 187.078802 -91.130037 
L 186.672578 -91.159337 
L 186.266353 -91.187122 
L 185.860129 -91.212804 
L 185.453905 -91.235808 
L 185.047681 -91.255561 
L 184.641457 -91.271515 
L 184.235233 -91.283181 
L 183.829008 -91.290105 
L 183.422772 -91.291891 
L 183.016548 -91.269287 
L 182.610324 -91.249293 
L 182.2041 -91.222662 
L 181.797876 -91.204417 
L 181.391651 -91.178841 
L 180.985427 -91.14701 
L 180.579203 -91.110035 
L 180.172979 -91.068303 
L 179.766755 -91.022305 
L 179.360531 -90.972641 
L 178.954306 -90.920015 
L 178.548082 -90.86934 
L 178.141858 -90.818138 
L 177.735634 -90.773131 
L 177.32941 -90.744962 
L 176.923186 -90.701763 
L 176.516961 -90.678376 
L 176.110737 -90.666039 
L 175.704513 -90.656332 
L 175.298289 -90.649606 
L 174.892065 -90.648263 
L 174.485841 -90.651676 
L 174.079616 -90.661671 
L 173.673392 -90.674793 
L 173.267168 -90.691034 
L 172.860944 -90.710311 
L 172.45472 -90.732503 
L 172.048496 -90.757421 
L 171.642271 -90.784818 
L 171.236047 -90.814365 
L 170.829823 -90.848224 
L 170.423599 -90.888941 
L 170.017375 -90.990069 
L 169.611151 -91.041782 
L 169.204926 -91.099461 
L 168.798702 -91.173057 
L 168.392478 -91.272301 
L 167.986248 -91.383075 
L 167.580024 -91.494501 
L 167.1738 -91.602872 
L 166.767575 -91.706046 
L 166.361351 -91.801857 
L 165.955127 -91.888152 
L 165.548903 -91.962819 
L 165.142679 -92.023866 
L 164.736455 -92.069421 
L 164.33023 -92.097797 
L 163.924006 -92.107526 
L 163.517782 -92.097399 
L 163.111558 -92.066503 
L 162.705334 -92.014233 
L 162.29911 -91.931727 
L 161.892885 -91.837241 
L 161.486661 -91.720581 
L 161.080437 -91.585365 
L 160.674213 -91.42865 
L 160.267989 -91.250241 
L 159.861765 -91.057035 
L 159.45554 -90.8519 
L 159.049316 -90.640709 
L 158.643092 -90.43457 
L 158.236868 -90.309019 
L 157.830644 -90.189293 
L 157.424414 -90.089156 
L 157.018189 -90.030909 
L 156.611965 -89.974531 
L 156.205741 -89.913888 
L 155.799517 -89.867074 
L 155.393293 -89.835487 
L 154.987069 -89.820456 
L 154.580844 -89.823357 
L 154.17462 -89.845338 
L 153.768396 -89.887281 
L 153.362172 -89.949767 
L 152.955948 -90.033046 
L 152.549724 -90.137012 
L 152.143499 -90.261195 
L 151.737275 -90.412744 
L 151.331051 -90.600209 
L 150.924827 -90.80928 
L 150.518603 -91.0524 
L 150.112379 -91.329034 
L 149.706154 -91.542918 
L 149.29993 -91.880848 
L 148.893706 -92.231009 
L 148.487482 -92.583515 
L 148.081258 -92.938313 
L 147.675034 -93.273483 
L 147.268809 -93.611133 
L 146.862579 -93.943727 
L 146.456355 -94.252518 
L 146.050131 -94.534557 
L 145.643907 -94.774147 
L 145.237683 -94.969415 
L 144.831458 -95.12546 
L 144.425234 -95.240901 
L 144.01901 -95.279344 
L 143.612786 -95.235996 
L 143.206562 -95.024009 
L 142.800338 -94.565281 
L 142.394113 -94.315216 
L 141.987889 -94.010709 
L 141.581665 -93.619599 
L 141.175441 -93.144442 
L 140.769217 -92.57577 
L 140.362993 -91.883852 
L 139.956768 -91.133307 
L 139.550544 -90.334756 
L 139.14432 -89.50027 
L 138.738096 -88.720699 
L 138.331872 -88.104251 
L 137.925648 -87.57478 
L 137.519423 -87.21553 
L 137.113199 -86.86353 
L 136.706969 -86.510728 
L 136.300745 -86.237468 
L 135.894521 -86.041817 
L 135.488297 -85.95467 
L 135.082072 -85.991138 
L 134.675848 -86.121076 
L 134.269624 -86.328906 
L 133.8634 -86.616548 
L 133.457176 -86.984859 
L 133.050952 -87.458344 
L 132.644727 -88.011961 
L 132.238503 -88.641771 
L 131.832279 -89.34225 
L 131.426055 -90.108114 
L 131.019831 -90.957322 
L 130.613607 -91.853825 
L 130.207382 -92.95248 
L 129.801158 -94.215305 
L 129.394934 -95.580988 
L 128.98871 -96.938409 
L 128.582486 -98.263179 
L 128.176262 -99.587444 
L 127.770038 -100.855565 
L 127.363813 -102.016752 
L 126.957589 -103.044611 
L 126.551365 -104.017739 
L 126.145135 -104.936177 
L 125.738911 -105.755478 
L 125.332686 -106.400191 
L 124.926462 -106.569363 
L 124.520238 -106.477258 
L 124.114014 -106.45846 
L 123.70779 -106.151269 
L 123.301566 -105.537747 
L 122.895341 -104.579207 
L 122.489117 -103.243994 
L 122.082893 -101.618437 
L 121.676669 -99.716996 
L 121.270445 -97.559713 
L 120.864221 -95.177677 
L 120.457997 -92.620188 
L 120.051772 -89.896913 
L 119.645548 -87.048037 
L 119.239324 -84.120791 
L 118.8331 -81.192903 
L 118.426873 -78.444812 
L 118.020648 -75.970912 
L 117.614424 -73.935393 
L 117.2082 -72.178945 
L 116.801976 -70.673487 
L 116.395752 -69.494644 
L 115.989528 -68.61359 
L 115.583304 -68.066138 
L 115.177079 -67.906774 
L 114.770855 -68.124311 
L 114.364631 -68.742562 
L 113.958407 -69.823994 
L 113.552183 -71.380388 
L 113.145956 -73.288586 
L 112.739731 -75.642621 
L 112.333507 -78.435908 
L 111.927283 -81.695641 
L 111.521059 -85.485528 
L 111.114835 -89.764118 
L 110.708611 -94.317438 
L 110.302386 -99.160535 
L 109.896162 -104.408739 
L 109.489938 -109.633982 
L 109.083714 -114.951762 
L 108.67749 -120.289223 
L 108.271266 -125.591204 
L 107.865038 -130.942924 
L 107.458814 -136.281781 
L 107.05259 -141.47936 
L 106.646366 -146.491632 
L 106.240142 -151.277169 
L 105.833918 -155.797004 
L 105.427693 -160.014329 
L 105.021469 -163.894617 
L 104.615245 -167.406005 
L 104.209021 -170.539876 
L 103.802797 -173.30616 
L 103.396573 -175.665585 
L 102.990345 -177.634527 
L 102.584121 -178.926937 
L 102.177897 -179.87759 
L 101.771673 -180.683852 
L 101.365449 -181.009076 
L 100.959225 -180.880998 
L 100.553 -180.343512 
L 100.146776 -179.454817 
L 99.740552 -178.284802 
L 99.334328 -176.911456 
L 98.928104 -175.416836 
L 98.52188 -173.8835 
L 98.115655 -172.450865 
L 97.709428 -171.123826 
L 97.303204 -169.868988 
L 96.89698 -168.853536 
L 96.490756 -168.138581 
L 96.084532 -167.84073 
L 95.678307 -168.087419 
L 95.272083 -168.917142 
L 94.865859 -170.236202 
L 94.459635 -172.032037 
L 94.053411 -174.305431 
L 93.647185 -177.025676 
L 93.240961 -180.119148 
L 92.834737 -183.460971 
L 92.428513 -186.865418 
L 92.022288 -190.178189 
L 91.616064 -193.239983 
L 91.209839 -195.522617 
L 90.803614 -196.706062 
L 90.39739 -196.516508 
L 89.991166 -194.326112 
L 89.584942 -189.526998 
L 89.178718 -182.010873 
L 88.772494 -172.193875 
L 88.366268 -160.356372 
L 87.960044 -147.583864 
L 87.55382 -134.39686 
L 87.147595 -122.533855 
L 86.741371 -112.912292 
L 86.335147 -106.362485 
L 85.928921 -103.472354 
L 85.522697 -104.632156 
L 85.116473 -109.919378 
L 84.710249 -119.102551 
L 84.304025 -131.700643 
L 83.897801 -147.041139 
L 83.491575 -163.188589 
L 83.085351 -180.216285 
L 82.679127 -196.691021 
L 82.272902 -209.949277 
L 81.866678 -218.277379 
L 81.460453 -220.042849 
L 81.054229 -214.294552 
L 80.648005 -200.769544 
L 80.24178 -181.655748 
L 79.835556 -157.376165 
L 79.429332 -130.907209 
L 79.023108 -105.518304 
L 78.616883 -83.918126 
L 78.210658 -68.662948 
L 77.804434 -61.494794 
L 77.398209 -63.18048 
L 76.991985 -73.524388 
L 76.585761 -91.500541 
L 76.179536 -115.335917 
L 75.773312 -144.785391 
L 75.367087 -175.338365 
L 74.960863 -203.917803 
L 74.554639 -227.503152 
L 74.148415 -243.314106 
L 73.74219 -249.23625 
L 73.335965 -244.344923 
L 72.929741 -229.307121 
L 72.523517 -206.165641 
L 72.117292 -178.47089 
L 71.711068 -150.40939 
L 71.304844 -125.913534 
L 70.898619 -107.704565 
L 70.492395 -96.436852 
L 70.08617 -91.190776 
L 69.679946 -89.718971 
L 69.273722 -89.600299 
z
" style="stroke: #1f77b4; stroke-opacity: 0.2"/>
    </defs>
    <g clip-path="url(#p166668c171)">
     <use xlink:href="#m95863e0aec" x="0" y="281.634375" style="fill: #1f77b4; fill-opacity: 0.2; stroke: #1f77b4; stroke-opacity: 0.2"/>
    </g>
   </g>
   <g id="matplotlib.axis_1">
    <g id="xtick_1">
     <g id="line2d_1">
      <path d="M 69.273722 244.078125 
L 69.273722 22.318125 
" clip-path="url(#p166668c171)" style="fill: none; stroke: #b0b0b0; stroke-opacity: 0.3; stroke-width: 0.8; stroke-linecap: square"/>
     </g>
     <g id="line2d_2">
      <defs>
       <path id="m0b7f31ddf7" d="M 0 0 
L 0 3.5 
" style="stroke: #000000; stroke-width: 0.8"/>
      </defs>
      <g>
       <use xlink:href="#m0b7f31ddf7" x="69.273722" y="244.078125" style="stroke: #000000; stroke-width: 0.8"/>
      </g>
     </g>
     <g id="text_1">
      <text style="font: 10px 'DejaVu Sans', 'Bitstream Vera Sans', 'Computer Modern Sans Serif', 'Lucida Grande', 'Verdana', 'Geneva', 'Lucid', 'Arial', 'Helvetica', 'Avant Garde', sans-serif; text-anchor: middle" x="69.273722" y="258.676562" transform="rotate(-0 69.273722 258.676562)">0.0</text>
     </g>
    </g>
    <g id="xtick_2">
     <g id="line2d_3">
      <path d="M 150.437358 244.078125 
L 150.437358 22.318125 
" clip-path="url(#p166668c171)" style="fill: none; stroke: #b0b0b0; stroke-opacity: 0.3; stroke-width: 0.8; stroke-linecap: square"/>
     </g>
     <g id="line2d_4">
      <g>
       <use xlink:href="#m0b7f31ddf7" x="150.437358" y="244.078125" style="stroke: #000000; stroke-width: 0.8"/>
      </g>
     </g>
     <g id="text_2">
      <text style="font: 10px 'DejaVu Sans', 'Bitstream Vera Sans', 'Computer Modern Sans Serif', 'Lucida Grande', 'Verdana', 'Geneva', 'Lucid', 'Arial', 'Helvetica', 'Avant Garde', sans-serif; text-anchor: middle" x="150.437358" y="258.676562" transform="rotate(-0 150.437358 258.676562)">0.2</text>
     </g>
    </g>
    <g id="xtick_3">
     <g id="line2d_5">
      <path d="M 231.600994 244.078125 
L 231.600994 22.318125 
" clip-path="url(#p166668c171)" style="fill: none; stroke: #b0b0b0; stroke-opacity: 0.3; stroke-width: 0.8; stroke-linecap: square"/>
     </g>
     <g id="line2d_6">
      <g>
       <use xlink:href="#m0b7f31ddf7" x="231.600994" y="244.078125" style="stroke: #000000; stroke-width: 0.8"/>
      </g>
     </g>
     <g id="text_3">
      <text style="font: 10px 'DejaVu Sans', 'Bitstream Vera Sans', 'Computer Modern Sans Serif', 'Lucida Grande', 'Verdana', 'Geneva', 'Lucid', 'Arial', 'Helvetica', 'Avant Garde', sans-serif; text-anchor: middle" x="231.600994" y="258.676562" transform="rotate(-0 231.600994 258.676562)">0.4</text>
     </g>
    </g>
    <g id="xtick_4">
     <g id="line2d_7">
      <path d="M 312.764631 244.078125 
L 312.764631 22.318125 
" clip-path="url(#p166668c171)" style="fill: none; stroke: #b0b0b0; stroke-opacity: 0.3; stroke-width: 0.8; stroke-linecap: square"/>
     </g>
     <g id="line2d_8">
      <g>
       <use xlink:href="#m0b7f31ddf7" x="312.764631" y="244.078125" style="stroke: #000000; stroke-width: 0.8"/>
      </g>
     </g>
     <g id="text_4">
      <text style="font: 10px 'DejaVu Sans', 'Bitstream Vera Sans', 'Computer Modern Sans Serif', 'Lucida Grande', 'Verdana', 'Geneva', 'Lucid', 'Arial', 'Helvetica', 'Avant Garde', sans-serif; text-anchor: middle" x="312.764631" y="258.676562" transform="rotate(-0 312.764631 258.676562)">0.6</text>
     </g>
    </g>
    <g id="xtick_5">
     <g id="line2d_9">
      <path d="M 393.928267 244.078125 
L 393.928267 22.318125 
" clip-path="url(#p166668c171)" style="fill: none; stroke: #b0b0b0; stroke-opacity: 0.3; stroke-width: 0.8; stroke-linecap: square"/>
     </g>
     <g id="line2d_10">
      <g>
       <use xlink:href="#m0b7f31ddf7" x="393.928267" y="244.078125" style="stroke: #000000; stroke-width: 0.8"/>
      </g>
     </g>
     <g id="text_5">
      <text style="font: 10px 'DejaVu Sans', 'Bitstream Vera Sans', 'Computer Modern Sans Serif', 'Lucida Grande', 'Verdana', 'Geneva', 'Lucid', 'Arial', 'Helvetica', 'Avant Garde', sans-serif; text-anchor: middle" x="393.928267" y="258.676562" transform="rotate(-0 393.928267 258.676562)">0.8</text>
     </g>
    </g>
    <g id="xtick_6">
     <g id="line2d_11">
      <path d="M 475.091903 244.078125 
L 475.091903 22.318125 
" clip-path="url(#p166668c171)" style="fill: none; stroke: #b0b0b0; stroke-opacity: 0.3; stroke-width: 0.8; stroke-linecap: square"/>
     </g>
     <g id="line2d_12">
      <g>
       <use xlink:href="#m0b7f31ddf7" x="475.091903" y="244.078125" style="stroke: #000000; stroke-width: 0.8"/>
      </g>
     </g>
     <g id="text_6">
      <text style="font: 10px 'DejaVu Sans', 'Bitstream Vera Sans', 'Computer Modern Sans Serif', 'Lucida Grande', 'Verdana', 'Geneva', 'Lucid', 'Arial', 'Helvetica', 'Avant Garde', sans-serif; text-anchor: middle" x="475.091903" y="258.676562" transform="rotate(-0 475.091903 258.676562)">1.0</text>
     </g>
    </g>
    <g id="text_7">
     <text style="font: 10px 'DejaVu Sans', 'Bitstream Vera Sans', 'Computer Modern Sans Serif', 'Lucida Grande', 'Verdana', 'Geneva', 'Lucid', 'Arial', 'Helvetica', 'Avant Garde', sans-serif; text-anchor: middle" x="272.182813" y="272.354687" transform="rotate(-0 272.182813 272.354687)">Tiempo (s)</text>
    </g>
   </g>
   <g id="matplotlib.axis_2">
    <g id="ytick_1">
     <g id="line2d_13">
      <path d="M 48.982813 219.128664 
L 495.382812 219.128664 
" clip-path="url(#p166668c171)" style="fill: none; stroke: #b0b0b0; stroke-opacity: 0.3; stroke-width: 0.8; stroke-linecap: square"/>
     </g>
     <g id="line2d_14">
      <defs>
       <path id="m67470eaa19" d="M 0 0 
L -3.5 0 
" style="stroke: #000000; stroke-width: 0.8"/>
      </defs>
      <g>
       <use xlink:href="#m67470eaa19" x="48.982813" y="219.128664" style="stroke: #000000; stroke-width: 0.8"/>
      </g>
     </g>
     <g id="text_8">
      <text style="font: 10px 'DejaVu Sans', 'Bitstream Vera Sans', 'Computer Modern Sans Serif', 'Lucida Grande', 'Verdana', 'Geneva', 'Lucid', 'Arial', 'Helvetica', 'Avant Garde', sans-serif; text-anchor: end" x="41.982813" y="222.927883" transform="rotate(-0 41.982813 222.927883)">10</text>
     </g>
    </g>
    <g id="ytick_2">
     <g id="line2d_15">
      <path d="M 48.982813 192.034076 
L 495.382812 192.034076 
" clip-path="url(#p166668c171)" style="fill: none; stroke: #b0b0b0; stroke-opacity: 0.3; stroke-width: 0.8; stroke-linecap: square"/>
     </g>
     <g id="line2d_16">
      <g>
       <use xlink:href="#m67470eaa19" x="48.982813" y="192.034076" style="stroke: #000000; stroke-width: 0.8"/>
      </g>
     </g>
     <g id="text_9">
      <text style="font: 10px 'DejaVu Sans', 'Bitstream Vera Sans', 'Computer Modern Sans Serif', 'Lucida Grande', 'Verdana', 'Geneva', 'Lucid', 'Arial', 'Helvetica', 'Avant Garde', sans-serif; text-anchor: end" x="41.982813" y="195.833295" transform="rotate(-0 41.982813 195.833295)">0</text>
     </g>
    </g>
    <g id="ytick_3">
     <g id="line2d_17">
      <path d="M 48.982813 164.939488 
L 495.382812 164.939488 
" clip-path="url(#p166668c171)" style="fill: none; stroke: #b0b0b0; stroke-opacity: 0.3; stroke-width: 0.8; stroke-linecap: square"/>
     </g>
     <g id="line2d_18">
      <g>
       <use xlink:href="#m67470eaa19" x="48.982813" y="164.939488" style="stroke: #000000; stroke-width: 0.8"/>
      </g>
     </g>
     <g id="text_10">
      <text style="font: 10px 'DejaVu Sans', 'Bitstream Vera Sans', 'Computer Modern Sans Serif', 'Lucida Grande', 'Verdana', 'Geneva', 'Lucid', 'Arial', 'Helvetica', 'Avant Garde', sans-serif; text-anchor: end" x="41.982813" y="168.738707" transform="rotate(-0 41.982813 168.738707)">10</text>
     </g>
    </g>
    <g id="ytick_4">
     <g id="line2d_19">
      <path d="M 48.982813 137.8449 
L 495.382812 137.8449 
" clip-path="url(#p166668c171)" style="fill: none; stroke: #b0b0b0; stroke-opacity: 0.3; stroke-width: 0.8; stroke-linecap: square"/>
     </g>
     <g id="line2d_20">
      <g>
       <use xlink:href="#m67470eaa19" x="48.982813" y="137.8449" style="stroke: #000000; stroke-width: 0.8"/>
      </g>
     </g>
     <g id="text_11">
      <text style="font: 10px 'DejaVu Sans', 'Bitstream Vera Sans', 'Computer Modern Sans Serif', 'Lucida Grande', 'Verdana', 'Geneva', 'Lucid', 'Arial', 'Helvetica', 'Avant Garde', sans-serif; text-anchor: end" x="41.982813" y="141.644119" transform="rotate(-0 41.982813 141.644119)">20</text>
     </g>
    </g>
    <g id="ytick_5">
     <g id="line2d_21">
      <path d="M 48.982813 110.750312 
L 495.382812 110.750312 
" clip-path="url(#p166668c171)" style="fill: none; stroke: #b0b0b0; stroke-opacity: 0.3; stroke-width: 0.8; stroke-linecap: square"/>
     </g>
     <g id="line2d_22">
      <g>
       <use xlink:href="#m67470eaa19" x="48.982813" y="110.750312" style="stroke: #000000; stroke-width: 0.8"/>
      </g>
     </g>
     <g id="text_12">
      <text style="font: 10px 'DejaVu Sans', 'Bitstream Vera Sans', 'Computer Modern Sans Serif', 'Lucida Grande', 'Verdana', 'Geneva', 'Lucid', 'Arial', 'Helvetica', 'Avant Garde', sans-serif; text-anchor: end" x="41.982813" y="114.549531" transform="rotate(-0 41.982813 114.549531)">30</text>
     </g>
    </g>
    <g id="ytick_6">
     <g id="line2d_23">
      <path d="M 48.982813 83.655724 
L 495.382812 83.655724 
" clip-path="url(#p166668c171)" style="fill: none; stroke: #b0b0b0; stroke-opacity: 0.3; stroke-width: 0.8; stroke-linecap: square"/>
     </g>
     <g id="line2d_24">
      <g>
       <use xlink:href="#m67470eaa19" x="48.982813" y="83.655724" style="stroke: #000000; stroke-width: 0.8"/>
      </g>
     </g>
     <g id="text_13">
      <text style="font: 10px 'DejaVu Sans', 'Bitstream Vera Sans', 'Computer Modern Sans Serif', 'Lucida Grande', 'Verdana', 'Geneva', 'Lucid', 'Arial', 'Helvetica', 'Avant Garde', sans-serif; text-anchor: end" x="41.982813" y="87.454943" transform="rotate(-0 41.982813 87.454943)">40</text>
     </g>
    </g>
    <g id="ytick_7">
     <g id="line2d_25">
      <path d="M 48.982813 56.561137 
L 495.382812 56.561137 
" clip-path="url(#p166668c171)" style="fill: none; stroke: #b0b0b0; stroke-opacity: 0.3; stroke-width: 0.8; stroke-linecap: square"/>
     </g>
     <g id="line2d_26">
      <g>
       <use xlink:href="#m67470eaa19" x="48.982813" y="56.561137" style="stroke: #000000; stroke-width: 0.8"/>
      </g>
     </g>
     <g id="text_14">
      <text style="font: 10px 'DejaVu Sans', 'Bitstream Vera Sans', 'Computer Modern Sans Serif', 'Lucida Grande', 'Verdana', 'Geneva', 'Lucid', 'Arial', 'Helvetica', 'Avant Garde', sans-serif; text-anchor: end" x="41.982813" y="60.360355" transform="rotate(-0 41.982813 60.360355)">50</text>
     </g>
    </g>
    <g id="ytick_8">
     <g id="line2d_27">
      <path d="M 48.982813 29.466549 
L 495.382812 29.466549 
" clip-path="url(#p166668c171)" style="fill: none; stroke: #b0b0b0; stroke-opacity: 0.3; stroke-width: 0.8; stroke-linecap: square"/>
     </g>
     <g id="line2d_28">
      <g>
       <use xlink:href="#m67470eaa19" x="48.982813" y="29.466549" style="stroke: #000000; stroke-width: 0.8"/>
      </g>
     </g>
     <g id="text_15">
      <text style="font: 10px 'DejaVu Sans', 'Bitstream Vera Sans', 'Computer Modern Sans Serif', 'Lucida Grande', 'Verdana', 'Geneva', 'Lucid', 'Arial', 'Helvetica', 'Avant Garde', sans-serif; text-anchor: end" x="41.982813" y="33.265767" transform="rotate(-0 41.982813 33.265767)">60</text>
     </g>
    </g>
    <g id="text_16">
     <text style="font: 10px 'DejaVu Sans', 'Bitstream Vera Sans', 'Computer Modern Sans Serif', 'Lucida Grande', 'Verdana', 'Geneva', 'Lucid', 'Arial', 'Helvetica', 'Avant Garde', sans-serif; text-anchor: middle" x="14.798438" y="133.198125" transform="rotate(-90 14.798438 133.198125)">Torque (Nm)</text>
    </g>
   </g>
   <g id="line2d_29">
    <path d="M 69.273722 192.034076 
L 69.679946 191.929817 
L 70.08617 190.621809 
L 70.492395 185.893042 
L 70.898619 175.60228 
L 71.304844 158.717241 
L 72.117292 109.498538 
L 72.929741 60.790201 
L 73.335965 45.897841 
L 73.74219 40.662983 
L 74.148415 45.736221 
L 74.554639 60.302818 
L 75.367087 109.551545 
L 76.585761 192.687126 
L 76.991985 212.446803 
L 77.398209 224.825567 
L 77.804434 228.581024 
L 78.210658 223.252751 
L 78.616883 209.34012 
L 79.429332 162.841155 
L 80.24178 110.486208 
L 80.648005 89.701589 
L 81.054229 75.450367 
L 81.460453 68.690653 
L 81.866678 69.349889 
L 82.272902 76.518 
L 83.085351 104.281622 
L 84.304025 154.298351 
L 85.116473 177.401336 
L 85.522697 183.32186 
L 85.928921 185.010165 
L 86.335147 182.499094 
L 86.741371 176.151299 
L 87.55382 154.901905 
L 88.772494 117.19276 
L 89.584942 99.221366 
L 89.991166 93.88469 
L 90.39739 90.97881 
L 90.803614 90.221271 
L 91.209839 91.196957 
L 91.616064 93.43619 
L 92.428513 99.918338 
L 93.647185 109.750741 
L 94.459635 114.361505 
L 94.865859 115.917213 
L 95.272083 116.976908 
L 95.678307 117.564197 
L 96.084532 117.710003 
L 96.490756 117.451764 
L 96.89698 116.831024 
L 97.709428 114.698265 
L 98.928104 110.186031 
L 100.146776 105.897598 
L 100.553 104.892549 
L 100.959225 104.220558 
L 101.365449 103.939446 
L 101.771673 104.092963 
L 102.177897 104.710081 
L 102.584121 105.804452 
L 102.990345 107.375401 
L 103.802797 111.887055 
L 104.615245 118.050525 
L 105.833918 129.857127 
L 107.05259 144.063925 
L 109.489938 176.201152 
L 111.114835 195.976668 
L 111.927283 203.946928 
L 112.739731 210.160322 
L 113.552183 214.429377 
L 113.958407 215.815907 
L 114.364631 216.710555 
L 114.770855 217.127859 
L 115.177079 217.088909 
L 115.583304 216.620755 
L 115.989528 215.755605 
L 116.801976 212.984332 
L 117.614424 209.10729 
L 118.8331 202.023049 
L 120.864221 189.861357 
L 122.082893 184.030451 
L 122.895341 181.187996 
L 123.70779 179.298804 
L 124.114014 178.720425 
L 124.520238 178.382317 
L 124.926462 178.276672 
L 125.332686 178.392175 
L 125.738911 178.714364 
L 126.551365 179.907944 
L 127.363813 181.695619 
L 128.582486 185.088526 
L 131.019831 192.186437 
L 132.238503 194.892173 
L 133.050952 196.167038 
L 133.8634 196.975215 
L 134.675848 197.317631 
L 135.488297 197.225094 
L 136.300745 196.753077 
L 137.113199 195.975349 
L 138.331872 194.423806 
L 141.175441 190.526095 
L 142.394113 189.311251 
L 143.206562 188.762059 
L 144.01901 188.437609 
L 144.831458 188.333619 
L 145.643907 188.431851 
L 146.862579 188.891823 
L 148.487482 189.88114 
L 151.331051 191.718946 
L 152.549724 192.261408 
L 153.768396 192.571382 
L 154.987069 192.6436 
L 156.205741 192.507252 
L 157.830644 192.096188 
L 162.29911 190.804917 
L 163.924006 190.609765 
L 165.548903 190.612355 
L 167.986248 190.884436 
L 172.45472 191.487333 
L 174.892065 191.571376 
L 178.141858 191.414817 
L 183.422772 191.11307 
L 187.485026 191.157441 
L 195.609509 191.322567 
L 213.889609 191.270713 
L 403.190178 191.254152 
L 475.091903 191.254176 
L 475.091903 191.254176 
" clip-path="url(#p166668c171)" style="fill: none; stroke: #1f77b4; stroke-width: 2; stroke-linecap: square"/>
   </g>
   <g id="line2d_30">
    <path d="M 69.273722 192.034076 
L 69.679946 191.93012 
L 70.08617 190.625502 
L 70.492395 185.908106 
L 70.898619 175.640158 
L 71.304844 158.788858 
L 72.117292 109.649331 
L 72.929741 60.985288 
L 73.335965 46.088526 
L 73.74219 40.831043 
L 74.148415 45.867299 
L 74.554639 60.388987 
L 75.367087 109.553286 
L 76.585761 192.665613 
L 76.991985 212.456781 
L 77.398209 224.885099 
L 77.804434 228.702577 
L 78.210658 223.440882 
L 78.616883 209.589464 
L 79.429332 163.15429 
L 80.24178 110.74317 
L 80.648005 89.887457 
L 81.054229 75.546821 
L 81.460453 68.69025 
L 81.866678 69.256701 
L 82.272902 76.345538 
L 82.679127 88.503488 
L 85.116473 177.361405 
L 85.522697 183.387834 
L 85.928921 185.188936 
L 86.335147 182.788525 
L 86.741371 176.538724 
L 87.55382 155.40582 
L 89.178718 107.373468 
L 89.584942 99.424247 
L 89.991166 93.970456 
L 90.39739 90.951369 
L 90.803614 90.092963 
L 91.209839 90.985188 
L 91.616064 93.161031 
L 92.428513 99.576337 
L 93.647185 109.424053 
L 94.459635 114.090093 
L 94.865859 115.679888 
L 95.272083 116.776746 
L 95.678307 117.402008 
L 96.084532 117.586088 
L 96.490756 117.365176 
L 96.89698 116.780317 
L 97.709428 114.711391 
L 98.928104 110.267296 
L 100.146776 106.00708 
L 100.553 105.002707 
L 100.959225 104.327906 
L 101.365449 104.040954 
L 101.771673 104.186688 
L 102.177897 104.795165 
L 102.584121 105.881345 
L 102.990345 107.446056 
L 103.802797 111.956315 
L 104.615245 118.141382 
L 105.833918 130.034649 
L 107.05259 144.386918 
L 111.521059 200.982666 
L 112.333507 208.109626 
L 113.145956 213.329051 
L 113.958407 216.527398 
L 114.364631 217.372078 
L 114.770855 217.731522 
L 115.177079 217.627707 
L 115.583304 217.088689 
L 115.989528 216.147799 
L 116.801976 213.215387 
L 117.614424 209.173167 
L 119.239324 199.275679 
L 120.864221 189.42279 
L 122.082893 183.527888 
L 122.895341 180.687793 
L 123.70779 178.835091 
L 124.114014 178.286612 
L 124.520238 177.98534 
L 124.926462 177.922729 
L 125.332686 178.086625 
L 125.738911 178.461674 
L 126.551365 179.770431 
L 127.363813 181.679144 
L 128.582486 185.24698 
L 131.019831 192.588157 
L 131.832279 194.52413 
L 132.644727 196.03009 
L 133.457176 197.056705 
L 134.269624 197.591155 
L 135.082072 197.653926 
L 135.894521 197.293801 
L 136.706969 196.581702 
L 137.925648 195.044115 
L 141.581665 189.912846 
L 142.394113 189.141762 
L 143.206562 188.599444 
L 144.01901 188.295932 
L 144.831458 188.224462 
L 145.643907 188.363798 
L 146.862579 188.894141 
L 148.487482 189.976022 
L 150.924827 191.680781 
L 152.143499 192.307687 
L 153.362172 192.691409 
L 154.580844 192.817165 
L 155.799517 192.709272 
L 157.424414 192.297119 
L 162.29911 190.791642 
L 163.924006 190.606329 
L 165.548903 190.633787 
L 167.986248 190.952236 
L 172.048496 191.560864 
L 174.485841 191.670841 
L 177.32941 191.54156 
L 183.422772 191.156399 
L 187.078802 191.20633 
L 195.203285 191.397786 
L 213.07716 191.337761 
L 269.94858 191.319556 
L 475.091903 191.31931 
L 475.091903 191.31931 
" clip-path="url(#p166668c171)" style="fill: none; stroke-dasharray: 4.44,1.92; stroke-dashoffset: 0; stroke: #808080; stroke-width: 1.2"/>
   </g>
   <g id="patch_3">
    <path d="M 48.982813 244.078125 
L 48.982813 22.318125 
" style="fill: none; stroke: #000000; stroke-width: 0.8; stroke-linejoin: miter; stroke-linecap: square"/>
   </g>
   <g id="patch_4">
    <path d="M 495.382812 244.078125 
L 495.382812 22.318125 
" style="fill: none; stroke: #000000; stroke-width: 0.8; stroke-linejoin: miter; stroke-linecap: square"/>
   </g>
   <g id="patch_5">
    <path d="M 48.982813 244.078125 
L 495.382812 244.078125 
" style="fill: none; stroke: #000000; stroke-width: 0.8; stroke-linejoin: miter; stroke-linecap: square"/>
   </g>
   <g id="patch_6">
    <path d="M 48.982813 22.318125 
L 495.382812 22.318125 
" style="fill: none; stroke: #000000; stroke-width: 0.8; stroke-linejoin: miter; stroke-linecap: square"/>
   </g>
   <g id="text_17">
    <text style="font: 12px 'DejaVu Sans', 'Bitstream Vera Sans', 'Computer Modern Sans Serif', 'Lucida Grande', 'Verdana', 'Geneva', 'Lucid', 'Arial', 'Helvetica', 'Avant Garde', sans-serif; text-anchor: middle" x="272.182813" y="16.318125" transform="rotate(-0 272.182813 16.318125)">Torque - GA</text>
   </g>
   <g id="legend_1">
    <g id="patch_7">
     <path d="M 374.148438 74.3525 
L 488.382812 74.3525 
Q 490.382812 74.3525 490.382812 72.3525 
L 490.382812 29.318125 
Q 490.382812 27.318125 488.382812 27.318125 
L 374.148438 27.318125 
Q 372.148438 27.318125 372.148438 29.318125 
L 372.148438 72.3525 
Q 372.148438 74.3525 374.148438 74.3525 
z
" style="fill: #ffffff; opacity: 0.8; stroke: #cccccc; stroke-linejoin: miter"/>
    </g>
    <g id="patch_8">
     <path d="M 376.148438 38.916562 
L 396.148438 38.916562 
L 396.148438 31.916562 
L 376.148438 31.916562 
z
" style="fill: #1f77b4; fill-opacity: 0.2; stroke: #1f77b4; stroke-opacity: 0.2; stroke-linejoin: miter"/>
    </g>
    <g id="text_18">
     <text style="font: 10px 'DejaVu Sans', 'Bitstream Vera Sans', 'Computer Modern Sans Serif', 'Lucida Grande', 'Verdana', 'Geneva', 'Lucid', 'Arial', 'Helvetica', 'Avant Garde', sans-serif; text-anchor: start" x="404.148438" y="38.916562" transform="rotate(-0 404.148438 38.916562)">Rango 95% runs</text>
    </g>
    <g id="line2d_31">
     <path d="M 376.148438 50.094687 
L 386.148438 50.094687 
L 396.148438 50.094687 
" style="fill: none; stroke: #1f77b4; stroke-width: 2; stroke-linecap: square"/>
    </g>
    <g id="text_19">
     <text style="font: 10px 'DejaVu Sans', 'Bitstream Vera Sans', 'Computer Modern Sans Serif', 'Lucida Grande', 'Verdana', 'Geneva', 'Lucid', 'Arial', 'Helvetica', 'Avant Garde', sans-serif; text-anchor: start" x="404.148438" y="53.594687" transform="rotate(-0 404.148438 53.594687)">Mejor run</text>
    </g>
    <g id="line2d_32">
     <path d="M 376.148438 64.772812 
L 386.148438 64.772812 
L 396.148438 64.772812 
" style="fill: none; stroke-dasharray: 4.44,1.92; stroke-dashoffset: 0; stroke: #808080; stroke-width: 1.2"/>
    </g>
    <g id="text_20">
     <text style="font: 10px 'DejaVu Sans', 'Bitstream Vera Sans', 'Computer Modern Sans Serif', 'Lucida Grande', 'Verdana', 'Geneva', 'Lucid', 'Arial', 'Helvetica', 'Avant Garde', sans-serif; text-anchor: start" x="404.148438" y="68.272812" transform="rotate(-0 404.148438 68.272812)">Medida</text>
    </g>
   </g>
  </g>
 </g>
 <defs>
  <clipPath id="p166668c171">
   <rect x="48.982813" y="22.318125" width="446.4" height="221.76"/>
  </clipPath>
 </defs>
</svg>
